<svg xmlns="http://www.w3.org/2000/svg" viewBox="0.0 0.0 247.92 245.5" width="317.78324891958295" height="314.67989687935267">
  <defs>
    <style>
      .cls-1 {
        fill: #fff;
      }

      .cls-2 {
        fill: #e64100;
      }

      .cls-3 {
        fill: #0b162a;
      }
    </style>
  </defs>
  <path class="cls-1" d="M247.48,37.08c0-.54-.05-1.08-.27-1.56-5.39-15.2-20.16-13.31-28.94-12.18-2.1.27-5.12.65-6.41.49-2.91-3.23-6.09-6.2-9.38-8.84.16-1.35-.32-2.75-1.4-3.77-.97-.86-2.21-1.29-3.5-1.19-.59.05-2.32.11-3.93.11-.32-.75-.81-1.4-1.51-1.89-1.4-1.08-3.02-1.19-4.1-1.24-.49-.75-1.24-1.4-2.16-1.78-8.03-3.23-16.71-4.85-25.82-4.85-11.7.05-24.2,2.91-37.14,8.41-6.68-.97-12.4-2.75-17.89-4.42C97.9,2.16,91.17.11,83.24,0c-6.31-.05-12.77,1.19-19.67,3.88-1.13.43-2.05,1.29-2.53,2.37-1.51-.32-2.75-.59-3.23-.75-1.24-.43-2.59-.27-3.72.38-.75.49-1.35,1.13-1.72,1.94-.65.11-1.24.27-1.72.54-1.08.54-1.83,1.51-2.21,2.64,0,.05-.05.11-.05.16-.11.32-.16.65-.16.97v.16-.05c-1.99.49-3.5,1.35-4.74,2.21-.27-.05-.59-.16-.86-.22-.22-.05-.38-.11-.54-.11l-.16-.05c-.38-.05-.65-.16-1.02-.22-.22-.05-.43-.05-.59-.11h-.16c-.32-.05-.65-.11-.97-.11-.22,0-.49-.05-.65-.05h-.16c-.32,0-.65-.05-.97-.05h-2.75c-.38,0-.7.05-1.02.05-.27,0-.59.05-.92.05-.32.05-.65.05-1.02.11-.32.05-.65.05-.92.11s-.59.11-1.02.16c-.38.05-.65.11-.92.16-.38.05-.7.16-1.02.22-.27.05-.59.16-.92.22-.38.11-.7.22-1.02.32l-.16.05c-.27.05-.54.16-.81.27-.32.11-.65.22-.92.32l-.11.05-.16.05c-.22.11-.49.16-.75.27-.32.11-.65.27-.86.38l-.16.05-.22.11c-.22.11-.43.22-.7.32-.32.16-.59.32-.86.43l-.43.22c-.16.11-.38.22-.65.32l-.32.16c-.11,0-.22-.05-.32-.05-.81,0-1.62.22-2.32.65-.54.32-1.02.65-1.62,1.08-.16.11-.38.27-.59.38-.38.27-.75.59-1.13.86-.05.05-.16.16-.27.22-.49.16-1.02.38-1.51.65-.27.11-.38.22-.49.27-.05.05-.11.05-.22.11l-.43.22s-.11.05-.16.11c-.16.11-.27.16-.32.22-.05,0-.05.05-.05.05-.05.05-.11.05-.22.11-.16.11-.27.16-.38.27-.05.05-.22.16-.22.16-.11.11-.22.16-.32.22-.11.11-.22.16-.27.22-.11.11-.22.16-.32.27s-.16.11-.22.22c-.11.11-.16.16-.27.22l-.27.27c-.11.11-.22.16-.27.27-.05.05-.16.16-.27.22l-.22.38-.54.54-.22.27-.27.27c-.05.05-.11.16-.22.27l-.16.22c-.16.16-.22.27-.27.38-.05.05-.16.16-.22.27-.11.11-.16.22-.22.32l-.22.38c-.05.11-.16.22-.22.32s-.16.22-.22.32l-.22.32-.16.27c-.11.16-.16.27-.22.38s-.11.16-.16.32c-.05.11-.11.22-.22.38l-.16.27c-.05.16-.11.27-.22.38l-.16.32c-.05.16-.11.27-.16.43,0,.05-.11.27-.11.27-.05.16-.11.32-.16.43l-.11.27-.16.49c-.05.11-.05.22-.11.27l-.16.49c-.05.11-.05.16-.05.27-.05.16-.11.38-.16.54-.05.11-.05.16-.05.27-.05.22-.11.38-.11.54,0,.11-.05.16-.05.27-.05.22-.05.43-.11.59,0,.05,0,.11-.05.22-.05.27-.05.49-.11.7v.11c-.11,1.13-.16,2.26-.11,3.4v.22c0,.22.05.43.05.7v.22c0,.16.05.43.11.65,0,.11,0,.16.05.22.05.22.05.43.11.65,0,.11.05.16.05.22l.16.65c0,.11.05.16.05.22l.16.65c.05.11.05.16.05.27.05.27.16.43.22.59.05.11.05.22.11.32.05.22.16.38.22.59.05.11.05.16.11.27.11.22.16.43.27.59.05.11.11.22.16.27.11.16.16.38.27.54.05.11.11.22.16.27.16.27.22.43.32.54.05.11.16.27.22.32l.32.49c.05.11.16.22.22.32l.32.49c.05.11.16.22.27.32.11.16.27.32.38.49.11.11.16.22.27.32.11.16.27.32.38.49l.27.32c.11.16.27.27.43.43l1.08,1.08c.16.11.27.27.49.43l.32.32c.16.16.32.32.49.43l.38.32c.16.16.32.27.54.43.11.11.27.22.38.27.16.16.38.27.54.38.05.05.43.27.43.27.22.16.38.27.59.38l.11.05.32.22c.22.11.38.22.54.32.05.05.16.11.16.11l.32.22c.22.11.43.27.65.38l.11.05c.11.05.22.11.32.22.22.11.38.22.54.32l.11.05.16.05.32.16c.27.11.49.27.75.38l.16.05.32.16c.27.11.54.27.81.38.05,0,.16.05.16.05.05,0,.11.05.11.05-.05,4.37-1.19,6.36-2.91,9.43-1.51,2.64-3.34,5.98-4.69,11.32-.27,1.19-.11,2.43.54,3.4.65,1.02,1.62,1.78,2.8,2.05.16.05.22.05.27.11.97,1.08.27,6.95-.11,10.13-.86,7.17-1.89,15.95,2.69,22.21l.38,4.15c-.05.11-.11.16-.11.16l-.05.11c-.11.22-.22.43-.27.59-.05.05-.05.11-.05.11-.11.27-.22.43-.27.59l-.05.16c-.05.16-.16.38-.22.54l-.05.11v.05c-.11.22-.16.38-.22.54l-.05.11v.05c-.05.22-.16.43-.22.59,0,0-.05.11-.05.16v.05c-.05.16-.11.38-.16.59,0,.05-.05.11-.05.16-.05.22-.11.38-.16.54,0,.11-.05.16-.05.22-.05.22-.05.43-.11.59,0,.05,0,.16-.05.22,0,.16-.05.38-.05.54v.22c0,.16-.05.38-.05.59v.97c0,.16,0,.38.05.59,0,.11,0,.16.05.22,0,.16.05.38.11.59,0,.11.05.16.05.22.05.16.05.38.11.54s.05.22.05.27c.05.16.11.32.16.54.05.16.05.22.11.27.05.16.11.32.22.54.05.11.11.22.11.27.05.11.11.32.22.49.05.11.11.22.11.27.05.16.16.32.27.49.05.11.11.16.11.22s.05.05.05.05c.05.11.16.27.27.43.05.11.11.16.16.22l.05.05c.05.11.16.22.27.38.05.11.16.16.16.22l.11.11c.05.11.16.22.27.32.05.11.16.16.22.22l.11.11c.05.11.16.22.27.32s.16.16.22.27l1.02,1.02c.11.11.27.22.32.32l.11.11c.05.05.16.11.22.22.16.11.27.22.38.32l.05.05c.11.11.22.16.27.22.16.11.32.27.43.38l.11.05.05.05.16.11c.22.16.49.38.75.54l.11.05c.05.05.11.05.16.11,1.94,11.91,5.61,21.07,10.94,27.33.86,1.02,2.1,1.56,3.4,1.56.43,0,.86-.05,1.24-.16,1.89-.54,3.56-.86,4.96-.86,2.1-.05,3.5.38,4.2,1.35.75,1.08.7,2.75.38,3.5-.7,1.72-.27,3.72,1.13,5.01,15.15,13.69,23.93,15.74,29.75,17.03,4.47,1.02,6.14,1.4,9.32,6.85,3.29,6.04,5.39,11.37,7.17,16.12,4.58,11.91,8.25,21.29,26.57,22.96,3.34.32,7.17.38,11.64.22.59,0,1.29-.05,1.99-.11.59-.05,1.13-.11,1.56-.22.11,0,.22,0,.38-.05,1.13-.16,2.26-.49,3.4-.81.22-.05.43-.11.59-.16h.11c.38-.11.75-.22,1.02-.38.22-.11.38-.22.54-.27l.16-.05c-.11.05-.16.05-.27.11.43-.22.92-.38,1.35-.59-.11.05-.22.11-.38.16.16-.05.32-.16.49-.27,1.19-.59,2.32-1.35,3.4-2.16.11-.05.16-.11.27-.22.97-.75,1.94-1.67,2.8-2.59.11-.11.27-.27.43-.49.27-.27.49-.54.7-.81.16-.22.32-.43.43-.59l.05-.11.81-1.13c.27-.38.49-.7.65-1.02.16-.27.32-.49.43-.7.22-.32.38-.7.59-1.08l.05-.16c.05-.11.16-.27.22-.49.27-.54.54-1.13.81-1.72.05-.16.11-.27.16-.38l.05-.16c.22-.49.38-.97.59-1.51l.05-.11.16-.49c.11-.38.22-.7.32-1.02.22-.32.38-.65.54-1.02l.49-1.51c1.94-5.77,2.48-9.43,2.69-12.72,5.77-2.91,10.67-9.76,15.74-16.98,3.77-5.34,8.52-11.97,11.64-13.1.16-.05.27-.11.43-.16,2.37-1.13,5.39-1.78,8.52-2.48,2.91-.65,6.25-1.35,9.59-2.59-.16.05-.32.11-.49.16.7-.16,1.29-.43,1.89-.75.05,0,.05.05.11.05.22.11.43.16.65.22h.11c.16.05.38.05.54.11h.65c.16,0,.38,0,.54-.05.11,0,.16,0,.27-.05.22-.05.49-.11.7-.22q.05,0,.11-.05c.22-.11.49-.22.7-.38l.05-.05s.05,0,.05-.05c2.91-1.89,4.53-4.42,5.5-6.74.32-.16.59-.32.86-.54.32-.22.65-.49.97-.81l.22-.22c.38-.43.7-.86,1.02-1.29.05-.05.11-.22.16-.27,0,0,0,.05-.05.05.11-.22.27-.49.38-.7.7-.38,1.29-.86,1.78-1.56s.92-1.4,1.4-2.21l.11-.11c1.4-1.4,4.04-4.04,4.8-9.11.05-.22.05-.43.11-.65.05-.49.11-1.08.16-1.72.97-2.53,2.1-4.58,3.18-6.52,1.24-2.21,2.37-4.31,3.23-6.79.11-.43.27-.75.32-1.13,0-.05.05-.16.05-.22.11-.38.16-.7.22-.97,0-.11.05-.22.05-.27.05-.38.11-.65.16-.92,0-.16.05-.27.05-.38.05-.38.11-.65.11-.92,0-.16.05-.27.05-.43.05-.38.05-.65.05-.92v-1.99c0-.27,0-.59-.05-.86,0-.22,0-.43-.05-.65,0-.27-.05-.54-.05-.86,0-.22-.05-.43-.05-.7-.05-.32-.11-.65-.11-.92-.05-.22-.05-.49-.11-.7-.05-.32-.11-.65-.16-.92s-.11-.49-.16-.75c-.05-.32-.16-.7-.22-.97v-.11l-.16-.65c-.11-.38-.16-.7-.27-1.02l-.05-.22-.16-.59c-.11-.38-.22-.7-.27-1.02,0-.11-.11-.32-.11-.32l-.16-.59s-.05-.11-.05-.22c.97-.81,1.51-2.05,1.51-3.29.38-22.42-1.72-37.14-6.95-47.43.16-.05.32-.11.49-.16l.43-.22c.16-.05.32-.11.54-.22.54-.22,1.02-.49,1.51-.7,0,0,.05-.05.11-.05.11-.05.27-.11.43-.22.54-.27,1.08-.54,1.51-.81l.05-.05.32-.16c.59-.32,1.13-.65,1.51-.92-.05,0,0,0,0,0,.05-.05.16-.11.27-.16.43-.32.92-.65,1.46-1.02,0,0,.05-.05.16-.11.49-.38.92-.75,1.4-1.19l-.11.11c.05-.05.16-.11.22-.22.43-.38.86-.81,1.29-1.29l-.11.11.16-.16c.43-.43.81-.92,1.19-1.4,0-.05.05-.05.05-.11,1.99-2.59,3.13-5.55,3.4-8.79.32-.49.65-1.02.92-1.51,0-.05.05-.05.05-.11,1.67-1.99,2.05-5.01,1.19-7.65h0Z"/>
  <ellipse class="cls-2" cx="120.94" cy="107.85" rx="96.95" ry="91.85"/>
  <polygon class="cls-2" points="241.01 45.12 200.28 58.39 200.28 35.66 240.49 42.56 241.01 45.12"/>
  <ellipse class="cls-2" cx="205.64" cy="112.47" rx="22.09" ry="53.58"/>
  <ellipse class="cls-2" cx="126.43" cy="207.45" rx="28.41" ry="32.74"/>
  <ellipse class="cls-2" cx="158.06" cy="191.55" rx="6.54" ry="10.48"/>
  <ellipse class="cls-2" cx="26.02" cy="125.54" rx="5.23" ry="15.06"/>
  <ellipse class="cls-2" cx="31.26" cy="41.66" rx="24.77" ry="13.91"/>
  <polygon class="cls-2" points="222.63 153.83 222.18 155.18 218.28 150.11 220.77 146.6 222.63 153.83"/>
  <ellipse class="cls-2" cx="79.09" cy="20.05" rx="25.53" ry="7.69"/>
  <ellipse class="cls-2" cx="159.68" cy="20.73" rx="28.6" ry="11.49"/>
  <ellipse class="cls-2" cx="217.9" cy="34.55" rx="4.69" ry="25.28" transform="translate(161.39 247.8) rotate(-84.17)"/>
  <ellipse class="cls-2" cx="159.05" cy="29.18" rx="45.82" ry="18.61"/>
  <ellipse class="cls-2" cx="97.99" cy="19.58" rx="10.34" ry="29.33" transform="translate(69.47 115.35) rotate(-84.72)"/>
  <ellipse class="cls-2" cx="32.98" cy="27.06" rx="17.36" ry="6.29"/>
  <ellipse class="cls-2" cx="52.77" cy="28.99" rx="9.41" ry="8.94"/>
  <ellipse class="cls-2" cx="65.13" cy="182.51" rx="2.55" ry="3.32"/>
  <ellipse class="cls-2" cx="126.32" cy="231.44" rx="20.85" ry="8.76"/>
  <ellipse class="cls-2" cx="216.28" cy="92.43" rx="13.1" ry="32.3"/>
  <path class="cls-2" d="M82.54,10.24l6.25,5.77c-5.88.54-10.24,1.02-16.39,1.19-1.72.11-6.36-.16-7.17,0-1.02.16,2.21,1.46,1.19,1.67-.81.16-7.71-1.72-11.27-.54,3.72.81,6.04,1.78,5.44,1.94-3.45.97-5.01,1.78-7.92,3.4l1.29,7.87c-8.52-4.96-20.48-7.49-35.84-7.6l.05-.05c-.86.32-1.67.7-2.37,1.08-12.99,18.54-.7,23.12,7.44,26.25-6.41-6.52-6.58-13.21,1.62-17.09,7.28-1.94,13.37,1.24,18.38,9.7-14.12,12.24-14.18,27.76-12.07,52.93l-11.32,21.45.86,6.68c.49,3.29,2.69,4.42,6.58,3.4-1.67,3.56-.59,8.52,0,11.37.92-2.05,2.26-4.42,5.28-6.14,1.19,14.34,5.12,28.14,15.58,26.09,1.83,2.37,4.64,5.28,7.87,8.25.97.86,2.59,7.44,3.61,8.3.92.81,1.24-3.99,2.21-3.23,1.08.92,1.72,8.84,2.86,9.7.16.32,1.24-6.95,3.72-4.69,10.67,7.49,20.81,11.21,19.35-.16-57.67-24.36-42.96-79.77-42.96-79.77l-5.44,5.23c-.92-8.89-1.19-16.92-.86-23.99.05-1.51,2.48-5.71,2.64-7.11,1.72-3.45,2.69-6.52-3.07-1.13-.16-6.14,5.88-8.68,6.36-10.56.32-1.24-2.86-.97-2.48-2.1,6.52-3.67,4.9-4.74,5.55-6.14.7-1.46-2.26-1.29-1.46-2.48,3.07-4.53,7.01-6.95,11.48-7.17-5.01,7.28-10.83,21.61-8.84,34.77,20-4.9,7.44-24.04,22.69-34.12,7.11-3.56,11.32-4.31,26.14,3.23-4.15.65-10.73,1.62-10.67,6.58,2.69,6.85,19.3-1.89,24.31,16.82-5.44-2.91-7.76-3.77-11.86-1.56,10.03,3.29,16.17,6.31,11.75,17.57-4.47-8.52-8.52-10.08-13.26-6.68-.7-2.48-1.67-4.26-2.86-5.66-.7,9.54-6.36,12.99-15.52,6.74.81,1.51,2.1,3.13,3.77,5.07-3.13-1.08-5.28-2.43-6.36-4.1-1.08,1.94-.16,3.93,2.69,5.88-4.9,9.16,2.32,9.81,7.44,6.2,6.41-8.08,10.46-10.4,14.61-9.86-4.8,10.67-18.22,20.05-10.35,21.78-4.58,5.39-4.64,7.76-.11,7.11-2.86,4.47-3.07,7.38.11,6.52-2.75,16.39.7,21.61,6.41,25.33-4.9,7.22-2.8,16.92,3.99,28.46.05-.32.16-.7.22-.97-.75-14.45.27-15.31,3.67-23.99,2.48,1.46,3.67,7.6,6.95,8.84,1.29-4.47,2.59-7.28,3.83-8.35l3.83,3.4,3.13-1.35,2.16.97,2.1-1.4,3.67,1.24,3.56-2.64c.92-.59,1.67,1.99,2.32,7.76l4.64-5.98c2.16,3.72,2.75,12.4,1.72,25.98,4.74-5.93,7.92-11.64,8.95-17.3,1.51-5.17.38-9.81-3.4-13.74l7.33,3.93v-.05c4.1,1.02,7.01-.38,7.98-4.37,11.75,16.87-6.85,36.49-11.21,49.16l2.48,4.42c12.18-12.72,19.13-22.8,20.86-30.18l4.42,4.37c1.67-2.1,2.8-5.66,3.4-10.73,20.32,8.41,22.21-12.94,34.55-14.07l3.88,6.31c0,.05-.05.05-.05.11.75-.81,1.4-1.99,1.67-4.04v-.05l-1.51-5.55c3.13-14.93,2.91-26.03-.65-33.2,6.47-13.8,5.93-29.75-1.72-47.92-14.71-3.83-20.05-11.91-15.95-24.25,7.65,8.3,33.2,2.32,36.6,6.2,2.26-2.69,3.67-5.82,1.99-8.35-10.94,1.56-16.66-10.51-45.49-3.45-2.53-4.9-6.2-6.85-11-5.77,0-15.95-38.75-17.84-47.86-11.53,7.17,1.89,14.39,2.53,21.72,1.99-7.65,5.28-18.76,7.33-28.08,3.83-5.23,8.03,2.48,18.27,16.82,9.43,3.29-1.02,21.18-8.14,33.26,7.6-25.82-6.58-33.36,15.47-41.83,7.28-2.26-3.13,1.02-15.15-17.14,3.4,2.59-15.95,1.51-24.85-.81-32.72l.16-.32c-13.74-4.26-27.17-6.36-40.21-6.25h0ZM114.45,19.78c3.88,4.69,4.58,12.13,2.1,22.37-2.75,27.06,4.9,10.83,7.22,15.74,1.24,2.05-.11,7.17-1.94,13.42l-8.08-3.18c-1.19-6.95-5.07-12.83-11.64-17.68,9.11-8.35,13.26-18.54,12.34-30.67h0ZM185.6,46.79c37.57,10.83,19.73,63.6,12.18,77.08,6.79-.97,11.53-6.85,14.12-17.52l7.87,11.8c-3.72,2.16-5.88,8.25-6.41,18.38-1.19,4.1-7.82,7.98-11.75,10.08-1.13.59,5.82-6.04,1.13-9.86-2.91,2.91-9.59,14.34-9.86,14.12-2.32.92,1.51-6.63-.92-5.61-1.4.59-7.33,9.38-8.73,10.08-1.35.7,1.08-5.5-.22-4.69-2.37,1.46-5.39,8.3-7.44,10.4.7-8.95-1.13-15.68-5.5-20.21-3.72-1.4-6.09-1.08-12.45.32,1.13-7.6.81-15.15-.92-22.69,11.27,23.72,37.08-15.31,34.06-22.69-6.9,9.06-16.71,7.71-29.48-4.1,23.28-3.34,24.42-6.41,14.39-15.68.16,2.05-3.93,5.01-11.91,9.06,4.15-3.83,6.2-7.06,6.2-9.59-.7-5.71-8.62-10.51-15.42-4.2.97-.86,2.32-1.29,3.93-1.13l1.51,3.18,4.04-2.1c6.14,3.61,1.51,14.28-7.87,9.38-3.83-2.69-3.99-6.74-1.94-8.95-1.67,1.67-3.29,4.04-4.64,7.22-1.78-3.13-8.89-1.19-8.68,17.19-4.69-13.42-7.82-27.76-16.44-18.86l9.81-25.71c2.75,4.58,3.13,6.58,13.21-.65,5.34,9.27,15.15,1.4,17.89,13.42-10.24-1.51-15.31,1.94-15.95,9.38,4.2-7.17,9.16-8.35,15.68-7.06,2.37-4.42,6.2-5.66,13.58,3.99,8.89,2.86,9.54-8.79-2.32-14.39,0-.05.05-.11.05-.16-5.28-2.64-8.79-2.69-12.72-2.21,3.99-7.87,10.08-8.79,18.27-2.69,3.56-.86,6.9-.59,3.61-4.37v.05ZM86.42,69.32l1.46,3.99,2.75-2.91c-.54-.32-1.08-.59-1.62-.86-.92-.11-1.78-.21-2.59-.21h0ZM56.56,89.26c-3.13,6.2-4.04,11.43-3.29,15.95.11.7-.7,6.09-.49,6.79.27.92,1.51-2.86,1.94-1.99.27.65-1.94,6.63.65,8.79.54.86,1.46-5.17,2.1-4.31s2.21,6.58,3.02,7.38c.75.75.75-3.4,1.62-2.69.7.59.92,10.73,5.01,13.42.65.49-.92-9.59,1.94-8.73,7.71,7.06,2.53,26.79,15.9,29.38-4.96-15.42-7.6-32.72-5.28-39.67-13.15-4.1-20.86-12.24-23.12-24.31ZM105.18,97.29c-.75,3.88-2.32,7.38,3.56,8.14,6.36-2.05,9.49.59,9.38,7.98-3.29-1.35-5.17-.27-5.5,3.13l-7.11-4.15c-2.48,3.45-1.4,6.25,3.29,8.46,2.53,1.19,8.14-2.53,10.94.59l-2.1,5.01c3.72.27,13.21-3.99,11.48,4.96l4.85-10.08c7.65-2.8,11.1-7.22,10.35-13.21,7.55,8.84-2.05,14.07-3.72,18.92l4.42-2.32c4.47,4.53,2.69,10.08-5.44,16.76l4.04,3.18s-28.67-2.05-42.42,0l3.67-2.8-5.93-1.67c-9.59-17.03.86-37.19,6.25-42.9h0ZM133.96,103.76c1.02.17,2.06.96,3.15,2.39,1.78,3.13,1.72,6.04-.16,8.79-1.78,1.83-10.08-.11-8.14-6.9,1.78-3.1,3.44-4.55,5.15-4.28h0ZM28.86,106.31c5.44,8.89,5.93,12.61-1.89,21.83.38-7.33-.32-18.43,1.89-21.83ZM112.94,161.83c-.46-.03-.93.06-1.41.3-7.65,13.96-3.45,31.91,3.67,48.24,3.77.7,6.68.32,8.73-1.19l3.67,2.16,3.56-.81,5.28.43-6.52,3.67-4.1-1.89c-3.45,2.91-4.15,2.8-8.41,0l-4.1,2.86-.81-3.56c-7.22-3.13-5.44-6.95-8.84-15.68l-.16-.81c-3.45,14.61-.65,25.23,9.7,22.64l.27.16c9.86,6.68,19.13,1.67,22.8-.11,11.86,2.69,13.64-14.07,10.62-28.78-2.64,8.89-5.98,19.3-9.54,20.91,2.86-17.68,2.53-34.17-1.13-45.6-5.82-4.1-9.38,4.85-15.36,2.96-2.17.38-4.71-5.66-7.92-5.93v.02ZM110.29,229.21c.16,5.55,4.2,10.83,20.1,9.32,9.76-1.13,14.12-3.88,13.1-8.35-12.72,5.66-29,4.8-33.2-.97Z"/>
  <path class="cls-3" d="M81.46,4.64c-4.83.16-10.08,1.19-16.17,3.55-1.02.38,4.64,3.4,3.56,3.88s-12.4-2.1-12.4-2.21c0,0,6.31,3.4,5.71,3.72-.7.38-8.62-1.56-9.38-1.19-.75.43,3.56,3.18,2.75,3.61-.7.38-3.5,0-4.2.43-3.29-.11-4.9,1.51-7.17,2.96-6.79-2.59-17.52-2.05-26.09,4.42l-.05.05c15.42.11,27.38,2.69,35.9,7.65l-1.29-7.87c2.91-1.62,4.47-2.43,7.92-3.4.59-.16-1.72-1.13-5.44-1.94,3.56-1.19,10.46.7,11.27.54.97-.22-2.21-1.46-1.19-1.67.81-.16,5.44.11,7.17,0,6.14-.16,10.51-.65,16.39-1.19l-6.25-5.77c13.04-.11,26.46,1.94,40.21,6.25l-.16.32c2.32,7.87,3.4,16.76.81,32.72,18.16-18.54,14.93-6.58,17.14-3.4,8.41,8.19,16.01-13.91,41.83-7.28-12.07-15.74-29.97-8.62-33.26-7.6-14.34,8.84-22.05-1.35-16.82-9.43,9.27,3.45,20.37,1.4,28.08-3.83-7.33.59-14.55-.11-21.72-1.99,9.16-6.25,47.86-4.42,47.86,11.53,4.8-1.08,8.46.81,11,5.77,28.84-7.06,34.6,5.01,45.6,3.67-6.25-17.57-28.3-5.77-33.8-9.43-2.8-3.23-6.25-6.58-10.29-9.7-.81-.59-3.99-.32-4.8-.92-.86-.59,3.56-1.72,3.88-2.48.05.05-7.92.32-8.79-.16-1.29-.32.86-2.16.22-2.48-1.19-.92-6.2.54-7.33-.59-2.21-1.24,3.13-1.4,2.1-1.78-14.77-5.93-34.5-7.17-59.83,3.72l-.21.43c-17.68-2.18-28.24-9.43-42.74-8.95h0ZM114.5,19.78c.92,12.07-3.23,22.31-12.34,30.67,6.58,4.85,10.46,10.73,11.7,17.68l8.03,3.18c1.78-6.25,3.18-11.37,1.94-13.42-2.32-4.9-10.03,11.27-7.22-15.74,2.43-10.19,1.72-17.68-2.1-22.37ZM15.87,24.96c-9.76,1.51-21.83,23.07,5.66,33.58.86,12.88-4.64,12.99-7.6,24.85,10.24,2.43-2.59,25.17,5.98,34.87l11.37-21.45c-2.05-25.17-1.99-40.69,12.07-52.93-5.01-8.46-11.1-11.7-18.38-9.76-8.19,3.88-8.03,10.56-1.67,17.09-8.08-3.13-20.43-7.71-7.44-26.25ZM204.52,39.19c-4.1,12.34,1.24,20.43,15.95,24.25,7.6,18.16,8.19,34.12,1.72,47.92,3.56,7.17,3.77,18.27.65,33.2l1.51,5.55c4.53-14.61,13.47-14.45,4.04-39.19l3.4,1.29c.49-27.87-3.13-41.4-9.16-49.8,12.56-3.61,18.7-9.27,18.54-17.03-3.45-3.83-28.94,2.1-36.65-6.2h0ZM81.63,40.84c-3.79-.31-6.63.77-10.19,2.54-15.25,10.08-2.69,29.21-22.69,34.12-2.05-13.15,3.83-27.49,8.84-34.77-4.47.16-8.35,2.64-11.48,7.17-.81,1.19,2.16.97,1.46,2.48-.65,1.4.97,2.48-5.55,6.14-.38,1.13,2.8.86,2.48,2.1-.49,1.89-6.52,4.42-6.36,10.56,5.77-5.39,4.8-2.32,3.07,1.13-.11,1.4-2.53,5.61-2.64,7.11-.32,7.06-.05,15.09.86,23.99l5.44-5.23s-14.77,55.52,42.96,79.77c1.4,11.37-8.68,7.65-19.35.16-2.43-2.26-3.56,5.01-3.72,4.69-1.13-.86-1.78-8.79-2.86-9.7-.97-.81-1.29,4.04-2.21,3.23-1.02-.86-2.64-7.44-3.61-8.3-3.23-3.02-5.98-5.93-7.87-8.25-10.46,2.05-14.45-11.8-15.58-26.09-3.07,1.72-4.42,4.1-5.28,6.14-.59-2.86-1.67-7.82,0-11.37-3.88,1.02-6.09-.11-6.58-3.4-3.93,7.28-4.15,11.21,5.23,17.46,1.72,12.07,5.12,21.07,10.24,27,14.93-4.37,16.66,5.71,14.93,9.97,26.57,24.09,30.88,9.54,39.94,25.01,13.69,25.06,7.06,38.32,41.34,36.98,10.08-.22,16.82-5.98,20.1-17.19.11-.11.22-.16.27-.27,2.75-7.82,2.91-11.43,3.13-15.85,10.62-2.21,20.7-27.76,30.18-31.15,5.28-2.53,11.91-2.8,18.49-5.23,2.53-.65,4.47-4.31,5.23-4.69.81-.43,1.72-.16-.43,4.2,5.07-3.23,4.64-9.54,5.23-10.03.75-.59.11,3.67.86,2.96,2.43-1.35,1.99-5.88,2.59-6.58.65-.75.32,3.72.92,2.86,1.24-1.78,2.43-3.83,3.56-6.2,0-.05.05-.05.05-.11l-3.83-6.52c-12.34,1.13-14.23,22.48-34.55,14.07-.59,5.07-1.72,8.62-3.4,10.73l-4.42-4.37c-1.72,7.38-8.68,17.41-20.86,30.18l-2.48-4.42c4.37-12.67,22.96-32.29,11.21-49.16-.97,4.04-3.88,5.39-7.98,4.37v.05l-7.33-3.93c3.77,3.99,4.9,8.57,3.4,13.74-1.02,5.71-4.2,11.37-8.95,17.3,1.02-13.64.43-22.31-1.72-25.98l-4.64,5.98c-.59-5.77-1.4-8.35-2.32-7.76l-3.56,2.64-3.67-1.24-2.1,1.4-2.16-.97-3.13,1.35-3.83-3.4c-1.24,1.08-2.53,3.83-3.83,8.35-3.29-1.24-4.47-7.38-6.95-8.84-3.4,8.68-4.47,9.54-3.67,23.99-.11.32-.16.65-.27.97-6.74-11.53-8.84-21.18-3.99-28.46-5.66-3.72-9.16-8.95-6.36-25.33-3.18.86-2.96-2.05-.11-6.52-4.53.65-4.47-1.72.11-7.11-7.87-1.72,5.55-11.05,10.35-21.78-4.15-.59-8.19,1.72-14.61,9.86-5.12,3.61-12.34,2.96-7.44-6.2-2.86-1.99-3.77-3.93-2.69-5.88,1.08,1.67,3.23,3.02,6.36,4.1-1.72-1.89-2.96-3.56-3.77-5.07,9.16,6.25,14.82,2.8,15.52-6.74,1.19,1.4,2.16,3.18,2.86,5.66,4.8-3.45,8.84-1.83,13.26,6.68,4.47-11.27-1.72-14.28-11.75-17.57,4.04-2.21,6.41-1.35,11.86,1.56-5.01-18.7-21.61-9.97-24.31-16.82-.05-4.96,6.52-5.93,10.67-6.58-7.38-3.77-12.18-5.44-15.95-5.77h0ZM185.65,46.77c3.29,3.77-.05,3.5-3.61,4.37-8.19-6.04-14.28-5.17-18.27,2.69,3.93-.49,7.49-.43,12.72,2.21,0,.05-.05.11-.05.16,11.86,5.66,11.21,17.25,2.32,14.39-7.33-9.65-11.21-8.41-13.58-3.99-6.52-1.35-11.43-.11-15.68,7.06.65-7.44,5.77-10.83,15.95-9.38-2.75-12.02-12.56-4.15-17.89-13.42-10.03,7.22-10.4,5.23-13.21.65l-9.81,25.71c8.68-8.89,11.75,5.44,16.44,18.86-.22-18.33,6.85-20.32,8.68-17.19,1.4-3.23,2.96-5.55,4.64-7.22-1.99,2.16-1.89,6.2,1.94,8.95,9.38,4.9,14.07-5.77,7.87-9.38l-4.04,2.1-1.51-3.18c-1.62-.16-2.96.27-3.93,1.13,6.79-6.31,14.77-1.51,15.42,4.2.05,2.53-2.05,5.71-6.2,9.59,7.98-4.04,12.02-7.01,11.91-9.06,10.03,9.27,8.84,12.34-14.39,15.68,12.77,11.8,22.58,13.21,29.48,4.1,3.07,7.38-22.75,46.35-34.06,22.69,1.78,7.49,2.1,15.09.92,22.69,6.36-1.4,8.73-1.78,12.45-.32,4.42,4.53,6.25,11.27,5.5,20.21,2.1-2.1,5.12-8.95,7.44-10.4,1.29-.81-1.13,5.39.22,4.69,1.4-.7,7.33-9.49,8.73-10.08,2.43-1.02-1.4,6.52.92,5.61.22.22,6.95-11.21,9.86-14.12,4.69,3.83-2.26,10.46-1.13,9.86,3.93-2.1,10.56-5.98,11.75-10.08.54-10.08,2.64-16.22,6.41-18.38l-7.87-11.8c-2.59,10.67-7.33,16.55-14.12,17.52,7.82-13.37,25.66-66.3-12.18-77.08v-.05ZM87.02,69.35c.81,0,1.67.05,2.59.16.54.27,1.08.54,1.62.86l-2.75,2.96-1.46-3.99ZM57.1,89.3c2.32,12.07,10.03,20.16,23.12,24.31-2.32,6.95.32,24.2,5.17,39.72-13.21-2.59-8.08-22.31-15.79-29.43-2.8-.92-1.29,9.16-1.94,8.73-4.1-2.69-4.31-12.83-5.01-13.42-.86-.75-.86,3.45-1.62,2.69-.81-.81-2.32-6.58-3.02-7.38-.65-.81-1.62,5.17-2.1,4.31-2.53-2.16-.32-8.14-.65-8.79-.38-.86-1.67,2.91-1.94,1.99-.16-.7.59-6.09.48-6.79-.7-4.53.22-9.81,3.29-15.95h0ZM105.72,97.22c-5.39,5.71-15.79,25.87-6.25,42.9l5.93,1.67-3.67,2.8c13.69-2.05,42.42,0,42.42,0l-4.1-3.23c8.14-6.63,9.97-12.18,5.5-16.71l-4.42,2.32c1.67-4.85,11.21-10.08,3.72-18.92.75,5.98-2.75,10.35-10.35,13.21l-4.85,10.08c1.72-8.89-7.76-4.64-11.48-4.96l2.1-5.01c-2.8-3.13-8.41.59-10.94-.59-4.64-2.21-5.77-5.01-3.29-8.46l7.11,4.15c.38-3.4,2.21-4.42,5.5-3.13.11-7.38-3.02-10.03-9.38-7.98-5.88-.7-4.26-4.2-3.56-8.14h0ZM134.61,103.74c-1.7-.28-3.36,1.18-5.15,4.28-1.99,6.79,6.31,8.73,8.14,6.9,1.89-2.75,1.89-5.66.16-8.79-1.09-1.43-2.13-2.23-3.15-2.39h0ZM29.5,106.3c-2.26,3.45-1.51,14.5-1.89,21.83,7.87-9.22,7.33-12.94,1.89-21.83ZM113.05,161.81c3.16.22,5.71,6.31,7.92,5.93,5.98,1.89,9.54-7.11,15.36-2.96,3.67,11.48,3.99,27.97,1.13,45.6,3.56-1.62,6.95-12.07,9.54-20.91,3.02,14.71,1.24,31.48-10.62,28.78-3.67,1.78-12.94,6.85-22.8.11l-.27-.16c-10.35,2.64-13.15-7.98-9.7-22.64l.16.81c3.4,8.73,1.62,12.56,8.84,15.68l.81,3.56,4.1-2.86c4.26,2.8,5.01,2.91,8.41,0l4.1,1.89,6.52-3.67-5.28-.43-3.56.81-3.67-2.16c-2.05,1.51-4.96,1.89-8.73,1.19-7.11-16.33-11.32-34.28-3.67-48.24.48-.24.94-.33,1.4-.3v-.02ZM110.41,229.19c4.2,5.71,20.48,6.63,33.2.97,1.02,4.47-3.34,7.28-13.15,8.35-15.85,1.51-19.89-3.77-20.05-9.32Z"/>
</svg>