<?xml version="1.0" encoding="UTF-8"?><svg id="Layer_1" xmlns="http://www.w3.org/2000/svg" viewBox="0 0 378.86 266.37"><defs><style>.cls-1{fill:#fb4f14;}.cls-2{fill:#fff;}</style></defs><path class="cls-2" d="M339.98,128.81c-2-1.01-1.75-2.82-.31-3.89,16.97-12.6,28.58-28.83,28.58-53.78,0-29.57-21.21-71.13-103.95-71.13H50.91L2.62,84.23h35.44c3.97,0,7.16,3.19,7.16,7.15v83.98c0,3.96-3.19,7.15-7.16,7.15H0l48.79,83.86,225.87-.03c72.75,0,104.2-37.94,104.2-78.74,0-26.95-19.22-48.92-38.68-58.78"/><path class="cls-1" d="M213.95,115.08h-35.07v-33.69c.03-3.53,2.9-6.39,6.44-6.39h28.58c1.2,0,2.34.04,3.43.13,14.25,1.1,19.53,9.23,19.53,19.59,0,11.85-6.24,20.34-22.96,20.34l.05.02ZM213.95,192.7h-28.58c-3.56,0-6.44-2.88-6.44-6.43v-33.69h35.07c16.85,0,22.96,8.22,22.96,19.72s-6.24,20.34-22.96,20.34l-.05.06ZM314.03,131.3c-2.57-.61-2.15-3.76-.27-4.45,23.09-8.76,36.69-24.33,36.69-51.79.22-25.29-15.06-45.16-41.8-55.13-12.18-4.54-26.74-7.02-43.3-7.02H64.43l-35.19,62.14h24.21c4.79,0,8.66,3.87,8.66,8.66v100.33c0,4.79-3.87,8.66-8.66,8.66h-23.96l35.44,61.9h117.72s26.17-.02,26.17-.02h65.75c59.9,0,84.48-39.82,84.48-69.02,0-25.71-18.97-47.92-45.3-54.28"/><path d="M350.45,75.06c0,.83-.01,1.65-.04,2.46-51.32,41.15-84.26,97.93-96.96,159.42-10.36-73.62,12.65-153.87,55.2-217.01,1.41.52,2.79,1.08,4.13,1.66.64.27,1.26.55,1.88.83.4.18.79.37,1.19.56.75.36,1.49.73,2.22,1.11,1.88.97,3.68,1.99,5.4,3.08.54.34,1.07.68,1.6,1.04.54.36,1.07.72,1.59,1.09.5.35.99.71,1.48,1.08.45.34.89.68,1.33,1.03.01,0,.01.01.02.01,13.66,10.86,21.11,25.92,20.96,43.64Z"/><path d="M132.69,237.53C95.5,167.65,85.77,87.79,99.62,12.92h-35.19l-35.19,62.14h24.21c4.79,0,8.66,3.87,8.66,8.66v76.99c18.09,29.33,44.18,57.4,70.51,76.37l.07.45Z"/><path d="M236.91,12.92c-6.68,17.47-13.71,38.5-19.58,62.21-1.05-.08-2.29-.13-3.43-.13h-28.58c-3.54,0-6.4,2.85-6.44,6.39v33.69s30.18,0,30.18,0c-1.98,12.09-3.6,24.65-4.68,37.5h-25.46v33.69c0,3.56,2.88,6.43,6.44,6.43h17.6c.26,20.22,2.08,41.05,5.86,61.89h-26.17c-20.59-49.79-49.23-133.11-21.03-241.67h75.29"/></svg>