<?xml version="1.0" encoding="UTF-8" standalone="no"?>
<svg
   width="372"
   height="267"
   viewBox="0 0 372 267"
   fill="none"
   version="1.1"
   id="svg5"
   sodipodi:docname="LAR.svg"
   inkscape:version="1.4.2 (f4327f4, 2025-05-13)"
   xmlns:inkscape="http://www.inkscape.org/namespaces/inkscape"
   xmlns:sodipodi="http://sodipodi.sourceforge.net/DTD/sodipodi-0.dtd"
   xmlns="http://www.w3.org/2000/svg"
   xmlns:svg="http://www.w3.org/2000/svg">
  <defs
     id="defs5" />
  <sodipodi:namedview
     id="namedview5"
     pagecolor="#ffffff"
     bordercolor="#666666"
     borderopacity="1.0"
     inkscape:showpageshadow="2"
     inkscape:pageopacity="0.0"
     inkscape:pagecheckerboard="0"
     inkscape:deskcolor="#d1d1d1"
     showgrid="false"
     inkscape:zoom="2.2825407"
     inkscape:cx="210.07293"
     inkscape:cy="130.77532"
     inkscape:window-width="1920"
     inkscape:window-height="1009"
     inkscape:window-x="1912"
     inkscape:window-y="-8"
     inkscape:window-maximized="1"
     inkscape:current-layer="svg5" />
  <path
     d="M 372,154.55298 C 372,113.26433 355.90696,74.45669 326.67584,45.27181 297.44392,16.07886 258.58448,0 217.248,0 188.25464,0 159.95272,8.098789 135.3708,23.43464 119.30768,33.91106 104.62904,48.1542 92.87384,64.6716 h -5.51368 c -8.898082,0 -25.45936,-0.0226 -25.45936,-0.0226 -0.08184,0 -0.15624,0.007 -0.23808,0.0226 H 60.94104 L 45.4956,99.63013 8.34024,183.58279 0,202.4027 h 78.893922 l 1.167758,2.02874 c 13.02,22.6989 32.48288,40.2557 56.29088,50.78461 0.80384,0.34889 1.61496,0.69859 2.43336,1.04748 16.84432,7.0287 35.0052,10.73647 52.51104,10.73647 8.4072,0 18.28784,-1.07736 26.412,-2.87512 6.53992,-1.44886 16.20464,-4.3466 23.6964,-8.13594 5.0964,-2.57872 12.90112,-7.19264 17.68536,-11.38337 6.36848,-5.57983 10.09576,-9.63649 14.08344,-16.34618 4.64272,-7.80885 4.17448,-12.40824 4.18176,-12.88392 0.007,-0.47488 -0.19328,-2.3106 -0.57336,-2.24357 -0.95912,0.16314 -9.05416,3.72958 -5.86224,2.31787 3.19192,-1.41899 -8.71208,4.02759 -16.84432,6.67253 -2.55224,0.83185 -5.14816,1.56032 -7.71496,2.17734 -7.09064,1.70084 -14.2476,2.5553 -21.27112,2.5553 -4.32248,0 -8.6676,-0.32627 -12.96096,-0.97318 -7.84112,-1.00306 -15.37088,-3.00191 -22.37904,-5.92145 -1.302,-0.54272 -2.58944,-1.12178 -3.84696,-1.72426 -8.24304,-3.92987 -15.92888,-9.36917 -22.41624,-15.818 h 69.17664 l 12.10536,-17.2604 h 45.29424 l -7.5144,17.2604 h 82.01872 l 0.25312,-0.91422 c 0.0146,-0.0444 0.0372,-0.0888 0.0445,-0.13407 l 0.76664,-2.80082 0.91464,-3.35807 c 3.6084,-13.27804 5.43928,-26.95666 5.43928,-40.65063 z m -182.91968,-5.40862 -47.38552,0.39331 c 0.81112,-39.46827 33.15976,-71.77459 74.2884,-73.84775 1.38368,-0.0662 2.78272,-0.10337 4.14376,-0.10337 6.74128,0 13.40736,0.78016 19.8648,2.32513 l -50.91144,71.2246 z m 92.63528,-15.61125 12.71512,-17.80231 c 1.51792,5.80273 2.5668,11.77668 3.1248,17.80231 z"
     fill="#003594"
     id="path1"
     style="stroke-width:1" />
  <path
     d="M 292.32488,100.91505 C 276.41864,78.40917 250.37864,64.87189 220.10512,64.87189 c -1.5624,0 -3.10296,0.0444 -4.64272,0.11871 -46.51456,2.34048 -83.61104,39.63222 -83.61104,85.14148 0,0.16314 0.0154,0.33435 0.0154,0.49749 H 91.98836 L 129.8054,65.36938 h -25.26608 c 20.1996,-21.45033 48.59856,-35.14429 80.0916,-35.813 0.82568,-0.0145 1.65216,-0.0291 2.47056,-0.0291 48.3228,0 88.84816,28.89494 105.22344,71.38774 z"
     fill="#ffd100"
     id="path2"
     style="stroke-width:1" />
  <path
     d="m 182.97224,158.97387 -15.08136,21.19108 c -4.75432,6.39714 -11.07024,11.53844 -20.6832,11.53844 H 14.9916 L 67.213122,73.71368 H 116.94952 L 79.131678,158.98195 H 182.96416 Z"
     fill="#ffd100"
     id="path3"
     style="stroke-width:1" />
  <path
     d="m 362.22368,153.62502 c 0,13.18032 -1.80016,25.94553 -5.10368,38.08644 h -59.57176 c 2.44712,-5.55075 4.49312,-11.31634 6.09272,-17.2604 h -63.90152 l -12.40296,17.25313 H 169.98944 L 250.72072,78.76695 c 14.92448,5.91418 27.6024,16.23473 36.46328,29.34074 l -24.48488,34.26076 h 45.10824 C 307.5324,75.70527 253.332,21.73299 186.50624,21.73299 c -16.27176,0 -31.79144,3.21028 -45.96464,9.00574 22.25288,-13.87971 48.51608,-21.933841 76.68376,-21.933841 80.08432,0 145.0056,64.835301 145.0056,144.812061 z"
     fill="#ffd100"
     id="path4"
     style="stroke-width:1" />
  <path
     d="m 267.89176,225.25748 c -3.20648,3.55917 -6.60624,6.81306 -10.17016,9.77055 -1.70392,1.41899 -3.44504,2.76367 -5.21528,4.04213 -31.3224,22.61733 -73.35112,24.38521 -110.29072,8.98313 -0.75128,-0.31982 -1.51792,-0.6469 -2.2692,-0.97399 -22.74376,-10.05968 -40.57064,-26.86701 -52.16896,-47.06957 h 61.78112 c 8.34088,10.83339 19.33672,19.94251 32.5128,26.23546 1.39176,0.66144 2.80536,1.30027 4.2408,1.89467 20.24488,8.44122 43.23448,9.46609 63.11384,3.81923 2.32096,-0.66063 4.59824,-1.41172 6.82216,-2.25083 3.8688,-1.45614 7.58152,-3.18767 11.09368,-5.18652 0.46824,-0.26733 0.90736,0.33435 0.54992,0.72847 z"
     fill="#ffd100"
     id="path5"
     style="stroke-width:1" />
</svg>
