<?xml version="1.0"?>
<svg xmlns="http://www.w3.org/2000/svg" width="128" height="44" viewBox="0 0 128 44" fill="none">
<path d="M2 38.8973C2.57538 38.0816 2.85943 37.681 3.43481 36.8725V20.0335C2.85943 19.6548 2.57538 19.4654 2 19.0867V16.0131C6.86526 14.083 9.3343 13.2454 14.3234 11.8034C15.7363 12.8303 16.4501 13.3547 17.8776 14.4181C17.8558 17.1566 17.8412 18.5259 17.8194 21.2571C16.8798 22.437 16.4137 23.0342 15.4741 24.236C16.4283 24.9352 16.9017 25.2848 17.8558 25.9985C17.8412 28.9046 17.8339 30.354 17.8194 33.2527C16.3918 35.059 15.6854 35.9694 14.2651 37.8121C9.29789 39.2469 6.84341 40.0845 2 42V38.89L2 38.8973ZM11.898 23.1726C12.3642 22.5535 12.5972 22.2476 13.0634 21.6358V17.6519C12.5972 17.3168 12.3642 17.1493 11.898 16.8216C10.3685 17.295 9.60379 17.5426 8.08886 18.0597V24.4108C9.61107 23.8937 10.3685 23.646 11.898 23.1726ZM11.898 34.2287C12.3642 33.6096 12.5972 33.3037 13.0634 32.6919V28.2272C12.5972 27.8922 12.3642 27.7247 11.898 27.3969C10.3685 27.8704 9.60379 28.118 8.08886 28.6351V35.445C9.61107 34.9352 10.3685 34.6875 11.898 34.2214V34.2287ZM20.8565 33.209C21.3664 32.5827 21.6213 32.2768 22.1311 31.6577V19.6985C21.6213 19.3052 21.3664 19.1085 20.8565 18.7152V15.8383C25.547 14.7385 27.9068 14.287 32.6555 13.6096C34.0029 14.7531 34.6803 15.3285 36.035 16.5084C36.0204 18.8318 36.0131 19.9898 35.9985 22.3132C35.0371 23.3693 34.5637 23.9082 33.6023 24.9789C34.4326 26.6977 34.8551 27.5572 35.6854 29.2906C36.2899 29.7276 36.5885 29.9534 37.193 30.3977V33.2964C34.7604 33.5586 33.5441 33.7189 31.1187 34.0976V30.9731C30.2593 29.2105 29.8296 28.3292 28.9629 26.5739C28.0233 26.7342 27.5572 26.8216 26.6249 26.9964V30.8274C27.0983 31.2061 27.3387 31.3882 27.8121 31.7742V34.6511C25.0226 35.1537 23.6242 35.445 20.8565 36.0932V33.2163V33.209ZM30.3248 22.4661C30.7618 21.9636 30.9803 21.7087 31.4246 21.2061V18.8827C30.9949 18.5186 30.7764 18.3438 30.3467 17.9869C28.8536 18.2272 28.1107 18.3583 26.6249 18.6424V23.1216C28.1034 22.8376 28.8463 22.7138 30.3321 22.4734L30.3248 22.4661ZM38.6205 12.8886C41.4392 12.6118 42.8522 12.5098 45.6708 12.3787V15.2556C45.1828 15.7873 44.9352 16.0568 44.4472 16.5958V27.5062C44.8988 27.9213 45.1245 28.1326 45.5688 28.555C46.5666 28.5113 47.0692 28.4894 48.0743 28.4603C48.5331 27.9942 48.7589 27.7684 49.2178 27.3095V16.421C48.7298 15.9184 48.4822 15.6708 47.9942 15.1755V12.2986C50.8201 12.2185 52.2331 12.2112 55.059 12.2841V15.161C54.5564 15.6635 54.3015 15.9111 53.799 16.4137V29.1158C52.4079 30.4559 51.716 31.1333 50.3248 32.5026C47.5208 32.5317 46.1224 32.59 43.3183 32.7648C41.9272 31.4975 41.2353 30.8711 39.8514 29.6329V16.9308C39.3562 16.4647 39.1085 16.2316 38.6133 15.7655V12.8886H38.6205ZM57.732 29.7567C58.2418 29.276 58.4967 29.0357 59.0138 28.5623V16.5885C58.504 16.0495 58.2491 15.78 57.732 15.2484V12.3714C60.587 12.4953 62.0146 12.5972 64.8623 12.8667V15.7436C64.3525 16.2025 64.0976 16.4355 63.5878 16.9017V28.8755C64.0976 29.4217 64.3525 29.6985 64.8623 30.252V33.1144C62.0146 32.8376 60.587 32.7429 57.732 32.6191V29.7567ZM67.6883 30.5579C68.1835 30.1136 68.4312 29.8878 68.9264 29.4508V17.4771C68.4312 16.9017 68.1835 16.6176 67.6883 16.0495V13.1726C69.9607 13.4421 71.0969 13.595 73.3547 13.9592C75.6271 18.7298 76.756 21.1406 79.0138 26.0131V19.1668C78.4967 18.5477 78.2345 18.2418 77.7101 17.63V14.7312C80.4414 15.2629 81.8034 15.5615 84.52 16.2389V19.1158C84.0248 19.5018 83.7771 19.6985 83.2819 20.0918V32.0656C83.7771 32.6846 84.0248 32.9978 84.52 33.6242C84.5128 34.7677 84.5055 35.3358 84.4982 36.4792C82.3132 35.9403 81.2134 35.6854 79.0138 35.2411C76.7196 30.3176 75.5688 27.8776 73.26 23.0561V30.0554C73.7844 30.6453 74.0466 30.9366 74.5637 31.5266V34.4035C71.8179 33.9374 70.4414 33.7407 67.6883 33.413C67.6883 32.2695 67.6883 31.6941 67.6883 30.5506V30.5579ZM91.1406 12.3205C95.2338 13.5586 97.2658 14.2651 101.272 15.831V22.102C100.121 21.6504 99.5455 21.4319 98.3948 21.0095C97.6446 19.9461 97.2731 19.4144 96.5229 18.3583C95.3358 17.9432 94.7385 17.7393 93.5368 17.3532C93.0342 17.7028 92.7866 17.8776 92.2841 18.2345V21.9927C92.7138 22.5608 92.925 22.8449 93.3547 23.4202C95.3576 24.0685 96.3554 24.4108 98.3438 25.1318C99.6985 27.0036 100.376 27.9432 101.723 29.8514C101.723 33.2819 101.731 34.9934 101.738 38.4239C100.354 39.3125 99.6621 39.764 98.2709 40.689C94.0685 39.1595 91.9417 38.4822 87.6591 37.3095V31.0168C88.8463 31.3445 89.4363 31.512 90.6162 31.8616C91.4101 32.9031 91.8106 33.4202 92.6045 34.4763C93.9301 34.8915 94.5929 35.11 95.9112 35.5688C96.4064 35.2265 96.6613 35.059 97.1566 34.724V30.3394C96.7342 29.7567 96.5229 29.4654 96.1005 28.8827C94.1267 28.1981 93.1362 27.8776 91.1479 27.2804C89.7567 25.4741 89.0575 24.5783 87.6664 22.8084C87.6446 19.6475 87.63 18.0597 87.6082 14.8988C89.0284 13.85 89.7349 13.3401 91.1479 12.335L91.1406 12.3205ZM29.6693 4.9716C29.2105 4.59286 28.9774 4.4035 28.5186 4.02476C25.8747 4.48361 24.5564 4.7531 21.9417 5.34304V6.31901C22.1675 6.49381 22.2841 6.58121 22.5171 6.76329V10.7691C22.2913 11.0459 22.1748 11.1916 21.9417 11.4683V12.4443C24.5564 11.8543 25.8674 11.5849 28.504 11.126C28.9701 10.5798 29.2032 10.303 29.6766 9.76402V8.19811C29.3634 7.93591 29.2032 7.80481 28.89 7.54989C29.2032 7.18572 29.3634 6.99636 29.6766 6.63219V4.9716H29.6693ZM28.0015 9.43627C27.8412 9.62564 27.7611 9.72032 27.6009 9.90969C26.2243 10.1573 25.5397 10.2957 24.1704 10.5798V9.10852C25.5397 8.82447 26.2243 8.68609 27.6009 8.43846C27.7611 8.57684 27.8412 8.64967 28.0015 8.78806V9.43627ZM28.0015 6.53751C27.8558 6.76329 27.783 6.87254 27.6373 7.09833C26.2535 7.34596 25.5688 7.48434 24.1923 7.76839V6.22433C25.5688 5.94028 26.2607 5.80189 27.6373 5.55426C27.783 5.67079 27.8558 5.72906 28.0015 5.85288V6.53751ZM39.5164 2.56082C37.5499 2.7429 36.5666 2.85215 34.6074 3.09978C33.9665 3.81355 33.646 4.17771 33.0051 4.89876V8.82447C33.646 9.37072 33.9665 9.6402 34.6074 10.1937C36.5666 9.93882 37.5499 9.83685 39.5164 9.65477C40.1573 8.96286 40.4778 8.62054 41.126 7.93591V4.0102C40.4851 3.42753 40.1646 3.1362 39.5164 2.56082ZM39.48 7.50619C39.1959 7.81209 39.0503 7.97232 38.7662 8.27822C37.4042 8.40932 36.7196 8.48216 35.3576 8.64967C35.0736 8.40204 34.9279 8.27822 34.6438 8.03059V5.24836C34.9279 4.9279 35.0736 4.76766 35.3576 4.45448C36.7196 4.28696 37.3969 4.21413 38.7662 4.08303C39.0503 4.33795 39.1959 4.46176 39.48 4.72396V7.50619ZM44.4472 7.31682C44.8842 7.29497 45.0954 7.28041 45.5324 7.25856C45.7728 7.46977 45.8966 7.57174 46.1369 7.78296C47.5499 7.72469 48.2564 7.70284 49.6693 7.68099C49.7932 7.54261 49.8587 7.46977 49.9825 7.33139V6.56664C49.8806 6.43554 49.8296 6.37728 49.7276 6.24618C48.0816 6.27531 47.2586 6.29716 45.6125 6.37728C45.1464 5.95484 44.9133 5.74363 44.4472 5.32848V3.34741C44.9133 2.86672 45.1464 2.62637 45.6125 2.14567C47.9942 2.03642 49.1886 2.00728 51.5703 2V3.98106C51.1187 3.98106 50.8929 3.98106 50.4414 3.98106C50.2229 3.75528 50.1136 3.63875 49.8951 3.41296C48.5259 3.43481 47.8412 3.44938 46.4792 3.50765C46.3336 3.6606 46.2607 3.73343 46.1078 3.88638V4.60743C46.2098 4.72396 46.2607 4.78223 46.3627 4.89876C48.0015 4.83321 48.8245 4.81136 50.4632 4.7968C50.9439 5.21923 51.1843 5.43044 51.665 5.86016V7.93591C51.1843 8.39476 50.9439 8.62782 50.4632 9.08667C48.0524 9.10852 46.8507 9.15222 44.4472 9.28332V7.30226V7.31682ZM54.4399 2.02185C57.3751 2.08012 58.8463 2.14567 61.7742 2.35688V4.51275C61.3591 4.48361 61.1479 4.46905 60.7254 4.43991C60.5142 4.12673 60.4122 3.97378 60.201 3.6606C59.6985 3.63146 59.4508 3.6169 58.9483 3.58776V7.71012C59.2105 7.97232 59.3416 8.11071 59.6111 8.37291V9.30517C58.402 9.23234 57.7975 9.21049 56.5812 9.16679V8.23452C56.8507 7.99417 56.9891 7.87036 57.2586 7.63001V3.51493C56.7487 3.49308 56.4938 3.4858 55.984 3.47123C55.7655 3.76256 55.6562 3.90823 55.4377 4.19956C55.0372 4.19228 54.8332 4.185 54.4254 4.17771V2.02185H54.4399ZM70.6963 3.311C68.7371 3.03423 67.7538 2.9177 65.7873 2.71377C65.1464 3.28186 64.8259 3.56591 64.1777 4.1413V8.06701C64.8187 8.75892 65.1391 9.10852 65.7873 9.80772C67.7538 10.0117 68.7371 10.1282 70.6963 10.405C71.3372 9.8587 71.6577 9.58922 72.2986 9.05754V5.13183C71.6577 4.4035 71.3372 4.03933 70.6963 3.311ZM70.6526 8.24909C70.3685 8.48944 70.2229 8.61326 69.9388 8.85361C68.5768 8.67152 67.8995 8.59141 66.5375 8.43846C66.2535 8.12527 66.1078 7.97232 65.8237 7.65914V4.87691C66.1078 4.622 66.2535 4.49818 66.5375 4.25055C67.8995 4.39621 68.5768 4.48361 69.9388 4.6657C70.2229 4.98616 70.3685 5.1464 70.6526 5.46686V8.24909ZM74.8551 10.1209C75.0954 9.91697 75.2119 9.815 75.4523 9.61107V5.60524C75.2119 5.32119 75.0954 5.17553 74.8551 4.89148V3.95921C75.8966 4.1413 76.421 4.23598 77.4625 4.43263C79.0211 6.68318 79.7932 7.81937 81.3445 10.1136V6.78514C81.1114 6.48653 80.9876 6.34086 80.7546 6.04224V5.10998C81.8762 5.35761 82.437 5.48143 83.5514 5.75091V6.68318C83.3183 6.87254 83.1945 6.96723 82.9614 7.15659V11.1624C83.1945 11.461 83.3183 11.614 83.5514 11.9126V12.8449C82.5754 12.6118 82.0874 12.4953 81.1114 12.2841C79.5018 9.91697 78.6934 8.74436 77.0765 6.42826V9.90969C77.3168 10.201 77.4334 10.3467 77.6664 10.6307V11.563C76.5375 11.3445 75.9767 11.2425 74.8478 11.0459V10.1136L74.8551 10.1209Z" fill="#FFB81C"/>
<path d="M103.587 15.3285C102.823 15.3285 102.196 15.9476 102.196 16.7196C102.196 17.4916 102.815 18.1034 103.587 18.1034C104.359 18.1034 104.971 17.4844 104.971 16.7196C104.971 15.9549 104.352 15.3285 103.587 15.3285ZM103.587 17.8048C102.983 17.8048 102.495 17.3168 102.495 16.7123C102.495 16.1078 102.983 15.6198 103.587 15.6198C104.192 15.6198 104.68 16.1078 104.68 16.7123C104.68 17.3168 104.192 17.8048 103.587 17.8048Z" fill="#FFB81C"/>
<path d="M104.156 16.3919C104.156 16.1297 103.945 15.9185 103.683 15.9185H103.013V17.5062H103.311V16.8653H103.523L103.821 17.5062H104.149L103.836 16.8362C104.018 16.7706 104.149 16.5958 104.149 16.3919H104.156ZM103.683 16.5667H103.311V16.2171H103.683C103.777 16.2171 103.858 16.2972 103.858 16.3919C103.858 16.4866 103.777 16.5667 103.683 16.5667Z" fill="#FFB81C"/>
</svg>
