<svg width="230" height="40" viewBox="0 0 230 40" fill="none" xmlns="http://www.w3.org/2000/svg">
<path d="M64.5483 6.00274V10.2398H58.3077V17.6746H63.3622V21.9117H58.3077V33.9833H52.4797V7.79998L50.3731 6.00274C50.3731 6.00274 64.5418 5.99658 64.5483 6.00274Z" fill="white"/>
<path d="M0.0388698 6.00049C0.0260029 6.00049 0.0128669 6.00049 0 6.00049L1.8094 7.47428L1.86355 25.334V25.8996V27.3024V29.8441V33.9712H4.80309H8.77279H10.3986C15.0331 33.9712 16.272 32.6925 16.272 28.2972V24.5012C16.272 23.798 16.2377 23.1828 16.1653 22.6373C16.1605 22.5995 16.156 22.5604 16.1506 22.5232C15.8836 20.6926 15.1376 19.7227 13.5646 19.2662C15.6295 18.6668 16.272 17.1882 16.272 14.0316C16.272 14.0316 16.272 11.6745 16.272 11.6742C16.272 11.4024 16.2675 11.1306 16.2565 10.8591C16.2463 10.6111 16.2305 10.3634 16.2069 10.1165C16.1854 9.89271 16.157 9.66942 16.1192 9.44773C16.0849 9.24669 16.0428 9.04671 15.99 8.84915C15.9418 8.66955 15.8844 8.49183 15.8152 8.31786C15.7515 8.15783 15.6775 8.00129 15.5912 7.85064C15.5099 7.7091 15.418 7.57266 15.314 7.44452C15.2135 7.32014 15.1017 7.20327 14.98 7.09605C14.8575 6.98802 14.7253 6.89018 14.5854 6.80225C14.4393 6.71058 14.2854 6.63016 14.1262 6.55966C13.9555 6.48407 13.7788 6.42 13.5989 6.36532C13.4024 6.30554 13.2019 6.25648 12.9996 6.216C12.7763 6.17124 12.5508 6.13612 12.3243 6.10851C12.0737 6.07769 11.8217 6.05571 11.5695 6.03962C11.0202 6.00451 10.4734 6.00906 9.92357 6.00906C9.79865 6.0096 9.67374 6.01014 9.54909 6.0104L0.0388698 6.00049ZM7.0489 10.2358H9.43516C10.9494 10.2358 11.0872 10.7154 11.0872 12.2739V15.1108C11.0872 16.6291 10.9036 17.1488 9.43516 17.1488H7.0489V10.2358ZM7.0489 29.4048V29.3501V29.0252V26.7049V26.4202V25.3799V25.1153V24.9684V24.71V21.3842V21.1802H9.43516C10.9036 21.1802 11.0872 21.6919 11.0872 23.1871V23.422V23.6351V23.8768V27.3981V27.6978C11.0872 29.256 10.9497 29.7353 9.43516 29.7353H8.69371H7.04916L7.0489 29.4048Z" fill="white"/>
<path d="M24.2 33.9744H26.7337C31.6548 33.9744 32.9216 32.7048 32.9216 28.3401V6.00037L27.1736 6.0075V27.7522C27.1736 29.2998 27.0275 29.7759 25.4194 29.7759L25.4353 29.7687C23.8275 29.7687 23.6811 29.2923 23.6811 27.7451V6.00037H17.9629V28.3401C17.9632 32.7048 19.2788 33.9744 24.2 33.9744Z" fill="white"/>
<path d="M89.919 6.00037H84.1487V6.00167H82.0667L84.1487 7.79567V33.9806H95.5358V29.7435H89.919V6.00037Z" fill="white"/>
<path d="M70.2205 34L71.2421 26.5824H75.3736L76.3951 34H82.067L77.7023 6.00037H68.9133L64.5486 34H70.2205ZM73.3075 11.5835L74.7737 22.23H71.8413L73.3075 11.5835Z" fill="white"/>
<path d="M48.7309 6.00274V10.2398H42.4903V17.6746H47.5449V21.9117H42.4903V33.9833H36.6623V7.79998L34.5557 6.00274C34.5557 6.00274 48.7248 5.99658 48.7309 6.00274Z" fill="white"/>
<path d="M103.331 33.971H105.992C110.627 33.971 111.866 32.7103 111.866 28.3768V11.5941C111.866 7.26068 110.627 6 105.992 6H103.331C98.6506 6 97.4577 7.26068 97.4577 11.5941V28.3768C97.4577 32.7103 98.6506 33.971 103.331 33.971ZM102.643 12.1852C102.643 10.649 102.781 10.1761 104.295 10.1761H105.029C106.544 10.1761 106.681 10.649 106.681 12.1852V27.786C106.681 29.3223 106.544 29.7954 105.029 29.7954H104.295C102.781 29.7954 102.643 29.3225 102.643 27.786V12.1852Z" fill="white"/>
<path d="M166.317 6.00607H162.127H156.845H155.011L156.845 7.6373V33.8556H166.317C171.461 33.8556 172.836 32.5824 172.836 28.2061V24.4262C172.836 21.2835 172.123 19.8117 169.831 19.2145C172.123 18.6174 172.836 17.1455 172.836 14.0028V11.6555C172.836 7.27884 171.461 6.00607 166.317 6.00607ZM167.081 23.3972V27.609V27.636C167.081 29.1807 166.929 29.6569 165.249 29.6569H162.6V29.6387V21.3776V21.3236H165.249C166.878 21.3236 167.081 21.841 167.081 23.3525V23.3972ZM167.081 12.345V15.077V15.1584C167.081 16.6631 166.878 17.1784 165.249 17.1784H162.6V17.1059V10.325V10.2229H165.249C166.929 10.2229 167.081 10.7003 167.081 12.2518V12.345Z" fill="white"/>
<path d="M193.281 33.8548H205.504V29.6397H199.036V21.4472H204.282V17.2308H199.036V10.2319H205.504V6.0163H193.281V33.8548Z" fill="white"/>
<path d="M130.212 6H127.768C122.624 6 121.3 7.25632 121.3 11.5752V13.0669C121.3 16.8755 122.676 18.2499 126.546 20.8414C130.009 23.1187 130.926 23.9039 130.926 26.2205V27.7126C130.926 29.2438 130.773 29.7149 129.143 29.7149H128.481C126.801 29.7149 126.648 29.2438 126.648 27.7126V23.7074H121.3V28.3013C121.3 32.6202 122.624 33.8765 127.768 33.8765H130.212C135.306 33.8765 136.68 32.6202 136.68 28.3013V26.1808C136.68 22.3727 135.254 21.0375 131.384 18.4072C127.921 16.0906 127.004 15.3446 127.004 13.0281V12.0855C127.004 10.6327 127.157 10.162 128.837 10.162H129.449C131.079 10.162 131.282 10.6331 131.282 12.1644V16.2066L136.68 12.2989V11.5761C136.68 7.25633 135.356 6 130.212 6Z" fill="white"/>
<path d="M215.838 6H213.394C208.3 6 206.926 7.25632 206.926 11.5752V13.6957C206.926 17.5038 208.351 18.839 212.222 21.4693C215.685 23.7859 216.602 24.5319 216.602 26.8484V27.791C216.602 29.2438 216.449 29.7145 214.768 29.7145H214.157C212.527 29.7145 212.324 29.2434 212.324 27.7121V23.6699L206.926 27.5776V28.3009C206.926 32.6197 208.249 33.8761 213.394 33.8761H215.838C220.982 33.8761 222.306 32.6197 222.306 28.3009V26.8092C222.306 23.0006 220.931 21.6262 217.06 19.0347C213.597 16.7574 212.68 15.9721 212.68 13.6556V12.1631C212.68 10.6318 212.833 10.1607 214.463 10.1607H215.125C216.805 10.1607 216.958 10.6318 216.958 12.1631V16.1682H222.306V11.5744C222.306 7.25632 220.982 6 215.838 6Z" fill="white"/>
<path d="M190.117 23.6044C190.17 20.4297 187.151 19.8899 187.151 19.8899C189.494 19.294 190.207 17.8243 190.207 14.6453V11.665C190.207 7.29464 188.832 6.02312 183.688 6.02312H174.215V33.8364H179.97V21.9559H182.161C183.044 21.9559 183.601 22.133 183.944 22.4911C184.211 22.8167 184.321 23.2447 184.363 23.6044L184.386 33.8515L191.975 33.8553L190.117 32.254V23.6044H190.117ZM184.452 12.3418V15.7178V15.7857C184.452 17.29 184.248 17.8049 182.619 17.8049H179.97V17.7446V10.323V10.2345H182.619C184.299 10.2345 184.452 10.711 184.452 12.2609V12.3418Z" fill="white"/>
<path d="M142.36 6.02387L138.013 33.8557H143.662L144.68 26.4826H148.794L149.812 33.8557H155.46L151.113 6.02387H142.36ZM145.279 22.2742L146.737 11.5738L148.199 22.2742C148.207 22.2666 145.279 22.2742 145.279 22.2742Z" fill="white"/>
<path d="M227.098 28.3027C225.614 28.3027 224.407 29.5078 224.407 30.9945C224.407 32.4816 225.614 33.6874 227.098 33.6874C228.587 33.6874 229.793 32.4816 229.793 30.9945C229.793 29.5078 228.587 28.3027 227.098 28.3027ZM227.098 33.1107C225.931 33.1107 224.983 32.1639 224.983 30.9949C224.983 29.8258 225.931 28.8791 227.098 28.8791C228.269 28.8791 229.215 29.8258 229.215 30.9949C229.215 32.1639 228.269 33.1107 227.098 33.1107Z" fill="white"/>
<path d="M228.205 30.3717C228.205 29.8642 227.796 29.4557 227.292 29.4557L225.993 29.4553V32.5326H226.572V31.2804H226.985L227.568 32.5326H228.205L227.597 31.2297C227.953 31.1028 228.205 30.7667 228.205 30.3717ZM227.292 30.7049H226.572V30.0328H227.292C227.477 30.0328 227.627 30.183 227.627 30.3717C227.627 30.5547 227.477 30.7049 227.292 30.7049Z" fill="white"/>
</svg>
