<?xml version="1.0"?>
<svg xmlns="http://www.w3.org/2000/svg" width="355" height="40" viewBox="0 0 355 40" fill="none">
<path d="M0.599609 20.1C0.599609 13.9 5.49961 9 11.9996 9C18.4996 9 20.2996 12.6 20.2996 12.6L16.0996 16.2C16.0996 16.2 14.7996 14.3 11.8996 14.3C8.99961 14.3 6.39961 16.7 6.39961 20C6.39961 23.3 8.69961 25.7 11.8996 25.7C15.0996 25.7 16.4996 23.5 16.4996 23.5L20.4996 27C20.4996 27 17.9996 31 11.7996 31C5.59961 31 0.599609 26.3 0.599609 20.1Z" fill="white"/>
<path d="M21.6992 9.2998H27.4992V17.0998H35.0992V9.2998H40.8992V30.6998H35.0992V22.2998H27.4992V30.6998H21.6992V9.2998Z" fill="white"/>
<path d="M49.8008 9.2998V30.6998H43.8008V9.2998H49.8008Z" fill="white"/>
<path d="M51.8008 20.1C51.8008 13.9 56.7008 9 63.2008 9C69.7008 9 71.5008 12.6 71.5008 12.6L67.3008 16.2C67.3008 16.2 66.0008 14.3 63.1008 14.3C60.2008 14.3 57.6008 16.7 57.6008 20C57.6008 23.3 59.9008 25.7 63.1008 25.7C66.3008 25.7 67.7008 23.5 67.7008 23.5L71.7008 27C71.7008 27 69.2008 31 63.0008 31C56.8008 31 51.8008 26.3 51.8008 20.1Z" fill="white"/>
<path d="M79.1992 9.2998H84.9992L93.3992 30.6998H86.9992L85.6992 26.9998H78.0992L76.7992 30.6998H70.6992L79.0992 9.2998H79.1992ZM84.0992 22.3998L81.8992 15.9998L79.6992 22.3998H84.0992Z" fill="white"/>
<path d="M92 20.1C92 13.9 96.9 9 103.4 9C109.9 9 111.8 12.4 111.8 12.4L107.7 16.5C107.7 16.5 106.3 14.3 103.3 14.3C100.3 14.3 97.8 16.7 97.8 20C97.8 23.3 100.1 25.7 103.3 25.7C106.5 25.7 107.3 24.6 107.9 22.6H103V18.5H113.7C113.7 18.5 113.8 19.3 113.8 20.1C113.8 26.1 109.7 30.9 103.2 30.9C96.7 30.9 92 26.2 92 20V20.1Z" fill="white"/>
<path d="M126.099 9C132.499 9 137.299 13.7 137.299 19.9C137.299 26.1 132.399 31 125.899 31C119.399 31 114.699 26.3 114.699 20.1C114.699 13.9 119.599 9 126.099 9ZM125.999 25.7C129.199 25.7 131.499 23.3 131.499 20C131.499 16.7 129.199 14.3 125.999 14.3C122.799 14.3 120.499 16.7 120.499 20C120.499 23.3 122.799 25.7 125.999 25.7Z" fill="white"/>
<path d="M146.901 9.2998H156.901C161.101 9.2998 163.801 11.5998 163.801 14.8998C163.801 18.1998 162.801 18.4998 161.001 19.5998C163.301 20.4998 164.701 22.3998 164.701 24.7998C164.701 28.1998 161.701 30.7998 157.401 30.7998H146.801V9.2998H146.901ZM155.601 17.6998C157.201 17.6998 158.001 16.7998 158.001 15.6998C158.001 14.5998 157.201 13.6998 155.601 13.6998H152.701V17.6998H155.601ZM156.301 26.2998C158.001 26.2998 158.901 25.2998 158.901 24.0998C158.901 22.8998 158.001 21.8998 156.301 21.8998H152.601V26.2998H156.301Z" fill="white"/>
<path d="M166.699 9.2998H172.499V25.4998H182.299V30.6998H166.699V9.2998Z" fill="white"/>
<path d="M191.301 9.2998H197.101L205.501 30.6998H199.101L197.801 26.9998H190.201L188.901 30.6998H182.801L191.201 9.2998H191.301ZM196.301 22.3998L194.101 15.9998L191.901 22.3998H196.301Z" fill="white"/>
<path d="M204.301 20.1C204.301 13.9 209.201 9 215.701 9C222.201 9 224.001 12.6 224.001 12.6L219.801 16.2C219.801 16.2 218.501 14.3 215.601 14.3C212.701 14.3 210.101 16.7 210.101 20C210.101 23.3 212.401 25.7 215.601 25.7C218.801 25.7 220.201 23.5 220.201 23.5L224.201 27C224.201 27 221.701 31 215.501 31C209.301 31 204.301 26.3 204.301 20.1Z" fill="white"/>
<path d="M225.699 9.2998H231.499V18.5998L238.399 9.2998H245.599L237.399 19.3998L246.299 30.6998H239.099L231.599 20.6998V30.6998H225.799V9.2998H225.699Z" fill="white"/>
<path d="M247.1 9.2998H252.9V17.0998H260.5V9.2998H266.3V30.6998H260.5V22.2998H252.9V30.6998H247.1V9.2998Z" fill="white"/>
<path d="M275.699 9.2998H281.499L289.899 30.6998H283.499L282.199 26.9998H274.599L273.299 30.6998H267.199L275.599 9.2998H275.699ZM280.599 22.3998L278.399 15.9998L276.199 22.3998H280.599Z" fill="white"/>
<path d="M292.2 9.2998L296 21.7998L299.6 9.2998H303.7L307.3 21.7998L311.1 9.2998H317.2L310 30.6998H305L301.5 18.9998L298.1 30.6998H293.1L285.9 9.2998H292.3H292.2Z" fill="white"/>
<path d="M318 9.2998H323.8V18.5998L330.7 9.2998H337.9L329.7 19.3998L338.6 30.6998H331.4L323.9 20.6998V30.6998H318.1V9.2998H318Z" fill="white"/>
<path d="M348.5 17.5996C351.3 18.7996 354.4 20.6996 354.4 24.3996C354.4 28.0996 351.2 31.0996 346.4 31.0996C341.6 31.0996 337.9 27.6996 337.9 27.6996L341.3 23.9996C341.3 23.9996 343.7 26.3996 346.6 26.3996C349.5 26.3996 348.4 25.8996 348.4 25.0996C348.4 24.2996 347.5 23.3996 343.9 21.7996C341.2 20.5996 339 18.6996 339 15.4996C339 12.2996 342.1 9.09961 346.7 9.09961C351.3 9.09961 354.2 11.9996 354.2 11.9996L350.8 15.6996C350.8 15.6996 349.1 13.7996 346.7 13.7996C344.3 13.7996 344.9 14.3996 344.9 14.9996C344.9 15.8996 345.5 16.4996 348.3 17.6996L348.5 17.5996Z" fill="white"/>
</svg>
