<?xml version="1.0" encoding="UTF-8"?>
<svg xmlns="http://www.w3.org/2000/svg" width="274.2" height="40" viewBox="0 0 274.2 40">
  <defs>
    <style>
      .cls-1 {
        fill: #fff;
      }
    </style>
  </defs>
  
  <g>
    <g id="Layer_1">
      <g>
        <path class="cls-1" d="M30.8,6.2c0,0,.1,0,.2,0l.4.5c-.3.4-.6.7-1,.9s-.9.3-1.5.3-1,0-1.4-.3-.8-.5-1-.8-.5-.8-.7-1.2-.2-1-.2-1.6,0-1.1.2-1.6.4-.9.7-1.2.7-.6,1.1-.8.9-.3,1.4-.3.9,0,1.3.3.7.4,1,.7l-.4.5s0,0,0,0,0,0-.1,0-.1,0-.2-.1-.2-.1-.3-.2-.3-.2-.5-.2-.4-.1-.7-.1-.6,0-.9.2-.5.3-.7.6-.4.6-.5.9-.2.8-.2,1.3,0,.9.2,1.3.3.7.5.9.4.5.7.6.6.2.9.2.4,0,.5,0,.3,0,.4-.1.3-.1.4-.2.2-.2.3-.3c0,0,.1,0,.2,0Z"/>
        <path class="cls-1" d="M63.1,3.9c0,.6,0,1.1-.3,1.6s-.4.9-.7,1.2-.7.6-1.1.8-.9.3-1.5.3-1,0-1.4-.3-.8-.5-1.1-.8-.6-.8-.7-1.2-.3-1-.3-1.6,0-1.1.3-1.6.4-.9.7-1.2.7-.6,1.1-.8.9-.3,1.4-.3,1,0,1.5.3.8.5,1.1.8.6.8.7,1.2.3,1,.3,1.6ZM62,3.9c0-.5,0-.9-.2-1.3s-.3-.7-.5-.9-.5-.5-.8-.6-.6-.2-1-.2-.7,0-1,.2-.6.3-.8.6-.4.6-.5.9-.2.8-.2,1.3,0,.9.2,1.3.3.7.5.9.5.5.8.6.6.2,1,.2.7,0,1-.2.6-.3.8-.6.4-.6.5-.9.2-.8.2-1.3Z"/>
        <path class="cls-1" d="M89.4,6.9h3v.9h-4V0h1.1v6.8Z"/>
        <path class="cls-1" d="M123.8,3.9c0,.6,0,1.1-.3,1.6s-.4.9-.7,1.2-.7.6-1.1.8-.9.3-1.5.3-1,0-1.4-.3-.8-.5-1.1-.8-.6-.8-.7-1.2-.3-1-.3-1.6,0-1.1.3-1.6.4-.9.7-1.2.7-.6,1.1-.8.9-.3,1.4-.3,1,0,1.5.3.8.5,1.1.8.6.8.7,1.2.3,1,.3,1.6ZM122.7,3.9c0-.5,0-.9-.2-1.3s-.3-.7-.5-.9-.5-.5-.8-.6-.6-.2-1-.2-.7,0-1,.2-.6.3-.8.6-.4.6-.5.9-.2.8-.2,1.3,0,.9.2,1.3.3.7.5.9.5.5.8.6.6.2,1,.2.7,0,1-.2.6-.3.8-.6.4-.6.5-.9.2-.8.2-1.3Z"/>
        <path class="cls-1" d="M150.1,4.6v3.2h-1.1V0h2.1c.5,0,.9,0,1.2.1s.6.2.8.4.4.4.5.7.2.6.2.9,0,.5-.1.8-.2.4-.3.6-.3.3-.6.5-.5.2-.7.3c0,0,.1,0,.2.1s.1.1.2.2l2.1,3h-.9c-.2,0-.3,0-.4-.2l-1.8-2.7c0,0-.1-.1-.2-.2s-.2,0-.3,0h-.7ZM150.1,3.8h1c.3,0,.5,0,.7-.1s.4-.2.5-.3.3-.3.3-.5.1-.4.1-.6c0-.9-.6-1.4-1.7-1.4h-1v2.9Z"/>
        <path class="cls-1" d="M185.6,7.8h-.8c0,0-.2,0-.2,0s-.1-.1-.1-.2l-.7-1.9h-3.2l-.7,1.8c0,0,0,.1-.1.2s-.1,0-.2,0h-.8l2.9-7.7h1.1l2.9,7.7ZM180.9,4.9h2.6l-1.1-3.1c0,0,0-.2-.1-.3s0-.3-.1-.4c0,.1,0,.3-.1.4s0,.2-.1.3l-1.1,3.1Z"/>
        <path class="cls-1" d="M216.6,3.9c0,.6,0,1.1-.3,1.6s-.4.9-.7,1.2-.7.6-1.1.8-.9.3-1.4.3h-2.7V0h2.7c.5,0,1,0,1.4.3s.8.4,1.1.8.5.7.7,1.2.3,1,.3,1.6ZM215.6,3.9c0-.5,0-.9-.2-1.3s-.3-.7-.5-.9-.5-.5-.8-.6-.6-.2-1-.2h-1.6v6h1.6c.4,0,.7,0,1-.2s.6-.3.8-.6.4-.6.5-.9.2-.8.2-1.3Z"/>
        <path class="cls-1" d="M248.6,3.9c0,.6,0,1.1-.3,1.6s-.4.9-.7,1.2-.7.6-1.1.8-.9.3-1.5.3-1,0-1.4-.3-.8-.5-1.1-.8-.6-.8-.7-1.2-.3-1-.3-1.6,0-1.1.3-1.6.4-.9.7-1.2.7-.6,1.1-.8.9-.3,1.4-.3,1,0,1.5.3.8.5,1.1.8.6.8.7,1.2.3,1,.3,1.6ZM247.5,3.9c0-.5,0-.9-.2-1.3s-.3-.7-.5-.9-.5-.5-.8-.6-.6-.2-1-.2-.7,0-1,.2-.6.3-.8.6-.4.6-.5.9-.2.8-.2,1.3,0,.9.2,1.3.3.7.5.9.5.5.8.6.6.2,1,.2.7,0,1-.2.6-.3.8-.6.4-.6.5-.9.2-.8.2-1.3Z"/>
      </g>
      <g>
        <path class="cls-1" d="M11,12.7h15.4l11,27h-11.4l-6.8-18.1h-.9l-6.8,18.1H0L11,12.7ZM9.4,27.9h18.7v7.4H9.4v-7.4Z"/>
        <path class="cls-1" d="M43.6,39.6l-12.2-27h11.5l7.2,15.6h-2.2l7.2-15.6h11.5l-12.2,27h-10.6Z"/>
        <path class="cls-1" d="M71.5,12.7h15.4l11,27h-11.4l-6.8-18.1h-.9l-6.8,18.1h-11.4l11-27ZM69.9,27.9h18.7v7.4h-18.7v-7.4Z"/>
        <path class="cls-1" d="M110,12.7v21.4l-4.1-4.1h15.3v9.7h-21.7V12.7h10.6Z"/>
        <path class="cls-1" d="M132.7,12.7h15.4l11,27h-11.4l-6.8-18.1h-.9l-6.8,18.1h-11.4l11-27ZM131.1,27.9h18.7v7.4h-18.7v-7.4Z"/>
        <path class="cls-1" d="M160.6,12.7h10.7l9.6,10.7v-10.7h10.2v27h-8.7l-10.9-12.2h-.7v12.2h-10.2V12.7Z"/>
        <path class="cls-1" d="M200.4,38.2c-2.3-1.2-4.1-2.8-5.3-4.9-1.2-2.1-1.8-4.5-1.8-7.2s.6-5,1.8-7.1c1.2-2.1,3-3.8,5.3-5,2.3-1.2,5-1.8,8.1-1.8s3.5.2,5.1.6c1.6.4,2.9.9,4,1.6v9.4h-.3c-1.3-.8-2.6-1.3-3.8-1.7-1.2-.4-2.5-.5-3.9-.5s-2.3.2-3.1.6c-.9.4-1.6.9-2,1.6-.5.7-.7,1.5-.7,2.3s.2,1.7.7,2.3c.4.7,1.1,1.2,2,1.6.9.4,2,.6,3.2.6s2.9-.2,4.2-.5,2.5-.9,3.7-1.8h.3v9.2c-1,.8-2.3,1.4-3.9,1.8-1.6.4-3.3.6-5.2.6-3.3,0-6.2-.6-8.5-1.8Z"/>
        <path class="cls-1" d="M230.4,12.7v27h-10.2V12.7h10.2ZM242.4,21.7v8.9h-15.6v-8.9h15.6ZM248.8,12.7v27h-10.2V12.7h10.2Z"/>
        <path class="cls-1" d="M251.8,12.7h22.3v8h-16.2l4.1-4.1v19.2l-4.1-4.1h16.4v8h-22.5V12.7ZM260.5,22.8h13.2v6.6h-13.2v-6.6Z"/>
      </g>
    </g>
  </g>
</svg>
