<?xml version="1.0" encoding="UTF-8"?>
<svg xmlns="http://www.w3.org/2000/svg" id="Layer_1" width="270" height="40" viewBox="0 0 270 40">
  <defs>
    <style>
      .cls-1 {
        fill: none;
      }

      .cls-1, .cls-2 {
        stroke-width: 0px;
      }

      .cls-2 {
        fill: #fff;
      }
    </style>
  </defs>
  <rect class="cls-1" width="400" height="40"/>
  <g>
    <path class="cls-2" d="M100.4,8h-5.1l.9,1.9v18.8l-.9.5h-1.6l-.9-.5V9.9l.9-1.9h-5.1l.9,1.9v20.5l3.2,1.6h3.5l3.2-1.6V9.9l.9-1.9Z"/>
    <path class="cls-2" d="M53,8h-5.1l.9,1.9v18.8l-.9.5h-1.6l-.9-.5V9.9l.9-1.9h-5.1l.9,1.9v20.5l3.2,1.6h3.5l3.2-1.6V9.9l.9-1.9Z"/>
    <path class="cls-2" d="M107.7,18.3l-.9-.5v-6.5l.9-.5h2.2l2.5,1.3v-4.1h-5.7l-3.2,1.6v9.9l3.2,1.6h1.6l.9.5v7.1l-.9.5h-2.2l-2.5-1.3v4.1h5.7l3.2-1.6v-10.6l-3.2-1.6h-1.6Z"/>
    <path class="cls-2" d="M71.1,9.9l.9-1.9h-4.7l-3.5,17.4-3.5-17.4h-4.7l.9,1.9v20.2l-.9,1.9h5.1l-.9-1.9v-12.6l3.2,14.5h1.9l3.2-14.5v12.6l-.9,1.9h5.1l-.9-1.9V9.9Z"/>
    <path class="cls-2" d="M23.8,8h-3.5l-3.2,1.6v20.8l3.2,1.6h3.5l3.2-1.6V9.6l-3.2-1.6ZM23.8,28.7l-.9.5h-1.6l-.9-.5V11.3l.9-.5h1.6l.9.5v17.4h0Z"/>
    <path class="cls-2" d="M39.8,27.9l-2.5,1.3h-3.2V9.9l.9-1.9h-5.1l.9,1.9v20.2l-.9,1.9h9.8v-4.1Z"/>
    <path class="cls-2" d="M85.5,30.4v-8.8l-.8-1.9.8-1.9v-8.2l-3.2-1.6h-7.6l.9,1.9v20.2l-.9,1.9h7.6l3.2-1.6h0ZM78.9,10.8h2.5l.9.5v6l-.5.9h-3v-7.4h0ZM78.9,29.2v-8.1h3l.5.9v6.6l-.9.5h-2.5Z"/>
    <path class="cls-2" d="M161.3,8l.9,1.9v20.2l-.9,1.9h9.8v-4.1l-2.5,1.3h-3.2v-8.1h3.8v-2.8h-3.8v-7.4h3.2l2.5,1.3v-4.1h-9.8Z"/>
    <path class="cls-2" d="M8.2,8h5.7v4.1l-2.5-1.3h-2.2l-.9.5v17.4l.9.5h2.2l2.5-1.3v4.1h-5.7l-3.2-1.6V9.6l3.2-1.6Z"/>
    <path class="cls-2" d="M159,8h-5.1l.9,1.9v18.8l-.9.5h-1.6l-.9-.5V9.9l.9-1.9h-5.1l.9,1.9v20.5l3.2,1.6h3.5l3.2-1.6V9.9l.9-1.9Z"/>
    <path class="cls-2" d="M145.8,27.9l-2.5,1.3h-3.2V9.9l.9-1.9h-5.1l.9,1.9v20.2l-.9,1.9h9.8v-4.1Z"/>
    <path class="cls-2" d="M132.8,30.4v-8.8l-.8-1.9.8-1.9v-8.2l-3.2-1.6h-7.6l.9,1.9v20.2l-.9,1.9h7.6l3.2-1.6h0ZM126.2,10.8h2.5l.9.5v6l-.5.9h-3v-7.4h0ZM126.2,29.2v-8.1h3l.5.9v6.6l-.9.5h-2.5Z"/>
    <path class="cls-2" d="M253,8h-10.7v4.1l2.5-1.3h1.3v19.3l-.9,1.9h5.1l-.9-1.9V10.8h1.3l2.5,1.3v-4.1Z"/>
    <path class="cls-2" d="M188.4,8h-5.1l.9,1.9v18.8l-.9.5h-2.2l-2.5-1.3v4.1h5.7l3.2-1.6V9.9l.9-1.9Z"/>
    <path class="cls-2" d="M228,30.5l-3.9-13.2,4-9.2h-5.1l.9,1.8-3.4,8.9v-8.8l.9-1.9h-5l.9,1.9v20.2l-.9,1.9h5l-.9-1.9v-4.7l1.4-4.4,2.6,9.4-.8,1.6h5.1l-.8-1.5Z"/>
    <path class="cls-2" d="M259.4,18.3l-.9-.5v-6.5l.9-.5h2.2l2.5,1.3v-4.1h-5.7l-3.2,1.6v9.9l3.2,1.6h1.6l.9.5v7.1l-.9.5h-2.2l-2.5-1.3v4.1h5.7l3.2-1.6v-10.6l-3.2-1.6h-1.6Z"/>
    <path class="cls-2" d="M230.4,8l.9,1.9v20.2l-.9,1.9h9.8v-4.1l-2.5,1.3h-3.2v-8.1h3.8v-2.8h-3.8v-7.4h3.2l2.5,1.3v-4.1h-9.8Z"/>
    <path class="cls-2" d="M208.1,8h5.7v4.1l-2.5-1.3h-2.2l-.9.5v17.4l.9.5h2.2l2.5-1.3v4.1h-5.7l-3.2-1.6V9.6l3.2-1.6Z"/>
    <path class="cls-2" d="M201.5,30l-3.2-22h-4.4l-3.2,22-1,2h5.1l-.9-1.9.4-2.8h3.9l.4,2.8-.9,1.9h5.1l-1-2h0ZM194.5,24.4l1.6-12.3,1.6,12.3h-3.1,0Z"/>
  </g>
</svg>
