<?xml version="1.0" encoding="UTF-8"?>
<svg xmlns="http://www.w3.org/2000/svg" id="Layer_2" width="323" height="20" viewBox="0 0 323 20">
  <defs>
    <style>
      .cls-1 {
        fill: #00843d;
      }

      .cls-1, .cls-2 {
        stroke-width: 0px;
      }

      .cls-2 {
        fill: #fff;
      }
    </style>
  </defs>
  <g id="Layer_2-2">
    <g id="Layer_1-2">
      <g>
        <path class="cls-2" d="M8.79,19.68V5.98H0L4.33.34h21.86l-4.33,5.64h-6.36v13.7h-6.71Z"/>
        <path class="cls-2" d="M28.04,19.68V.34h22.87l-4.33,5.64h-11.82v1.62h14.98l-3.73,4.71h-11.25v1.82h16.19l-4.28,5.55h-18.62Z"/>
        <path class="cls-2" d="M72.01,19.68l-5.9-5.96-6.13,5.96h-8.32l6.1-5.75c3.07-2.89,4.05-3.64,4.51-3.96-.46-.38-1.44-1.1-4.1-3.67L51.95.34h9.28l5.55,5.64,5.61-5.64h8.64l-6.48,6.04c-2.23,2.08-3.18,2.86-3.79,3.32.84.55,2.05,1.59,4.77,4.28l5.9,5.7h-9.43Z"/>
        <path class="cls-2" d="M92.22,19.68l4.05-5.55h4.33c.92,0,2.02,0,2.63.06-.29-.32-.92-1.22-1.33-1.82l-3.24-4.71-8.64,12.03h-7.92l12.37-17.23c.92-1.3,2.23-2.46,4.31-2.46s3.32,1.07,4.28,2.46l12.03,17.23h-22.87,0Z"/>
        <path class="cls-2" d="M116.07,19.68l4.31-5.55h14.6c.87,0,1.36-.32,1.36-1.01s-.49-1.01-1.42-1.01h-10.93c-5,0-7.29-2.34-7.29-5.61,0-3.9,2.43-6.16,8.47-6.16h17.06l-4.31,5.64h-13.38c-.9,0-1.36.23-1.36.92s.46.95,1.36.95h10.98c4.68,0,7.26,1.82,7.26,5.35,0,3.99-1.91,6.48-7.89,6.48h-18.82,0Z"/>
        <path class="cls-1" d="M174.12,19.68v-7.17h-10.67v7.17h-6.71V.34h6.71v6.59h10.67V.34h6.68v19.34h-6.68Z"/>
        <path class="cls-1" d="M198.32,20c-9.6,0-14.43-3.09-14.43-10S188.72.03,198.32.03s14.45,3.07,14.45,9.97-4.86,10-14.45,10h0ZM198.32,5.66c-5.78,0-7.75.49-7.75,4.33s1.97,4.37,7.75,4.37,7.78-.55,7.78-4.37-1.97-4.33-7.78-4.33Z"/>
        <path class="cls-1" d="M226.99,19.68c-6.79,0-11.79-4.25-11.79-9.86S220.2.34,226.99.34h13.87l-4.28,5.64h-9.6c-3.09,0-5.09.98-5.09,3.84s1.99,4.31,5.09,4.31h13.87l-4.28,5.55h-9.6Z"/>
        <path class="cls-1" d="M257.81,19.68l-5.17-4.97c-1.97-1.91-2.66-2.57-3.04-3.09.03.81.11,1.76.11,2.69v5.38h-6.71V.34h6.71v4.19c0,1.24-.09,2.51-.15,3.56.52-.58,1.42-1.53,3.09-3.12l4.94-4.63h9.65l-7.31,5.81c-2.57,2.05-3.44,2.72-4.33,3.3.69.49,1.91,1.42,4.33,3.5l7.95,6.73h-10.09,0Z"/>
        <path class="cls-1" d="M269.9,19.68V.34h22.87l-4.33,5.64h-11.82v1.62h14.98l-3.73,4.71h-11.25v1.82h16.19l-4.28,5.55h-18.62Z"/>
        <path class="cls-1" d="M304.96,19.68v-6.24l-11.71-13.1h8.59l4.37,5.29c.78.92,1.79,2.2,2.17,2.89.41-.72,1.33-1.97,2.08-2.89l4.16-5.29h8.38l-11.33,13.12v6.22h-6.71,0Z"/>
      </g>
    </g>
  </g>
</svg>
