<?xml version="1.0"?>
<svg xmlns="http://www.w3.org/2000/svg" width="300" height="40" viewBox="0 0 300 40" fill="none">
<path d="M22.0938 6.77002H10.5977C6.46118 6.77002 3.8219 9.34181 3.8219 12.366C3.8219 14.3837 5.4613 16.7268 8.2833 16.7268C9.86687 16.7268 11.4504 15.6951 11.4504 13.9517C11.4504 12.8132 10.3947 11.8272 9.10046 11.8272C7.8062 11.8272 7.18698 12.8183 7.18698 12.8183C6.00946 11.8323 6.72511 9.00636 10.5927 9.00636C10.5927 9.00636 13.1558 9.00636 13.1558 10.6989V23.1614C13.1558 24.859 10.5927 24.859 10.5927 24.859V27.3444H22.0888C29.1387 27.3444 32.5495 22.2973 32.5495 17.0572C32.5495 11.817 29.1387 6.77002 22.0888 6.77002H22.0938ZM20.7539 24.5591H19.82C19.0942 24.5591 18.5054 23.9695 18.5054 23.2427V10.8666C18.5054 10.1449 19.0993 9.5502 19.82 9.5502H20.7539C21.8248 9.5502 26.738 9.5502 26.738 17.0572C26.738 24.5642 21.8248 24.5591 20.7539 24.5591Z" fill="#E6D7C5"/>
<path d="M163.681 28.061C160.727 28.061 161.341 31.5121 160.199 31.5121C157.337 31.5121 149.749 25.3825 147.084 18.2211C149.703 17.784 152.261 16.4778 152.261 12.6048C152.261 6.77002 146.439 6.77002 143.384 6.77002H131.639C127.503 6.77002 124.868 9.34181 124.868 12.366C124.868 14.3787 126.508 16.7217 129.33 16.7217C130.913 16.7217 132.497 15.69 132.497 13.9466C132.497 12.8081 131.441 11.8221 130.152 11.8221C128.863 11.8221 128.233 12.8132 128.233 12.8132C127.056 11.8272 127.777 9.00128 131.639 9.00128C131.639 9.00128 134.202 9.00128 134.202 10.6938V23.1563C134.202 24.8539 131.639 24.8539 131.639 24.8539V27.3393H142.105V24.8539C142.105 24.8539 139.542 24.8539 139.542 23.1563V18.4447H141.13C143.851 24.6048 151.591 34.2313 159.874 34.2313C163.752 34.2313 166.173 32.8132 166.173 30.6175C166.173 29.2198 165.229 28.061 163.671 28.061H163.681ZM143.389 15.6646H139.547V10.8666C139.547 10.1449 140.136 9.5502 140.861 9.5502H143.394C145.079 9.5502 146.45 10.9174 146.45 12.6048C146.45 14.2923 145.084 15.6646 143.394 15.6646H143.389Z" fill="#E6D7C5"/>
<path d="M219.949 9.25536C223.131 9.25536 222.634 10.9275 222.634 10.9275L219.649 21.1181L216.847 10.9275C216.649 10.1906 216.386 9.25536 218.923 9.25536V6.76997H209.513V9.25536C211.137 9.25536 211.452 10.3024 211.64 10.9275L212.406 13.4892L209.995 20.9097L207.346 10.9275C207.158 10.2261 206.899 9.25536 208.488 9.25536V6.76997H199.408C195.271 6.76997 192.637 9.34177 192.637 12.3659C192.637 14.3786 194.276 16.7217 197.098 16.7217C198.682 16.7217 200.271 15.6899 200.271 13.9466C200.271 12.8081 199.215 11.8221 197.926 11.8221C196.637 11.8221 196.007 12.8132 196.007 12.8132C194.83 11.8272 195.55 9.00123 199.413 9.00123C199.413 9.00123 201.057 9.00123 201.661 10.9225L206.859 27.3341H210.752L213.736 17.9415L216.543 27.3341H220.522L225.836 10.9225C225.836 10.9225 226.379 9.25028 229.059 9.25028V6.76489H219.949V9.25028V9.25536Z" fill="#E6D7C5"/>
<path d="M257.431 23.1766V17.0724C257.431 13.1131 255.127 11.7865 252.452 11.7865C249.778 11.7865 247.377 13.4892 247.377 13.4892V12.1829H245.849L240.479 12.9657V15.4409C240.479 15.4409 242.804 15.4409 242.804 17.1283V23.1766C242.804 24.864 240.479 24.864 240.479 24.864V27.3392H249.524V24.864C249.524 24.864 247.834 24.864 247.834 23.1766V16.6099C247.834 16.6099 249.422 15.0495 250.97 15.0495C251.569 15.0495 252.386 15.2986 252.386 16.9809V23.1766C252.386 24.864 250.696 24.864 250.696 24.864V27.3392H259.472V24.864C259.472 24.864 257.421 24.864 257.421 23.1766H257.431Z" fill="#E6D7C5"/>
<path d="M236.987 23.1766V12.1779H234.992L229.623 12.9657V15.4409C229.623 15.4409 231.942 15.4409 231.942 17.1283V23.1766C231.942 24.864 229.623 24.864 229.623 24.864V27.3392H239.063V24.864C239.063 24.864 236.982 24.864 236.982 23.1766H236.987Z" fill="#E6D7C5"/>
<path d="M234.109 11.1818C235.698 11.1818 236.992 9.87045 236.992 8.24911C236.992 6.62776 235.698 5.32153 234.109 5.32153C232.521 5.32153 231.226 6.63284 231.226 8.24911C231.226 9.86537 232.516 11.1818 234.109 11.1818Z" fill="#E6D7C5"/>
<path d="M103.825 23.1766V12.1779H101.831L96.4607 12.9657V15.4409C96.4607 15.4409 98.7853 15.4409 98.7853 17.1283V23.1766C98.7853 24.864 96.4607 24.864 96.4607 24.864V27.3392H105.901V24.864C105.901 24.864 103.82 24.864 103.82 23.1766H103.825Z" fill="#E6D7C5"/>
<path d="M100.947 11.1818C102.536 11.1818 103.83 9.87045 103.83 8.24911C103.83 6.62776 102.536 5.32153 100.947 5.32153C99.3588 5.32153 98.0646 6.63284 98.0646 8.24911C98.0646 9.86537 99.3538 11.1818 100.947 11.1818Z" fill="#E6D7C5"/>
<path d="M83.4267 8.81317C85.4722 8.81317 85.4468 10.709 87.4009 10.709C88.7154 10.709 89.6392 9.50949 89.6392 8.45739C89.6392 7.19183 87.8374 5.68738 84.6956 5.68738C80.6047 5.68738 75.5038 10.7395 72.895 13.357V12.1778H71.3672L65.9973 12.9606V15.4358C65.9973 15.4358 68.3219 15.4358 68.3219 17.1232V23.1715C68.3219 24.8589 65.9973 24.8589 65.9973 24.8589V27.3341H75.6205V24.8589C75.6205 24.8589 73.3568 24.8589 73.3568 23.1715V16.4015C78.8841 10.6378 80.9448 8.81317 83.4318 8.81317H83.4267Z" fill="#E6D7C5"/>
<path d="M185.521 23.1766V5.43835H183.953C183.953 5.43835 181.009 6.76999 178.162 6.76999V9.24522C178.162 9.24522 180.481 9.24522 180.481 10.9326V12.6912C179.491 12.1118 178.365 11.7814 177.162 11.7814C173.213 11.7814 170.015 15.3494 170.015 19.7509C170.015 24.1525 173.218 27.7255 177.162 27.7255C178.613 27.7255 179.958 27.2478 181.085 26.4193V27.3342H187.846V24.8589C187.846 24.8589 185.521 24.8589 185.521 23.1715V23.1766ZM180.486 23.1207C179.913 24.0813 179.101 24.681 178.197 24.681C176.466 24.681 175.055 22.4752 175.055 19.756C175.055 17.0368 176.461 14.8361 178.197 14.8361C179.101 14.8361 179.918 15.4358 180.486 16.3964V23.1156V23.1207Z" fill="#E6D7C5"/>
<path d="M86.1522 11.7865C80.5437 11.7865 77.7979 15.3545 77.7979 19.756C77.7979 24.1575 80.5437 27.7306 86.1522 27.7306C91.7607 27.7306 94.5065 24.1626 94.5065 19.756C94.5065 15.3494 91.7556 11.7865 86.1522 11.7865ZM86.1522 24.6048C83.9596 24.6048 83.2591 22.4345 83.2591 19.756C83.2591 17.0775 83.9596 14.9123 86.1522 14.9123C88.3448 14.9123 89.0453 17.0775 89.0453 19.756C89.0453 22.4345 88.3448 24.6048 86.1522 24.6048Z" fill="#E6D7C5"/>
<path d="M114.484 24.4067C113.712 24.4067 113.362 23.7815 113.362 22.8514V14.6532H117.555V12.1779H113.362V7.4054H110.398C109.926 12.4727 106.241 12.5388 106.241 12.5388V14.6532H108.322V23.5884C108.322 25.784 109.246 27.7358 112.545 27.7358C116.996 27.7358 118.996 24.8997 118.996 24.8997L117.184 22.7548C117.184 22.7548 115.778 24.4168 114.479 24.4168L114.484 24.4067Z" fill="#E6D7C5"/>
<path d="M59.5107 24.4067C58.7393 24.4067 58.3891 23.7815 58.3891 22.8514V14.6532H62.5814V12.1779H58.3891V7.4054H55.4199C54.9529 12.4727 51.2681 12.5388 51.2681 12.5388V14.6532H53.349V23.5884C53.349 25.784 54.2728 27.7358 57.5719 27.7358C62.0181 27.7358 64.0229 24.8997 64.0229 24.8997L62.216 22.7548C62.216 22.7548 60.8101 24.4168 59.5107 24.4168V24.4067Z" fill="#E6D7C5"/>
<path d="M161.351 11.7866C156.971 11.7866 153.418 15.3546 153.418 19.7561C153.418 24.1576 156.971 27.7307 161.351 27.7307C164.727 27.7307 167.604 26.0941 168.757 22.9632L166.483 21.8196C166.483 21.8196 165.219 24.6049 162.351 24.6049C160.022 24.6049 159.093 22.8514 158.824 21.0115L169.021 17.6976C168.117 14.2872 165.026 11.7815 161.351 11.7815V11.7866ZM158.885 18.2211C159.276 16.2643 160.387 14.8514 161.691 14.8514C162.595 14.8514 163.402 15.5223 163.945 16.5795L158.885 18.2211Z" fill="#E6D7C5"/>
<path d="M42.7412 11.7866C38.3559 11.7866 34.8081 15.3546 34.8081 19.7561C34.8081 24.1576 38.361 27.7307 42.7412 27.7307C46.1113 27.7307 48.9942 26.0941 50.1413 22.9632L47.8624 21.8196C47.8624 21.8196 46.5986 24.6049 43.7309 24.6049C41.4012 24.6049 40.4673 22.8514 40.2034 21.0115L50.4002 17.6976C49.4967 14.2872 46.4057 11.7815 42.7361 11.7815L42.7412 11.7866ZM40.2694 18.2211C40.6551 16.2643 41.7667 14.8514 43.0762 14.8514C43.9796 14.8514 44.7866 15.5223 45.3297 16.5795L40.2694 18.2211Z" fill="#E6D7C5"/>
<path d="M282.515 15.878C282.515 15.0495 283.702 14.6988 284.626 14.6988C287.073 14.6988 288.519 17.0571 288.519 17.0571L290.96 16.6912L290.377 12.1779H288.56L288.123 12.9199C288.123 12.9199 286.393 11.7865 284.266 11.7865C281.012 11.7865 278.109 13.911 278.109 17.1486C278.109 23.6239 287.641 20.8132 287.641 23.4002C287.641 24.3812 286.245 24.8183 284.895 24.8183C282.017 24.8183 280.312 22.0991 280.312 22.0991L277.866 22.4599L279.053 27.3392H281.139L281.429 26.8106C281.429 26.8106 282.85 27.7306 285.286 27.7306C288.534 27.7306 292.047 25.972 292.047 22.1855C292.047 16.0305 282.515 18.5159 282.515 15.8729V15.878Z" fill="#E6D7C5"/>
<path d="M274.409 12.7217C274.952 12.7217 275.424 13.1131 276.003 13.1131C277.109 13.1131 277.906 12.3303 277.906 11.4511C277.906 10.1499 276.729 9.36719 275.551 9.36719C272.963 9.36719 271.45 11.6747 271.217 12.0559C270.506 11.878 269.724 11.7814 268.867 11.7814C264.436 11.7814 261.944 14.343 261.944 17.5044C261.944 19.141 262.614 20.615 263.867 21.662C263.314 21.8094 261.126 22.5819 261.126 25.2859C261.126 26.5311 261.685 27.3799 262.548 27.9695C262.213 28.1067 260.588 28.8742 260.588 30.6632C260.588 32.6556 262.4 34.6785 268.369 34.6785C274.338 34.6785 277.358 32.6658 277.358 29.0622C277.358 22.6531 265.501 26.1448 265.501 23.5934C265.501 22.9479 265.979 22.8767 266.293 22.897C267.06 23.1105 267.917 23.2274 268.867 23.2274C273.303 23.2274 275.79 20.6658 275.79 17.5044C275.79 15.7204 274.998 14.1245 273.511 13.0775C273.607 12.9606 273.861 12.7217 274.404 12.7217H274.409ZM272.658 30.7547C272.658 31.263 272.343 32.1728 268.344 32.1728C264.344 32.1728 263.943 30.8716 263.943 30.4854C263.943 29.6721 264.679 29.174 265.095 28.9606C268.43 29.6925 272.658 29.3113 272.658 30.7598V30.7547ZM268.872 20.5591C267.324 20.5591 266.745 19.1918 266.745 17.5095C266.745 15.8272 267.324 14.4599 268.872 14.4599C270.42 14.4599 270.998 15.8272 270.998 17.5095C270.998 19.1918 270.425 20.5591 268.872 20.5591Z" fill="#E6D7C5"/>
<path d="M293.544 26.5922C292.092 26.5922 290.915 27.7713 290.915 29.2249C290.915 30.6786 292.092 31.8577 293.544 31.8577C294.996 31.8577 296.173 30.6837 296.173 29.2249C296.173 27.7662 294.996 26.5922 293.544 26.5922ZM293.544 31.2986C292.402 31.2986 291.478 30.3685 291.478 29.2249C291.478 28.0814 292.402 27.1563 293.544 27.1563C294.686 27.1563 295.615 28.0814 295.615 29.2249C295.615 30.3685 294.686 31.2986 293.544 31.2986Z" fill="#E6D7C5"/>
<path d="M294.63 28.6201C294.63 28.1271 294.234 27.7256 293.737 27.7256H292.468V30.7345H293.036V29.5096H293.437L294.006 30.7345H294.63L294.036 29.4587C294.381 29.3368 294.63 29.0064 294.63 28.6201ZM293.732 28.9454H293.031V28.2898H293.732C293.914 28.2898 294.062 28.4371 294.062 28.6201C294.062 28.8031 293.914 28.9505 293.732 28.9505V28.9454Z" fill="#E6D7C5"/>
</svg>
