<svg width="250" height="40" viewBox="0 0 250 40" fill="none" xmlns="http://www.w3.org/2000/svg">
<g clip-path="url(#clip0_8_2087)">
<path d="M13.6 10.7C13.6 11 13.5 11.2 13.1 11.2H4.6V17.7H11.1C11.4 17.7 11.6 17.9 11.6 18.2V21.5C11.6 21.8 11.4 22 11.1 22H4.6V28.6H13.1C13.5 28.6 13.6 28.8 13.6 29.1V32.3C13.6 32.6 13.5 32.8 13.1 32.8H0.5C0.2 32.8 0 32.6 0 32.3V7.5C0 7.2 0.2 7 0.5 7H13C13.4 7 13.5 7.2 13.5 7.5V10.7H13.6Z" fill="white"/>
<path d="M17.6 7.5C17.6 7.2 17.8 7 18.1 7H26.3C29.4 7 31.2 8.7 31.2 11.7V28.4C31.2 31.4 29.5 33.1 26.3 33.1H18.1C17.7 33.1 17.6 32.9 17.6 32.6C17.6 32.5 17.6 7.5 17.6 7.5ZM25.4 28.7C26.2 28.7 26.8 28.3 26.8 27.4V12.6C26.8 11.8 26.3 11.2 25.4 11.2H22.3V28.7H25.4Z" fill="white"/>
<path d="M53.9 7C54.3 7 54.5 7.2 54.5 7.6V32.4C54.5 32.8 54.3 33 53.9 33H50.8C50.4 33 50.2 32.8 50.2 32.4V17.7H50L46.5 32.5C46.4 32.9 46.2 33.1 45.8 33.1H44.1C43.7 33.1 43.5 32.9 43.4 32.5L40 17.7H39.8V32.4C39.8 32.8 39.6 33 39.2 33H36.1C35.7 33 35.5 32.8 35.5 32.4V7.6C35.5 7.2 35.7 7 36.1 7H40.6C41 7 41.2 7.2 41.3 7.6L45 23.8L48.8 7.6C48.9 7.2 49.1 7 49.5 7H53.9Z" fill="white"/>
<path d="M58.7 11.7C58.7 8.7 60.4 7 63.6 7H67.4C70.5 7 72.3 8.7 72.3 11.7V28.4C72.3 31.4 70.6 33.1 67.4 33.1H63.5C60.4 33.1 58.6 31.4 58.6 28.4V11.7H58.7ZM66.5 28.9C67.3 28.9 67.9 28.5 67.9 27.6V12.5C67.9 11.7 67.4 11.2 66.5 11.2H64.5C63.7 11.2 63.1 11.6 63.1 12.5V27.6C63.1 28.4 63.6 28.9 64.5 28.9H66.5Z" fill="white"/>
<path d="M90.2 7C90.5 7 90.7 7.2 90.7 7.5V32.5C90.7 32.8 90.5 33 90.2 33H86.8C86.5 33 86.3 32.9 86.2 32.6L81 18.7H80.8V32.5C80.8 32.8 80.6 33 80.3 33H76.7C76.4 33 76.2 32.8 76.2 32.5V7.5C76.2 7.2 76.4 7 76.7 7H80.1C80.4 7 80.6 7.1 80.7 7.4L85.8 21.2H86V7.5C86 7.2 86.2 7 86.5 7H90.2Z" fill="white"/>
<path d="M107.5 7C107.9 7 108 7.2 108 7.5V10.7C108 11 107.8 11.2 107.5 11.2H103.5V32.5C103.5 32.8 103.3 33 103 33H99.4C99.1 33 98.9 32.8 98.9 32.5V11.2H94.9C94.6 11.2 94.4 11 94.4 10.7V7.5C94.4 7.2 94.6 7 94.9 7H107.5Z" fill="white"/>
<path d="M111.7 11.7C111.7 8.7 113.4 7 116.6 7H120.4C123.5 7 125.3 8.7 125.3 11.7V28.4C125.3 31.4 123.6 33.1 120.4 33.1H116.6C113.5 33.1 111.7 31.4 111.7 28.4V11.7ZM119.5 28.9C120.3 28.9 120.9 28.5 120.9 27.6V12.5C120.9 11.7 120.4 11.2 119.5 11.2H117.5C116.7 11.2 116.1 11.6 116.1 12.5V27.6C116.1 28.4 116.6 28.9 117.5 28.9H119.5Z" fill="white"/>
<path d="M143.3 7C143.6 7 143.8 7.2 143.8 7.5V32.5C143.8 32.8 143.6 33 143.3 33H139.9C139.6 33 139.4 32.9 139.3 32.6L134.1 18.7H133.9V32.5C133.9 32.8 133.7 33 133.4 33H129.8C129.5 33 129.3 32.8 129.3 32.5V7.5C129.3 7.2 129.5 7 129.8 7H133.2C133.5 7 133.7 7.1 133.8 7.4L138.9 21.2H139.1V7.5C139.1 7.2 139.3 7 139.6 7C139.7 7 143.3 7 143.3 7Z" fill="white"/>
<path d="M157.5 11.7C157.5 8.7 159.2 7 162.4 7H166.2C169.3 7 171.1 8.7 171.1 11.7V28.4C171.1 31.4 169.4 33.1 166.2 33.1H162.4C159.3 33.1 157.5 31.4 157.5 28.4V11.7ZM165.3 28.9C166.1 28.9 166.7 28.5 166.7 27.6V12.5C166.7 11.7 166.2 11.2 165.3 11.2H163.3C162.5 11.2 161.9 11.6 161.9 12.5V27.6C161.9 28.4 162.4 28.9 163.3 28.9H165.3Z" fill="white"/>
<path d="M179.2 7C179.5 7 179.7 7.2 179.7 7.5V32.5C179.7 32.8 179.5 33 179.2 33H175.6C175.2 33 175.1 32.8 175.1 32.5V7.5C175.1 7.2 175.3 7 175.6 7H179.2Z" fill="white"/>
<path d="M188.3 28.7H196.4C196.8 28.7 196.9 28.9 196.9 29.2V32.5C196.9 32.8 196.7 33 196.4 33H184.2C183.9 33 183.7 32.8 183.7 32.5V7.5C183.7 7.2 183.9 7 184.2 7H187.8C188.2 7 188.3 7.2 188.3 7.5V28.7Z" fill="white"/>
<path d="M214.6 10.7C214.6 11 214.5 11.2 214.1 11.2H205.6V17.7H212.1C212.4 17.7 212.6 17.9 212.6 18.2V21.5C212.6 21.8 212.4 22 212.1 22H205.6V28.6H214.1C214.5 28.6 214.6 28.8 214.6 29.1V32.3C214.6 32.6 214.5 32.8 214.1 32.8H201.6C201.3 32.8 201.1 32.6 201.1 32.3V7.5C201.1 7.2 201.3 7 201.6 7H214.1C214.5 7 214.6 7.2 214.6 7.5V10.7Z" fill="white"/>
<path d="M232.5 19.6C232.5 21.8 231.7 23.3 230 23.9L232.3 32.5C232.4 32.9 232.2 33.1 231.8 33.1H228.2C227.9 33.1 227.7 32.9 227.6 32.7L225.3 24.4H223V32.6C223 32.9 222.8 33.1 222.5 33.1H218.9C218.6 33.1 218.4 32.9 218.4 32.6V7.5C218.4 7.2 218.6 7 218.9 7H227.4C230.5 7 232.3 8.7 232.3 11.7V19.7H232.5V19.6ZM226.5 20C227.3 20 227.9 19.6 227.9 18.7V12.5C227.9 11.7 227.4 11.2 226.5 11.2H223.1V19.9H226.5V20Z" fill="white"/>
<path d="M245.2 7C248.3 7 250.1 8.7 250.1 11.7V15.2C250.1 15.5 249.9 15.7 249.6 15.7H246C245.7 15.7 245.5 15.5 245.5 15.2V12.7C245.5 11.9 245.1 11.4 244.1 11.4H242.4C241.6 11.4 241 11.8 241 12.7V17.2L249.1 19.7C249.7 19.9 249.9 20.3 249.9 21V28.5C249.9 31.5 248.2 33.2 245 33.2H241.2C238.1 33.2 236.3 31.5 236.3 28.5V25C236.3 24.7 236.5 24.5 236.8 24.5H240.4C240.8 24.5 240.9 24.7 240.9 25V27.5C240.9 28.3 241.4 28.8 242.3 28.8H244C244.8 28.8 245.4 28.4 245.4 27.5V23.2L237.3 20.7C236.7 20.5 236.4 20.1 236.4 19.4V11.8C236.4 8.8 238.2 7.1 241.3 7.1H245.2V7Z" fill="white"/>
</g>
<defs>
<clipPath id="clip0_8_2087">
<rect width="250" height="40" fill="white"/>
</clipPath>
</defs>
</svg>
