<?xml version="1.0" encoding="UTF-8"?>
<svg xmlns="http://www.w3.org/2000/svg" width="200" height="40" viewBox="0 0 200 40">
  <defs>
    <style>
      .cls-1 {
        fill: #fff;
      }
    </style>
  </defs>
  
  <g>
    <g id="Layer_1">
      <g id="Layer_1-2">
        <g>
          <g>
            <rect class="cls-1" x="54.3" y="10.6" width="3.8" height="18.8"/>
            <polygon class="cls-1" points="19.2 10.6 15.3 10.6 15.3 29.4 18.2 29.4 19.2 29.4 25.8 29.4 25.8 25.4 19.2 25.4 19.2 10.6"/>
            <polygon class="cls-1" points="2.8 13.5 2.8 13.5 2.8 17.9 2.8 21.8 2.8 29.4 6.7 29.4 6.7 21.8 12.2 21.8 12.2 17.9 6.7 17.9 6.7 14.6 13.8 14.6 13.8 10.6 2.8 10.6 2.8 13.5"/>
            <path class="cls-1" d="M83.4,10.6h-7.4l-2.2,3.1v15.6h3.8v-7.6h4v7.6h3.8v-15.6s-2.2-3.1-2.2-3.1ZM81.7,17.9h-4v-3.3h4v3.3Z"/>
            <path class="cls-1" d="M72,13.8l-2.2-3.1h-9.7v18.8h9.7l2.2-3.1v-.5h0v-11.4h0v-.6h0ZM68.2,25.4h-4.2v-10.9h4.2v10.9Z"/>
            <path class="cls-1" d="M39,13.8l-2.2-3.1h-7.6l-2.2,3.1v.4h0v11.7h0v.4l2.2,3.1h7.6l2.2-3.1v-.5h0v-11.4h0v-.6h0ZM35.1,25.4h-4.3v-10.9h4.3v10.9Z"/>
            <path class="cls-1" d="M52.4,18.7v-.8h0v-3.3h0v-.8l-2.2-3.1h-9.6v18.8h3.8v-7.6h1.6l2.9,7.6h4.1l-2.9-7.6,2.2-3.1h0ZM48.6,17.9h-4v-3.3h4v3.3Z"/>
          </g>
          <g>
            <polygon class="cls-1" points="154.1 17.9 150.1 17.9 150.1 10.6 146.2 10.6 146.2 29.4 150.1 29.4 150.1 21.8 154.1 21.8 154.1 29.4 158 29.4 158 10.6 154.1 10.6 154.1 17.9"/>
            <polygon class="cls-1" points="133.1 14.6 137 14.6 137 29.4 140.9 29.4 140.9 14.6 144.8 14.6 144.8 10.6 133.1 10.6 133.1 14.6"/>
            <polygon class="cls-1" points="159.6 29.4 170.6 29.4 170.6 25.4 163.5 25.4 163.5 21.8 169 21.8 169 17.9 163.5 17.9 163.5 14.6 170.6 14.6 170.6 10.6 159.6 10.6 159.6 29.4"/>
            <polygon class="cls-1" points="197.2 21.6 197.2 21 195 17.9 193.3 17.9 193.3 17.9 189.1 17.9 189.1 14.6 193.1 14.6 193.1 15.7 197 15.7 197 14.6 197 14.6 197 13.8 194.8 10.6 193.3 10.6 193.1 10.6 189.1 10.6 188.8 10.6 187.4 10.6 185.2 13.8 185.2 14.4 185.2 14.4 185.2 18 185.2 18 185.2 18.7 187.4 21.8 188.8 21.8 193.3 21.8 193.3 25.4 189.1 25.4 189.1 24.3 185.2 24.3 185.2 25.4 185.2 26.2 187.4 29.4 188.9 29.4 193.6 29.4 195 29.4 197.2 26.2 197.2 25.7 197.2 25.7 197.2 21.6 197.2 21.6"/>
            <path class="cls-1" d="M104.5,13.8l-2.2-3.1h-9.6v18.8h3.8v-7.6h5.7l2.2-3.1v-.8h0v-3.3h0v-.8h0ZM100.7,17.9h-4v-3.3h4v3.3Z"/>
            <path class="cls-1" d="M114.4,10.6h-6.2l-2.2,3.1v15.6h3.8v-7.6h4v7.6h3.8v-15.6l-2.2-3.1s-1.2,0-1.2,0ZM113.9,17.9h-4v-3.3h4v3.3Z"/>
            <path class="cls-1" d="M183.9,18.7v-.8h0v-3.3h0v-.8l-2.2-3.1h-9.6v18.8h3.9v-7.6h1.6l2.9,7.6h4.1l-2.9-7.6,2.2-3.1h0ZM180,17.9h-4v-3.3h4v3.3Z"/>
            <polygon class="cls-1" points="127.8 20.6 123.5 10.6 119.7 10.6 119.6 10.6 119.6 29.4 123.5 29.4 123.5 19.4 127.8 29.4 131.6 29.4 131.6 29.4 131.6 10.6 127.8 10.6 127.8 20.6"/>
          </g>
        </g>
      </g>
    </g>
  </g>
</svg>
