<?xml version="1.0"?>
<svg xmlns="http://www.w3.org/2000/svg" width="158" height="15" viewBox="0 0 158 15" fill="none">
<path d="M8.38885 14.5788H0V12.9499C0.285058 12.8685 0.495458 12.7768 0.6312 12.675C0.766942 12.5732 0.858568 12.4069 0.906077 12.1762C0.953587 11.9454 0.977341 11.6196 0.977341 11.1988V3.70587C0.977341 3.2715 0.953587 2.94232 0.906077 2.71835C0.858568 2.49437 0.766942 2.32809 0.6312 2.2195C0.495458 2.1109 0.285058 2.02267 0 1.9548V0.325897H5.57899V1.9548C5.06317 2.06339 4.71703 2.23307 4.54057 2.46383C4.3641 2.69459 4.27587 3.10861 4.27587 3.70587V12.5834C4.27587 12.7191 4.34374 12.787 4.47948 12.787H4.6831C5.33466 12.787 5.88102 12.5596 6.32218 12.1049C6.76334 11.6502 7.13324 10.9138 7.43187 9.8957H9.16258L8.95897 14.0901C8.94539 14.4159 8.75535 14.5788 8.38885 14.5788Z" fill="white"/>
<path d="M14.9655 14.9045C14.1103 14.9045 13.3943 14.7959 12.8174 14.5787C12.2404 14.3615 11.7552 14.0561 11.3615 13.6624C10.995 13.2823 10.6964 12.8446 10.4656 12.3491C10.2349 11.8537 10.0652 11.2259 9.95659 10.4657C9.848 9.70555 9.7937 8.75535 9.7937 7.61512V7.28934C9.7937 6.13553 9.848 5.18195 9.95659 4.42858C10.0652 3.67521 10.2349 3.04741 10.4656 2.54516C10.6964 2.04292 10.995 1.60854 11.3615 1.24204C11.7552 0.848387 12.2404 0.542969 12.8174 0.325782C13.3943 0.108595 14.1103 0 14.9655 0C15.8206 0 16.5367 0.108595 17.1136 0.325782C17.6905 0.542969 18.1758 0.848387 18.5694 1.24204C18.9495 1.60854 19.2515 2.04292 19.4755 2.54516C19.6995 3.04741 19.8658 3.67521 19.9743 4.42858C20.0829 5.18195 20.1372 6.13553 20.1372 7.28934V7.61512C20.1372 8.75535 20.0829 9.70555 19.9743 10.4657C19.8658 11.2259 19.6995 11.8537 19.4755 12.3491C19.2515 12.8446 18.9495 13.2823 18.5694 13.6624C18.1758 14.0561 17.6905 14.3615 17.1136 14.5787C16.5367 14.7959 15.8206 14.9045 14.9655 14.9045ZM14.9655 12.9091C15.3184 12.9091 15.6035 12.8005 15.8206 12.5833C15.9428 12.4611 16.048 12.3152 16.1362 12.1455C16.2245 11.9758 16.2957 11.7213 16.35 11.382C16.4043 11.0426 16.4451 10.5709 16.4722 9.96685C16.4994 9.3628 16.5129 8.56532 16.5129 7.5744V7.33006C16.5129 6.33915 16.4994 5.54166 16.4722 4.93761C16.4451 4.33356 16.4043 3.86186 16.35 3.5225C16.2957 3.18315 16.2245 2.92863 16.1362 2.75895C16.048 2.58928 15.9428 2.44335 15.8206 2.32119C15.6035 2.104 15.3184 1.99541 14.9655 1.99541C14.6125 1.99541 14.3275 2.104 14.1103 2.32119C13.9881 2.44335 13.8829 2.58928 13.7947 2.75895C13.7065 2.92863 13.6352 3.18315 13.5809 3.5225C13.5266 3.86186 13.4859 4.33356 13.4587 4.93761C13.4316 5.54166 13.418 6.33915 13.418 7.33006V7.5744C13.418 8.56532 13.4316 9.3628 13.4587 9.96685C13.4859 10.5709 13.5266 11.0426 13.5809 11.382C13.6352 11.7213 13.7065 11.9758 13.7947 12.1455C13.8829 12.3152 13.9881 12.4611 14.1103 12.5833C14.3275 12.8005 14.6125 12.9091 14.9655 12.9091Z" fill="white"/>
<path d="M21.6437 14.5176C21.4673 14.4769 21.3519 14.4226 21.2976 14.3547C21.2433 14.2868 21.2094 14.1511 21.1958 13.9475L20.9922 9.89559H22.7025C23.0147 11.0222 23.3745 11.8129 23.7817 12.2677C24.1889 12.7224 24.6708 12.9498 25.2273 12.9498C25.6481 12.9498 25.9875 12.8378 26.2454 12.6138C26.5033 12.3898 26.6323 12.0335 26.6323 11.5449C26.6323 11.0562 26.5203 10.6523 26.2963 10.2926C26.0723 9.93291 25.6753 9.56302 25.1052 9.18294L23.6799 8.22596C22.7161 7.5744 22.0408 6.91944 21.6539 6.2611C21.2671 5.60275 21.0736 4.81884 21.0736 3.90937C21.0736 2.74199 21.4571 1.79858 22.224 1.07915C22.991 0.359716 24.0939 0 25.5328 0C26.1164 0 26.656 0.0305421 27.1515 0.091626C27.6469 0.15271 28.1458 0.244336 28.648 0.366504C28.8245 0.407226 28.9433 0.461523 29.0044 0.529394C29.0654 0.597265 29.096 0.733007 29.096 0.93662L29.1978 4.45912H27.5078C27.2227 3.53608 26.9139 2.88112 26.5814 2.49426C26.2488 2.10739 25.845 1.91396 25.3699 1.91396C24.9355 1.91396 24.6063 2.02934 24.3823 2.2601C24.1584 2.49086 24.0464 2.80307 24.0464 3.19672C24.0464 3.56323 24.1414 3.90597 24.3314 4.22497C24.5215 4.54396 24.9151 4.90028 25.5124 5.29394L26.9377 6.25092C27.6707 6.73959 28.2476 7.21468 28.6684 7.67621C29.0892 8.13773 29.3878 8.61622 29.5643 9.11168C29.7408 9.60714 29.829 10.1671 29.829 10.7915C29.829 12.0675 29.4184 13.0719 28.5971 13.805C27.7759 14.538 26.5983 14.9045 25.0644 14.9045C24.4672 14.9045 23.8733 14.8705 23.2828 14.8027C22.6924 14.7348 22.146 14.6398 21.6437 14.5176Z" fill="white"/>
<path d="M37.0372 10.9545C36.9151 11.6196 36.9219 12.0845 37.0576 12.3492C37.1934 12.6139 37.5395 12.8142 38.096 12.9499V14.5788H33.4944V12.9499C33.7659 12.8549 33.9797 12.7531 34.1358 12.6445C34.2919 12.5359 34.4242 12.3662 34.5328 12.1354C34.6414 11.9047 34.7364 11.5721 34.8179 11.1377L36.2635 3.88912C36.3721 3.31901 36.3755 2.89821 36.2737 2.62672C36.1719 2.35524 35.9038 2.13126 35.4694 1.9548V0.325897H40.519C40.872 0.325897 41.1333 0.403948 41.3029 0.560052C41.4726 0.716155 41.5914 0.970671 41.6593 1.3236L43.6139 11.1377C43.709 11.5721 43.8074 11.9047 43.9092 12.1354C44.011 12.3662 44.1399 12.5359 44.296 12.6445C44.4521 12.7531 44.6592 12.8549 44.9171 12.9499V14.5788H39.0734V12.9499C39.6299 12.8142 39.9761 12.6139 40.1118 12.3492C40.2475 12.0845 40.2543 11.6196 40.1322 10.9545C40.1186 10.8459 40.0914 10.7814 40.0507 10.7611C40.01 10.7407 39.9489 10.7305 39.8675 10.7305H37.3019C37.2205 10.7305 37.1628 10.7407 37.1289 10.7611C37.0949 10.7814 37.0644 10.8459 37.0372 10.9545ZM39.7046 8.65366L38.6662 3.05431C38.6526 2.95929 38.6254 2.91178 38.5847 2.91178C38.544 2.91178 38.5168 2.95929 38.5033 3.05431L37.4648 8.65366C37.4377 8.78941 37.4852 8.85728 37.6074 8.85728H39.562C39.6842 8.85728 39.7317 8.78941 39.7046 8.65366Z" fill="white"/>
<path d="M45.3647 14.5788V12.9499C45.7448 12.8413 46.0027 12.675 46.1385 12.451C46.2742 12.2271 46.3421 11.7825 46.3421 11.1174V3.70587C46.3421 3.2715 46.3183 2.94232 46.2708 2.71835C46.2233 2.49437 46.1317 2.32809 45.9959 2.2195C45.8602 2.1109 45.6498 2.02267 45.3647 1.9548V0.325897H49.8035C50.1157 0.325897 50.3533 0.397161 50.5161 0.53969C50.679 0.682219 50.8148 0.95031 50.9234 1.34396L53.3871 9.77353C53.4278 9.90928 53.4618 9.97715 53.4889 9.97715C53.5296 9.97715 53.55 9.92285 53.55 9.81426V3.78732C53.55 3.20363 53.4516 2.78961 53.2547 2.54528C53.0579 2.30094 52.6744 2.10412 52.1043 1.9548V0.325897H56.6042V1.9548C56.2241 2.06339 55.9662 2.22968 55.8304 2.45365C55.6947 2.67763 55.6268 3.12218 55.6268 3.78732V14.5788H52.2672C51.9686 14.5788 51.7446 14.5109 51.5953 14.3752C51.446 14.2394 51.317 13.9883 51.2084 13.6218L48.5818 4.64249C48.5411 4.50675 48.5072 4.43888 48.48 4.43888C48.4393 4.43888 48.4189 4.49317 48.4189 4.60177V11.1174C48.4189 11.7011 48.5174 12.1151 48.7142 12.3594C48.911 12.6038 49.2945 12.8006 49.8646 12.9499V14.5788H45.3647Z" fill="white"/>
<path d="M62.5497 12.9091C62.8755 12.9091 63.1199 12.8887 63.2828 12.848C63.4185 12.8073 63.4864 12.719 63.4864 12.5833V10.5268C63.4864 9.92952 63.3981 9.51551 63.2217 9.28475C63.0452 9.05399 62.6991 8.88431 62.1832 8.77572V7.14681H67.3754V8.77572C67.0903 8.87074 66.9003 9.00308 66.8053 9.17276C66.7102 9.34244 66.6627 9.66483 66.6627 10.1399V13.9271C66.6627 14.1307 66.6322 14.2699 66.5711 14.3445C66.51 14.4192 66.3912 14.4769 66.2148 14.5176C65.7125 14.6398 65.1797 14.7348 64.6164 14.8027C64.0531 14.8705 63.4253 14.9045 62.733 14.9045C61.7149 14.9045 60.9005 14.7959 60.2896 14.5787C59.6788 14.3615 59.1766 14.0561 58.7829 13.6624C58.4164 13.2823 58.1178 12.8446 57.887 12.3491C57.6562 11.8537 57.4866 11.2259 57.378 10.4657C57.2694 9.70555 57.2151 8.75535 57.2151 7.61512V7.28934C57.2151 6.13553 57.2694 5.18534 57.378 4.43876C57.4866 3.69218 57.6596 3.07116 57.8972 2.5757C58.1347 2.08025 58.4436 1.64248 58.8236 1.2624C59.2173 0.868749 59.7263 0.559936 60.3507 0.335962C60.9751 0.111988 61.7828 0 62.7737 0C63.4389 0 64.0191 0.0339352 64.5146 0.101806C65.0101 0.169677 65.4886 0.25791 65.9501 0.366504C66.1265 0.407226 66.2419 0.461523 66.2962 0.529394C66.3505 0.597265 66.3845 0.739793 66.398 0.95698L66.5202 5.0496H64.8098C64.5519 4.19443 64.294 3.54965 64.0361 3.11528C63.7782 2.6809 63.5135 2.38566 63.242 2.22956C62.9705 2.07346 62.6855 1.99541 62.3869 1.99541C62.0339 1.99541 61.7489 2.104 61.5317 2.32119C61.4095 2.44335 61.3043 2.58928 61.2161 2.75895C61.1278 2.92863 61.0566 3.18315 61.0023 3.5225C60.948 3.86186 60.9073 4.33356 60.8801 4.93761C60.853 5.54166 60.8394 6.33915 60.8394 7.33006V7.5744C60.8394 8.56532 60.853 9.3628 60.8801 9.96685C60.9073 10.5709 60.948 11.0426 61.0023 11.382C61.0566 11.7213 61.1278 11.9758 61.2161 12.1455C61.3043 12.3152 61.4095 12.4611 61.5317 12.5833C61.7489 12.8005 62.0882 12.9091 62.5497 12.9091Z" fill="white"/>
<path d="M67.8232 14.5788V12.9499C68.1083 12.8685 68.3187 12.7768 68.4544 12.675C68.5902 12.5732 68.6818 12.4069 68.7293 12.1762C68.7768 11.9454 68.8006 11.6196 68.8006 11.1988V3.70587C68.8006 3.2715 68.7768 2.94232 68.7293 2.71835C68.6818 2.49437 68.5902 2.32809 68.4544 2.2195C68.3187 2.1109 68.1083 2.02267 67.8232 1.9548V0.325897H76.3953C76.7619 0.325897 76.9519 0.488787 76.9655 0.814568L77.0876 4.19454H75.3976C75.1805 3.59728 74.9836 3.15272 74.8072 2.86088C74.6307 2.56903 74.4169 2.37221 74.1658 2.2704C73.9147 2.16859 73.5787 2.11769 73.1579 2.11769H72.3027C72.167 2.11769 72.0991 2.18556 72.0991 2.3213V6.23067C72.0991 6.36641 72.167 6.43428 72.3027 6.43428H72.3231C72.7167 6.43428 73.0222 6.40035 73.2393 6.33248C73.4565 6.26461 73.6262 6.12887 73.7484 5.92525C73.8705 5.72164 73.9724 5.42301 74.0538 5.02935H75.5605V9.71245H74.0538C73.9181 9.11519 73.745 8.71814 73.5346 8.52132C73.3242 8.32449 72.9204 8.22608 72.3231 8.22608H72.3027C72.167 8.22608 72.0991 8.29395 72.0991 8.42969V12.5834C72.0991 12.7191 72.167 12.787 72.3027 12.787H72.9136C73.4022 12.787 73.8061 12.7293 74.1251 12.6139C74.4441 12.4986 74.7121 12.2814 74.9293 11.9624C75.1465 11.6434 75.3501 11.192 75.5402 10.6083H77.2709L77.0062 14.0901C76.979 14.4159 76.789 14.5788 76.4361 14.5788H67.8232Z" fill="white"/>
<path d="M86.1486 14.5788H77.7598V12.9499C78.0448 12.8685 78.2552 12.7768 78.391 12.675C78.5267 12.5732 78.6183 12.4069 78.6658 12.1762C78.7134 11.9454 78.7371 11.6196 78.7371 11.1988V3.70587C78.7371 3.2715 78.7134 2.94232 78.6658 2.71835C78.6183 2.49437 78.5267 2.32809 78.391 2.2195C78.2552 2.1109 78.0448 2.02267 77.7598 1.9548V0.325897H83.3388V1.9548C82.8229 2.06339 82.4768 2.23307 82.3003 2.46383C82.1239 2.69459 82.0356 3.10861 82.0356 3.70587V12.5834C82.0356 12.7191 82.1035 12.787 82.2393 12.787H82.4429C83.0944 12.787 83.6408 12.5596 84.0819 12.1049C84.5231 11.6502 84.893 10.9138 85.1916 9.8957H86.9223L86.7187 14.0901C86.7052 14.4159 86.5151 14.5788 86.1486 14.5788Z" fill="white"/>
<path d="M87.3293 14.5788V12.9499C87.6144 12.8685 87.8248 12.7768 87.9605 12.675C88.0963 12.5732 88.1879 12.4069 88.2354 12.1762C88.2829 11.9454 88.3067 11.6196 88.3067 11.1988V3.70587C88.3067 3.2715 88.2829 2.94232 88.2354 2.71835C88.1879 2.49437 88.0963 2.32809 87.9605 2.2195C87.8248 2.1109 87.6144 2.02267 87.3293 1.9548V0.325897H95.9014C96.2679 0.325897 96.458 0.488787 96.4716 0.814568L96.5937 4.19454H94.9037C94.6866 3.59728 94.4897 3.15272 94.3133 2.86088C94.1368 2.56903 93.923 2.37221 93.6719 2.2704C93.4208 2.16859 93.0848 2.11769 92.664 2.11769H91.8088C91.6731 2.11769 91.6052 2.18556 91.6052 2.3213V6.23067C91.6052 6.36641 91.6731 6.43428 91.8088 6.43428H91.8292C92.2228 6.43428 92.5283 6.40035 92.7454 6.33248C92.9626 6.26461 93.1323 6.12887 93.2545 5.92525C93.3766 5.72164 93.4784 5.42301 93.5599 5.02935H95.0666V9.71245H93.5599C93.4242 9.11519 93.2511 8.71814 93.0407 8.52132C92.8303 8.32449 92.4264 8.22608 91.8292 8.22608H91.8088C91.6731 8.22608 91.6052 8.29395 91.6052 8.42969V12.5834C91.6052 12.7191 91.6731 12.787 91.8088 12.787H92.4197C92.9083 12.787 93.3122 12.7293 93.6312 12.6139C93.9502 12.4986 94.2182 12.2814 94.4354 11.9624C94.6526 11.6434 94.8562 11.192 95.0463 10.6083H96.777L96.5123 14.0901C96.4851 14.4159 96.2951 14.5788 95.9422 14.5788H87.3293Z" fill="white"/>
<path d="M98.0598 14.5176C97.8833 14.4769 97.7679 14.4226 97.7136 14.3547C97.6593 14.2868 97.6254 14.1511 97.6118 13.9475L97.4082 9.89559H99.1186C99.4308 11.0222 99.7905 11.8129 100.198 12.2677C100.605 12.7224 101.087 12.9498 101.643 12.9498C102.064 12.9498 102.404 12.8378 102.661 12.6138C102.919 12.3898 103.048 12.0335 103.048 11.5449C103.048 11.0562 102.936 10.6523 102.712 10.2926C102.488 9.93291 102.091 9.56302 101.521 9.18294L100.096 8.22596C99.1321 7.5744 98.4568 6.91944 98.0699 6.2611C97.6831 5.60275 97.4897 4.81884 97.4897 3.90937C97.4897 2.74199 97.8731 1.79858 98.6401 1.07915C99.407 0.359716 100.51 0 101.949 0C102.532 0 103.072 0.0305421 103.568 0.091626C104.063 0.15271 104.562 0.244336 105.064 0.366504C105.241 0.407226 105.359 0.461523 105.42 0.529394C105.481 0.597265 105.512 0.733007 105.512 0.93662L105.614 4.45912H103.924C103.639 3.53608 103.33 2.88112 102.997 2.49426C102.665 2.10739 102.261 1.91396 101.786 1.91396C101.352 1.91396 101.022 2.02934 100.798 2.2601C100.574 2.49086 100.462 2.80307 100.462 3.19672C100.462 3.56323 100.557 3.90597 100.747 4.22497C100.938 4.54396 101.331 4.90028 101.928 5.29394L103.354 6.25092C104.087 6.73959 104.664 7.21468 105.084 7.67621C105.505 8.13773 105.804 8.61622 105.98 9.11168C106.157 9.60714 106.245 10.1671 106.245 10.7915C106.245 12.0675 105.834 13.0719 105.013 13.805C104.192 14.538 103.014 14.9045 101.48 14.9045C100.883 14.9045 100.289 14.8705 99.6988 14.8027C99.1084 14.7348 98.562 14.6398 98.0598 14.5176Z" fill="white"/>
<path d="M117.607 5.00899C117.512 5.14474 117.491 5.30084 117.545 5.4773L119.337 11.6061C119.473 12.054 119.626 12.3662 119.795 12.5427C119.965 12.7191 120.158 12.8549 120.376 12.9499V14.5788C120.009 14.6059 119.653 14.6263 119.307 14.6399C118.961 14.6535 118.536 14.6602 118.034 14.6602C117.41 14.6602 116.975 14.5618 116.731 14.365C116.487 14.1682 116.29 13.7576 116.141 13.1331L115.021 8.61294C114.993 8.51792 114.953 8.51113 114.898 8.59258L114.288 9.44775C114.233 9.51562 114.196 9.5835 114.176 9.65137C114.155 9.71924 114.145 9.82104 114.145 9.95679V11.1988C114.145 11.8368 114.216 12.261 114.359 12.4714C114.501 12.6818 114.783 12.8413 115.204 12.9499V14.5788H109.951V12.9499C110.236 12.8685 110.446 12.7768 110.582 12.675C110.718 12.5732 110.809 12.4069 110.857 12.1762C110.904 11.9454 110.928 11.6196 110.928 11.1988V3.70587C110.928 3.2715 110.904 2.94232 110.857 2.71835C110.809 2.49437 110.718 2.32809 110.582 2.2195C110.446 2.1109 110.236 2.02267 109.951 1.9548V0.325897H115.204V1.9548C114.783 2.06339 114.501 2.22289 114.359 2.43329C114.216 2.64369 114.145 3.06788 114.145 3.70587V6.3732C114.145 6.4275 114.159 6.45804 114.186 6.46482C114.213 6.47161 114.24 6.45464 114.267 6.41392L116.202 3.68551C116.473 3.30543 116.609 2.94911 116.609 2.61654C116.609 2.28397 116.398 2.06339 115.978 1.9548V0.325897H120.111V1.9548C119.975 2.0091 119.86 2.07018 119.765 2.13805C119.67 2.20592 119.565 2.31112 119.449 2.45365C119.334 2.59618 119.174 2.80997 118.971 3.09503L117.607 5.00899Z" fill="white"/>
<path d="M120.824 14.5788V12.9499C121.109 12.8685 121.319 12.7768 121.455 12.675C121.591 12.5732 121.682 12.4069 121.73 12.1762C121.777 11.9454 121.801 11.6196 121.801 11.1988V3.70587C121.801 3.2715 121.777 2.94232 121.73 2.71835C121.682 2.49437 121.591 2.32809 121.455 2.2195C121.319 2.1109 121.109 2.02267 120.824 1.9548V0.325897H126.077V1.9548C125.792 2.02267 125.581 2.1109 125.446 2.2195C125.31 2.32809 125.218 2.49437 125.171 2.71835C125.123 2.94232 125.1 3.2715 125.1 3.70587V11.1988C125.1 11.6196 125.123 11.9454 125.171 12.1762C125.218 12.4069 125.31 12.5732 125.446 12.675C125.581 12.7768 125.792 12.8685 126.077 12.9499V14.5788H120.824Z" fill="white"/>
<path d="M126.566 14.5788V12.9499C126.946 12.8413 127.204 12.675 127.339 12.451C127.475 12.2271 127.543 11.7825 127.543 11.1174V3.70587C127.543 3.2715 127.519 2.94232 127.472 2.71835C127.424 2.49437 127.333 2.32809 127.197 2.2195C127.061 2.1109 126.851 2.02267 126.566 1.9548V0.325897H131.004C131.317 0.325897 131.554 0.397161 131.717 0.53969C131.88 0.682219 132.016 0.95031 132.124 1.34396L134.588 9.77353C134.629 9.90928 134.663 9.97715 134.69 9.97715C134.731 9.97715 134.751 9.92285 134.751 9.81426V3.78732C134.751 3.20363 134.652 2.78961 134.456 2.54528C134.259 2.30094 133.875 2.10412 133.305 1.9548V0.325897H137.805V1.9548C137.425 2.06339 137.167 2.22968 137.031 2.45365C136.896 2.67763 136.828 3.12218 136.828 3.78732V14.5788H133.468C133.17 14.5788 132.946 14.5109 132.796 14.3752C132.647 14.2394 132.518 13.9883 132.409 13.6218L129.783 4.64249C129.742 4.50675 129.708 4.43888 129.681 4.43888C129.64 4.43888 129.62 4.49317 129.62 4.60177V11.1174C129.62 11.7011 129.718 12.1151 129.915 12.3594C130.112 12.6038 130.495 12.8006 131.066 12.9499V14.5788H126.566Z" fill="white"/>
<path d="M143.751 12.9091C144.076 12.9091 144.321 12.8887 144.484 12.848C144.619 12.8073 144.687 12.719 144.687 12.5833V10.5268C144.687 9.92952 144.599 9.51551 144.423 9.28475C144.246 9.05399 143.9 8.88431 143.384 8.77572V7.14681H148.576V8.77572C148.291 8.87074 148.101 9.00308 148.006 9.17276C147.911 9.34244 147.864 9.66483 147.864 10.1399V13.9271C147.864 14.1307 147.833 14.2699 147.772 14.3445C147.711 14.4192 147.592 14.4769 147.416 14.5176C146.913 14.6398 146.381 14.7348 145.817 14.8027C145.254 14.8705 144.626 14.9045 143.934 14.9045C142.916 14.9045 142.101 14.7959 141.491 14.5787C140.88 14.3615 140.377 14.0561 139.984 13.6624C139.617 13.2823 139.319 12.8446 139.088 12.3491C138.857 11.8537 138.687 11.2259 138.579 10.4657C138.47 9.70555 138.416 8.75535 138.416 7.61512V7.28934C138.416 6.13553 138.47 5.18534 138.579 4.43876C138.687 3.69218 138.861 3.07116 139.098 2.5757C139.336 2.08025 139.644 1.64248 140.025 1.2624C140.418 0.868749 140.927 0.559936 141.552 0.335962C142.176 0.111988 142.984 0 143.975 0C144.64 0 145.22 0.0339352 145.716 0.101806C146.211 0.169677 146.689 0.25791 147.151 0.366504C147.327 0.407226 147.443 0.461523 147.497 0.529394C147.551 0.597265 147.585 0.739793 147.599 0.95698L147.721 5.0496H146.011C145.753 4.19443 145.495 3.54965 145.237 3.11528C144.979 2.6809 144.714 2.38566 144.443 2.22956C144.171 2.07346 143.886 1.99541 143.588 1.99541C143.235 1.99541 142.95 2.104 142.733 2.32119C142.61 2.44335 142.505 2.58928 142.417 2.75895C142.329 2.92863 142.258 3.18315 142.203 3.5225C142.149 3.86186 142.108 4.33356 142.081 4.93761C142.054 5.54166 142.04 6.33915 142.04 7.33006V7.5744C142.04 8.56532 142.054 9.3628 142.081 9.96685C142.108 10.5709 142.149 11.0426 142.203 11.382C142.258 11.7213 142.329 11.9758 142.417 12.1455C142.505 12.3152 142.61 12.4611 142.733 12.5833C142.95 12.8005 143.289 12.9091 143.751 12.9091Z" fill="white"/>
<path d="M149.815 14.5176C149.638 14.4769 149.523 14.4226 149.469 14.3547C149.414 14.2868 149.38 14.1511 149.367 13.9475L149.163 9.89559H150.873C151.186 11.0222 151.545 11.8129 151.953 12.2677C152.36 12.7224 152.842 12.9498 153.398 12.9498C153.819 12.9498 154.158 12.8378 154.416 12.6138C154.674 12.3898 154.803 12.0335 154.803 11.5449C154.803 11.0562 154.691 10.6523 154.467 10.2926C154.243 9.93291 153.846 9.56302 153.276 9.18294L151.851 8.22596C150.887 7.5744 150.212 6.91944 149.825 6.2611C149.438 5.60275 149.245 4.81884 149.245 3.90937C149.245 2.74199 149.628 1.79858 150.395 1.07915C151.162 0.359716 152.265 0 153.704 0C154.287 0 154.827 0.0305421 155.322 0.091626C155.818 0.15271 156.317 0.244336 156.819 0.366504C156.995 0.407226 157.114 0.461523 157.175 0.529394C157.236 0.597265 157.267 0.733007 157.267 0.93662L157.369 4.45912H155.679C155.394 3.53608 155.085 2.88112 154.752 2.49426C154.42 2.10739 154.016 1.91396 153.541 1.91396C153.106 1.91396 152.777 2.02934 152.553 2.2601C152.329 2.49086 152.217 2.80307 152.217 3.19672C152.217 3.56323 152.312 3.90597 152.502 4.22497C152.692 4.54396 153.086 4.90028 153.683 5.29394L155.109 6.25092C155.842 6.73959 156.418 7.21468 156.839 7.67621C157.26 8.13773 157.559 8.61622 157.735 9.11168C157.912 9.60714 158 10.1671 158 10.7915C158 12.0675 157.589 13.0719 156.768 13.805C155.947 14.538 154.769 14.9045 153.235 14.9045C152.638 14.9045 152.044 14.8705 151.454 14.8027C150.863 14.7348 150.317 14.6398 149.815 14.5176Z" fill="white"/>
</svg>
