<?xml version="1.0"?>
<svg xmlns="http://www.w3.org/2000/svg" width="300" height="40" viewBox="0 0 300 40" fill="none">
<g clip-path="url(#clip0_101_392)">
<path d="M8.08486 37.3498C5.24843 35.621 3.11593 33.0848 1.70807 29.7618C1.13871 28.4057 0.703932 26.9254 0.424429 25.3415C0.134575 23.7577 0 21.9772 0 20.0103C0 18.0434 0.144927 16.2525 0.424429 14.648C0.714284 13.0434 1.13871 11.5528 1.70807 10.1966C3.11593 6.94614 5.23808 4.44097 8.06416 2.6915C10.8902 0.942018 14.2753 0.0621033 18.2401 0.0621033C20.6935 0.0621033 22.9606 0.445125 25.0413 1.21117C27.1221 1.97721 28.9233 3.07452 30.4347 4.51344C31.915 5.98341 33.0537 7.68113 33.8612 9.60659C34.6686 11.532 35.0827 13.6231 35.1241 15.8799H23.6335C23.6024 14.9482 23.4368 14.1097 23.1573 13.3643C22.8674 12.6087 22.4637 12.0082 21.9254 11.5424C21.4182 11.0455 20.8488 10.6728 20.207 10.4451C19.5652 10.2174 18.7784 10.0931 17.8364 10.0931C15.1863 10.0931 13.3643 11.2422 12.3913 13.53C12.0911 14.2753 11.8737 15.1345 11.7391 16.1076C11.6045 17.0703 11.5424 18.3643 11.5424 19.9689C11.5424 21.5734 11.6045 22.9502 11.7184 23.9647C11.8323 24.9792 12.0497 25.8488 12.3499 26.5631C12.8571 27.7432 13.5714 28.6024 14.5134 29.1407C15.4554 29.679 16.5838 29.9481 17.8881 29.9481C19.6687 29.9481 21.0972 29.4513 22.1738 28.4471C22.6086 27.9813 22.9813 27.4326 23.2815 26.7805C23.5817 26.1386 23.7473 25.4347 23.7887 24.6894H35.2794C35.2483 26.8012 34.8343 28.768 34.0475 30.59C33.2608 32.4119 32.1738 33.9854 30.797 35.3104C29.2546 36.8115 27.4016 37.9605 25.2484 38.768C23.0952 39.5754 20.7763 39.9688 18.2919 39.9688C14.3271 39.9688 10.9213 39.0889 8.08486 37.3498Z" fill="white"/>
<path d="M60.4243 32.7121H47.5257L45.8073 38.9336H34.6169L45.9108 1.0766H61.9874L73.2814 38.9336H62.1427L60.4243 32.7121ZM58.1054 24.296L54.0268 9.44096H53.9232L49.8446 24.296H58.1054Z" fill="white"/>
<path d="M75.6002 1.0766H86.2834L98.6332 21.7701V1.0766H109.12V38.9336H98.333L86.0349 18.2919V38.9336H75.6002V1.0766Z" fill="white"/>
<path d="M136.832 32.7121H123.933L122.215 38.9336H111.025L122.318 1.0766H138.395L149.689 38.9336H138.55L136.832 32.7121ZM134.513 24.296L130.434 9.44096H130.331L126.252 24.296H134.513Z" fill="white"/>
<path d="M152.008 1.0766H167.981C171.946 1.0766 175.279 1.90475 177.991 3.54036C180.693 5.18632 182.691 7.52586 183.964 10.5693C184.503 11.8944 184.906 13.3126 185.175 14.8343C185.445 16.3561 185.579 18.0745 185.579 20.0103C185.579 21.9461 185.445 23.6749 185.175 25.207C184.906 26.7494 184.503 28.178 183.964 29.4927C182.691 32.5361 180.693 34.8653 177.991 36.4906C175.289 38.1158 171.946 38.9336 167.981 38.9336H152.008V1.0766ZM166.221 29.2339C168.064 29.2339 169.565 28.8923 170.703 28.2194C171.842 27.5362 172.701 26.5527 173.271 25.2691C173.571 24.6273 173.788 23.8819 173.902 23.0434C174.016 22.2049 174.078 21.1904 174.078 20.0103C174.078 18.8302 174.016 17.8778 173.881 17.0289C173.747 16.1904 173.54 15.4347 173.271 14.7515C172.701 13.4265 171.852 12.443 170.724 11.7805C169.596 11.118 168.095 10.7867 166.211 10.7867H162.784V29.2339H166.221Z" fill="white"/>
<path d="M188.954 1.0766H199.741V38.9336H188.954V1.0766Z" fill="white"/>
<path d="M204.275 1.0766H228.664V10.3002H215.061V15.3933H228.519V24.1304H215.061V29.7101H228.664V38.9336H204.275V1.0766Z" fill="white"/>
<path d="M232.401 1.0766H243.084L255.434 21.7701V1.0766H265.921V38.9336H255.134L242.836 18.2919V38.9336H232.401V1.0766Z" fill="white"/>
<path d="M274.813 38.002C272.37 36.6562 270.651 34.8446 269.647 32.5568C269.109 31.1593 268.809 29.5134 268.736 27.619H280.631C280.662 28.0123 280.703 28.385 280.755 28.7473C280.807 29.1096 280.879 29.4099 280.983 29.6583C281.283 30.3415 281.707 30.8384 282.246 31.1593C282.784 31.4802 283.508 31.6459 284.409 31.6459C285.185 31.6459 285.838 31.5009 286.376 31.2111C286.914 30.9212 287.297 30.5279 287.535 30.031C287.701 29.6376 287.784 29.1925 287.784 28.6852C287.784 28.178 287.701 27.7225 287.535 27.2877C287.266 26.6769 286.821 26.1593 286.2 25.7349C285.579 25.3001 284.865 24.9482 284.057 24.6583C283.25 24.3685 282.194 24.0475 280.879 23.6956C279.44 23.2297 278.54 22.9399 278.208 22.8364C276.397 22.1946 274.803 21.356 273.426 20.3416C272.049 19.3271 271.024 18.0434 270.351 16.5113C269.813 15.0414 269.544 13.5403 269.544 12.0082C269.544 10.3312 269.865 8.71633 270.506 7.18424C271.417 4.96893 273.053 3.21945 275.424 1.92546C277.794 0.64182 280.672 0 284.067 0C287.463 0 290.051 0.59006 292.328 1.77018C294.606 2.9503 296.241 4.67908 297.214 6.96685C297.556 7.71219 297.784 8.46788 297.918 9.22358C298.053 9.96892 298.115 10.8488 298.115 11.853H286.976C286.945 10.9627 286.811 10.207 286.573 9.59625C286.335 9.05795 285.983 8.66457 285.517 8.41612C285.051 8.16768 284.409 8.04345 283.602 8.04345C282.898 8.04345 282.297 8.16768 281.811 8.41612C281.324 8.66457 280.972 9.02689 280.776 9.49273C280.641 9.81364 280.569 10.1863 280.569 10.6211C280.569 11.0559 280.631 11.4285 280.776 11.7494C280.972 12.2153 281.335 12.619 281.863 12.9606C282.38 13.3022 283.063 13.6231 283.902 13.9234C284.74 14.2236 285.631 14.5031 286.573 14.7515C286.904 14.824 287.784 15.0724 289.192 15.5072C291.676 16.2939 293.715 17.1946 295.32 18.2194C296.914 19.2339 298.063 20.6107 298.767 22.3188C299.337 23.7163 299.626 25.3415 299.626 27.1945C299.626 29.0475 299.285 30.9109 298.612 32.5568C297.566 34.9481 295.776 36.7908 293.219 38.0744C290.662 39.3581 287.587 39.9999 283.995 39.9999C280.32 40.0102 277.246 39.3374 274.813 38.002Z" fill="white"/>
</g>
<defs>
<clipPath id="clip0_101_392">
<rect width="300" height="40" fill="white"/>
</clipPath>
</defs>
</svg>
