<svg width="241" height="40" viewBox="0 0 241 40" fill="none" xmlns="http://www.w3.org/2000/svg">
<path d="M33.4737 21.2074C33.8266 20.5201 33.8823 19.9814 33.4551 19.647L34.774 19.2198C34.2353 18.3653 32.935 17.9752 31.486 17.9752H13.6532C13.6532 17.9752 14.7492 18.9969 13.839 20.743L7.22598 33.5604L9.2879 32.2972H14.2105C15.4551 29.9009 19.5789 21.9133 19.5789 21.9133C20.1176 20.8545 21.3251 20.0743 22.4396 20.0743H26.2848C27.2136 20.0743 27.8823 20.5944 28.1424 21.3374L26.9535 21.709C27.0278 21.9133 27.0093 22.1919 26.8607 22.4892C25.3003 25.517 18.3901 28.5263 18.3901 28.5263L24.1672 26.8173C29.4799 25.6656 32.7121 22.7678 33.5108 21.2074" fill="white"/>
<path d="M60.743 19.2384C60.2043 18.3839 58.904 17.9938 57.4551 17.9938H39.6223C39.6223 17.9938 40.7183 19.0154 39.808 20.7616L34.6254 30.8111C33.7337 32.5572 31.5789 33.5789 31.5789 33.5789L35.1455 32.3158H40.1796L45.548 21.9319C46.1053 20.873 47.2941 20.0928 48.4087 20.0928H52.2539C53.2198 20.0928 53.8885 20.613 54.1114 21.3374L52.904 21.7275C52.9783 21.9319 52.9597 22.2105 52.8111 22.5077C51.2508 25.5356 44.3405 28.5449 44.3405 28.5449L46.7368 28.8049C47.4427 29.5665 48.1486 30.6997 48.5944 32.3343H53.517L55.226 33.5975C55.226 33.5975 54.3158 29.5851 51.9566 27.6718C51.0279 27.0216 49.9505 26.9473 49.9505 26.9473C49.9505 26.9473 57.3808 25.2569 59.4613 21.226C59.87 20.4458 59.7585 19.9628 59.4056 19.6842L60.7616 19.2569L60.743 19.2384Z" fill="white"/>
<path d="M78.9473 32.3344C79.0959 32.0557 79.1702 31.9071 79.3932 31.4799L81.4551 30.2167H69.3808L67.3188 31.4799L70.0309 26.2229H81.3622C81.5108 25.9443 81.5851 25.7957 81.808 25.3684L83.8699 24.1053H72.5201L70.4582 25.3684L72.2229 21.9319C72.7801 20.8731 73.969 20.0929 75.0835 20.0929H85.2445C85.3931 19.8142 85.4675 19.6656 85.6904 19.2384L87.7523 17.9752H66.3157C66.3157 17.9752 67.4117 18.9969 66.5015 20.743L59.8885 33.5604L61.9504 32.2972H78.9473V32.3344Z" fill="white"/>
<path d="M84.3901 33.5789L86.452 32.3158H95.7585C100.718 32.3158 106.18 29.8266 107.703 26.8916L110.638 21.2074C110.972 20.5572 111.065 20 110.601 19.6656L111.92 19.2384C111.381 18.3839 110.081 17.9938 108.632 17.9938H90.7988C90.7988 17.9938 91.8948 19.0154 90.9845 20.7616L84.3715 33.5789H84.3901ZM96.7431 21.9319C97.3003 20.873 98.4892 20.0928 99.6037 20.0928H103.449C104.433 20.0928 105.065 20.6315 105.307 21.356L104.118 21.7275C104.192 21.9319 104.173 22.2105 104.025 22.5077L101.461 27.4675C100.681 28.9907 98.9164 30.2167 97.5418 30.2167H93.9195L91.8576 31.4798L96.7802 21.9319H96.7431Z" fill="white"/>
<path d="M134.638 17.9938H123.474C121.022 17.9938 117.827 19.1083 116.452 21.7832L111.789 30.8111C110.879 32.5572 108.724 33.5789 108.724 33.5789L112.291 32.3158H117.325C117.882 31.2384 120.483 26.2043 120.483 26.2043H129.455L127.393 27.4675L124.235 33.5789L126.297 32.3158H130.848C132.149 29.808 136.588 21.2074 136.588 21.2074C136.904 20.5944 137.034 20.0185 136.551 19.6656L137.87 19.2384C137.331 18.3839 136.031 17.9938 134.601 17.9938M130.031 21.7461C130.105 21.9504 130.087 22.2291 129.938 22.5263L129.121 24.1238H122.991L120.929 25.387L122.693 21.9504C123.232 20.8916 124.44 20.1114 125.554 20.1114H129.399C130.347 20.1114 131.015 20.6315 131.257 21.356L130.05 21.7461H130.031Z" fill="white"/>
<path d="M140.749 33.5789L142.811 32.3158H147.734C148.978 29.9195 153.102 21.9319 153.102 21.9319C153.641 20.8731 154.848 20.0929 155.963 20.0929H160.087C160.235 19.8142 160.31 19.6656 160.532 19.2384L162.594 17.9752H142.774L141.028 21.3374L143.09 20.0743H149.127L147.065 21.3374L140.749 33.5604V33.5789Z" fill="white"/>
<path d="M211.096 19.2384C210.557 18.3839 209.257 17.9938 207.808 17.9938H189.975C189.975 17.9938 191.071 19.0154 190.161 20.7616L184.978 30.8111C184.068 32.5572 181.932 33.5789 181.932 33.5789L185.498 32.3158H190.532L195.901 21.9319C196.44 20.873 197.647 20.0928 198.762 20.0928H202.607C203.573 20.0928 204.241 20.613 204.464 21.3374L203.257 21.7275C203.331 21.9319 203.313 22.2105 203.164 22.5077C201.604 25.5356 194.693 28.5449 194.693 28.5449L197.09 28.8049C197.796 29.5665 198.502 30.6997 198.947 32.3343H203.87L205.579 33.5975C205.579 33.5975 204.669 29.5851 202.31 27.6718C201.381 27.0216 200.303 26.9473 200.303 26.9473C200.303 26.9473 207.734 25.2569 209.814 21.226C210.223 20.4458 210.111 19.9628 209.759 19.6842L211.115 19.2569L211.096 19.2384Z" fill="white"/>
<path d="M183.827 19.647L185.146 19.2198C184.607 18.3653 183.307 17.9752 181.858 17.9752H175.56C170.081 17.9752 164.229 20.7059 162.502 24.0867L159.567 29.7709C158.991 30.8854 159.009 31.7213 159.399 32.3158L160.718 31.8885C161.09 32.1672 161.759 32.2972 162.687 32.2972H169.003C173.963 32.2972 179.424 29.808 180.947 26.8731L183.882 21.1888C184.272 20.4272 184.235 19.9443 183.864 19.6285M177.232 22.4892L174.669 27.4489C173.889 28.9721 172.124 30.1981 170.749 30.1981H168.279C167.889 30.1981 167.647 30.0124 167.591 29.7152L166.384 30.1053C166.254 29.6037 166.31 29.0279 166.588 28.4706L169.152 23.5108C170.155 21.5604 172.328 20.0929 174.204 20.0929H176.675C177.622 20.0929 178.291 20.6316 178.533 21.3374L177.344 21.7275C177.418 21.9319 177.399 22.2105 177.251 22.5077" fill="white"/>
<path d="M232.886 17.9938H221.721C219.269 17.9938 216.074 19.1083 214.7 21.7833C214.533 22.1176 214.533 22.452 214.663 22.7678L215.833 22.3034C217.728 24.5696 224.564 26.0557 225.622 28.7306L224.396 29.2136C224.489 29.4551 224.471 29.6966 224.359 29.9195C224.285 30.0681 224.081 30.1981 223.932 30.1981H219.232C218.954 30.1981 218.749 30.1052 218.638 29.9381L217.635 30.6997C217.319 30.2353 217.282 29.7523 217.282 29.7523L218.972 28.4891H211.226L210.557 29.7709C209.981 30.8854 210 31.7213 210.39 32.3158L211.69 31.9071C212.025 32.1672 212.675 32.2972 213.659 32.2972H224.824C226.774 32.2972 229.356 31.8328 230.508 29.6037L231.845 29.1764C231.604 25.8142 221.536 23.5108 222.074 22.4706L220.848 22.9535C220.737 22.6192 220.774 22.2662 220.96 21.8947C221.498 20.8359 222.706 20.0557 223.82 20.0557H227.666C229.207 20.0557 229.56 21.4303 229.56 21.4303H234.743C234.799 21.3189 234.873 21.1703 234.873 21.1703C235.133 20.6687 235.375 20.0186 234.836 19.6285L236.155 19.2012C235.616 18.3467 234.316 17.9566 232.867 17.9566" fill="white"/>
<path d="M232.885 13.5913H221.721C218.972 13.5913 216.26 14.5015 214.142 16.0247C213.121 14.8916 211.226 13.5913 207.808 13.5913H175.542C173.48 13.5913 171.362 13.9257 169.319 14.5015C169.542 14.0557 169.783 13.5913 169.783 13.5913H140.062C140.062 13.5913 139.505 14.6687 139.43 14.8173C138.13 14.0371 136.514 13.5913 134.619 13.5913H123.455C121.022 13.5913 117.827 14.3715 115.3 16.4148C114.297 15.0774 112.365 13.5913 108.65 13.5913H2.50774C2.50774 13.5913 8.17338 18.904 9.3065 19.9628C8.39629 21.709 0 38 0 38H17.6656C17.6656 38 19.7276 34.0062 20.2848 32.9288C24.3529 32.9288 28.4582 31.4241 28.4582 31.4241C25.2817 34.3777 19.0588 38 19.0588 38H151.17C151.17 38 153.139 34.1734 154.718 31.1269C154.402 32.6316 155.573 38 162.65 38H224.842C229.839 38 233.647 35.9566 235.56 32.2415C237.028 29.3808 235.82 27.1517 235.82 27.1517H238.18L239.907 23.8266C242.062 19.647 240.557 13.6099 232.885 13.6099M238.607 23.1579L237.307 25.7028H233.238C233.238 25.7028 235.969 28.2848 234.279 31.5913C232.625 34.7864 229.282 36.5511 224.861 36.5511H213.697C211.69 36.5511 210.056 36.0309 208.904 35.0464L209.238 36.5511H195.437L194.805 33.2446C194.582 33.6904 193.096 36.5511 193.096 36.5511H162.65C157.468 36.5511 154.7 32.8359 156.947 28.4706C156.947 28.4706 158.211 26 159.084 24.3282H156.594C156.167 25.1455 150.279 36.5511 150.279 36.5511H135.92C135.92 36.5511 140.359 27.9504 142.235 24.3282H139.746L133.43 36.5511H45.065L44.4334 33.2446L42.7245 36.5511H24.13C24.13 36.5511 30.4272 32.5758 32.0248 29.4922C32.0248 29.4922 32.4149 28.7306 32.9907 27.5975C29.6656 29.8823 24.8731 31.5356 19.356 31.517L16.7554 36.5325H2.41486L11.1269 19.6656L6.22291 15.0774H108.669C114.167 15.0774 114.947 18.8297 114.947 18.8297C117.232 16.099 120.799 15.0774 123.492 15.0774H134.656C136.978 15.0774 138.817 15.7833 139.95 17.0836L140.991 15.0774H167.424L166.347 17.1579C169.096 15.8576 172.347 15.0774 175.579 15.0774H207.845C212.786 15.0774 213.864 18.1424 213.864 18.1424C216.13 15.9133 219.325 15.0774 221.759 15.0774H232.923C238.625 15.0774 240.669 19.2198 238.644 23.1579" fill="#FFB81C"/>
<path d="M22.4396 21.3561H26.2848C26.6192 21.3561 26.8421 21.5047 26.935 21.7276L28.1238 21.3561C27.8823 20.6316 27.195 20.0929 26.2848 20.0929H22.4396C21.3251 20.0929 20.1362 20.8545 19.5789 21.9319C19.5789 21.9319 15.4551 29.9195 14.2105 32.3158H9.2879L7.22598 33.579H14.9721L20.6935 22.5078C21.0278 21.8762 21.808 21.3561 22.4396 21.3561Z" fill="#FFB81C"/>
<path d="M34.5883 21.7833C35.1642 20.6687 35.1456 19.8328 34.7555 19.2384L33.4366 19.6656C33.8638 20 33.8081 20.5201 33.4552 21.226C32.6378 22.7864 29.4056 25.7028 24.1115 26.8359L18.3344 28.5449C27.1208 28.9536 33.1022 24.6254 34.5697 21.7833" fill="#FFB81C"/>
<path d="M60.743 19.2384L59.387 19.6656C59.7399 19.9443 59.8514 20.4273 59.4427 21.2074C57.3622 25.2384 49.9319 26.9288 49.9319 26.9288C49.9319 26.9288 51.0093 27.0031 51.9381 27.6533C56.5263 26.2972 59.5727 23.6966 60.5758 21.7833C61.1517 20.6687 61.1331 19.8328 60.743 19.2384Z" fill="#FFB81C"/>
<path d="M48.5758 32.3343C48.1486 30.6997 47.4241 29.5665 46.7183 28.8049L44.322 28.5449C44.322 28.5449 46.8854 29.4737 47.5542 33.5789H55.1888L53.4799 32.3158H48.5573L48.5758 32.3343Z" fill="#FFB81C"/>
<path d="M48.39 21.3561H52.2352C52.5696 21.3561 52.7925 21.5047 52.8854 21.7276L54.0928 21.3375C53.8513 20.613 53.2012 20.0929 52.2352 20.0929H48.39C47.2755 20.0929 46.0866 20.8545 45.5294 21.9319L40.1609 32.3158H35.1269L31.5603 33.579H40.9411L46.6625 22.5078C46.9969 21.8762 47.777 21.3561 48.4086 21.3561" fill="#FFB81C"/>
<path d="M78.9473 32.3344H61.9504L59.8885 33.5975H79.7089L81.4551 30.2353L79.3932 31.4984C79.1702 31.9257 79.0959 32.0743 78.9473 32.3529" fill="#FFB81C"/>
<path d="M73.3561 22.5077C73.6719 21.8761 74.4706 21.356 75.1022 21.356H86.0248L87.7709 17.9752L85.709 19.2384C85.4861 19.6656 85.4118 19.8142 85.2632 20.0929H75.1022C73.9876 20.0929 72.7988 20.8545 72.2415 21.9319L70.4768 25.3684L72.5387 24.1052L73.3561 22.5077Z" fill="#FFB81C"/>
<path d="M81.3622 26.2229H70.0309L67.3188 31.4799L69.3807 30.2167L70.7925 27.4675H82.1238L83.8699 24.1053L81.808 25.3684C81.5851 25.7957 81.5108 25.9443 81.3622 26.2229Z" fill="#FFB81C"/>
<path d="M97.8576 22.5078C98.192 21.8762 98.9721 21.3561 99.6037 21.3561H103.449C103.783 21.3561 104.006 21.5047 104.099 21.7276L105.288 21.3561C105.046 20.6316 104.415 20.0929 103.43 20.0929H99.5852C98.4706 20.0929 97.2817 20.8545 96.7245 21.9319L91.8019 31.4799L93.8638 30.2167L97.839 22.5078H97.8576Z" fill="#FFB81C"/>
<path d="M111.771 21.7833C112.347 20.6687 112.328 19.8328 111.938 19.2384L110.619 19.6656C111.065 20.0186 110.991 20.5759 110.656 21.2074L107.721 26.8917C106.198 29.8266 100.737 32.3158 95.7772 32.3158H86.4706L84.4087 33.579H95.7772C101.257 33.579 107.108 30.8483 108.836 27.4675L111.771 21.7833Z" fill="#FFB81C"/>
<path d="M123.827 22.5078C124.161 21.8762 124.941 21.3561 125.573 21.3561H129.418C129.752 21.3561 129.975 21.5047 130.068 21.7276L131.276 21.3375C131.034 20.613 130.365 20.0929 129.418 20.0929H125.573C124.458 20.0929 123.269 20.8545 122.712 21.9319L120.947 25.3684L123.009 24.1053L123.827 22.5078Z" fill="#FFB81C"/>
<path d="M136.588 19.6656C137.053 20.0372 136.941 20.613 136.625 21.2074C136.625 21.2074 132.186 29.8266 130.885 32.3158H126.334L124.272 33.579H131.666L137.759 21.7833C138.334 20.6873 138.316 19.8328 137.926 19.2384L136.607 19.6656H136.588Z" fill="#FFB81C"/>
<path d="M129.474 26.2229H120.502C120.502 26.2229 117.901 31.257 117.344 32.3344H112.31L108.743 33.5975H118.124L121.282 27.4861H127.412L129.474 26.2229Z" fill="#FFB81C"/>
<path d="M149.108 20.1115H143.09L141.009 21.356H147.047L149.108 20.1115Z" fill="#FFB81C"/>
<path d="M162.576 17.9938L160.514 19.2569C160.291 19.6842 160.217 19.8328 160.068 20.1114H155.944C154.83 20.1114 153.622 20.873 153.084 21.9504C153.084 21.9504 148.96 29.938 147.715 32.3343H142.793L140.731 33.5975H148.477L154.198 22.5263C154.533 21.8947 155.294 21.3746 155.944 21.3746H160.83L162.576 18.0124V17.9938Z" fill="#FFB81C"/>
<path d="M211.096 19.2384L209.74 19.6656C210.093 19.9443 210.204 20.4273 209.796 21.2074C207.715 25.2384 200.285 26.9288 200.285 26.9288C200.285 26.9288 201.362 27.0031 202.291 27.6533C206.879 26.2972 209.926 23.6966 210.929 21.7833C211.505 20.6687 211.486 19.8328 211.096 19.2384Z" fill="#FFB81C"/>
<path d="M198.929 32.3343C198.502 30.6997 197.777 29.5665 197.071 28.8049L194.675 28.5449C194.675 28.5449 197.238 29.4737 197.907 33.5789H205.542L203.833 32.3158H198.91L198.929 32.3343Z" fill="#FFB81C"/>
<path d="M198.762 21.3561H202.607C202.941 21.3561 203.164 21.5047 203.257 21.7276L204.464 21.3375C204.223 20.613 203.573 20.0929 202.607 20.0929H198.762C197.647 20.0929 196.458 20.8545 195.901 21.9319L190.532 32.3158H185.498L181.932 33.579H191.313L197.034 22.5078C197.368 21.8762 198.149 21.3561 198.78 21.3561" fill="#FFB81C"/>
<path d="M184.96 21.7833C185.536 20.6687 185.517 19.8328 185.127 19.2384L183.808 19.6656C184.18 19.9629 184.217 20.4644 183.827 21.226L180.892 26.9102C179.368 29.8452 173.907 32.3344 168.947 32.3344H162.632C161.703 32.3344 161.034 32.2229 160.663 31.9257L159.344 32.353C159.882 33.2074 161.183 33.5975 162.613 33.5975H168.929C174.409 33.5975 180.26 30.8669 181.988 27.4861L184.923 21.8019L184.96 21.7833Z" fill="#FFB81C"/>
<path d="M167.536 29.7338C167.499 29.548 167.536 29.3065 167.666 29.065L170.229 24.1053C171.009 22.6006 172.774 21.3561 174.167 21.3561H176.638C176.972 21.3561 177.195 21.5047 177.288 21.7276L178.477 21.3375C178.235 20.613 177.567 20.0929 176.619 20.0929H174.149C172.273 20.0929 170.099 21.5604 169.096 23.5109L166.533 28.4706C166.254 29.0279 166.198 29.6037 166.328 30.1053L167.536 29.7152V29.7338Z" fill="#FFB81C"/>
<path d="M234.855 19.6656C235.393 20.0743 235.152 20.7059 234.892 21.2074C234.892 21.2074 234.817 21.3746 234.762 21.4675H229.579C229.579 21.4675 229.245 20.0929 227.684 20.0929H223.839C222.724 20.0929 221.536 20.8545 220.978 21.9319C220.793 22.3034 220.755 22.6564 220.867 22.9907L222.093 22.5078C222.427 21.8762 223.189 21.3561 223.839 21.3561H227.684C228.316 21.3561 228.557 21.8762 228.242 22.5078L228.13 22.7307H235.523L236.006 21.7833C236.582 20.6873 236.563 19.8328 236.173 19.2384L234.855 19.6656Z" fill="#FFB81C"/>
<path d="M224.452 29.2136L225.678 28.7307C224.619 26.0557 217.783 24.5697 215.889 22.3034L214.718 22.7678C215.721 25.0898 223.709 27.1331 224.471 29.2136" fill="#FFB81C"/>
<path d="M219.009 28.5077L217.319 29.7709C217.319 29.7709 217.356 30.2539 217.672 30.7182L218.675 29.9566C218.526 29.7523 218.526 29.4179 218.712 29.065L219.009 28.5077Z" fill="#FFB81C"/>
<path d="M224.842 32.3344H213.678C212.675 32.3344 212.043 32.2044 211.709 31.9443L210.409 32.353C210.947 33.2075 212.248 33.5976 213.678 33.5976H224.842C227.294 33.5976 230.266 32.9103 231.641 30.2353C231.827 29.8824 231.882 29.548 231.864 29.2322L230.526 29.6595C229.375 31.8886 226.811 32.353 224.842 32.353" fill="#FFB81C"/>
<path d="M45.0465 9.80186L49.0774 2H45.3808L43.0403 6.53251C42.6687 4.24768 41.5913 2 41.5913 2H36.9102C36.9102 2 37.4675 2.52012 37.0031 3.39319L33.6966 9.80186H37.579L40.3096 4.50774C41.5356 7.25697 41.3684 9.80186 41.3684 9.80186H45.065H45.0465Z" fill="#041E42"/>
<path d="M67.3003 9.80186L70.3468 3.89474C71.0341 2.55728 70.031 2 68.805 2H63.2322C62.0062 2 60.4087 2.55728 59.7214 3.89474L56.6749 9.80186H60.5573L62.1363 6.75542H65.2013L63.6223 9.80186H67.3189H67.3003ZM62.9907 5.06502L63.3994 4.26625C63.5666 3.95046 63.9567 3.6904 64.2725 3.6904H66.1858C66.5016 3.6904 66.6316 3.95046 66.4644 4.26625L66.0558 5.06502H62.9907Z" fill="#041E42"/>
<path d="M151.839 9.80186L155.87 2H151.988L147.975 9.80186H151.839Z" fill="#041E42"/>
<path d="M167.48 2L163.449 9.80186H171.121L171.994 8.11146H168.186L171.344 2H167.48Z" fill="#041E42"/>
<path d="M186.743 2L182.731 9.80186H190.402L191.276 8.11146H187.467L190.625 2H186.743Z" fill="#041E42"/>
<path d="M128.229 2L127.579 9.80186H133.022L140.378 2H136.7L131.387 7.60991L131.851 2H128.229Z" fill="#041E42"/>
<path d="M88.6439 4.37769H92.3405L92.582 3.91329C93.2693 2.57583 92.2662 2.01855 91.0216 2.01855H85.4489C84.2229 2.01855 82.6253 2.57583 81.938 3.91329C81.1578 5.41794 87.4551 6.68109 86.7863 7.9814C86.7492 8.05571 86.6377 8.13001 86.5634 8.13001H84.2229C83.9071 8.13001 83.777 7.86995 83.9442 7.55416L84.0928 7.27552H80.2105L79.8761 7.92568C79.1888 9.26314 80.1919 9.82041 81.4365 9.82041H87.0092C88.2352 9.82041 89.7213 9.46747 90.4086 8.13001C91.4117 6.17955 85.3374 4.84208 85.6346 4.28481C85.8018 3.96902 86.1919 3.70896 86.5077 3.70896H88.421C88.7368 3.70896 88.8668 3.96902 88.6996 4.28481L88.6439 4.39626V4.37769Z" fill="#041E42"/>
<path d="M112.607 9.80186L116.638 2H112.941L111.362 5.04644H108.297L109.876 2H105.195C105.195 2 105.734 2.52012 105.288 3.39319L102.706 8.40867C102.26 9.28173 101.183 9.80186 101.183 9.80186H105.864L107.443 6.75542H110.508L108.929 9.80186H112.625H112.607Z" fill="#041E42"/>
<path d="M210.427 3.6904H215.889L216.762 2H206.043C206.043 2 206.582 2.52012 206.136 3.39319L202.83 9.80186H212.749L213.622 8.11146H207.585L208.291 6.73684H213.957L214.83 5.04644H209.164L209.573 4.24768C209.74 3.93189 210.13 3.67183 210.446 3.67183" fill="#041E42"/>
<path d="M232.885 15.0588H221.721C219.288 15.0588 216.093 15.9133 213.827 18.1239C213.827 18.1239 212.749 15.0588 207.808 15.0588H175.542C172.31 15.0588 169.059 15.839 166.31 17.1393L167.387 15.0588H140.954L139.913 17.065C138.78 15.7647 136.923 15.0588 134.619 15.0588H123.455C120.78 15.0588 117.195 16.0805 114.91 18.8112C114.91 18.8112 114.13 15.0588 108.632 15.0588H6.2229L11.1269 19.6471L2.41485 36.5139H16.774L19.3746 31.4985C24.8916 31.517 29.6842 29.8638 33.0093 27.579C32.4334 28.6935 32.0433 29.4737 32.0433 29.4737C30.4458 32.5573 24.1486 36.5325 24.1486 36.5325H42.743L44.452 33.226L45.0836 36.5325H133.449L139.765 24.3096H142.254C140.396 27.9319 135.938 36.5325 135.938 36.5325H150.297C150.297 36.5325 156.186 25.1269 156.613 24.3096H159.102C158.229 26 156.966 28.452 156.966 28.452C154.718 32.7988 157.486 36.5325 162.669 36.5325H193.115C193.115 36.5325 194.582 33.6718 194.824 33.226L195.455 36.5325H209.257L208.923 35.0279C210.074 36.0124 211.709 36.5325 213.715 36.5325H224.879C229.3 36.5325 232.644 34.7678 234.297 31.5728C236.006 28.2663 233.257 25.6842 233.257 25.6842H237.325L238.625 23.1393C240.65 19.2013 238.625 15.0588 232.904 15.0588M18.3529 28.5449C18.3529 28.5449 25.2446 25.5542 26.8235 22.5078C26.9721 22.2105 27.0093 21.9319 26.9164 21.7276C26.8235 21.5047 26.6006 21.3561 26.2662 21.3561H22.421C21.7895 21.3561 21.0093 21.8762 20.6749 22.5078L14.9535 33.579H7.22599L13.839 20.7616C14.7492 19.0155 13.6532 17.9938 13.6532 17.9938H31.4861C32.935 17.9938 34.2167 18.3839 34.774 19.2384C35.1641 19.8514 35.1641 20.6873 34.6068 21.7833C33.1393 24.6254 27.1579 28.9536 18.3715 28.5449M55.2074 33.579H47.5542C46.8854 29.4737 44.322 28.5449 44.322 28.5449C44.322 28.5449 51.2136 25.5542 52.7926 22.5078C52.9412 22.2105 52.9783 21.9319 52.8854 21.7276C52.7926 21.5047 52.5697 21.3561 52.2353 21.3561H48.3901C47.7585 21.3561 46.9783 21.8762 46.644 22.5078L40.9226 33.579H31.5418C31.5418 33.579 33.6966 32.5573 34.5882 30.8112L39.7709 20.7616C40.6625 19.0155 39.5851 17.9938 39.5851 17.9938H57.4179C58.8669 17.9938 60.1486 18.3839 60.7059 19.2384C61.096 19.8514 61.096 20.6873 60.5387 21.7833C59.5542 23.7152 56.4892 26.2972 51.9009 27.6533C54.2786 29.5666 55.1703 33.579 55.1703 33.579M82.1053 27.4675H70.774L69.3622 30.2167H81.4365L79.6904 33.579H59.87L66.483 20.7616C67.3932 19.0155 66.2972 17.9938 66.2972 17.9938H87.7337L85.9876 21.3561H75.065C74.4334 21.3561 73.6532 21.8762 73.3189 22.5078L72.5015 24.1053H83.8328L82.0867 27.4675H82.1053ZM95.7399 33.579H84.3715L90.9845 20.7616C91.8947 19.0155 90.7988 17.9938 90.7988 17.9938H108.632C110.08 17.9938 111.362 18.3839 111.919 19.2384C112.31 19.8514 112.31 20.6873 111.752 21.7833L108.817 27.4675C107.071 30.8483 101.22 33.579 95.7585 33.579M137.721 21.7833L131.628 33.579H124.235L127.393 27.4675H121.263L118.105 33.579H108.724C108.724 33.579 110.879 32.5573 111.789 30.8112L116.452 21.7833C117.827 19.1084 121.003 17.9938 123.474 17.9938H134.638C136.087 17.9938 137.368 18.3839 137.907 19.2384C138.297 19.8514 138.297 20.6873 137.74 21.7833M155.963 21.3561C155.331 21.3561 154.551 21.8762 154.217 22.5078L148.495 33.579H140.749L147.065 21.3561H141.028L142.774 17.9938H162.594L160.848 21.3561H155.963ZM168.966 33.579H162.65C161.201 33.579 159.919 33.1889 159.381 32.3344C158.991 31.7214 158.991 30.8855 159.548 29.7895L162.483 24.1053C164.229 20.7245 170.08 17.9938 175.542 17.9938H181.839C183.288 17.9938 184.57 18.3839 185.127 19.2384C185.517 19.8514 185.517 20.6873 184.96 21.7833L182.025 27.4675C180.279 30.8483 174.446 33.579 168.966 33.579ZM202.31 27.6533C204.669 29.5666 205.579 33.579 205.579 33.579H197.944C197.276 29.4737 194.712 28.5449 194.712 28.5449C194.712 28.5449 201.604 25.5542 203.183 22.5078C203.331 22.2105 203.368 21.9319 203.276 21.7276C203.183 21.5047 202.96 21.3561 202.625 21.3561H198.78C198.149 21.3561 197.368 21.8762 197.034 22.5078L191.313 33.579H181.932C181.932 33.579 184.087 32.5573 184.978 30.8112L190.161 20.7616C191.053 19.0155 189.975 17.9938 189.975 17.9938H207.808C209.257 17.9938 210.539 18.3839 211.096 19.2384C211.486 19.8514 211.486 20.6873 210.929 21.7833C209.944 23.7152 206.879 26.2972 202.291 27.6533M235.988 21.7833L235.505 22.7307H228.111L228.223 22.5078C228.557 21.8762 228.297 21.3561 227.666 21.3561H223.82C223.189 21.3561 222.409 21.8762 222.074 22.5078C221.536 23.548 231.604 25.8328 231.845 29.2136C231.864 29.548 231.808 29.8824 231.622 30.2167C230.248 32.8917 227.276 33.579 224.824 33.579H213.659C212.211 33.579 210.929 33.1889 210.39 32.3344C210 31.7214 210 30.8855 210.557 29.7895L211.226 28.5078H218.972L218.675 29.065C218.489 29.418 218.489 29.7523 218.638 29.9567C218.749 30.1239 218.954 30.2167 219.232 30.2167H223.932C224.099 30.2167 224.285 30.0867 224.359 29.9381C224.489 29.6966 224.489 29.4551 224.396 29.2136C223.635 27.1331 215.647 25.0898 214.644 22.7678C214.495 22.452 214.495 22.1177 214.681 21.7833C216.056 19.1084 219.232 17.9938 221.703 17.9938H232.867C234.316 17.9938 235.598 18.3839 236.155 19.2384C236.545 19.8514 236.545 20.6873 235.988 21.7833Z" fill="#041E42"/>
<path d="M129.399 21.356H125.554C124.923 21.356 124.142 21.8761 123.808 22.5077L122.991 24.1052H129.121L129.938 22.5077C130.087 22.2105 130.124 21.9319 130.031 21.7275C129.938 21.5046 129.715 21.356 129.381 21.356" fill="#041E42"/>
<path d="M103.449 21.356H99.6037C98.9721 21.356 98.192 21.8761 97.8576 22.5077L93.8824 30.2167H97.5046C98.8978 30.2167 100.644 28.9907 101.424 27.4675L103.988 22.5077C104.136 22.2105 104.173 21.9319 104.08 21.7275C103.988 21.5046 103.765 21.356 103.43 21.356" fill="#041E42"/>
<path d="M176.638 21.356H174.167C172.774 21.356 171.028 22.582 170.229 24.1052L167.666 29.065C167.536 29.3065 167.498 29.548 167.536 29.7337C167.591 30.0309 167.833 30.2167 168.223 30.2167H170.693C172.087 30.2167 173.833 28.9907 174.613 27.4675L177.176 22.5077C177.325 22.2105 177.362 21.9319 177.269 21.7275C177.176 21.5046 176.954 21.356 176.619 21.356" fill="#041E42"/>
<path d="M234.706 34.7864H235.282V36.5139H235.486V34.7864H236.099V34.582H234.706V34.7864Z" fill="#041E42"/>
<path d="M237.214 36.161L236.712 34.582H236.378V36.5139H236.582V34.8607L237.102 36.5139H237.307L237.827 34.8607V36.5139H238.05V34.582H237.697L237.214 36.161Z" fill="#041E42"/>
</svg>
