<?xml version="1.0" encoding="UTF-8"?>
<svg xmlns="http://www.w3.org/2000/svg" id="a" width="319" height="40" viewBox="0 0 319 40">
  <path d="m0,.63h9.09l3.62,33.1h.19l-.54-23.23V.63h5.85v38.74h-9.01L5.53,6.43h-.19l.56,23.28v9.66H0V.63Z" fill="#fff"/>
  <path d="m22.32.63h12.88v5.74h-6.49v10.57h5.66v5.74h-5.66v10.95h6.6v5.74h-12.98V.63Z" fill="#fff"/>
  <path d="m37.86.63h5.98l1.29,32.62h.16L47.12.63h7.54l1.82,32.67h.16L57.95.63h6.01l-2.47,38.74h-8.69l-1.8-32.41h-.19l-1.77,32.41h-8.8L37.86.63Z" fill="#fff"/>
  <path d="m78.11,28.26L71.59.63h6.65l2.25,12.82.83,5.61h.13l.75-5.63,2.25-12.8h6.52l-6.52,27.63v11.11h-6.36v-11.11Z" fill="#fff"/>
  <path d="m98.21,39.78c-.84-.13-1.57-.36-2.19-.68-.62-.32-1.14-.73-1.58-1.23-.44-.5-.8-1.09-1.07-1.77-.28-.68-.48-1.46-.6-2.35-.13-.88-.19-1.87-.19-2.96V9.22c0-1.65.15-3.05.44-4.21.3-1.16.77-2.11,1.42-2.86.65-.74,1.52-1.28,2.59-1.62,1.07-.34,2.4-.51,3.97-.51,1.06,0,2,.08,2.83.23.83.15,1.56.38,2.17.68.62.3,1.14.7,1.57,1.19.43.49.79,1.08,1.07,1.77.29.69.49,1.47.62,2.33.12.87.19,1.86.19,2.99v21.57c0,1.63-.14,3.03-.42,4.21-.28,1.18-.76,2.14-1.44,2.87-.68.73-1.56,1.27-2.63,1.61-1.07.34-2.4.51-3.97.51-1.02,0-1.95-.07-2.79-.2Zm3.43-4.95c.18-.07.34-.16.47-.27.13-.11.25-.25.35-.44.1-.19.17-.41.23-.66.05-.25.09-.55.11-.88.02-.34.03-.7.03-1.07V8.38c0-.55-.02-1.05-.07-1.48-.04-.43-.14-.78-.28-1.06-.14-.28-.33-.48-.56-.6-.23-.12-.54-.19-.91-.19-.23,0-.44.04-.63.11-.19.07-.35.17-.5.28-.14.12-.26.26-.35.43-.09.17-.16.38-.2.62s-.08.52-.11.83c-.03.31-.04.67-.04,1.06v23.12c0,.61.03,1.12.08,1.54.05.42.15.77.3,1.05.14.28.33.49.56.63.23.14.53.21.88.21.25,0,.46-.04.64-.11Z" fill="#fff"/>
  <path d="m113.21.63h7.67c.93,0,1.78.05,2.56.15.78.1,1.47.25,2.08.47.61.21,1.14.5,1.6.85.46.35.84.76,1.14,1.25.3.48.53,1.04.68,1.68.15.63.23,1.36.23,2.19v6.63c0,.93-.08,1.73-.24,2.4-.16.67-.39,1.24-.7,1.72-.3.47-.66.86-1.06,1.15-.4.29-.85.53-1.35.71.52.12.96.32,1.33.58.37.26.68.61.94,1.06s.45,1.01.56,1.7c.12.69.19,1.55.23,2.59l.11,8.85c.02.7.04,1.29.08,1.78.04.49.07.91.11,1.25.04.34.08.64.13.91.05.27.1.55.13.83h-6.46c-.05-.3-.1-.59-.13-.86-.04-.27-.07-.55-.09-.86-.03-.3-.05-.64-.08-1.01s-.04-.78-.04-1.25l-.11-10.78c-.02-.39-.06-.73-.12-1.02-.06-.29-.17-.51-.31-.67-.14-.16-.31-.27-.51-.32-.2-.05-.46-.08-.78-.08h-1.21v16.85h-6.38V.63Zm7.54,16.74c.38,0,.68-.03.91-.09.23-.06.43-.17.59-.32.16-.15.27-.36.34-.62.06-.26.09-.56.09-.9v-7.67c0-.34-.03-.63-.09-.87-.06-.24-.17-.44-.34-.59-.16-.15-.36-.26-.59-.32-.23-.06-.54-.09-.91-.09h-1.15v11.48h1.15Z" fill="#fff"/>
  <path d="m133.12.63h6.38v16.69l4.24-16.69h6.57l-5.07,18.97,5.42,19.77h-6.84l-4.32-16.55v16.55h-6.38V.63Z" fill="#fff"/>
  <path d="m159.4.63h6.38v38.74h-6.38V.63Z" fill="#f26924"/>
  <path d="m173.9,39.52c-1.03-.31-1.88-.76-2.55-1.35-.67-.59-1.17-1.32-1.49-2.2-.32-.88-.48-1.89-.48-3.03v-7.94h6.33v7.75c.02.43.07.79.15,1.09.08.3.2.52.36.68.16.16.35.28.58.36.22.08.46.12.71.12.18,0,.34,0,.48-.03.14-.02.28-.06.42-.12.13-.06.25-.13.35-.2.1-.07.18-.18.25-.32.07-.14.13-.3.17-.48.04-.18.07-.38.07-.62v-5.79c0-.63-.04-1.15-.11-1.58-.07-.43-.18-.81-.34-1.14-.15-.33-.38-.63-.7-.88-.31-.26-.7-.57-1.17-.93l-2.9-1.85c-.82-.5-1.52-1-2.11-1.49-.58-.49-1.06-1.06-1.42-1.72s-.64-1.39-.82-2.21c-.18-.82-.27-1.84-.27-3.06v-5.98c0-.7.07-1.35.21-1.96.14-.61.37-1.15.67-1.64.3-.48.68-.91,1.13-1.29.45-.38.96-.69,1.53-.94s1.22-.44,1.95-.56c.72-.12,1.52-.19,2.4-.19,1.34,0,2.51.14,3.51.42,1,.28,1.82.7,2.47,1.26.64.56,1.12,1.28,1.42,2.15.3.87.47,1.87.48,3.02v7.86h-6.28v-7.65c0-.43-.04-.78-.12-1.05-.08-.27-.2-.47-.35-.62-.15-.14-.32-.25-.51-.31-.19-.06-.41-.09-.66-.09-.16,0-.31.01-.44.04s-.26.06-.38.11c-.12.04-.21.11-.3.2s-.16.2-.24.32-.13.27-.15.43c-.02.16-.03.35-.03.56v5.39c0,.57.03,1.06.09,1.46.06.4.18.76.36,1.06.18.3.4.59.67.85s.63.56,1.07.9l2.82,1.82c.84.5,1.56,1,2.15,1.5.59.5,1.08,1.06,1.46,1.68s.68,1.35.87,2.21c.2.86.3,1.89.3,3.08v6.65c0,1.06-.17,2-.5,2.84-.33.84-.82,1.55-1.48,2.13s-1.48,1.01-2.49,1.3c-1.01.29-2.2.43-3.58.43s-2.58-.16-3.61-.47Z" fill="#f26924"/>
  <path d="m189.08.63h6.38v33h6.01v5.74h-12.39V.63Z" fill="#f26924"/>
  <path d="m207.35.63h10.38l3.92,38.74h-6.33l-.83-10.14h-3.84l-.86,10.14h-6.22l3.78-38.74Zm6.68,23.26l-1.42-17.81h-.13l-1.37,17.81h2.92Z" fill="#f26924"/>
  <path d="m224.63.63h9.09l3.62,33.1h.19l-.54-23.23V.63h5.85v38.74h-9.01l-3.68-32.94h-.19l.56,23.28v9.66h-5.9V.63Z" fill="#f26924"/>
  <path d="m246.96.63h7.81c1.04,0,1.97.08,2.79.23.82.15,1.55.39,2.17.71s1.17.72,1.62,1.19c.46.47.83,1.04,1.11,1.69s.5,1.4.64,2.24c.14.84.21,1.79.21,2.84v20.95c0,1.02-.07,1.95-.21,2.79-.14.84-.36,1.59-.64,2.24s-.66,1.22-1.11,1.72-1,.89-1.62,1.21c-.63.31-1.35.55-2.17.7-.82.15-1.75.23-2.79.23h-7.81V.63Zm7.46,33.48c.3,0,.56-.03.78-.09.21-.06.41-.15.58-.25.17-.11.31-.25.42-.43.11-.18.2-.4.27-.66.07-.26.12-.56.16-.9.04-.34.05-.73.05-1.18V9.43c0-.45-.02-.85-.05-1.19-.04-.35-.09-.66-.16-.94-.07-.28-.16-.5-.27-.67-.11-.17-.25-.31-.42-.42s-.37-.18-.59-.21c-.22-.04-.48-.05-.76-.05h-1.07v28.17h1.07Z" fill="#f26924"/>
  <path d="m267.05.63h12.88v5.74h-6.49v10.57h5.66v5.74h-5.66v10.95h6.6v5.74h-12.98V.63Z" fill="#f26924"/>
  <path d="m283.4.63h7.67c.93,0,1.78.05,2.56.15.78.1,1.47.25,2.08.47.61.21,1.14.5,1.6.85.46.35.84.76,1.14,1.25.3.48.53,1.04.68,1.68s.23,1.36.23,2.19v6.63c0,.93-.08,1.73-.24,2.4-.16.67-.39,1.24-.7,1.72-.3.47-.66.86-1.06,1.15-.4.29-.85.53-1.35.71.52.12.96.32,1.33.58.37.26.68.61.94,1.06s.45,1.01.56,1.7.19,1.55.23,2.59l.11,8.85c.02.7.04,1.29.08,1.78.04.49.07.91.11,1.25.04.34.08.64.13.91.05.27.1.55.13.83h-6.46c-.05-.3-.1-.59-.14-.86-.04-.27-.07-.55-.09-.86s-.05-.64-.08-1.01-.04-.78-.04-1.25l-.11-10.78c-.02-.39-.06-.73-.12-1.02-.06-.29-.17-.51-.31-.67-.14-.16-.31-.27-.51-.32-.2-.05-.46-.08-.78-.08h-1.21v16.85h-6.39V.63Zm7.54,16.74c.38,0,.68-.03.91-.09.23-.06.43-.17.59-.32.16-.15.27-.36.34-.62.06-.26.09-.56.09-.9v-7.67c0-.34-.03-.63-.09-.87s-.17-.44-.34-.59c-.16-.15-.36-.26-.59-.32-.23-.06-.54-.09-.91-.09h-1.15v11.48h1.15Z" fill="#f26924"/>
  <path d="m307.35,39.52c-1.03-.31-1.88-.76-2.55-1.35-.67-.59-1.17-1.32-1.49-2.2-.32-.88-.48-1.89-.48-3.03v-7.94h6.33v7.75c.02.43.07.79.15,1.09.08.3.2.52.36.68.16.16.35.28.58.36.22.08.46.12.71.12.18,0,.34,0,.48-.03s.28-.06.42-.12.25-.13.35-.2.18-.18.26-.32c.07-.14.13-.3.17-.48.04-.18.07-.38.07-.62v-5.79c0-.63-.04-1.15-.11-1.58-.07-.43-.18-.81-.34-1.14-.15-.33-.38-.63-.7-.88-.31-.26-.7-.57-1.17-.93l-2.9-1.85c-.82-.5-1.52-1-2.11-1.49-.58-.49-1.06-1.06-1.42-1.72-.37-.65-.64-1.39-.82-2.21-.18-.82-.27-1.84-.27-3.06v-5.98c0-.7.07-1.35.22-1.96.14-.61.37-1.15.67-1.64.3-.48.68-.91,1.13-1.29.45-.38.96-.69,1.53-.94.57-.25,1.22-.44,1.95-.56.72-.12,1.52-.19,2.4-.19,1.34,0,2.51.14,3.51.42,1,.28,1.82.7,2.47,1.26.64.56,1.12,1.28,1.42,2.15.3.87.47,1.87.48,3.02v7.86h-6.28v-7.65c0-.43-.04-.78-.12-1.05-.08-.27-.2-.47-.35-.62-.15-.14-.32-.25-.51-.31-.19-.06-.41-.09-.66-.09-.16,0-.31.01-.44.04-.13.03-.26.06-.37.11-.12.04-.21.11-.3.2-.08.09-.16.2-.24.32s-.13.27-.15.43c-.02.16-.03.35-.03.56v5.39c0,.57.03,1.06.09,1.46s.18.76.36,1.06c.18.3.4.59.67.85.27.26.62.56,1.07.9l2.82,1.82c.84.5,1.56,1,2.15,1.5.59.5,1.08,1.06,1.46,1.68.38.62.67,1.35.87,2.21.2.86.29,1.89.29,3.08v6.65c0,1.06-.17,2-.5,2.84-.33.84-.82,1.55-1.48,2.13s-1.48,1.01-2.49,1.3c-1.01.29-2.21.43-3.58.43s-2.58-.16-3.61-.47Z" fill="#f26924"/>
</svg>
