<svg xmlns="http://www.w3.org/2000/svg" width="294.9856" height="284.58303" viewBox="0 0 294.9856 284.58303"><path d="M147.49337,0C66.03173,0,0,63.70737,0,142.29432S66.03227,284.583,147.49394,284.583,294.9856,220.87792,294.9856,142.29432,228.95109.00056,147.49281.00056Z" fill="#fff"/><path d="M147.49337,10.48422c-75.66248,0-136.9946,59.01279-136.9946,131.81065S71.83088,274.1005,147.49394,274.1005s136.99291-59.01335,136.99291-131.80618S223.15025,10.48366,147.49337,10.48366" fill="#fc4c02"/><path d="M47.46816,173.60886v-8.6045L38.96658,157.538v16.60777c2.59337-.69239,5.7891.19295,8.50158-.5369" fill="#003087"/><path d="M275.77387,134.46554c-12.06418,4.232-27.08583,9.16825-38.72834,13.16764-3.92-.63758-6.60172,1.557-9.38357,3.39762-4.14816,1.79248-9.37518,1.07383-13.46743,2.81484-3.8154,3.15434-9.46464,4.486-14.148,2.48767-1.25838-1.434-2.9144-3.17055-4.89481-2.71584-3.11238.30872-3.76284,5.95072-7.61515,3.01-2.37747,1.25278-4.45743,2.99325-7.08437,3.62748l-3.95632.9793-1.48824,3.17278-1.35737,2.88364-.90828,1.93623-1.35457,2.88364-.90828,1.939-1.36017,2.88364-.91162,1.9379-1.35178,2.88588-10.89528,23.19549a5.26847,5.26847,0,0,1-3.55142,2.88588l-17.563,4.18508a1.10545,1.10545,0,0,1,.22483.2651l11.6218,24.13173V214.38806a1.09333,1.09333,0,0,1,1.22593-1.0906l6.307.74383a1.09226,1.09226,0,0,1,.96867,1.0878v39.84856a1.09453,1.09453,0,0,1-1.03354,1.09282l-7.03124.41946a1.09618,1.09618,0,0,1-1.04025-.59618L132.33857,229.082v25.54a1.1018,1.1018,0,0,1-.783,1.05312,1.06273,1.06273,0,0,1-.462.03635l-6.30642-.86407a1.09619,1.09619,0,0,1-.94854-1.0906V214.64532l-7.36347,1.75558,5.83327,36.95988a.87942.87942,0,0,1-1.14093.96809l-7.0676-2.3003a.86912.86912,0,0,1-.594-.69855l-1.33332-8.37519-9.24933-3.01452-1.74328,6.89758a.906.906,0,0,1-.42673.55257.89478.89478,0,0,1-.69519.06655l-6.76223-2.19572a.87249.87249,0,0,1-.57942-1.05145l6.0458-23.58754L92.905,222.02049a1.98543,1.98543,0,0,1-2.38483-1.482q-.017-.07274-.02845-.14656l-3.59952-23.62055a1.97593,1.97593,0,0,1,1.657-2.25007l.02638-.00382,59.043-8.12855a5.25718,5.25718,0,0,0,4.01-2.89315l3.74157-7.59778,1.40883-2.85791.94462-1.91944,1.4049-2.86016.94686-1.91552,1.40379-2.85846.37863-.7651c-2.74662-.17338-6.77844,1.90154-8.831,2.36239-3.11853.94518-7.83829-.65044-8.9753,3.4636a7.24749,7.24749,0,0,1-6.97979.70023c-2.5408-3.8993-6.977-.64988-9.91488-.60011-4.67725.71141-8.39477-3.189-12.75714-.962-5.64144,3.39986-12.3757-2.95746-17.124,2.40882-3.02569.2293-5.86515-1.20414-9.11735-.97761-4.76728-.01454-8.88134,1.48488-13.32312,2.28074-5.01839,3.30253-11.916,1.708-17.6978,1.28186-2.90936,1.17448-6.51224.84842-9.66879.92951v31.70827c0,1.87359-.96756,2.39818-2.47649.2254l-6.02566-8.65763V174.14463c-1.96865-1.02123-3.62412,1.49719-5.44736,2.27738-1.82325.86409-3.425-.63423-4.19515-2.12974a2.25528,2.25528,0,0,0-1.354-1.92,9.94831,9.94831,0,0,0-4.03239.948q-.90505-3.3207-1.6096-6.6912c1.212-.76173,2.69012-1.788,2.26507-3.15433-.80369-1.65826-2.99605-1.5-3.55925-3.49829.23825-1.98543.82046-4.58887,3.18229-5.05922,1.75054-1.65715,1.52571-4.99212.98433-7.284-1.58164-2.066-3.72144-3.74494-2.85455-6.66828,0-.78467-.80145-1.74383.0067-2.46138,1.91274-.77964,3.81148,1.02627,5.16215,2.31149,1.26788.26006,1.59618-1.18959,2.12973-1.90267a1.86544,1.86544,0,0,0-1.33779-2.45747,1.356,1.356,0,0,1-1.717-1.19965c.31991-1.33668.76454-2.6068,2.29192-2.97983a5.19847,5.19847,0,0,1,4.5872.94351c1.57717,1.43064,1.4133,3.72759,3.00892,4.92613,2.05087-1.89987.4888-5.79077,2.8786-7.60786,3.40824-1.5,6.72085-4.03632,10.85726-3.38923,1.11576,2.151.36746,6.123,3.93173,6.28294.9765-.86353,1.05424-3.09393,2.88028-2.21306,1.59952.65156,1.49719,3.4155,3.39816,3.02457,1.92056-3.5626-1.72313-6.50665-1.25557-9.90594,2.5559-1.67447,5.94624-.231,7.76222,1.75558.81319,1.65993-2.3775,2.604-.17227,3.97311,3.18062-1.19126,4.60677,2.46753,7.41044,1.75389,1.80423-3.31821,5.68337-3.71416,8.92719-2.83162,4.76954-.06376,7.53572,7.08046,12.52,4.24939,2.71808-1.8266,7.99935.71308,8.8254-3.63363a3.86786,3.86786,0,0,1,2.63923-4.17558c2.68062-.81766,5.20352,4.74436,7.44176.55258,4.17221,1.67616,9.09274,1.60736,13.68329,2.34224,7.062,3.74269,16.34994,3.21585,24.32133,3.46305,6.92946,3.68173,16.78114-1.56766,24.71283-.3076l3.70968-7.54018L149.873,57.00327v62.23481a1.97983,1.97983,0,0,1-1.97482,1.97592H117.67928a1.97426,1.97426,0,0,1-1.69461-.95859L96.14484,87.16572v32.07236a1.97646,1.97646,0,0,1-1.97425,1.97592H67.23185a1.97443,1.97443,0,0,1-1.97649-1.97648V47.47711C36.94918,70.1083,18.927,104.17673,18.927,142.29487c0,68.13013,57.5553,123.36,128.56628,123.36s128.564-55.23038,128.564-123.36c0-2.632-.113-5.2382-.28357-7.82877ZM72.356,200.6533c0,1.48544-.92616,2.71808-2.82043,1.01005l-4.47423-4.02288a3.16769,3.16769,0,0,1-1.20581-2.61407v-1.7209a3.34192,3.34192,0,0,0-1.02292-2.46529l-2.38364-2.142c-1.46474-1.321-1.79248.50895-1.79248.50895v1.26228a4.67228,4.67228,0,0,0,.83725,2.53968l9.3556,12.17157a16.862,16.862,0,0,1,3.50666,9.74877v7.30137c0,6.359-2.66887,9.0385-5.75608,6.28517L53.887,217.06588a11.633,11.633,0,0,1-3.73094-7.54466V202.896q0-3.24493,1.26452-2.02795l5.55252,5.07433a4.83973,4.83973,0,0,1,1.68343,2.88084v1.4642c0,1.17616-.08669,2.53633.77237,3.19516l2.40211,2.05256c.88534.797,2.02514.915,2.02514-.37807v-1.60792a3.9935,3.9935,0,0,0-.863-2.61184L51.88091,196.42574a7.14707,7.14707,0,0,1-1.72426-4.774V180.23016c0-2.74717,3.31093-6.501,8.06367-2.22033l12.27616,11.04965a6.22946,6.22946,0,0,1,1.85961,4.72981ZM91.777,242.84971a1.10007,1.10007,0,0,1-1.65882.94294L76.54391,235.7424a1.1018,1.1018,0,0,1-.5369-.94742V195.08791a1.09792,1.09792,0,0,1,1.65715-.94238l6.30362,3.73766a1.09622,1.09622,0,0,1,.538.94239v33.56786l6.73426,3.98822a1.10736,1.10736,0,0,1,.5369.94909Zm95.24953,1.76341c0,1.08947,0,6.20688-8.50216,7.7225l-17.22688,3.07883a1.10095,1.10095,0,0,1-1.29193-1.07995v-39.645a1.09759,1.09759,0,0,1,.88478-1.07941l17.634-3.51226c8.50216-1.69125,8.50216,3.401,8.50216,3.401Zm-14.4098-57.5514V177.03834c0-3.37244,8.09106-6.10619,18.07252-6.10619s18.07362,2.73431,18.07362,6.10563v10.02338c0,3.373-8.09274,6.1034-18.07362,6.1034s-18.07252-2.73039-18.07252-6.1034m36.67968,17.76826a.87806.87806,0,0,1-.49329.78745l-8.17105,3.9994a.86687.86687,0,0,0-.48824.78859V218.478a.87807.87807,0,0,0,.83.87584.86743.86743,0,0,0,.43008-.08892l6.62521-3.241a.88032.88032,0,0,1,1.2679.78971v5.67164a.87158.87158,0,0,1-.52071.79976L200.66,226.94159a.86687.86687,0,0,0-.5162.80145v7.55472a.88355.88355,0,0,0,.3999.73546.86127.86127,0,0,0,.83666.06151l6.67666-3.00668a.88656.88656,0,0,1,1.23932.80592v5.63864a.875.875,0,0,1-.52012.79977l-15.89467,7.15651a.877.877,0,0,1-1.23882-.80312V206.75612a.87353.87353,0,0,1,.4905-.78635l15.8958-7.78123a.88191.88191,0,0,1,1.26731.78969Zm25.94212,17.30406-4.94011,3.35287a.87527.87527,0,0,1-1.19014-.19462l-7.39869-9.67774-1.39427.96755v15.22075a.88627.88627,0,0,1-.38645.72819l-6.74544,4.576a.87414.87414,0,0,1-1.21553-.22526q-.016-.02332-.03055-.04767a.895.895,0,0,1-.12641-.45134V196.90111a.8749.8749,0,0,1,.38089-.72482l13.25377-9.14587c4.05084-2.79248,7.59609-2.27627,7.59609,3.26842v10.46521a13.758,13.758,0,0,1-4.97253,10.46354l7.36906,9.64868a.86682.86682,0,0,1,.04755,1.00391.89461.89461,0,0,1-.24721.25446Zm18.219-49.94632a4.477,4.477,0,0,1-.93456,3.1314l-4.95353,5.123c-.571.59-.925.212-.925-.42337v-3.11126c0-1.53521-.59843-1.53858-1.434-.68792l-.79249.816a5.06607,5.06607,0,0,0-1.15713,3.56819v2.16441c0,1.35289.38256,2.33219,1.79809,2.58051l3.94963.68792c1.87022.32663,4.44907,1.571,4.44907,4.59671a17.42042,17.42042,0,0,1-3.32379,11.31923l-8.095,10.68949c-3.35679,4.41829-6.6487,3.17669-6.6487-3.19348v-3.54974a2.91594,2.91594,0,0,1,.93511-2.40378l5.39872-5.55643c.925-.934,1.53689-.93511,1.53689.5302v1.75614c0,2.05983,1.60513.41386,2.30143-.27684a3.04843,3.04843,0,0,0,1.0822-2.76V196.1601c0-1.08837-.84564-1.50726-2.35679-1.84562L239.607,193.263c-3.64651-.7651-4.217-3.288-4.217-6.10509v-4.01841c0-3.0201.495-5.63752,2.689-8.10617l8.56535-9.44732c3.12467-3.45634,6.81313-3.96975,6.81313,1.40937Z" fill="#003087"/><path d="M110.82094,234.46334l-2.51-15.80241-3.50836,13.8427ZM223.459,196.9134l-2.76731,1.9077a.88367.88367,0,0,0-.37638.72371v7.0167a.87465.87465,0,0,0,1.37191.72315l1.90883-1.32158a5.04285,5.04285,0,0,0,1.85008-3.79974v-4.09056c0-1.17783-.88141-1.92392-1.9871-1.15994M174.8281,218.92323l-6.31816,1.25894v26.66861l6.70741-1.19854c3.307-.594,3.307-4.33328,3.307-4.33328V221.6251s0-3.43956-3.69628-2.70131M120.21964,29.67248a1.97984,1.97984,0,0,1,1.97872-1.97872h47.4469a1.97425,1.97425,0,0,1,1.79191,1.14652L198.77469,87.73,221.55018,41.4822A133.14178,133.14178,0,0,0,99.33731,27.90628l20.88233,40.334Zm90.26189,86.49571a39.52419,39.52419,0,0,0,14.992-8.68558,29.69072,29.69072,0,0,1,13.14976-1.48041l.40717.56934c-.30592,1.65993-2.38922,2.93062-3.82155,3.79358-3.0833.06151-6.81647-.47483-9.2046,1.88477-3.33331,3.47927-7.53346,5.83886-10.65144,9.24039.24441,1.104,1.50558,1.98432.79249,3.2343-2.37918,1.679-6.18281.41051-7.44733,3.80532-1.05258,6.51111-9.20853,1.46754-12.40144,5.67834-1.55648,2.04416-6.1778,4.52623-9.67049,5.45129l-3.34505,7.11792c3.88754,1.37639,9.25772,3.44349,12.82591,2.88475,8.32879-2.6672,11.53846-15.34211,21.27384-14.59045a15.80655,15.80655,0,0,0,14.12849-4.34c3.731-1.41665,4.02121,4.59894,7.458,3.9664.2981-2.19795.49049-4.91046,3.01114-5.84166,1.19406-.46923,3.11125-.30872,3.26729,1.27012-2.63364,3.72479,3.07882,4.9306,2.26845,8.42832.46028,1.49719,2.2013,1.49719,3.40711,1.12192,1.991-3.80532,6.1157-4.13307,9.8981-4.34558,2.96474-4.3428,9.987-.29027,11.61454-6.39255l2.741-.925C271.3008,95.792,254.51127,67.35773,229.87453,47.599l-36.35362,77.38451c5.524-1.896,13.24537-4.1023,16.96066-8.81533" fill="#003087"/><path d="M151.62812,183.49633a5.25719,5.25719,0,0,1-4.00947,2.89314l-59.043,8.12855a1.97669,1.97669,0,0,0-1.68343,2.25445l3.59952,23.62a1.98412,1.98412,0,0,0,2.41272,1.62918l5.85844-1.39876,3.49045-13.6285a.87248.87248,0,0,1,1.05932-.63268l.00051.00013,11.4775,2.807a.86689.86689,0,0,1,.656.712l1.028,6.52062,7.36346-1.75614v-2.95746a1.09061,1.09061,0,0,1,1.22819-1.08947l9.1442,1.0822a1.0167,1.0167,0,0,1,.63478.344l17.56413-4.18618a5.2729,5.2729,0,0,0,3.55085-2.88532L166.85559,181.757l-11.48534-5.85844Zm5.15094-10.45682,11.42772,5.83159.91163-1.93789-11.39529-5.81258Zm16.87119-5.74825-11.22358-5.727-.56879,1.15881-.37807.7651,11.26162,5.73987Zm-14.52165.97034,11.35,5.78853.90882-1.939-11.312-5.76559Zm39.64554-80.53045-27.337-58.8903a1.97981,1.97981,0,0,0-1.79191-1.14652H122.19891a1.97823,1.97823,0,0,0-1.97929,1.97872V68.24087L99.33729,27.90741A129.708,129.708,0,0,0,65.25545,47.47767v71.761a1.97441,1.97441,0,0,0,1.97649,1.97593H94.17068a1.97594,1.97594,0,0,0,1.97425-1.97593V87.16628L115.98476,120.256a1.97429,1.97429,0,0,0,1.69405.9586h30.21946a1.977,1.977,0,0,0,1.97425-1.97593V57.00385l31.07685,66.9344-3.71023,7.53962-13.40646,27.22732L175.007,164.407l1.48825-3.17279,6.78572-14.45678,3.345-7.11792,6.89478-14.67546,36.35362-77.38562c-2.6834-2.151-5.46358-4.17892-8.32428-6.11682Zm-8.0855,95.41115c9.982,0,18.07362-2.73318,18.07362-6.10508s-8.09165-6.10564-18.07362-6.10564-18.07307,2.73375-18.07307,6.10564,8.09164,6.10508,18.07307,6.10508" fill="#fff"/></svg>