<svg width="124" height="40" viewBox="0 0 124 40" fill="none" xmlns="http://www.w3.org/2000/svg">
<g clip-path="url(#clip0_8_1850)">
<path d="M11.259 12.3213C10.9441 12.3213 9.54781 12.3194 9.1635 12.3213C8.96329 12.3225 8.83335 12.1463 8.70891 11.9735C7.75107 10.6447 6.79834 9.3116 5.77337 8.03226C5.14685 7.25028 3.19074 4.55145 2.5968 3.72983C2.54027 3.65132 2.41701 3.69254 2.4174 3.78911C2.42015 4.43565 2.48963 5.60311 2.49159 5.73423C2.50612 6.86205 2.51475 7.99025 2.52928 9.11807C2.5336 9.46902 2.54105 10.9034 2.53203 11.1704C2.52064 11.5032 2.51161 11.8361 2.5018 12.1812C2.50023 12.2428 2.45705 12.2974 2.39659 12.31C2.36166 12.317 2.32868 12.3217 2.29688 12.3217C1.67821 12.3198 1.06582 12.3276 0.446762 12.3217C0.363147 12.3209 0.278748 12.3253 0.196311 12.3131C0.106415 12.2997 0.0361473 12.2334 0.0282962 12.1494C0.0145567 12.0014 0.00906087 11.8483 0.0322218 11.7027C0.0934607 11.3203 0.0895351 5.42058 0.0907128 3.98264C0.0911053 3.56574 0.0396803 3.14885 0.0275111 2.73117C0.0106311 2.1231 0.00631297 1.51502 3.20574e-05 0.906953C-0.000753057 0.831582 0.0129864 0.757389 0.0298664 0.683981C0.0793286 0.469644 -0.0152777 0.231362 0.215153 0.261589C0.984958 0.261589 1.71786 0.259234 2.51044 0.261589C2.78326 0.233325 2.90456 0.238036 3.07375 0.465719C3.28338 0.747182 4.4112 2.19376 4.62632 2.53881C5.30584 3.62855 7.92969 7.32134 8.46082 7.96435C8.58487 8.1147 8.69517 8.47035 8.90323 8.57281C8.94877 8.30037 8.90127 6.71837 8.89027 6.26693C8.87379 5.5984 8.84709 4.56166 8.84081 3.89314C8.83532 3.29174 8.87104 1.07575 8.86358 0.641584C8.86201 0.543445 8.86319 0.444913 8.86319 0.328324C8.92246 0.305163 8.98213 0.261981 9.04141 0.261589C9.67696 0.257271 10.3125 0.256878 10.9481 0.261982C11.14 0.263552 11.2205 0.327539 11.2649 0.517536C11.2947 0.64551 11.2154 3.02637 11.2327 4.01287C11.2456 4.74812 11.2472 5.48378 11.2539 6.21904C11.2594 6.86283 11.2574 9.84155 11.3061 10.474C11.3469 11.0059 11.3202 11.6375 11.3186 12.1726C11.3186 12.2177 11.2837 12.2625 11.259 12.3213Z" fill="white"/>
<path d="M15.7616 7.15766C15.6698 7.61538 15.7247 9.46275 15.8507 10.0649C15.8794 10.0791 15.9077 10.1042 15.9371 10.105C16.922 10.136 17.8131 10.1148 18.8 10.0948C19.6688 10.0771 20.4464 10.0932 21.3155 10.0936C21.9004 10.0936 22.4905 10.1866 23.073 10.1097C23.2489 10.0865 23.3329 10.1584 23.3415 10.3221C23.3662 10.7861 23.3246 10.9855 23.3435 11.4499C23.3466 11.5307 23.3392 11.6622 23.3274 11.7423C23.2822 12.0485 23.4605 12.3037 23.1554 12.3068C22.7209 12.3111 15.3428 12.2974 14.675 12.3147C14.2762 12.3249 13.8766 12.31 13.5268 12.3068C13.3615 12.1985 13.3659 12.0776 13.3655 11.9614C13.3643 11.4597 13.3765 10.9576 13.3623 10.4567C13.3313 9.33792 13.2834 8.13552 13.2504 7.01673C13.2391 6.63359 13.2528 6.24928 13.2559 5.86575C13.2563 5.79902 13.2634 5.73228 13.2634 5.66555C13.2642 4.66256 13.2712 3.65958 13.2622 2.65699C13.2563 2.00534 13.2253 1.35448 13.2096 0.702838C13.2022 0.388792 13.3521 0.258464 13.6717 0.249042C14.2063 0.23334 14.7414 0.23648 15.2764 0.236873C16.5467 0.23805 21.038 0.261604 22.0237 0.276914C22.3079 0.281232 22.4653 0.243154 22.7491 0.247864C22.8288 0.249042 22.9831 0.239228 23.1127 0.240013C23.1916 0.240406 23.2571 0.300467 23.265 0.378979C23.2917 0.64631 23.2563 1.51739 23.2873 1.68266C23.3415 1.97001 23.2873 2.14666 23.2088 2.39476C23.0585 2.52038 22.903 2.49486 22.7546 2.49447C22.2031 2.49251 21.6516 2.47131 21.1004 2.48466C19.7622 2.51724 18.4279 2.47837 17.0904 2.50114C16.69 2.50821 16.1974 2.51763 15.7958 2.52627C15.7652 2.57926 15.7204 2.62048 15.7204 2.66209C15.7161 3.39539 15.7173 4.22094 15.7173 4.92597C15.8095 5.05237 15.9159 5.03196 16.0125 5.03C16.8482 5.01429 20.7173 5.07043 21.7689 5.00801C21.8345 5.00409 21.9036 5.00958 21.9668 5.02646C22.0885 5.05865 22.1713 5.13756 22.196 5.26514C22.2055 5.31381 22.2102 5.36445 22.2106 5.41431C22.2117 5.87753 22.2125 5.97488 22.2106 6.43614C22.2102 6.49384 22.207 6.55312 22.2004 6.61043C22.1642 6.9076 22.0739 7.10034 21.8082 7.1027C21.0227 7.10976 20.2368 7.11604 19.4513 7.11997C18.3478 7.12547 17.2447 7.12743 16.1412 7.13332C16.0121 7.13292 15.8825 7.14941 15.7616 7.15766Z" fill="white"/>
<path d="M24.0348 0.271804C24.1584 0.261598 26.3685 0.274159 26.4062 0.271804C26.652 0.257279 26.7721 0.376617 26.869 0.612544C27.0276 0.99882 27.2781 1.68854 27.4441 2.07168C28.3686 4.20209 30.2474 9.09335 30.3424 9.28884C30.4464 9.31397 31.2484 7.0811 31.3144 6.90995C32.1737 4.68336 33.8157 0.398993 34.0026 0.271804C34.4336 0.271804 34.4788 0.29889 34.8748 0.271804C35.2721 0.244718 35.8558 0.271804 36.2696 0.271804C36.3124 0.336183 39.9043 9.34812 39.9997 9.52673C40.2564 9.04703 43.124 0.866921 43.303 0.384076C43.3282 0.316163 43.3929 0.271412 43.4656 0.271412C43.9413 0.270234 45.2568 0.265523 45.6521 0.271412C45.7134 0.272589 45.7828 0.272589 45.8507 0.272589C45.9756 0.272197 46.0659 0.391141 46.0321 0.511264C45.87 1.0844 43.8833 6.27479 43.5245 7.08424C43.0773 8.09233 41.8467 11.0506 41.6496 11.5292C41.586 11.6834 41.5318 11.8416 41.4671 11.9955C41.4219 12.1027 41.3976 12.2346 41.2826 12.3316H38.9904C38.8668 12.3316 38.751 12.264 38.6972 12.1529C38.6968 12.1518 38.6964 12.151 38.6956 12.1498C38.4432 11.6226 38.1798 11.0993 37.9541 10.5603C37.4767 9.41996 37.0202 8.27094 36.5566 7.12507C36.5063 7.00141 35.3349 3.98343 35.1226 3.56968C35.1226 3.56968 33.9743 6.54173 33.7572 7.12036C33.3345 8.24778 32.0276 11.3576 31.8078 11.917C31.7634 12.0297 31.743 12.0819 31.7195 12.1427C31.6751 12.2562 31.5656 12.3312 31.4439 12.3312C31.0812 12.3312 29.434 12.3312 29.1667 12.3312C29.0026 12.3312 29.0214 12.3127 28.9488 12.158C28.9355 12.1274 28.9194 12.098 28.906 12.0674C28.6257 11.4244 28.3419 10.7829 28.0663 10.1379C27.3515 8.4629 26.6386 6.78747 25.9281 5.11086C25.6478 4.4494 25.3797 3.78284 25.097 3.12255C24.8933 2.64678 24.6746 2.17728 24.4623 1.70464C24.3802 1.52171 24.1396 1.02512 24.056 0.842975C23.9822 0.685167 23.8695 0.271804 24.0348 0.271804Z" fill="white"/>
<path d="M55.4452 6.07536C55.4872 6.48323 55.4268 7.04891 55.4758 7.42851C55.5571 8.05582 55.4743 8.75535 55.8299 9.30375C56.321 10.061 57.3943 10.322 58.1845 10.2098C58.6112 10.1489 58.8934 9.94755 59.1321 9.57423C59.3233 9.27471 59.4422 8.95006 59.476 8.59087C59.5663 7.62439 59.5926 6.28813 59.5612 5.31891C59.5435 4.76815 59.5188 1.71131 59.518 0.908526C59.518 0.738549 59.5282 0.497911 59.5349 0.293389C59.5368 0.230973 59.5887 0.180725 59.6511 0.182688C59.7088 0.184651 59.7641 0.193287 59.8104 0.192502C60.2438 0.184651 60.5744 0.192502 61.0258 0.192502C61.3218 0.192502 61.4886 0.187791 61.7057 0.192502C61.8294 0.19525 61.8969 0.238824 61.9275 0.355413C61.9444 0.4194 61.9562 0.48692 61.9566 0.552869C61.9628 1.50364 62.1199 2.44814 62.0457 3.40205C61.997 4.02818 62.1258 7.52586 62.0241 8.64426C61.9248 9.7336 61.5679 11.1441 60.5661 11.7411C59.4308 12.4179 57.8983 12.7233 56.5648 12.4006C55.4825 12.1388 54.3351 11.4962 53.7933 10.4967C53.1535 9.31632 53.1762 7.93726 53.2175 6.62455C53.2308 6.19509 53.2716 6.07065 53.7125 6.05613C53.9802 6.0471 54.2436 6.02826 54.5094 5.98272C54.8383 5.92658 55.0825 5.93601 55.4452 6.07536Z" fill="white"/>
<path d="M66.4223 7.15766C66.3305 7.61538 66.3854 9.46275 66.5114 10.0649C66.5401 10.0791 66.5684 10.1042 66.5978 10.105C67.5827 10.136 68.4738 10.1148 69.4607 10.0948C70.3295 10.0771 71.1071 10.0932 71.9762 10.0936C72.5611 10.0936 73.1512 10.1866 73.7337 10.1097C73.9096 10.0865 73.9936 10.1584 74.0022 10.3221C74.0269 10.7861 73.9853 10.9855 74.0042 11.4499C74.0073 11.5307 73.9999 11.6622 73.9881 11.7423C73.9429 12.0485 74.1212 12.3037 73.8161 12.3068C73.3816 12.3111 66.0035 12.2974 65.3357 12.3147C64.9369 12.3249 64.5373 12.31 64.1875 12.3068C64.0222 12.1985 64.0266 12.0776 64.0262 11.9614C64.025 11.4597 64.0372 10.9576 64.023 10.4567C63.992 9.33792 63.9441 8.13552 63.9111 7.01673C63.8998 6.63359 63.9135 6.24928 63.9166 5.86575C63.917 5.79902 63.9241 5.73228 63.9241 5.66555C63.9249 4.66256 63.932 3.65958 63.9229 2.65699C63.917 2.00534 63.886 1.35448 63.8703 0.702838C63.8625 0.388792 64.0128 0.258464 64.3324 0.249042C64.867 0.23334 65.4025 0.23648 65.9371 0.236873C67.2074 0.23805 71.6987 0.261604 72.6844 0.276914C72.9686 0.281232 73.126 0.243154 73.4098 0.247864C73.4895 0.249042 73.6438 0.239228 73.7734 0.240013C73.8523 0.240406 73.9178 0.300467 73.9257 0.378979C73.9524 0.64631 73.917 1.51739 73.948 1.68266C74.0022 1.97001 73.948 2.14666 73.8695 2.39476C73.7192 2.52038 73.5637 2.49486 73.4153 2.49447C72.8638 2.49251 72.3123 2.47131 71.7611 2.48466C70.4229 2.51724 69.0886 2.47837 67.7511 2.50114C67.3507 2.50821 66.8581 2.51763 66.4565 2.52627C66.4259 2.57926 66.3811 2.62048 66.3811 2.66209C66.3768 3.39539 66.378 4.22094 66.378 4.92597C66.4702 5.05237 66.5766 5.03196 66.6732 5.03C67.5089 5.01429 71.378 5.07043 72.4296 5.00801C72.4952 5.00409 72.5643 5.00958 72.6275 5.02646C72.7492 5.05865 72.832 5.13756 72.8567 5.26514C72.8662 5.31381 72.8709 5.36445 72.8713 5.41431C72.8724 5.87753 72.8732 5.97488 72.8713 6.43614C72.8709 6.49384 72.8677 6.55312 72.8611 6.61043C72.8249 6.9076 72.7346 7.10034 72.4689 7.1027C71.6834 7.10976 70.8975 7.11604 70.112 7.11997C69.0085 7.12547 67.9054 7.12743 66.8019 7.13332C66.6728 7.13292 66.5432 7.14941 66.4223 7.15766Z" fill="white"/>
<path d="M87.8265 12.3084C87.5765 12.3049 87.2122 12.3186 86.9621 12.3084C86.4322 12.3084 86.3572 12.3292 85.8578 12.3084C85.786 12.3053 85.6678 12.3053 85.596 12.308C85.3899 12.3155 85.2215 12.2436 85.1006 12.0784C84.8447 11.7282 84.5805 11.2921 84.3241 10.9423C83.6733 10.0543 83.1158 9.16559 82.4681 8.27527C82.2734 8.00794 82.083 7.73747 81.8938 7.4666C81.3481 7.45365 80.8272 7.42931 80.375 7.43402C80.1858 7.43599 78.9221 7.4407 78.3164 7.44227C78.1508 7.44266 78.0169 7.57613 78.0165 7.74179C78.0142 8.6376 78.0385 11.2359 78.0554 11.473C78.0687 11.6564 78.0825 11.8401 78.0809 12.0238C78.0789 12.2593 78.0832 12.308 77.9113 12.308C77.781 12.3296 76.1589 12.2868 75.9729 12.308C75.6804 12.3418 75.5748 12.2342 75.576 11.9418C75.5787 11.1394 75.5705 5.34758 75.5834 4.42821C75.5897 3.99287 75.5646 3.56066 75.5273 3.12688C75.4873 2.6621 75.5089 2.19181 75.503 1.72428C75.4986 1.35684 75.4888 0.989018 75.4908 0.621585C75.492 0.373881 75.5536 0.239234 75.8021 0.24473C75.987 0.249048 77.2981 0.249048 77.896 0.249048C78.6281 0.291837 82.2915 0.249048 83.5131 0.249048C84.3426 0.249048 85.2243 0.45357 85.883 0.979989C86.6233 1.57157 86.9115 2.62127 87.0182 3.52808C87.105 4.26373 86.913 4.87808 86.6559 5.55367C86.3018 6.48521 85.5846 6.97355 84.723 7.2244C85.0731 7.76338 85.4602 8.27567 85.85 8.78874C86.3034 9.38542 86.6084 10.0253 87.0324 10.6444C87.2962 11.0295 87.5639 11.4118 87.8293 11.7957C87.8858 11.8778 87.9486 11.9563 87.9957 12.0434C88.0703 12.1824 87.9808 12.3108 87.8265 12.3084ZM82.2569 5.22942C82.7064 5.21607 83.1539 5.29419 83.6022 5.21921C84.1824 5.12186 84.5188 4.87848 84.7151 4.35598C84.8223 4.07138 84.796 3.51983 84.6527 3.25878C84.4018 2.80263 84.0658 2.63266 83.5182 2.55061C83.3537 2.52588 83.1896 2.48741 83.0244 2.48034C82.6243 2.46307 82.2235 2.45326 81.8227 2.45365C80.8712 2.45443 79.9196 2.46307 78.9681 2.46896C78.7345 2.47053 78.5005 2.46896 78.267 2.47956C78.1727 2.48388 78.0797 2.51803 77.9682 2.54276C77.9655 3.46095 77.9839 4.26648 77.9949 5.19527C78.1064 5.21372 78.1551 5.22746 78.2042 5.22903C78.7376 5.2463 79.2711 5.26318 79.8046 5.27731C79.9212 5.28045 80.0382 5.27614 80.1552 5.27142C80.4382 5.25926 80.7212 5.23806 81.0043 5.23374C81.4219 5.22707 81.8396 5.24159 82.2569 5.22942Z" fill="white"/>
<path d="M90.4605 8.5795C90.5241 8.61993 90.5869 8.6482 90.6352 8.69256C91.9809 9.92048 94.0285 10.4795 95.7891 10.167C96.2272 10.0893 96.7159 9.90909 97.0971 9.68533C97.3566 9.53302 97.527 9.30809 97.6459 9.04115C97.8677 8.5426 97.3797 7.73707 96.9142 7.56984C96.2672 7.33745 95.4727 7.18082 94.7739 7.14785C94.0434 7.11369 93.3074 7.06109 92.5807 6.96334C91.9091 6.87306 91.2496 6.7125 90.6423 6.41298C89.5894 5.89402 89.0363 4.91694 88.9759 3.76636C88.9186 2.67348 89.4395 1.79337 90.2913 1.18922C90.954 0.718937 91.6351 0.372701 92.4304 0.202332C94.3264 -0.203573 96.7434 -0.0477274 98.3937 1.12052C98.7792 1.39335 99.0689 1.67167 99.4521 1.94764C99.5557 2.02223 99.6389 2.11134 99.688 2.23421C99.7072 2.28288 99.7013 2.33824 99.6723 2.38181C99.6495 2.41596 99.6256 2.44972 99.5949 2.47485C99.4654 2.58241 98.7965 3.22384 98.4208 3.51002C98.1236 3.73652 98.0518 3.74437 97.7484 3.54496C97.4382 3.34083 97.0849 3.04562 96.7689 2.85131C96.3222 2.5773 95.6403 2.36454 95.1163 2.25894C94.5372 2.14235 93.8432 2.20437 93.2677 2.31115C92.7794 2.40222 92.0845 2.6566 91.7383 3.05465C91.383 3.4633 91.3426 4.15028 91.8851 4.45412C92.4626 4.77759 93.159 4.80389 93.8032 4.85374C95.4558 4.98289 97.0151 5.02568 98.5166 5.82846C99.686 6.4538 100.236 7.63422 100.144 8.93673C100.122 9.24763 100.035 9.53499 99.8803 9.79957C99.5486 10.3684 99.3233 10.8771 98.8161 11.3023C98.7034 11.3965 98.5821 11.4805 98.453 11.5504C97.9639 11.8146 97.4653 12.0611 96.935 12.2346C96.8211 12.2719 96.6311 12.3202 96.5134 12.3414C95.7318 12.4819 94.9443 12.5659 94.1498 12.511C92.3177 12.3846 90.8649 11.8067 89.2974 10.9195C89.1066 10.8116 88.8185 10.5282 88.6359 10.4076C88.3847 10.242 88.3784 10.1042 88.6006 9.87887C88.6952 9.78308 88.7937 9.68808 88.9033 9.61036C89.3567 9.28767 89.814 8.97049 90.2721 8.65448C90.3255 8.61915 90.3938 8.6058 90.4605 8.5795Z" fill="white"/>
<path d="M104.116 7.15766C104.024 7.61538 104.079 9.46275 104.205 10.0649C104.234 10.0791 104.262 10.1042 104.291 10.105C105.276 10.136 106.167 10.1148 107.154 10.0948C108.023 10.0771 108.801 10.0932 109.67 10.0936C110.255 10.0936 110.845 10.1866 111.427 10.1097C111.603 10.0865 111.687 10.1584 111.696 10.3221C111.72 10.7861 111.679 10.9855 111.698 11.4499C111.701 11.5307 111.693 11.6622 111.681 11.7423C111.636 12.0485 111.815 12.3037 111.51 12.3068C111.075 12.3111 103.697 12.2974 103.029 12.3147C102.63 12.3249 102.231 12.31 101.881 12.3068C101.716 12.1985 101.72 12.0776 101.72 11.9614C101.718 11.4597 101.731 10.9576 101.716 10.4567C101.685 9.33792 101.638 8.13552 101.605 7.01673C101.593 6.63359 101.607 6.24928 101.61 5.86575C101.61 5.79902 101.618 5.73228 101.618 5.66555C101.618 4.66256 101.625 3.65958 101.616 2.65699C101.61 2.00534 101.579 1.35448 101.564 0.702838C101.556 0.388792 101.706 0.258464 102.026 0.249042C102.56 0.23334 103.096 0.23648 103.631 0.236873C104.901 0.23805 109.392 0.261604 110.378 0.276914C110.662 0.281232 110.819 0.243154 111.103 0.247864C111.183 0.249042 111.337 0.239228 111.467 0.240013C111.546 0.240406 111.611 0.300467 111.619 0.378979C111.646 0.64631 111.61 1.51739 111.641 1.68266C111.696 1.97001 111.641 2.14666 111.563 2.39476C111.413 2.52038 111.257 2.49486 111.109 2.49447C110.557 2.49251 110.006 2.47131 109.455 2.48466C108.116 2.51724 106.782 2.47837 105.445 2.50114C105.044 2.50821 104.551 2.51763 104.15 2.52627C104.119 2.57926 104.075 2.62048 104.075 2.66209C104.07 3.39539 104.071 4.22094 104.071 4.92597C104.164 5.05237 104.27 5.03196 104.367 5.03C105.202 5.01429 109.071 5.07043 110.123 5.00801C110.189 5.00409 110.258 5.00958 110.321 5.02646C110.443 5.05865 110.525 5.13756 110.55 5.26514C110.56 5.31381 110.564 5.36445 110.565 5.41431C110.566 5.87753 110.567 5.97488 110.565 6.43614C110.564 6.49384 110.561 6.55312 110.554 6.61043C110.518 6.9076 110.428 7.10034 110.162 7.1027C109.377 7.10976 108.591 7.11604 107.805 7.11997C106.702 7.12547 105.599 7.12743 104.495 7.13332C104.366 7.13292 104.237 7.14941 104.116 7.15766Z" fill="white"/>
<path d="M112.335 0.266322C112.923 0.265537 114.653 0.262789 115.017 0.265537C115.057 0.26593 115.093 0.28595 115.115 0.319318C116.152 1.91035 117.257 3.5956 118.301 5.10027C118.463 5.09988 118.493 5.01195 118.535 4.94796C119.193 3.94144 121.527 0.266715 121.597 0.266715C122.273 0.266715 123.98 0.266715 124.125 0.266715C124.318 0.266715 124.418 0.293409 124.307 0.448469C124.268 0.502249 122.962 2.32254 122.552 2.99224C122.279 3.43897 121.979 3.86843 121.657 4.28218C120.922 5.23021 120.429 6.27834 119.759 7.26994C119.672 7.3983 119.624 7.53216 119.629 7.69154C119.657 8.40914 119.693 9.12712 119.711 9.84511C119.727 10.4799 119.731 11.3576 119.738 11.9928C119.739 12.0419 119.735 12.1628 119.723 12.2111C119.7 12.3088 119.695 12.3131 119.594 12.3225C119.561 12.3257 119.436 12.3269 119.402 12.3269C118.884 12.3257 118.356 12.3253 117.837 12.3221C117.721 12.3214 117.571 12.3269 117.431 12.3269C117.342 12.3147 117.332 12.2228 117.321 12.1369C117.299 11.9555 117.284 11.7714 117.285 11.5888C117.291 10.4524 117.208 8.88923 117.225 7.75278C117.228 7.55061 117.168 7.35276 117.053 7.18632C116.599 6.528 114.065 2.98674 113.778 2.63894C113.234 1.97983 112.766 1.26774 112.3 0.554459C112.293 0.543075 112.264 0.497539 112.234 0.444936C112.188 0.365247 112.244 0.266322 112.335 0.266322Z" fill="white"/>
<path d="M0.150573 39.6904C0.113255 39.4911 0.0475877 39.3025 0.046095 39.1132C0.0438559 38.6867 0.0751853 38.2594 0.0886197 37.8321C0.104293 37.3392 0.150577 36.8439 0.122216 36.354C-0.0158603 33.9548 0.0154913 31.2489 0.0102668 28.8474C0.00802768 27.8275 -0.00615475 26.8075 0.0132505 25.7884C0.0386267 24.4408 0.0826576 23.0933 0.134903 21.7465C0.189387 20.3309 0.179685 18.9177 0.0289211 17.5099C-0.103184 16.2782 0.205806 16.1693 1.19324 16.1585C3.19422 16.1353 5.2788 16.1971 7.27978 16.1662C7.72312 16.1592 8.31051 16.1894 8.75384 16.1662C10.5436 16.1662 10.7795 16.1662 12.6155 16.1747C13.4402 16.2334 15.3882 16.4459 16.139 16.8338C17.4601 17.5168 18.6379 18.3946 19.6402 19.5204C19.7686 19.6649 19.8977 19.8155 19.9962 19.9824C20.5582 20.9359 21.1456 21.8701 21.5807 22.9016C22.1741 24.3087 22.4801 25.7714 22.545 27.2959C22.5592 27.6242 22.5532 27.9542 22.5741 28.2826C22.6801 29.9207 22.2905 31.4838 21.8845 33.0384C21.6755 33.8374 21.2867 34.5637 20.7896 35.2135C20.3754 35.7544 19.9313 36.2705 19.4969 36.7952C18.9737 37.4288 18.3318 38.2007 17.628 38.604C16.8026 39.0769 15.0456 39.8164 14.1246 39.9021C11.0981 40.1834 8.04406 39.7538 5.01235 39.9021C4.21972 39.9408 3.4159 39.8233 2.62327 39.8596C1.80452 39.8975 0.97903 39.9887 0.150573 39.6904ZM4.65261 20.9019C4.63768 21.2071 4.61156 21.4961 4.61006 21.7851C4.60335 23.4286 4.64142 24.8921 4.59216 26.5332C4.51603 29.0637 4.53467 32.2603 4.57348 34.7909C4.57647 34.9763 4.61902 35.1602 4.64514 35.3526C4.82501 35.3696 4.94891 35.3912 5.0728 35.392C6.46924 35.399 7.86568 35.5898 9.26286 35.5836C9.73829 35.5813 10.213 35.5404 10.6884 35.5064C11.3206 35.4608 11.952 35.4059 12.5834 35.3534C14.0567 35.2313 15.118 34.7468 16.1555 33.5105C17.575 31.8191 18.1251 29.8782 18.0303 27.6729C17.9616 26.0758 17.3691 24.4586 16.7847 23.373C16.2734 22.4241 15.4733 21.9698 14.612 21.4034C14.4829 21.3184 14.3179 21.279 14.1634 21.252C13.4454 21.1245 12.7282 20.9831 12.005 20.8927C10.0779 20.6516 8.1396 20.701 6.20354 20.701C5.69378 20.701 5.19745 20.7868 4.65261 20.9019Z" fill="white"/>
<path d="M30.1565 29.8142C29.9746 30.7177 30.0834 34.364 30.333 35.5526C30.3897 35.5804 30.4457 35.63 30.504 35.6316C32.4545 35.6928 34.2193 35.651 36.1737 35.6114C37.8941 35.5766 39.4333 35.6083 41.1553 35.6091C42.3137 35.6091 43.4821 35.7927 44.6358 35.6409C44.9833 35.5952 45.1504 35.737 45.1675 36.0601C45.2165 36.9759 45.1341 37.3695 45.1714 38.2861C45.1784 38.4457 45.1629 38.7053 45.1395 38.8634C45.0501 39.4677 45.4039 39.9714 44.799 39.9776C43.9385 39.9861 29.327 39.959 28.0046 39.9931C27.2148 40.0132 26.4234 39.9838 25.7307 39.9776C25.4026 39.7637 25.412 39.5251 25.4112 39.2957C25.4089 38.3055 25.433 37.3145 25.405 36.3258C25.3428 34.1176 25.2479 31.7443 25.1834 29.5361C25.1609 28.7798 25.1881 28.0213 25.1943 27.2643C25.1951 27.1326 25.2091 27.0009 25.2091 26.8691C25.2106 24.8895 25.2246 22.9098 25.2067 20.9309C25.1951 19.6447 25.1337 18.3601 25.1026 17.0738C25.087 16.454 25.3848 16.1968 26.0176 16.1782C27.0764 16.1472 28.1368 16.1534 29.1956 16.1541C31.7113 16.1565 40.6057 16.203 42.5578 16.2332C43.1206 16.2417 43.4324 16.1665 43.9952 16.1758C44.153 16.1782 44.4585 16.1588 44.7151 16.1603C44.8713 16.1611 45.0012 16.2797 45.0167 16.4346C45.0696 16.9623 44.9996 18.6816 45.0618 19.0078C45.1691 19.575 45.0618 19.9236 44.9063 20.4133C44.6086 20.6613 44.3007 20.6109 44.0069 20.6101C42.9146 20.6063 41.8223 20.5644 40.7309 20.5908C38.0807 20.6551 35.4382 20.5784 32.7896 20.6233C31.9966 20.6373 31.021 20.6558 30.2257 20.6729C30.1651 20.7775 30.0772 20.8588 30.0764 20.941C30.0679 22.3883 30.0702 24.0178 30.0702 25.4094C30.2529 25.6589 30.4636 25.6186 30.6548 25.6147C32.3099 25.5837 39.9721 25.6945 42.0548 25.5713C42.1846 25.5636 42.3214 25.5744 42.4466 25.6077C42.6876 25.6713 42.8516 25.827 42.9006 26.0788C42.9193 26.1749 42.9294 26.2748 42.9294 26.3732C42.9317 27.2875 42.9333 27.4797 42.9294 28.3901C42.9286 28.504 42.9224 28.621 42.9092 28.7341C42.8376 29.3207 42.6588 29.7011 42.1325 29.7058C40.5769 29.7197 39.0206 29.7321 37.465 29.7398C35.2804 29.7507 33.0951 29.7546 30.9098 29.7662C30.6525 29.7654 30.396 29.798 30.1565 29.8142Z" fill="white"/>
<path d="M56.5313 39.9929C56.4146 39.9852 56.3125 39.9131 56.2603 39.8069C55.6854 38.6243 55.0951 37.3542 54.686 36.1979C54.2461 34.9518 51.0713 27.9392 50.1648 25.571C50.0703 25.3253 49.9867 25.075 49.8807 24.834C49.0202 22.8749 48.1498 20.9197 47.2947 18.9583C47.0452 18.3856 46.689 17.2991 46.4756 16.7117C46.3628 16.4017 46.5163 16.1831 46.8318 16.1653C47.0598 16.1521 47.2893 16.156 47.518 16.1591C48.466 16.1715 49.774 16.1948 50.722 16.2002C51.8182 16.2064 51.7169 16.2296 52.0562 17.1286C52.5213 18.3608 53.0817 20.1091 53.5829 21.3258C55.1128 25.0401 56.4354 28.4042 58.2308 32.0008C58.359 32.2581 58.7467 33.6158 58.7467 33.6158C58.7467 33.6158 60.7325 28.1446 60.8676 27.8098C61.6052 25.9778 62.174 24.331 62.8779 22.4843C63.4168 21.0692 63.7123 19.6294 64.2197 18.2027C64.341 17.8625 64.6504 16.9999 64.7586 16.6559C64.8799 16.2723 65.1432 16.1808 65.507 16.1653C66.6484 16.1165 68.262 16.2343 69.4034 16.1707C69.4686 16.1669 69.8939 16.1661 69.9591 16.1653C70.5072 16.163 70.2409 16.7434 70.052 17.2456C69.715 18.1391 69.3489 19.0218 69.0188 19.9177C68.4945 21.3389 68.0094 22.7749 67.4713 24.1908C67.0622 25.2672 66.5947 26.3219 66.1533 27.3859C65.7879 28.2678 65.4087 29.1435 65.0595 30.0316C64.3011 31.962 62.1118 37.324 61.7626 38.0695C61.553 38.5158 61.3243 38.9552 61.1385 39.4117C60.9827 39.7945 60.8238 39.9449 60.4292 39.9735C60.2988 39.9828 60.1675 39.9867 60.037 39.9852C59.1873 39.9743 58.7536 40.0084 57.9053 39.9735C57.5983 39.9596 56.9658 40.02 56.5313 39.9929Z" fill="white"/>
<path d="M77.3905 16.1532C77.5787 16.1532 77.7134 16.431 77.7157 16.5226C77.7469 17.531 77.8422 18.665 77.7834 19.605C77.7425 20.2601 77.767 20.9207 77.7722 21.5782C77.7759 22.0726 77.8489 22.5733 77.7983 23.06C77.6695 24.2786 77.6881 25.4989 77.6911 26.7199C77.6956 28.5688 77.5884 30.2222 77.6174 32.0711C77.6353 33.192 77.7254 34.3105 77.7447 35.4314C77.7648 36.6198 77.7402 37.809 77.7328 38.9973C77.7328 39.0959 77.7283 39.1968 77.7112 39.2931C77.6502 39.6323 77.712 40.0165 77.3726 39.9995C76.394 39.9498 74.5709 39.9995 73.5655 39.9995C73.471 39.9948 73.3757 39.994 73.2812 39.9808C72.9873 39.9397 72.8199 39.7619 72.799 39.4677C72.7916 39.3692 72.799 39.2698 72.7983 39.1712C72.7946 37.0583 72.8786 25.9902 72.8719 22.7223C72.869 21.1047 72.8518 19.4863 72.8422 17.8686C72.8407 17.5713 72.8332 17.274 72.8451 16.9767C72.863 16.504 73.0811 16.2479 73.5231 16.178C73.6786 16.1532 73.8386 16.1563 73.9971 16.1555C74.7569 16.1532 75.8657 16.1516 76.6255 16.1555C76.8145 16.1563 77.2335 16.1532 77.3905 16.1532Z" fill="white"/>
<path d="M81.6462 16.5835C81.6513 16.3322 81.8512 16.1344 82.0851 16.1545C82.2154 16.1654 82.3335 16.1809 82.4551 16.1809C83.0403 16.1809 83.6262 16.2143 84.2121 16.2104C84.6908 16.2073 85.3383 16.1856 85.846 16.1662C86.0524 16.1584 86.2327 16.3151 86.2682 16.533C86.2754 16.5796 86.2812 16.6269 86.2812 16.6742C86.2921 17.4669 86.2472 18.6218 86.2573 19.4137C86.2725 20.5182 86.0364 34.9789 86.1443 35.5241C86.3493 35.549 88.2728 35.4885 89.0557 35.4962C89.4468 35.5001 94.7735 35.5722 97.8746 35.4861C98.4272 35.5172 99.2832 35.5265 99.8336 35.5877C99.9234 35.5978 100.012 35.635 100.099 35.67C100.321 35.7599 100.427 35.9461 100.405 36.2137C100.378 36.5417 100.324 36.8691 100.316 37.1971C100.301 37.7905 100.317 38.3846 100.312 38.9788C100.31 39.2083 100.301 39.4395 100.272 39.666C100.248 39.8498 100.111 39.9405 99.9524 39.9754C99.8633 39.9948 99.7684 39.984 99.6764 39.984C98.228 39.9878 96.7781 40.015 95.3297 39.9886C94.0043 39.9646 85.4853 39.9754 82.6384 39.9793C82.0496 39.9801 81.5796 39.4558 81.5991 38.826C81.6006 38.7926 81.6006 38.7624 81.6006 38.7352C81.5926 36.0609 81.5904 33.0801 81.5883 30.4058C81.5854 26.8069 81.5803 23.2073 81.5817 19.6084C81.581 18.7761 81.6259 17.5894 81.6462 16.5835Z" fill="white"/>
<path d="M105.56 32.4841C105.682 32.5611 105.803 32.6149 105.896 32.6993C108.492 35.0367 112.441 36.1007 115.837 35.5059C116.682 35.358 117.625 35.015 118.36 34.5891C118.86 34.2992 119.189 33.871 119.419 33.3629C119.846 32.4139 118.905 30.8806 118.007 30.5623C116.76 30.1199 115.227 29.8218 113.879 29.759C112.47 29.694 111.051 29.5939 109.649 29.4078C108.353 29.2359 107.081 28.9303 105.91 28.3602C103.879 27.3723 102.813 25.5125 102.696 23.3224C102.585 21.2421 103.59 19.5668 105.233 18.4168C106.511 17.5216 107.825 16.8626 109.359 16.5383C113.016 15.7656 117.678 16.0623 120.861 18.286C121.604 18.8054 122.163 19.3351 122.902 19.8604C123.102 20.0024 123.263 20.172 123.357 20.4059C123.395 20.4986 123.384 20.6039 123.327 20.6869C123.283 20.7519 123.237 20.8161 123.178 20.864C122.928 21.0687 121.638 22.2897 120.913 22.8344C120.34 23.2656 120.201 23.2805 119.616 22.9009C119.018 22.5124 118.337 21.9504 117.727 21.5806C116.866 21.059 115.55 20.654 114.539 20.453C113.423 20.2311 112.084 20.3491 110.974 20.5524C110.032 20.7257 108.692 21.2099 108.024 21.9676C107.339 22.7455 107.261 24.0531 108.307 24.6315C109.421 25.2472 110.764 25.2973 112.006 25.3922C115.194 25.638 118.201 25.7195 121.097 27.2476C123.353 28.4379 124.414 30.6848 124.236 33.1641C124.192 33.7559 124.025 34.3029 123.727 34.8065C123.088 35.8893 122.653 36.8577 121.675 37.6669C121.458 37.8463 121.224 38.0062 120.974 38.1392C120.031 38.6421 119.069 39.1113 118.047 39.4416C117.827 39.5126 117.461 39.6045 117.233 39.6448C115.726 39.9123 114.207 40.0722 112.675 39.9676C109.142 39.727 106.339 38.6271 103.316 36.9384C102.948 36.7329 102.392 36.1934 102.04 35.964C101.556 35.6487 101.544 35.3864 101.972 34.9575C102.155 34.7751 102.345 34.5943 102.556 34.4464C103.43 33.8321 104.312 33.2284 105.196 32.6269C105.3 32.5596 105.431 32.5342 105.56 32.4841Z" fill="white"/>
</g>
<defs>
<clipPath id="clip0_8_1850">
<rect width="124" height="40" fill="white"/>
</clipPath>
</defs>
</svg>
