<?xml version="1.0" encoding="UTF-8"?>
<svg id="Layer_1" data-name="Layer 1" xmlns="http://www.w3.org/2000/svg" viewBox="0 0 140.76 135.71">
  <defs>
    <style>
      .cls-1 {
        fill: #fff;
      }

      .cls-2 {
        fill: #c8102e;
      }

      .cls-3 {
        fill: #0033a0;
      }
    </style>
  </defs>
  <path class="cls-3" d="M94.8,0l5.46,5.09,4.98-4.84h35.52l-10.62,18.85v91.96c0,8.6-6.97,15.58-15.58,15.58h-29.14c-6.29.07-12.05,3.55-15.05,9.08-3-5.53-8.76-9-15.05-9.07h-29.14c-8.6,0-15.58-6.98-15.58-15.58h0V19.1L0,.25h35.52l4.98,4.84,5.46-5.09h48.84Z"/>
  <polygon class="cls-2" points="122.36 90.13 122.36 45.63 60.2 45.63 122.36 90.13"/>
  <path class="cls-1" d="M105.6,1.14l-5.32,5.18-5.83-5.43h-48.14l-5.82,5.43-5.33-5.18H1.52l9.98,17.72v92.2c0,8.11,6.58,14.69,14.69,14.69h29.14c6.08.06,11.73,3.15,15.05,8.24,3.33-5.09,8.97-8.18,15.05-8.24h29.14c8.11-.01,14.68-6.58,14.69-14.69V18.86l9.98-17.72h-33.64ZM125.35,17.84v93.22c0,5.95-4.83,10.78-10.78,10.78h-29.14c-5.58,0-11.24,1.94-15.05,6.99-3.81-5.2-9.47-6.99-15.05-6.99h-29.14c-5.95,0-10.78-4.83-10.78-10.78V17.84l-7.21-12.8h25.38l6.85,6.67,7.42-6.92h45.06l7.42,6.92,6.86-6.67h25.37l-7.21,12.8ZM18.4,39.37h103.95v2.51H18.4v-2.51ZM53.05,45.63h-3.6l72.91,52.21v-2.58L53.05,45.63ZM18.43,57.84l84.14,60.93h3.58L18.43,55.24v2.59ZM70.38,124.59c-5.3-6.37-14.89-5.87-17.32-5.82h-25.22c-10.52,0-9.41-9.83-9.41-9.83v-45.97l77.04,55.79h-9.89c-2.47,0-9.48-.4-15.2,5.82h0ZM112.65,106.89c-.51-1-1.82-3.35-1.04-4.35,1.5-1.94,3.05-.93,3.76-.28,1.85,1.69-.45,3.89-.45,3.89l2.38,1.75c.54-.71,1.04-1.46,1.47-2.24,1.14-2.25.47-4.11-1.65-5.79-1.34-1.05-2.78-1.65-4.66-1.2-1.28.33-2.45,1.04-3.23,2.11-1.54,2.09-.17,5.47.62,7.05.45.91,1.67,2.97.9,3.97-1.5,1.94-3.05.93-3.76.28-1.85-1.69.45-3.89.45-3.89l-2.38-1.75c-.54.71-1.04,1.46-1.47,2.24-1.14,2.25-.47,4.11,1.65,5.79,1.34,1.05,2.78,1.65,4.66,1.2,1.28-.33,2.45-1.04,3.23-2.11,1.63-2.21.28-5.18-.48-6.67ZM105.69,91.45l-5.52-4.07-11.15,15.12,2.42,1.78,5.48-7.42,1.47,1.09-2.87,9.34,2.42,1.78,2.89-9.48c1.55.69,3.36.21,4.37-1.15l1.31-1.78c1.1-1.69.75-3.94-.82-5.22M101.25,96.51l-2.64-1.95,2.2-2.98,2.6,1.92s1.12.79.38,1.8l-.75,1.01c-.41.54-1.17.66-1.72.25-.02-.02-.05-.04-.07-.06M95.03,87.32l1.78-2.42-6.05-4.46-11.15,15.12,6.05,4.46,1.78-2.42-3.63-2.68,2.96-4.01,3.63,2.68,1.78-2.42-3.63-2.68,2.84-3.86,3.63,2.68ZM76.92,75.3s2.5-3.17,5.75-.84l1.52,1.12c1.78,1.41,2.09,3.98.72,5.77l-1.5,2.04-2.35-1.71,1.25-1.69c.22-.3.33-.64.33-.98,0-.49-.21-.97-.61-1.3l-.77-.56c-.74-.49-1.73-.31-2.26.4l-5.63,7.63c-.53.72-.41,1.72.28,2.28l.77.56c.74.49,1.73.32,2.26-.4l1.7-2.31-2.41-1.78,1.41-1.91,4.76,3.48-5.88,7.97-1.31-.97.05-.69c-.68-.06-1.35-.31-1.96-.72l-1.52-1.12c-3.18-2.41-.89-5.74-.89-5.74l6.29-8.54ZM73.43,67.64l-6.93,9.4,2.73-12.5-2.43-1.8-11.15,15.12,2.5,1.85,7.03-9.53-2.89,12.58,2.5,1.85,11.15-15.12-2.5-1.85ZM60.53,58.13l-2.37-1.75-15.15,12.17,2.42,1.79,3.17-2.41,4.06,3.01-1.32,3.76,2.42,1.79,6.77-18.35ZM56.48,61.33l-2.87,7.04-2.96-2.11,5.82-4.93ZM49.35,49.87l-5.52-4.07-11.15,15.12,2.42,1.78,5.48-7.42,1.47,1.09-2.87,9.34,2.42,1.78,2.89-9.48c1.55.69,3.36.21,4.37-1.15l1.31-1.78c1.1-1.69.75-3.94-.82-5.22M44.9,54.93l-2.64-1.95,2.2-2.98,2.6,1.92s1.12.79.38,1.8l-.75,1.01c-.41.54-1.17.66-1.72.25-.02-.02-.05-.04-.07-.06M121.44,36.24l-5.67-12.84,3.7-5.95h-3.01l-3.95,6.32v-6.32h-3v18.79h3v-7.61l1.48-2.38,4.44,9.99h3.01ZM101.91,17.45h-6.86v18.79h3.01v-9.22h1.83l3.24,9.22h3l-3.3-9.35c1.65-.37,2.83-1.83,2.83-3.52v-2.21c-.12-2.02-1.74-3.62-3.76-3.71M101.33,24.16h-3.28v-3.7h3.23s1.37-.03,1.37,1.22v1.26c0,.68-.55,1.23-1.23,1.22-.03,0-.06,0-.09,0M86.55,36.24h1.13s4.13-.56,4.18-4.13v-10.38c.07-2.26-1.68-4.16-3.94-4.27h-1.36c-3.99,0-4.18,4.04-4.18,4.04v10.28c0,4.13,4.18,4.46,4.18,4.46M87.35,33.23h-.38c-.89-.01-1.61-.75-1.6-1.64h0v-9.49c0-.89.71-1.61,1.6-1.64h.42c.83.14,1.44.85,1.46,1.69v9.44c-.01.85-.66,1.56-1.5,1.64M77.58,17.45l-2.54,6.9-2.54-6.9h-3l4.04,10.99v7.8h3.01v-7.8l4.04-10.99h-3.01ZM58.79,17.45l-1.9,11.5-1.95-11.5h-3.01l-1.96,11.5-1.9-11.5h-3.01l3.1,18.79h3.57l1.69-9.94,1.69,9.94h3.57l3.1-18.79h-3.01ZM42.17,20.45v-3.01h-7.51v18.79h7.51v-3.01h-4.51v-4.98h4.51v-3h-4.51v-4.79h4.51ZM27.61,17.45v11.8l-5.07-11.8h-3.01v18.79h3.01v-11.8l5.07,11.8h3.01v-18.79h-3.01Z"/>
</svg>