<svg width="331" height="40" viewBox="0 0 331 40" fill="none" xmlns="http://www.w3.org/2000/svg">
<path d="M0 19.8751C0 18.0597 0.316447 16.4108 0.965996 14.9452C1.61554 13.4795 2.48161 12.2304 3.61416 11.2144C4.7467 10.1985 6.06246 9.39902 7.61138 8.83275C9.14365 8.28313 10.8258 8 12.6246 8C14.4233 8 16.0888 8.28313 17.6378 8.83275C19.17 9.38237 20.5191 10.1818 21.6516 11.2144C22.7842 12.247 23.6669 13.4795 24.3164 14.9452C24.966 16.4108 25.2824 18.0597 25.2824 19.8751C25.2824 21.6905 24.966 23.356 24.3164 24.855C23.6669 26.3539 22.7842 27.6364 21.6516 28.6856C20.5191 29.7516 19.1867 30.5677 17.6378 31.1339C16.1055 31.7169 14.4233 32 12.6246 32C10.8258 32 9.1603 31.7169 7.61138 31.1339C6.07911 30.551 4.7467 29.7349 3.61416 28.6856C2.49827 27.6197 1.61554 26.3539 0.965996 24.855C0.316447 23.356 0 21.7071 0 19.8751ZM8.11103 19.8751C8.11103 20.6246 8.22762 21.3074 8.44414 21.9237C8.66065 22.5399 8.9771 23.0729 9.37682 23.5225C9.77654 23.9722 10.2429 24.322 10.8092 24.5718C11.3588 24.8216 11.9584 24.9382 12.6079 24.9382C13.2575 24.9382 13.8404 24.8216 14.39 24.5718C14.9396 24.322 15.406 23.9722 15.8223 23.5225C16.2387 23.0729 16.5385 22.5399 16.7717 21.9237C17.0049 21.3074 17.1048 20.6246 17.1048 19.8751C17.1048 19.1256 16.9882 18.4761 16.7717 17.8765C16.5552 17.2769 16.2387 16.7606 15.8223 16.3442C15.406 15.9278 14.9396 15.5947 14.39 15.3615C13.8404 15.1284 13.2575 15.0118 12.6079 15.0118C11.9584 15.0118 11.3754 15.1284 10.8092 15.3615C10.2595 15.5947 9.77654 15.9278 9.37682 16.3442C8.9771 16.7606 8.67731 17.2769 8.44414 17.8765C8.22762 18.4927 8.11103 19.1589 8.11103 19.8751Z" fill="white"/>
<path d="M38.8231 31.3671H31.195V15.0951H25.6156V8.64954H44.4192V15.0951H38.8397V31.3671H38.8231Z" fill="white"/>
<path d="M60.0083 31.3671H52.3803V15.0951H46.8008V8.64954H65.6044V15.0951H60.0249V31.3671H60.0083Z" fill="white"/>
<path d="M72.3163 8.64954H80.4274L89.2879 31.3671H80.977L79.7945 28.0361H72.5828L71.4669 31.3671H63.3892L72.333 8.64954H72.3163ZM76.2636 16.5774L74.3982 22.1901H78.0957L76.2636 16.5774Z" fill="white"/>
<path d="M102.296 31.3671H94.6009L88.4052 8.64954H96.4829L98.9146 21.424H99.0478L101.679 8.64954H109.674L112.522 21.424H112.655L115.12 8.64954H122.948L116.636 31.3671H108.941L105.726 18.526H105.593L102.296 31.3671Z" fill="white"/>
<path d="M131.009 8.64954H139.12L147.981 31.3671H139.67L138.487 28.0361H131.276L130.16 31.3671H122.082L131.026 8.64954H131.009ZM134.956 16.5774L133.091 22.1901H136.788L134.956 16.5774Z" fill="white"/>
<path d="M164.469 32C163.553 32 162.637 31.9167 161.754 31.7668C160.872 31.6003 160.006 31.3671 159.189 31.0673C158.373 30.7509 157.591 30.4011 156.858 29.9847C156.125 29.5684 155.475 29.102 154.892 28.6024L159.539 23.5559C160.072 24.1388 160.788 24.6551 161.671 25.1048C162.554 25.5545 163.47 25.771 164.419 25.771C164.852 25.771 165.235 25.6877 165.585 25.5378C165.935 25.3879 166.118 25.1048 166.118 24.7051C166.118 24.4885 166.051 24.3053 165.935 24.1554C165.818 24.0055 165.602 23.8557 165.302 23.6891C165.002 23.5226 164.586 23.356 164.069 23.1561C163.536 22.9563 162.887 22.7398 162.104 22.4733C161.338 22.2235 160.588 21.907 159.889 21.5573C159.189 21.2075 158.557 20.7745 158.007 20.2582C157.457 19.7418 157.024 19.1256 156.708 18.4094C156.391 17.6933 156.225 16.8272 156.225 15.8279C156.225 14.4122 156.508 13.213 157.091 12.2304C157.674 11.2477 158.407 10.4316 159.323 9.79875C160.239 9.16586 161.255 8.71617 162.387 8.43303C163.52 8.1499 164.652 8.01665 165.752 8.01665C167.251 8.01665 168.766 8.29979 170.332 8.88272C171.881 9.46565 173.246 10.2984 174.429 11.381L169.682 16.2276C169.166 15.5781 168.533 15.0951 167.783 14.762C167.034 14.4289 166.368 14.2623 165.768 14.2623C165.219 14.2623 164.769 14.3456 164.419 14.4955C164.069 14.662 163.903 14.9119 163.903 15.2783C163.903 15.628 164.086 15.8779 164.436 16.0444C164.786 16.211 165.368 16.4275 166.151 16.694C166.967 16.9438 167.817 17.2436 168.716 17.5933C169.616 17.9431 170.448 18.3761 171.198 18.9257C171.947 19.4754 172.58 20.1416 173.08 20.9244C173.563 21.7238 173.813 22.7065 173.813 23.8723C173.813 25.238 173.546 26.4372 172.997 27.4532C172.447 28.4691 171.731 29.3185 170.848 29.9847C169.965 30.6509 168.966 31.1672 167.85 31.5003C166.734 31.8334 165.602 32 164.452 32H164.469Z" fill="white"/>
<path d="M176.827 8.64955H192.45V14.9951H184.006V16.9604H191.933V22.8897H184.006V25.0049H192.983V31.3505H176.811V8.6329L176.827 8.64955Z" fill="white"/>
<path d="M196.164 8.64954H203.775L210.254 20.1749H210.387L210.071 8.64954H217.316V31.3671H209.521L203.226 20.5246H203.092L203.409 31.3671H196.164V8.64954Z" fill="white"/>
<path d="M227.858 8.64954H235.969L244.83 31.3671H236.519L235.336 28.0361H228.125L227.009 31.3671H218.931L227.875 8.64954H227.858ZM231.806 16.5774L229.94 22.1901H233.638L231.806 16.5774Z" fill="white"/>
<path d="M255.839 31.3671H248.194V15.0951H242.615V8.64954H261.418V15.0951H255.839V31.3671Z" fill="white"/>
<path d="M261.785 19.8751C261.785 18.0597 262.101 16.4108 262.751 14.9452C263.384 13.4795 264.266 12.2304 265.399 11.2144C266.531 10.1985 267.847 9.39902 269.396 8.83275C270.928 8.28313 272.611 8 274.409 8C276.208 8 277.874 8.28313 279.406 8.83275C280.938 9.38237 282.287 10.1818 283.42 11.2144C284.552 12.247 285.435 13.4795 286.085 14.9452C286.717 16.4108 287.051 18.0597 287.051 19.8751C287.051 21.6905 286.734 23.356 286.085 24.855C285.452 26.3539 284.552 27.6364 283.42 28.6856C282.287 29.7516 280.955 30.5677 279.406 31.1339C277.874 31.7169 276.191 32 274.409 32C272.627 32 270.945 31.7169 269.396 31.1339C267.864 30.551 266.531 29.7349 265.399 28.6856C264.283 27.6197 263.4 26.3539 262.751 24.855C262.101 23.356 261.785 21.7071 261.785 19.8751ZM269.896 19.8751C269.896 20.6246 270.012 21.3074 270.229 21.9237C270.462 22.5399 270.762 23.0729 271.162 23.5225C271.561 23.9722 272.028 24.322 272.594 24.5718C273.144 24.8216 273.743 24.9382 274.393 24.9382C275.042 24.9382 275.625 24.8216 276.175 24.5718C276.724 24.322 277.191 23.9722 277.607 23.5225C278.007 23.0729 278.323 22.5399 278.556 21.9237C278.79 21.3074 278.89 20.6246 278.89 19.8751C278.89 19.1256 278.773 18.4761 278.556 17.8765C278.34 17.2769 278.023 16.7606 277.607 16.3442C277.207 15.9278 276.724 15.5947 276.175 15.3615C275.625 15.1284 275.042 15.0118 274.393 15.0118C273.743 15.0118 273.144 15.1284 272.594 15.3615C272.044 15.5947 271.561 15.9278 271.162 16.3442C270.762 16.7606 270.462 17.2769 270.229 17.8765C270.012 18.4927 269.896 19.1589 269.896 19.8751Z" fill="white"/>
<path d="M290.232 8.64954H300.025C301.141 8.64954 302.24 8.76613 303.339 8.98265C304.439 9.19916 305.421 9.59889 306.287 10.1652C307.153 10.7314 307.853 11.4976 308.386 12.4469C308.919 13.3962 309.185 14.5954 309.185 16.0278C309.185 17.4601 308.836 18.6426 308.169 19.7085C307.486 20.7745 306.504 21.5906 305.221 22.1568L310.984 31.3671H302.207L297.86 23.2561H297.627V31.3671H290.215V8.64954H290.232ZM297.577 18.2429H299.076C299.325 18.2429 299.609 18.2262 299.925 18.1763C300.225 18.1263 300.525 18.043 300.791 17.9098C301.058 17.7765 301.274 17.5767 301.457 17.3269C301.641 17.077 301.724 16.7606 301.724 16.3442C301.724 15.9278 301.641 15.6114 301.507 15.3782C301.357 15.145 301.174 14.9618 300.941 14.8452C300.708 14.7287 300.458 14.6454 300.175 14.6287C299.892 14.5954 299.642 14.5788 299.409 14.5788H297.593V18.2429H297.577Z" fill="white"/>
<path d="M320.594 32C319.678 32 318.779 31.9167 317.879 31.7668C316.997 31.6003 316.13 31.3671 315.314 31.0673C314.498 30.7509 313.715 30.4011 312.983 29.9847C312.25 29.5684 311.6 29.102 311.017 28.6024L315.664 23.5559C316.197 24.1388 316.913 24.6551 317.796 25.1048C318.679 25.5545 319.595 25.771 320.544 25.771C320.977 25.771 321.36 25.6877 321.71 25.5378C322.06 25.3879 322.243 25.1048 322.243 24.7051C322.243 24.4885 322.176 24.3053 322.06 24.1554C321.943 24.0055 321.727 23.8557 321.427 23.6891C321.127 23.5226 320.711 23.356 320.194 23.1561C319.678 22.9563 319.012 22.7398 318.229 22.4733C317.463 22.2235 316.713 21.907 316.014 21.5573C315.314 21.2075 314.681 20.7745 314.132 20.2582C313.582 19.7418 313.149 19.1256 312.833 18.4094C312.516 17.6933 312.35 16.8272 312.35 15.8279C312.35 14.4122 312.633 13.213 313.216 12.2304C313.799 11.2477 314.532 10.4316 315.448 9.79875C316.364 9.16586 317.38 8.71617 318.512 8.43303C319.645 8.1499 320.761 8.01665 321.876 8.01665C323.375 8.01665 324.891 8.29979 326.44 8.88272C327.989 9.46565 329.355 10.2984 330.537 11.381L325.79 16.2276C325.274 15.5781 324.641 15.0951 323.892 14.762C323.142 14.4289 322.476 14.2623 321.876 14.2623C321.327 14.2623 320.877 14.3456 320.527 14.4955C320.178 14.662 320.011 14.9119 320.011 15.2783C320.011 15.628 320.194 15.8779 320.544 16.0444C320.894 16.211 321.477 16.4275 322.26 16.694C323.076 16.9438 323.925 17.2436 324.824 17.5933C325.724 17.9431 326.557 18.3761 327.306 18.9257C328.055 19.4754 328.688 20.1416 329.188 20.9244C329.688 21.7071 329.921 22.7065 329.921 23.8723C329.921 25.238 329.654 26.4372 329.105 27.4532C328.555 28.4691 327.839 29.3185 326.956 29.9847C326.074 30.6509 325.074 31.1672 323.958 31.5003C322.842 31.8334 321.71 32 320.561 32H320.594Z" fill="white"/>
</svg>
