<svg width="379" height="40" viewBox="0 0 379 40" fill="none" xmlns="http://www.w3.org/2000/svg">
<path d="M6.13249 8.15141H13.552C17.2618 8.15141 19.6845 8.90851 21.4259 10.5741C22.6372 11.7855 23.2429 13.2997 23.2429 15.1924C23.2429 20.8707 18.6246 24.3533 11.8864 24.3533H8.10095L6.35962 30.9401H0L6.13249 8.15141ZM11.8107 19.5079C14.9905 19.5079 16.7319 18.0694 16.7319 15.9495C16.7319 15.3438 16.5047 14.8139 16.1262 14.3596C15.5205 13.7539 14.612 13.4511 13.4006 13.4511H11.0536L9.46372 19.5079C9.38801 19.5079 11.8107 19.5079 11.8107 19.5079Z" fill="white"/>
<path d="M27.4826 8.15141H33.8422L31.5709 16.7066H39.5962L41.8674 8.15141H48.2271L42.0946 30.9401H35.735L38.082 22.3091H30.0567L27.7097 30.9401H21.3501L27.4826 8.15141Z" fill="white"/>
<path d="M51.2555 8.15141H57.5395L51.4827 30.9401H45.123L51.2555 8.15141Z" fill="white"/>
<path d="M60.7949 8.15141H67.1545L62.5362 25.4132H73.3627L71.9243 30.9401H54.6624L60.7949 8.15141Z" fill="white"/>
<path d="M89.2618 8H95.47L99.0284 30.9401H92.3659L91.836 26.8517H83.0536L80.2524 31.0158H73.4385L89.2618 8ZM91.306 21.9306L90.4732 15.4196L86.2334 21.9306H91.306Z" fill="white"/>
<path d="M106.296 8.15141H113.64C118.032 8.15141 120.833 9.36277 122.574 11.1041C124.315 12.8454 125.073 15.041 125.073 17.7666C125.073 21.1735 123.785 24.2776 121.287 26.776C118.561 29.5016 114.625 30.9401 109.325 30.9401H100.088L106.296 8.15141ZM110.082 25.3375C112.732 25.3375 115.079 24.5047 116.593 22.9905C117.804 21.7792 118.561 20.0379 118.561 18.2208C118.561 16.7823 118.107 15.7981 117.426 15.041C116.593 14.1325 115.155 13.6025 112.959 13.6025H111.142L108.038 25.2618H110.082V25.3375Z" fill="white"/>
<path d="M130.069 8.15141H148.315L146.877 13.5268H134.915L134.006 17.0095H144.833L143.47 21.9306H132.643L131.659 25.6404H143.849L142.41 30.9401H123.937L130.069 8.15141Z" fill="white"/>
<path d="M151.571 8.15141H157.855L153.237 25.4132H164.139L162.7 30.9401H145.438L151.571 8.15141Z" fill="white"/>
<path d="M171.634 8.15141H179.054C182.763 8.15141 185.186 8.90851 186.927 10.5741C188.139 11.7855 188.745 13.2997 188.745 15.1924C188.745 20.8707 184.126 24.3533 177.388 24.3533H173.603L171.861 30.8643H165.502L171.634 8.15141ZM177.312 19.5079C180.492 19.5079 182.233 18.0694 182.233 15.9495C182.233 15.3438 182.006 14.8139 181.628 14.3596C181.022 13.7539 180.114 13.4511 178.902 13.4511H176.555L174.965 19.5079H177.312Z" fill="white"/>
<path d="M192.908 8.15141H199.192L196.921 16.7066H204.946L207.218 8.15141H213.577L207.445 30.9401H201.085L203.432 22.3091H195.407L193.06 30.9401H186.776L192.908 8.15141Z" fill="white"/>
<path d="M216.606 8.15141H222.965L216.833 30.9401H210.473L216.606 8.15141Z" fill="white"/>
<path d="M234.852 8H241.06L244.618 30.9401H237.956L237.426 26.8517H228.644L225.918 30.9401H219.028L234.852 8ZM236.896 21.9306L236.063 15.4196L231.823 21.9306H236.896Z" fill="white"/>
<path d="M284.442 8.15141L279.823 25.3375H290.726L289.211 30.9401H271.95L278.082 8.15141H284.442Z" fill="#CF4520"/>
<path d="M261.804 16.6309L256.505 12.8454L251.659 30.8643H258.019L260.215 22.8391H270.965L272.328 17.5394H261.577L261.804 16.6309Z" fill="#CF4520"/>
<path d="M252.492 8.15141L262.259 15.041L262.637 13.6782H274.524L276.038 8.15141H252.492Z" fill="#CF4520"/>
<path d="M357.653 15.1924C357.653 13.3754 357.123 11.7098 355.912 10.5741C354.398 9.05993 351.823 8.22713 348.038 8.22713H315.18L309.047 31.0915H327.521L328.959 25.7161H316.77L317.754 22.082H328.581L329.943 17.0852H319.041L319.95 13.6025H331.912L333.047 9.43848L338.12 12.9968L333.275 31.0158H339.634L341.451 24.0505H344.252L347.281 31.0158H354.246L350.763 23.2934C355.533 22.0063 357.653 18.9779 357.653 15.1924ZM346.448 19.5079H342.814L344.252 13.9811H347.659C349.022 13.9811 349.931 14.2839 350.461 14.8139C350.839 15.2681 351.066 15.7224 351.066 16.3281C351.142 18.2965 349.325 19.5079 346.448 19.5079Z" fill="#CF4520"/>
<path d="M369.237 8.15141C368.101 8.15141 359.016 8.15141 359.016 8.15141L366.663 13.6025C367.117 13.224 367.722 12.9968 368.631 12.9968C370.978 12.9968 372.946 13.9811 374.688 15.4953L378.625 11.1041C376.278 9.05993 374.839 8.15141 369.237 8.15141Z" fill="#CF4520"/>
<path d="M369.842 17.0852C367.344 16.101 366.36 15.6467 366.133 15.041L360.833 11.2555C359.924 12.3912 359.47 13.9054 359.47 15.4196C359.47 18.7508 361.817 19.9621 365.451 21.3249C368.631 22.5363 369.237 23.0662 369.237 23.8991C369.237 24.959 368.177 25.6404 366.663 25.6404C364.164 25.6404 361.817 24.5804 359.622 22.5363L355.533 26.7003C357.956 29.3502 361.666 30.8644 366.133 30.8644C371.811 30.8644 375.823 27.6845 375.823 22.9905C375.899 19.6593 373.401 18.448 369.842 17.0852Z" fill="#CF4520"/>
<path d="M301.779 8.15141L309.35 13.5268L314.044 8.15141H301.779Z" fill="#CF4520"/>
<path d="M303.823 11.4069L299.584 16.7066L297.388 8.15141H286.107L291.937 12.2397L295.117 22.1577L292.77 30.8643H299.129L301.325 22.8391L308.366 14.6625L303.823 11.4069Z" fill="#CF4520"/>
</svg>
