<svg width="198" height="40" viewBox="0 0 198 40" fill="none" xmlns="http://www.w3.org/2000/svg">
<path d="M106 10.41L107.29 4.00999H92.8C89.05 4.00999 85.47 5.31999 84.64 9.39999L80.46 30.12H96.62C100.33 30.12 102.37 28.28 103.15 24.46C103.41 23.17 105.29 13.87 105.31 13.78H93.7L97.02 17.86L95.84 23.69H89.22L91.9 10.4H106V10.41Z" fill="white"/>
<path d="M135.7 4.00999L130.41 30.12H137.88C137.88 30.12 142.1 9.11999 143.16 4.00999H135.7Z" fill="white"/>
<path d="M75.01 4.01L72.08 18.46C72.08 18.46 68.39 10.21 67.85 9.08C67.1 7.52 66.09 4 60.03 4C58.5 4 57.5 4 57.5 4L52.21 30.11H59.68L62.58 15.72L68.95 30.11H77.19C77.19 30.11 81.41 9.11 82.47 4H75.01V4.01Z" fill="white"/>
<path d="M163.97 4.01L161.04 18.46C161.04 18.46 157.35 10.21 156.81 9.08C156.06 7.52 155.05 4 148.99 4C147.46 4 146.46 4 146.46 4L141.17 30.11H148.64L151.54 15.72L157.91 30.11H166.15C166.15 30.11 170.37 9.11 171.43 4H163.97V4.01Z" fill="white"/>
<path d="M0 4.00999L5.92 11.29L2.1 30.12H9.57L11.02 22.76C12.4 22.8 16.29 22.73 17.75 22.67C22.58 22.48 24.85 21.91 26.3 17.9C26.46 17.64 28.08 9.11999 29.14 4.00999H0ZM19.48 14.84C19.2 16.19 17.5 16.37 15.57 16.37C14.82 16.37 13.1 16.37 12.35 16.37L13.56 10.4H20.38C20.07 11.93 19.47 14.8 19.48 14.84Z" fill="white"/>
<path d="M190.68 16.65C188.73 15.73 180.18 11.91 180.18 11.91L180.51 10.41H191.29L195.73 4.00999H179.95C176.11 4.00999 174.21 6.22999 173.75 8.74999C173.38 10.79 172.95 12.77 172.73 14.23C172.56 15.35 173.34 16.45 174.34 16.92C177.86 18.59 184.72 21.62 184.72 21.62L184.31 23.7H170.75L169.45 30.12H187.27C189.26 30.12 190.76 28.55 191.2 26.32C191.82 23.18 192.19 21.44 192.54 19.68C192.77 18.63 191.73 17.15 190.68 16.65Z" fill="white"/>
<path d="M124.9 4.00999L120.91 23.7C120.91 23.7 115.8 23.7 115.73 23.7C114.1 23.66 114.63 21.09 114.91 19.7L118.06 4.00999H110.6L106.85 22.52C106.85 22.52 106.77 23.15 106.77 23.99V24.02C106.77 27.1 108.95 30.1 112.27 30.12H127.08C127.08 30.12 131.3 9.11999 132.36 4.00999H124.9Z" fill="white"/>
<path d="M27.17 30.12H48.91L50.21 23.7H35.94L36.7 19.96H48.26L49.51 13.78H37.95L38.63 10.41H52.9L54.2 4.00999H32.45L27.17 30.12Z" fill="white"/>
<path d="M195.06 29.58H195.04C193.39 29.58 192.07 30.86 192.07 32.46C192.07 34.1 193.39 35.36 195.04 35.36C196.71 35.36 198 34.09 198 32.46C198 30.86 196.72 29.58 195.06 29.58ZM195.04 34.79C193.72 34.79 192.66 33.78 192.66 32.47C192.66 31.29 193.56 30.33 194.73 30.18C194.83 30.17 194.93 30.16 195.04 30.16H195.05C196.37 30.16 197.4 31.19 197.4 32.47C197.41 33.77 196.38 34.79 195.04 34.79Z" fill="white"/>
<path d="M195.71 32.55V32.51C196.06 32.4 196.31 32.16 196.31 31.82C196.31 31.56 196.19 31.33 196.03 31.2C195.82 31.06 195.57 30.97 195.03 30.97C194.55 30.97 194.19 31.02 193.92 31.08V33.95H194.59V32.81H194.91C195.28 32.81 195.45 32.95 195.51 33.27C195.6 33.6 195.65 33.85 195.74 33.96H196.46C196.39 33.87 196.34 33.7 196.25 33.26C196.15 32.87 195.99 32.64 195.71 32.55ZM194.92 32.34H194.6V31.51C194.67 31.49 194.79 31.47 194.97 31.47C195.39 31.47 195.59 31.65 195.59 31.91C195.59 32.22 195.29 32.34 194.92 32.34Z" fill="white"/>
</svg>
