<svg width="327" height="40" viewBox="0 0 327 40" fill="none" xmlns="http://www.w3.org/2000/svg">
<path d="M206.503 8H214.219L211.675 17.523H216.855L219.407 8H227.123L220.696 31.9916H212.972L215.215 23.6234H210.035L207.792 31.9916H200.077L206.503 8Z" fill="white"/>
<path d="M199.901 9.17155C199.299 8.38494 198.227 8 196.621 8H186.42C183.232 8 181.265 9.54812 180.412 12.7364L179.307 16.8536C178.361 20.3933 179.918 21.0377 183.006 21.9498L189.851 23.7908C190.085 23.8494 190.219 24.092 190.16 24.318L189.65 26.2259C189.6 26.4184 189.424 26.5439 189.232 26.5439H183.976C183.692 26.5439 183.483 26.2762 183.558 26L184.052 24.2343L177.734 22.5774L176.487 27.1632C176.043 28.8201 176.127 30.0167 176.755 30.8285C177.357 31.6151 178.428 32 180.035 32H190.704C193.893 32 195.859 30.4519 196.713 27.2636L197.876 22.9121C198.269 21.4393 198.253 20.4519 197.826 19.7155C197.232 18.6946 195.884 18.2678 194.177 17.8075C192.93 17.4728 189.541 16.6192 187.34 16.0586C187.106 16 186.964 15.7573 187.031 15.523C187.165 15.0209 187.391 14.2092 187.508 13.7573C187.558 13.5649 187.734 13.4393 187.926 13.4393H192.688C192.972 13.4393 193.181 13.7071 193.106 13.9833L192.663 15.6569L198.972 17.364L200.169 12.8285C200.612 11.1715 200.529 9.9749 199.901 9.16318" fill="white"/>
<path d="M303.834 8H295.022L288.311 16.6862L290.637 8H282.386L275.96 31.9916H284.211L286.796 22.318L288.596 31.9916H297.407L295.064 19.3556L303.834 8Z" fill="white"/>
<path d="M271.968 31.9916L270.487 24.0251C272.495 23.1548 274.211 21.3305 274.78 19.2218L276.579 12.5105C277.24 10.0167 275.767 8 273.282 8H257.558L251.131 31.9916H258.955L260.947 24.569H262.328L263.709 31.9916H271.976H271.968ZM262.269 19.1213L263.625 14.0753H267.357C268.278 14.0753 268.579 14.569 268.328 15.4979L267.817 17.4142C267.474 18.7029 266.93 19.1297 265.215 19.1297H262.278L262.269 19.1213Z" fill="white"/>
<path d="M239.583 31.9916H247.441L247.801 8H237.006L224.537 31.9916H232.395L234.001 28.6025H239.801L239.591 31.9916H239.583ZM236.428 23.4561L240.679 14.4686L240.119 23.4561H236.428Z" fill="white"/>
<path d="M326.211 9.17155C325.608 8.38494 324.537 8 322.93 8H312.738C309.549 8 307.583 9.54812 306.729 12.7364L305.625 16.8536C304.679 20.3933 306.236 21.0377 309.324 21.9498L316.169 23.7908C316.403 23.8494 316.537 24.092 316.478 24.318L315.968 26.2259C315.918 26.4184 315.742 26.5439 315.549 26.5439H310.294C310.01 26.5439 309.801 26.2762 309.876 26L310.37 24.2343L304.052 22.5774L302.805 27.1632C302.361 28.8201 302.445 30.0167 303.073 30.8285C303.675 31.6151 304.746 32 306.353 32H317.022C320.211 32 322.177 30.4519 323.031 27.2636L324.194 22.9121C324.587 21.4393 324.57 20.4519 324.144 19.7155C323.549 18.6946 322.202 18.2678 320.495 17.8075C319.248 17.4728 315.859 16.6192 313.658 16.0586C313.424 16 313.282 15.7573 313.349 15.523C313.483 15.0209 313.708 14.2092 313.826 13.7573C313.876 13.5649 314.052 13.4393 314.244 13.4393H319.006C319.29 13.4393 319.499 13.7071 319.424 13.9833L318.98 15.6569L325.29 17.364L326.487 12.8285C326.93 11.1715 326.847 9.9749 326.219 9.16318" fill="white"/>
<path d="M67.424 8.18408L63.675 22.1841L59.8006 8.18408H52.9303L46.5955 31.8242H52.4449L56.1185 18.1255L60.0683 31.8242H66.9721L73.3068 8.18408H67.424Z" fill="white"/>
<path d="M37.3571 31.8242H43.6333L43.491 8.18408H34.2609L21.6751 31.8242H28.1437L30.1856 27.8828H37.4241L37.3571 31.8242ZM32.2441 23.4142L37.7421 13.0544L37.6835 23.4142H32.2441Z" fill="white"/>
<path d="M102.169 8.18408H90.7629L89.4826 12.954H94.8717L91.3905 25.9414C91.0976 27.0293 90.6039 27.3975 89.4407 27.3975H85.4909C85.0558 27.3975 84.5704 27.3473 84.3026 26.9958C84.0265 26.636 84.1102 26.159 84.219 25.7322L84.8884 23.3556L79.516 21.9498L78.1018 27.2385C77.6081 29.0711 77.6081 30.2343 78.1018 30.8786C78.6123 31.5397 79.7504 31.8326 81.8089 31.8326H90.8633C94.8047 31.8326 96.0934 30.8452 97.1144 27.0209L102.169 8.18408Z" fill="white"/>
<path d="M109.884 8.18408C107.591 8.18408 105.558 9.79915 104.939 12.1171L100.646 28.1422C100.345 29.2552 100.462 30.2259 100.955 30.8786C101.432 31.4979 102.253 31.8326 103.324 31.8326H115.541C117.951 31.8326 120.219 30.159 120.813 27.933L125.106 11.9079C125.407 10.795 125.29 9.81588 124.78 9.15479C124.294 8.51881 123.474 8.18408 122.403 8.18408H109.884ZM118.462 14.6192L115.525 25.5732C115.232 26.6694 114.746 27.0627 113.667 27.0627H108.504C108.043 27.0627 107.583 27.0125 107.324 26.6778C107.048 26.318 107.156 25.8075 107.273 25.3556L110.219 14.3682C110.52 13.2552 110.947 12.9205 112.068 12.9205H117.198C117.658 12.9205 118.127 12.9707 118.395 13.3138C118.671 13.6653 118.587 14.1506 118.462 14.6192Z" fill="white"/>
<path d="M153.491 8.18408L147.156 31.8242H163.717L164.997 27.0544H154.252L155.541 22.2092H164.001L165.123 18.092H156.663L158.027 12.9456H168.771L170.052 8.18408H153.491Z" fill="white"/>
<path d="M145.114 8.19247H134.562C131.533 8.19247 129.742 9.6067 128.922 12.6444L127.784 16.9038C126.947 20.0167 128.01 20.5021 131.198 21.4477L138.261 23.3557C138.813 23.5063 139.148 24.0753 138.997 24.636L138.47 26.6109C138.344 27.0711 137.934 27.3891 137.457 27.3891H132.018C131.692 27.3891 131.391 27.2385 131.19 26.9791C130.989 26.7197 130.922 26.3933 131.006 26.0753L131.357 24.8285L125.985 23.4226L124.847 27.59C124.437 29.1046 124.495 30.1757 125.022 30.8619C125.524 31.5147 126.478 31.841 127.943 31.841H138.98C142.01 31.841 143.801 30.4268 144.621 27.3891L145.826 22.887C146.185 21.5314 146.194 20.6527 145.834 20.0335C145.34 19.1716 144.052 18.7782 142.428 18.3431C141.29 18.0418 138.395 17.3054 136.169 16.7448L135.357 16.5356C135.081 16.4686 134.855 16.2929 134.713 16.0502C134.57 15.8075 134.529 15.523 134.604 15.2469L135.098 13.4226C135.223 12.9707 135.633 12.6527 136.11 12.6527H141.031C141.357 12.6527 141.658 12.8034 141.859 13.0628C142.06 13.3222 142.127 13.6569 142.043 13.9749L141.734 15.1297L147.106 16.5774L148.194 12.4603C148.604 10.9372 148.545 9.86611 148.018 9.18829C147.516 8.53557 146.562 8.20921 145.098 8.20921" fill="white"/>
<path d="M20.5286 8.19247H9.97629C6.947 8.19247 5.15621 9.6067 4.34449 12.6444L3.20642 16.9038C2.3696 20.0167 3.43236 20.5021 6.62064 21.4477L13.6834 23.3557C14.2441 23.5063 14.5704 24.0753 14.4198 24.636L13.8926 26.6109C13.7671 27.0711 13.357 27.3891 12.8801 27.3891H7.44073C7.11437 27.3891 6.81311 27.2385 6.61228 26.9791C6.41144 26.7197 6.34449 26.3933 6.42818 26.0753L6.77964 24.8285L1.40726 23.4226L0.269181 27.59C-0.14086 29.1046 -0.0822829 30.1757 0.444914 30.8619C0.947006 31.5147 1.90098 31.841 3.36542 31.841H14.4031C17.4324 31.841 19.2232 30.4268 20.0349 27.3891L21.2399 22.887C21.5997 21.5314 21.6081 20.6527 21.2483 20.0335C20.7545 19.1716 19.4658 18.7782 17.8424 18.3431C16.7043 18.0418 13.8089 17.3054 11.583 16.7448L10.7713 16.5356C10.4951 16.4686 10.2692 16.2929 10.1269 16.0502C9.98466 15.8075 9.94282 15.523 10.0181 15.2469L10.5119 13.4226C10.6374 12.9707 11.0474 12.6527 11.5244 12.6527H16.4449C16.7713 12.6527 17.0725 12.8034 17.2734 13.0628C17.4742 13.3222 17.5411 13.6569 17.4575 13.9749L17.1478 15.1297L22.5202 16.5774L23.6081 12.4603C24.0181 10.9372 23.9596 9.86611 23.4407 9.18829C22.9386 8.53557 21.9847 8.20921 20.5202 8.20921" fill="white"/>
</svg>
