<svg width="192" height="40" viewBox="0 0 192 40" fill="none" xmlns="http://www.w3.org/2000/svg">
<g clip-path="url(#clip0_8_1672)">
<path d="M90.0834 12.5957C90.0834 7.40863 85.7058 5.44781 85.7058 5.44781L78.843 9.41504V26.0705C78.843 32.2494 84.0642 34.6092 84.0642 34.6092L90.0834 31.1322V22.7417L85.7286 25.2497V30.8586L84.8394 31.3716C83.5968 29.7071 83.2548 28.2821 83.2092 26.0819V22.3883L87.9174 19.6751V16.7681L83.2092 19.4813C83.2092 14.6135 83.2092 9.13004 83.2092 8.05843C84.3948 8.68543 85.7514 9.85964 85.7514 11.8661V15.1037L90.1062 12.5957H90.0834Z" fill="#9CDBD9"/>
<path d="M42.1224 8.6168H44.6647V33.9591H49.0423C49.0423 33.9591 49.0195 16.3004 49.0195 8.6168H51.5503V6.05179H42.1224V8.6054V8.6168Z" fill="#9CDBD9"/>
<path d="M71.9239 31.3943H69.3931L69.3817 5.42499L65.0383 7.933V33.9365L76.2787 33.9593V22.6961L71.9239 25.2041V31.3943Z" fill="#9CDBD9"/>
<path d="M25.7421 12.5957C25.7421 7.40863 21.3645 5.44781 21.3645 5.44781L14.5016 9.41504V26.0705C14.5016 32.2494 19.7229 34.6092 19.7229 34.6092L25.7421 31.1322V22.7417L21.3873 25.2497V30.8586L20.4981 31.3716C19.2555 29.7071 18.9135 28.2821 18.8565 26.0819V22.3883L23.5647 19.6751V16.7681L18.8565 19.4813C18.8565 14.6135 18.8565 9.13004 18.8565 8.05843C20.0421 8.68543 21.3987 9.85964 21.3987 11.8661V15.1037L25.7535 12.5957H25.7421Z" fill="#9CDBD9"/>
<path d="M6.86284 4L0 7.96722V13.1543C0 20.7353 6.88564 19.3559 6.88564 24.1097C6.88564 24.3149 6.88564 32.2494 6.88564 32.2494L5.99643 32.7624C4.75383 31.098 4.41182 29.6729 4.36622 27.4727V22.7303L0.0114001 25.2383V27.4613C0.0114001 33.6402 5.23263 36 5.23263 36L11.2519 32.523C11.2519 32.523 11.2519 24.4175 11.2519 24.2807C11.2519 16.7909 4.51442 18.0449 4.36622 13.4849C4.36622 10.84 4.36622 7.24902 4.36622 6.62202C5.55183 7.24902 6.90844 8.42322 6.90844 10.4296V15.1151L11.2633 12.607V11.1592C11.2633 5.97221 6.88564 4.0114 6.88564 4.0114L6.86284 4Z" fill="#9CDBD9"/>
<path d="M35.8996 5.44756L29.0367 9.41478V33.9705H33.4144L33.3916 23.8587L35.9224 22.3995V33.9705H40.2772V12.584C40.2772 7.39697 35.8996 5.43616 35.8996 5.43616V5.44756ZM35.9224 19.481L33.3802 20.9516V8.06957C34.5658 8.69658 35.9224 9.87078 35.9224 11.8772V19.4924V19.481Z" fill="#9CDBD9"/>
<path d="M53.0325 8.6168H55.5747V33.9591H59.9524C59.9524 33.9591 59.9296 16.3004 59.9296 8.6168H62.4604V6.05179H53.0325V8.6054V8.6168Z" fill="#9CDBD9"/>
<path d="M161.597 23.1521C161.597 19.8461 159.67 17.9765 158.484 17.1329L161.597 15.3317V5.44781L157.242 7.95583V15.0581L154.711 16.5173V5.44781L150.356 7.95583V33.9594H154.711V19.1963C155.84 19.7321 157.242 20.8379 157.242 22.7987V30.9156C157.242 33.4008 158.336 35.0196 159.385 36L162.896 33.9708C162.178 33.3438 161.597 32.4318 161.597 31.1778V23.1635V23.1521Z" fill="#9CDBD9"/>
<path d="M141.702 5.44781L134.839 9.41504V33.9708H139.217L139.194 23.8589L141.725 22.3997V33.9708H146.08V12.5957C146.08 7.40863 141.702 5.44781 141.702 5.44781ZM141.725 19.4813L139.183 20.9519V8.06983C140.368 8.69683 141.725 9.87104 141.725 11.8775V19.4927V19.4813Z" fill="#9CDBD9"/>
<path d="M176.53 12.5957C176.53 7.40863 172.153 5.44781 172.153 5.44781L165.29 9.41504V26.0705C165.29 32.2494 170.511 34.6092 170.511 34.6092L176.53 31.1322V22.7417L172.175 25.2497V30.8586L171.286 31.3716C170.044 29.7071 169.702 28.2821 169.645 26.0819V22.3883L174.353 19.6751V16.7681L169.645 19.4813C169.645 14.6135 169.645 9.13004 169.645 8.05843C170.83 8.68543 172.187 9.85964 172.187 11.8661V15.1037L176.542 12.5957H176.53Z" fill="#9CDBD9"/>
<path d="M115.108 23.1521C115.108 19.8461 113.181 17.9765 111.995 17.1329L115.108 15.3317V5.44781L110.753 7.95582V15.0581L108.211 16.5173V9.08443C108.211 6.59921 107.116 4.98041 106.067 4L102.556 6.02921C103.274 6.65621 103.856 7.56822 103.856 8.83363V33.9594H108.211V19.1963C109.339 19.7321 110.753 20.8379 110.753 22.7987V30.9155C110.753 33.4008 111.847 35.0196 112.896 36L116.407 33.9708C115.689 33.3438 115.108 32.4318 115.108 31.1778V23.1635V23.1521Z" fill="#9CDBD9"/>
<path d="M190.962 30.9954V12.5273C190.962 7.38583 186.63 5.44781 186.63 5.44781L183.233 7.40863L179.836 5.44781V33.9594H184.145V8.02423C185.319 8.63983 186.665 9.80264 186.665 11.7977V30.4938C186.665 33.1728 187.839 34.917 188.967 35.9772L192.376 33.948C191.601 33.264 190.974 32.352 190.974 30.984L190.962 30.9954Z" fill="#9CDBD9"/>
<path d="M130.598 26.1047C130.598 22.7987 128.672 20.9291 127.486 20.0855L130.598 18.2843V12.5957C130.598 7.40863 126.221 5.44781 126.221 5.44781L122.789 7.43143L119.358 5.44781V33.9594H123.713V22.1375C124.841 22.6733 126.255 23.7791 126.255 25.7399V30.9042C126.255 33.3894 127.349 35.0082 128.398 35.9886L131.909 33.9594C131.191 33.3324 130.61 32.4204 130.61 31.1664V26.1047H130.598ZM126.243 18.0107L123.701 19.4699V10.7944V8.05843C124.875 8.67403 126.232 9.84824 126.243 11.8547V18.0221V18.0107Z" fill="#9CDBD9"/>
<path d="M111.993 17.1327L115.106 15.3314L112.928 15.1946L109.189 17.3265C109.964 17.2125 110.967 17.1327 111.982 17.1327H111.993Z" fill="#6BA4B8"/>
<path d="M157.252 7.95605V15.0583L159.418 15.1951V7.95605H157.252Z" fill="#6BA4B8"/>
<path d="M112.906 31.0067V23.38C112.906 22.8556 112.895 21.5902 112.473 20.587C111.914 19.2418 110.877 17.8168 108.791 17.7598C107.115 17.7142 106.021 18.5464 106.021 18.5464C106.021 18.5464 107.343 18.7288 108.426 19.2988C109.509 19.8688 110.752 20.9518 110.752 22.7986V30.9155C110.752 33.4007 111.846 35.0195 112.895 35.9999L116.406 33.9707H113.795C113.533 33.6857 112.895 32.8079 112.895 31.0181L112.906 31.0067Z" fill="#6BA4B8"/>
<path d="M128.387 31.0068V26.3327C128.387 25.8083 128.375 24.5429 127.953 23.5397C127.395 22.1945 126.357 20.7695 124.271 20.7125C122.709 20.6669 121.672 21.3737 121.535 21.4763V8.14963L119.358 5.44781V33.9594H123.713L121.535 32.7054V21.4991C121.672 21.5219 122.892 21.7043 123.918 22.2401C125.001 22.8101 126.243 23.8931 126.243 25.7399V30.9042C126.243 33.3894 127.338 35.0082 128.387 35.9886L131.898 33.9594H129.287C129.025 33.6744 128.387 32.7966 128.387 31.0068Z" fill="#6BA4B8"/>
<path d="M110.752 7.95605V15.0583L112.929 15.1951V7.95605H110.752Z" fill="#6BA4B8"/>
<path d="M105.121 6.02899H102.567C103.285 6.656 103.867 7.568 103.867 8.82201V33.9478H108.222L106.021 32.6937V8.98161C106.021 7.1918 105.383 6.32539 105.121 6.02899Z" fill="#6BA4B8"/>
<path d="M126.244 11.843V18.0104L128.421 18.1472V12.7322C128.421 9.93919 127.669 8.50278 125.742 6.88397L123.713 8.05818C124.899 8.67378 126.244 9.84799 126.255 11.8544L126.244 11.843Z" fill="#6BA4B8"/>
<path d="M158.484 17.1327L161.597 15.3314L159.419 15.1946L155.68 17.3265C156.455 17.2125 157.458 17.1327 158.473 17.1327H158.484Z" fill="#6BA4B8"/>
<path d="M141.736 11.8547V19.4699L143.914 19.6637V12.7211C143.914 9.92808 143.161 8.49167 141.235 6.87286L139.205 8.04707C140.391 8.67407 141.748 9.84828 141.748 11.8547H141.736Z" fill="#6BA4B8"/>
<path d="M127.475 20.0857L130.587 18.2844L128.41 18.1476L124.67 20.2795C125.445 20.1655 126.449 20.0857 127.463 20.0857H127.475Z" fill="#6BA4B8"/>
<path d="M134.839 9.40382V33.9596H139.217L137.017 32.7056V23.6653V9.31262L134.839 9.40382Z" fill="#6BA4B8"/>
<path d="M172.174 25.2382V30.847L174.352 30.9838V25.2382H172.174Z" fill="#6BA4B8"/>
<path d="M159.395 31.0067V23.38C159.395 22.8556 159.384 21.5902 158.962 20.587C158.403 19.2418 157.366 17.8168 155.28 17.7598C153.604 17.7142 152.509 18.5464 152.509 18.5464C152.509 18.5464 153.832 18.7288 154.915 19.2988C155.998 19.8688 157.24 20.9518 157.24 22.7986V30.9155C157.24 33.4007 158.335 35.0195 159.384 35.9999L162.895 33.9707H160.284C160.022 33.6857 159.384 32.8079 159.384 31.0181L159.395 31.0067Z" fill="#6BA4B8"/>
<path d="M174.353 19.6634L173.27 18.8312L167.467 22.2056L169.645 22.3766L174.353 19.6634Z" fill="#6BA4B8"/>
<path d="M170.899 32.956C168.562 31.0408 167.467 29.023 167.467 25.888V9.3009L165.29 9.4035V26.059C165.29 32.2378 170.511 34.5976 170.511 34.5976L176.53 31.1206L174.353 30.9838L170.887 32.956H170.899Z" fill="#6BA4B8"/>
<path d="M189.788 33.9591C189.514 33.6627 188.807 32.7735 188.807 30.8241V12.6638C188.807 9.89356 188.066 8.47995 186.151 6.86115L184.133 8.02395C185.307 8.63956 186.653 9.80236 186.653 11.7974V30.4935C186.653 33.1725 187.827 34.9167 188.955 35.9769L192.364 33.9477H189.788V33.9591Z" fill="#6BA4B8"/>
<path d="M171.674 6.88397L169.645 8.05818C170.831 8.68518 172.187 9.85939 172.187 11.8658V15.1034L176.542 12.5954H174.365C174.342 9.89359 173.589 8.47998 171.686 6.88397H171.674Z" fill="#6BA4B8"/>
<path d="M143.902 19.6751L137.017 23.6651L139.206 23.8475L141.736 22.3769V33.9594H146.08L143.902 32.7054V19.6751Z" fill="#6BA4B8"/>
<path d="M181.991 8.12683L179.825 5.44781V33.9594H184.146L181.991 32.7054V8.12683Z" fill="#6BA4B8"/>
<path d="M150.356 7.95605V33.9596H154.711L152.511 32.7056V18.5467L152.533 7.95605H150.356Z" fill="#6BA4B8"/>
<path d="M74.1003 25.2042H71.9229V31.3945L74.1003 32.6713V25.2042Z" fill="#6BA4B8"/>
<path d="M5.60883 34.3468C3.28322 32.4316 2.18881 30.4366 2.17741 27.3244V25.2382H0V27.4612C0 33.64 5.22123 35.9998 5.22123 35.9998L11.2405 32.5228L9.06305 32.386L5.59743 34.3582L5.60883 34.3468Z" fill="#6BA4B8"/>
<path d="M62.461 8.61723L61.1842 7.34042H57.7528L59.9302 8.61723H62.461Z" fill="#6BA4B8"/>
<path d="M35.934 11.8658V19.481L38.1114 19.6748V12.7322C38.1114 9.93919 37.359 8.50278 35.4324 6.88397L33.4031 8.05818C34.5887 8.68518 35.9454 9.85939 35.9454 11.8658H35.934Z" fill="#6BA4B8"/>
<path d="M67.1815 32.66L67.2157 7.93323H65.0383V33.9368L76.2787 33.9596L74.1013 32.6714L67.1815 32.66Z" fill="#6BA4B8"/>
<path d="M87.9063 19.6634L86.8233 18.8312L81.0206 22.2056L83.2094 22.3766L87.9063 19.6634Z" fill="#6BA4B8"/>
<path d="M85.741 25.2382V30.847L87.9184 30.9838V25.2382H85.741Z" fill="#6BA4B8"/>
<path d="M85.2273 6.88397L83.1981 8.05818C84.3837 8.68518 85.7403 9.85939 85.7403 11.8658V15.1034L90.0952 12.5954H87.9177C87.8949 9.89359 87.1425 8.47998 85.2387 6.88397H85.2273Z" fill="#6BA4B8"/>
<path d="M54.3207 7.34L53.0325 6.05179V8.6168H55.5747V33.9591H59.9524L57.7522 32.6937V7.34H54.3207Z" fill="#6BA4B8"/>
<path d="M84.4518 32.9564C82.1148 31.0411 81.0204 29.0233 81.0204 25.8997V9.31262L78.843 9.41522V26.0707C78.843 32.2495 84.0642 34.6094 84.0642 34.6094L90.0834 31.1323L87.906 30.9955L84.4404 32.9678L84.4518 32.9564Z" fill="#6BA4B8"/>
<path d="M5.62023 18.5463C3.57962 17.0643 2.18881 16.2321 2.17741 12.6867V7.85309L0 7.95569V13.1427C0 20.7238 6.88564 19.3444 6.88564 24.0982C6.88564 24.3034 6.88564 32.2378 6.88564 32.2378L9.06305 32.3746V24.406C9.06305 21.613 8.35625 20.5414 5.62023 18.5463Z" fill="#6BA4B8"/>
<path d="M29.0367 9.40382V33.9596H33.4258L31.2142 32.6942V23.6653V9.31262L29.0367 9.40382Z" fill="#6BA4B8"/>
<path d="M51.5512 8.61723L50.263 7.34042H46.8315L49.009 8.61723H51.5512Z" fill="#6BA4B8"/>
<path d="M43.3992 7.34L42.1224 6.05179V8.6168H44.6647V33.9591H49.0423L46.8307 32.6937V7.34H43.3992Z" fill="#6BA4B8"/>
<path d="M20.8838 6.88397L18.8546 8.05818C20.0402 8.68518 21.3968 9.85939 21.3968 11.8658V15.1034L25.7517 12.5954H23.5742C23.5514 9.89359 22.799 8.47998 20.8952 6.88397H20.8838Z" fill="#6BA4B8"/>
<path d="M38.1114 19.6751L31.2144 23.6651L33.4032 23.8361L35.934 22.3769V33.9594H40.2774L38.1114 32.694V19.6751Z" fill="#6BA4B8"/>
<path d="M9.06339 11.1476C9.04059 8.44577 8.28818 7.03217 6.38437 5.43616L4.35516 6.61036C5.54077 7.23737 6.89738 8.41157 6.89738 10.418V15.1034L11.2522 12.5954H9.07479V11.1476H9.06339Z" fill="#6BA4B8"/>
<path d="M23.565 19.6634L22.482 18.8312L16.6793 22.2056L18.8681 22.3766L23.565 19.6634Z" fill="#6BA4B8"/>
<path d="M20.1105 32.9564C17.7735 31.0411 16.6791 29.0233 16.6791 25.8997V9.31262L14.5016 9.41522V26.0707C14.5016 32.2495 19.7229 34.6094 19.7229 34.6094L25.7421 31.1323L23.5647 30.9955L20.0991 32.9678L20.1105 32.9564Z" fill="#6BA4B8"/>
<path d="M21.3862 25.2382V30.847L23.5636 30.9838V25.2382H21.3862Z" fill="#6BA4B8"/>
</g>
<defs>
<clipPath id="clip0_8_1672">
<rect width="192" height="40" fill="white"/>
</clipPath>
</defs>
</svg>
