<?xml version="1.0"?>
<svg xmlns="http://www.w3.org/2000/svg" width="400" height="40" viewBox="0 0 400 40" fill="none">
<path d="M1.57627 33.1405H0.132238L0.150751 25.7378C2.88278 27.9012 5.94012 29.0596 8.19874 29.0596C10.4574 29.0596 11.9754 28.0149 11.9754 26.2509C11.9754 24.8835 11.0445 23.7648 9.16672 22.8153L5.42704 20.9164C1.69 19.0201 0 16.5341 0 13.4582C0 9.32181 3.05469 6 8.4447 6C11.1397 6 12.6023 6.75904 14.1759 6.75904H15.5221V13.5931C13.0915 11.5064 10.3595 10.6521 8.46057 10.6521C6.69652 10.6521 5.49844 11.4297 5.49844 12.8737C5.49844 13.9369 6.14376 14.9049 8.25163 15.9681L12.1817 17.9622C15.8818 19.8426 17.6088 22.289 17.6088 25.7246C17.6088 30.8871 13.7183 34 8.19609 34C5.4429 34 3.79258 33.1457 1.57098 33.1457L1.57627 33.1405ZM20.1742 6.75904H39.7612V12.9266C37.9575 11.8819 36.5902 11.5037 34.5987 11.5037H32.8135V27.0681C32.8135 29.3082 33.0224 30.9982 33.4588 33.1405H26.474C26.9104 30.9956 27.1193 29.3056 27.1193 27.0681V11.5037H25.3341C23.34 11.5037 21.9753 11.8449 20.1715 12.9266V6.75904H20.1742ZM41.6602 26.7454C43.6543 26.7454 45.265 28.2635 45.265 30.181C45.265 32.0984 43.6517 33.6165 41.6602 33.6165C39.6687 33.6165 38.0527 32.0984 38.0527 30.181C38.0527 28.2635 39.666 26.7454 41.6602 26.7454ZM56.9389 27.0681V12.834C56.9389 10.5939 56.73 8.90658 56.2936 6.76169H63.2784C62.842 8.90658 62.6331 10.5966 62.6331 12.834V28.4936C67.0181 28.967 69.5227 28.8718 73.0534 26.7481L73.0349 33.1431C68.232 34.8119 61.2657 33.1431 56.2936 33.1431C56.73 31.1119 56.9389 29.3082 56.9389 27.0707V27.0681ZM76.5842 19.0968C76.5842 13.9157 77.8166 10.6124 80.5328 8.39086C82.5058 6.77756 85.0103 6 87.6313 6C90.2522 6 92.7568 6.77756 94.7298 8.39086C97.4433 10.6124 98.6784 13.9131 98.6784 19.0968V20.9005C98.6784 26.0816 97.446 29.3849 94.7298 31.5853C92.7568 33.2172 90.2522 33.9947 87.6313 33.9947C85.0103 33.9947 82.5058 33.2172 80.5328 31.5853C77.8193 29.3849 76.5842 26.0816 76.5842 20.9005V19.0968ZM84.574 28.0176C85.3912 28.6999 86.4147 29.0622 87.6286 29.0622C88.8426 29.0622 89.8688 28.7026 90.6833 28.0176C92.2014 26.7825 92.7912 24.791 92.7912 22.0193V17.9781C92.7912 15.2064 92.2041 13.2149 90.6833 11.9613C89.8661 11.2974 88.8426 10.9378 87.6286 10.9378C86.4147 10.9378 85.3885 11.2974 84.574 11.9613C83.0559 13.2149 82.4661 15.2064 82.4661 17.9781V22.0193C82.4661 24.791 83.0559 26.7825 84.574 28.0176ZM109.913 6.75904C109.477 8.90394 109.268 10.5939 109.268 12.8314V23.9526C109.268 27.4251 110.577 29.0781 113.804 29.0781C114.923 29.0781 116.348 28.8692 117.543 28.565V12.834C117.543 10.5939 117.335 8.90658 116.898 6.76169H123.883C123.447 8.90658 123.238 10.5966 123.238 12.834V27.0681C123.238 29.3082 123.484 30.9982 123.846 33.1405C120.22 33.1405 117.089 33.9947 113.558 33.9947C107.105 33.9947 103.574 30.8051 103.574 24.8095V12.834C103.574 10.5939 103.365 8.90658 102.929 6.76169H109.913V6.75904ZM129.783 27.0681V12.834C129.783 10.5939 129.574 8.90658 129.138 6.76169H136.123C135.686 8.90658 135.478 10.5966 135.478 12.834V27.0681C135.478 29.3082 135.686 30.9982 136.123 33.1405H129.138C129.574 30.9956 129.783 29.3056 129.783 27.0681ZM149.41 6C152.105 6 153.565 6.75904 155.141 6.75904H156.49V13.5931C154.06 11.5064 151.328 10.6521 149.429 10.6521C147.665 10.6521 146.466 11.4297 146.466 12.8737C146.466 13.9369 147.112 14.9049 149.22 15.9681L153.147 17.9622C156.85 19.8426 158.577 22.289 158.577 25.7246C158.577 30.8871 154.686 34 149.161 34C146.408 34 144.758 33.1457 142.536 33.1457H141.095L141.114 25.7431C143.846 27.9065 146.903 29.0649 149.161 29.0649C151.42 29.0649 152.938 28.0202 152.938 26.2562C152.938 24.8888 152.007 23.7701 150.129 22.8206L146.39 20.9217C142.65 19.0228 140.963 16.5367 140.963 13.4635C140.963 9.32445 144.017 6.00529 149.41 6.00529V6Z" fill="white"/>
<path d="M168.474 33.1431C168.91 31.0934 169.119 29.2712 169.119 27.0126V12.834C169.119 10.5939 168.91 8.90658 168.474 6.76169C171.872 6.74318 174.186 6.28828 176.863 6.28828C183.715 6.28828 186.921 9.2504 186.921 13.1964C186.921 15.9866 185.307 17.7903 183.411 18.7583C186.543 19.8955 188.479 22.4583 188.479 25.8198C188.479 30.1836 185.194 33.6773 177.868 33.6773C175.041 33.6773 171.869 33.1643 168.474 33.1457V33.1431ZM176.614 17.3328C179.481 17.3328 181.094 16.1188 181.094 13.9924C181.094 12.0565 179.767 10.8981 176.86 10.8981C176.215 10.8981 175.514 10.9536 174.81 11.0488V17.3301H176.614V17.3328ZM177.717 28.8903C180.981 28.8903 182.594 27.6182 182.594 25.3807C182.594 22.9899 180.735 21.6993 177.45 21.6993H174.81V28.684C175.948 28.8163 176.897 28.893 177.714 28.893L177.717 28.8903ZM193.451 27.0681V12.834C193.451 10.5939 193.242 8.90658 192.805 6.76169H199.79C199.354 8.90658 199.145 10.5966 199.145 12.834V28.4936C203.53 28.967 206.034 28.8718 209.565 26.7481L209.547 33.1431C204.746 34.8119 197.78 33.1431 192.808 33.1431C193.244 31.1119 193.453 29.3082 193.453 27.0707L193.451 27.0681ZM220.268 6.75904C219.832 8.90394 219.623 10.5939 219.623 12.8314V23.9526C219.623 27.4251 220.932 29.0781 224.159 29.0781C225.278 29.0781 226.703 28.8692 227.899 28.565V12.834C227.899 10.5939 227.69 8.90658 227.253 6.76169H234.238C233.802 8.90658 233.593 10.5966 233.593 12.834V27.0681C233.593 29.3082 233.839 30.9982 234.201 33.1405C230.575 33.1405 227.444 33.9947 223.913 33.9947C217.46 33.9947 213.929 30.8051 213.929 24.8095V12.834C213.929 10.5939 213.72 8.90658 213.284 6.76169H220.268V6.75904ZM240.123 27.0681V12.834C240.123 10.5939 239.914 8.90658 239.477 6.76169H256.502V12.9504C254.224 11.9269 252.706 11.6598 248.758 11.6598H245.817V17.2402H247.848C250.77 17.2402 252.574 17.2402 254.624 16.7456V22.535C252.574 22.0404 250.77 22.0404 247.848 22.0404H245.817V28.3429C249.765 28.7026 252.706 29.2527 256.769 26.7851V33.0479C251.529 34.7564 245.856 33.1431 239.477 33.1431C239.914 31.1119 240.123 29.3082 240.123 27.0707V27.0681ZM269.94 6C272.635 6 274.097 6.75904 275.671 6.75904H277.017V13.5931C274.586 11.5064 271.854 10.6521 269.955 10.6521C268.191 10.6521 266.996 11.4297 266.996 12.8737C266.996 13.9369 267.641 14.9049 269.749 15.9681L273.677 17.9622C277.379 19.84 279.104 22.289 279.104 25.7246C279.104 30.8871 275.213 34 269.691 34C266.938 34 265.288 33.1457 263.066 33.1457H261.625L261.643 25.7431C264.375 27.9065 267.432 29.0649 269.691 29.0649C271.95 29.0649 273.468 28.0202 273.468 26.2562C273.468 24.8888 272.537 23.7701 270.659 22.8206L266.919 20.9217C263.18 19.0228 261.492 16.5367 261.492 13.4635C261.495 9.32181 264.55 6 269.94 6Z" fill="#FFB81C"/>
<path d="M278.593 8.74521C278.593 9.95916 279.577 10.943 280.791 10.943C282.004 10.943 282.988 9.95916 282.988 8.74521C282.988 7.53127 282.004 6.54742 280.791 6.54742C279.577 6.54742 278.593 7.53127 278.593 8.74521ZM282.518 8.74521C282.518 9.69732 281.745 10.4722 280.791 10.4722C279.836 10.4722 279.064 9.69732 279.064 8.74521C279.064 7.7931 279.836 7.01819 280.791 7.01819C281.745 7.01819 282.518 7.79046 282.518 8.74521Z" fill="#FFB81C"/>
<path d="M279.886 10.0015H280.357V8.98062H280.696L281.169 10.0015H281.69L281.195 8.93566C281.484 8.83252 281.69 8.55746 281.69 8.2348C281.69 7.82222 281.357 7.48898 280.947 7.48898H279.886V10.0015ZM280.36 7.95975H280.949C281.1 7.95975 281.224 8.08141 281.224 8.2348C281.224 8.3882 281.1 8.50986 280.949 8.50986H280.36V7.95975Z" fill="#FFB81C"/>
</svg>
