<svg width="276" height="40" viewBox="0 0 276 40" fill="none" xmlns="http://www.w3.org/2000/svg">
<path d="M100.66 12.34L99.29 17.09H94.83L96.2 12.35H100.66V12.34ZM96.34 27.38L91.87 27.4L93.52 21.67H97.98C97.67 22.75 97.14 24.59 96.34 27.38ZM104.13 21.26C104.42 20.33 102.89 19.67 102.89 19.67C102.89 19.67 104.32 19.76 104.64 19.16C104.88 18.69 105.01 18.15 105.01 18.15L107.09 11.03C107.15 10.84 107.19 10.63 107.19 10.42C107.19 9.73 106.83 9.08 106.24 8.67C105.85 8.38 105.42 8.25 104.97 8.14C104.54 8.04 104.11 8.03 103.66 8.03C103.62 8.03 103.59 8.03 103.55 8.03H91.42L84.41 32.41H97.77C98.28 32.41 98.8 32.4 99.33 32.23C100.57 31.83 101.44 30.78 101.74 29.68C101.74 29.68 104.08 21.44 104.14 21.27" fill="white"/>
<path d="M115.14 17.48L114.81 23.06H111.97L115.15 17.48H115.14ZM118.05 10.69H114.44L102.56 30.77H107.69L109.87 27.12H114.21L114.23 30.77H119.16L118.91 10.69H118.04H118.05Z" fill="white"/>
<path d="M132.98 10.69L132.9 10.81L128.95 16.55L128.32 10.69H123.33L124.97 22.04L122.44 30.78H127.22H127.34H127.55L129.85 22.44L138.26 10.69H132.98Z" fill="white"/>
<path d="M17.69 12.15L18.88 8H18.45H17.49H1.19L0 12.2L5.85 12.18L0.04 32.34H6.09L11.9 12.17L17.69 12.15Z" fill="white"/>
<path d="M62.72 14.48L61.3 19.42H57.7L59.12 14.49H62.72V14.48ZM65.75 21.44L68.11 13.2C68.17 13.04 68.19 12.86 68.19 12.68C68.19 12.11 67.91 11.55 67.41 11.21C67.1 10.98 66.76 10.88 66.4 10.79C66.04 10.7 65.63 10.68 65.23 10.68C65.23 10.68 65.21 10.68 65.18 10.68H55.25L49.47 30.76H54.46L56.51 23.61H61.96C62.81 23.6 63.61 23.42 64.31 23.05C65 22.69 65.55 22.14 65.75 21.43" fill="white"/>
<path d="M75.0001 17.48L74.6701 23.06H71.8301L75.0001 17.48ZM77.9101 10.69H74.3001L62.4301 30.77H67.5601L69.7401 27.12H74.0801L74.1001 30.77H79.0301L78.7801 10.69H77.9201H77.9101Z" fill="white"/>
<path d="M22.12 17.48L21.79 23.06H18.94L22.12 17.48ZM25.03 10.69H21.42L9.55005 30.78H14.69L16.87 27.13H21.21L21.23 30.78H26.16L25.9 10.7H25.04L25.03 10.69Z" fill="white"/>
<path d="M50.21 10.69H46.84L46.76 10.8L39.54 20.9L38.15 10.69H33.77L28 30.78H32.87L35.29 22.34L36.75 27.58H38.93L43.04 22.77L40.74 30.78H45.58L51.35 10.69H50.21Z" fill="white"/>
<path d="M213.73 14.16L214.72 10.73H214.35H213.57H200.12L199.14 14.19L203.97 14.18L199.18 30.8H204.16L208.95 14.17L213.73 14.16Z" fill="white"/>
<path d="M158.27 10.73L152.49 30.82H157.48L163.4 10.73H158.27Z" fill="white"/>
<path d="M235.5 10.73L229.73 30.82H234.72L240.64 10.73H235.5Z" fill="white"/>
<path d="M192.95 10.73L190.81 18.21L187.32 18.22L189.52 10.73H184.38L178.61 30.82H183.6L186.19 21.94L189.72 21.93L187.17 30.82H192.16L198.09 10.73H192.95Z" fill="white"/>
<path d="M170.96 19.16L170.18 21.84H172.66C172.4 22.74 171.97 24.25 171.31 26.55H167.63L171.19 14.16H174.87L174.22 16.41H179.19L180.16 13.08C180.21 12.92 180.24 12.75 180.24 12.58C180.24 12.01 179.95 11.47 179.46 11.14C179.14 10.9 178.78 10.8 178.42 10.7C178.07 10.61 177.71 10.61 177.34 10.61C177.31 10.61 177.28 10.61 177.24 10.61H172.85H169.86C169.44 10.61 169.01 10.62 168.57 10.76C167.55 11.09 166.83 11.96 166.58 12.86C166.58 12.86 165.86 15.39 165.29 17.4L162.68 26.48L162.17 28.23C162.12 28.39 162.09 28.56 162.09 28.73C162.09 29.3 162.38 29.84 162.87 30.17C163.19 30.41 163.55 30.51 163.91 30.61C164.26 30.7 164.62 30.7 164.99 30.7C165.02 30.7 165.05 30.7 165.08 30.7H165.52H172.46C172.88 30.7 173.31 30.69 173.75 30.55C174.77 30.22 175.49 29.35 175.74 28.45L178.36 19.17H170.95L170.96 19.16Z" fill="white"/>
<path d="M266.42 19.29L265.64 21.97H268.12C267.86 22.87 267.42 24.38 266.76 26.68H263.08L266.64 14.29H270.32L269.67 16.54H274.64L275.61 13.21C275.66 13.05 275.69 12.88 275.69 12.71C275.69 12.14 275.4 11.6 274.91 11.27C274.59 11.03 274.23 10.93 273.87 10.83C273.52 10.74 273.16 10.74 272.79 10.74C272.76 10.74 272.73 10.74 272.7 10.74H268.31H265.32C264.9 10.74 264.47 10.75 264.03 10.89C263.01 11.22 262.29 12.09 262.04 12.99C262.04 12.99 261.32 15.52 260.75 17.53L258.14 26.61L257.63 28.36C257.58 28.52 257.55 28.69 257.55 28.86C257.55 29.43 257.84 29.97 258.33 30.3C258.65 30.54 259.01 30.64 259.38 30.74C259.73 30.83 260.09 30.83 260.46 30.83C260.49 30.83 260.52 30.83 260.55 30.83H260.99H267.93C268.35 30.83 268.78 30.82 269.22 30.68C270.24 30.35 270.96 29.48 271.21 28.58L273.83 19.3H266.42V19.29Z" fill="white"/>
<path d="M143.43 8.04001L136.4 32.39L149.83 32.37L151.2 27.42L143.87 27.44L149.47 8.04001H143.43Z" fill="white"/>
<path d="M226.39 10.73L223.12 22.35L221.1 10.73H216.73L210.95 30.82H215.82L218.61 21.17L220.6 30.8L225.75 30.82L231.52 10.73H226.39Z" fill="white"/>
<path d="M254.13 10.73L250.86 22.35L248.84 10.73H244.47L238.69 30.82H243.56L246.35 21.17L248.34 30.8L253.49 30.82L259.26 10.73H254.13Z" fill="white"/>
</svg>
