<svg width="275" height="40" viewBox="0 0 275 40" fill="none" xmlns="http://www.w3.org/2000/svg">
<path d="M12.9835 10V13.7781H8.45575V30H4.52773V13.7781H0V10H12.9835Z" fill="white"/>
<path d="M15.0944 13.958C15.0944 11.7692 16.8635 10 19.0524 10H23.82C25.9789 10 27.748 11.7692 27.748 13.958V26.042C27.748 28.2308 25.9789 30 23.82 30H19.0524C16.8635 30 15.0944 28.2308 15.0944 26.042V13.958ZM19.1124 14.9775V25.0224C19.1124 25.7121 19.6521 26.2519 20.3118 26.2519H22.5306C23.1903 26.2519 23.7301 25.7121 23.7301 25.0224V14.9775C23.7301 14.3179 23.1903 13.7781 22.5306 13.7781H20.3118C19.6521 13.7781 19.1124 14.3179 19.1124 14.9775Z" fill="white"/>
<path d="M42.581 20.1949C42.581 22.054 41.3216 23.5832 39.6425 24.0329L42.581 30H38.653L35.8043 24.1529H34.3651V30H30.437V10H38.623C40.8119 10 42.581 11.7692 42.581 13.958V20.1949ZM34.3651 13.7781V20.4048H37.4536C38.1433 20.4048 38.683 19.865 38.683 19.1753V14.9775C38.683 14.3179 38.1433 13.7781 37.4536 13.7781H34.3651Z" fill="white"/>
<path d="M44.9821 13.958C44.9821 11.7692 46.7512 10 48.9401 10H53.7077C55.8667 10 57.6357 11.7692 57.6357 13.958V26.042C57.6357 28.2308 55.8667 30 53.7077 30H48.9401C46.7512 30 44.9821 28.2308 44.9821 26.042V13.958ZM49.0001 14.9775V25.0224C49.0001 25.7121 49.5398 26.2519 50.1995 26.2519H52.4184C53.0781 26.2519 53.6178 25.7121 53.6178 25.0224V14.9775C53.6178 14.3179 53.0781 13.7781 52.4184 13.7781H50.1995C49.5398 13.7781 49.0001 14.3179 49.0001 14.9775Z" fill="white"/>
<path d="M69.0804 10H72.9784V30H69.89L64.2529 19.5652V30H60.3248V10H63.4432L69.0804 20.4348V10Z" fill="white"/>
<path d="M88.5011 10V13.7781H83.9733V30H80.0454V13.7781H75.5176V10H88.5011Z" fill="white"/>
<path d="M90.612 13.958C90.612 11.7692 92.381 10 94.57 10H99.3376C101.496 10 103.266 11.7692 103.266 13.958V26.042C103.266 28.2308 101.496 30 99.3376 30H94.57C92.381 30 90.612 28.2308 90.612 26.042V13.958ZM94.6299 14.9775V25.0224C94.6299 25.7121 95.1696 26.2519 95.8293 26.2519H98.0483C98.7078 26.2519 99.2477 25.7121 99.2477 25.0224V14.9775C99.2477 14.3179 98.7078 13.7781 98.0483 13.7781H95.8293C95.1696 13.7781 94.6299 14.3179 94.6299 14.9775Z" fill="white"/>
<path d="M119.262 10L123.61 20.045L127.928 10H131.046V30H127.118V20.7646L123.61 28.7705L120.072 20.7646V30H116.144V10H119.262Z" fill="white"/>
<path d="M144.596 30L143.756 26.2519H138.329L137.459 30H133.441L138.358 10H143.696L148.613 30H144.596ZM139.168 22.5038H142.917L141.028 14.1679L139.168 22.5038Z" fill="white"/>
<path d="M159.188 10C161.377 10 163.146 11.7692 163.146 13.958V20.1949C163.146 22.3838 161.377 24.1529 159.188 24.1529H154.931V30H151.002V10H159.188ZM159.249 19.1753V14.9775C159.249 14.3179 158.708 13.7781 158.018 13.7781H154.931V20.4048H158.018C158.708 20.4048 159.249 19.865 159.249 19.1753Z" fill="white"/>
<path d="M169.626 10V26.2519H176.401V30H165.697V10H169.626Z" fill="white"/>
<path d="M190.651 13.7781H183.035V18.1259H188.223V21.8741H183.035V26.2519H190.651V30H179.107V10H190.651V13.7781Z" fill="white"/>
<path d="M207.455 10V26.2519H214.23V30H203.526V10H207.455Z" fill="white"/>
<path d="M228.481 13.7781H220.864V18.1259H226.052V21.8741H220.864V26.2519H228.481V30H216.937V10H228.481V13.7781Z" fill="white"/>
<path d="M241.998 30L241.16 26.2519H235.731L234.862 30H230.844L235.761 10H241.099L246.016 30H241.998ZM236.571 22.5038H240.32L238.431 14.1679L236.571 22.5038Z" fill="white"/>
<path d="M260.249 13.7781H252.634V18.1259H257.82V21.8741H252.634V30H248.705V10H260.249V13.7781Z" fill="white"/>
<path d="M274.929 15.8171H271.031V14.9775C271.031 14.3179 270.462 13.7781 269.802 13.7781H267.463C266.773 13.7781 266.233 14.3179 266.233 14.9775V15.4272C266.233 15.877 266.563 16.3268 266.893 16.5068C266.893 16.5068 266.984 16.5667 273.04 19.6852C274.36 20.3448 274.929 21.6941 274.929 23.1934V26.042C274.929 28.2308 273.16 30 271.002 30H266.294C264.105 30 262.336 28.2308 262.336 26.042V24.1829H266.263V25.0224C266.263 25.7121 266.804 26.2519 267.463 26.2519H269.832C270.492 26.2519 271.031 25.7121 271.031 25.0224V23.7931C271.031 23.3433 270.731 22.8935 270.371 22.7136C270.371 22.7136 270.282 22.6536 264.225 19.5352C262.905 18.8755 262.336 17.4962 262.336 16.027V13.958C262.336 11.7692 264.105 10 266.294 10H271.002C273.16 10 274.929 11.7692 274.929 13.958V15.8171Z" fill="white"/>
</svg>
