<svg width="250" height="40" viewBox="0 0 250 40" fill="none" xmlns="http://www.w3.org/2000/svg">
<path d="M149.25 31.31H140.85C139.13 31.31 138.34 30.46 138.34 28.72V11.63C138.34 9.87999 139.13 9.03999 140.85 9.03999H149.25C151 9.03999 151.81 9.88999 151.81 11.63V16.88H146.83V13.24H143.3V27.12H146.83V23.39H151.81V28.72C151.81 30.47 151 31.31 149.25 31.31Z" fill="white"/>
<path d="M163.86 31.31L163.33 27.99H159.48L158.96 31.31H154V31.25L158.7 9.03H164.13L168.82 31.25V31.31H163.86ZM161.41 16.18L160.19 23.76H162.64L161.42 16.18H161.41Z" fill="white"/>
<path d="M180.13 31.31L176.1 20.52V31.31H171.15V9.03H176.02L180.07 19.53V9.03H185.03V31.31H180.13Z" fill="white"/>
<path d="M198.96 31.31H190.59C188.84 31.31 188.05 30.46 188.05 28.72V9.03H193.01V27.11H196.54V9.03H201.53V28.71C201.53 30.46 200.71 31.3 198.96 31.3" fill="white"/>
<path d="M215.47 31.31H207.07C205.35 31.31 204.56 30.46 204.56 28.72V11.63C204.56 9.87999 205.35 9.03999 207.07 9.03999H215.47C217.22 9.03999 218.03 9.88999 218.03 11.63V16.88H213.05V13.24H209.52V27.12H213.05V23.39H218.03V28.72C218.03 30.47 217.21 31.31 215.47 31.31Z" fill="white"/>
<path d="M229.2 31.31L226.02 22.27V31.31H221.06V9.03H226.02V17.75L228.59 9.03H234.01V9.21L230.13 19.79L234.65 31.13V31.31H229.2Z" fill="white"/>
<path d="M247.28 31.31H239.26C237.54 31.31 236.72 30.46 236.72 28.72V23.82H241.68V27.26H244.86V24.02L237.57 19.04C236.9 18.57 236.72 18.1 236.72 17.11V11.63C236.72 9.87999 237.54 9.03999 239.26 9.03999H247.31C249.03 9.03999 249.85 9.85999 249.85 11.61V16.33H244.86V13.09H241.68V16.3L248.94 21.26C249.61 21.73 249.84 22.22 249.84 23.21V28.72C249.84 30.47 248.99 31.31 247.27 31.31" fill="white"/>
<path d="M6 24.31L5.92 26.2L5.83 24.31L3.35 9.03H0V9.09L4.25 31.34H7.58L11.84 9.09V9.03H8.51L6 24.31Z" fill="white"/>
<path d="M16.9101 9L12.6001 31.25V31.31H15.9001L16.5701 27.08H20.7401L21.4101 31.31H24.7001V31.25L20.4101 9H16.9101ZM17.0001 24.22L18.6301 14.16L20.2601 24.22H16.9901H17.0001Z" fill="white"/>
<path d="M36.06 21.16C36.06 21.74 36.27 22.76 36.27 22.76L30.93 9.03H28.02V31.31H31.26V18.89C31.26 18.31 31.06 17.29 31.06 17.29L36.39 31.31H39.31V9.03H36.07V21.16H36.06Z" fill="white"/>
<path d="M52.3601 9.03H45.4201C44.1401 9.03 43.4401 9.76 43.4401 11.07V29.26C43.4401 30.57 44.1401 31.3 45.4201 31.3H52.3601C53.6701 31.3 54.4001 30.57 54.4001 29.26V23.75H51.0801V28.44H46.7601V11.89H51.0801V16.29H54.4001V11.07C54.4001 9.76 53.6701 9.03 52.3601 9.03Z" fill="white"/>
<path d="M67.7 9.03H60.47C59.19 9.03 58.49 9.76 58.49 11.07V29.26C58.49 30.57 59.19 31.3 60.47 31.3H67.7C68.98 31.3 69.71 30.57 69.71 29.26V11.07C69.71 9.76 68.98 9.03 67.7 9.03ZM66.39 28.45H61.81V11.89H66.39V28.45Z" fill="white"/>
<path d="M81.6601 28.45H77.1701V9.03H73.8501V29.26C73.8501 30.57 74.5501 31.3 75.8601 31.3H82.9501C84.2601 31.3 84.9901 30.57 84.9901 29.26V9.03H81.6701V28.45H81.6601Z" fill="white"/>
<path d="M94.38 24.31L94.29 26.2L94.2 24.31L91.72 9.03H88.37V9.09L92.63 31.34H95.95L100.21 9.09V9.03H96.88L94.38 24.31Z" fill="white"/>
<path d="M106.88 21.36H111.9V18.48H106.88V11.98H112.71V9.03H103.56V31.31H112.8V28.36H106.88V21.36Z" fill="white"/>
<path d="M124.26 21.22H125.4C126.68 21.19 127.38 20.49 127.38 19.18V11.07C127.38 9.76 126.68 9.03 125.37 9.03H116.54V31.3H119.86V21.33H120.93L124.47 31.3H127.94V31.18L124.27 21.21L124.26 21.22ZM119.86 11.89H124.06V18.94H119.86V11.89Z" fill="white"/>
</svg>
