<?xml version="1.0" encoding="iso-8859-1"?>
<svg xmlns="http://www.w3.org/2000/svg" xmlns:xlink="http://www.w3.org/1999/xlink" id="Layer_1" x="0px" y="0px" width="262px" height="89px" viewBox="0 0 62.883 21.425" xml:space="preserve">
<g>
	<g>
		<g>
			<g>
				<path fill="#FFFFFF" d="M12.595,1.453l-2.241,6.991L8.113,1.453L8.618,0H4.747l5.607,16.166L15.961,0H12.09L12.595,1.453z       M27.7,1.29c-1.004,4.056-0.832,8.098,0.366,11.859l6.968,0V5.121h-3.892v2.611h1.281v2.807h-2.409      c-0.47-2.661-0.493-5.139,0-7.927h5.02V0l-7.782,0L27.7,1.29z M20.17,7.731h3.629V5.121H20.17v-2.51h4.733V0h-7.798l0.454,1.309      v11.84h6.745l0.906-2.611h-5.04V7.731z M55.448,2.611V0h-7.246l0.448,1.29c-0.53,2.106-0.741,4.273-0.624,6.441h4.812v2.807      h-3.873l-0.906,2.611h7.39V5.121h-4.793c0.056-0.841,0.161-1.688,0.311-2.51H55.448z M37.949,0l0.448,1.29l-0.012,0.049      c-0.427,1.714-0.643,3.475-0.643,5.236v6.574h2.611V9.207h2.689v3.942h2.611V6.574c0-2.235-0.344-4.446-1.022-6.574H37.949z       M40.354,6.596c-0.001-1.335,0.12-2.678,0.359-3.985h1.964c0.24,1.307,0.361,2.65,0.36,3.985H40.354z"/>
				<g>
					<g>
						<g>
							<polygon fill="#FFFFFF" points="13.035,20.679 11.192,20.679 11.192,18.014 10.313,18.014 10.446,18.395 10.446,21.425          12.777,21.425        "/>
						</g>
						<g>
							<polygon fill="#FFFFFF" points="21.978,20.679 20.037,20.679 20.037,20.055 21.57,20.055 21.57,19.309 20.037,19.309          20.037,18.76 21.849,18.76 21.849,18.014 19.159,18.014 19.291,18.395 19.291,21.425 21.719,21.425        "/>
						</g>
						<path fill="#FFFFFF" d="M3.826,18.76v-0.746l-2.727,0l0.129,0.372c-0.249,1.001-0.214,2.054,0.106,3.04h2.492v-2.116H2.445        v0.746H3.08v0.624H1.895c-0.112-0.635-0.112-1.284,0-1.919H3.826z"/>
						<g>
							<path fill="#FFFFFF" d="M17.082,18.014h-2.624l0.132,0.381v3.03h2.492C17.443,20.316,17.443,19.122,17.082,18.014z          M15.337,20.679V18.76h1.185c0.112,0.635,0.112,1.284,0,1.919H15.337z"/>
						</g>
						<g>
							<polygon fill="#FFFFFF" points="25.832,18.014 25.832,20.164 24.352,18.014 23.546,18.014 23.678,18.395 23.678,21.425          24.425,21.425 24.425,19.275 25.905,21.425 26.578,21.425 26.578,18.014        "/>
						</g>
						<g>
							<path fill="#FFFFFF" d="M8.237,18.014H5.702l0.129,0.371c-0.242,0.97-0.224,2.023,0.106,3.04h2.3         C8.597,20.317,8.597,19.122,8.237,18.014z M6.498,20.679c-0.108-0.613-0.116-1.262,0-1.919h1.179         c0.108,0.613,0.116,1.262,0,1.919H6.498z"/>
						</g>
					</g>
					<g>
						<polygon fill="#FFFFFF" points="32.88,19.257 34.12,18.014 33.164,18.014 31.808,19.37 31.808,18.014 30.929,18.014         31.061,18.395 31.061,21.425 31.808,21.425 31.808,20.332 32.344,19.794 33.375,21.425 34.252,21.425       "/>
						<path fill="#FFFFFF" d="M60.936,18.76v-0.746l-2.688,0l0.129,0.371c-0.136,0.548-0.188,1.111-0.154,1.67h1.966v0.624H58.47        l-0.259,0.746h2.724v-2.117h-1.961c0.014-0.184,0.036-0.367,0.069-0.549H60.936z"/>
						<polygon fill="#FFFFFF" points="40.893,18.014 41.026,18.395 41.026,21.425 41.772,21.425 41.772,18.014       "/>
						<polygon fill="#FFFFFF" points="56.544,18.013 53.408,18.013 53.667,18.76 54.687,18.76 54.687,21.425 55.433,21.425         55.433,18.76 56.544,18.76       "/>
						<polygon fill="#FFFFFF" points="50.994,18.013 50.994,19.308 49.685,19.308 49.685,18.013 48.806,18.013 48.939,18.395         48.939,21.425 49.685,21.425 49.685,20.055 50.994,20.055 50.994,21.425 51.74,21.425 51.74,18.013       "/>
						<polygon fill="#FFFFFF" points="38.059,18.014 38.059,20.164 36.578,18.014 35.773,18.014 35.905,18.395 35.905,21.425         36.652,21.425 36.652,19.275 38.132,21.425 38.805,21.425 38.805,18.014       "/>
						<path fill="#FFFFFF" d="M46.718,18.76v-0.746l-2.727,0l0.129,0.372c-0.249,1.001-0.214,2.054,0.106,3.039h2.492v-2.116h-1.381        v0.746h0.635v0.624h-1.185c-0.112-0.635-0.112-1.284,0-1.919H46.718z"/>
					</g>
				</g>
				<path fill="#B8965B" d="M3.947,6.716l0.861,1.192l-1.177-0.85L3.24,9.604L2.847,7.058l-1.177,0.85l0.861-1.192L0.799,6.339      l1.733-0.377L1.671,4.771l1.184,0.855L3.24,3.544l0.384,2.082l1.184-0.855L3.947,5.963L5.68,6.339L3.947,6.716z M0,15.165v1.003      h8.02l-0.348-1.003H0z M57.924,6.716l-0.861,1.192l1.177-0.85l0.392,2.546l0.392-2.546l1.177,0.85L59.34,6.716l1.733-0.377      L59.34,5.963l0.861-1.192l-1.184,0.855l-0.384-2.082l-0.384,2.082l-1.184-0.855l0.861,1.192l-1.733,0.377L57.924,6.716z       M13.036,15.165l-0.348,1.003h49.184v-1.003H13.036z"/>
			</g>
		</g>
	</g>
	<g>
		<g>
			<path fill="#FFFFFF" d="M62.262,18.001c-0.343,0-0.62,0.278-0.62,0.621c0,0.343,0.277,0.62,0.62,0.62     c0.343,0,0.62-0.278,0.62-0.62C62.883,18.279,62.605,18.001,62.262,18.001z M62.262,19.109c-0.269,0-0.487-0.218-0.487-0.487     c0-0.269,0.218-0.488,0.487-0.488c0.269,0,0.488,0.218,0.488,0.488C62.75,18.891,62.532,19.109,62.262,19.109z M62.517,18.478     c0-0.116-0.094-0.21-0.211-0.21h-0.299v0.708h0.133v-0.288h0.095l0.134,0.288h0.147l-0.14-0.3     C62.459,18.647,62.517,18.569,62.517,18.478z M62.307,18.555h-0.166v-0.155h0.166c0.043,0,0.078,0.034,0.078,0.078     C62.384,18.521,62.35,18.555,62.307,18.555z"/>
		</g>
	</g>
</g>
</svg>
