<?xml version="1.0" encoding="UTF-8"?>
<svg xmlns="http://www.w3.org/2000/svg" id="Layer_1" width="500" height="40" viewBox="0 0 500 40">
  <defs>
    <style>.cls-1{fill:#fff;}</style>
  </defs>
  <path class="cls-1" d="M7.37,9.29l5.6,15.5h1.16l4.73-15.5h7.67l4.76,15.5h1.19l5.63-15.5h6.73l-8.11,20.72h-9.8l-4.19-15.19-4.13,15.19h-9.86L.89,9.29h6.48Z"/>
  <path class="cls-1" d="M64.2,26.5h-13.8l-1.78,3.51h-7.26l11.05-20.72h9.89l10.92,20.72h-7.23l-1.78-3.51ZM57.94,14.11h-1.25l-4.04,7.86h9.33l-4.04-7.86Z"/>
  <path class="cls-1" d="M79.66,23.15c0,1.15.12,1.65.63,1.96.69.4.75.4,5.76.43q6.82-.03,6.82-1.83c0-1.24-.47-1.55-2.5-1.58-.72,0-2.79-.09-5.01-.19-2.32-.12-4.38-.22-5.07-.22-3.04-.09-4.51-.53-5.45-1.58-.78-.93-1.16-2.27-1.16-4.35,0-3.08.72-4.94,2.19-5.75,1.63-.87,3.44-1.06,10.98-1.06,5.82,0,8.01.28,9.51,1.15,1.35.84,1.91,2.17,1.91,4.72,0,.12,0,.56-.03.96h-6.13c-.03-1.02-.12-1.3-.47-1.62-.5-.4-1.22-.47-6.01-.47-5.35,0-5.79.12-5.79,1.65,0,.75.28,1.15.88,1.34.56.16,2.19.25,6.76.37,6.73.19,8.14.37,9.45,1.15,1.53.9,2.1,2.33,2.1,5.28,0,3.51-.81,5.28-2.85,6.09-1.28.56-3.79.71-10.3.71s-8.83-.28-10.33-1.12c-1.56-.87-2.07-2.11-2.07-5.06v-.99h6.17Z"/>
  <path class="cls-1" d="M107.92,9.29v7.42h14.36v-7.42h6.67v20.72h-6.67v-7.49h-14.36v7.49h-6.67V9.29h6.67Z"/>
  <path class="cls-1" d="M138.52,9.29v20.72h-6.67V9.29h6.67Z"/>
  <path class="cls-1" d="M152.6,9.29l10.92,15.44h.66l-.16-15.44h6.48v20.72h-11.05l-10.98-15.47h-.69l.16,15.47h-6.48V9.29h11.14Z"/>
  <path class="cls-1" d="M200.61,18.27v.56c0,2.05-.13,5.59-.22,6.59-.25,2.42-1.6,3.85-4.1,4.35-2.13.44-4.35.56-9.98.56-7.17,0-9.39-.28-11.14-1.46-1.16-.78-1.75-1.93-2-3.95-.13-.9-.19-2.95-.19-5.59,0-5.62.53-7.67,2.28-8.89,1.5-1.06,4.82-1.46,12.14-1.46,7.76,0,10.64.53,12.02,2.14.88,1.03,1.13,2.3,1.16,5.34h-6.35c-.03-1.21-.09-1.46-.5-1.74-.63-.43-2.1-.56-6.85-.56-7.51,0-7.54.03-7.54,5.41,0,3.51.19,4.57.88,5.13q.72.56,6.6.65c5.95-.03,6.45-.06,7.17-.62.34-.34.44-.84.44-2.33h-8.36v-4.13h14.55Z"/>
  <path class="cls-1" d="M227.36,9.29v5.28h-9.29v15.44h-6.67v-15.44h-9.29v-5.28h25.26Z"/>
  <path class="cls-1" d="M255.4,10.41c1.6,1.21,2.07,3.29,2.07,9.23s-.47,8.05-2.07,9.26c-1.6,1.21-3.57,1.43-12.21,1.43s-10.73-.22-12.33-1.43c-1.63-1.24-2.07-3.29-2.07-9.38s.47-7.89,2.07-9.1c1.6-1.21,3.57-1.43,12.27-1.43s10.67.22,12.27,1.43ZM237.06,14.64c-1.56.4-1.91,1.37-1.91,5.56,0,2.58.22,3.42.94,4.01.84.65,1.85.75,7.1.75s6.17-.12,6.98-.75c.72-.56.94-1.46.94-3.98,0-2.98-.16-4.16-.72-4.88-.66-.9-1.38-.99-7.26-.99-4.32,0-5.2.03-6.07.28Z"/>
  <path class="cls-1" d="M271.11,9.29l10.92,15.44h.66l-.16-15.44h6.48v20.72h-11.05l-10.98-15.47h-.69l.16,15.47h-6.48V9.29h11.14Z"/>
  <path class="cls-1" d="M325.94,22.03c.03,1.18.06,1.65.06,1.96,0,3.26-.85,4.78-3,5.56-1.69.56-4.01.78-8.79.78-7.95,0-10.58-.25-12.3-1.12-1.53-.78-2.22-1.99-2.47-4.32-.09-.93-.12-2.64-.12-5.1,0-4.81.16-6.49.66-7.67,1.19-2.61,3.5-3.14,14.27-3.14,5.38,0,7.32.19,8.76.87,1.91.9,2.6,2.42,2.6,5.84v1.02h-6.35c-.06-1.21-.12-1.49-.38-1.83-.38-.53-2.13-.71-6.45-.71-3.97,0-5.13.12-5.76.62-.75.62-1,1.83-1,4.97,0,5.31.09,5.37,6.79,5.37s7.07-.03,7.1-3.11h6.38Z"/>
  <path class="cls-1" d="M349.06,26.5h-13.8l-1.78,3.51h-7.26l11.05-20.72h9.89l10.92,20.72h-7.23l-1.78-3.51ZM342.8,14.11h-1.25l-4.04,7.86h9.33l-4.04-7.86Z"/>
  <path class="cls-1" d="M359.01,9.29h14.3c3.75,0,4.38.03,5.45.16,4.13.56,5.29,2.21,5.29,7.61,0,4.5-.78,6.31-3.19,7.24-1.41.53-2.85.65-7.48.65h-8.01v5.06h-6.35V9.29ZM373.32,19.76c2.88-.03,3-.03,3.54-.31.63-.34.84-.9.84-2.39s-.25-2.05-1.03-2.36c-.44-.19-.5-.19-3.35-.22h-7.95v5.28h7.95Z"/>
  <path class="cls-1" d="M392.78,9.29v20.72h-6.67V9.29h6.67Z"/>
  <path class="cls-1" d="M419.79,9.29v5.28h-9.29v15.44h-6.67v-15.44h-9.29v-5.28h25.26Z"/>
  <path class="cls-1" d="M439.31,26.5h-13.8l-1.78,3.51h-7.26l11.05-20.72h9.89l10.92,20.72h-7.23l-1.78-3.51ZM433.05,14.11h-1.25l-4.04,7.86h9.33l-4.04-7.86Z"/>
  <path class="cls-1" d="M455.93,9.29v15.44h14.83v5.28h-21.5V9.29h6.67Z"/>
  <path class="cls-1" d="M478.3,23.15c0,1.15.13,1.65.63,1.96.69.4.75.4,5.76.43q6.82-.03,6.82-1.83c0-1.24-.47-1.55-2.5-1.58-.72,0-2.79-.09-5.01-.19-2.32-.12-4.38-.22-5.07-.22-3.04-.09-4.51-.53-5.45-1.58-.78-.93-1.16-2.27-1.16-4.35,0-3.08.72-4.94,2.19-5.75,1.63-.87,3.44-1.06,10.98-1.06,5.82,0,8.01.28,9.51,1.15,1.35.84,1.91,2.17,1.91,4.72,0,.12,0,.56-.03.96h-6.13c-.03-1.02-.12-1.3-.47-1.62-.5-.4-1.22-.47-6.01-.47-5.35,0-5.79.12-5.79,1.65,0,.75.28,1.15.88,1.34.56.16,2.19.25,6.76.37,6.73.19,8.14.37,9.45,1.15,1.53.9,2.1,2.33,2.1,5.28,0,3.51-.81,5.28-2.85,6.09-1.28.56-3.79.71-10.3.71s-8.83-.28-10.33-1.12c-1.56-.87-2.07-2.11-2.07-5.06v-.99h6.17Z"/>
</svg>
