<svg width="334" height="40" viewBox="0 0 334 40" fill="none" xmlns="http://www.w3.org/2000/svg">
<g clip-path="url(#clip0_8_1513)">
<path d="M249.8 30.1L254.5 4.70001H238.2L244 8.50001L240.6 26.4L240.1 26.9H233.4L231.9 34.7H245L249.8 30.1Z" fill="white"/>
<path d="M251.6 34.7H274L275.5 27.2H262.9L263.6 23.2H274.8L276.2 15.7H265L265.7 12.2H278.1L279.5 4.70001H257.2L251.6 34.7Z" fill="white"/>
<path d="M307.2 4.70001H281.9L280.5 12.6H288.3L284.1 34.7H293.9L298.1 12.6H305.7L307.2 4.70001Z" fill="white"/>
<path d="M332.7 15.1L333.8 9.20001L329.1 4.70001H313.3L308.6 9.20001L306.9 18.6L311.1 22.6L321.4 24.1L320.8 27.3H315L315.6 23.9H305.8L304.7 30.2L309.4 34.7H325.4L330 30.3L331.8 20.7L327.6 16.7L317.3 15.2L317.9 12.1H323.5L322.9 15.1H332.7Z" fill="white"/>
<path d="M29 4.70001L24.7 19.3L24.8 4.70001H13.3L8.4 19.2L9.2 4.70001H-6.5L-0.5 8.70001L-0.8 34.7H11L16.4 19V34.7H27.5L37.8 4.70001H29Z" fill="white"/>
<path d="M53.4 12.1H58.1L59.6 4.70001H40.2L38.9 12.1H43.5L40.7 27.4H36L34.7 34.7H53.9L55.3 27.4H50.5L53.4 12.1Z" fill="white"/>
<path d="M83.2 34.7L88.7 4.70001H79.8L77.2 18.7L72.2 4.70001H62.4L56.9 34.7H65.8L68.5 20.3L73.4 34.7H83.2Z" fill="white"/>
<path d="M118.1 4.70001H109.1L106.5 18.7L101.6 4.70001H91.7L86.2 34.7H95.1L97.8 20.3L102.8 34.7H112.5L118.1 4.70001Z" fill="white"/>
<path d="M121.6 27.4H116.9L115.6 34.7H134.9L136.2 27.4H131.4L134.3 12.1H139.1L140.5 4.70001H121.1L119.8 12.1H124.4L121.6 27.4Z" fill="white"/>
<path d="M157.1 18.2L156.8 18.5H150.5L151.7 11.9H158.1L158.2 12L157.1 18.2ZM163.8 4.70001H143.3L137.7 34.7H147.6L149.3 25.6H161.8L166.5 21.1L168.7 9.30001L163.8 4.70001Z" fill="white"/>
<path d="M192.8 12.2L194.1 4.70001H171.9L166.3 34.7H188.7L190.2 27.2H177.6L178.3 23.2H189.5L190.9 15.7H179.7L180.3 12.2H192.8Z" fill="white"/>
<path d="M206.4 17.3L205 24.2H209.6L209.1 27.2L202.6 27.3L202.3 26.9L204.9 12.7L205.4 12.3H211.8L211.2 15.7H221L222.2 9.30001L217.4 4.70001H200.5L195.7 9.30001L191.9 30L196.8 34.7H213.7L218.3 30.3L220.8 17.3H206.4Z" fill="white"/>
</g>
<defs>
<clipPath id="clip0_8_1513">
<rect width="334" height="40" fill="white"/>
</clipPath>
</defs>
</svg>
