<svg id="Layer_2" data-name="Layer 2" xmlns="http://www.w3.org/2000/svg" width="649.2612" height="179.6311" viewBox="0 0 649.2612 179.6311">
  <title>Columbus Crew wordmark</title>
  <g>
    <path d="M431.8619,144.9259c-5.8653-1.219-10.4916-1.159-10.5216-3.5371v-3.4972c0-1.7686,1.2989-3.4972,4.6762-3.4972h5.026c2.5879,0,4.7262.46,4.956,3.9468V140.45h8.3433l-.01-3.9668c0-4.5763-2.1782-9.4724-11.141-9.4724H424.248c-5.9452,0-11.251,2.5679-11.251,9.5523v7.504c0,6.9344,10.9912,7.3241,16.4368,8.5132,4.4065.9592,6.6646,1.309,6.5847,4.5264v1.4488c-.02,3.5372-2.1183,4.3065-5.0359,4.3065h-4.956c-2.5879,0-4.6862-.7894-4.6862-4.2766v-2.6479H413.007l-.02,5.2957c0,5.7854,4.5964,9.0228,10.4517,9.0228H434.15c4.7162,0,10.4416-2.538,10.4416-9.2026v-6.9444c0-7.5539-6.0151-7.7837-12.73-9.1826"/>
    <path d="M476.9986,84.1728c0,17.5459-12.14,20.9331-23.5411,20.2137q-19.7241-1.274-39.4682-2.1583V11.6311q18.99.8543,37.97,2.0484c11.4008.7194,23.541,5.9552,23.541,23.5011v3.737c0,8.9228-3.747,14.3785-10.4915,16.6366,8.2433,2.8877,11.99,11.0911,11.99,20.0039ZM450.61,49.5506c5.8553.37,6.9045-3.717,6.9045-7.0244V37.34c0-3.1575.29-7.464-7.2042-7.9436q-9.1576-.57-18.3053-1.0591V48.4715q9.3076.4946,18.605,1.0791m1.1991,38.9087c5.8553.38,7.2041-2.6878,7.2041-5.8553V73.6812c0-4.5963-1.4987-7.8737-7.2041-8.2334-1.5088-.07,2.9975.12-19.8041-1.1591V87.3q9.907.5246,19.8041,1.159"/>
    <path d="M179.236,140.3516v-3.8769c0-7.494-5.8153-9.4924-11.0511-9.4924h-9.4024c-5.2358,0-10.8213,1.9984-10.8213,9.4924v24.1106c0,7.494,5.5855,9.5024,10.8213,9.5024h9.4024c5.2358,0,11.0511-2.0084,11.0511-9.5024v-4.6662h-8.5032v1.9884c0,4.2166-1.8485,4.8261-4.5464,4.8261h-5.4156c-2.6878,0-4.5363-.61-4.5363-4.8261V139.1526c0-4.2166,1.8485-4.8161,4.5363-4.8161h5.4156c2.6978,0,4.5464.5995,4.5464,4.8161v1.199Z"/>
    <path d="M497.7419,140.3516v-3.8769c0-7.494-5.8053-9.4924-11.0412-9.4924h-9.4124c-5.2358,0-10.8213,1.9984-10.8213,9.4924v24.1106c0,7.494,5.5855,9.5024,10.8213,9.5024h9.4124c5.2358,0,11.0412-2.0084,11.0412-9.5024v-4.6662h-8.4932v1.9884c0,4.2166-1.8585,4.8261-4.5463,4.8261h-5.4156c-2.6879,0-4.5464-.61-4.5464-4.8261V139.1526c0-4.2166,1.8585-4.8161,4.5464-4.8161h5.4156c2.6878,0,4.5463.5995,4.5463,4.8161v1.199Z"/>
    <path d="M235.9124,142.5229c0,5.8553-2.0184,9.0527-7.0743,10.3816l8.8129,16.7266h-9.7222l-8.3233-16.3269h-4.5063v16.3269h-8.3233V127.6648h18.2453c5.2758,0,10.8912,1.9984,10.8912,10.1319Zm-12.21,3.4572c2.7078,0,3.8869-.5995,3.8869-3.4572v-4.0667c0-2.7977-1.249-3.4572-4.0268-3.4572h-8.4632V145.98Z"/>
    <polygon points="275.242 151.646 290.51 151.646 290.51 144.321 275.242 144.321 275.242 134.999 294.666 134.999 291.948 127.665 266.918 127.665 266.918 169.631 294.666 169.631 294.666 162.307 275.242 162.307 275.242 151.646"/>
    <polygon points="356.73 127.306 350.375 153.235 345.14 131.912 336.487 131.912 331.451 152.456 325.286 127.306 316.623 127.306 327.074 169.952 327.154 169.952 335.737 169.952 335.817 169.952 340.813 149.578 345.809 169.952 346.269 169.952 354.472 169.952 354.932 169.952 365.393 127.306 356.73 127.306"/>
    <path d="M612.3228,66.35c-12.68-4.3065-22.9216-5.2358-22.8117-10.4916v-4.966c0-10.1119,5.4556-9.4424,11.3908-8.8529,2.6678.33,9.5224,1.2091,9.6423,1.229,5.5955.7194,9.6222,2.2682,10.1219,9.882V57.747c7.2142.9692,10.8113,1.4588,18.0155,2.478V51.512h-.01c-.01-9.4124-4.1467-15.3976-9.8421-19.0247a26.8446,26.8446,0,0,0-4.6562-2.3681A37.85,37.85,0,0,0,615.18,27.841c-6.5447-.8593-9.8221-1.279-16.3768-2.0883-1.4988-.18-2.2482-.28-3.747-.46-7.8637-.9592-16.0871.16-20.4236,6.2749A15.5152,15.5152,0,0,0,571.5156,41.6V59.5556c0,15.0579,23.7709,18.635,35.5615,22.7117,9.5223,3.2973,14.3984,4.7362,14.2285,11.6906V96.266c-.01,4.0567-.8593,6.4048-2.3181,7.6938-1.9685,1.0991-5.026,1.299-8.5532,1.0692-2.3581-.3-10.6014-1.3389-10.7214-1.3589-5.6055-.6894-9.6423-2.1782-10.1418-9.8121V87.4032c-7.2142-.8593-10.8313-1.279-18.0455-2.0883V96.8156h.03c.19,6.225,2.2382,10.8313,5.3357,14.1886a24.3765,24.3765,0,0,0,10.3417,6.3849,40.27,40.27,0,0,0,7.8337,1.7386c6.4848.7894,9.7222,1.199,16.207,2.0383,1.7986.23,2.6978.35,4.4964.58,10.1919,1.3389,20.9432-.6395,23.0815-12.67.1-.55.21-1.0991.27-1.6886.01-.08.01-.17.02-.25.06-.6295.12-1.259.12-1.9384V89.9411c0-16.3868-12.43-18.675-26.9383-23.591"/>
    <path d="M77.226,51.458V43.0948c0-16.157-12.5-19.0847-23.7609-17.7058-8.1035.9892-12.14,1.4988-20.2337,2.5679C21.98,29.4358,10,35.4709,10,51.6279v52.0182c0,16.167,11.98,18.7949,23.2313,17.3161,8.0835-1.0691,12.13-1.5787,20.2337-2.5679C64.726,117.0154,77.226,111.28,77.226,95.113V85.0311c-7.3141.8193-10.9712,1.239-18.2853,2.1183v4.3065c0,9.0927-3.9868,10.8713-9.7821,11.5907-4.6563.57-6.9844.8793-11.6407,1.4788-5.7753.7494-9.7621-.02-9.7621-9.1127V54.9553c0-9.0927,3.9868-10.9312,9.7621-11.6806,4.6563-.61,6.9844-.9093,11.6407-1.4888,5.7954-.7094,9.7821.12,9.7821,9.2126v2.5779c7.3141-.8793,10.9712-1.299,18.2853-2.1183"/>
    <path d="M224.0649,102.87c-21.6027.9692-32.404,1.5887-53.9866,3.0875q0-45.2936,0-90.5972c7.1942-.5,10.7913-.7394,17.9855-1.1791q0,37.395-.01,74.78c14.3984-.8793,21.6026-1.259,36.0111-1.9084Z"/>
    <path d="M336.64,10.0313c7.504,16.147,11.2609,24.2405,18.7649,40.4475,7.504-16.0071,11.2609-23.9907,18.7649-39.9279,8.4133.19,12.61.3,21.0231.56q-.015,45.3086,0,90.6072c-7.2041-.23-10.8112-.33-18.0155-.5V47.2914c-6.7246,13.3593-10.0919,20.0639-16.8265,33.4631-3.9568-.06-5.9452-.09-9.902-.13-6.7246-13.5991-10.0919-20.3936-16.8165-33.9327,0,21.5727.01,32.364.01,53.9366-7.2142-.04-10.8213-.03-18.0255,0q.015-45.3086,0-90.6072c8.4033-.03,12.61-.03,21.0231.01"/>
    <path d="M492.6641,16.3293c7.1742.54,10.7713.8293,17.9456,1.4289V83.4953c0,9.0428,4.0367,10.6614,9.8621,11.181,4.0168.35,6.0251.53,10.0419.9093,5.8253.53,9.8521-.35,9.8521-9.4025V20.446c7.1743.6994,10.7514,1.0591,17.9156,1.8085V93.7371c0,16.0771-12.08,19.1146-23.4412,18.0455-7.4739-.7094-11.2209-1.0492-18.7049-1.6886-11.3609-.9792-23.4711-6.205-23.4711-22.2821V16.3293"/>
    <path d="M233.1846,11.8709c7.1942-.29,10.7813-.42,17.9755-.6595V76.9486c0,9.0428,4.0467,10.2018,9.882,10.032,4.0268-.12,6.0451-.17,10.0719-.26,5.8453-.14,9.892-1.5088,9.892-10.5515V10.4221c7.1942-.14,10.7913-.19,17.9856-.28V81.6348c0,16.0671-12.14,20.5235-23.5311,20.7733-7.504.16-11.2609.26-18.7549.49-11.3909.35-23.5211-3.4672-23.5211-19.5443Z"/>
    <path d="M111.1567,112.2072c-11.271,1.0791-23.2713-1.9184-23.2713-17.8856V42.1436c0-15.9672,12-21.5127,23.2713-22.6018,7.404-.7094,11.1111-1.0492,18.5151-1.6987,11.2809-.9892,23.3013,2.3581,23.3013,18.3253v52.178c0,15.9672-12.02,21.173-23.3013,22.1522-7.404.6495-11.1111.9892-18.5151,1.7086M105.6711,46.02V86.7976c0,8.9828,4.0068,9.8621,9.7921,9.3125,3.9568-.37,5.9452-.55,9.902-.9093,5.7854-.52,9.7921-2.1283,9.7921-11.1111V43.3126c0-8.9828-4.1566-9.7621-10.0919-9.2326-.15.01-9.4624.8593-9.4624.8593-5.7754.55-9.932,2.0983-9.932,11.0811"/>
    <polygon points="619.358 133.958 618.019 133.958 618.019 128.432 616.041 128.432 616.041 127.303 621.327 127.303 621.327 128.432 619.358 128.432 619.358 133.958"/>
    <polygon points="623.427 133.958 622.178 133.958 622.178 127.303 624.186 127.303 625.395 131.839 626.594 127.303 628.603 127.303 628.603 133.958 627.364 133.958 627.364 128.722 626.035 133.958 624.746 133.958 623.427 128.722 623.427 133.958"/>
  </g>
</svg>
