<?xml version="1.0" encoding="UTF-8" standalone="no"?>
<!-- Generator: Adobe Illustrator 14.0.0, SVG Export Plug-In . SVG Version: 6.00 Build 43363)  -->

<svg
   version="1.1"
   id="Layer_1"
   x="0px"
   y="0px"
   width="206.743"
   height="38.483002"
   viewBox="0 0 206.743 38.483"
   enable-background="new 0 0 250 204.727"
   xml:space="preserve"
   sodipodi:docname="Major League Soccer MLS wordmark (1997-2014).svg"
   inkscape:version="1.3 (1:1.3+202307231459+0e150ed6c4)"
   xmlns:inkscape="http://www.inkscape.org/namespaces/inkscape"
   xmlns:sodipodi="http://sodipodi.sourceforge.net/DTD/sodipodi-0.dtd"
   xmlns="http://www.w3.org/2000/svg"
   xmlns:svg="http://www.w3.org/2000/svg"
   xmlns:rdf="http://www.w3.org/1999/02/22-rdf-syntax-ns#"
   xmlns:cc="http://creativecommons.org/ns#"
   xmlns:dc="http://purl.org/dc/elements/1.1/"><metadata
     id="metadata81"><rdf:RDF><cc:Work
         rdf:about=""><dc:format>image/svg+xml</dc:format><dc:type
           rdf:resource="http://purl.org/dc/dcmitype/StillImage" /></cc:Work></rdf:RDF></metadata><defs
     id="defs79" /><sodipodi:namedview
     pagecolor="#ffffff"
     bordercolor="#666666"
     borderopacity="1"
     objecttolerance="10"
     gridtolerance="10"
     guidetolerance="10"
     inkscape:pageopacity="0"
     inkscape:pageshadow="2"
     inkscape:window-width="2560"
     inkscape:window-height="1376"
     id="namedview77"
     showgrid="false"
     inkscape:zoom="1.1527546"
     inkscape:cx="-51.615496"
     inkscape:cy="-40.771904"
     inkscape:window-x="1920"
     inkscape:window-y="27"
     inkscape:window-maximized="1"
     inkscape:current-layer="g74"
     inkscape:showpageshadow="2"
     inkscape:pagecheckerboard="0"
     inkscape:deskcolor="#d1d1d1" /><g
     id="g74"
     transform="translate(-21.637,-142.85301)"><polygon
       points="41.411,151.878 53.137,179.919 73.494,179.919 85.247,151.878 85.247,179.919 105.01,179.919 105.01,144.288 71.105,144.288 63.329,163.724 55.553,144.288 21.637,144.288 21.637,179.919 41.411,179.919 "
       id="polygon46"
       transform="translate(0,0.001005)" /><polygon
       points="138.682,169.449 138.682,144.288 115.737,144.288 115.737,179.919 166.858,179.919 166.858,169.449 "
       id="polygon48"
       transform="translate(0,0.001005)" /><path
       d="m 196.958,154.67101 c 0,-0.915 2.656,-1.579 9.074,-1.579 9.459,0 18.465,1.972 18.465,1.972 v -10.774 c 0,0 -12.916,-1.437 -20.556,-1.437 -22.917,0 -31.462,5.34 -31.462,12.422 0,14.358 31.462,10.808 31.462,14.176 0,1.559 -6.983,1.823 -9.531,1.823 -11.753,0 -21.274,-2.575 -21.274,-2.575 v 10.855 c 0,0 11.201,1.782 23.822,1.782 14.017,0 31.422,-1.958 31.422,-12.638 0,-14.278 -31.422,-10.774 -31.422,-14.027"
       id="path50"
       inkscape:connector-curvature="0" /></g></svg>
