<?xml version="1.0" encoding="UTF-8"?><svg id="Layer_2" xmlns="http://www.w3.org/2000/svg" viewBox="0 0 44.79 44.79"><defs><style>.cls-1{fill:#fff;}.cls-2{fill:#9fd2ff;}.cls-3{fill:#f15f3d;}.cls-4{fill:#0d0f27;}</style></defs><g id="Guides_DO_NOT_EXPORT_"><g><g><circle class="cls-4" cx="22.39" cy="22.39" r="22.39"/><path class="cls-2" d="M22.39,42.29c10.99,0,19.89-8.91,19.89-19.89S33.38,2.5,22.39,2.5,2.5,11.41,2.5,22.4s8.9,19.89,19.89,19.89Z"/><path class="cls-3" d="M22.39,43.85C10.55,43.85,.93,34.21,.93,22.38S10.55,.91,22.39,.91s21.47,9.63,21.47,21.47-9.63,21.47-21.47,21.47h0ZM22.39,1.53C10.9,1.53,1.55,10.88,1.55,22.38s9.35,20.84,20.85,20.84,20.85-9.35,20.85-20.85S33.89,1.53,22.39,1.53Z"/><path class="cls-1" d="M22.37,36.11c7.58,0,13.72-6.15,13.72-13.72s-6.15-13.72-13.72-13.72-13.72,6.15-13.72,13.73,6.15,13.72,13.72,13.72Z"/></g><path class="cls-4" d="M20.85,32.3c-4.67-.73-8.39-4.47-8.39-9.82,0-3.25,1.44-5.59,3.2-7.16l1.27,1.27c-1.55,1.41-2.58,3.25-2.58,6,0,4.34,2.88,7.4,6.64,8.03,0,.92-.05,1.33-.16,1.68h0Zm11.4-7.68v.11c-.49,.79-.62,2.82-2.82,5.02-1.25,1.25-3.23,2.25-5.37,2.55-.11-.35-.16-.76-.16-1.71,1.6-.22,3.28-1.01,4.37-2.09,1.01-1.01,1.52-2.07,1.52-3.17,0-.19-.03-.41-.08-.6v-.11h2.55Zm-8.93,6.57c0,.82,.05,1.08,.3,1.65v.11h-2.33v-.11c.24-.57,.3-.84,.3-1.65v-6.78h.05l1.68,1.6v5.18h0Zm-6.13-10.71c0-.82-.05-1.08-.3-1.65v-.11h2.04l7.11,6.64v-4.88c0-.82-.05-1.08-.3-1.65v-.11h2.28v.11c-.24,.57-.3,.84-.3,1.65v5.34c0,.82,.05,1.08,.24,1.65v.11h-2.11l-6.97-6.56v4.8c0,.82,.05,1.08,.3,1.65v.11h-2.22v-.11c.19-.57,.24-.84,.24-1.65v-5.34h0Zm12.18-5.97c-.38-.32-1.06-.82-1.55-1.06,.08-.13,.11-.27,.11-.49v-.03h3.15v.11c-.6,.46-1.11,.9-1.71,1.46h0Zm-15.46-1.57h3.39v.05c0,.41,.16,.79,.73,1.36l4.47,4.47,3.31-3.34c.43,.19,1.03,.6,1.38,.98l-3.88,3.69v1.76h-.05l-6.7-6.51c-.87-.84-1.68-1.63-2.66-2.36v-.11h0Zm15.68,7.14c.03-.13,.05-.32,.05-.49,0-.87-.43-1.93-1.85-3.34-1.14-1.14-3.04-2.2-5.21-2.2-1.52,0-2.47,.35-3.25,.84-1.01-1.01-1.14-1.19-1.19-1.33,1.11-.68,2.47-1.14,4.47-1.14,2.55,0,4.96,1.08,6.64,2.77,1.87,1.87,2.28,3.72,2.88,4.86v.11h-2.55v-.08h0Zm-21.05,2.33c0,7.62,6.24,13.86,13.86,13.86s13.86-6.24,13.86-13.86-6.24-13.86-13.86-13.86-13.86,6.24-13.86,13.86Z"/><g><path class="cls-4" d="M5.85,28.2c.06-.06,.08-.13,.04-.27l-.38-1.35-.97,.27c-.13,.04-.22,.11-.26,.23h0l-.3-1.11h0c.1,.08,.2,.09,.34,.05l2.76-.78c.13-.04,.22-.1,.26-.23h0c.28,1.11,.56,2.1,.85,3.01l-.82,.23h0c.06-.07,.09-.14,.05-.28-.16-.52-.35-1.18-.52-1.8l-.7,.19,.38,1.35c.04,.13,.09,.19,.17,.2h0s-.92,.27-.92,.27h0Z"/><path class="cls-4" d="M6.71,29.11c.93-.51,2.05-.21,2.58,.71,.52,.93,.19,2.02-.67,2.5-.93,.5-2.05,.21-2.58-.71-.52-.93-.21-2.02,.67-2.49Zm1.44,2.51c.56-.32,.73-.95,.45-1.44-.29-.52-.91-.68-1.44-.38-.55,.31-.73,.95-.45,1.45,.29,.51,.92,.67,1.44,.38Z"/><path class="cls-4" d="M8.87,32.8c.77-.72,1.94-.72,2.67,.05,.74,.77,.69,1.91-.03,2.58-.77,.71-1.94,.72-2.67-.05-.73-.77-.7-1.9,.03-2.58Zm2.02,2.08c.46-.44,.47-1.1,.08-1.51-.41-.43-1.05-.43-1.49-.01-.46,.44-.47,1.1-.07,1.51,.41,.42,1.06,.42,1.48,.01Z"/><path class="cls-4" d="M13.53,35.64c-.29-.18-.57-.37-.83-.55-.12-.08-.2-.07-.27-.02h0l.46-.73c.73,.5,2.06,1.34,2.83,1.78l-.46,.73h-.01c0-.09,0-.17-.14-.24-.26-.15-.55-.32-.85-.5l-1.3,2.07c-.07,.12-.09,.23-.04,.34h0s-.98-.61-.98-.61h0c.13,0,.22-.07,.3-.19l1.3-2.06h0Z"/><path class="cls-4" d="M16.23,36.64c.05-.13,.05-.24-.03-.34h0c.79,.29,1.35,.5,2,.73,.56,.19,.81,.7,.61,1.24v.03c-.1,.24-.26,.43-.53,.52,.23,.28,.25,.61,.14,.91l-.02,.06c-.19,.53-.69,.74-1.28,.57-.26-.07-.52-.16-.79-.26-.44-.16-.9-.36-1.42-.57h0c.12-.04,.2-.11,.25-.25l1.07-2.64h0Zm.51,2.85c.15,.05,.3,.1,.45,.15,.2,.06,.37,0,.44-.2v-.03c.09-.2,0-.37-.2-.45l-1.07-.4-.27,.66c.21,.09,.43,.18,.66,.26h0Zm.13-2.2l-.27,.66,.94,.34c.21,.08,.38,0,.45-.19v-.03c.09-.19,.01-.36-.2-.44-.3-.1-.61-.22-.91-.34h0Z"/><path class="cls-4" d="M21.6,38.19l.91,2.62c.06,.19,.12,.25,.2,.3h0s-1.14,0-1.14,0h0c.08-.05,.11-.13,.05-.32l-.11-.35-1.56-.14-.17,.33c-.1,.17-.07,.26,0,.32h0s-1.08-.19-1.08-.19h0c.09-.04,.15-.09,.25-.27l1.37-2.41c.14-.26,.22-.39,.32-.59l.77,.07c.06,.21,.1,.36,.2,.64h0Zm-.3,1.54l-.39-1.21-.61,1.12,1,.09h0Z"/><path class="cls-4" d="M23.49,41.08h0c.09-.09,.12-.2,.1-.34l-.32-2.85c-.01-.14-.08-.23-.19-.29h0s1.14-.13,1.14-.13h0c-.09,.09-.12,.19-.11,.33l.27,2.42c.5-.03,1.06-.12,1.57-.21,.13-.03,.19-.08,.22-.16h0l.12,.86c-.76,.14-1.91,.29-2.83,.38h.01Z"/><path class="cls-4" d="M27.17,40.5h0c.07-.11,.08-.22,.03-.35l-.88-2.73c-.04-.13-.12-.21-.24-.25h0s1.09-.36,1.09-.36h0c-.07,.11-.08,.21-.04,.35l.75,2.32c.48-.13,1.02-.33,1.49-.52,.12-.05,.17-.12,.18-.21h0l.29,.81c-.71,.29-1.8,.66-2.69,.94h0Z"/><path class="cls-4" d="M33.7,35.79h.01l.56,.67c-.08,.33-.38,.76-.8,1.05-.85,.6-2.01,.47-2.6-.35-.61-.86-.46-1.97,.44-2.61,.35-.25,.62-.27,.74-.35,.05-.03,.07-.08,.06-.16h0s.88,.85,.88,.85h0c-.23-.07-.72-.09-1.18,.23-.54,.39-.62,1.04-.26,1.53,.35,.48,1.02,.59,1.51,.23,.45-.32,.66-.84,.64-1.09h0Z"/><path class="cls-4" d="M35.34,35.91h0c.01-.13-.03-.23-.13-.32l-2.09-1.97c-.1-.1-.21-.12-.33-.1h0l.79-.84h0c-.01,.12,.02,.23,.12,.32l1.78,1.67c.35-.35,.73-.78,1.06-1.18,.08-.1,.09-.19,.06-.27h0s.66,.56,.66,.56c-.48,.6-1.25,1.46-1.9,2.12h0Z"/><path class="cls-4" d="M38,31.34c.21-.39,.16-.84-.34-1.07l-1.52-.73c-.13-.06-.23-.07-.34-.01h0l.53-1.03h0c.01,.13,.08,.23,.2,.29l1.61,.79c.85,.41,1,1.29,.53,2.15-.45,.81-1.3,1.2-2.1,.73l-1.56-.93c-.12-.07-.23-.08-.34-.03h0l.59-1h0c0,.13,.07,.22,.19,.29l1.44,.86c.48,.29,.89,.08,1.1-.3h0Z"/><path class="cls-4" d="M36.92,27.91c-.13-.04-.24-.03-.34,.05h0c.24-.81,.4-1.39,.57-2.05,.14-.57,.63-.87,1.18-.71h.04c.25,.08,.45,.23,.57,.49,.27-.25,.59-.29,.9-.21h.06c.54,.16,.81,.64,.66,1.28-.16,.66-.36,1.35-.63,2.21h0c-.04-.12-.12-.19-.26-.23l-2.74-.85h0Zm.59-.68l.69,.21,.26-.96c.06-.22-.03-.38-.23-.43h-.05c-.2-.07-.35,.01-.41,.24-.08,.31-.16,.63-.26,.94h0Zm2.32-.51c.05-.2-.03-.37-.24-.43h-.04c-.21-.07-.36,.03-.42,.25l-.3,1.1,.68,.21c.12-.36,.25-.75,.33-1.13h0Z"/></g><g><path class="cls-4" d="M5.74,17.38l1.8,.57c.14,.04,.24,.03,.34-.04h0l-.33,1.05h0c-.04-.13-.12-.21-.25-.25l-2.75-.89c-.13-.04-.25-.03-.34,.03h0l.29-.85,2.54-.95-1.62-.68c-.13-.05-.23-.05-.34,.03h-.01l.4-1.02h0c.03,.12,.1,.2,.23,.26l2.65,1.08c.13,.05,.23,.06,.33,0h0l-.27,.7-2.67,.97h0Z"/><path class="cls-4" d="M6.32,13.4c-.12-.07-.22-.1-.34-.05h0c.53-.87,1.21-1.88,1.69-2.52l.71,.48h0c-.09,0-.17,.02-.24,.13-.38,.5-.75,1.05-.99,1.46l.56,.36c.06-.11,.73-1.1,.83-1.23,.07-.1,.08-.19,.04-.26h0s.79,.52,.79,.52h0c-.08,0-.16,.04-.24,.15-.07,.1-.75,1.1-.81,1.21l.58,.36c.32-.52,.71-1.08,1.06-1.57,.07-.1,.07-.19,.02-.27h0s.71,.47,.71,.47c-.57,.79-1.1,1.57-1.75,2.61h0c0-.13-.04-.22-.17-.3l-2.43-1.54h0Z"/><path class="cls-4" d="M10.26,8.1l1.99,1.07-.75-1.7c-.06-.15-.15-.17-.23-.17h0s.87-.61,.87-.61h.01c-.03,.1-.03,.18,.03,.33l1.04,2.45c.11,.26,.16,.37,.26,.57l-.44,.37-1.95-1.03,.84,2-.43,.39c-.17-.12-.28-.18-.54-.32l-2.38-1.28c-.15-.08-.23-.1-.32-.07h-.01s.73-.82,.73-.82h.01c0,.09,.01,.18,.14,.25l1.66,.92-.87-2.06,.35-.3h0Z"/><path class="cls-4" d="M16.24,6.93l-1.75-1.13c-.15-.1-.25-.13-.36-.14h0s1.12-.56,1.12-.56h0c-.03,.09-.02,.17,.11,.27l1.02,.7,.28-1.2c.04-.17-.04-.24-.1-.26h0s1.18-.37,1.18-.37v.02c-.08,.1-.14,.24-.16,.36l-.52,2,.42,1.08c.05,.13,.13,.21,.25,.24h0s-1.07,.43-1.07,.43h0c.07-.11,.08-.22,.03-.35l-.42-1.07h0Z"/><path class="cls-4" d="M18.33,5.86c-.14-1.04,.55-1.93,1.62-2.08,1.06-.14,1.97,.54,2.1,1.58,.14,1.04-.55,1.93-1.62,2.08-1.07,.14-1.97-.55-2.1-1.58Zm2.88-.38c-.08-.65-.58-1.03-1.16-.95-.58,.07-.96,.57-.88,1.22,.08,.64,.58,1.03,1.16,.95,.58-.08,.96-.58,.88-1.22Z"/><path class="cls-4" d="M23.79,7.28h0s-1.15-.08-1.15-.08h0c.12-.07,.17-.16,.18-.31l.25-2.87c.01-.14-.01-.24-.12-.32h0c.93,.07,1.6,.13,2.35,.24,.64,.08,.99,.52,.91,1.12l-.03,.25c-.07,.54-.48,.9-1.03,.9l.6,1.03c.12,.2,.21,.29,.32,.39h0s-1.36-.24-1.36-.24h0c.08-.05,.1-.14,0-.33l-.5-.95-.47-.05-.08,.91c-.01,.14,.02,.23,.12,.32h0Zm.1-2.78l-.08,.88,1.13,.12c.25,.02,.39-.11,.42-.32l.02-.13c.02-.21-.08-.37-.33-.41-.35-.06-.77-.09-1.16-.13Z"/><path class="cls-4" d="M27.78,4.77c.05-.13,.05-.24-.02-.34h0s1.08,.41,1.08,.41h0c-.13,.04-.2,.11-.25,.24l-.41,1.05,1.53-.62c.19-.08,.21-.16,.17-.23h0s1.26,.56,1.26,.56h0c-.11,.03-.26,.05-.52,.14l-1.38,.53,.41,2.15c.04,.21,.09,.34,.15,.43h0s-1.21-.59-1.21-.59h0c.09-.03,.13-.11,.1-.33l-.23-1.39-.61,.23-.29,.74c-.05,.13-.04,.24,.02,.34h0s-1.08-.38-1.08-.38h0c.13-.03,.21-.11,.26-.24l1.05-2.71h0Z"/><path class="cls-4" d="M34.06,10.87h0s-.64,.64-.64,.64c-.35-.02-.68-.13-1.05-.45-.78-.66-.92-1.8-.24-2.58,.7-.82,1.83-.89,2.67-.16,.37,.32,.5,.68,.66,.81,.06,.05,.13,.07,.21,.04h0s-.79,.92-.79,.92h-.02c.05-.18-.06-.76-.58-1.2-.49-.42-1.12-.34-1.52,.13-.39,.46-.34,1.12,.13,1.52,.42,.36,.87,.39,1.13,.33h0Z"/><path class="cls-4" d="M36.36,10.47c.11-.09,.16-.19,.14-.31h0l.73,.89h0c-.12-.03-.23,0-.34,.08l-2.22,1.81c-.11,.09-.16,.19-.14,.31h0l-.73-.89h0c.12,.03,.23,0,.34-.08l2.22-1.81Z"/><path class="cls-4" d="M37.81,13.11c-.17-.29-.34-.57-.51-.82-.07-.12-.14-.15-.23-.15h0s.74-.44,.74-.44c.46,.73,1.23,2.08,1.63,2.85l-.75,.43h0c.04-.09,.05-.16,0-.29-.13-.26-.28-.55-.44-.85l-2.16,1.23c-.12,.07-.19,.16-.19,.28h0l-.57-1h0c.11,.05,.22,.04,.34-.03l2.16-1.24h0Z"/><path class="cls-4" d="M38.16,17.02l1.25-1.67c.1-.14,.15-.25,.16-.35h.01l.46,1.15h0c-.06-.03-.17-.01-.26,.11l-.73,.97,1.15,.37c.16,.05,.24,0,.26-.07h.01l.27,1.17h-.02c-.07-.07-.19-.14-.35-.19l-1.96-.66-1.1,.34c-.13,.04-.21,.12-.25,.23h0l-.34-1.1h0c.1,.07,.21,.09,.34,.05,0,0,1.1-.34,1.1-.34Z"/></g><path class="cls-4" d="M40.39,21.67h0c-.1-.05-.16-.08-.26-.17-.23-.18-.44-.35-.65-.54-.1-.09-.16-.14-.21-.23h0c-.05,.09-.11,.14-.21,.23-.21,.19-.42,.36-.65,.54-.1,.08-.16,.12-.26,.16h0c.06,.08,.09,.15,.14,.29,.08,.22,.17,.44,.23,.67,.03,.12,.06,.2,.05,.3h0c.1-.02,.17-.03,.3-.04,.25,0,.5,0,.76,0,.13,0,.2,.02,.3,.04h0c0-.1,.02-.18,.05-.3,.07-.22,.15-.44,.23-.67,.05-.14,.08-.21,.14-.28h0Z"/><path class="cls-4" d="M6.61,21.67h0c-.1-.05-.16-.08-.26-.17-.23-.18-.44-.35-.65-.54-.1-.09-.16-.14-.21-.23h0c-.05,.09-.11,.14-.21,.23-.21,.19-.42,.36-.65,.54-.1,.08-.16,.12-.26,.16h0c.06,.08,.09,.15,.14,.29,.08,.22,.17,.44,.23,.67,.03,.12,.06,.2,.05,.3h0c.1-.02,.17-.03,.3-.04,.25,0,.5,0,.76,0,.13,0,.2,.02,.3,.04h0c0-.1,.02-.18,.05-.3,.07-.22,.15-.44,.23-.67,.05-.14,.08-.21,.14-.28h0Z"/></g></g></svg>