<svg xmlns="http://www.w3.org/2000/svg" width="223.65236" height="63.63821" viewBox="0 0 223.65236 63.63821">
  <title>Seattle Sounders FC crest wordmark</title>
  <g id="wordmark" style="fill: #142530">
    <g id="wordmark-seattle">
      <path id="seattle-S" d="M48.07,14.9002c0,2.37012,1.10684,2.7327,3.85852,2.19073l3.66017-.70605c4.01892-.78235,4.9196-1.43121,4.9196-4.3929,0-3.19067-1.08775-3.2899-5.78977-2.36627-3.24029.645-3.60671.68311-3.60671-.2672,0-.58772.46566-.9312,1.14493-1.07249l3.35478-.64874c1.38545-.27861,1.46185.04577,1.46185.84721l3.03029-.59155V7.55329c0-1.93507-.32438-3.19067-3.82032-2.51127L52.066,5.86629c-3.8166.7367-3.9807,2.30524-3.9807,4.28611,0,2.69833.52285,3.19824,5.06844,2.30523,3.90058-.74426,4.25547-.76336,4.25547.19463,0,.84349-.664,1.04955-1.3052,1.17172l-3.69838.72516c-.874.16785-1.29377.16785-1.31288-.99235L48.07,14.14066v.75952"/>
      <path id="seattle-E1" d="M69.50385,13.82l10.958-1.359V9.832l-7.935.988v-1.771l6.309-.778,1.053-2.378-7.362.893v-1.767l7.77-.931v-2.561l-10.793,1.324v10.969"/>
      <path id="seattle-A" d="M95.73537,2.90847l1.96176,3.96544-3.86621.28245Zm-7.29728,8.93466,3.36247-.24809.893-1.99228,6.13324-.42744.93889,1.87777,3.36631-.25192L97.701.23309,93.76991.50028l-5.3318,11.34287"/>
      <path id="seattle-T1" d="M108.85685,2.714l4.248.084v8.236l3.019.053V2.851l4.255.077V.195L108.85686,0V2.714"/>
      <path id="seattle-T2" d="M126.28384,3.16l4.255.298V11.69l3.011.207V3.664l4.252.294V1.233l-11.518-.798V3.16"/>
      <path id="seattle-L" d="M145.73285,13.03l9.809,1.378V11.591l-6.775-.958V2.5l-3.034-.42V13.03"/>
      <path id="seattle-E2" d="M162.36885,15.568l10.966,2.126v-2.63l-7.931-1.553V11.755l6.083,1.161,1.267-1.997-7.35-1.427v-1.756l7.759,1.512V6.71l-10.794-2.111v10.969"/>
    </g>
    <g id="wordmark-sounders-fc">
      <path id="sounders-S1" d="M8.61785,62.04658A14.33445,14.33445,0,0,1,0,62.413l1.64879-6.35467a10.016,10.016,0,0,0,7.13317.01153c2.10293-.76336,2.9045-2.10293,2.9045-3.45028,0-1.4197-.66414-2.1487-4.56471-2.39679-4.50739-.2672-6.06837-2.49218-6.06837-5.78208,0-3.98454,3.02656-8.98427,8.98428-11.18269a11.89548,11.89548,0,0,1,7.14843-.5267l-1.4961,6.244a8.91378,8.91378,0,0,0-5.64849-.16026c-2.15638.79-3.0304,2.19062-3.0304,3.30888,0,1.79379,1.28237,1.916,4.4883,2.19842,4.786.39695,6.22107,2.351,6.22107,5.85465-.00385,4.3624-2.97322,9.60252-9.10262,11.86955"/>
      <path id="sounders-O" d="M31.35714,31.66653c-3.78224.98466-6.33172,5.10664-6.33172,9.90022,0,4.77074,2.54948,7.61407,6.33172,6.62569,3.78608-.98479,6.324-5.14486,6.324-9.91559,0-4.786-2.538-7.595-6.324-6.61032M31.2579,53.70361c-7.40035,1.935-12.12148-2.7786-12.12148-10.6064,0-7.85076,4.954-15.07549,12.35431-17.00289,7.36216-1.90829,12.11764,2.78989,12.11764,10.633,0,7.83165-4.98062,15.05264-12.35047,16.97632"/>
      <path id="sounders-U" d="M55.48945,47.62754c-6.09888,1.08389-9.488-2.11818-9.488-9.427V22.93032l5.24782-1.09917v14.942c0,3.76312,1.35481,5.77822,4.36227,5.244,2.96552-.55721,4.3243-3.07617,4.3243-6.86225V20.18237l7.282-1.11441L65.18736,21.48V34.60905c-.00373,7.45-3.62185,11.95364-9.69792,13.01844"/>
      <path id="sounders-N" d="M89.92985,16.473l.127,25.815-16.427-12.953,2.484,3.641-.103,10.095-6.072.717-.011-25.941,14.003,11.636.084-12.53,5.915-.48"/>
      <path id="sounders-D" d="M103.30368,35.79223c3.27849.12218,4.06853-1.88535,4.06853-3.78223V25.102c0-5.18294-3.37773-3.97686-6.51493-4.17919V35.91444l2.4464-.12218ZM112.43685,23.812v8.301c0,6.763-5.24012,9.10636-8.00333,9.04148-5.06845.168-9.00338.20231-9.00338.20231l.03436-22.61326L93.24708,16.2474s6.347-.4122,11.95737-.47707c3.50363.168,7.23239,1.49237,7.23239,8.04166"/>
      <path id="sounders-E" d="M133.11086,16.663l.031,5.244-9.816-.583-.061,4.885,8.369.736-2.809,4.256-5.53-.492.015,5.343,9.885.801.05,5.111-15.667-.916-.115-12.931-2.912-2.679,2.909.286.049-9.889,15.602.828"/>
      <path id="sounders-R" d="M150.86611,43.86056,146.42358,33.842l-2.65255-.39694v9.54533l-5.53015-.63747V19.84274l-2.73655-2.9731,13.06806,1.41212a8.942,8.942,0,0,1,7.7018,9.22469,5.998,5.998,0,0,1-4.19817,6.14094l5.27834,11.33144-6.48827-1.11826m-3.17925-20.39584-3.912-.5649v5.64861l4.0761.61067.72143.03809a2.12533,2.12533,0,0,0,2.1678-2.351,3.40517,3.40517,0,0,0-3.05706-3.38146l.08012-.39694"/>
      <path id="sounders-S2" d="M167.163,47.29932a20.18634,20.18634,0,0,1-8.33553-4.2288l1.46944-5.03793a15.2375,15.2375,0,0,0,6.93853,3.82043c2.01137.39694,2.75936-.416,2.73655-1.68315-.02295-1.32059-.65645-2.34332-4.45021-4.64858-4.37-2.66781-5.93479-5.56077-5.98441-8.62169-.061-3.73262,2.79373-6.75918,8.54157-5.62182a16.43116,16.43116,0,0,1,6.91186,3.328l-1.35493,5.00359a13.81569,13.81569,0,0,0-5.4654-3.15631c-2.09523-.40836-2.91578.43887-2.88527,1.48083.03052,1.66022,1.28237,2.4655,4.38906,4.43483,4.63714,2.92732,6.05311,5.47308,6.11413,8.7553.08014,4.04942-2.71359,7.347-8.62541,6.17529"/>
      <path id="fc-F" d="M187.2726,36.89907V25.724l15.57933,4.16776v5.63334l-9.87727-2.63731v5.53027l8.54144,2.27845-2.83193,3.83953-5.7095-1.51519V53.715l-5.70206-1.519V39.32265l-2.86245-3.20593,2.86245.78235m0,2.33191-2.64488-2.98077"/>
      <path id="fc-C" d="M215.87038,62.79084c-7.87743-2.88527-13.22449-10.59871-13.22449-18.38075,0-7.81629,5.34322-11.63672,13.22449-8.75518a21.01194,21.01194,0,0,1,7.553,5.03782l-1.71367,4.53419a17.09825,17.09825,0,0,0-5.77835-3.84711c-4.51881-1.65263-7.32022.34348-7.32022,5.21346a10.938,10.938,0,0,0,7.32022,10.5414,9.8793,9.8793,0,0,0,6.04553.28245l1.67548,5.77835a12.3782,12.3782,0,0,1-7.782-.40463"/>
    </g>
  </g>
</svg>
