<?xml version="1.0" encoding="UTF-8" standalone="no"?>
<svg
   xmlns:dc="http://purl.org/dc/elements/1.1/"
   xmlns:cc="http://creativecommons.org/ns#"
   xmlns:rdf="http://www.w3.org/1999/02/22-rdf-syntax-ns#"
   xmlns:svg="http://www.w3.org/2000/svg"
   xmlns="http://www.w3.org/2000/svg"
   xmlns:sodipodi="http://sodipodi.sourceforge.net/DTD/sodipodi-0.dtd"
   xmlns:inkscape="http://www.inkscape.org/namespaces/inkscape"
   version="1.1"
   id="svg2"
   xml:space="preserve"
   width="2558.7466"
   height="468.45334"
   viewBox="0 0 2558.7466 468.45334"
   sodipodi:docname="SKCWordmark-DarkIndigo.svg"
   inkscape:version="1.0.1 (3bc2e813f5, 2020-09-07)"><metadata
     id="metadata8"><rdf:RDF><cc:Work
         rdf:about=""><dc:format>image/svg+xml</dc:format><dc:type
           rdf:resource="http://purl.org/dc/dcmitype/StillImage" /><dc:title></dc:title></cc:Work></rdf:RDF></metadata><defs
     id="defs6" /><sodipodi:namedview
     pagecolor="#ffffff"
     bordercolor="#666666"
     borderopacity="1"
     objecttolerance="10"
     gridtolerance="10"
     guidetolerance="10"
     inkscape:pageopacity="0"
     inkscape:pageshadow="2"
     inkscape:window-width="1920"
     inkscape:window-height="1136"
     id="namedview4"
     showgrid="false"
     inkscape:zoom="0.68020732"
     inkscape:cx="610.47929"
     inkscape:cy="234.22667"
     inkscape:window-x="0"
     inkscape:window-y="27"
     inkscape:window-maximized="1"
     inkscape:current-layer="g10" /><g
     id="g10"
     inkscape:groupmode="layer"
     inkscape:label="ink_ext_XXXXXX"
     transform="matrix(1.3333333,0,0,-1.3333333,0,468.45333)"><g
       id="g12"
       transform="scale(0.1)"><path
         d="M 4203.1,0.210938 3805.49,318.492 V 0.210938 H 3606.48 V 774.961 h 199.01 V 474.73 l 348.18,300.231 h 252.82 V 768.5 L 3968,403.738 4467.98,6.26172 V 0.210938 H 4203.1 v 0"
         style="fill:#16243a;fill-opacity:1;fill-rule:nonzero;stroke:none"
         id="path14" /><path
         d="M 5247.65,774.961 H 5037.8 L 4632.17,2.08984 V 0.210938 h 205.47 L 5142.25,613.602 5310.08,274.91 H 5008.7 l 144.6,-136.98 h 225.07 L 5445.18,0.210938 h 208.17 V 2.08984 L 5247.65,774.961 v 0"
         style="fill:#16243a;fill-opacity:1;fill-rule:nonzero;stroke:none"
         id="path16" /><path
         d="M 8972.63,774.961 H 8762.99 L 8357.69,2.08984 V 0.210938 h 205.16 L 8867.25,613.602 9035.46,274.91 H 8734.02 L 8878.7,137.93 h 224.89 L 9170.55,0.210938 h 207.72 V 2.08984 L 8972.63,774.961 v 0"
         style="fill:#16243a;fill-opacity:1;fill-rule:nonzero;stroke:none"
         id="path18" /><path
         d="M 6623.67,0.210938 6114.73,531.969 V 0.210938 H 5915.86 V 774.961 h 195.64 l 508.74,-517.563 v 517.563 h 200.15 V 0.210938 h -196.72 v 0"
         style="fill:#16243a;fill-opacity:1;fill-rule:nonzero;stroke:none"
         id="path20" /><path
         d="m 7987.08,0.210938 h -703.42 c -46.21,0 -75.86,28.347662 -75.86,73.058562 V 265.82 h 198.96 V 137.191 h 457.02 V 247.57 l -605.36,186.422 c -39.79,11.438 -50.62,31.578 -50.62,67.129 V 701.68 c 0,44.519 29.65,73.281 75.86,73.281 h 705.35 c 45.31,0 73.65,-27.781 73.65,-71.191 V 527.191 H 7863.78 V 637.98 h -457.02 v -95.57 l 605.49,-184.129 c 37.31,-11.441 50.41,-33.461 50.41,-68.152 V 73.2695 c 0,-44.7109 -29.93,-73.058562 -75.58,-73.058562"
         style="fill:#16243a;fill-opacity:1;fill-rule:nonzero;stroke:none"
         id="path22" /><path
         d="m 10444.9,0.210938 h -703.19 c -46.21,0 -76.14,28.347662 -76.14,73.058562 V 265.82 H 9864.6 V 137.191 h 457.1 V 247.57 l -605.24,186.422 c -39.86,11.438 -50.89,31.578 -50.89,67.129 V 701.68 c 0,44.519 29.93,73.281 76.14,73.281 h 705.49 c 45,0 73.5,-27.781 73.5,-71.191 V 527.191 h -199 V 637.98 H 9864.6 V 542.41 L 10470,358.281 c 37.5,-11.441 50.7,-33.461 50.7,-68.152 V 73.2695 c 0,-44.7109 -29.7,-73.058562 -75.8,-73.058562"
         style="fill:#16243a;fill-opacity:1;fill-rule:nonzero;stroke:none"
         id="path24" /><path
         d="m 12934.2,774.961 h 199 V 0 h -199 v 774.961 0"
         style="fill:#16243a;fill-opacity:1;fill-rule:nonzero;stroke:none"
         id="path26" /><path
         d="M 14021.7,625.781 V 0.210938 h -197.5 V 625.781 h -356.4 v 149.18 h 910.1 v -149.18 h -356.2 v 0"
         style="fill:#16243a;fill-opacity:1;fill-rule:nonzero;stroke:none"
         id="path28" /><path
         d="M 15186.7,268.109 V 0.210938 h -199.1 V 268.109 L 14590,768.871 v 6.09 h 213.3 l 283.4,-377.481 284.6,377.481 h 213.2 v -6.09 l -397.8,-500.762 v 0"
         style="fill:#16243a;fill-opacity:1;fill-rule:nonzero;stroke:none"
         id="path30" /><path
         d="m 12456.4,0.210938 h -754.6 c -46.4,0 -73.8,28.347662 -73.8,73.058562 V 701.68 c 0,44.359 27.4,72.711 73.8,72.711 h 754.6 c 46,0 75.6,-28.352 75.6,-72.711 V 489.539 h -198.7 V 629.43 H 11827 V 145.211 h 506.3 v 147.82 H 12532 V 73.2695 c 0,-44.7109 -29.6,-73.058562 -75.6,-73.058562"
         style="fill:#16243a;fill-opacity:1;fill-rule:nonzero;stroke:none"
         id="path32" /><path
         d="M 1910.62,999.262 C 1334.33,912.148 759.328,814.891 185.508,707.41 72.668,686.469 0,776.281 0,940.09 v 706.47 c 162.879,20.34 325.352,40.14 488.23,59.37 -0.406,-152.4 -0.406,-304.65 -0.57,-457.01 373.664,55.35 748.11,107.68 1122.53,156.17 0.77,121.8 1.14,243.56 1.55,365.52 C 1116.27,1923.02 620.633,2088.93 124.258,2274.02 27.2109,2306.76 0,2379.06 0,2509.2 v 736.34 c 0,163.82 73.2422,267.87 187.02,267.7 h 1741.69 c 111.12,0 181.13,-87.92 180.38,-227.76 -0.98,-188.75 -2.12,-377.28 -3.23,-566.02 -163.08,-7.6 -326.7,-15.99 -489.95,-23.98 0.37,121.77 0.78,243.54 1.72,365.29 -375.96,-10.44 -751.751,-21.48 -1127.314,-33.47 0,-112.63 -0.371,-225.64 -0.574,-338.28 496.785,-191.8 992.798,-364.18 1488.828,-523.05 91.9,-28.72 124.03,-97.41 123.28,-207.96 -0.93,-232.11 -2.29,-464.26 -3.6,-696.37 -0.57,-142.7 -74.21,-244.87 -187.63,-262.378"
         style="fill:#16243a;fill-opacity:1;fill-rule:nonzero;stroke:none"
         id="path34" /><path
         d="m 4576.07,3513.24 h -1917.9 c -4.54,-802.53 -9.5,-1605.07 -14.45,-2407.97 163.05,22.42 326.13,44.11 489.75,64.68 l 5.12,745.46 c 0.97,142.1 1.72,284.24 2.86,426.37 1.71,244.1 3.03,488.4 4.95,733.06 373.27,8.77 746.23,17.15 1119.87,23.98 -1.89,-230.59 -3.43,-461.55 -4.91,-692.35 -344.41,-17.51 -688.42,-37.86 -1032.03,-59.16 141.2,-132.45 282.73,-262.18 424.15,-389.11 302.66,24.15 605.79,46.44 908.65,66.98 114.01,7.78 185.13,91.53 185.94,216.12 2.63,355.82 5.33,712.19 7.94,1067.99 0.82,124.42 -66.39,203.95 -179.94,203.95"
         style="fill:#16243a;fill-opacity:1;fill-rule:nonzero;stroke:none"
         id="path36" /><path
         d="m 7319.31,1528.77 c -635.16,-28.15 -1269.83,-68.29 -1903.84,-120.24 -114.14,-9.51 -181.49,62.39 -180.35,184.56 3.84,573.45 8.15,1146.91 12.19,1720.57 0.95,121.93 69.24,199.75 183.59,199.58 h 1898.07 c 111.31,0 181.3,-72.5 180.89,-186.08 -2.21,-534.83 -4.9,-1069.67 -7.18,-1604.33 -0.41,-113.75 -71.51,-189.11 -183.37,-194.06 m -301.36,1610.4 c -427,-3.98 -853.98,-9.13 -1281.3,-15.22 -2.82,-433.78 -5.52,-867.81 -8.75,-1301.41 427.72,26.26 855.43,48.15 1283.36,65.66 2.06,417.05 4.34,833.92 6.69,1250.97"
         style="fill:#16243a;fill-opacity:1;fill-rule:nonzero;stroke:none"
         id="path38" /><path
         d="m 9803.36,1579.02 c -316.27,261.4 -631.7,519.04 -946.93,777.04 -88.48,76.1 -177.51,152.2 -265.86,228.68 367.99,3.42 735.98,4.77 1104.31,4.58 -0.34,187.38 -0.34,374.81 -0.34,562.04 -381.65,0 -763.7,-0.78 -1145.41,-1.93 -1.52,-527.22 -2.62,-1053.67 -4.21,-1580.69 -163.99,-3.43 -328.33,-7.61 -492.53,-12.57 2.07,652.02 4.35,1304.86 6.41,1957.07 h 1939.25 c 111.25,0 184.65,-70.98 184.65,-182.47 0.6,-296.63 1,-593.26 1.2,-890.06 0.4,-109.2 -73.1,-176.95 -184.55,-176.38 -148.96,0.57 -297.57,0.94 -446.74,0.94 282.89,-222.41 566.29,-446.7 850.09,-674.47 v -17.68 c -199.8,2.83 -399.8,5.12 -599.34,5.9"
         style="fill:#16243a;fill-opacity:1;fill-rule:nonzero;stroke:none"
         id="path40" /><path
         d="m 11885.3,3131.18 7.9,-1603.35 c -163.4,7.24 -326.8,13.87 -490.2,19.59 -2.2,528.95 -4.1,1058.42 -6.3,1587.57 -293.1,2.29 -586.4,3.44 -879.4,4.58 -0.4,124.42 -0.7,249.22 -1,373.67 h 2246.1 c 0.3,-130.35 1.1,-260.67 2.2,-391.18 -292.9,3.6 -586.4,6.67 -879.3,9.12"
         style="fill:#16243a;fill-opacity:1;fill-rule:nonzero;stroke:none"
         id="path42" /><path
         d="m 13158.9,1455.54 c -4.8,685.68 -9.1,1371.78 -13.7,2057.87 h 490.5 c 5.3,-698.09 10.3,-1396.53 15.2,-2094.79 -164,13.11 -328.1,25.3 -492,36.92"
         style="fill:#16243a;fill-opacity:1;fill-rule:nonzero;stroke:none"
         id="path44" /><g
         id="g46"
         transform="scale(1.00786)"><path
           d="m 15819.1,1175.16 c -418.1,581.07 -837.7,1121.35 -1256.4,1631.64 3.7,-497.25 7.3,-994.34 11.1,-1491.55 -162.5,16.23 -325.3,31.5 -487.7,46.23 -5.2,708.1 -10.5,1416.21 -15.4,2124.35 h 478.8 c 418.9,-482.72 838.2,-993.37 1256.4,-1541.97 -3.4,513.86 -6.9,1028.11 -10.5,1541.97 h 489.8 c 5.2,-791 9.8,-1582.16 14.8,-2372.99 -159.9,21.55 -320.4,42.29 -480.9,62.32"
           style="fill:#16243a;fill-opacity:1;fill-rule:nonzero;stroke:none"
           id="path48" /></g><g
         id="g50"
         transform="scale(1.17736)"><path
           d="m 16142.2,600.843 c -522.9,97.763 -1047.4,185.993 -1573,264.22 -96.6,14.691 -154.4,99.876 -154.8,220.427 -3.2,566.74 -6.2,1133.81 -9.3,1701.02 -0.5,120.55 61.2,197.48 157.8,197.48 H 16141 c 96.7,0.15 159,-88.23 158.7,-227.37 v -562.23 c -138.3,8.72 -277.2,17.13 -415.6,25.23 0,108.9 -0.4,217.98 -0.7,327.07 -353.3,11.96 -707,22.8 -1060.8,33.12 2.3,-450.06 4.3,-900.27 6.2,-1350.49 352.6,-44.45 705.1,-92.44 1056.9,-144.15 -0.2,140.91 -0.4,281.83 -0.7,422.57 -173.6,19.89 -347.3,38.96 -521,57.38 -114.4,142.37 -229.1,281.34 -343.7,416.94 426.8,-31.52 853.4,-65.61 1279.4,-102.45 V 798.471 c 0,-139.131 -61.4,-215.557 -157.5,-197.628"
           style="fill:#16243a;fill-opacity:1;fill-rule:nonzero;stroke:none"
           id="path52" /></g></g></g></svg>
