<?xml version="1.0" encoding="UTF-8"?>
<svg xmlns="http://www.w3.org/2000/svg" xmlns:xlink="http://www.w3.org/1999/xlink" version="1.1" id="_x32_ndary" x="0px" y="0px" viewBox="0 0 144 144" style="enable-background:new 0 0 144 144;" xml:space="preserve">
<style type="text/css">
	.st0{fill:#FFFFFF;}
</style>
<path class="st0" d="M0,70.1C1.1,30.3,34.2-1,73.9,0c39.7,1.1,71.1,34.2,70,73.9c-1.1,39.7-34.2,71.1-73.9,70  C30.3,142.9-1,109.8,0,70.1z M111.6,81.6c-2.4-3.4-6.7-5.4-10.4-5.8s-6.4,0-9.6,0.9c-4.1,0.9-7.1,2.4-11.3,4  c2.2-2.4,4.9-5.3,6.7-8.6c2.6-4.7,4.1-7.9,4.4-12.8c0.2-4.8-2.4-10.5-6.5-13.3c-3.2-2.2-7.8-2.4-11.3-0.1c-1.5,0.9-2.5,1.9-3.2,2.6  c-3.1-2.2-6.1-3.4-9.9-2.8c-3.4,0.3-5.9,3.4-7.4,6.1C48.1,62,56.5,72,62.7,79.3C51.6,76,48.9,75.9,46,75.6c-2.9-0.2-7.5,0.1-10.8,2  c-3.3,1.9-6.2,5-6.5,10.6c-0.2,4.1,2,8.1,6.2,10.5c-2.3,5.5-0.8,11.1,5,13.6c6.6,2.9,12.3,1,16.8-2.3c4.5-3.3,8.4-7.5,11.7-12  c-1,24.4,14.2,32,14.2,32l1.7-6.1c-2.9-2.1-10.5-9.1-9.8-25.7l1.3,1.3c3.9,4.1,7.6,7.5,12.3,11.4c4.7,3.9,13.8,5.2,19.1-1.1  c2.4-2.9,3.1-8.7,1.7-11.2l0-0.6c2.3-1.5,4.2-3.2,5-5.9C115.1,88.5,113.5,84.4,111.6,81.6z M20.2,49l-6.4-2.2l-0.9,2.7l1.1,0.4  l-1.4,0.5L11,54.7l2.3,3.4l19.1,6.5l3.4-1.3l2-5.8l-2.2-3.2l-3.4-1.2l-1,2.9l3.6,1.2l-1.4,4.1l-19.4-6.6l1.4-4.2l3.7,1.3L20.2,49z   M116,36.8l4.7-5l-2.1-2l-0.8,0.9l0.1-1.5l-3.3-3.1l-4,0.7L96.7,41.4l-0.3,3.7l4.4,4.2l3.9-0.7l2.5-2.6l-2.3-2.1l-2.6,2.8l-3.1-2.9  l14.1-14.9l3.3,3.1l-2.7,2.8L116,36.8z M33.7,30.8l-5.1-4.5L21,35.1l2.2,1.9l1.2-1.4l15.4,13.5l-1.2,1.4l2.2,1.9l7.6-8.7l-5-4.4  l-1.9,2.1l2.9,2.5L42,46.7l-6.8-5.9l2.2-2.5l-2.2-1.9L33,38.8l-6.5-5.7l2.3-2.6l2.9,2.6L33.7,30.8z M63.2,36.7l-2.6-6.2l-2.7,1.2  l1.5,3.5l-3,1.3l-8-18.9l1.6-0.7l-1.1-2.7l-6.1,2.6l1.1,2.7l1.6-0.7l8,18.9l-1.6,0.7L53,41L63.2,36.7z M80.2,16.7V9.9H66v6.8h3.1  v-3.9h2.5v20.5h-1.9v2.9h6.9v-2.9h-1.8V12.8h2.5v3.9H80.2z M97.9,18.4l1-2.7l-6.2-2.4l-1,2.7l1.8,0.7l-7.3,19.1l-1.8-0.7l-1,2.7  l6.2,2.4l1-2.7L89,36.9l7.3-19.1L97.9,18.4z M111.7,64l9.2-3.9l1.3-2.2l-2.4-5.8l7.8-3.3l1.8,4.3l-3.6,1.5l1.2,2.9l6.3-2.6l-1.2-2.8  l-1.1,0.5l0.7-1.3L130,47l-3.7-1l-8.6,3.6l-1.1,2.1l2.4,5.8l-8.4,3.5l-1.8-4.3l3.5-1.5l-1.2-2.9l-6.1,2.6l1.2,2.9l1.1-0.5l-0.7,1.3  l1.8,4.4L111.7,64z"></path>
</svg>
