<svg width="183" height="183" viewBox="0 0 183 183" fill="none" xmlns="http://www.w3.org/2000/svg">
<path d="M182.4 91.2C182.4 141.569 141.569 182.4 91.2 182.4C40.831 182.4 0 141.569 0 91.2C0 40.831 40.831 0 91.2 0C141.569 0 182.4 40.831 182.4 91.2Z" fill="#009A44"/>
<path d="M177.926 91.2C177.926 139.096 139.096 177.925 91.2 177.925C43.3042 177.925 4.4745 139.096 4.4745 91.2C4.4745 43.3042 43.3042 4.4745 91.2 4.4745C139.096 4.4745 177.926 43.3042 177.926 91.2Z" fill="white"/>
<path d="M173.239 91.2C173.239 136.509 136.509 173.236 91.2031 173.236C45.8976 173.236 9.16431 136.509 9.16431 91.2C9.16431 45.8913 45.8945 9.16431 91.2 9.16431C136.505 9.16431 173.239 45.8945 173.239 91.2Z" fill="#1D428A"/>
<path d="M84.0591 43.9376C92.9891 39.3396 102.106 37.2844 110.684 38.3041C97.0836 33.2818 85.0123 34.7574 78.4066 36.2964C78.5396 38.9564 79.7651 41.0369 84.0591 43.9376Z" fill="#C1C6C8"/>
<path d="M59.128 64.619C60.4801 62.2535 61.9463 59.4605 63.5581 56.3476C57.0981 49.9605 53.1873 50.3626 52.4273 50.3341C46.6355 55.8473 42.009 62.5828 38.9753 70.1416C43.9501 64.0775 51.9618 61.7468 59.128 64.619Z" fill="#C1C6C8"/>
<path d="M80.2593 45.9705C76.8678 43.4371 74.9013 40.1248 74.6163 37.3223C67.4501 39.5326 60.8888 43.1331 55.2553 47.8166C59.2294 48.127 63.0358 48.6463 71.3958 49.5551C74.9424 47.9686 78.0774 46.7875 80.2593 45.9705Z" fill="#C1C6C8"/>
<path d="M71.4241 57.5984C74.2646 58.2729 76.6681 58.8017 79.9456 59.6599C78.2324 57.7694 76.4813 55.9074 74.8409 54.3652C76.1108 52.6584 77.3743 50.9895 78.6853 49.2985C76.2216 50.2865 73.7199 51.3569 71.2468 52.4842C68.4221 52.0187 65.5689 51.6767 62.5479 51.4012C64.5651 53.0225 65.8603 54.1657 67.5069 55.6889C66.1611 57.8992 64.8279 60.214 63.4029 62.8044C66.1864 60.9202 68.7514 59.2514 71.4241 57.5984Z" fill="#009A44"/>
<path d="M57.0951 67.5734C43.8426 63.2192 29.1017 78.4382 37.2116 106.948C39.1749 105.497 41.0147 103.962 42.7501 102.378C44.1719 90.7946 49.1784 78.4826 57.0951 67.5734Z" fill="#C1C6C8"/>
<path d="M107.641 46.3031C110.561 45.4734 114.067 45.8249 116.315 48.2949C117.772 49.8877 119.083 52.6744 120.045 55.2489C128.237 57.3421 135.869 60.1889 141.449 65.7812C137.544 58.0419 131.904 51.3254 125.03 46.1416C115.53 39.0102 101.419 39.1179 87.4191 45.9579C92.0519 48.4184 97.3402 50.0176 102.831 51.3476C104.75 49.2132 106.406 47.4431 107.641 46.3031Z" fill="#C1C6C8"/>
<path d="M67.7604 77.447C65.7527 73.989 63.3397 71.1454 60.2902 69.163C60.2712 69.182 50.1347 81.6144 46.6799 98.5624C55.2457 89.8509 61.389 79.974 67.7604 77.447Z" fill="#C1C6C8"/>
<path d="M83.5462 48.0573C82.1053 49.3144 80.7943 50.9706 78.7455 53.8934C86.2347 62.3833 87.5013 62.7981 90.7852 64.9261C94.0057 61.3858 97.3022 57.5889 100.231 54.2639C94.3825 52.8009 88.6698 50.9548 83.5462 48.0573Z" fill="#C1C6C8"/>
<path d="M147.272 86.5893C145.607 68.6312 134.701 62.6272 121.261 59.0235C121.261 59.0298 121.264 59.0393 121.268 59.0457C122.55 63.878 122.281 68.1277 119.637 76.2882C125.144 81.5923 127.091 86.2822 124.811 92.8625C126.698 94.7878 128.871 97.0868 131.11 99.6898L134.251 94.012L141.886 107.812L137.481 107.296L142.092 115.073C148.381 101.748 147.564 89.7433 147.272 86.5893Z" fill="#C1C6C8"/>
<path d="M122.199 95.1838C116.964 96.1116 109.117 104.551 109.655 118.24C109.829 122.731 110.909 126.882 111.869 131.705L118.551 120.444L114.301 120.945L121.264 108.357L125.669 116.318L131.021 107.296L126.616 107.812L129.308 102.945C128.199 101.523 123.247 96.1496 122.199 95.1838Z" fill="#C1C6C8"/>
<path d="M88.372 67.5481C87.1814 66.6678 83.4669 63.3111 72.0764 61.0058C67.9534 63.5265 65.1794 65.0623 62.9785 66.7343C66.3637 69.103 69.0142 72.3836 71.1834 76.2881C74.9675 75.316 78.663 75.2178 81.7885 74.0493C83.755 72.333 86.016 70.0625 88.372 67.5481Z" fill="#C1C6C8"/>
<path d="M106.115 114.519C105.042 113.237 101.561 114.969 97.6379 119.637C101.796 102.971 117.154 89.8321 121.841 91.4946C123.415 87.7643 122.778 84.6071 120.077 84.7116C115.58 84.8826 110.849 89.8669 107.939 89.8669C106.492 89.8669 105.33 88.7681 105.33 86.7446C105.33 83.1219 109.006 78.3498 111.489 73.3306C112.917 70.4521 114.215 66.9909 114.994 62.1871C115.124 61.4398 115.634 61.2719 115.963 62.1016C116.828 64.3816 117.274 69.6034 116.809 74.3344C119.567 67.4944 119.501 61.5918 116.812 56.9811C116.22 57.4213 115.574 57.8614 115.017 58.2224C108.306 56.8544 106.115 57.7949 103.788 55.2838C98.1604 61.5823 93.6131 66.6648 91.0227 69.7934C87.5711 73.9703 85.0567 77.7386 82.0421 84.6356C81.7539 82.8781 81.4467 81.1618 81.0826 80.2339C80.6234 79.0718 79.9552 78.7963 77.9697 78.8596C73.9449 78.9894 69.6699 80.3511 67.4121 82.2384C65.0466 84.2018 61.9401 89.2969 61.1199 98.5911C69.6066 98.2491 72.9284 97.6031 76.2154 95.7569C73.4794 101.843 66.6489 108.487 58.4631 113.5C60.7811 114.272 64.2169 114.374 66.5317 114.158C59.0267 121.73 56.9684 130.685 62.1966 143.45C62.5702 138.203 64.1314 133.994 66.3512 131.344C66.7787 144.4 74.7207 147.003 82.2954 159.648C83.1852 155.699 83.5526 151.3 83.2707 147.849C88.8219 154.233 93.4452 160.433 94.5947 167.837C100.551 161.776 103.585 154.315 103.458 145.987C104.867 147.636 106.049 150.236 106.581 153.112C112.049 136.388 105.045 128.076 106.121 114.519" fill="white"/>
<path d="M76.209 95.76C73.473 101.846 66.6425 108.49 58.4566 113.503C60.7746 114.276 64.2105 114.377 66.5253 114.162C59.0203 121.73 56.962 130.688 62.1901 143.456C62.5638 138.209 64.1218 133.998 66.3448 131.35C66.7723 144.406 74.7111 147.009 82.2858 159.651C83.1756 155.702 83.5461 151.303 83.2611 147.855C88.8123 154.236 93.4356 160.439 94.5851 167.843C96.6751 156.943 93.8853 150.293 81.5258 136.027C81.624 138.472 81.4498 141.806 81.1616 144.356C75.7244 136.961 70.0055 132.835 72.5261 120.343C70.965 121.299 68.9478 123.719 67.4721 126.467C67.1586 120.099 68.7135 115.621 73.4666 110.662C72.2601 110.859 70.3601 110.925 68.8655 110.836C74.594 105.057 76.228 100.181 76.209 95.7663" fill="#C1C6C8"/>
<path d="M77.881 82.5804C75.3825 82.5487 72.1398 83.2834 70.7655 84.3759C69.2866 85.5476 67.6685 88.3944 66.8768 91.7574C69.2645 90.9594 72.7225 89.4457 74.5148 87.8624C75.6991 85.9972 76.855 84.1321 77.881 82.5804Z" fill="#009A44"/>
<path d="M116.207 54.0391C115.596 52.0251 114.713 50.5558 113.867 49.8908C112.784 49.0358 111.087 48.7539 109.497 49.1466C108.778 49.6754 106.999 51.5058 105.301 53.4406C107.55 52.6996 109.45 52.0821 111.66 52.0821C113.718 52.0821 115.07 52.5951 116.207 54.0328" fill="#009A44"/>
<path d="M120.545 82.5865C120.248 81.19 119.32 80.0468 118.253 79.5972C118.262 80.4775 118.139 81.57 117.952 82.6118C118.981 82.4028 119.858 82.3902 120.545 82.5865Z" fill="white"/>
<path d="M112.458 79.6734C112.895 81.3105 113.037 83.1377 112.923 84.6007C114.073 83.98 115.137 83.4955 116.112 83.1408C115.311 81.5195 113.959 80.1674 112.458 79.6734Z" fill="white"/>
<path d="M49.1467 108.104C41.7968 112.755 32.8922 115.71 24.453 116.612C29.4532 121.15 39.8018 122.629 46.8223 119.073C44.6753 118.794 42.3542 117.971 41.0558 117.154C44.517 115.441 48.2442 111.875 49.1467 108.104Z" fill="#C1C6C8"/>
<path d="M29.0764 101.251L29.1365 102.394L27.1067 101.748L18.1957 102.309L16.264 103.202L16.1785 102.062L16.0519 99.8196L21.9419 95.3514L15.5389 91.6623L15.39 89.4456L15.3299 88.3056L17.3597 88.9485L26.2675 88.3911L28.2024 87.4981L28.2847 88.6381L28.4019 90.4811L28.462 91.6211L26.4322 90.9783L20.026 91.3805L26.2454 94.9809L26.2612 95.2343L20.5359 99.5979L26.9452 99.1926L28.88 98.2996L28.9655 99.4396L29.0764 101.251Z" fill="white"/>
<path d="M28.8989 83.5303L28.731 84.6608L26.869 83.6253L18.0214 82.4157L15.9535 82.9097L16.0929 81.7728L16.362 79.8222L16.5299 78.6885L18.3919 79.7208L27.2364 80.9337L29.3074 80.4397L29.1649 81.5765L28.8989 83.5303Z" fill="white"/>
<path d="M22.5782 71.5824L28.7722 73.6376L30.9002 73.5331L30.5519 74.6224L29.9502 76.4369L29.5766 77.5168L27.9362 76.1583L19.4622 73.3431L17.3342 73.4508L17.6826 72.3583L18.4046 70.2271L28.1642 66.9844L22.2299 65.0148L20.1019 65.1193L20.4502 64.0299L21.0519 62.2186L21.4256 61.1356L23.0659 62.4941L33.4241 65.9363L32.6577 68.2384L22.5782 71.5824Z" fill="white"/>
<path d="M29.5324 55.2614L35.0298 58.7732L37.1198 59.1944L36.5118 60.1634L35.4858 61.772L34.8556 62.7284L33.5984 61.012L26.0776 56.205L23.9908 55.7839L24.5956 54.8149L25.8179 52.9244L36.0716 52.177L30.8023 48.8109L28.7154 48.3929L29.3203 47.4207L30.3494 45.812L30.9764 44.8525L32.2336 46.572L41.4264 52.4494L40.1218 54.495L29.5324 55.2614Z" fill="white"/>
<path d="M44.5424 48.9441L43.7128 49.7358L42.8799 47.7756L36.6448 41.3853L34.7068 40.5049L35.5143 39.6974L42.1959 33.1963L44.0991 36.2679L42.2118 36.5371L38.8836 39.7861L40.8248 41.7779L43.7413 38.9311L45.4006 40.6253L42.4809 43.4753L44.5329 45.5779L47.8548 42.3384L48.1968 40.3973L51.2241 42.4049L44.5424 48.9441Z" fill="white"/>
<path d="M52.3608 40.1312L51.6641 36.8347L53.8776 37.354C54.6883 37.202 55.5464 36.8537 56.3159 36.366C57.5984 35.5458 58.0639 34.6528 57.5921 33.9118C57.2311 33.3482 56.5598 33.25 55.4483 33.5793L53.0859 34.2823C50.8408 34.9505 49.2321 34.5325 48.2631 33.022C46.9774 31.0143 47.8324 28.69 50.5051 26.98C51.9808 26.0363 53.7446 25.4632 55.1854 25.4505L55.8789 28.5728L53.8934 28.0947C53.1873 28.2783 52.4304 28.6045 51.7654 29.0288C50.4893 29.8458 50.0396 30.6818 50.4956 31.3943C50.8313 31.9137 51.4266 32.0055 52.5001 31.6857L54.8213 30.9985C57.1583 30.3082 58.8303 30.7293 59.8278 32.2905C61.1356 34.333 60.2521 36.7302 57.5573 38.4528C56.0183 39.4377 54.1784 40.0267 52.3608 40.1312Z" fill="white"/>
<path d="M60.9045 28.4935C59.5713 24.855 61.3225 21.169 65.0813 19.7947C68.8465 18.4172 72.5578 20.1019 73.891 23.7435C75.2241 27.382 73.473 31.068 69.7078 32.4455C65.949 33.8199 62.2345 32.132 60.9045 28.4935ZM71.25 24.7094C70.4298 22.4642 68.2416 21.4002 65.9743 22.2299C63.7101 23.0595 62.7253 25.2825 63.5455 27.5277C64.3688 29.7729 66.5538 30.8369 68.818 30.0104C71.0853 29.1807 72.0701 26.9514 71.25 24.7094Z" fill="white"/>
<path d="M74.271 17.1253L85.7977 15.4216L85.5412 19.1868L83.7963 18.1481L81.7317 18.4521L82.9762 26.8723L84.0275 28.7216L82.897 28.9021L80.9463 29.1903L79.8127 29.3423L80.2845 27.2681L79.0432 18.8479L76.8487 19.171L75.5725 20.577L74.271 17.1253Z" fill="white"/>
<path d="M86.9439 28.2784L88.2201 26.2137L92.0454 17.1824L91.7984 15.4312L96.1083 15.599L99.8228 26.6665L100.934 28.823L97.5744 28.6932L96.6529 25.8337L91.3583 25.6279L90.2183 28.405L86.9439 28.2784ZM95.8613 23.3669L94.2874 18.4712L92.3368 23.2307L95.8613 23.3669Z" fill="white"/>
<path d="M111.666 18.0247L122.604 22.0305L120.587 25.2162L119.548 23.4682L117.588 22.7525L114.665 30.742L114.706 32.87L113.626 32.49L111.774 31.8124L110.704 31.407L112.113 29.8079L115.036 21.8184L112.952 21.0552L111.163 21.679L111.666 18.0247Z" fill="white"/>
<path d="M120.482 35.6219L119.475 35.0772L121.084 33.6807L125.245 25.7862L125.489 23.6677L126.508 24.1902L128.253 25.1117L129.26 25.6564L127.651 27.0529L123.487 34.9505L123.243 37.0659L122.227 36.5434L120.482 35.6219Z" fill="white"/>
<path d="M126.664 39.1464L125.796 38.4022L127.661 37.3762L133.402 30.5394L134.086 28.5254L134.973 29.2505L136.683 30.7041L135.856 38.0507L142.943 35.9607L144.65 37.3762L145.518 38.1235L143.653 39.1464L137.912 45.9832L137.228 48.0004L136.341 47.2752L134.929 46.0877L134.058 45.3404L135.926 44.3175L140.052 39.3997L133.155 41.42L132.962 41.2585L133.754 34.105L129.621 39.026L128.937 41.04L128.054 40.3149L126.664 39.1464Z" fill="white"/>
<path d="M139.653 50.9961L138.998 50.0588L141.059 49.5299L148.311 44.3271L149.476 42.5443L150.154 43.4658L153.333 47.9213C154.84 50.0239 154.714 52.0569 152.994 53.2919C151.968 54.0298 150.828 54.1438 149.793 53.6656C150.075 55.0019 149.609 56.1831 148.418 57.0413C146.594 58.3459 144.565 57.8203 142.994 55.6258L139.659 50.9961H139.653ZM144.821 54.0551C145.477 54.9703 146.256 55.1666 147.031 54.6093C147.807 54.0519 147.871 53.2508 147.215 52.3388L145.375 49.7738L142.981 51.4901L144.821 54.0551ZM149.023 50.7934C149.619 51.6263 150.382 51.8099 151.091 51.3001C151.804 50.7903 151.873 50.0081 151.275 49.1753L149.555 46.7781L147.301 48.3963L149.023 50.7934Z" fill="white"/>
<path d="M147.139 62.418L146.696 61.3635L148.824 61.278L157.01 57.7219L158.523 56.224L158.992 57.269L162.694 65.819L159.144 66.5094L159.565 64.6505L157.713 60.3819L155.16 61.4902L156.785 65.23L154.609 66.1737L152.985 62.4339L150.29 63.6055L152.139 67.8615L153.83 68.8717L150.876 70.987L147.139 62.418Z" fill="white"/>
<path d="M165.091 85.9275L167.159 84.6989L167.023 88.1759L160.224 90.5319L166.978 94.0817L166.972 94.24L159.964 97.2325L166.551 100.117L166.415 103.531L164.451 102.141L153.501 97.3529L153.507 97.1977L161.247 93.898L153.792 89.9935L153.799 89.8415L165.091 85.9275Z" fill="white"/>
<path d="M159.416 104.652C163.125 105.786 165.009 109.402 163.837 113.23C162.665 117.062 159.081 119.01 155.376 117.876C151.671 116.742 149.787 113.126 150.958 109.291C152.127 105.463 155.711 103.518 159.416 104.652ZM156.199 115.187C158.485 115.884 160.655 114.785 161.361 112.474C162.064 110.168 160.883 108.043 158.599 107.344C156.313 106.647 154.144 107.746 153.441 110.051C152.735 112.363 153.913 114.488 156.199 115.187Z" fill="white"/>
<path d="M147.475 119.029L148.054 118.041L149.397 119.694L157.149 124.114L159.258 124.428L158.704 125.428L157.741 127.113L157.162 128.101L155.822 126.448L148.399 122.217L146.395 125.732L146.772 127.819L143.117 126.701L147.475 119.029Z" fill="white"/>
<path d="M151.389 133.811L153.811 134.045L151.642 136.664L144.067 134.492L147.614 141.525L145.486 144.096L144.802 141.756L139.412 130.768L139.574 130.571L151.389 133.811Z" fill="white"/>
<path d="M134.314 136.863L135.207 136.148L135.866 138.174L141.518 145.081L143.374 146.129L142.497 146.864L135.277 152.754L133.649 149.53L135.549 149.425L139.153 146.48L137.389 144.327L134.235 146.908L132.734 145.074L135.888 142.494L134.029 140.217L130.438 143.155L129.928 145.059L127.085 142.794L134.314 136.863Z" fill="white"/>
<path d="M125.394 145.264L125.799 148.612L123.636 147.899C122.816 147.978 121.929 148.247 121.122 148.669C119.77 149.372 119.228 150.22 119.637 150.999C119.944 151.595 120.606 151.75 121.739 151.519L124.159 151.028C126.451 150.559 128.019 151.116 128.852 152.709C129.954 154.825 128.899 157.063 126.084 158.533C124.532 159.343 122.724 159.758 121.287 159.647L120.872 156.474L122.81 157.127C123.532 157.006 124.311 156.75 125.011 156.383C126.356 155.68 126.876 154.888 126.483 154.137C126.195 153.59 125.609 153.444 124.513 153.669L122.142 154.15C119.754 154.631 118.123 154.065 117.268 152.421C116.144 150.268 117.236 147.959 120.071 146.477C121.692 145.632 123.573 145.211 125.394 145.264Z" fill="white"/>
<path d="M155.61 82.6088L158.235 79.9899C158.957 81.9248 160.544 82.916 162.624 82.5043C165.037 82.0261 166.123 80.0628 165.617 77.5009L164.543 72.0289L164.309 70.9111L162.513 72.0543L153.754 73.7928L151.658 73.4223L151.867 74.5464L152.25 76.4813L152.485 77.5991L154.28 76.4559L157.279 75.8606L157.52 77.083L153.216 81.2661L153.33 81.9121L153.944 84.9426L155.61 82.6088ZM159.518 75.4141L162.656 74.7934L163.216 77.6339C163.425 78.6853 163.033 79.5846 162.013 79.7873C161.003 79.9868 160.287 79.3123 160.078 78.2578L159.518 75.4141Z" fill="white"/>
</svg>
