<?xml version="1.0" encoding="UTF-8"?>
<svg xmlns="http://www.w3.org/2000/svg" id="Layer_2" data-name="Layer 2" viewBox="0 0 288 288">
  <defs>
    <style>
      .cls-1 {
        fill: #bbc4c7;
      }

      .cls-2 {
        fill: #fff;
      }

      .cls-3 {
        fill: #009845;
      }

      .cls-4 {
        fill: #1a428a;
      }
    </style>
  </defs>
  <g id="Layer_1-2" data-name="Layer 1">
    <g>
      <circle class="cls-3" cx="144" cy="144" r="144"></circle>
      <circle class="cls-2" cx="144" cy="144" r="134.94"></circle>
      <circle class="cls-4" cx="144" cy="144" r="125.89"></circle>
      <g>
        <path class="cls-1" d="M210.29,79.5c-.25,5.45-1.79,11.46-4.9,19.69,9.82,10.47,12.72,19.27,5.73,32.56-3.12-.42-7.22,1.2-11.28,4.53,9.88,9.8,18.52,19.26,25.61,27.96l6.3-11.31h0s0,0,0,0l16.03,28.76-9-1.05,9.5,15.58c7.89-15.71,12.33-33.45,12.33-52.23,0-3.27,4.09-48.3-50.33-64.5Z"></path>
        <path class="cls-1" d="M47.68,173.43c-6.44-3.79-11.51-9.28-14.98-15.06,6.44-2.06,12.33-4.59,17.76-7.43,4.13-19.78,12.74-40.22,25.66-58.83-19.2-7.39-40.87,4.01-46.8,30.75-2.25,10.13-4.76,35.14,5.64,62.54,4.84-4.03,9.24-8.18,12.72-11.97Z"></path>
        <path class="cls-1" d="M136.21,48.43c10.03,6,22.53,9.82,35.77,13.25,5.9-6.12,11.17-11.47,14.95-14.63,5.26-1.3,11.16-.33,14.6,3.84,5.04,6.11,8.1,20.15,8.23,20.87,15.58,5.06,29.95,11.93,40.24,23.57-9.1-19.79-23.57-36.59-41.56-48.54-19.64-12.67-46.39-11.28-72.23,1.63Z"></path>
        <path class="cls-1" d="M80.31,85.65c2.13-4.06,4.71-9.45,7.82-16.37-11.48-12.76-18.41-13.41-20.14-13.71-11.76,10.12-21.47,22.54-28.45,36.56,10.2-8.99,25.28-13.02,40.76-6.48Z"></path>
        <path class="cls-1" d="M129.61,43.83c16.56-8.54,33.56-12.48,48.99-11.23-26.83-8.32-49.43-4.55-57.18-3.03-.74,4.79,3.27,10.15,8.2,14.25Z"></path>
        <path class="cls-1" d="M122.8,47.62c-4.88-4.58-8.64-10.53-8.77-16.34-14.64,3.88-28.16,10.54-39.94,19.38,6.55,1.16,14.75,2.59,29.23,4.89,17.52-6.92,19.23-7.79,19.48-7.94Z"></path>
        <path class="cls-1" d="M194.7,141.53c-20.5,25.48-3.15,50.39-7.22,82.89l12.82-21.12-7.9.92,13.57-24.35h0s0,0,0,0l9.18,16.47,9.56-15.68-9,1.05,5.91-10.61c-7.44-9.27-16.66-19.36-26.94-29.55Z"></path>
        <path class="cls-1" d="M105.57,79.51c-7.96,4.67-13.13,7.78-16.89,10.77,5.88,4.17,10.54,9.75,14.34,16.36,14.28-12.99,19.19-10.45,35.1-13.38-7.81-5.66-10.18-8.22-32.56-13.75Z"></path>
        <path class="cls-1" d="M119.53,65.9c13.23,15.01,17.08,16.97,25.39,23.02,6.71-6.09,14.22-13.86,21.28-21.21-13.28-3.61-25.96-7.94-36.48-14.78-2.55,2.18-4.53,4.94-10.2,12.98Z"></path>
      </g>
      <path class="cls-3" d="M104.58,72.39c5.57,1.53,9.96,2.68,16.62,4.7-3.35-3.83-6.79-7.64-10.04-10.86,2.64-3.58,5.31-7.17,8.19-10.79-5.93,2.22-10.78,4.16-15.75,6.4-5.72-1.4-11.46-2.53-17.49-3.53,4.19,3.74,6.86,6.32,10.31,9.81-2.47,4.13-5,8.66-7.72,14.1,5.46-3.55,10.5-6.67,15.88-9.84Z"></path>
      <path class="cls-1" d="M83,149.48c-11.68,6.6-24.79,10.53-39.07,11.77,8.47,8.61,23.24,10.43,35.13,5.28-3.4-.89-7-2.53-8.92-3.96,6.2-2.94,10.8-7.85,12.86-13.08Z"></path>
      <path class="cls-2" d="M205.35,113.4c-7.93.04-15.42,8.19-20.92,8.19-2.85,0-4.26-2.3-4.4-5.34-.38-8.3,15.4-22.57,18.33-41.65.22-1.44,1.17-1.48,1.68.04,1.31,3.88,1.65,12.33.62,20.52,4.93-12.11,5.27-21.53.74-29.62-.93.82-1.92,1.65-2.69,2.26-11.36-2.44-15.47-1.46-19-5.76-24.04,25.08-29.95,29.51-39.29,48.63-.38-2.8-.82-5.9-1.44-7.62-.73-2.03-1.81-2.56-5.19-2.56-5.5,0-13.58,1.39-18.02,4.79-4.82,3.69-9.62,11.3-12.15,27.55,14.33.16,20.14-.52,25.96-3.65-4.7,9.35-14.13,19.26-29.51,28.11,3.22,1.38,8.41,2.2,12.66,1.95-12.97,13.98-16.17,29.79-8.74,49.34,1.21-8.26,3.92-15.06,7.7-19.37,1.2,20.46,11.71,27.23,24.1,48.89,1.68-6.04,2.51-12.73,2.43-19.12,10.93,13.23,16.39,24.18,18.71,37.52,9.56-10.2,15.33-25.51,15.61-39.2,2.59,3.32,4.58,7.36,5.65,11.41,7.91-27.11-3.86-43.04.26-65.89-1.61-1.83-7.21.59-13.76,8.04,9.34-28.94,35.75-48.95,42.95-45.63,3.01-6.4,2.26-11.84-2.31-11.82Z"></path>
      <path class="cls-3" d="M200.56,60.28c-.91-3.09-2.1-5.28-3.54-6.5-1.8-1.53-4.79-2.16-7.55-1.59-1.27.89-4.1,3.69-7.05,6.81,3.51-.3,6.55-1.33,10.62-1.33,3.59,0,5.93.81,7.52,2.61Z"></path>
      <path class="cls-2" d="M206.12,109.82c-.46-2.41-2.01-4.53-3.79-5.36.14,1.34-.09,3.41-.58,5.29,1.74-.29,3.21-.27,4.37.08Z"></path>
      <path class="cls-2" d="M192.62,104.49c.62,2.77.75,5.82.49,8.29,1.97-.97,3.8-1.71,5.47-2.25-1.27-2.76-3.46-5.12-5.95-6.05Z"></path>
      <path class="cls-3" d="M133.52,106.99c-4.9-.21-9.39.68-12.17,2.63-2.91,2.05-5.66,6.64-7.37,12.43,4.39-1.22,9.91-3.33,13.1-5.85,2.27-3.26,4.48-6.5,6.44-9.21Z"></path>
      <path class="cls-1" d="M136.04,198.57c.06,4.17-.51,10.21-1.31,15.05-9.42-15.63-16.17-24.99-12.38-40.88-2.96,1.71-6.38,5.44-8.7,9.22.05-11.4,4.35-20.31,11.76-28.55-2.04.27-5.21.27-7.73.02,9.48-8.99,11.79-16.39,11.93-24.27h0c-4.7,9.35-14.13,19.27-29.51,28.11,3.22,1.38,8.41,2.2,12.66,1.95-12.97,13.98-16.17,29.79-8.74,49.34,1.21-8.26,3.92-15.06,7.7-19.37,1.2,20.46,11.71,27.23,24.1,48.89,1.68-6.04,2.51-12.73,2.43-19.12,10.93,13.23,16.39,24.18,18.71,37.52,3.28-18.99-1.29-32.88-20.9-57.92Z"></path>
      <path class="cls-1" d="M82.94,95.63c-.31.5-16.46,21.53-24.16,50.49,16.59-10.53,28.46-23.74,38.55-33.93-6.19-11.78-14.32-16.51-14.39-16.55Z"></path>
    </g>
  </g>
</svg>
