<?xml version="1.0" encoding="UTF-8"?>
<svg id="Layer_1" xmlns="http://www.w3.org/2000/svg" xmlns:xlink="http://www.w3.org/1999/xlink" version="1.1" viewBox="0 0 480 303.17">
  <!-- Generator: Adobe Illustrator 30.5.1, SVG Export Plug-In . SVG Version: 2.1.4 Build 3)  -->
  <defs>
    <style>
      .st0 {
        fill: none;
      }

      .st1 {
        fill: #001c44;
      }

      .st2 {
        fill: #ba9d69;
      }

      .st3 {
        fill: #fff;
      }

      .st4 {
        fill: #bb2034;
      }

      .st5 {
        clip-path: url(#clippath);
      }
    </style>
    <clipPath id="clippath">
      <rect class="st0" width="480" height="303.07"/>
    </clipPath>
  </defs>
  <g class="st5">
    <g>
      <path class="st1" d="M90.34,280.03h12.58c3.84,0,10.08,0,10.08,6.91s-6.24,6.91-10.08,6.91h-8.16v8.74h-4.42v-22.56ZM103.87,290.02c2.5,0,4.7-.19,4.7-3.17s-2.21-3.07-4.7-3.07h-9.12v6.24h9.12Z"/>
      <path class="st1" d="M131.62,280.03h20.26v3.74h-15.84v5.28h13.63v3.74h-13.63v5.95h16.22v3.74h-20.64v-22.56.1Z"/>
      <path class="st1" d="M171.26,280.03h4.42v18.62h16.32v3.94h-20.74v-22.56Z"/>
      <path class="st1" d="M211.2,280.03h4.42v22.56h-4.42v-22.56Z"/>
      <path class="st1" d="M260.35,294.53c-.48,2.5-2.21,8.64-12.58,8.64-7.1,0-12.77-3.94-12.77-12.19,0-6.62,4.13-11.52,13.06-11.52,10.08,0,11.62,6.53,11.9,7.78h-4.42c-.29-.77-2.02-3.94-7.3-3.94-6.24,0-8.83,3.55-8.83,8.16,0,5.18,3.74,7.87,8.64,7.87,5.18,0,7.39-3.07,7.87-4.8h4.42Z"/>
      <path class="st1" d="M288.38,280.03h4.99l10.94,22.56h-4.61l-2.4-5.18h-12.96l-2.4,5.18h-4.7l11.14-22.56ZM295.58,293.66l-4.7-10.08-4.7,10.08h9.41Z"/>
      <path class="st1" d="M322.85,280.03h4.61l15.07,16.32v-16.32h4.22v22.56h-4.03l-15.74-16.9v16.9h-4.22v-22.56h.1Z"/>
      <path class="st1" d="M385.15,286.85c-.67-2.02-2.59-3.74-7.87-3.74-2.98,0-5.95.77-5.95,2.78,0,.96.58,2.02,5.09,2.5l5.38.77c5.09.77,8.06,2.69,8.06,6.53,0,5.38-5.09,7.3-11.14,7.3-9.7,0-12-4.8-12.58-6.53l4.22-1.34c.77,1.63,2.5,4.03,8.45,4.03,3.55,0,6.62-1.15,6.62-3.17,0-1.44-1.63-2.4-4.9-2.78l-5.38-.77c-5.18-.67-8.16-2.98-8.16-6.43,0-6.72,8.74-6.72,10.56-6.72,9.7,0,11.42,4.51,11.9,6.05l-4.13,1.34-.19.19Z"/>
      <path class="st1" d="M225.12,234.62v-13.34c0-1.82-.29-3.46-.96-4.9-.67-1.34-1.54-2.5-2.69-3.46-1.15-.86-2.5-1.54-4.03-2.02-1.54-.48-3.26-.67-5.09-.67s-3.46.19-5.09.67c-1.54.38-2.98,1.15-4.13,2.02-1.15.86-2.11,2.02-2.78,3.46-.67,1.44-.96,3.07-.96,4.9v13.34c-1.34.19-2.4,1.34-2.4,2.88s1.06,2.59,2.4,2.78v14.98c0,1.82.29,3.46.96,4.9.67,1.34,1.54,2.59,2.78,3.46,1.15.96,2.5,1.63,4.13,2.02,1.54.48,3.26.67,5.09.67s3.46-.19,5.09-.67c1.54-.38,2.88-1.15,4.03-2.02,1.15-.96,2.02-2.11,2.69-3.46.67-1.44.96-3.07.96-4.9v-14.98c1.44-.19,2.59-1.34,2.59-2.88s-1.15-2.69-2.59-2.88M217.92,254.88c0,.96-.19,1.82-.48,2.5-.38.67-.77,1.15-1.34,1.63-.58.38-1.15.77-1.82.96-.67.19-1.34.29-2.02.29s-1.34-.1-2.02-.29c-.67-.19-1.25-.48-1.82-.96-.58-.38-.96-.96-1.34-1.63-.38-.67-.48-1.44-.48-2.5v-33.41c0-.96.19-1.82.48-2.5.38-.67.77-1.15,1.34-1.63.58-.38,1.15-.77,1.82-.96.67-.19,1.34-.29,2.02-.29s1.34,0,2.02.29c.67.19,1.25.48,1.82.96.58.38.96.96,1.34,1.63.38.67.48,1.44.48,2.5v33.41Z"/>
      <path class="st1" d="M88.9,246.91s0,.19-.1,0c0-.1-.1-.19-.19-.29-.19-.67-.58-1.92-1.15-3.84-.58-1.92-1.25-4.13-2.02-6.62-.77-2.5-1.54-5.18-2.4-7.87-.86-2.78-1.63-5.28-2.4-7.58s-1.34-4.22-1.82-5.86c-.48-1.54-.77-2.4-.77-2.5-.19-.48-.38-.86-.67-1.15-.29-.29-.77-.38-1.34-.38h-8.26v2.4c0,.86.1,1.54.38,2.02s.58.96.86,1.25c.38.38.77.58,1.25.77v17.38c-1.34.29-2.3,1.44-2.3,2.78s1.06,2.59,2.3,2.78v25.44h6.43v-35.33l.19.19s.29.86.77,2.4,1.06,3.46,1.82,5.76c.77,2.3,1.54,4.8,2.4,7.49s1.63,5.18,2.4,7.58,1.44,4.42,1.92,6.05c.58,1.73.86,2.69.96,2.88.29.86.48,1.54.77,2.02.29.58.77.77,1.34.77h4.22c.58,0,1.06-.19,1.34-.58s.48-.86.48-1.34v-23.52c1.15-.38,2.11-1.44,2.11-2.78s-.86-2.4-2.11-2.78v-16.9s.1-.77.29-.96c.1-.19.29-.38.48-.58.38-.29.77-.67,1.15-1.25.38-.58.58-1.25.58-2.02v-2.11h-8.93v36.29Z"/>
      <path class="st1" d="M373.06,246.91s0,.19-.1,0c0-.1-.1-.19-.19-.29-.19-.67-.58-1.92-1.15-3.84-.58-1.92-1.25-4.13-2.02-6.62-.77-2.5-1.54-5.18-2.4-7.87-.86-2.78-1.63-5.28-2.4-7.58s-1.34-4.22-1.82-5.86c-.48-1.54-.77-2.4-.77-2.5-.1-.48-.38-.86-.67-1.15s-.77-.38-1.34-.38h-8.26v2.4c0,.86.1,1.54.38,2.02.29.48.58.96.86,1.25.38.38.77.58,1.25.77v17.38c-1.34.29-2.3,1.44-2.3,2.78s.96,2.59,2.3,2.78v25.44h6.43v-35.33s.1.1.19.19c0,0,.29.86.77,2.4.48,1.54,1.06,3.46,1.82,5.76.77,2.3,1.54,4.8,2.4,7.49s1.63,5.18,2.4,7.58c.77,2.4,1.44,4.42,1.92,6.05.58,1.73.86,2.69.96,2.88.29.86.48,1.54.77,2.02.29.58.67.77,1.34.77h4.22c.58,0,1.06-.19,1.34-.58s.48-.86.48-1.34v-23.52c1.15-.38,2.11-1.44,2.11-2.78s-.86-2.4-2.11-2.78v-16.9s.1-.77.29-.96c.1-.19.29-.38.48-.58.38-.29.77-.67,1.15-1.25.38-.58.58-1.25.58-2.02v-2.11h-8.93v36.29Z"/>
      <path class="st1" d="M407.33,238.75c-1.15-1.06-2.4-1.92-3.74-2.78,0-.19.1-.48.1-.77,0-1.63-1.25-2.88-2.88-2.88-.67,0-1.34.29-1.82.67-.19-.19-.48-.29-.67-.48-1.34-.86-2.5-1.82-3.46-2.69-.96-.86-1.44-1.82-1.44-2.78v-7.3c0-.58.19-1.06.48-1.44.38-.38.77-.77,1.34-1.06.58-.29,1.06-.48,1.73-.67.58-.19,1.15-.19,1.73-.19.48,0,1.06,0,1.63.19.58.1,1.15.29,1.63.58.48.29.96.58,1.25,1.06.38.48.48.96.48,1.54v2.69c0,1.15.38,2.11,1.25,2.98.86.77,1.82,1.15,3.07,1.15h3.26v-5.47c0-1.82-.29-3.46-.96-4.9-.67-1.34-1.54-2.5-2.69-3.46-1.15-.86-2.5-1.54-4.03-2.02-1.54-.48-3.17-.67-4.99-.67s-3.46.19-4.99.58c-1.54.38-2.88,1.06-3.94,2.02-1.15.86-2.02,2.02-2.59,3.46-.67,1.44-.96,3.07-.96,4.99v5.18c0,2.02.48,3.84,1.34,5.28.86,1.44,2.02,2.69,3.46,3.74,1.34,1.06,2.78,2.02,4.32,2.88-.19.38-.29.77-.29,1.15,0,1.63,1.25,2.88,2.88,2.88.86,0,1.63-.38,2.21-1.06,1.25.86,2.3,1.82,3.17,2.88.86,1.15,1.34,2.5,1.34,4.13v7.78c0,.67-.19,1.25-.58,1.73-.38.48-.86.96-1.44,1.34s-1.25.67-1.92.86-1.34.29-2.02.29-1.25-.1-2.02-.29c-.67-.19-1.34-.48-1.82-.77-.58-.38-1.06-.77-1.34-1.25-.38-.48-.58-1.06-.58-1.73v-3.17c0-1.15-.29-2.02-.96-2.59-.67-.58-1.63-.96-2.98-.96h-3.55v5.47c0,1.82.38,3.46,1.06,4.9.67,1.34,1.63,2.5,2.88,3.46,1.15.86,2.59,1.54,4.22,2.02,1.63.48,3.36.67,5.09.67s3.55-.19,5.09-.67c1.63-.48,3.07-1.15,4.22-2.02,1.25-.86,2.21-2.02,2.98-3.46.77-1.44,1.06-3.07,1.06-4.9v-7.2c0-1.92-.48-3.65-1.34-5.18-.96-1.54-2.11-2.88-3.46-4.13"/>
      <path class="st1" d="M170.02,238.27c-.29,2.5-.58,4.99-.86,7.49-.29,2.5-.58,4.61-.77,6.53-.29,1.92-.48,3.46-.58,4.61-.19,1.15-.29,1.73-.29,1.73-.58-3.55-1.15-6.72-1.54-9.6-.48-2.88-.96-6.05-1.54-9.5l-1.73-10.37c-.58-3.36-1.15-6.53-1.63-9.41-.48-2.88-.96-5.18-1.34-6.91-.1-.58-.58-.96-1.34-1.34-.77-.38-1.63-.48-2.5-.48-.77,0-1.54.1-2.3.38-.77.29-1.25.77-1.44,1.34-.38,1.63-.86,3.84-1.34,6.82-.48,2.88-1.06,6.05-1.63,9.41-.58,3.36-1.15,6.82-1.73,10.37-.58,3.55-1.06,6.72-1.54,9.6s-.96,6.14-1.54,9.7c0,0-.19-.58-.29-1.73-.19-1.15-.38-2.69-.58-4.61-.19-1.92-.48-4.03-.77-6.53-.29-2.4-.58-4.9-.86-7.49-.67-5.95-3.07-27.46-3.07-27.46h-8.93v2.21c0,.86.19,1.54.48,2.02.38.58.67.96,1.06,1.15.29.19.48.38.67.67.19.19.38.58.48.96.67,6.14,1.34,11.71,1.92,16.9-1.06.38-1.82,1.44-1.82,2.69,0,1.44,1.06,2.59,2.4,2.78v.29c.38,2.88.67,5.66.96,8.45.29,2.69.58,5.18.86,7.39.29,2.21.48,3.94.67,5.28.19,1.34.29,2.11.29,2.21,0,.38.19.77.48,1.15.29.38.67.58,1.15.58h8.26c.58,0,.96-.19,1.25-.48.29-.29.58-.77.77-1.44l6.24-35.71,6.05,35.71c.19.67.48,1.06.77,1.44.29.29.67.48,1.25.48h8.16c.48,0,.86-.19,1.15-.58.29-.38.38-.77.48-1.15,0-.1,0-.86.29-2.21.19-1.34.38-3.17.67-5.28.29-2.21.58-4.61.86-7.39.29-2.78.67-5.57.96-8.45v-.29c1.34-.19,2.4-1.44,2.4-2.78,0-1.15-.77-2.21-1.73-2.69.58-5.18,1.25-10.85,1.92-16.9,0-.38.29-.67.48-.96.19-.29.38-.48.67-.67.38-.29.77-.67,1.06-1.15.38-.58.48-1.25.48-2.02v-2.21h-8.93s-2.4,21.41-3.07,27.46"/>
      <path class="st1" d="M345.31,237.41c0-1.44-1.06-2.59-2.4-2.78-.38-1.92-.67-3.84-1.06-5.76-.48-2.69-.86-4.99-1.25-7.1-.38-2.11-.67-3.84-.96-5.28-.29-1.34-.38-2.11-.38-2.3,0-.86-.48-1.63-1.15-2.3s-1.54-.96-2.69-.96h-9.79v1.73c0,2.11.58,3.36,1.82,3.84.29.1.38.29.38.58v1.06s-.1.67-.29,1.82c-.19,1.15-.48,2.69-.86,4.61-.38,1.92-.77,4.03-1.25,6.53-.19,1.15-.38,2.4-.67,3.55-1.54,0-2.78,1.25-2.78,2.88,0,1.15.77,2.21,1.73,2.69-1.44,7.39-4.7,25.54-4.7,25.54h7.01s2.02-12.38,2.11-12.58c0-.96.58-1.44,1.34-1.44h8.35s.77,0,1.06.29c.29.19.48.58.58,1.15,0,.19,1.63,12.58,1.63,12.58h7.39s-3.07-17.18-4.51-25.73c.86-.48,1.44-1.44,1.44-2.5M338.02,245.18s-.48.38-.77.38h-6.91s-.58-.1-.77-.29-.29-.48-.19-.86c0,0,0-.48.19-1.25.1-.77.29-1.82.48-2.98.19-1.25.38-2.59.67-4.13s.48-3.07.77-4.7l2.21-12.77h.19l2.21,12.77c.29,1.63.58,3.17.77,4.7s.48,2.88.67,4.13.38,2.21.48,2.98c.19.77.19,1.25.19,1.25,0,.29,0,.58-.19.77Z"/>
      <path class="st1" d="M257.09,259.97s-.48-.29-.58-.38c-.19-.1-.29-.38-.29-.96v-12.58c0-1.82-.29-3.46-.77-4.9-.58-1.44-1.34-2.59-2.5-3.46-.58-.58-.58-1.06-.19-1.44,1.06-.86,1.82-1.92,2.5-3.17.67-1.25.96-2.69.96-4.32v-5.76c0-1.82-.19-3.46-.67-4.99-.48-1.44-1.15-2.78-2.11-3.84-.96-1.06-2.21-1.92-3.65-2.5-1.44-.58-3.26-.96-5.38-.96h-15.07v2.11c0,1.06.19,1.82.58,2.3.38.58.77.96,1.15,1.15.19.1.38.29.48.48.19.19.19.58.19.96v16.8c-1.34.29-2.3,1.44-2.3,2.78s.96,2.5,2.3,2.78v25.44h7.2v-24.1c0-.67.29-1.06.96-1.06h4.51c1.54,0,2.69.48,3.46,1.44.67.96,1.06,2.3,1.06,3.94v16.13c0,1.06.29,1.92.96,2.59.58.67,1.54.96,2.78.96h6.05v-2.88c0-.86-.19-1.54-.58-1.82-.38-.38-.77-.67-1.15-.96M248.83,228.67c0,1.73-.38,3.07-1.06,4.13s-1.82,1.54-3.46,1.54h-4.61s-.38,0-.58-.19-.29-.38-.29-.58v-15.65c0-.67.38-1.06,1.15-1.06h4.32c1.54,0,2.69.48,3.46,1.54.67.96,1.06,2.4,1.06,4.03v6.34-.1Z"/>
      <path class="st1" d="M280.03,244.13c-.77.38-1.06,1.06-1.06,2.21,0,.29,0,12.67-.1,12.96-.19.29-.38.38-.77.38h-6.43s-.58-.1-.77-.48c-.19-.29-.19-.67-.19-1.06v-40.32c0-.58,0-.86.1-1.06.1-.19.29-.38.58-.48.38-.29.77-.67,1.15-1.25.38-.58.58-1.25.58-2.02v-2.21h-12.29v2.21c0,.86.19,1.54.58,2.02.38.58.77.96,1.15,1.25.29.19.48.29.58.48.19.19.19.58.19,1.06v16.7c-1.34.29-2.3,1.44-2.3,2.78s.96,2.59,2.3,2.78v25.44h20.83s.77-.19,1.15-.48c.38-.38.58-.86.58-1.44v-20.06h-3.07c-1.06,0-2.11.19-2.88.48"/>
      <path class="st1" d="M124.42,210.91h-23.71v2.11c0,.96.1,1.73.38,2.3s.67.96,1.15,1.15c.29.19.48.38.67.58.19.19.29.58.29,1.06v16.61c-1.34.29-2.3,1.44-2.3,2.78s.96,2.59,2.3,2.78v25.44h20.83s.38,0,.48-.1c.29,0,.48-.19.67-.38.38-.38.58-.77.58-1.34v-15.55h-3.07c-1.06,0-2.11.19-2.88.48-.77.38-1.06,1.06-1.06,2.21,0,.29,0,8.06-.1,8.26-.19.29-.38.38-.77.38h-6.62c-.58,0-.86-.38-.86-1.06v-17.09c0-.67.38-1.06,1.06-1.06h8.83c.77,0,1.06-.38,1.06-1.06v-4.13s-.1-.67-.38-.86c-.29-.19-.58-.29-.77-.29h-8.74c-.77,0-1.06-.38-1.06-1.06v-15.36s.1-.58.29-.77c.19-.19.48-.29.67-.29h7.01s.19.1.29.29c.19.29.1,7.97.1,8.26,0,1.15.38,1.82,1.06,2.21.77.38,1.82.48,2.88.48h3.07v-15.74s-.19-.77-.48-1.15c-.19-.19-.58-.38-.86-.48"/>
      <path class="st1" d="M312.77,210.91h-23.71v2.11c0,.96.1,1.73.38,2.3.29.58.67.96,1.15,1.15.29.19.48.38.67.58.19.19.29.58.29,1.06v16.61c-1.34.29-2.3,1.44-2.3,2.78s.96,2.59,2.3,2.78v25.44h20.83s.38,0,.58-.1c.29,0,.48-.19.67-.38.38-.38.58-.77.58-1.34v-15.55h-3.07c-1.06,0-2.11.19-2.88.48-.77.38-1.06,1.06-1.06,2.21,0,.29,0,8.06-.1,8.26-.19.29-.38.38-.77.38h-6.62c-.58,0-.86-.38-.86-1.06v-17.09c0-.67.38-1.06,1.06-1.06h8.83c.77,0,1.06-.38,1.06-1.06v-4.13s-.1-.67-.38-.86c-.29-.19-.48-.29-.77-.29h-8.74c-.77,0-1.06-.38-1.06-1.06v-15.36s.1-.58.29-.77c.19-.19.48-.29.67-.29h7.01s.19.1.29.29c.19.29.1,7.97.1,8.26,0,1.15.38,1.82,1.06,2.21.77.38,1.82.48,2.88.48h3.07v-15.74s-.19-.77-.48-1.15c-.19-.19-.58-.38-.86-.48"/>
      <path class="st1" d="M225.12,234.62v-13.34c0-1.82-.29-3.46-.96-4.9-.67-1.34-1.54-2.5-2.69-3.46-1.15-.86-2.5-1.54-4.03-2.02-1.54-.48-3.26-.67-5.09-.67s-3.46.19-5.09.67c-1.54.38-2.98,1.15-4.13,2.02-1.15.86-2.11,2.02-2.78,3.46-.67,1.44-.96,3.07-.96,4.9v13.34c-1.34.19-2.4,1.34-2.4,2.88s1.06,2.59,2.4,2.78v14.98c0,1.82.29,3.46.96,4.9.67,1.34,1.54,2.59,2.78,3.46,1.15.96,2.5,1.63,4.13,2.02,1.54.48,3.26.67,5.09.67s3.46-.19,5.09-.67c1.54-.38,2.88-1.15,4.03-2.02,1.15-.96,2.02-2.11,2.69-3.46.67-1.44.96-3.07.96-4.9v-14.98c1.44-.19,2.59-1.34,2.59-2.88s-1.15-2.69-2.59-2.88M217.92,254.88c0,.96-.19,1.82-.48,2.5-.38.67-.77,1.15-1.34,1.63-.58.38-1.15.77-1.82.96-.67.19-1.34.29-2.02.29s-1.34-.1-2.02-.29c-.67-.19-1.25-.48-1.82-.96-.58-.38-.96-.96-1.34-1.63-.38-.67-.48-1.44-.48-2.5v-33.41c0-.96.19-1.82.48-2.5.38-.67.77-1.15,1.34-1.63.58-.38,1.15-.77,1.82-.96.67-.19,1.34-.29,2.02-.29s1.34,0,2.02.29c.67.19,1.25.48,1.82.96.58.38.96.96,1.34,1.63.38.67.48,1.44.48,2.5v33.41Z"/>
      <path class="st1" d="M88.9,246.91s0,.19-.1,0c0-.1-.1-.19-.19-.29-.19-.67-.58-1.92-1.15-3.84-.58-1.92-1.25-4.13-2.02-6.62-.77-2.5-1.54-5.18-2.4-7.87-.86-2.78-1.63-5.28-2.4-7.58s-1.34-4.22-1.82-5.86c-.48-1.54-.77-2.4-.77-2.5-.19-.48-.38-.86-.67-1.15-.29-.29-.77-.38-1.34-.38h-8.26v2.4c0,.86.1,1.54.38,2.02s.58.96.86,1.25c.38.38.77.58,1.25.77v17.38c-1.34.29-2.3,1.44-2.3,2.78s1.06,2.59,2.3,2.78v25.44h6.43v-35.33l.19.19s.29.86.77,2.4,1.06,3.46,1.82,5.76c.77,2.3,1.54,4.8,2.4,7.49s1.63,5.18,2.4,7.58,1.44,4.42,1.92,6.05c.58,1.73.86,2.69.96,2.88.29.86.48,1.54.77,2.02.29.58.77.77,1.34.77h4.22c.58,0,1.06-.19,1.34-.58s.48-.86.48-1.34v-23.52c1.15-.38,2.11-1.44,2.11-2.78s-.86-2.4-2.11-2.78v-16.9s.1-.77.29-.96c.1-.19.29-.38.48-.58.38-.29.77-.67,1.15-1.25.38-.58.58-1.25.58-2.02v-2.11h-8.93v36.29Z"/>
      <path class="st1" d="M373.06,246.91s0,.19-.1,0c0-.1-.1-.19-.19-.29-.19-.67-.58-1.92-1.15-3.84-.58-1.92-1.25-4.13-2.02-6.62-.77-2.5-1.54-5.18-2.4-7.87-.86-2.78-1.63-5.28-2.4-7.58s-1.34-4.22-1.82-5.86c-.48-1.54-.77-2.4-.77-2.5-.1-.48-.38-.86-.67-1.15s-.77-.38-1.34-.38h-8.26v2.4c0,.86.1,1.54.38,2.02.29.48.58.96.86,1.25.38.38.77.58,1.25.77v17.38c-1.34.29-2.3,1.44-2.3,2.78s.96,2.59,2.3,2.78v25.44h6.43v-35.33s.1.1.19.19c0,0,.29.86.77,2.4.48,1.54,1.06,3.46,1.82,5.76.77,2.3,1.54,4.8,2.4,7.49s1.63,5.18,2.4,7.58c.77,2.4,1.44,4.42,1.92,6.05.58,1.73.86,2.69.96,2.88.29.86.48,1.54.77,2.02.29.58.67.77,1.34.77h4.22c.58,0,1.06-.19,1.34-.58s.48-.86.48-1.34v-23.52c1.15-.38,2.11-1.44,2.11-2.78s-.86-2.4-2.11-2.78v-16.9s.1-.77.29-.96c.1-.19.29-.38.48-.58.38-.29.77-.67,1.15-1.25.38-.58.58-1.25.58-2.02v-2.11h-8.93v36.29Z"/>
      <path class="st1" d="M407.33,238.75c-1.15-1.06-2.4-1.92-3.74-2.78,0-.19.1-.48.1-.77,0-1.63-1.25-2.88-2.88-2.88-.67,0-1.34.29-1.82.67-.19-.19-.48-.29-.67-.48-1.34-.86-2.5-1.82-3.46-2.69-.96-.86-1.44-1.82-1.44-2.78v-7.3c0-.58.19-1.06.48-1.44.38-.38.77-.77,1.34-1.06.58-.29,1.06-.48,1.73-.67.58-.19,1.15-.19,1.73-.19.48,0,1.06,0,1.63.19.58.1,1.15.29,1.63.58.48.29.96.58,1.25,1.06.38.48.48.96.48,1.54v2.69c0,1.15.38,2.11,1.25,2.98.86.77,1.82,1.15,3.07,1.15h3.26v-5.47c0-1.82-.29-3.46-.96-4.9-.67-1.34-1.54-2.5-2.69-3.46-1.15-.86-2.5-1.54-4.03-2.02-1.54-.48-3.17-.67-4.99-.67s-3.46.19-4.99.58c-1.54.38-2.88,1.06-3.94,2.02-1.15.86-2.02,2.02-2.59,3.46-.67,1.44-.96,3.07-.96,4.99v5.18c0,2.02.48,3.84,1.34,5.28.86,1.44,2.02,2.69,3.46,3.74,1.34,1.06,2.78,2.02,4.32,2.88-.19.38-.29.77-.29,1.15,0,1.63,1.25,2.88,2.88,2.88.86,0,1.63-.38,2.21-1.06,1.25.86,2.3,1.82,3.17,2.88.86,1.15,1.34,2.5,1.34,4.13v7.78c0,.67-.19,1.25-.58,1.73-.38.48-.86.96-1.44,1.34s-1.25.67-1.92.86-1.34.29-2.02.29-1.25-.1-2.02-.29c-.67-.19-1.34-.48-1.82-.77-.58-.38-1.06-.77-1.34-1.25-.38-.48-.58-1.06-.58-1.73v-3.17c0-1.15-.29-2.02-.96-2.59-.67-.58-1.63-.96-2.98-.96h-3.55v5.47c0,1.82.38,3.46,1.06,4.9.67,1.34,1.63,2.5,2.88,3.46,1.15.86,2.59,1.54,4.22,2.02,1.63.48,3.36.67,5.09.67s3.55-.19,5.09-.67c1.63-.48,3.07-1.15,4.22-2.02,1.25-.86,2.21-2.02,2.98-3.46.77-1.44,1.06-3.07,1.06-4.9v-7.2c0-1.92-.48-3.65-1.34-5.18-.96-1.54-2.11-2.88-3.46-4.13"/>
      <path class="st1" d="M170.02,238.27c-.29,2.5-.58,4.99-.86,7.49-.29,2.5-.58,4.61-.77,6.53-.29,1.92-.48,3.46-.58,4.61-.19,1.15-.29,1.73-.29,1.73-.58-3.55-1.15-6.72-1.54-9.6-.48-2.88-.96-6.05-1.54-9.5l-1.73-10.37c-.58-3.36-1.15-6.53-1.63-9.41-.48-2.88-.96-5.18-1.34-6.91-.1-.58-.58-.96-1.34-1.34-.77-.38-1.63-.48-2.5-.48-.77,0-1.54.1-2.3.38-.77.29-1.25.77-1.44,1.34-.38,1.63-.86,3.84-1.34,6.82-.48,2.88-1.06,6.05-1.63,9.41-.58,3.36-1.15,6.82-1.73,10.37-.58,3.55-1.06,6.72-1.54,9.6s-.96,6.14-1.54,9.7c0,0-.19-.58-.29-1.73-.19-1.15-.38-2.69-.58-4.61-.19-1.92-.48-4.03-.77-6.53-.29-2.4-.58-4.9-.86-7.49-.67-5.95-3.07-27.46-3.07-27.46h-8.93v2.21c0,.86.19,1.54.48,2.02.38.58.67.96,1.06,1.15.29.19.48.38.67.67.19.19.38.58.48.96.67,6.14,1.34,11.71,1.92,16.9-1.06.38-1.82,1.44-1.82,2.69,0,1.44,1.06,2.59,2.4,2.78v.29c.38,2.88.67,5.66.96,8.45.29,2.69.58,5.18.86,7.39.29,2.21.48,3.94.67,5.28.19,1.34.29,2.11.29,2.21,0,.38.19.77.48,1.15.29.38.67.58,1.15.58h8.26c.58,0,.96-.19,1.25-.48.29-.29.58-.77.77-1.44l6.24-35.71,6.05,35.71c.19.67.48,1.06.77,1.44.29.29.67.48,1.25.48h8.16c.48,0,.86-.19,1.15-.58.29-.38.38-.77.48-1.15,0-.1,0-.86.29-2.21.19-1.34.38-3.17.67-5.28.29-2.21.58-4.61.86-7.39.29-2.78.67-5.57.96-8.45v-.29c1.34-.19,2.4-1.44,2.4-2.78,0-1.15-.77-2.21-1.73-2.69.58-5.18,1.25-10.85,1.92-16.9,0-.38.29-.67.48-.96.19-.29.38-.48.67-.67.38-.29.77-.67,1.06-1.15.38-.58.48-1.25.48-2.02v-2.21h-8.93s-2.4,21.41-3.07,27.46"/>
      <path class="st1" d="M345.31,237.41c0-1.44-1.06-2.59-2.4-2.78-.38-1.92-.67-3.84-1.06-5.76-.48-2.69-.86-4.99-1.25-7.1-.38-2.11-.67-3.84-.96-5.28-.29-1.34-.38-2.11-.38-2.3,0-.86-.48-1.63-1.15-2.3s-1.54-.96-2.69-.96h-9.79v1.73c0,2.11.58,3.36,1.82,3.84.29.1.38.29.38.58v1.06s-.1.67-.29,1.82c-.19,1.15-.48,2.69-.86,4.61-.38,1.92-.77,4.03-1.25,6.53-.19,1.15-.38,2.4-.67,3.55-1.54,0-2.78,1.25-2.78,2.88,0,1.15.77,2.21,1.73,2.69-1.44,7.39-4.7,25.54-4.7,25.54h7.01s2.02-12.38,2.11-12.58c0-.96.58-1.44,1.34-1.44h8.35s.77,0,1.06.29c.29.19.48.58.58,1.15,0,.19,1.63,12.58,1.63,12.58h7.39s-3.07-17.18-4.51-25.73c.86-.48,1.44-1.44,1.44-2.5M338.02,245.18s-.48.38-.77.38h-6.91s-.58-.1-.77-.29-.29-.48-.19-.86c0,0,0-.48.19-1.25.1-.77.29-1.82.48-2.98.19-1.25.38-2.59.67-4.13s.48-3.07.77-4.7l2.21-12.77h.19l2.21,12.77c.29,1.63.58,3.17.77,4.7s.48,2.88.67,4.13.38,2.21.48,2.98c.19.77.19,1.25.19,1.25,0,.29,0,.58-.19.77Z"/>
      <path class="st1" d="M257.09,259.97s-.48-.29-.58-.38c-.19-.1-.29-.38-.29-.96v-12.58c0-1.82-.29-3.46-.77-4.9-.58-1.44-1.34-2.59-2.5-3.46-.58-.58-.58-1.06-.19-1.44,1.06-.86,1.82-1.92,2.5-3.17.67-1.25.96-2.69.96-4.32v-5.76c0-1.82-.19-3.46-.67-4.99-.48-1.44-1.15-2.78-2.11-3.84-.96-1.06-2.21-1.92-3.65-2.5-1.44-.58-3.26-.96-5.38-.96h-15.07v2.11c0,1.06.19,1.82.58,2.3.38.58.77.96,1.15,1.15.19.1.38.29.48.48.19.19.19.58.19.96v16.8c-1.34.29-2.3,1.44-2.3,2.78s.96,2.5,2.3,2.78v25.44h7.2v-24.1c0-.67.29-1.06.96-1.06h4.51c1.54,0,2.69.48,3.46,1.44.67.96,1.06,2.3,1.06,3.94v16.13c0,1.06.29,1.92.96,2.59.58.67,1.54.96,2.78.96h6.05v-2.88c0-.86-.19-1.54-.58-1.82-.38-.38-.77-.67-1.15-.96M248.83,228.67c0,1.73-.38,3.07-1.06,4.13s-1.82,1.54-3.46,1.54h-4.61s-.38,0-.58-.19-.29-.38-.29-.58v-15.65c0-.67.38-1.06,1.15-1.06h4.32c1.54,0,2.69.48,3.46,1.54.67.96,1.06,2.4,1.06,4.03v6.34-.1Z"/>
      <path class="st1" d="M280.03,244.13c-.77.38-1.06,1.06-1.06,2.21,0,.29,0,12.67-.1,12.96-.19.29-.38.38-.77.38h-6.43s-.58-.1-.77-.48c-.19-.29-.19-.67-.19-1.06v-40.32c0-.58,0-.86.1-1.06.1-.19.29-.38.58-.48.38-.29.77-.67,1.15-1.25.38-.58.58-1.25.58-2.02v-2.21h-12.29v2.21c0,.86.19,1.54.58,2.02.38.58.77.96,1.15,1.25.29.19.48.29.58.48.19.19.19.58.19,1.06v16.7c-1.34.29-2.3,1.44-2.3,2.78s.96,2.59,2.3,2.78v25.44h20.83s.77-.19,1.15-.48c.38-.38.58-.86.58-1.44v-20.06h-3.07c-1.06,0-2.11.19-2.88.48"/>
      <path class="st1" d="M124.42,210.91h-23.71v2.11c0,.96.1,1.73.38,2.3s.67.96,1.15,1.15c.29.19.48.38.67.58.19.19.29.58.29,1.06v16.61c-1.34.29-2.3,1.44-2.3,2.78s.96,2.59,2.3,2.78v25.44h20.83s.38,0,.48-.1c.29,0,.48-.19.67-.38.38-.38.58-.77.58-1.34v-15.55h-3.07c-1.06,0-2.11.19-2.88.48-.77.38-1.06,1.06-1.06,2.21,0,.29,0,8.06-.1,8.26-.19.29-.38.38-.77.38h-6.62c-.58,0-.86-.38-.86-1.06v-17.09c0-.67.38-1.06,1.06-1.06h8.83c.77,0,1.06-.38,1.06-1.06v-4.13s-.1-.67-.38-.86c-.29-.19-.58-.29-.77-.29h-8.74c-.77,0-1.06-.38-1.06-1.06v-15.36s.1-.58.29-.77c.19-.19.48-.29.67-.29h7.01s.19.1.29.29c.19.29.1,7.97.1,8.26,0,1.15.38,1.82,1.06,2.21.77.38,1.82.48,2.88.48h3.07v-15.74s-.19-.77-.48-1.15c-.19-.19-.58-.38-.86-.48"/>
      <path class="st1" d="M312.77,210.91h-23.71v2.11c0,.96.1,1.73.38,2.3.29.58.67.96,1.15,1.15.29.19.48.38.67.58.19.19.29.58.29,1.06v16.61c-1.34.29-2.3,1.44-2.3,2.78s.96,2.59,2.3,2.78v25.44h20.83s.38,0,.58-.1c.29,0,.48-.19.67-.38.38-.38.58-.77.58-1.34v-15.55h-3.07c-1.06,0-2.11.19-2.88.48-.77.38-1.06,1.06-1.06,2.21,0,.29,0,8.06-.1,8.26-.19.29-.38.38-.77.38h-6.62c-.58,0-.86-.38-.86-1.06v-17.09c0-.67.38-1.06,1.06-1.06h8.83c.77,0,1.06-.38,1.06-1.06v-4.13s-.1-.67-.38-.86c-.29-.19-.48-.29-.77-.29h-8.74c-.77,0-1.06-.38-1.06-1.06v-15.36s.1-.58.29-.77c.19-.19.48-.29.67-.29h7.01s.19.1.29.29c.19.29.1,7.97.1,8.26,0,1.15.38,1.82,1.06,2.21.77.38,1.82.48,2.88.48h3.07v-15.74s-.19-.77-.48-1.15c-.19-.19-.58-.38-.86-.48"/>
      <path class="st1" d="M267.07,9.6c-2.98,5.57,1.25,11.71,2.98,14.3,3.84,5.76,8.93,14.59,8.93,25.34,0,12.77-6.34,23.42-15.94,29.76,2.98-4.13,7.1-12.1,7.1-24.48,0-25.82-15.46-35.14-15.46-35.14,0,0-.38,1.54-1.34,1.54s-6.82-2.78-9.7-4.32c-1.25-.67-2.88-1.63-3.46-2.02,0,0-2.5,1.34-3.74,2.02-2.78,1.54-8.74,4.32-9.7,4.32s-1.34-1.54-1.34-1.54c0,0-15.46,9.31-15.46,35.14,0,12.38,4.13,20.35,7.1,24.48-9.6-6.43-15.94-17.09-15.94-29.76,0-10.75,5.09-19.68,8.93-25.34,1.73-2.69,5.95-8.83,2.98-14.3-1.73-3.36-5.28-4.51-10.37-4.51C160.42,5.76,68.93,24.29,6.72,60.48c0,.19,9.98,17.18,29.76,15.65-3.07,1.54-6.14,2.98-9.12,4.61,0,.19,9.12,15.07,30.91,12.86-3.65,1.73-7.2,3.46-10.85,5.28,0,.19,10.46,14.78,33.5,14.4-5.28,2.69-8.54,4.42-8.45,4.42,0,.1,15.17,14.78,39.74,10.75-2.69,1.92-5.38,3.94-8.45,6.24,0,0,18.05,9.89,39.17,6.82-2.78,2.11-5.47,4.13-8.16,6.24,0-.29,32.45,8.93,55.58-1.25.86-.38,1.73-.77,2.5-1.25,5.76,20.74,24.77,36.1,47.33,36.1s41.57-15.26,47.23-36.1c.86.38,1.63.86,2.5,1.25,23.14,10.18,55.58,1.06,55.58,1.25-2.69-2.11-5.47-4.22-8.16-6.24,21.22,3.07,39.17-6.82,39.17-6.82-3.17-2.21-5.86-4.22-8.45-6.24,24.58,4.03,39.74-10.66,39.74-10.75,0,0-3.17-1.73-8.45-4.42,22.94.38,33.41-14.21,33.5-14.4-3.55-1.82-7.2-3.55-10.85-5.28,21.79,2.11,30.82-12.67,30.91-12.86-3.07-1.54-6.05-3.07-9.12-4.61,19.78,1.44,29.76-15.55,29.76-15.65C411.07,24.29,319.58,5.76,277.34,5.09c-5.09,0-8.54,1.15-10.37,4.51h.1Z"/>
      <path class="st2" d="M277.44,0h-.58c-7.01,0-11.81,2.4-14.3,7.2-2.11,4.03-1.92,8.06-.86,11.52-.77-.86-1.82-1.73-2.98-2.59-3.46-2.59-7.49-4.61-7.49-4.61,0,0,.58,3.36-.67,2.98-.58-.19-1.25-.48-2.11-.86-3.46-1.63-8.45-4.61-8.45-4.61,0,0-5.09,2.98-8.54,4.61-.77.38-1.54.67-2.11.86-1.25.38-.67-2.98-.67-2.98,0,0-4.03,2.02-7.49,4.61-1.15.86-2.21,1.73-2.98,2.59,1.06-3.46,1.25-7.49-.86-11.52-2.5-4.8-7.39-7.2-14.3-7.2h-.58C160.13.67,67.78,19.01,4.13,56.06l-4.13,2.59s6.24,15.94,21.7,20.45l-2.11,1.06s8.74,14.11,22.27,17.09l-2.59,1.06s9.5,15.46,28.03,18.72l-2.78,1.34s13.25,14.3,33.5,15.55l-2.98,2.21s13.44,8.93,33.22,11.23l-3.17,2.88s35.14,12.86,64.51,2.11c8.06,20.35,28.03,34.18,50.3,34.18s42.24-13.82,50.3-34.18c29.38,10.66,64.51-2.11,64.51-2.11l-3.17-2.88c19.78-2.21,33.22-11.23,33.22-11.23l-2.98-2.21c20.26-1.25,33.5-15.55,33.5-15.55l-2.69-1.34c18.53-3.26,28.03-18.72,28.03-18.72l-2.59-1.06c13.54-2.98,22.27-17.09,22.27-17.09l-2.11-1.06c15.46-4.51,21.7-20.45,21.7-20.45l-4.13-2.59C412.22,19.01,319.87.67,277.44,0ZM443.52,76.22c3.07,1.54,6.05,2.98,9.12,4.61,0,.19-9.12,15.07-30.91,12.86,3.65,1.73,7.3,3.46,10.85,5.28,0,.19-10.46,14.78-33.5,14.4,5.28,2.69,8.45,4.42,8.45,4.42,0,.1-15.17,14.78-39.74,10.75,2.69,1.92,5.38,3.94,8.45,6.24,0,0-18.05,9.89-39.17,6.82,2.78,2.11,5.47,4.13,8.16,6.24,0-.29-32.45,8.93-55.58-1.25-.86-.38-1.63-.77-2.5-1.25-5.76,20.74-24.77,36.1-47.23,36.1s-41.57-15.26-47.33-36.1c-.86.38-1.63.86-2.5,1.25-23.14,10.18-55.58,1.06-55.58,1.25,2.69-2.11,5.47-4.22,8.16-6.24-21.22,3.07-39.17-6.82-39.17-6.82,3.17-2.21,5.86-4.22,8.45-6.24-24.58,4.03-39.74-10.66-39.74-10.75,0,0,3.17-1.73,8.45-4.42-22.94.38-33.41-14.21-33.5-14.4,3.65-1.82,7.2-3.55,10.85-5.28-21.79,2.11-30.82-12.67-30.91-12.86,3.07-1.54,6.05-3.07,9.12-4.61-19.78,1.44-29.76-15.55-29.76-15.65C68.93,24.29,160.42,5.76,202.66,5.09c5.09,0,8.54,1.15,10.37,4.51,2.98,5.57-1.25,11.71-2.98,14.3-3.84,5.76-8.93,14.59-8.93,25.34,0,12.77,6.34,23.42,15.94,29.76-2.98-4.13-7.1-12.1-7.1-24.48,0-25.82,15.46-35.14,15.46-35.14,0,0,.38,1.54,1.34,1.54s6.82-2.78,9.7-4.32c1.25-.67,3.74-2.02,3.74-2.02.58.38,2.3,1.34,3.46,2.02,2.88,1.54,8.74,4.32,9.7,4.32s1.34-1.54,1.34-1.54c0,0,15.46,9.31,15.46,35.14,0,12.38-4.13,20.35-7.1,24.48,9.6-6.43,15.94-17.09,15.94-29.76,0-10.75-5.09-19.68-8.93-25.34-1.73-2.69-5.95-8.83-2.98-14.3,1.82-3.36,5.28-4.51,10.37-4.51,42.24.67,133.73,19.2,195.94,55.39,0,.19-9.98,17.18-29.76,15.65l-.1.1Z"/>
      <path class="st2" d="M172.7,38.88c-47.62,6.24-94.27,22.75-94.27,22.75,7.97,14.11,29.47,8.16,29.47,8.16,40.42-11.42,58.37-15.26,64.22-16.42-.19-4.51,0-9.31.67-14.59"/>
      <path class="st2" d="M172.99,62.02c-7.97,1.54-41.28,8.35-74.98,21.02,0,0,10.66,12.1,31.68,6.14,17.66-4.99,40.42-12.29,47.14-14.4-1.73-3.84-2.98-8.06-3.84-12.67"/>
      <path class="st2" d="M180.38,81.41c-7.2,2.3-43.2,14.02-58.37,19.78,0,0,8.74,11.71,33.89,1.82,17.47-6.91,27.17-10.94,31.39-12.77-2.5-2.59-4.9-5.57-6.91-8.83Z"/>
      <path class="st2" d="M192.96,95.33c-6.24,2.69-29.66,12.96-43.1,19.39,0,0,16.99,8.35,38.4-4.9l13.25-8.74c-2.88-1.73-5.76-3.65-8.54-5.86"/>
      <path class="st2" d="M307.3,38.88c47.62,6.24,94.27,22.75,94.27,22.75-7.97,14.11-29.47,8.16-29.47,8.16-40.42-11.42-58.37-15.26-64.22-16.42.19-4.51,0-9.31-.67-14.59"/>
      <path class="st2" d="M307.01,62.02c7.97,1.54,41.28,8.35,74.98,21.02,0,0-10.66,12.1-31.68,6.14-17.66-4.99-40.42-12.29-47.14-14.4,1.73-3.84,2.98-8.06,3.84-12.67"/>
      <path class="st2" d="M299.62,81.41c7.2,2.3,43.2,14.02,58.37,19.78,0,0-8.74,11.71-33.89,1.82-17.47-6.91-27.17-10.94-31.39-12.77,2.5-2.59,4.9-5.57,6.91-8.83Z"/>
      <path class="st2" d="M287.14,95.33c6.24,2.69,29.57,12.96,43.1,19.39,0,0-16.99,8.35-38.4-4.9l-13.25-8.74c2.88-1.73,5.76-3.65,8.54-5.86"/>
      <path class="st2" d="M172.7,38.88c-47.62,6.24-94.27,22.75-94.27,22.75,7.97,14.11,29.47,8.16,29.47,8.16,40.42-11.42,58.37-15.26,64.22-16.42-.19-4.51,0-9.31.67-14.59"/>
      <path class="st2" d="M172.99,62.02c-7.97,1.54-41.28,8.35-74.98,21.02,0,0,10.66,12.1,31.68,6.14,17.66-4.99,40.42-12.29,47.14-14.4-1.73-3.84-2.98-8.06-3.84-12.67"/>
      <path class="st2" d="M180.38,81.41c-7.2,2.3-43.2,14.02-58.37,19.78,0,0,8.74,11.71,33.89,1.82,17.47-6.91,27.17-10.94,31.39-12.77-2.5-2.59-4.9-5.57-6.91-8.83Z"/>
      <path class="st2" d="M192.96,95.33c-6.24,2.69-29.66,12.96-43.1,19.39,0,0,16.99,8.35,38.4-4.9l13.25-8.74c-2.88-1.73-5.76-3.65-8.54-5.86"/>
      <path class="st2" d="M307.3,38.88c47.62,6.24,94.27,22.75,94.27,22.75-7.97,14.11-29.47,8.16-29.47,8.16-40.42-11.42-58.37-15.26-64.22-16.42.19-4.51,0-9.31-.67-14.59"/>
      <path class="st2" d="M307.01,62.02c7.97,1.54,41.28,8.35,74.98,21.02,0,0-10.66,12.1-31.68,6.14-17.66-4.99-40.42-12.29-47.14-14.4,1.73-3.84,2.98-8.06,3.84-12.67"/>
      <path class="st2" d="M299.62,81.41c7.2,2.3,43.2,14.02,58.37,19.78,0,0-8.74,11.71-33.89,1.82-17.47-6.91-27.17-10.94-31.39-12.77,2.5-2.59,4.9-5.57,6.91-8.83Z"/>
      <path class="st2" d="M287.14,95.33c6.24,2.69,29.57,12.96,43.1,19.39,0,0-16.99,8.35-38.4-4.9l-13.25-8.74c2.88-1.73,5.76-3.65,8.54-5.86"/>
      <path class="st2" d="M177.31,124.8s5.95,2.4,14.21.58c.67-4.42,1.82-8.54,3.46-12.48-6.24,4.03-13.15,8.64-17.66,11.9Z"/>
      <path class="st2" d="M302.69,124.8c-4.51-3.36-11.42-7.87-17.66-11.9,1.73,3.94,2.88,8.16,3.46,12.48,8.26,1.92,14.21-.58,14.21-.58Z"/>
      <path class="st3" d="M205.34,18.14c3.26-4.7,1.63-6.62-10.85-5.38C99.84,21.7,26.11,60.19,26.11,60.19c7.58,3.65,12.86,1.54,16.22.38,3.26-1.15,8.93-3.55,8.93-3.55C131.9,24.48,190.66,22.08,190.66,22.08c-16.51,40.61,4.32,62.11,19.1,71.62.67-.48,1.34-1.06,2.02-1.54-38.11-33.22-8.93-70.46-6.43-74.02Z"/>
      <path class="st3" d="M285.5,12.77c-12.48-1.15-14.11.67-10.85,5.38,2.5,3.55,31.68,40.8-6.43,74.02.67.48,1.34.96,2.02,1.54,14.78-9.5,35.62-31.01,19.1-71.62,0,0,58.85,2.4,139.39,34.94,0,0,5.66,2.4,8.93,3.55,3.26,1.15,8.64,3.26,16.22-.38,0,0-73.73-38.59-168.48-47.52l.1.1Z"/>
      <path class="st2" d="M253.15,160.8c-2.3.67-4.7,1.06-7.1,1.34-1.06,1.82-1.73,3.55-2.02,4.32l-.96,2.4v5.28c5.47-.38,10.75-1.82,15.46-4.13-2.21-2.11-4.61-5.28-5.38-9.12v-.1Z"/>
      <path class="st2" d="M233.95,162.14c-2.4-.29-4.8-.67-7.1-1.34-.67,3.94-3.07,7.01-5.38,9.12,4.7,2.3,9.89,3.74,15.46,4.13v-5.28l-.96-2.4c-.29-.77-1.06-2.5-2.02-4.32v.1Z"/>
      <path class="st3" d="M231.74,66.05v-.1s2.21-4.13-1.44-6.91c0,0-8.06,1.73-8.26-9.02,0,0,.19-1.15-.96-3.36,0,0,2.11-1.92,6.62,1.54,4.51,3.36,7.01,12.96,9.41,10.75,2.4-2.21,1.54-14.78,2.78-15.26,1.25.48.38,12.96,2.78,15.26,2.5,2.3,4.9-7.39,9.41-10.75,4.51-3.36,6.62-1.54,6.62-1.54-1.15,2.21-.96,3.36-.96,3.36-.19,10.75-8.26,9.02-8.26,9.02-3.55,2.78-1.44,6.91-1.44,6.91v.1c5.09-5.47,9.12-7.68,11.33-6.82v-.1c.19-.29,2.3-3.46,2.3-11.04s-3.26-14.5-6.72-18.34c0,0-.1,2.3-3.94-.29-3.26-2.3-7.2-3.55-11.33-3.55s-8.06,1.34-11.33,3.55c-3.65,2.5-3.84.29-3.84.29-3.46,3.84-6.72,10.37-6.72,18.34,0,6.62,1.63,9.89,2.21,10.85,0,.1.1.29.19.38,2.21-.96,6.24,1.25,11.33,6.82"/>
      <path class="st4" d="M228,55.39c-.67-.19-1.06-.86-.86-1.54,0-.29.29-.48.48-.67-.48-.48-.96-1.06-1.63-1.44,0,0-1.15,5.28,3.55,4.7,0,0-.19-.48-.48-1.15-.29.19-.67.19-.96.1"/>
      <path class="st4" d="M254.11,51.65c-.67.48-1.15.96-1.63,1.44.19.19.38.38.48.67.19.67-.19,1.44-.86,1.54-.38,0-.67,0-.96-.1-.38.67-.48,1.15-.48,1.15,4.7.58,3.55-4.7,3.55-4.7"/>
      <path class="st4" d="M233.47,117.22c-3.46-18.24-6.24-31.78-8.45-41.57-1.73-7.49,2.78-4.51,5.28.19l3.17,41.38Z"/>
      <path class="st4" d="M246.53,117.22c3.46-18.24,6.24-31.78,8.45-41.57,1.63-7.49-2.78-4.51-5.28.19l-3.17,41.38Z"/>
      <path class="st4" d="M242.21,123.94c1.54-28.22,3.74-48.19,3.74-50.69,0-.86-.1-2.02-.48-3.26l-1.63,5.38-.48-9.5c-.86-1.06-1.92-2.11-3.36-3.17-1.44,1.06-2.4,2.11-3.26,3.17l-.48,9.5-1.63-5.38c-.38,1.25-.48,2.4-.48,3.26,0,2.5,2.21,22.46,3.74,50.69,1.54,28.22-2.02,33.41-2.02,33.41,2.02,2.98,4.22,8.16,4.22,8.16,0,0,2.21-5.18,4.22-8.16,0,0-3.46-5.28-2.02-33.41"/>
      <path class="st3" d="M275.81,136.9c2.5-3.84,4.32-8.06,5.47-12.58-1.44-7.39-4.8-14.11-9.6-19.68,1.06,5.86.1,11.52-1.63,16.99,2.98,4.51,4.99,9.7,5.66,15.26h.1Z"/>
      <path class="st3" d="M209.95,121.73c-1.73-5.47-2.69-11.14-1.63-16.99-4.8,5.47-8.16,12.19-9.6,19.58,1.15,4.61,2.98,8.93,5.47,12.77.67-5.57,2.69-10.85,5.66-15.36h.1Z"/>
      <path class="st3" d="M265.44,115.97c1.44-6.53.86-12.96-3.84-19.78-1.92-1.15-4.03-2.11-6.14-2.98-.96,4.7-2.02,9.6-3.07,14.5,4.9,1.82,9.41,4.61,13.06,8.26Z"/>
      <path class="st3" d="M227.71,107.71c-1.06-4.9-2.02-9.79-3.07-14.5-2.11.86-4.22,1.82-6.14,2.98-4.7,6.82-5.28,13.25-3.84,19.78,3.65-3.65,8.16-6.43,13.06-8.26Z"/>
      <path class="st3" d="M281.38,139.68c-1.63,2.69-3.55,5.09-5.66,7.39-.77,5.18-2.69,10.08-5.38,14.3l.1-.1c5.57-5.86,9.5-13.34,11.04-21.6h-.1Z"/>
      <path class="st3" d="M204.29,147.07c-2.11-2.3-4.03-4.7-5.66-7.39,1.44,8.35,5.47,15.74,11.04,21.6-2.78-4.22-4.61-9.12-5.38-14.3v.1Z"/>
      <path class="st2" d="M259.1,151.87c6.72-3.46,12.48-8.54,16.61-14.98-.77-5.57-2.69-10.75-5.66-15.26-1.34,4.13-3.07,8.16-4.7,12.1-2.69,6.14-5.38,12.1-6.24,18.14Z"/>
      <path class="st2" d="M220.9,152.06c-.86-6.05-3.46-12-6.24-18.24-1.73-3.84-3.46-7.87-4.8-12.1-2.98,4.51-4.99,9.7-5.66,15.36,4.13,6.43,9.89,11.62,16.7,14.98Z"/>
      <path class="st2" d="M247.68,155.23l.29.58c1.63-.29,3.26-.77,4.8-1.25.38-8.16,3.74-15.74,7.01-23.14,2.3-5.28,4.51-10.37,5.66-15.26-3.65-3.65-8.06-6.43-13.06-8.26-2.98,14.5-5.76,28.42-6.43,33.22.29,9.89,1.44,13.34,1.73,14.11Z"/>
      <path class="st2" d="M227.23,154.56c1.54.48,3.17.86,4.8,1.15l.29-.58c.29-.77,1.54-4.42,1.73-14.69-.77-5.28-3.46-18.72-6.34-32.74-4.99,1.82-9.41,4.61-13.06,8.26,1.06,4.99,3.26,9.98,5.66,15.26,3.26,7.39,6.62,15.07,7.01,23.23l-.1.1Z"/>
      <path class="st2" d="M259.01,158.78s0,.58.1.86c.48,3.17,3.07,5.66,4.9,7.1,2.3-1.54,4.32-3.36,6.24-5.38,2.78-4.22,4.61-9.12,5.38-14.3-4.61,4.99-10.27,9.02-16.7,11.71h.1Z"/>
      <path class="st2" d="M220.9,159.65s0-.58.1-.86c-6.34-2.69-12-6.72-16.7-11.71.77,5.18,2.69,10.08,5.38,14.3,1.92,2.02,4.03,3.74,6.24,5.38,1.82-1.44,4.42-3.94,4.9-7.1h.1Z"/>
    </g>
  </g>
</svg>