<?xml version="1.0" encoding="UTF-8"?>
<svg xmlns="http://www.w3.org/2000/svg" xmlns:xlink="http://www.w3.org/1999/xlink" width="48px" height="61px" viewBox="0 0 48 60" version="1.1">
<g id="surface1">
<path style=" stroke:none;fill-rule:nonzero;fill:rgb(21.176471%,5.098039%,22.745098%);fill-opacity:1;" d="M 9.597656 4.941406 C 12.273438 6.195312 14.035156 7.726562 14.316406 7.933594 C 14.175781 7.238281 13.683594 3.96875 13.332031 1.949219 C 14.878906 2.992188 18.542969 5.5 19.738281 6.335938 C 20.160156 4.871094 21.921875 0 21.921875 0 C 21.921875 0 24.949219 4.871094 25.445312 5.636719 C 26.078125 5.011719 29.738281 0.972656 30.65625 0 C 30.867188 2.296875 31.007812 5.636719 31.078125 6.054688 C 31.289062 5.847656 32.699219 3.898438 35.019531 2.089844 C 33.964844 4.039062 33.542969 6.75 33.261719 8.980469 C 30.9375 8.351562 28.542969 8.003906 26.078125 8.003906 C 21.289062 8.003906 16.78125 9.257812 12.835938 11.484375 C 12.132812 9.328125 11.078125 6.683594 9.597656 4.941406 Z M 46.359375 46.566406 L 44.246094 44.269531 C 43.683594 50.535156 40.515625 55.824219 34.808594 59.582031 L 33.964844 56.171875 C 29.105469 59.652344 20.867188 61.808594 13.683594 57.84375 C 14.597656 53.386719 15.300781 48.863281 13.683594 43.433594 C 9.738281 49.488281 6.21875 51.855469 6.21875 51.855469 C 3.542969 47.402344 3.753906 38.5625 4.597656 35.917969 L 0.160156 37.238281 C 0.160156 34.246094 2.34375 27.910156 5.511719 24.363281 L 2.835938 23.945312 C 4.738281 20.117188 7.484375 16.914062 11.007812 14.410156 C 9.949219 16.078125 9.949219 20.046875 12.980469 21.578125 C 11.710938 19.351562 11.570312 16.636719 12.835938 15.175781 C 14.175781 13.710938 16.429688 14.269531 17.835938 15.382812 C 17.414062 14.128906 16.148438 12.597656 14.316406 12.460938 C 17.835938 10.648438 21.992188 9.675781 26.21875 9.675781 C 27.0625 9.675781 27.839844 9.746094 28.542969 9.8125 C 29.808594 10.300781 31.570312 12.042969 32.484375 13.15625 C 32.484375 13.15625 32.554688 11.902344 31.851562 10.371094 C 36.5 11.484375 38.683594 13.363281 39.597656 14.269531 C 39.808594 16.21875 40.375 17.402344 41.21875 19.28125 C 39.738281 17.679688 35.9375 14.964844 34.105469 14.339844 C 34.105469 14.339844 33.894531 16.007812 33.332031 16.84375 C 29.738281 14.269531 27.980469 13.644531 27.980469 13.644531 C 23.964844 14.058594 21.5 15.589844 20.089844 16.773438 L 21.289062 17.75 C 18.964844 18.445312 17.34375 20.535156 17.34375 20.535156 C 17.34375 20.601562 19.457031 20.882812 19.457031 20.882812 C 19.457031 20.882812 19.246094 23.316406 22.34375 24.847656 C 25.019531 26.101562 28.753906 24.570312 32.34375 25.960938 C 30.019531 23.316406 28.402344 22.066406 28.402344 22.066406 C 28.402344 22.066406 27.484375 21.855469 26.78125 21.855469 C 25.9375 21.855469 24.738281 22.066406 23.402344 21.507812 C 22.765625 21.300781 21.992188 20.8125 21.429688 20.464844 C 21.429688 20.464844 23.050781 18.792969 25.515625 18.445312 C 25.515625 18.445312 27.699219 19.003906 29.457031 20.324219 C 30.585938 19.210938 31.78125 19.28125 31.78125 19.28125 C 31.78125 19.28125 30.585938 20.394531 30.9375 21.71875 C 32.628906 23.25 34.527344 25.40625 34.527344 25.40625 C 36.429688 24.363281 40.585938 24.570312 41.429688 25.613281 C 40.375 24.222656 38.753906 23.109375 37.558594 22.132812 C 37.414062 21.578125 36.078125 19.835938 35.9375 19.628906 C 35.9375 19.628906 37.203125 20.046875 38.261719 20.953125 C 38.542969 20.464844 39.175781 20.046875 39.949219 19.835938 C 40.796875 20.535156 40.9375 21.578125 40.867188 21.785156 C 40.515625 22.273438 40.09375 22.414062 40.09375 22.414062 L 42.0625 24.570312 L 42.273438 22.96875 C 47.0625 29.375 49.597656 36.960938 46.359375 46.566406 Z M 37.558594 32.4375 L 37.558594 29.09375 C 37.558594 29.09375 36.007812 28.609375 34.386719 27.355469 C 31.078125 27.84375 27.132812 31.113281 27.132812 31.113281 C 27.132812 31.113281 28.472656 33.621094 29.949219 36.402344 C 32.554688 36.613281 36.429688 33.410156 37.558594 32.4375 Z M 40.867188 38.5625 C 40.867188 38.5625 40.65625 37.167969 39.457031 35.917969 L 36.921875 35.984375 C 36.921875 35.984375 33.402344 38.910156 31.359375 38.980469 C 31.359375 38.980469 32.554688 41.136719 33.121094 42.25 C 34.316406 42.042969 36.289062 41.066406 37.132812 40.164062 C 37.132812 40.164062 37.699219 41.902344 37.558594 43.992188 C 38.753906 43.15625 40.375 41.347656 40.867188 38.5625 Z M 41.921875 27.355469 C 40.65625 28.398438 39.597656 29.027344 39.597656 29.027344 L 39.597656 32.367188 C 40.515625 33.339844 41.429688 34.246094 42.132812 35.707031 C 43.402344 33.550781 43.121094 30.207031 41.921875 27.355469 Z M 41.921875 27.355469 "/>
</g>
</svg>
