<?xml version="1.0" encoding="UTF-8" standalone="no"?>
<!-- Created with Inkscape (http://www.inkscape.org/) -->

<svg
   width="229.22423mm"
   height="127mm"
   viewBox="0 0 229.22423 127"
   version="1.1"
   id="svg1"
   inkscape:version="1.4.2 (f4327f4, 2025-05-13)"
   sodipodi:docname="Premier League wordmark.svg"
   xmlns:inkscape="http://www.inkscape.org/namespaces/inkscape"
   xmlns:sodipodi="http://sodipodi.sourceforge.net/DTD/sodipodi-0.dtd"
   xmlns="http://www.w3.org/2000/svg"
   xmlns:svg="http://www.w3.org/2000/svg">
  <sodipodi:namedview
     id="namedview1"
     pagecolor="#ffffff"
     bordercolor="#000000"
     borderopacity="0.25"
     inkscape:showpageshadow="2"
     inkscape:pageopacity="0.0"
     inkscape:pagecheckerboard="0"
     inkscape:deskcolor="#d1d1d1"
     inkscape:document-units="mm"
     inkscape:zoom="0.71891835"
     inkscape:cx="448.59058"
     inkscape:cy="114.75573"
     inkscape:window-width="1920"
     inkscape:window-height="1009"
     inkscape:window-x="-8"
     inkscape:window-y="-8"
     inkscape:window-maximized="1"
     inkscape:current-layer="layer1" />
  <defs
     id="defs1" />
  <g
     inkscape:label="Layer 1"
     inkscape:groupmode="layer"
     id="layer1"
     transform="translate(-96.837395,-118.00416)">
    <path
       d="m 239.01088,197.52512 1.04034,-4.41085 h 8.43178 v 33.21168 c 0,6.48602 -1.8146,11.02621 -6.0961,14.39853 -3.24116,2.46509 -7.65571,4.27968 -12.97204,4.27968 -7.26578,0 -12.45458,-2.46509 -16.60486,-6.48602 l 5.31997,-7.39513 c 2.59443,2.46502 6.09616,4.67135 10.63636,4.67135 7.13455,0 10.24637,-3.50354 10.24637,-8.69234 v -2.46503 c -2.85124,2.98429 -6.22363,4.15028 -9.98587,4.15028 -9.86015,0 -17.64339,-8.04374 -17.64339,-18.29011 0,-10.12073 8.04374,-17.90215 17.90208,-17.90215 4.021,0.002 7.652,1.94583 9.72536,4.93011 m -8.55749,3.76412 c -5.05757,0 -9.08227,3.88977 -9.08227,9.20792 0,5.05945 4.0247,9.08038 9.08227,9.08038 5.05764,0 9.07857,-4.02093 9.07857,-9.08038 0,-5.31815 -4.02093,-9.20792 -9.07857,-9.20792 m -54.87417,-57.72911 c -4.02274,0 -7.39695,2.33568 -8.17309,6.09798 h 16.08385 c -0.77613,-3.63289 -4.01729,-6.09798 -7.91076,-6.09798 m 0.51891,28.15033 c -10.76563,0 -18.68003,-7.39324 -18.68003,-18.16076 0,-9.73088 7.13463,-18.42134 18.42134,-18.42134 8.43178,0 17.12413,6.35478 17.12413,18.16076 0,0.9073 0,2.07699 -0.25841,3.37239 h -25.42655 c 0.90541,3.89158 4.41084,6.48965 8.69046,6.48965 3.89158,0 6.87594,-1.42838 9.34096,-4.02463 l 5.83741,5.96676 c -3.76043,4.2815 -9.20973,6.61717 -15.04903,6.61717 m 107.79882,-28.15033 c -4.02092,0 -7.39143,2.33568 -8.17308,6.09798 h 16.08566 c -0.77613,-3.63289 -4.02099,-6.09798 -7.91258,-6.09798 m 0.52101,28.15033 c -10.76563,0 -18.68003,-7.39324 -18.68003,-18.16076 0,-9.73088 7.13463,-18.42134 18.42134,-18.42134 8.43178,0 17.12413,6.35478 17.12413,18.16076 0,0.9073 0,2.07699 -0.25841,3.37239 h -25.42844 c 0.911,3.89158 4.41273,6.48965 8.69235,6.48965 3.88976,0 6.87405,-1.42838 9.34096,-4.02463 l 5.83552,5.96676 c -3.76224,4.2815 -9.21154,6.61717 -15.04714,6.61717 m 24.25694,28.92836 c -4.021,0 -7.39332,2.33568 -8.17127,6.09791 h 16.08566 c -0.77984,-3.63289 -4.02281,-6.09791 -7.91439,-6.09791 m 0.51891,28.14845 c -10.7694,0 -18.6801,-7.39325 -18.6801,-18.16077 0,-9.73088 7.13463,-18.42134 18.42134,-18.42134 8.43185,0 17.12601,6.35479 17.12601,18.16077 0,0.90729 0,2.07698 -0.264,3.37238 H 300.3747 c 0.9073,3.89159 4.41085,6.48595 8.69047,6.48595 3.89165,0 6.87593,-1.42649 9.34095,-4.02093 l 5.8356,5.96676 c -3.76224,4.28339 -9.20791,6.61718 -15.04714,6.61718 M 149.6334,200.63882 c -4.02281,0 -7.39331,2.33568 -8.17308,6.09791 h 16.08566 c -0.77614,-3.63289 -4.01911,-6.09791 -7.91258,-6.09791 m 0.51892,28.14845 c -10.76564,0 -18.6801,-7.39325 -18.6801,-18.16077 0,-9.73088 7.13281,-18.42134 18.41771,-18.42134 8.43366,0 17.126,6.35479 17.126,18.16077 0,0.90729 0,2.07698 -0.2591,3.37238 h -25.42844 c 0.90918,3.89159 4.41455,6.48595 8.69423,6.48595 3.8897,0 6.87217,-1.42649 9.34096,-4.02093 l 5.83552,5.96676 c -3.76042,4.28339 -9.20791,6.61718 -15.04713,6.61718 m -53.314575,-0.9073 v -51.4999 H 107.0838 v 41.77091 h 22.31297 v 9.72899 z m 39.045385,-57.0768 v -34.76752 h 8.30243 l 1.04035,5.05946 c 1.55402,-3.24486 4.66583,-5.44749 8.81981,-5.44749 0.90736,0 1.81466,0.12711 2.72378,0.38831 v 9.20973 c -1.16969,-0.25841 -2.20263,-0.38971 -3.37232,-0.38971 -4.66961,0 -7.91258,2.85501 -7.91258,8.43185 v 17.51404 h -9.60147 z m 169.16076,0 v -34.76752 h 8.30061 l 1.03853,5.05946 c 1.55773,-3.24486 4.66954,-5.44749 8.8217,-5.44749 0.90911,0 1.81459,0.12711 2.72559,0.38831 v 9.20973 c -1.16969,-0.25841 -2.20451,-0.38971 -3.3742,-0.38971 -4.66954,0 -7.9107,2.85501 -7.9107,8.43185 v 17.51404 h -9.60153 z m -67.06819,-20.49833 c 0,-3.76224 -2.07517,-6.09792 -5.32003,-6.09792 -3.76035,0 -5.70617,2.33568 -5.70617,6.22915 v 20.36528 h -9.59965 v -20.49651 c 0,-3.76224 -2.07517,-6.09792 -5.31815,-6.09792 -3.76224,0 -5.70806,2.33568 -5.70806,6.22915 v 20.36528 h -9.59965 v -34.7657 h 8.43185 l 1.04034,4.5402 c 0,0 2.0751,-5.44749 8.56112,-5.44749 4.02463,0 7.39513,1.68525 9.73088,5.19061 l 0.2605,0.38832 0.26051,-0.38832 c 3.3742,-4.80076 7.52447,-5.19061 10.11891,-5.19061 7.39324,0 12.4527,5.57865 12.4527,13.49123 v 22.18358 h -9.59965 v -20.49833 z m 19.32864,-18.93691 c -3.37231,0 -5.96675,-2.59625 -5.96675,-5.83922 0,-3.37239 2.59444,-5.96675 5.96675,-5.96675 3.37239,0 5.96676,2.59254 5.96676,5.96675 0,3.24116 -2.59437,5.83922 -5.96676,5.83922 m -4.92822,4.66772 h 9.59776 v 34.76381 h -9.59776 z m -62.91792,65.25359 c -5.19061,0 -9.07856,3.88977 -9.07856,9.20792 0,5.05945 3.88795,9.08038 9.07856,9.08038 5.05946,0 8.95104,-4.02093 8.95104,-9.08038 0,-5.31815 -3.89158,-9.20792 -8.95104,-9.20792 m -1.94582,27.49803 c -9.20973,0 -17.25165,-8.43178 -17.25165,-18.29011 0,-9.729 8.04192,-17.90215 17.25165,-17.90215 5.19068,0 8.69053,1.81467 10.76752,5.05764 l 1.03853,-4.54019 h 8.43177 v 34.76569 h -8.43177 l -1.03853,-4.41273 c -2.07699,3.1174 -5.96676,5.32185 -10.76752,5.32185 m 82.63465,0 c -7.65389,0 -16.99114,-4.15028 -16.99114,-17.12231 v -18.5525 h 9.59594 v 17.90207 c 0,5.96676 2.72748,8.56119 7.3952,8.56119 4.27962,0 7.39514,-2.98247 7.39514,-8.56119 v -17.90207 h 9.59964 v 18.5525 c 0,12.97203 -9.4703,17.12231 -16.99478,17.12231 M 107.0845,143.69136 h 5.9686 c 5.19065,0 8.95105,-2.85312 8.95105,-8.04374 0,-5.1925 -3.7604,-7.9144 -8.95105,-7.9144 h -5.9686 z M 96.838093,170.80317 V 118.00416 H 113.5705 c 10.89685,0 19.06994,6.48602 19.06994,17.64346 0,11.2849 -8.04374,17.90208 -19.06994,17.90208 h -6.486 v 17.25347 z"
       style="fill:#3d195b;stroke-width:0.264583"
       id="path1" />
  </g>
</svg>
