<?xml version="1.0" encoding="UTF-8"?><svg id="a" xmlns="http://www.w3.org/2000/svg" width="1393.95" height="1393.98" xmlns:xlink="http://www.w3.org/1999/xlink" viewBox="0 0 1393.95 1393.98"><defs><clipPath id="b"><rect x="22.84" y="22.84" width="1348.26" height="1348.29" fill="none"/></clipPath></defs><path d="m696.99,1393.98c384.91,0,696.96-312.08,696.96-696.99S1081.9,0,696.99,0,0,312.05,0,696.99s312.05,696.99,696.99,696.99" fill="#fff"/><g clip-path="url(#b)"><path d="m696.99,1371.14c372.29,0,674.12-301.85,674.12-674.15S1069.28,22.84,696.99,22.84,22.84,324.67,22.84,696.99s301.83,674.15,674.15,674.15" fill="#fff"/></g><path d="m696.99,1347.03c358.98,0,650.05-291.04,650.05-650.05S1055.97,46.95,696.99,46.95,46.94,337.99,46.94,696.99s291.02,650.05,650.05,650.05" fill="#164193"/><path d="m696.99,1305.19c335.88,0,608.15-272.34,608.15-608.2S1032.87,88.81,696.99,88.81,88.82,361.11,88.82,696.99s272.27,608.2,608.17,608.2" fill="#fff"/><path d="m103.04,696.97c.02-328.01,265.93-593.93,593.95-593.93h0c328,.02,593.91,265.93,593.91,593.93h0c0,328.02-265.91,593.99-593.91,593.99h0v-7.12c162.04,0,308.74-65.7,414.94-171.9h0c106.2-106.2,171.88-252.9,171.88-414.96h0c0-162.05-65.67-308.72-171.88-414.95h0c-106.2-106.19-252.9-171.87-414.94-171.87h0c-162.07,0-308.76,65.68-414.95,171.87h0c-106.2,106.23-171.88,252.91-171.88,414.95h0c0,162.06,65.68,308.76,171.88,414.96h0c106.2,106.2,252.89,171.9,414.95,171.9h0v7.12c-328.03,0-593.93-265.97-593.95-593.99h0Zm593.95,593.99h0Z" fill="#164193"/><path d="m696.99,1118.82c232.98,0,421.83-188.82,421.83-421.83s-188.85-421.8-421.83-421.8-421.78,188.86-421.78,421.8,188.79,421.83,421.78,421.83" fill="#fff"/><path d="m685.9,306.13c-8.84,47.81-66.14,47.7-98.04,73.08-18.26,14.76-27.71,32.43-32.41,52.57-30.14-15.35-59.36-37.98-90.67-50.37,62.01-47.82,139.95-75.58,221.12-75.28" fill="#164193"/><path d="m921.94,375.79l-76.06,50.05c-8.81-54.32-69.07-70.27-110.37-87.36-8.26-8.86-20.71-19.91-15.99-32.35,75.03,4.13,142.09,27.02,202.42,69.66" fill="#164193"/><path d="m724.3,350.83c38.98,20.69,100.37,28.37,108.62,83.88-1.78,5.89-8.84,8.25-12.43,11.2-3.5-73.21-89.72-59.05-117.49-114.54-28.89,56.09-121.6,45.49-120.39,122.81-6.54-2.94-18.36-10.01-11.82-21.23,15.92-62.03,89.73-57.91,125.16-100.39l5.37-22.45c2.92,14.19,9.42,29.56,22.99,40.73" fill="#164193"/><path d="m704.23,375.04c-.59,1.81,1.11,4.76-1.17,5.91-2.39.62-2.98-2.32-4.76-2.96,0-4.11,4.76-8.83,5.92-2.96" fill="#164193"/><path d="m719.52,389.22c1.22,2.35-1.18,4.16-2.31,5.91h-1.78v-8.82c2.33-.62,2.92,1.75,4.09,2.92" fill="#164193"/><path d="m689.98,389.22c-.55,1.81,1.23,4.74-1.1,5.91h-2.98v-7.07c1.17,0,3.53-.61,4.09,1.17" fill="#164193"/><path d="m423.76,484.31c-37.21,21.23-47.51,79.99-94.73,75.26,20.06-56.67,56.05-109.23,104.43-151.74-13.54,21.28-11.5,50.49-9.7,76.49" fill="#164193"/><path d="m708.37,453.02h-17.15l11.79-42.54c-2.33,15.96,3.56,28.35,5.37,42.54" fill="#164193"/><path d="m1059.65,551.01c-40.73-2.93-54.3-52.55-90.33-70.87,5.25-18.28,8.54-40.14,5.61-59.65,39.56,39,68.19,82.08,84.73,130.5" fill="#164193"/><path d="m1065.55,563.39l1.19,1.76c-56.69,38.43,2.37,124.6-59.02,160.03-17.16,11.83-39.03,11.83-61.45,11.24,3.55-13.61,25.38-8.3,37.23-15.4,69.67-21.27,33.64-105.64,69.08-150.54-34.29-9.46-61.45-39.59-89.16-62l1.74-10.03c32.5,23.02,56.72,69.1,100.37,64.91" fill="#164193"/><path d="m434.97,506.73c-26.59,30.09-53.72,63.16-92.07,70.87,4.09,11.22,14.14,20.03,18.28,31.27,12.4,47.85,13.58,113.95,74.95,127.55,8.87,3.56,20.71-1.81,27.18,7.06-30.13,5.89-58.42-1.17-79.13-21.27-42.51-41.32-1.18-120.43-62.59-149.97,51.4,11.22,71.46-50.17,107.48-72.62l5.9,7.09h0Z" fill="#164193"/><path d="m980.53,566.37c-.55,1.78,1.17,4.71-1.19,5.89h-1.78v-8.81c1.78-.62,3.56,1.17,2.98,2.92" fill="#164193"/><path d="m427.93,572.26c.57,1.22-.63,1.76-1.2,2.38-2.97,1.18-4.11-1.16-5.87-2.38-1.81-6.46,8.8-6.46,7.08,0" fill="#164193"/><path d="m967.54,584.68c-1.17,1.17-1.78,3.54-4.11,2.95-3.56-1.78-3.56-7.11,0-8.23,3.53-.64,2.95,3.47,4.11,5.28" fill="#164193"/><path d="m995.91,579.4c0,2.31,1.19,5.31-1.2,7.02-1.81.61-2.92-2.35-4.14-2.95,1.23-2.96,1.23-5.3,5.34-4.09" fill="#164193"/><path d="m443.23,586.43c-1.16.64-1.73,2.95-4.14,2.4l-2.97-2.4,4.76-5.9c1.73,1.81,1.73,3.55,2.35,5.9" fill="#164193"/><path d="m974.92,973.58l-26.84,24.97c-7.69-57.88,59.64-94.46,43.71-157.02-8.28-33.06-44.35-59.65-73.81-70.87-.62-40.7,44.26-11.23,65.53-20.1,25.38-4.7,53.13-20.6,63.75-46.62,22.44-38.39-9.13-89.89,23.9-124.14,44.28,139.34,6.47,292.83-96.23,393.78" fill="#164193"/><path d="m413.7,586.43c1.19,2.4-1.17,3.59-2.95,5.34h-1.16v-8.29c1.71-.62,2.94,1.81,4.1,2.95" fill="#164193"/><path d="m359.95,715.12c14.17,26.04,40.18,39.57,66.76,45.48,18.27,1.22,36.59-1.75,51.96-2.85l4.68,11.14c-30.69,11.2-63.73,36.62-72.61,69.64-14.74,61.39,40.76,101.01,51.35,155.95l-4.4,13.83c-122.35-97.28-175.49-238.95-145.42-395.33l7.82-25.35c50.78,21.26,14.48,89.16,39.85,127.5" fill="#164193"/><path d="m990.56,655.52c-8.25-2.97-10.04,7.09-13.01,11.22-1.75-3.53-1.75-8.29-5.31-11.22l-8.81,1.82,17.1-54.38c-.55,19.5,6.47,35.4,10.04,52.55" fill="#164193"/><path d="m440.88,658.45c-7.7-1.72-10.62,4.76-12.96,10.06v2.94c-1.82-5.89-6.54-18.28-15.39-11.8,4.72-17.72,12.36-34.85,15.39-53.71-.63,19.46,5.88,35.99,12.96,52.52" fill="#164193"/><path d="m490.48,791.93v5.31c-23.61,11.2-51.39,31.86-51.39,60.87-3.53,53.65,47.82,83.73,42.53,137.51,8.25,6.51,15.93-5.33,25.4-4.17,31.02-2.33,119.92,7.12,140.5-18.29,5.3-1.15,8.87,1.84,13.01,4.17-7.71,17.15-27.76,29.53-47.22,31.27-48.42,4.76-103.93-36-142.92,8.29,29.53-69.11-72-113.91-38.38-187.13,9.5-21.88,33.1-40.18,55.48-46.65l3,8.84h0Z" fill="#164193"/><path d="m976.38,849.75c7.06,60.87-63.75,93.89-44.26,154.7-59.64-34.26-137.57,47.82-188.39-22.99,0-4.73,5.37-8.32,8.87-10.04,10.61,2.92,14.18,12.96,23.62,18.85,46.05,33.11,95.06-10.01,144.66,2.42,2.98-5.92,0-17.7,2.98-25.42,18.91-43.06,65.5-98.01,21.24-144.66-11.78-10.04-25.39-17.71-39.56-22.47-4.14-6.47,2.39-11.15,4.11-17.07,27.16,10.01,63.78,34.23,66.72,66.67" fill="#164193"/><path d="m864.16,860.96c-3.53,1.78-3.53-2.33-5.25-4.11,1.73-1.78,1.73-5.86,5.25-4.11v8.23h0Z" fill="#164193"/><path d="m548.34,856.84c-.62,1.78,1.18,4.76-1.2,5.89-2.36.59-2.94-2.33-4.71-2.89-2.96-5.33,5.91-8.35,5.91-3" fill="#164193"/><path d="m880.16,873.98c-1.75-.59-2.37.58-2.98,1.19-1.74-1.78-3.51-8.23,1.23-8.23,2.92,1.14,1.17,4.7,1.75,7.03" fill="#164193"/><path d="m563.68,872.19c.56,1.78-.59,2.37-1.18,2.98h-2.94v-7.09c4.11-1.78,2.94,2.98,4.11,4.11" fill="#164193"/><path d="m534.17,872.19c-.61,2.37,1.16,4.76-1.18,5.92-2.35.59-2.98-1.74-4.75-2.95-1.16-2.98,5.93-8.87,5.93-2.98" fill="#164193"/><polygon points="850.05 876.95 845.88 876.95 845.88 869.83 850.05 869.83 850.05 876.95 850.05 876.95" fill="#164193"/><path d="m558.39,944.82c-5.92-4.14-12.4,5.91-13.01,10.09,0-7.7-9.47-11.85-14.15-10.09,8.8-15.94,11.78-34.84,15.91-52.53,1.75,18.33,6.46,35.42,11.25,52.53" fill="#164193"/><path d="m875.43,945.98c-.59-2.33-3.51-.59-5.34-1.17l-7.02,11.26c-1.22-4.21-1.81-8.31-5.92-11.26l-7.09,1.17,14.11-53.69c1.82,18.88,7.76,36,11.27,53.69" fill="#164193"/><path d="m809.29,1026.92c38.98,2.33,73.81-25.27,111.6-7.59-108.77,79.16-274.83,92.17-392.33,33.73l-45.46-26.9c7.66-11.2,25.09-15.78,39.85-16.34,48.41,7.65,119.24,32.44,152.91-21.3,16,7.7,37.81,4.73,52.53-2.92,17.73,27.13,47.85,41.9,80.9,41.32" fill="#164193"/><path d="m1036.02,798.99c-24.8,0-53.14-2.95-70.84-20.07-1.19-7.64,6.47-10.62,12.37-11.2,21.89,4.11,44.32,13.6,58.47,31.27" fill="#fff"/><path d="m424.9,781.89c1.21,14.71-15.93,16.52-25.37,21.25-11.79,3.55-26.53,4.72-38.35,4.14,16.54-16.52,37.2-32.5,60.78-29.53l2.94,4.14h0Z" fill="#fff"/><path d="m715.43,1004.45c-.59,18.32-3.55,36.06-10.09,51.96-4.67-17.71-20.6-45.42-2.28-61.94,5.89,0,10.62,4.08,12.38,9.98" fill="#fff"/><path d="m224.14,833.95c1.15,4.87,3.02,8.99,6.18,13.19l-16.61-5.42c-4.32-1.34-7.45-4.67-8.51-9.16l-9.31-39.8-24.23,5.68c-8.83,2.07-14.59,7.06-15.49,13.28l-10.09-43.06c4.03,5.42,10.33,6.71,19.68,4.49l67.65-15.81c9.35-2.15,14.29-6.06,15.64-12.78l23.04,98.45c-1.86-.82-3.35-1.03-4.57-.73-2.07.49-8.52,4.92-20.82,11.64,4.37-13.28,3.28-25.79,0-39.8l-7.37-31.51-25.79,6.02,10.6,45.34h0v-.02Z" fill="#164193"/><path d="m267.74,951.05c19.63-10.01,25.18-26.58,15.67-45.28-10.47-20.55-28.55-25.94-50.09-15-19.33,9.84-24.87,26.38-15.35,45.1,10.37,20.43,28.54,25.97,49.76,15.17h0Zm-66.56-5.05c-17.95-35.33-9.25-64.86,20.2-79.86,29.95-15.23,61.17-4.79,78.64,29.58,17.96,35.36,9.81,64.79-21.24,80.58-28.52,14.47-60.15,4.05-77.62-30.32h0Z" fill="#164193"/><path d="m350.48,1055.01c16.34-14.79,17.33-32.23,3.27-47.75-15.49-17.12-34.37-17.56-52.29-1.34-16.06,14.53-17.07,31.97-2.98,47.53,15.37,17.01,34.35,17.53,51.99,1.58h0Zm-65.55,12.6c-26.58-29.38-25.94-60.19-1.43-82.37,24.9-22.52,57.75-20.66,83.64,7.94,26.61,29.38,26.44,59.93.63,83.33-23.71,21.47-56.96,19.7-82.85-8.9h0Z" fill="#164193"/><path d="m386.79,1137.61c.3-.47,1.47-2.22,3.26-4.9l38.36-57.48-4.27-2.85c-12.11-8.11-23.3-13.42-37.26-13.94,10.36-9.16,16.91-13.54,18.2-15.46.69-1.02.9-2.59.9-4.52l86.91,58.03c-1.93.62-3.15,1.51-3.84,2.55-1.19,1.77-2.87,9.42-7.26,22.72-5.85-12.67-15.07-20.95-27.2-29.05l-4.59-3.07-38.36,57.52c-4.84,7.23-5.97,15.66-2.28,20.68l-36.65-24.45c5.72,1.05,11.42-1.78,14.09-5.75h0v-.02Z" fill="#164193"/><path d="m540.04,1159.43c13.63,4.61,21.28,3.1,24.26-5.66,3.21-9.42-2.23-13.34-14.18-17.39l-26.93-9.13-8.05,23.72,24.9,8.46h0Zm-7.27,45.23c13.96,4.72,22.59,2.56,25.61-6.36,2.98-8.75-2.95-15.05-17.26-19.89l-31.63-10.74-8.86,26.06,32.13,10.94h0Zm-56.47-19.94l22.1-65.15c3.07-9.08,2.84-15.56-2.47-20.36l55.86,18.96c31.47,10.67,46.6,21.44,39.92,41.14-3.44,10.09-12.55,15.99-24.7,15.29,16.74,8.1,22.42,18.5,17.64,32.62-7.25,21.36-27.1,24.57-61.43,12.92l-61.27-20.8c6.97-.63,11.22-5.36,14.35-14.62h0Z" fill="#164193"/><path d="m672.24,1206.99l-18.44-51.29-25.65,47.32,44.09,3.96h0Zm44.82,42.98l-39.47-1.03c2.89-2.59,3.65-5.31,3.94-8.49.24-2.66-.23-5.22-.63-6.51l-2.42-7.18-60.72-5.43-2.76,4.96c-.85,1.51-1.6,4.11-1.84,6.77-.38,4.25,1.38,8.9,3.83,11.43l-40.86-9.19c5.81-4.81,9.59-6.69,13.78-13.63l44.3-74.34c1.26-2.04,1.95-3.73,2.04-4.81.07-.7-.21-1.78-.92-3.81l43.72,3.91c-.86,1.7-1.68,2.89-1.75,3.8-.1.88.29,2.51,1.16,4.91l27.77,80.82c2.68,7.7,6.36,12.23,10.85,17.83h0Z" fill="#164193"/><path d="m710.67,1145.19l43.85-6.18c-5.84,3.51-8.11,10.12-6.83,19.26l9.68,68.82,29.76-4.17c16.69-2.39,29.23-7.55,39.25-18.26-3.71,15.75-6.77,24.62-6.39,27.25.17,1.4,1.28,2.69,2.73,4.29l-97.33,13.68c5.77-3.67,7.58-9.87,6.28-19.2l-9.69-68.79c-1.32-9.51-4.76-14.76-11.32-16.69h0Z" fill="#164193"/><path d="m801,1133.62l41.66-14.91c-4.96,4.61-5.87,11.53-2.77,20.25l23.4,65.41,28.27-10.09c15.9-5.72,27.16-13.3,34.75-25.84-.44,16.22-1.63,25.5-.73,28.01.46,1.34,1.78,2.4,3.55,3.68l-92.55,33.09c4.9-4.79,5.46-11.2,2.25-20.07l-23.4-65.45c-3.2-9.07-7.65-13.51-14.44-14.06h0v-.02Z" fill="#164193"/><path d="m1053.67,1119.69c-6.35,4.55-14.7,14.88-28.15,24.51-30.63,21.88-59.76,18.44-79.6-9.34-20.08-28.06-12.96-60.62,19.25-83.67,14.76-10.54,27.54-14.41,33.14-18.44,1.46-1.03,2.63-2.48,4.18-4.26l7.61,26.87c-12.4.37-22.93,3.94-32.79,11-18.91,13.53-21.89,34.16-9.57,51.38,13.53,18.93,30.86,21.82,50.12,8.08,10.85-7.73,18.91-18.5,26.46-32.65l16.67,23.29c-3.1.9-5.43,1.89-7.33,3.24h0Z" fill="#164193"/><path d="m1001.83,1027.7l29.15-33.29c-2.07,6.42.49,12.96,7.44,19.02l52.25,45.8,19.78-22.58c11.12-12.72,17.25-24.84,17.83-39.44,7.47,14.35,10.97,23.05,12.96,24.82,1.04.94,2.7,1.2,4.9,1.44l-64.8,73.93c1.96-6.59-.67-12.42-7.76-18.67l-52.26-45.78c-7.24-6.33-13.24-8.09-19.48-5.25h0Z" fill="#164193"/><path d="m1185.34,963.08c-17.04,30.81-37.4,39-62.12,25.32l-41.69-23.05c-8.52-4.72-15.19-5.13-20.54-.99l21.24-38.43c-.55,7.2,3.15,11.91,11.85,16.71l40.94,22.62c13.36,7.41,25.06,3.53,33.4-11.56,8.35-15.08,5.48-26.81-8.05-34.31l-40.91-22.62c-8.05-4.5-13.74-6.01-20.48-1.17l21.36-38.58c-.76,6.48,3.3,12.37,11.71,17.04l41.69,23.05c24.68,13.65,28.65,35.16,11.61,65.94h0Z" fill="#164193"/><path d="m1222.39,807.22c3.3-14.35.3-22.73-8.87-24.84-9.04-2.07-14.7,4.47-18.08,19.2l-7.47,32.56,26.84,6.16,7.58-33.08h0Zm-45.68-2.66c3.22-14.04.9-21.48-8.1-23.55-9.69-2.22-13.01,3.56-15.87,15.87l-6.33,27.72,24.42,5.61,5.89-25.65h0Zm31.57,60.86l-66.99-15.38c-9.4-2.16-15.75-1.25-20.02,4.5l13.19-57.47c7.47-32.39,16.63-48.56,36.89-43.88,10.38,2.4,17.21,10.88,17.7,23.05,6.39-17.51,16.13-24.21,30.67-20.89,22,5.07,27.2,24.51,19.08,59.87l-14.48,63.02c-1.33-6.89-6.5-10.62-16.04-12.82h0Z" fill="#164193"/><path d="m151.73,624.69l9.57-43.19c1.24,6.66,6.62,11.1,15.65,13.1l67.83,14.98,6.48-29.32c3.66-16.48,3.2-30.05-3.38-43.15,13.48,8.99,20.71,14.94,23.32,15.53,1.38.31,2.98-.25,4.97-1.08l-21.18,95.96c-1.45-6.7-6.59-10.55-15.8-12.59l-67.84-14.98c-9.36-2.07-15.51-.71-19.62,4.75h0Z" fill="#164193"/><path d="m265.16,527.93l-61.84-31.7c-8.53-4.37-14.82-4.6-20.17-.35l50.58-98.69c.85,1.83,1.88,2.95,2.98,3.52,1.91.98,9.68,1.77,23.41,4.61-11.92,7.28-19.19,17.53-25.73,30.35l-19.21,37.48,21.96,11.29,21.25-41.43c2.84-5.55,3.61-10.15,3.95-13.96l9.23,14.74c2.42,3.82,2.55,8.29.36,12.54l-18.65,36.37,23.72,12.16,20.28-39.56c8.02-15.63,10.47-30.17,7.57-42.44,10.78,12.11,16.32,19.55,18.7,20.77,1.27.64,2.85.67,5.02.36l-51.31,100.11c.45-6.75-3.54-11.8-12.1-16.17h0Z" fill="#164193"/><path d="m288.84,356.56l54.15,42.41c7.69,6.03,13.96,7.55,20.13,4.26l-27.06,34.57c1.71-6.8-1.37-12.37-9.07-18.41l-54.17-42.39c-7.69-6.03-13.84-7.69-20.02-4.4l27.07-34.56c-1.7,6.78,1.27,12.5,8.97,18.53h0v-.02Z" fill="#164193"/><path d="m431.15,336.24c-5.78,5.27-12.84,16.53-25.05,27.66-27.83,25.4-57.15,25.44-80.13.23-23.25-25.45-20.09-58.66,9.18-85.37,13.39-12.23,25.58-17.58,30.71-22.24,1.32-1.21,2.27-2.8,3.61-4.75l10.76,25.79c-12.27,1.82-22.31,6.63-31.25,14.77-17.2,15.7-17.62,36.56-3.39,52.18,15.69,17.2,33.27,18,50.73,2.07,9.83-8.97,16.55-20.63,22.39-35.58l19.29,21.13c-2.95,1.24-5.15,2.53-6.86,4.09h0Z" fill="#164193"/><path d="m438.94,308.78l-32.56-61.39c-4.48-8.48-9.49-12.26-16.32-11.85l97.99-51.93c-.36,1.99-.18,3.51.41,4.61,1.01,1.87,6.93,6.98,16.55,17.17-13.93-.87-25.76,3.39-38.47,10.12l-37.2,19.73,11.56,21.82,41.14-21.8c5.5-2.92,8.77-6.25,11.24-9.18l-.87,17.35c-.22,4.55-2.67,8.25-6.9,10.5l-36.12,19.16,12.51,23.55,39.25-20.82c15.54-8.23,25.87-18.73,30.52-30.44,1.88,16.11,2.19,25.39,3.44,27.75.67,1.26,1.97,2.17,3.9,3.16l-99.41,52.68c4.24-5.27,3.85-11.7-.62-20.18h-.02Z" fill="#164193"/><path d="m585.96,247.01c17.25-4.21,24.8-10.81,22.61-19.76-2.63-10.9-14.89-8.64-35.95-6.44-26.05,2.7-40.71-3.41-44.63-19.48-4.5-18.49,9.41-36.49,38.76-43.65,18.82-4.6,33.61-4.71,41.55-6.64,1.38-.34,2.72-.86,4.11-1.91l-.05,27.62c-11.57-3.95-25.92-4.29-41.99-.37-12.6,3.07-18.28,8.3-16.63,15.03,2.42,10.01,14.09,6.06,36.82,4.74,25.6-1.47,39.94,3.98,44.27,21.78,5.37,22.11-9.95,39.55-44.13,47.89-15.56,3.78-27.7,4.17-34.09,5.75-1.73.39-3.39,1.18-4.94,2.29l-13.45-27.47c17.43,4,33.05,4.22,47.72.64h0Z" fill="#164193"/><path d="m667.43,238.06c-.03-.54-.12-2.65-.25-5.87l-2.89-69.07-5.15.23c-14.56.62-26.74,2.9-38.33,10.68,3.01-13.48,5.73-20.87,5.61-23.18-.03-1.26-.81-2.64-1.95-4.19l104.4-4.37c-1.18,1.66-1.67,3.11-1.61,4.33.12,2.13,3.27,9.31,7.53,22.65-12.19-6.77-24.51-8.04-39.1-7.44l-5.48.23,2.89,69.07c.37,8.71,4.4,16.19,10.35,18.08l-44.02,1.83c5.22-2.51,8.18-8.15,7.99-12.96h0v-.02Z" fill="#164193"/><path d="m734.1,230.15l12.57-68.38c1.73-9.42.15-15.51-5.48-19.43l109.09,20c-1.51,1.35-2.28,2.67-2.51,3.9-.41,2.08,1.11,9.76,2.34,23.74-10.39-9.33-22.32-13.32-36.47-15.91l-41.43-7.6-4.49,24.32,45.84,8.38c6.09,1.14,10.74.54,14.49-.23l-11.43,13.09c-2.98,3.44-7.24,4.81-11.94,3.96l-40.24-7.38-4.78,26.22,43.7,8.02c17.31,3.16,31.93,1.34,42.84-4.97-8.5,13.8-14.01,21.28-14.48,23.9-.29,1.4.17,2.94,1.04,4.9l-110.66-20.3c6.62-1.5,10.31-6.78,11.99-16.23h0Z" fill="#164193"/><path d="m921.16,242.67c15.19,7.37,23.07,7.42,28.04-2.8,4.95-10.24-.06-16.23-15.26-23.59l-25.44-12.33-12.78,26.4,25.44,12.31h0Zm-42.69,44.1l-39.51-19.14c7,.21,11.79-3.95,16.05-12.76l30.16-62.22c4.14-8.64,4.23-14.93-.11-20.19l56.13,27.19c12.32,5.97,22.06,10.7,28.02,16.34,9.33,8.87,11.67,22.05,5.54,34.68-6.51,13.43-20.48,19.09-38.87,14.17,6.39,7.63,7.94,15.08,8.99,23.89,1.51,11.99,1.34,23.37,7.35,33.78l-40.79-19.74c2.84-1.01,4.55-2.13,5.58-4.23,2.3-4.78,2.47-12.82-.23-23.99-2.51-10.71-8.32-17.87-17.94-22.52l-11.03-5.33-9.45,19.5c-4.26,8.8-4.32,15.47.11,20.58h0Z" fill="#164193"/><path d="m1042.44,406.37c-5.61-5.47-17.22-11.93-28.98-23.53-26.84-26.44-28.44-55.71-4.51-80.01,24.21-24.59,57.53-23.21,85.71,4.6,12.96,12.74,18.97,24.62,23.87,29.48,1.29,1.25,2.92,2.12,4.93,3.36l-25.15,12.14c-2.48-12.17-7.84-21.95-16.45-30.43-16.58-16.31-37.44-15.65-52.26-.6-16.34,16.6-16.22,34.19.62,50.77,9.51,9.36,21.5,15.43,36.73,20.45l-20.07,20.39c-1.4-2.88-2.8-5-4.43-6.62h0Z" fill="#164193"/><path d="m1143.2,400.46l-56.36,39.39c-8,5.61-11.29,11.15-9.95,18.01l-25.15-35.96c5.98,3.59,12.23,2.29,20.22-3.31l56.37-39.41c7.98-5.61,11.41-11,10.04-17.87l25.15,35.97c-5.98-3.64-12.31-2.43-20.3,3.16h0Z" fill="#164193"/><path d="m1106.8,485.68c.49-.22,2.39-1.16,5.31-2.53l62.41-29.73-2.24-4.65c-6.25-13.15-13.09-23.45-24.84-31.08,13.57-2.53,21.44-2.92,23.55-3.93,1.1-.52,2.1-1.78,3.09-3.44l44.94,94.35c-1.99-.43-3.51-.31-4.61.24-1.93.91-7.3,6.62-17.86,15.81,1.46-13.91-2.21-25.73-8.52-38.89l-2.33-4.99-62.44,29.73c-7.84,3.74-13.15,10.41-12.54,16.62l-18.97-39.81c4.37,3.82,10.74,4.35,15.06,2.29h0Z" fill="#164193"/><path d="m1237.74,611.13c2.78-.59,4.32-2,5.66-5l8.58,41.24c-9.86-6.47-18.38-9.97-24.42-12.69l-55.93-26.3-16.17,3.35c-9.6,2.01-15,6.41-16.21,12.82l-8.99-43.16c4.54,6.14,10.51,6.89,19.89,4.96l15.64-3.26,45.04-47.87c6.84-7.24,11.85-12.99,13.54-20.42l9.51,45.59c-2.2-2.63-4.14-3.33-6.95-2.74-3.96.85-6.07,3.08-8.87,6.03l-28.35,29.5,39,16.56c3.41,1.47,6.39,1.94,9.02,1.4h0Z" fill="#164193"/><path d="m933.32,523.49l1.36-1.37.09-2.53c.35-9.31,2.92-36.09,10.5-47.99,10.39-16.19,5.26-32.83,2.52-41.78-.41-1.36-.76-2.56-1.05-3.56-2.07-8.38-6.18-15.93-6.35-16.24l-2.51-4.67-5.07,1.62c-3.33,1.06-81.2,26.72-121.19,84.88-5.02,3.94-10.24,8.01-14.97,11.61-.08-.89-.23-1.78-.47-2.65-.99-3.92-3.88-9.24-12.02-12.41-9.83-3.87-44.87-13.88-88.52-13.88-34.99,0-66.9,6.34-94.81,18.87l-6.39,2.88,1.91,3.43c-38.38-32.88-110.84-92.42-131.6-92.42-.27,0-.51,0-.77,0l-2.87.16-1.78,2.24c-.57.7-3.42,4.52-6.21,12.87-.14.49-.54.92-1.52,1.93-6.83,6.99-8.78,14.9-.35,38.74,11.75,33.29,12.54,46.09,13.07,54.57.68,10.68,9.11,35.3,12.52,42.19,1.65,6.83,13.14,53.79,18.72,66.83,4.92,11.48-.48,18.04-5.89,21.49l-1.39.9c-6.81,4.29-20.99,13.22-22.93,28.14-1.25,9.65,2.89,19.78,12.3,30.08,2.28,4.28,4.35,9.26,4.7,11.29,0,.03-.03.06-.03.06-3.36,5.47.18,8.97,3.59,12.35l2.05,2.04c3.53,3.53,7.32,6.06,10.67,8.31,3.91,2.59,7.29,4.84,9.88,8.28,1.32,1.78,2.29,3.43,3.24,5.07,2.26,3.96,4.6,7.99,10.76,11.56l-1.16,7.35c-1.58,10.27,1.69,32.64,25.37,43.87,6.96,3.33,12.18,5.61,15.99,7.24,6.67,2.9,11.06,6.22,13.17,9.98,6.31,11.2,18.66,24.13,31.41,32.86,10.3,7.06,19.84,20.71,20.99,24.1l10.21,3.03,1.03-.15c.11-.12.71-.85,1.56-2.13.33.22.63.46.95.67-3.18,8.02-6.16,17.27-6.16,23.58,0,9.49,3.88,31.22,38.44,36.91l.17.29,9.29,6.42,11.53,9.89,1.55.93h8.25l.7-.21,8.35-1.9,2.16-.49,1.43-1.75,5.07-6.39,4.43-5.54c12.98-1.03,20.95-6.98,25.39-10.31l.41-.32c6.72-5.05,14.71-24.13,14.71-28.18,0-2.07-1.23-11.06-1.96-16.26l-.11-.7-.24-.62-3.67-10.04c2.42,4.03,3,5.72,3,5.72l3.74,11.35,7.41-9.08,17.07-20.86c1.55-1.55,10.51-10.45,16.19-15.58,5.37-4.81,8.35-11.15,10.51-15.75.79-1.64,1.51-3.22,2.01-3.95,2.28-3.06,22.03-19.4,38.6-28.01,21.07-10.88,25.38-32.3,23.22-44.02l-.56-2.8-2.07-1.26c1.93-4.4,3.55-8.99,4.78-13.71,11.43-7.13,24.16-16.57,34.11-28.01l2.56-3.11-1.48-3.67c-.18-.45-4.32-11.1,7.99-25.99,10.71-12.93,13.31-18.34,11.03-23.09-.9-1.97-2.66-3.37-4.73-3.9-12.98-9.26-24.68-20.44-25.44-24.37-.21-1.19-.47-2.42-.7-3.67-1.96-9.31-4.14-19.84,3.26-33.72,7.18-13.4,7.65-19.97,7.54-26.08-.03-1.45-.07-2.3.11-3.08,2.28-10.13,10.65-43.15,13.43-48.46h0l-.02.05Z" fill="#fab900"/><path d="m734.95,842.12l5.66,17.63,2.59,23.92-15.58,11.76-56.27-1.67-21.52-19.23,9.46-8.11,5.42-24.36c-70.39-52.81-101.5-58.23-101.5-58.23-14-6.42-28.89-9.68-41.69-11.27l-.21,1.23c-1.58,10.27,1.69,32.64,25.37,43.87,6.95,3.33,12.18,5.61,15.98,7.24,6.68,2.9,11.07,6.22,13.19,9.98,6.31,11.2,18.66,24.13,31.41,32.86,10.3,7.06,19.84,20.71,20.99,24.1l10.21,3.03,1.03-.15c.11-.12.71-.85,1.56-2.13.33.22.63.46.95.67-3.18,8.02-6.16,17.27-6.16,23.58,0,9.49,3.88,31.22,38.44,36.91l.17.29,9.29,6.42,11.53,9.89,1.55.93h8.25l.7-.21,8.35-1.9,2.16-.49,1.4-1.75,5.11-6.39,4.43-5.54c12.98-1.03,20.95-6.98,25.39-10.31l.41-.32c6.72-5.05,14.71-24.13,14.71-28.18,0-2.07-1.23-11.06-1.96-16.26l-.11-.7-.24-.62-3.67-10.04c2.42,4.03,3,5.72,3,5.72l3.74,11.35,7.41-9.08,17.07-20.86c1.55-1.55,10.47-10.45,16.19-15.58,5.37-4.81,8.35-11.15,10.51-15.75.79-1.64,1.51-3.22,2.01-3.95,2.25-3.06,22.03-19.4,38.6-28.01,21.03-10.88,25.38-32.3,23.22-44.02l-2.16-8.32.35-1.73-19.56,10.74c-127.82,49.08-127.17,73-127.17,73h0Z" fill="#fff"/><path d="m568.22,700.96s3.85-5.14,13.46,2.55c9.59,7.69,31.31,25,53.06,22.42,0,0,4.5,7.06-10.87,6.42-15.37-.64-14.72-1.28-19.84-1.92s-26.82-21.15-28.76-24.35c-1.91-3.21-7.04-5.12-7.04-5.12h0Z" fill="#164193"/><path d="m711.4,552.64l-7.06-5.75s-3.85-11.52-1.92-16.65c1.92-5.11,28.79-21.78,33.93-24.32,0,0-7.68,14.06-14.74,18.56-7.02,4.49-10.88,11.52-10.88,11.52,0,0-1.89,10.24.67,16.64h0Z" fill="#164193"/><path d="m689,550.73s8.28-14.07,3.85-17.93c-4.5-3.84-32.03-24.97-32.03-24.97,0,0,.63,13.43,7.04,17.92,6.39,4.49,12.15,4.48,12.79,7.69l.64,3.21s-1.29,3.18,1.29,6.37c2.56,3.23,6.42,7.7,6.42,7.7h0Z" fill="#164193"/><path d="m759.37,630.57s33.11-17.43,44.46-20.04c11.32-2.61,0-5.23-2.63-6.11-2.62-.87-10.44-.87-10.44-.87l-10.51,4.36-5.2,2.61-7.85,6.12-6.13,2.61-3.47,1.73s-3.5,12.21,1.75,9.59h0Z" fill="#164193"/><path d="m592.81,607.04c-.96-4.34,4.37,1.73,7.84,3.49,3.5,1.73,20.05,6.99,20.05,6.99l5.25,3.47,8.71,6.99-1.75,4.36s-5.24,0-7.84-2.64c-2.61-2.61-11.06-8.35-11.64-6.8-.58,1.58-5.79-.16-10.15-2.77-4.37-2.61-8.75-5.23-10.48-13.09h0Z" fill="#164193"/><path d="m558.66,538.96c-1.25-2.6-2.92-6.39-3.31-8.08-.22-.87-.46-1.66-.77-2.6-.86-2.69-2.01-6.39-3.26-17.77-1.47-13.42-9.03-21.38-13.09-25.67-.64-.7-1.54-1.62-1.82-2.01-1.91-3.72-4.99-4.4-6.65-4.76-1.6-.36-4.94-1.07-12.96-8.69-14.44-13.8-31.5-25.01-32.2-25.47l-14.82-9.7,5.64,16.96c2.35,7.03,4.95,15.87,5.1,17.67,0,1.79.39,5.5,1.08,11.92.62,5.69,1.41,12.77,1.41,15.2,0,5.32,3.54,28.58,4.26,33.18l.14.97.41.88c1.18,2.33,7.09,14.22,9.81,17.9l.62.83c1.8,2.46,2.22,3.02,3.37,6.46-.07.24-.21.61-.29.93-1.58,4.66-2.91,10.74,1.18,23.84,3.41,10.82,9.36,13.09,13.79,13.09,7.71,0,13.86-7.52,15.31-9.39,1.18-1.45,4.38-5.24,6.23-7.12.49-.51,1.19-1.26,2.07-2.17,3.26-3.46,9.36-9.93,15.81-15.17,5.25-4.26,6.44-8.74,6.51-11.76.09-4.48-2.18-7.79-3.58-9.44h0v-.03Z" fill="#fff"/><path d="m820.99,692s-3.65.64-3.65,5.73-20.63,22.21-27.27,25.37c-6.66,3.18-14.53,1.96-21.83,1.96s-9.68,9.54-9.68,9.54c.03.03.06.03.12.03-2.39,4.09-5.1,11.53-5.1,11.53,0,0-2.48,18.18-8.25,36.38-5.78,18.18,3.29,41.54,4.13,45.05.79,3.45,7.41,14.7,9.87,18.15,2.51,3.5,2.85,17.68,2.85,17.68l4.61-16.81s-.82-6.03-1.63-9.51c-.85-3.47-5.84-7.82-7.47-13.86-1.64-6.07-5.78-22.52-5.78-26.87s4.14-28.56,4.96-32.88c.82-4.35,4.9-12.98,5.37-25.24.06-1.4.06-2.48,0-3.39,38.04,1.99,55.78-21.98,58.76-25.7,3.03-3.81,6.65-17.17,6.65-17.17h-6.65Z" fill="#164193"/><path d="m910.44,441.87c-6.77,7.24-16,12.67-25.73,18.42-17.89,10.56-38.17,22.5-39.85,47.82l-.11,2.16,1.23,1.78c4.14,5.95,1.87,10.38-2.86,18.32-2.45,4.04-4.95,8.27-6.1,13.06l-.96,3.94,3.26,2.46c4.73,3.62,8.96,8.35,13.01,12.93,8.43,9.46,17.16,19.21,31.52,20.89l3.68.44,2.15-2.95c7.47-10.16,9.51-21.78,11.5-33.05,1.81-10.25,3.5-19.99,9.28-27.76l1.55-2.13-.44-2.58c-1.87-11.39,1.45-25.76,4.67-39.67,2.28-9.93,4.66-20.19,5.17-29.54l.9-17.32-11.85,12.76h-.03Z" fill="#fff"/><path d="m639.08,743.61c2.29,27.39,26.9,48.11,10.62,75.16,2.03,15.4-12.65,23.05-16.71,35.74-6.58,0-3.52-10.47-2.53-14.85,14.18-24.69,18.75-59.29,3.57-85.64-.52-4.4.49-9.31,5.05-10.41" fill="#164193"/><path d="m905.83,514.77c-13.48,18.39-7.64,44.07-21.09,62.48-18.76-2.2-26.9-21.75-42.1-33.46,2.89-12.26,18.08-22.84,8.17-37.37,2.34-35.16,43.88-41.3,64.95-64.15-1.17,22.33-13.48,50.75-9.92,72.51h0Zm15.17-89.82c-23.36,20.09-52.63,27.32-74.28,51.89-21.62,18.97,3.51,50.78-26.32,65.82,21.07,19.55,39.74,40.73,65.49,54.66,18.12-11.13,18.71-31.77,19.88-50.74,18.74-32.92,9.4-71.97,23.98-107.13-2.92-4.99.59-16.7-8.75-14.5h0Z" fill="#164193"/><path d="m552.68,556.73c-8.71,6.97-16.55,15.7-19.17,18.31-2.61,2.62-6.98,7.85-6.98,7.85,0,0-13.08,17.43-19.19-1.74-6.11-19.19.88-20.04-.86-25.29-1.75-5.22-2.63-6.11-5.26-9.59-2.59-3.49-9.59-17.45-9.59-17.45,0,0-4.35-27.9-4.35-33.12s-2.62-24.42-2.62-27.91-5.66-20.25-5.66-20.25c0,0,17.87,11.53,32.69,25.49,14.82,13.94,17.45,8.7,19.19,12.19,1.75,3.49,13.07,10.46,14.82,26.15,1.75,15.7,3.51,18.32,4.36,21.8.88,3.51,4.36,10.47,4.36,10.47,0,0,6.97,6.08-1.76,13.08h0Zm9.62-22.67c-1.75-4.35-6.11-.88-4.42-12.93,3.88-28.02.92-15.06-13.91-39.39,0,0-9.59-11.34-10.09-14.41-.54-3.06-2.98-1.29-7.34-3.9-4.35-2.61-6.97-3.5-13.08-6.99-6.1-3.47-7.83-6.08-15.69-13.94-7.85-7.85-20.06-12.21-24.42-14.82-4.36-2.61-6.96,0-6.96,0-4.37,0,1.73,18.31,1.73,21.81s1.73,20.91,6.09,44.46c4.36,23.53,9.59,44.47,13.09,52.31,3.49,7.85,4.35,13.96,6.98,34.01,2.61,20.04,16.19,26.31,16.19,26.31,0,0,23.9-22.82,33.49-28.05,9.62-5.24,12.21-11.34,17.44-18.31,3.48-4.66,6.68-9.32,9.61-13.96,4.35-6.98-6.99-7.84-8.72-12.22h0Z" fill="#164193"/><path d="m633.32,706.17c0,8.12-6.58,14.72-14.71,14.72s-14.71-6.59-14.71-14.72,6.58-14.71,14.71-14.71,14.71,6.59,14.71,14.71h0Z" fill="#164193"/><path d="m615.53,700.76c0,1.71-1.38,3.08-3.09,3.08s-3.11-1.37-3.11-3.08,1.39-3.08,3.11-3.08,3.09,1.37,3.09,3.08h0Z" fill="#fff"/><path d="m796.19,706.17c0,8.12-6.59,14.72-14.7,14.72s-14.71-6.59-14.71-14.72,6.59-14.71,14.71-14.71,14.7,6.59,14.7,14.71h0Z" fill="#164193"/><path d="m586.27,680.8c-13.98.47-30.35,2.92-43.82,1.37,7.1,3.33,21.23,6.8,43.22,7.57,8.9-1.95,16.83-3.26,26.77-1.94,23.74,2.89,34.65,27.73,53.17,37l2.9-9.27c-14.48-28.96-50.38-46.91-82.24-34.73h0Z" fill="#164193"/><path d="m923.86,685.79c-15.34,18.56-8.93,32.63-8.93,32.63-21.76,24.97-57.65,40.31-60.2,40.95-2.55.64-7.03,5.77-9.61,8.35s-15.99,17.92-15.99,17.92l6.39.63-2.33,8.14s9.36-10.71,12.58-15.2c3.21-4.47,11.49-1.93,11.49-1.93l8.98-4.47s3.85-2.54,5.77-3.82c1.93-1.28,5.1.64,5.1.64,1.93,10.21-2.54,28.16-19.87,37.11-17.25,8.95-38.4,26.24-40.94,30.08-2.54,3.82-5.11,12.81-11.53,18.56-6.39,5.75-16.63,16.01-16.63,16.01l-17.27,21.13s-.64-2.56-5.13-9.63c-4.49-7-1.93-6.39-2.57-10.21-.63-3.85-1.92-7.06-5.13-12.84-3.15-5.72-7.03-2.54-9.6-4.46-2.54-1.93-4.46-7.68-4.46-14.06s-15.35-79.39-16.64-85.78l-1.28-6.39s7.67-17.92,26.87-40.34c4.29-4.99,8.64-8.69,12.81-11.44,0,.08,0,.16-.03.24,7.14-4.74,19.29-10.17,33.67-5.67-.06-.07-.08-.14-.15-.21,8.05,2.26,15.17,3.32,21.47,3.56,23.52-2.27,33.2-11.19,36.94-16.67-9.86,2.19-29.2,4.29-29.2,4.29-93.46-8.31-70.4,4.13-70.4,4.13-20.48,7.04-30.05,34.57-30.05,34.57,0,0-6.42,8.33-8.98,12.12-2.55,3.88-2.55,19.25-1.93,23.07.64,3.82,1.93,14.09,1.93,14.09-7,31.34,12.83,80.01,13.44,81.9.64,1.96,6.8,30.02,6.8,30.02l3.5.88,5.07-5.31h3.18l1.32,3.24,7,19.18s1.93,13.48,1.93,15.41-7.03,19.19-12.14,23.02c-5.13,3.82-14.74,11.53-32.65,8.95-.52-.06-1.02-.11-1.55-.17-3.5-.82-7.06-1.55-7.06-1.55l-3.47-.85-2.63-2.63-.85-3.5v-6.25c6.36-1.04,11.09-4.25,11.09-4.25,16.63-7.65,19.22-22.5,19.22-32.28,0-4.78-7.73-8.69-7.73-8.69-21.13-6.39-39.68-3.21-50.56-.63-10.88,2.56-7.05,17.91-7.05,17.91-.25,9.16,17.93,23.7,17.93,23.7,4.21,3.32,8.64,4.5,12.72,4.55v3.36s-.88,3.47-2.62,6.97c-1.18,2.34-6.33,3.44-9.69,3.97-1.89.21-2.98.35-2.98.35-32.63-3.2-39.02-19.84-39.02-31.36s12.78-37.14,12.78-37.14l3.84,3.21s7.04,0,8.97-1.26c1.93-1.31,1.27-4.5,0-6.42-1.29-1.89-3.2-5.75-3.2-5.75,14.71-15.34,23.69-117.14,24.33-119.67.62-2.56-.64-7.06-.64-7.06l-1.93-4.5-3.85-3.82s-8.33-6.42-12.16-4.47c-3.84,1.9,3.83,12.13,3.83,12.13l4.5,5.77c-4.5,6.39-8.33,41.61-8.33,41.61l-7.03,44.14s-5.75,12.81-8.33,24.97c-2.56,12.17-14.06,3.18-14.06,3.18,3.82,16.63-6.4,28.82-6.4,28.82-.66-3.85-11.53-19.84-23.69-28.19-12.15-8.29-23.68-20.48-29.44-30.69-5.76-10.27-6.41-7.7-32.01-19.87-25.6-12.17-21.76-37.11-21.76-37.11,0,0,17.93,7.03,20.48,7.68,2.55.64,14.73,4.49,19.19,6.42,4.5,1.93,23.69,14.06,4.5-7.06-19.21-21.12-28.81-14.06-40.95-18.55-12.16-4.5-11.53-9.6-17.29-17.27-5.75-7.7-14.07-10.24-21.13-17.27-7.04-7.04-5.1-4.5-3.83-8.35,1.29-3.83-5.76-16.63-5.76-16.63-26.9-28.81,1.27-44.17,10.24-49.92,8.96-5.76,14.07-16.02,8.32-29.45-5.75-13.43-18.56-66.57-18.56-66.57-2.56-4.5-11.53-30.08-12.15-40.32-.66-10.26-1.93-23.68-13.45-56.34-11.53-32.63-.64-28.78,1.92-36.48,2.56-7.67,5.12-10.88,5.12-10.88,23.69-1.27,148.49,108.81,148.49,108.81-2.04-8.08-5.26-15.81-9.38-23.28,75.5-33.87,161.09-11.66,178.34-4.91,17.94,7.06,1.93,26.26,1.93,26.26,2.54-.64,32.65-24.31,32.65-24.31,39.06-57.63,118.39-83.22,118.39-83.22,0,0,3.85,7.05,5.78,14.74,1.92,7.68,9.6,24.32-.64,40.3-10.25,16-11.53,51.22-11.53,51.22-3.21,3.2-13.42,45.44-14.7,51.2-1.32,5.76,2.56,9.62-7.06,27.53-9.6,17.94-5.13,31.37-3.21,41.61,1.92,10.24,29.47,29.45,29.47,29.45,0,0,6.42-1.95-8.99,16.64h.02Zm-211.21,277.12l-8.32,1.92h-5.75l-12.82-7.67s4.5-1.29,13.42-1.29,16.01.64,17.92.64h.64l-5.1,6.39h0Zm218.91-316.18c-27.54-20.47-10.91-37.11-5.14-48.64,5.77-11.53,8.31-33.28,8.31-39.03s1.29-28.16,8.32-34.57c7.06-6.41,8.35-40.95,11.56-49.29,3.18-8.32,4.47-21.77,4.47-24.95s.64-9.62,1.29-15.36c.62-5.77-21.09-47.38-21.09-47.38-30.75,3.2-108.83,70.42-116.54,78.73-7.67,8.33-15.99,13.45-15.99,13.45-43.53-12.82-67.23-9.62-110.1-12.16-36.01-2.16-88.28,11.05-104.09,15.33-42.88-55.62-131.45-89.6-131.45-89.6-32.63,32.64-9.59,110.75-6.37,117.78,3.2,7.04,10.88,19.86,10.24,33.92-.64,14.09,9.59,46.74,11.5,58.89,1.94,12.17,12.82,30.08,12.82,30.08,0,0-7.05,7.68-19.21,19.86-12.15,12.15-7.68,6.39-14.7,9.59-7.05,3.23-8.34,12.16-8.34,12.16,0,0,9.61,17.29,17.93,26.25,8.31,8.95-2.57,16.64-2.57,16.64,0,0,14.71,12.15,23.68,19.21,8.97,7.03,3.85,6.39,10.24,12.16,6.41,5.75,1.93,10.21,1.93,10.21l5.12,4.5c3.83,45.46,43.53,62.09,58.25,70.37,14.72,8.35,24.97,21.81,24.97,21.81l12.16,9.6c30.7,21.76,30.7,41.61,30.7,41.61-5.76,34.54,18.59,40.96,18.59,40.96,32.62,10.88,30.7,13.42,30.7,13.42,24.97,19.85,31.99,9.63,40.95,7.06,8.98-2.56,19.84-10.24,19.84-10.24,46.72-19.19,39.04-58.88,39.04-58.88,0,0,7.68-10.88,13.45-16.66,5.77-5.78,10.88-17.27,10.88-17.27,0,0,32.64-29.44,52.51-40.32,19.81-10.88,37.11-24.98,46.04-63.38,8.99-38.39,38.43-46.08,38.43-46.08-2.57-4.47-5.75-14.72,1.29-24.96,7.02-10.19,18.47-26.14,18.55-26.23-.09.1-1.78,1.06-28.16-18.59h0Z" fill="#164193"/><path d="m778.34,700.76c0,1.71-1.4,3.08-3.12,3.08s-3.06-1.37-3.06-3.08,1.34-3.08,3.06-3.08,3.12,1.37,3.12,3.08h0Z" fill="#fff"/></svg>