<?xml version="1.0" encoding="UTF-8"?>
<svg id="Layer_1" xmlns="http://www.w3.org/2000/svg" xmlns:xlink="http://www.w3.org/1999/xlink" version="1.1" viewBox="0 0 100 100">
  <!-- Generator: Adobe Illustrator 30.5.1, SVG Export Plug-In . SVG Version: 2.1.4 Build 3)  -->
  <defs>
    <style>
      .st0 {
        fill: none;
      }

      .st1 {
        fill: #fff;
      }

      .st2 {
        clip-path: url(#clippath);
      }
    </style>
    <clipPath id="clippath">
      <rect class="st0" x="29.96" y=".59" width="40.08" height="98.82"/>
    </clipPath>
  </defs>
  <g class="st2">
    <path class="st1" d="M48.92,54.48c0,5.32-2.28,9.63-3.59,10.94-4.07,4.05-7.44,1.1-7.47,5.17-1.85,1.67-3.18,4.2-3.83,7.09.04,0,.08,0,.12.02.38.07.71.29.96.63,5.17-4.19,13.15-6.4,19.23-5.04,1.94.44,3.58,1.15,4.82,2.24-1.87-3.01-4.73-5.33-8.11-6.54-.81-.28-2.23-.61-2.23-3.2,0-4.84,5.32-1.08,8.81-6.34.17-.26-.08-.49-.28-.29-1.06,1.05-3.66,1.78-5.04,1.78s-1.89-.32-1.89-.32c1.3-2.58,2.92-4.77,2.92-4.77-3.26-3.24,2.22-21.02,16.7-21.02,0-4.13-.44-7.35-.97-9.74-.34.09-3.07.73-3.2.15-.1-.51,2.01-1.61,2.74-1.96-.71-2.46-1.42-3.62-1.42-3.62-12.41,3.89-9.92,14.11-12.94,14.11-1.97,0-3.52-1.53-4.06-2.07-7.41-7.38-3.96-12.26-3.96-22.05.01-6.6-2.57-9.07-7.32-9.07s-6.47,2.06-6.47,2.06c0,0,6.52.21,6.52,7.02s-8.06,9.1-8.06,18.16c0,15.07,18.03,14.78,18.03,26.67M40.33,9.66c0-.88-.1-1.66-.27-2.38,0,0,1.42-.08,1.42-1.8,0-1.42-.95-2.38-1.2-2.38-.2,0-.26.22-.7.22-1.09,0-1.16-1.38-1.16-1.38h.5c3.1,0,5.97.94,5.97,7.72,0,2.51-.24,4.74-.45,6.71-.21,1.95-.4,3.75-.34,5.52,0,0-5.41-.63-5.41-4.68,0-2.63,1.64-3.27,1.64-7.56h0ZM32.73,84.01c-.34-.09-.65-.31-.88-.62-1.17,1.81-1.67,3.42-1.24,4.86,1.81,6.08,7.19,10.56,13.64,11.16-6.16-1.86-10.72-8.26-11.52-15.4h0ZM31.47,80.42c-.38-.28-.72-.54-.96-.76-.42,1.55-.6,3.16-.54,4.76,0,.33.04.66.07.98.24-.98.71-1.99,1.38-3.03-.12-.61-.1-1.3.04-1.96M31.77,79.49c.15-.36.36-.69.6-.99.18-.21.39-.4.62-.54.59-2.72,1.81-5.14,3.6-6.98-2.67,1.89-4.72,4.59-5.8,7.72.14.19.53.49.96.79M54.91,93.46c-1.34-.14-3.12-.5-3.9-.76-.87-.29-1.64-1.02-2.07-1.94-.22-.47-.34-.98-.37-1.49-.02-.36.02-.76.12-1.2-4.9-1.48-10.08-3.54-13.68-5.46-.12.23-.27.45-.43.64-.27.32-.58.56-.89.69.34,2.99,1.38,5.92,3.05,8.47,2.2,3.38,5.2,5.7,8.44,6.43,1.15.26,2.65.58,3.99.29,4.98-1.1,9.04-4.53,11.02-9.04-.23.04-.5.06-.78.08-1.13,3.31-3.52,3.42-4.51,3.31M60.48,78.19c-.72-1.89-3.15-3.24-6.35-3.96-5.91-1.33-13.68.87-18.61,5.01.19.76.13,1.65-.12,2.48,3.56,1.9,8.73,3.97,13.62,5.45,1.15-2.63,3.35-3.12,5.07-2.71,1.23.31,2.02.47,2.6.58l.63.13c.81.19,1.53.73,1.96,1.48.31.54.59,1.38.39,2.53.6-.04.89-.13.96-.22.64-1.82.95-3.78.87-5.83-.07-1.69-.41-3.37-1.02-4.95h0ZM49.8,90.36c.37.8,1.03,1.27,1.52,1.43.63.22,2.3.57,3.69.72,1.53.17,2.71-.68,3.39-2.38-.51-.03-1.06-.09-1.62-.16-.1.35-.24.69-.41.98-.13.23-.42.31-.65.18s-.31-.42-.18-.65c.12-.2.21-.43.29-.67-.3-.05-.59-.1-.89-.16-.1.4-.22.77-.34,1.05-.11.24-.39.35-.63.25-.24-.11-.35-.39-.25-.63.1-.23.19-.54.28-.87-.15-.03-.31-.07-.46-.1-.16-.04-.33-.08-.49-.12-.09.29-.2.57-.32.85-.11.24-.38.35-.62.26-.24-.1-.35-.38-.26-.62.1-.24.19-.48.26-.71-.81-.2-1.64-.43-2.48-.68-.2.88-.03,1.57.18,2.02M58.69,89.19c.19-.97-.02-1.64-.25-2.05-.3-.53-.79-.89-1.34-1.02l-.6-.12c-.56-.12-1.39-.28-2.64-.59-1.67-.42-3.11.35-3.91,2.05.81.24,1.62.46,2.4.65.12-.6.15-1.03.15-1.03.02-.27.24-.47.51-.45.27.02.47.24.45.5,0,.04-.03.52-.18,1.2.15.04.31.08.46.1.15.04.32.06.46.1.13-.67.22-1.24.23-1.25.04-.26.28-.44.55-.4.26.04.44.29.4.54,0,.05-.1.62-.24,1.3.32.06.62.12.91.16.11-.57.13-1.04.13-1.05.01-.27.24-.47.5-.45.27.01.47.24.45.5,0,.04-.03.53-.15,1.15.56.07,1.12.13,1.68.16M34.01,78.46c-.21-.04-.63-.04-1.06.42-.67.72-.98,1.7-.93,2.9,0,.31.06.48.15.73.15.44.53.72.81.77.33.06.69-.13,1.04-.54.75-.88,1.08-2.5.7-3.53-.15-.43-.4-.7-.69-.76"/>
  </g>
</svg>