<?xml version="1.0" encoding="utf-8"?>
<!-- Generator: Adobe Illustrator 23.0.1, SVG Export Plug-In . SVG Version: 6.00 Build 0)  -->
<svg version="1.1" id="Livello_1"
	xmlns="http://www.w3.org/2000/svg"
	xmlns:xlink="http://www.w3.org/1999/xlink" x="0px" y="0px" width="234px" height="103.8px" viewBox="0 0 234 103.8" enable-background="new 0 0 234 103.8" xml:space="preserve">
	<rect id="bg" width="234" height="103.8"/>
	<path fill="#FFFFFF" d="M48.447,33.673v25.538c0,6.51-3.806,10.916-11.818,10.916h-1.102v-5.408h1.002
	c3.706,0,5.809-1.903,5.809-5.709v-20.03H36.73v-5.308H48.447z M59.464,64.92h5.608V33.673h6.009v30.746
	c0,3.806-2.003,5.809-6.009,5.809h-5.608c-4.006,0-6.009-2.003-6.009-5.809V33.673h6.009V64.92z M87.806,55.906V33.673h6.009v22.434
	c0,10.115-5.308,13.921-14.822,13.921h-3.005V33.673h6.009v30.446h0.3C86.304,64.118,87.806,60.413,87.806,55.906 M104.832,39.181
	v9.715h7.011l-1.002,5.208h-5.909v10.416h8.713l-1.002,5.508H98.723V33.673h13.42l1.002,5.508H104.832z M129.168,33.673h5.809
	v36.355h-5.809V57.609L123.46,44.99h-0.3v25.038h-5.809V33.673h5.709l5.709,13.721h0.401
	C129.168,47.393,129.168,33.673,129.168,33.673z M155.908,39.181H150.1v30.846h-6.009V39.181h-5.809l1.001-5.508h15.623
	L155.908,39.181z M165.122,64.92h5.608V33.673h6.009v30.646c0,3.806-2.003,5.809-6.009,5.809h-5.608
	c-4.006,0-6.009-2.003-6.009-5.809V33.673h6.009V64.92z M181.246,58.009h5.909v7.211h5.508v-5.108c0-2.504-0.601-3.605-2.504-4.707
	l-5.709-3.605c-2.103-1.402-3.105-3.806-3.105-5.709v-6.71c0-3.806,2.504-5.809,5.608-5.809h5.608c4.006,0,5.608,2.003,5.608,5.809
	v4.507l-5.809,1.602V38.28h-5.208v5.508c0,1.803,0.601,3.005,2.303,4.106l5.508,3.405c2.303,1.402,3.505,3.605,3.505,6.51v7.011
	c0,3.906-2.504,5.408-5.709,5.408h-5.508c-4.006,0-6.009-1.602-6.009-5.408L181.246,58.009L181.246,58.009z"/>
</svg>
