<svg xmlns="http://www.w3.org/2000/svg" xml:space="preserve" style="enable-background:new 0 0 751 72.683" viewBox="0 0 751 72.683">
    <style>
        path {
            fill: #fff;
        }
    </style>
    <path d="M519.4 72.683V12.667l-2-4.125v63.695h-13.587l-.747-1.942-9.466-24.164v26.006h-15.7V12.773l-5.3-10.465-.1 61.631c0 2.528-.964 4.604-2.864 6.17-1.623 1.407-3.728 2.129-6.235 2.129h-19.2c-2.355 0-4.568-.727-6.4-2.101-1.993-1.438-3.1-3.645-3.1-6.2v-53.8c0-2.375 1.025-4.475 2.964-6.072 1.797-1.459 3.951-2.228 6.236-2.228h47.786l.747 1.941 9.366 23.541V1.837h13.6V0l.918 1.837 23.682.01c.804.03 3.031.146 4.294.535.938.312 1.885.627 2.753 1.061a13.742 13.742 0 0 1 3.561 2.587c1.759 1.76 2.989 3.895 3.657 6.344.421 1.472.636 3.044.636 4.664v40c0 4.392-1.45 8.163-4.193 10.907-2.67 2.777-6.378 4.192-11.007 4.192l-.331-.009-7.476-.983-12.494 1.538zm-.156-64.921 2.156 4.446v58.184l1.064-.146 9.442-1.117 7.793 1.008c3.848 0 6.941-1.083 9.205-3.222-2.323 2.05-5.45 3.122-9.105 3.122l-.127-.008-7.68-.984-10.592 1.213V12.073l-2.156-4.311zm-14.057 62.476h.132L491.7 35.524v.276l13.487 34.438zm-36.875-1.627c-1.34 1.064-3.034 1.627-4.911 1.627 1.995 0 3.647-.548 4.911-1.627zm11.588 1.526h.1V12.379l-2.252-4.381 2.152 4.303v57.836zm-43.2-6.2c0 1.918.786 3.501 2.272 4.58-1.486-1.151-2.272-2.734-2.272-4.58zm69.982 4.301h6.818v-62.4h-7.6v42.405L489.022 5.938h-10.084L482 11.896v56.342h7.7V24.95l16.982 43.288zM449.087 5.837H443.9c-1.399 0-2.665.438-3.661 1.268-1.045.806-1.539 1.79-1.539 3.032v53.8c0 1.243.494 2.227 1.509 3.008 1.132.87 2.438 1.293 3.991 1.293h19.2c1.484 0 2.749-.427 3.76-1.269.995-.829 1.439-1.765 1.439-3.032V5.844c-3.177.021-13.143.076-19.512-.007zm82.92 61.194 7.856 1.007c3.364-.013 6.175-1.052 8.13-3.007 1.989-2.086 3.007-4.814 3.007-8.094v-40c0-1.112-.158-2.309-.47-3.558-.255-.932-.702-1.951-1.288-2.927a7.575 7.575 0 0 0-1.249-1.608c-.786-.786-1.607-1.396-2.44-1.812-.629-.268-1.273-.543-1.996-.724-.9-.225-2.937-.413-3.694-.47h-19.344l2.882 5.764v56.415l8.606-.986zM436.7 10.116v53.821-53.821zm67.1 27.464.101.252V3.837h11.5H503.8V37.58zm36.271-33.732c.462.036 2.408.198 3.624.442l-.011-.004c-.896-.275-2.761-.404-3.613-.438zm-64.376.09h14.656l-.038-.1h-14.67l.052.1zM443.9 3.837h5.199c7.614.1 20.365 0 20.492 0H443.9zm73.418 0H539.7h-22.382zM288.7 72.583V12.567l-5.193-10.729h25.738v.823l.198-.793c.132.025.775.072 1.292.109.997.072 2.127.154 2.761.281l.121.032c.922.308 1.87.624 2.731 1.054a13.73 13.73 0 0 1 3.56 2.587c.739.74 1.358 1.506 1.84 2.277.93 1.394 1.456 2.891 1.808 4.037.43 1.502.645 3.075.645 4.694v40c0 4.393-1.45 8.165-4.193 10.907-2.67 2.777-6.378 4.193-11.007 4.193l-.331-.009-7.476-.983-12.494 1.536zm1.45-61.61.55 1.135v58.184l1.065-.146 2.716-.32-3.781.433V12.073l-.55-1.1zm18.716 59.065h.17l-6.622-.849 6.452.849zm-7.559-3.007 7.856 1.007c3.364-.013 6.174-1.052 8.13-3.007 1.99-2.085 3.007-4.813 3.007-8.094v-40c0-1.114-.158-2.311-.47-3.558-.254-.932-.701-1.951-1.287-2.928a7.64 7.64 0 0 0-1.25-1.608c-.787-.786-1.607-1.396-2.44-1.812-.628-.268-1.272-.543-1.995-.724-.9-.225-2.937-.413-3.695-.47h-19.344l2.882 5.764v56.415l8.606-.985zM310.979 4c.82.09 1.755.216 2.363.368.659.165 1.245.387 1.802.618-.642-.291-1.352-.529-2.098-.778-.454-.083-1.318-.153-2.067-.208zm-24.286-.163h22.411-22.411zM556.6 72.532V12.573l-5.443-10.736H556l27.404.1c2.417 0 4.665.726 6.496 2.1 1.937 1.481 3 3.681 3 6.2v18c0 1.048-.106 2.035-.324 3.017-.38 1.519-1.388 2.839-2.772 3.647l-.856.5c3.669 2.007 4.453 4.976 4.453 7.136v21.3c0 2.559-.99 4.728-2.864 6.271-1.766 1.435-4.065 2.129-7.036 2.129h-.2l-13.871-1.096c-3.766.494-5.655.693-9.526 1.091l-3.304.3zm2-2.197v.007l1.11-.101c3.875-.397 5.753-.595 9.56-1.096l.005-.001c-1.88.194-3.317.364-4.754.535-1.48.176-2.961.352-4.918.553l-1.003.103zm24.338-.129.442.035.021-.003-.463-.032zm1.884-34.705 2.856 1.558c2.398 1.257 3.621 3.103 3.621 5.479v21.2c0 1.97-.727 3.574-2.16 4.769-1.379 1.148-3.31 1.731-5.739 1.731 2.593 0 4.48-.549 5.869-1.677 1.412-1.163 2.131-2.754 2.131-4.724v-21.3c0-2.409-1.23-4.263-3.657-5.511l-2.88-1.549-.041.024zm-15.538 31.632.087.007c2.72.194 4.78.365 6.831.535 2.174.18 4.337.359 7.269.565 1.879-.003 3.379-.43 4.39-1.271.982-.818 1.439-1.845 1.439-3.231v-21.2c0-1.64-.791-2.785-2.563-3.715l-5.961-3.25 6.916-4.096c.506-.317.796-.684.946-1.213a8.836 8.836 0 0 0 .263-2.126v-18c0-1.379-.458-2.393-1.4-3.1-1.047-.785-2.464-1.2-4.1-1.2h-25.773l.402.786c.787 1.535 1.467 2.861 2.383 4.905l.088.195v56.404c1.425-.153 2.604-.293 3.784-.434 1.479-.175 2.958-.351 4.913-.552l.086-.009zM590.9 28.137c0 .876-.111 1.766-.331 2.643-.295 1.038-.894 1.814-1.839 2.405l-2.912 1.726 2.978-1.737c.922-.538 1.59-1.405 1.834-2.378a11.57 11.57 0 0 0 .271-2.558v-.101zm-36.457-24.3h1.553-1.553zm158.457 68.5h-15.7V44l-2.079-1.262H692v29.399h-15.8V12.58l-4.496-8.717.103 24.921-4.366-2.258L656 20.631v-5.794h-5.4v44.4h5.4v-8.895l1.621-.884 14.179-7.266v21.743c0 2.434-.956 4.503-2.842 6.153-1.89 1.421-4.033 2.147-6.258 2.147H644c-2.465 0-4.595-.715-6.331-2.124-1.972-1.624-2.969-3.701-2.969-6.177v-53.8c0-2.464.964-4.507 2.864-6.072 1.675-1.452 3.804-2.228 6.136-2.228H692v26.5h3.279l1.421-1.015V1.837h15.696l.104 26.6c0 .34-.101 1.916-.323 2.917-.38 1.52-1.388 2.839-2.772 3.646l-.862.503c3.396 1.916 4.247 4.622 4.356 6.578l.002.156v30.1zm-13.7-2h11.7v-.1h-11.7V42.813l-2.396-1.393 2.396 1.454v27.463zm-9.3-.2h.1V40.738h-1.205l1.105.607v28.792zm-20.2-24.532v18.433c0 1.862-.706 3.356-2.159 4.567a7.769 7.769 0 0 1-.491.379c.22-.138.437-.286.649-.446 1.374-1.206 2.101-2.77 2.101-4.601V45.481l-1.439.745L658 51.575l11.7-5.97zM652.087 5.837H643.5c-1.371 0-2.536.415-3.561 1.268-.955.796-1.439 1.816-1.439 3.032v53.9c0 1.444.838 2.446 1.54 3.031 1.101.846 2.373 1.269 3.86 1.269h18.7c1.459 0 2.622-.403 3.661-1.269.995-.83 1.439-1.765 1.439-3.031V48.871l-7.8 3.979v10.388h-13.4V14.629l-6.893-3.792H659.9v7.288l7.8 3.979V5.847c-2.498.023-9.215.069-15.613-.01zM701.2 68.238h7.7v-26c-.079-1.47-.863-2.572-2.466-3.416l-5.959-3.249 1.516-.896c.746-.441 1.365-.801 1.94-1.136 1.115-.649 2.062-1.199 3.442-2.054a2.22 2.22 0 0 0 .844-1.155c.092-.785.184-2.242.185-2.257L708.4 5.837h-7.7v23.627l-4.19 2.873h-8.61v-26.4h-10.762l2.961 5.758v56.542h7.801V42.529l-6.895-3.791h15.164l5.03 2.925v26.575zm-52.7-7h9.4-9.3v-48.4h-1.207l1.107.609v47.791zm62.271-20.032c.067.314.109.642.128.979l.001 10.053V42.137a5.538 5.538 0 0 0-.129-.931zm-6.24-5.7.02.011 3.846-2.244c.922-.538 1.59-1.404 1.834-2.378.169-.764.27-2.191.27-2.458v-.1l-.096-24.5H698.7v24.515l-2.065 1.475 2.065-1.417V3.837h11.7v24.3c-.006.129-.105 1.703-.208 2.524l-.031.151c-.274.962-.824 1.727-1.679 2.338a129.869 129.869 0 0 1-3.545 2.119l-.406.237zM689.9 30.337h5.99H690v-26.5h-16.057l.052.1H689.9v26.4zM658 19.444l.578.315 11.215 5.731-.093-21.653V25.37L658 19.4v.044zM643.7 3.837h8.399c8.009.1 16.503.002 16.589 0h.009H643.7zm-565.1 68.5H62.8V44l-2.08-1.262H57.6v29.5H41.9V12.573L37.1 3.08v69.157h-16v-29.6h-5.3v29.601H0v-45c0-2.419 0-4.92.101-7.44.104-2.396.528-4.617 1.26-6.605a19.295 19.295 0 0 1 3.267-5.69c1.541-1.761 3.518-3.497 5.894-5.18l.801-.484H68.7c2.481 0 4.74.769 6.53 2.224 1.907 1.458 2.97 3.658 2.97 6.176v18c0 1.049-.106 2.037-.324 3.017-.379 1.519-1.387 2.839-2.772 3.647l-.861.502c3.783 2.134 4.357 5.37 4.357 7.134v29.798zm-13.8-2h11.8v-.1H64.9V42.813l-3.62-2.075 3.52 2.137v27.462zm-20.9-.099V12.176v58.062zm-20.8 0V40.637v29.601zm-21.1 0v-43 43zm64.9-2h7.8v-25.7c0-1.64-.791-2.785-2.564-3.715l-5.958-3.249 6.913-4.097c.39-.283.674-.662.828-1.146.095-.76.182-1.481.182-2.193v-18c0-1.354-.431-2.291-1.44-3.132-1.006-.753-2.424-1.168-4.06-1.168H42.928l2.972 5.861v56.539h7.7v-29.5h8.27l5.03 2.925v26.575zm-41.8 0h8v-62.4H17.3c-1.927 0-3.609 0-4.767.078-2.163 1.43-3.794 2.825-4.852 4.147a13.75 13.75 0 0 0-2.638 4.508c-.534 1.512-.842 3.283-.944 5.415C4 22.358 4 24.838 4 27.237v41h7.8v-25.81l-6.893-3.791H25.1v29.602zM12.693 40.637l1.107.609v-.609h-1.107zm58.545-4.581 1.841 1.003c.251.132.49.27.716.415a8.684 8.684 0 0 0-.763-.453l-1.794-.965zm4.114-28.943c.508.877.748 1.868.748 3.024v18c0 .862-.105 1.707-.208 2.523l-.031.152a4.138 4.138 0 0 1-1.371 2.1c.717-.537 1.232-1.289 1.439-2.117.183-.823.271-1.644.271-2.558v-18c0-1.175-.289-2.229-.848-3.124zM2 27.125v.056-.056zm0-.454v.134-.134zm0-.056v.02-.02zm.01-2.807v.022-.022zm.188-5.287a23.72 23.72 0 0 0-.099 1.359 124.827 124.827 0 0 0-.088 3.906c.012-1.304.037-2.609.09-3.891.023-.473.055-.93.097-1.374zm9.679-14.684-.263.157a38.751 38.751 0 0 0-2.285 1.75A34.962 34.962 0 0 1 11.654 4.1l.212-.138.251-.021c1.241-.104 3.067-.104 5.183-.104h17.8-23.223zm27.866 0H68.6c.616 0 1.21.049 1.779.145a9.435 9.435 0 0 0-1.679-.145H39.743zM632.6 72.238h-16V42.637h-5.3v29.5h-15.8v-45c-.099-2.452-.005-4.805.095-7.295l.006-.145c.104-2.398.529-4.62 1.261-6.605a19.295 19.295 0 0 1 3.268-5.69c1.333-1.642 3.38-3.406 5.916-5.097l.778-.468H632.6v70.401zm-14-2V40.637v29.601zm-21.1-.101v-42.9c0-2.419 0-4.92.101-7.341.047-.984.136-1.9.267-2.759a22.444 22.444 0 0 0-.269 2.644l-.006.141c-.098 2.45-.189 4.764-.094 7.176l.001 43.039zm23.1-1.899h8v-62.4h-15.8c-1.927 0-3.608 0-4.767.078-2.165 1.432-3.796 2.827-4.852 4.147a13.732 13.732 0 0 0-2.639 4.508c-.533 1.512-.843 3.283-.944 5.415-.099 2.373-.099 4.853-.099 7.252v41h7.8v-25.81l-6.893-3.791H620.6v29.601zm-12.408-27.601 1.107.609v-.609h-1.107zm-.816-36.8-.262.157c-2.331 1.556-4.225 3.181-5.438 4.673a18.22 18.22 0 0 0-1.131 1.527c.336-.484.701-.955 1.099-1.413 1.215-1.521 3.025-3.062 5.51-4.682l.211-.138.252-.021c1.241-.104 3.068-.104 5.183-.104h17.8-23.224zM432.3 72.238h-15.6V56.075l-2.731 10.362h-9.638L401.6 56.075v16.062H386v-59.46l-4.8-9.401v68.962h-16V42.637h-5.3v29.5h-15.8v-45c-.099-2.452-.005-4.805.095-7.295l.006-.145c.104-2.395.528-4.616 1.26-6.605.774-2.1 1.842-3.96 3.267-5.69 1.334-1.642 3.382-3.406 5.917-5.097l.778-.468h45.282l.736 2.063 7.858 26.784 8.446-28.847H431.4v1h.899v69.401zm-13.6-2h.1V40.692l-.1.379v29.167zm-51.5 0V40.637v29.601zm20.8-.101h.1V12.279l-4.337-8.442h15.486l9.956 34.051.062-.21-9.971-33.84h-15.553l.745 1.44 3.512 6.92v57.939zm-41.9 0v-42.9c0-2.419 0-4.921.101-7.341.046-.977.134-1.887.264-2.741a22.19 22.19 0 0 0-.266 2.625l-.006.141c-.098 2.45-.19 4.764-.094 7.175l.001 43.041zm74.7-1.899h7.601v-62.4h-7.653l-11.552 39.148-11.445-39.149h-10.713l3.062 5.958v56.442h7.601V25.184l9.771 37.253h3.557l9.771-37.253v43.054zm-51.6 0h8v-62.4h-15.8c-1.927 0-3.609 0-4.767.078-2.163 1.431-3.794 2.826-4.852 4.147-1.197 1.383-2.052 2.847-2.638 4.507-.534 1.514-.843 3.285-.944 5.415-.099 2.374-.099 4.854-.099 7.252v41h7.8v-25.81l-6.893-3.791H369.2v29.602zm36.668-3.801h.061L399.7 40.692v.29l6.168 23.455zm-49.075-23.8 1.107.609v-.609h-1.107zm-.816-36.8-.263.157c-2.331 1.555-4.225 3.18-5.438 4.673-.41.498-.786 1.006-1.132 1.53a16.31 16.31 0 0 1 1.1-1.415c1.217-1.522 3.027-3.064 5.509-4.683l.211-.138.252-.021c1.242-.104 3.068-.104 5.183-.104h17.8-23.222zm63.277 0H430.3h-11.046zM260 72.238h-16V42.637h-5.3v29.601h-15.8v-45c-.099-2.452-.005-4.805.095-7.295l.006-.145c.104-2.396.528-4.618 1.261-6.605a19.295 19.295 0 0 1 3.266-5.69c1.335-1.642 3.382-3.406 5.917-5.096l.704-.568H260v70.399zm-14-2V40.637v29.601zm-21.1 0v-43c0-2.419 0-4.921.101-7.341.022-.473.055-.931.097-1.374-.046.445-.079.898-.099 1.359l-.006.141c-.098 2.45-.19 4.764-.094 7.175l.001 43.04zm23.1-2h8v-62.4h-15.8c-1.927 0-3.61 0-4.768.078-2.163 1.43-3.794 2.825-4.852 4.147a13.75 13.75 0 0 0-2.638 4.508c-.534 1.512-.842 3.283-.944 5.415-.099 2.374-.099 4.854-.099 7.252v41h7.8v-25.81l-6.893-3.791H248v29.601zm-12.407-27.601 1.107.609v-.609h-1.107zm-.742-36.8-.226.181c-.642.429-1.245.857-1.809 1.283a37.379 37.379 0 0 1 1.738-1.201l.212-.138.251-.021c1.241-.104 3.068-.104 5.183-.104H258h-23.149zm-14.352 68.401h-13.585l-.747-1.942-9.467-24.165v26.006H181V12.773l-5.299-10.464-.101 61.63c0 2.528-.963 4.604-2.864 6.17-1.623 1.407-3.728 2.129-6.236 2.129h-19.2c-2.355 0-4.568-.727-6.4-2.101-1.994-1.439-3.1-3.646-3.1-6.2v-53.8c0-2.375 1.025-4.475 2.964-6.072 1.796-1.459 3.951-2.228 6.236-2.228h47.787l.746 1.941 9.367 23.541V1.837h15.702l-.103 70.401zm-12.212-2h.131L194.8 35.524v.273l13.487 34.441zm-36.876-1.627c-1.34 1.065-3.034 1.627-4.911 1.627 1.995 0 3.647-.547 4.911-1.627zM183 70.137h.1V12.379l-2.259-4.395L183 12.301v57.836zm-43.2-6.2c0 1.923.791 3.51 2.286 4.59l.003.002c-1.498-1.153-2.289-2.74-2.289-4.592zm69.982 4.301h6.818v-62.4H209v42.405L192.122 5.938h-10.084l3.062 5.958v56.342h7.7V24.95l16.982 43.288zM152.187 5.837H147c-1.399 0-2.664.438-3.66 1.268-1.047.806-1.541 1.79-1.541 3.032v53.8c0 1.243.494 2.227 1.51 3.008 1.131.87 2.436 1.293 3.99 1.293h19.2c1.485 0 2.75-.427 3.76-1.269.996-.83 1.44-1.765 1.44-3.032V5.844c-3.189.022-13.219.077-19.512-.007zM139.8 10.116v53.821-53.821zm67.1 27.466.1.251V3.837h11.599H206.9v33.745zM178.795 3.938h14.657l-.038-.1h-14.67l.051.1zM147 3.837h5.2c7.517.1 20.363 0 20.492 0H147zm-11.3 68.401H99.2V61.675l.15-.453 17.989-46.385h-4.604L99.2 21.681V1.837h36.4l-.03 10.542-.138.52-17.972 46.339h4.605l9.291-4.597 4.344-2.246v19.843zm-34.5-2V62.05l19.138-49.213h-.078l-19.06 49.16v8.241zm2-2h28.5v-9.375l-8.662 4.375h-11.4L131.7 11.65V5.837h-28.6v9.375l8.662-4.375h11.5L103.2 62.425v5.813zm11.362-7h8l1.35-.682-1.377.682h-7.973zm-2.324-48.401-2.574 1.3 2.6-1.3h-.026zm-11.038-8h1v-1h31.4-32.4v1zm641 67.3h-18.5c-2.177 0-4.106-.654-5.9-2-1.965-1.502-3-3.679-3-6.3V42.195l15.601 8.148v8.895h4.8V48.835l-18.009-18.993c-.266-.263-1.381-2.096-1.56-2.409a7.515 7.515 0 0 1-.932-3.597v-13.7c0-2.133.872-4.086 2.593-5.807 1.654-1.654 3.776-2.493 6.307-2.493h.022c4.39.1 11.087.1 15.978.1h11.3v26.893l-4.383-2.417-11.117-5.881v-5.693h-4.8v7.097l17.322 18.012.071.142c.038.062.202.298.411.603.476.693 1.127 1.643 1.47 2.26.716 1.121 1.126 2.591 1.126 4.087v16.7c0 2.299-.827 4.341-2.393 5.906-1.536 1.646-3.699 2.492-6.407 2.492zm-13.8-49.403 17.625 18.338c.054.078 1.317 1.927 1.822 2.734.582 1.046.853 2.088.853 3.23v16.8c0 1.707-.576 3.17-1.76 4.473a5.537 5.537 0 0 1-2.065 1.425 5.56 5.56 0 0 0 2.294-1.48c1.206-1.206 1.831-2.76 1.831-4.517v-16.7c0-1.12-.3-2.209-.844-3.063-.328-.587-.974-1.528-1.401-2.152a27.158 27.158 0 0 1-.45-.666l-.111-.111L728.6 22.74v-9.903h-1.291l1.092.616v9.281zm-9.8 26.052v15.151c0 1.379.458 2.394 1.401 3.101 1.046.785 2.256 1.2 3.499 1.2H742c1.55 0 2.682-.416 3.46-1.273.857-.942 1.24-1.907 1.24-3.127v-16.8c0-.794-.188-1.519-.574-2.215-.407-.649-1.469-2.208-1.705-2.553L726.4 23.54v-8.918l-6.708-3.784H739.3v7.296l7.5 3.947V5.837h-23.2c-1.357 0-2.555.448-3.66 1.368-.84.765-1.34 1.808-1.34 2.832l-.01 13.94c-.062.431.062.91.378 1.464l.051.101c.182.422.788 1.339 1.156 1.859L739 47.34v15.797h-12.8V52.744l-7.6-3.958zm9.6 12.351h.2v-9.606l-.579-.315L716.8 45.48v.113l11.4 5.938v9.606zm20.6-35.749.101.056V3.938h-.101v21.45zM723.591 3.837c-1.479.001-2.77.36-3.854 1.069a7.4 7.4 0 0 1 3.854-1.069zm-381.889 68.3H325.9v-59.46l-5.543-10.839h21.242l.103 70.299zm-2.102-2h.099l-.097-66.3h-15.958H339.6v66.3zm-9.8-1.899h7.8v-62.4h-10.782l2.981 5.964v56.436zM97.202 72.137H81.4v-59.46l-5.543-10.84h21.242l.103 70.3zm-2.102-2h.099l-.097-66.3H79.143 95.1v66.3zm-9.8-1.899h7.8v-62.4H82.318l2.981 5.964v56.436zm496.3-5h-13.3v-24.5h8.27l5.03 2.925v21.575zm-11.3-2h9.3V42.813l-.858-.499.759.461v18.463H570.3zm2-2h5.2V43.9l-2.08-1.263h-3.12v16.601zm-35.4 4h-5.8V14.622l-6.707-3.784H536.9c2.221 0 3.965.633 5.043 1.831 1.17 1.168 1.757 2.708 1.757 4.669v39.4c0 2.108-.626 3.741-1.812 4.729-1.082 1.158-2.804 1.771-4.988 1.771zm-3.8-2h3.801c1.638 0 2.868-.404 3.557-1.169l.118-.111c.93-.745 1.125-2.162 1.125-3.22v-39.4c0-1.423-.384-2.469-1.207-3.293-.725-.803-1.955-1.207-3.593-1.207 1.647 0 2.882.436 3.568 1.26.741.736 1.131 1.785 1.131 3.14v39.5c0 1.794-.599 2.694-1.124 3.139l-.172.172c-.623.754-1.857 1.189-3.504 1.189h-3.7zm1.902-2h1.798c1.467 0 1.926-.414 2.032-.541l.344-.341c.205-.164.424-.675.424-1.618v-39.5c0-1.063-.347-1.533-.606-1.793-.167-.194-.625-.607-2.093-.607h-1.803l-.096 44.4zm-2.994-46.401 1.092.616v.382l.002-.998h-1.094zM460.5 63.238h-13.7V14.636l-7.077-3.798H460.5v52.4zm-11.7-2h9.7v-48.4 48.3h-9.7v.1zm2-2.101h5.7v-44.3h-5.7v44.3zm-3.122-46.3 1.122.602v-.602h-1.122zM306.2 63.238h-5.8V14.622l-6.708-3.784H306.2c2.221 0 3.965.633 5.043 1.831 1.17 1.168 1.757 2.708 1.757 4.669v39.4c0 2.108-.626 3.741-1.812 4.729-1.082 1.158-2.804 1.771-4.988 1.771zm-3.8-2h3.8c1.639 0 2.868-.404 3.557-1.169l.118-.111c.93-.745 1.125-2.162 1.125-3.22v-39.4c0-1.423-.384-2.469-1.207-3.293-.725-.803-1.954-1.207-3.593-1.207 1.647 0 2.881.436 3.568 1.26.742.736 1.132 1.785 1.132 3.14v39.5c0 1.795-.6 2.695-1.125 3.14l-.169.169c-.625.756-1.859 1.191-3.505 1.191H302.4zm1.902-2h1.798c1.467 0 1.926-.414 2.032-.541l.344-.341c.205-.164.424-.675.424-1.618v-39.5c0-1.063-.346-1.532-.607-1.793-.167-.194-.625-.607-2.093-.607h-1.802l-.096 44.4zm-2.994-46.401 1.092.616v.381l.002-.998h-1.094zM163.6 63.238h-13.7V14.636l-7.079-3.798H163.6v52.4zm-11.7-2h9.7v-48.4 48.3h-9.7v.1zm2-2.101h5.7v-44.3h-5.7v44.3zm-3.122-46.3 1.122.602v-.602h-1.122zM62.204 32.342l-8.604-.118V14.629l-6.893-3.792H66.4v18.627l-4.196 2.878zM55.6 30.251l4.57.062-4.57-.097v.035zm8.8-17.414v15.515l-2.057 1.469L64.4 28.41V12.837zm-6.8 15.421 3.389.072 1.411-1.008V14.837h-4.8v13.421zm-3.107-15.421 1.107.609v-.609h-1.107zm566.007 19.4h-12.2v-1h-1.1v-14c0-1.961.587-3.5 1.793-4.707 1.057-1.177 2.72-1.793 4.907-1.793h6.6v21.5zm-2-2v-17.5h-4.6c-1.596 0-2.759.393-3.457 1.168-.859.862-1.243 1.909-1.243 3.332v13h1.1-1v-13c0-1.411.411-2.518 1.191-3.209.703-.79 1.849-1.19 3.409-1.19h4.6v17.399zm-7.2-2c1.848.001 3.393.01 5.2.065V14.837h-2.6c-.97 0-1.638.187-1.932.54l-.129.128c-.343.286-.54.917-.54 1.731v11.001zm-34.391 4H568.3V14.629l-6.893-3.792H581.1v18.527l-4.191 2.873zm-6.609-2h.988-.988zm2-1.979 3.39.072 1.41-1.008V14.837h-4.8v13.421zm6.8-15.421V28.31 12.837zm-9.908 0 1.107.609v-.609h-1.107zM369.1 32.237h-12.2v-1h-1.1v-14c0-1.961.586-3.5 1.793-4.707 1.058-1.177 2.721-1.793 4.907-1.793h6.6v21.5zm-2-2v-17.5h-4.6c-1.595 0-2.758.394-3.457 1.169-.859.862-1.243 1.908-1.243 3.331v13h1.1-1v-13c0-1.41.411-2.517 1.191-3.209.703-.79 1.849-1.191 3.409-1.191h4.6v17.4zm-7.2-2c1.797.001 3.384.01 5.2.065V14.837h-2.6c-.97 0-1.638.187-1.932.54l-.127.128c-.344.286-.541.917-.541 1.732v11zm-112 4h-13.192l-.108-14.992c0-1.968.586-3.508 1.793-4.714 1.057-1.177 2.72-1.793 4.907-1.793h6.6v21.499zm-2-2v-17.5h-4.6c-1.596 0-2.758.393-3.457 1.169-.859.862-1.243 1.908-1.243 3.331l.093 13h1.007-1v-13c0-1.411.412-2.518 1.191-3.209.702-.79 1.848-1.19 3.408-1.19h4.6v17.399zm-7.2-2c1.797.001 3.384.01 5.2.065V14.837h-2.6c-.969 0-1.637.187-1.932.54l-.128.128c-.343.286-.54.917-.54 1.732v11zm-213.7 4H12.8v-1h-1.1v-14c0-1.961.586-3.5 1.793-4.707 1.057-1.177 2.72-1.793 4.907-1.793H25v21.5zm-2-2v-17.5h-4.6c-1.596 0-2.758.393-3.457 1.169-.859.862-1.243 1.908-1.243 3.331v13h1.1-1v-13c0-1.41.412-2.518 1.192-3.209.702-.79 1.848-1.19 3.408-1.19H23v17.399zm-7.2-2c1.797.001 3.384.01 5.2.065V14.837h-2.6c-.969 0-1.637.187-1.932.54l-.128.128c-.344.287-.541.917-.541 1.732v11z" style="fill:#3fc2cd"/>
    <path d="m521.5 12.137-4.1-8.2h22.5c.2 0 2.9.2 4.2.5.8.2 1.6.5 2.4.9 1.1.5 2.1 1.3 3 2.2.6.6 1.1 1.2 1.6 1.9.7 1.1 1.2 2.3 1.5 3.5.3 1.3.5 2.6.5 4.1v40c0 3.9-1.2 7.1-3.6 9.5-2.4 2.4-5.6 3.6-9.6 3.6h-.1l-7.8-1-10.6 1.2.1-58.2zm11.6 1.3v47.8h3.8c1.6 0 2.8-.4 3.6-1.2.8-.6 1.1-1.7 1.1-3.2v-39.5c0-1.4-.4-2.5-1.2-3.2-.8-.8-2-1.2-3.6-1.2v-1.1 1h-4.9l1.2.6zm-242.3-1.3-4.1-8.2h22.5c.2 0 2.9.2 4.2.5.8.2 1.6.5 2.4.9.4.2.7.4 1.1.6.7.4 1.3 1 1.9 1.5.6.6 1.1 1.2 1.6 1.9.7 1.1 1.2 2.3 1.5 3.5.3 1.3.5 2.6.5 4.1v40c0 3.9-1.2 7.1-3.6 9.5s-5.6 3.6-9.6 3.6h-.1l-7.8-1-10.6 1.2.1-58.1zm11.6 1.3v47.8h3.8c1.6 0 2.8-.4 3.6-1.2.8-.6 1.1-1.7 1.1-3.2v-39.5c0-1.4-.4-2.5-1.2-3.2-.8-.8-2-1.2-3.6-1.2v-1.1 1h-4.9l1.2.6zm256.2-1.3-4.2-8.3h29c2.2 0 4 .6 5.3 1.6 1.4 1.1 2.2 2.7 2.2 4.7v18c0 .9-.1 1.8-.3 2.6-.2 1-.8 1.8-1.8 2.4l-3.9 2.3 2.9 1.6c2.4 1.2 3.6 3.1 3.6 5.5v21.2c0 2-.7 3.6-2.2 4.8-1.4 1.1-3.3 1.7-5.7 1.7l-14.1-1.1-10.9 1.2.1-58.2zm21 49.1v-18.5l-3.6-2.1h-5.7v20.5l9.3.1zm-3.3-31 2.8-1.9v-15.5h-9.9l1.1.6v16.8h6zm101.8-18.1-4.2-8.3h16v26.4h6l2.8-2v-24.4h11.7v24.3c0 .2-.1 1.8-.3 2.6-.2 1-.8 1.8-1.8 2.4l-3.9 2.3 2.9 1.6c2.2 1.2 3.4 2.9 3.6 5.1v28.1h-11.7v-27.5l-3.5-2.1h-6.8l1.1.6v28.9h-11.8l-.1-58zm64 58.1h-18.5c-1.7 0-3.3-.5-4.7-1.6-1.5-1.1-2.2-2.7-2.2-4.7v-18.4l11.6 6.1v9.6h8.8v-13.1l-18.4-19.5v-.1c0-.1-1-1.5-1.4-2.1-.4-.8-.7-1.7-.7-2.6v-13.8c0-1.6.7-3.1 2-4.3s3-1.9 4.9-1.9h25.3v21.5l-11.5-6.1v-6.4h-9.9l1.1.6v9.3l17.6 18.3v.1c.1.1 1.3 1.9 1.8 2.8.6 1 .9 2.1.9 3.1v16.8c0 1.7-.6 3.2-1.8 4.5-1.2 1.3-2.9 1.9-4.9 1.9zm-123.5 0v-29.6h-10.4l1.1.6v29h-11.8v-43c0-2.4 0-4.9.1-7.4.1-2.2.5-4.2 1.1-6s1.6-3.5 2.9-5.1c1.3-1.6 3.1-3.1 5.5-4.7l.3-.2H630.6v66.4h-12zm-4.6-57.5c-1.6 0-2.7.4-3.5 1.2s-1.2 1.9-1.2 3.3v13h9.2v-17.5H614zm-246.8 57.5v-29.6h-10.4l1.1.6v29h-11.8v-43c0-2.4 0-4.9.1-7.4.1-2.2.5-4.2 1.1-6s1.6-3.5 2.9-5.1c1.3-1.5 3.1-3.1 5.5-4.7l.3-.2H379.2v66.4h-12zm-4.7-57.5c-1.6 0-2.7.4-3.5 1.2s-1.2 1.9-1.2 3.3v13h9.2v-17.5h-4.5zM246 70.237v-29.6h-10.4l1.1.6v29h-11.8v-43c0-2.4 0-4.9.1-7.4.1-2.2.5-4.2 1.1-6s1.6-3.5 2.9-5.1c1.3-1.6 3.1-3.1 5.5-4.7l.3-.2H258v66.4h-12zm-4.6-57.5c-1.6 0-2.7.4-3.5 1.2s-1.2 1.9-1.2 3.3v13h9.2v-17.5h-4.5zm-176.5 57.5v-27.4l-3.6-2.1h-5.7v29.5H43.9v-58.1l-4.2-8.3h28.9c2.2 0 3.9.6 5.3 1.7s2.2 2.7 2.2 4.7v18c0 .9-.1 1.8-.3 2.6-.2 1-.8 1.8-1.8 2.4l-3.9 2.3 2.9 1.6c2.4 1.2 3.6 3.1 3.6 5.5v27.7l-11.7-.1zm-3.3-39.9 2.8-1.9v-15.6h-9.8l1.1.6v16.8c-.1 0 5.9.1 5.9.1zm-38.5 39.9v-29.6H12.7l1.1.6v29H2v-43c0-2.4 0-4.9.1-7.4.1-2.2.5-4.2 1.1-6s1.6-3.5 2.9-5.1 3.1-3.1 5.5-4.7l.3-.2H35.1v66.4h-12zm-4.6-57.5c-1.6 0-2.7.4-3.5 1.2s-1.2 1.9-1.2 3.3v13H23v-17.5h-4.5zm461.5-.4-4.3-8.5h14.7l13.4 34v-34h11.7v66.4h-10.2l-13.6-34.7v34.7H480v-57.9zm-297 0-4.3-8.5h14.7l13.5 34v-34h11.7v66.4h-10.2l-13.6-34.7v34.7h-11.7v-57.9h-.1zm-99.7 57.9v-58l-4.2-8.4h16v66.4H83.3zm244.5 0v-58l-4.2-8.4h16v66.4h-11.8zm-226.6 0v-8.2l19.1-49.2h-8l-11.1 5.6v-14.6h32.5v8.1l-19.1 49.3h8l11.1-5.6v14.6h-32.5zm317.6 0v-29.6l-6.3 23.8h-6.6l-6.3-23.8v29.6H388v-58l-4.2-8.4h15.5l10 34 10-34h11.2v66.4h-11.7zm25.3 0c-2 0-3.8-.6-5.2-1.7-1.5-1.2-2.3-2.7-2.3-4.6v-53.8c0-1.8.8-3.4 2.2-4.6 1.4-1.2 3.1-1.7 5-1.7H470.5v60.1c0 1.9-.7 3.4-2.2 4.6-1.4 1.1-3.1 1.7-5 1.7h-19.2zm4.7-56.8v47.8h9.7v-48.4h-10.8l1.1.6zm-301.6 56.8c-2 0-3.8-.6-5.2-1.7-1.5-1.2-2.3-2.7-2.3-4.6v-53.8c0-1.8.8-3.4 2.2-4.6s3.1-1.7 5-1.7H173.6v60.1c0 1.9-.7 3.4-2.2 4.6-1.4 1.1-3.1 1.7-5 1.7h-19.2zm4.7-56.8v47.8h9.7v-48.4h-10.8l1.1.6zm492 56.8c-2 0-3.7-.6-5.1-1.7-1.5-1.2-2.2-2.7-2.2-4.6v-53.8c0-1.8.7-3.4 2.2-4.6 1.4-1.2 3-1.7 4.9-1.7h26v21.6l-11.8-6v-6.6h-10.5l1.1.6v47.8h9.4v-9.7l11.8-6v18.4c0 1.9-.7 3.4-2.1 4.6-1.4 1.1-3 1.7-4.9 1.7h-18.8z"/>
    <path d="m520.649 71.177.101-58.864-4.5-9v67.674h-11.462L492.45 39.506v31.481h-13.2V12.516l-4.77-9.429h16.431l12.139 30.801V3.087h13.2v.1h23.65c.264 0 3.03.21 4.368.519.86.215 1.72.537 2.566.96 1.046.475 2.099 1.245 3.195 2.341a15.405 15.405 0 0 1 1.68 1.994 12.625 12.625 0 0 1 1.617 3.754c.362 1.564.522 2.881.522 4.282v40c0 4.121-1.285 7.496-3.819 10.03-2.535 2.534-5.943 3.819-10.13 3.819h-.099l-7.806-.995-11.345 1.286zm-2.035-66.489 3.636 7.273v.178l-.099 57.359 9.854-1.116 7.89 1.012.005-.006c3.774 0 6.825-1.137 9.069-3.38 2.242-2.243 3.38-5.261 3.38-8.97v-40c0-1.282-.148-2.495-.48-3.931a11.237 11.237 0 0 0-1.402-3.266 13.73 13.73 0 0 0-1.497-1.772c-.967-.967-1.876-1.637-2.78-2.048a11.1 11.1 0 0 0-2.271-.855c-1.157-.267-3.734-.472-4.023-.478h-21.282zm-12.802 64.8h8.938v-64.9h-10.2v37.198L489.89 4.587h-12.97l3.83 7.571v57.329h10.2V31.568l14.862 37.92zm51.937 1.686.101-58.859-4.669-9.228h30.22c2.273 0 4.265.607 5.757 1.756 1.633 1.283 2.493 3.112 2.493 5.294v18c0 .975-.111 1.938-.323 2.782-.233 1.176-.957 2.15-2.142 2.861l-2.772 1.636 1.749.965c2.6 1.299 3.988 3.433 3.988 6.157v21.2c0 2.256-.835 4.067-2.481 5.386-1.578 1.238-3.651 1.864-6.169 1.864l-14.088-1.098-11.664 1.284zM555.62 4.587l3.729 7.372v.18l-.098 57.361 10.138-1.116.07.005 14.1 1.101c2.115-.002 3.877-.521 5.179-1.542 1.285-1.029 1.913-2.407 1.913-4.21v-21.2c0-2.147-1.072-3.772-3.186-4.829l-4.077-2.25 5.031-2.968c.813-.488 1.288-1.11 1.445-1.9.189-.763.286-1.599.286-2.454v-18c0-1.705-.662-3.126-1.914-4.11-1.222-.94-2.896-1.44-4.836-1.44h-27.78zM77.35 71.094l-13.2-.113V43.268l-3.053-1.78H56.35v29.5h-13.2V12.316l-4.67-9.229H68.6c2.285 0 4.17.608 5.763 1.86 1.627 1.278 2.487 3.107 2.487 5.29v18c0 .977-.112 1.938-.323 2.782-.234 1.176-.957 2.15-2.142 2.861l-2.772 1.635 1.749.965c2.6 1.299 3.988 3.433 3.988 6.157v28.457zm-11.7-1.6 10.2.087V42.637c0-2.147-1.072-3.772-3.186-4.829l-4.078-2.249 5.032-2.968c.813-.488 1.288-1.111 1.445-1.901.189-.761.286-1.598.286-2.453v-18c0-1.706-.662-3.126-1.914-4.11-1.319-1.036-2.9-1.54-4.836-1.54H40.92l3.729 7.371v57.529h10.2v-29.5h6.652l4.147 2.419v27.088zm224.299 1.584.101-58.764-4.562-9.126H309.2c.274 0 3.001.204 4.369.519.861.215 1.72.537 2.566.96.214.107.401.213.588.32.163.093.326.187.512.28.622.354 1.117.788 1.595 1.207.151.132.3.264.45.388a15.431 15.431 0 0 1 1.73 2.04 12.625 12.625 0 0 1 1.617 3.754c.362 1.567.522 2.884.522 4.282v40c0 4.122-1.285 7.497-3.82 10.03-2.534 2.535-5.942 3.82-10.13 3.82h-.1l-7.806-.994-11.344 1.284zm-2.035-66.39 3.637 7.273v.178l-.098 57.259 9.854-1.116 7.89 1.012.005-.006c3.775 0 6.826-1.138 9.069-3.381 2.243-2.242 3.38-5.26 3.38-8.97v-40c0-1.28-.148-2.492-.48-3.931a11.237 11.237 0 0 0-1.402-3.266 13.632 13.632 0 0 0-1.498-1.772 13.463 13.463 0 0 1-.428-.367c-.422-.37-.859-.752-1.313-1.012-.176-.087-.362-.193-.548-.299a10.963 10.963 0 0 0-2.761-1.124c-1.158-.267-3.735-.472-4.024-.478h-21.283zm454.186 66.3h-18.5c-1.94 0-3.677-.593-5.163-1.761-1.643-1.204-2.486-2.989-2.486-5.29V44.295l13.1 6.889v9.304h7.3V48.435l-18.399-19.5v-.211c-.156-.247-.525-.78-.761-1.121-.197-.286-.386-.558-.514-.75-.563-1.115-.826-2.103-.826-3.017v-13.8c0-1.82.775-3.498 2.241-4.851a7.946 7.946 0 0 1 5.409-2.099h26.05v23.497l-13-6.896v-6.101h-7.3v8.848l17.6 18.301v.157c.441.624 1.35 2.04 1.705 2.68.638 1.06.995 2.298.995 3.465v16.8c0 1.887-.673 3.572-1.999 5.009-1.294 1.402-3.18 2.142-5.452 2.142zM717.45 46.78v17.157c0 1.821.619 3.161 1.894 4.096 1.235.971 2.66 1.455 4.256 1.455h18.5c1.869 0 3.333-.559 4.35-1.659 1.077-1.167 1.601-2.472 1.601-3.991v-16.8c0-.898-.281-1.862-.793-2.715-.474-.851-1.571-2.503-1.726-2.697l-.22-.22.013-.093L727.75 23.04v-9.157l-3.293-1.795h13.593v6.699l10 5.304V4.587H723.5c-1.667 0-3.186.588-4.392 1.701-1.15 1.062-1.759 2.358-1.759 3.749v13.8c0 .679.209 1.441.621 2.265.077.105.261.37.453.648.707 1.023.928 1.348.996 1.557l18.43 19.532v14.148h-10.3V52.09l-10.099-5.31zm-5.8 24.208h-13.2V43.163l-2.958-1.775h-4.742v29.5h-13.299l-.102-58.57-4.669-9.229h17.97v26.4h5.01l2.29-1.636V3.087h13.2v25.05c0 .204-.098 1.879-.323 2.782-.233 1.176-.957 2.15-2.142 2.861l-2.772 1.636 1.749.965c2.42 1.32 3.762 3.235 3.985 5.688l.003 28.919zm-11.7-1.5h10.2V42.137c-.175-1.884-1.226-3.358-3.21-4.441l-4.053-2.237 5.031-2.968c.813-.488 1.288-1.11 1.445-1.9.182-.729.285-2.245.286-2.454V4.587h-10.2v24.036l-3.31 2.364h-6.99v-26.4h-14.03l3.729 7.37v.178l.1 57.251h10.301V41.683l-3.287-1.796h9.945l4.042 2.426v27.175zm-37.25 1.5h-18.8c-2.12 0-3.992-.626-5.563-1.86-1.676-1.341-2.487-3.037-2.487-5.19v-53.8c0-2.094.858-3.887 2.481-5.186 1.457-1.249 3.22-1.864 5.369-1.864h26.75V26.66l-13.3-6.763v-6.31h-7.9v46.9h7.9v-9.41l13.3-6.763v19.622c0 2.116-.772 3.808-2.362 5.17-1.618 1.273-3.372 1.882-5.388 1.882zm-19-66.401c-1.801 0-3.202.483-4.412 1.52-1.293 1.035-1.938 2.385-1.938 4.03v53.8c0 1.691.609 2.968 1.919 4.015 1.296 1.018 2.856 1.536 4.632 1.536h18.8c1.666 0 3.117-.504 4.436-1.54 1.23-1.055 1.814-2.336 1.814-4.011V46.76l-10.3 5.237v9.99h-10.9V13.883l-3.289-1.795h14.189v6.89l10.3 5.237V4.587H643.7zm-12.35 66.401h-13.5V41.387h-7.8v29.601h-13.3v-43.75c0-2.417 0-4.915.101-7.43.098-2.151.48-4.238 1.139-6.208.602-1.808 1.621-3.603 3.028-5.336 1.3-1.599 3.101-3.14 5.666-4.851l.49-.326h24.176v67.901zm-12-1.5h10.5v-64.9h-22.223l-.111.075c-2.438 1.625-4.132 3.07-5.334 4.548-1.293 1.591-2.225 3.228-2.77 4.864a21.342 21.342 0 0 0-1.063 5.797c-.099 2.481-.099 4.964-.099 7.366v42.25h10.3V41.683l-3.287-1.796h14.087v29.601zm-156.05 1.5h-19.2c-2.155 0-4.113-.644-5.663-1.86-1.718-1.375-2.587-3.12-2.587-5.19v-53.8c0-1.972.874-3.808 2.462-5.169 1.456-1.248 3.303-1.881 5.488-1.881h27.45v60.85c0 2.153-.812 3.85-2.481 5.187-1.555 1.219-3.444 1.863-5.469 1.863zM443.8 4.587c-1.843 0-3.318.497-4.512 1.52-1.269 1.087-1.938 2.481-1.938 4.03v53.8c0 1.614.66 2.928 2.02 4.015 1.276 1.004 2.914 1.536 4.73 1.536h19.2c1.71 0 3.236-.519 4.536-1.54 1.305-1.043 1.914-2.319 1.914-4.011V4.587H443.8zm-12.55 66.401h-13.2V46.402l-4.973 18.785h-7.754l-4.974-18.786v24.587h-13.1V12.415l-4.664-9.327h17.275l9.44 32.092 9.438-32.092h12.512v67.9zm-11.7-1.5h10.2v-64.9h-9.889L409.3 40.496 398.738 4.587h-13.725l3.736 7.473v57.428h10.1V34.874l7.628 28.813h5.445l7.627-28.814v34.615zm-39.6 1.5h-13.5V41.387h-7.8v29.601h-13.3v-43.75c0-2.417 0-4.915.101-7.43.097-2.146.48-4.233 1.138-6.208.603-1.809 1.623-3.604 3.03-5.336 1.467-1.693 3.368-3.319 5.666-4.851l.488-.326h24.178v67.901zm-12-1.5h10.5v-64.9h-22.223l-.111.074c-2.187 1.457-3.986 2.994-5.35 4.567-1.278 1.573-2.21 3.209-2.756 4.846a21.397 21.397 0 0 0-1.062 5.796c-.099 2.481-.099 4.965-.099 7.366v42.25h10.3V41.683l-3.289-1.796h14.089v29.601zm-27.6 1.5h-13.3V12.414l-4.663-9.327h17.963v67.901zm-11.8-1.5h10.3v-64.9h-14.037l3.736 7.473v57.427zm-69.8 1.5h-13.5V41.387h-7.8v29.601h-13.3v-43.75c0-2.417 0-4.915.101-7.43a22.9 22.9 0 0 1 1.138-6.208c.603-1.808 1.622-3.604 3.029-5.336 1.298-1.598 3.099-3.139 5.666-4.851l.488-.326h24.178v67.901zm-12-1.5h10.5v-64.9h-22.223l-.111.074c-2.439 1.626-4.134 3.071-5.334 4.549-1.293 1.592-2.225 3.229-2.771 4.865a21.37 21.37 0 0 0-1.062 5.797c-.099 2.481-.099 4.964-.099 7.366v42.25h10.3V41.683l-3.289-1.796h14.089v29.601zm-27.4 1.5h-11.462L195.55 39.506v31.481h-13.2l-.02-58.312-4.85-9.588h16.429l12.241 30.829V3.087h13.2v67.901zm-10.438-1.5h8.938v-64.9h-10.2v37.171L192.891 4.587H179.92l3.541 7h.389v57.9h10.2V31.569l14.862 37.919zm-42.512 1.5h-19.2c-2.156 0-4.114-.644-5.664-1.86-1.718-1.375-2.586-3.119-2.586-5.19v-53.8c0-1.973.874-3.809 2.462-5.169 1.455-1.248 3.302-1.881 5.488-1.881h27.45v60.85c0 2.153-.812 3.85-2.481 5.187-1.556 1.219-3.444 1.863-5.469 1.863zM146.9 4.587c-1.843 0-3.319.497-4.512 1.52-1.268 1.086-1.938 2.48-1.938 4.03v53.8c0 1.615.66 2.929 2.019 4.015 1.277 1.004 2.915 1.536 4.731 1.536h19.2c1.709 0 3.236-.519 4.537-1.54 1.304-1.043 1.914-2.319 1.914-4.011V4.587H146.9zm-12.45 66.401h-34v-9.091l18.754-48.31h-6.726l-12.028 6.068V3.087h34v8.99l-18.755 48.41h6.727l12.028-6.069v16.57zm-32.5-1.5h31V56.856l-10.171 5.132h-9.273l19.445-50.19v-7.21h-31V17.22l10.171-5.132h9.274l-19.446 50.09v7.31zm-6.1 1.5h-13.3V12.414l-4.663-9.327H95.85v67.901zm-11.8-1.5h10.3v-64.9H80.313l3.736 7.473v57.427zm-48.2 1.5h-13.5V41.387h-7.8v29.601H1.25v-43.75c0-2.417 0-4.915.101-7.43A22.9 22.9 0 0 1 2.489 13.6c.603-1.808 1.622-3.604 3.029-5.336 1.298-1.598 3.099-3.139 5.666-4.851l.488-.326H35.85v67.901zm-12-1.5h10.5v-64.9H12.127l-.111.074C9.578 6.287 7.883 7.732 6.682 9.21c-1.293 1.592-2.225 3.228-2.771 4.865a21.37 21.37 0 0 0-1.062 5.797c-.099 2.481-.099 4.964-.099 7.365v42.25h10.3V41.683l-3.288-1.796H23.85v29.601zm556.5-7.492-10.8-.116V39.887h6.653l4.146 2.42v19.689zm-9.3-1.601 7.8.085V43.168l-3.053-1.781h-4.747v19.008zm-34.15 1.593h-4.551V13.901l-3.624-1.813h7.324v-.25h1.5v.38c1.438.117 2.573.583 3.381 1.389.916.8 1.419 2.102 1.419 3.731v39.5c0 1.167-.142 2.819-1.356 3.768-.941.917-2.318 1.382-4.093 1.382zm-3.05-1.5h3.051c1.386 0 2.419-.33 3.069-.98l.08-.069c.538-.404.8-1.255.8-2.601v-39.5c0-1.201-.317-2.088-.943-2.636-.688-.685-1.721-1.014-3.106-1.014h-.75v-.1h-2.2v46.9zm-74.6 1.5h-11.2V13.883l-3.289-1.795h14.489v49.9zm-9.7-1.5h8.2v-46.9h-8.2v46.9zm-143.35 1.5h-4.55V13.901l-3.625-1.813h7.326v-.25h1.5v.38c1.438.117 2.573.583 3.38 1.39.916.8 1.419 2.102 1.419 3.73v39.5c0 1.167-.142 2.82-1.357 3.768-.942.917-2.318 1.382-4.093 1.382zm-3.05-1.5h3.05c1.386 0 2.418-.33 3.069-.98l.08-.069c.539-.404.8-1.255.8-2.601v-39.5c0-1.201-.317-2.088-.944-2.636-.687-.685-1.72-1.014-3.106-1.014h-.75v-.1h-2.2v46.9zm-140.8 1.5h-11.2V13.883l-3.291-1.795h14.491v49.9zm-9.7-1.5h8.2v-46.9h-8.2v46.9zM61.825 31.091l-3.188-.053c-3.694-.062-3.694-.062-3.688-.807l.001-16.348-3.291-1.795H65.15v16.748l-3.325 2.255zM56.45 29.5l4.925.083 2.274-1.543V13.587h-7.2V29.5zm562.8 1.487h-10.7v-13.75c0-1.599.478-2.888 1.42-3.83.955-.956 2.273-1.42 4.03-1.42h5.252l-.002 19zm-9.2-1.5h7.7v-16H614c-1.357 0-2.301.312-2.97.98-.66.66-.98 1.566-.98 2.77v12.25zm-33.52 1.5h-6.98V13.883l-3.289-1.795h13.589v16.647l-3.32 2.252zm-5.48-1.5h5.02l2.28-1.547V13.587h-7.3v15.9zm-203.3 1.5h-10.7v-13.75c0-1.599.478-2.888 1.42-3.83.955-.956 2.273-1.42 4.03-1.42h5.25v19zm-9.2-1.5h7.7v-16h-3.75c-1.357 0-2.301.312-2.97.98-.66.66-.98 1.566-.98 2.77v12.25zm-111.9 1.5h-10.7v-13.75c0-1.6.478-2.888 1.419-3.83.969-.969 2.249-1.42 4.03-1.42h5.25v19zm-9.2-1.5h7.7v-16h-3.75c-1.357 0-2.301.312-2.97.98-.659.66-.98 1.565-.98 2.77v12.25zm-213.7 1.5h-10.7v-13.75c0-1.599.478-2.888 1.42-3.83.955-.956 2.273-1.42 4.03-1.42h5.25v19zm-9.2-1.5h7.7v-16H18.5c-1.357 0-2.301.312-2.97.98-.66.66-.98 1.566-.98 2.77v12.25z"/>
</svg>