<?xml version="1.0" encoding="UTF-8"?>
<svg id="Layer_1" xmlns="http://www.w3.org/2000/svg" version="1.1" viewBox="0 0 1009.2 91.2">
  <!-- Generator: Adobe Illustrator 30.1.0, SVG Export Plug-In . SVG Version: 2.1.1 Build 136)  -->
  <defs>
    <style>
      .st0 {
        fill: #fff;
      }
    </style>
  </defs>
  <path class="st0" d="M56.8,45.6l-16.8,44.5h-6.6L12.6,36.9C7.9,24.9,4.4,21.2,0,19.9v-1.1h36.2v1.1c-5.7,1.3-5.7,5.1-1.8,15.3l11.9,31.2,9.1-24.2-2-5.2c-5.3-13.4-7.6-15.5-11.4-17v-1.1h33.9v1.1c-5.1,1.2-4.6,4.8-1.8,12.2l12.8,33.8,6.3-18.2c6.1-17.7,2.7-26.6-5.8-27.8v-1.1h27.1v1.1c-6,.4-10.5,5.1-17.6,25.1l-15.9,45.1h-6.6l-17.5-44.5Z"/>
  <path class="st0" d="M169.6,88.9h-61.8v-1.1c3.9-.4,7.6-2.1,7.6-10.7V31.4c0-8.5-3.7-11.1-7.6-11.5v-1.1h58.8l2.7,19.4h-1.8c-5.7-8.6-17.1-17.1-28.2-17.1h-2.7v29.4h3.1c7.6,0,15.2-7.4,16.8-13.2h1.4v29.4h-1.4c-1.9-6.7-9.8-13.7-16.8-13.7h-3.1v33.8h5.4c10.3,0,21.9-7.7,28-20.4h1.8l-2.2,22.7Z"/>
  <path class="st0" d="M191.5,88.9h-15.2l.2-.6c3.6-.7,7.3-4.1,13.3-13.4l18.8-29.7h3.2l3.3,33.9c.6,5.8,1.9,8.4,4.8,9.3l-.2.6h-20.2l.2-.6c3.7-.6,5-3.2,4.6-8l-.4-5h-12.6c-5.1,8.5-4.2,12.2.4,12.9l-.2.6ZM192.1,74h11.6l-1.4-16.4-10.3,16.4Z"/>
  <path class="st0" d="M237.1,88.9h-20.1l.2-.6c2.5-.2,5.1-1.6,6.3-6.5l7-29.2c1.2-4.9-.9-6.2-3.2-6.4l.2-.6h20.7c9.5,0,14.4,4.8,14.4,11s-4.6,10.8-11.7,13l4.3,11.5c1.9,5,3.9,6.6,6.2,7.3l-.2.6h-14.4l-6.6-18h-3.2l-2.6,10.8c-1.2,4.9.7,6.3,2.9,6.5l-.2.6ZM237.3,69.5h2.4c8.5,0,12-7.4,12-14.4s-2.4-8.3-6.6-8.3h-2.4l-5.5,22.7Z"/>
  <path class="st0" d="M295.9,88.9h-36.5l.2-.6c2.5-.2,5-1.3,6.2-6.2l7.1-29.4c1.2-4.9-.9-6.3-3.2-6.6l.2-.6h33.9l-.9,11.5h-.9c-2.7-6.7-7.9-10.2-13.6-10.2h-3.3l-4.4,18.5h2.8c4.9,0,10-3.3,11.9-7.9h.8l-3.9,17.3h-.9c.3-4.5-3.3-8.1-8.2-8.1h-2.8l-5,20.9h3.8c5.8,0,15.1-4.3,19.8-12.3h1.1l-4.2,13.6Z"/>
  <path class="st0" d="M305,88.9v-1.3c5-.5,9.9-3,9.9-13.2V14.5c0-10.2-5-12.7-9.9-13.2V0h43.3c22.2,0,33.1,7.9,33.1,19.9s-6.6,16.6-20.2,19.6c16.9,2.9,24.9,12.8,24.9,24s-13.1,25.4-37.6,25.4h-43.6ZM338.4,39.5h3c10.7,0,16.3-6.9,16.3-18.2s-5.1-18.7-16-18.7h-3.3v36.8ZM342.5,86.2c13,0,19.4-7,19.4-22.2s-7.2-21.6-19.9-21.6h-3.6v43.8h4.1Z"/>
  <path class="st0" d="M422.9,88.9h-35.8v-1.1c3.7-.4,7.4-2.5,7.4-9v-32.1c0-7.4-4.3-9.1-8.4-8.9v-1.3l28.2-7.9,1,.4v14.3c3.9-11,11.8-16.3,18-16.3s9.3,4.2,9.3,9.1-3.8,9.4-9.1,9.4-7.5-5.2-11.8-5.2-4.8,3-6.1,8.1v30.2c0,6.5,3.7,8.6,7.4,9v1.1Z"/>
  <path class="st0" d="M476.2,82.5c-5.3,5.5-12.4,8.6-18.9,8.6s-15-4.8-15-13.8,6.9-16.9,32.9-23.9v-11.2c0-8.9-1.8-11.8-5.3-11.8-5.8,0-4.1,6.1-6.5,12.6-1.9,5.3-5.8,7.4-9.5,7.4s-8.3-3.3-8.3-8.3c0-7.6,8.1-13.7,24.8-13.7s26,8,26,20.2v29.1c0,3.2,1.3,5.1,3.7,5.1s3.4-.9,5-3l1.3.9c-3.8,6.5-10.2,10.3-17.8,10.3s-10.5-2.7-12.3-8.4M475.5,80c-.3-1.4-.4-2.9-.4-4.6v-19.8c-11.2,4.3-13.5,11.3-13.5,16.9s3.6,9.8,7.7,9.8,4.1-.6,6.1-2.3"/>
  <path class="st0" d="M527.3,89.8l-20.6-45c-3.7-8-7.1-11.6-10.3-13v-1.1h36.9v1.1c-4.8.4-7.1,5-3.8,12.7l9.9,22.6,5.3-11.6c6.2-13.3,4.2-23.1-3.9-23.7v-1.1h24.5v1.1c-4.8,1.1-8.8,5.5-16,21l-17.1,37h-5Z"/>
  <path class="st0" d="M588.6,91.2c-16.1,0-29.2-12.8-29.2-30.2s14.2-32.5,30.5-32.5,25.3,10.4,26,26.7h-36.3c.8,15.1,8.3,23.1,18.4,23.1s12.7-3.4,16.1-9.7l1.4.4c-3.6,13.7-13.7,22.2-26.9,22.2M579.6,52.4h17.3c.3-15.6-2.5-21.7-7.1-21.7s-10.2,8.3-10.2,21.7"/>
  <path class="st0" d="M653.5,81.3c0-5.2-5.5-8.3-11.9-11.4-9-4.6-19.8-9.5-19.8-21.8s9-19.6,25.1-19.6,14.3,1.8,20.1,4.7l-4.3,15.9h-1.4c-3-11.2-9.8-17.9-17-17.9s-8.5,2.8-8.5,7,6.1,8.6,13,12.1c9.3,4.4,20.1,9.5,20.1,21.6s-9.6,19.4-26.2,19.4-17.7-2-22.6-4.3l5.1-18h1.5c2,12.2,9.3,20.1,17.6,20.1s9.3-3.3,9.3-7.6"/>
  <path class="st0" d="M720.7,56.8c-.5-8-5.4-14.8-11.5-14.8s-15.8,9-15.8,23.7,6.2,16.8,13.5,16.8,10.7-3,13.2-7.7l1.3.5c-3.9,9.7-12.2,15-21.9,15s-20.3-9-20.3-21.2,15.5-29.1,32.8-29.1,11.9,1.4,14.8,3l-4.7,14h-1.4Z"/>
  <path class="st0" d="M723.3,68.7c0-13.9,12.1-28.8,29.9-28.8s21.9,9.1,21.9,22.1-14.6,28.4-29.9,28.4-22-9.6-22-21.6M760.4,56.4c0-11.3-4-14.8-7.5-14.8-7.9,0-14.9,17.2-14.9,32.3s3.7,14.7,7.4,14.7c8.3,0,14.9-17.7,14.9-32.2"/>
  <path class="st0" d="M814,71.8c-3.4,12.8-9.4,18.5-19.8,18.5-15,0-19.2-9.2-16.4-20.9l4.8-19.8c1.4-5.9-1.1-7.1-3.7-7.4l.2-.7h24.6l-.2.7c-2.7.3-5.8,1.6-7.2,7.4l-5.6,23.5c-2.2,9.2,1.3,13.4,7.4,13.4s11.3-4.1,14.3-16.1l2.6-10.5c2.7-10.9,1.4-17.4-4-17.7l.2-.7h16.7l-.2.7c-5,.3-7.7,6.7-10.2,16.1l-3.6,13.6Z"/>
  <path class="st0" d="M857.1,89.8l-21.6-38.9-4.8,20.2c-2.6,10.7-.3,16.8,5.1,17l-.2.7h-19l.2-.7c4.3-.2,8.5-4.2,11.9-17.4l4.1-16.4c1.5-6.1.3-12.1-5.6-12.3l.2-.7h19.9l15.8,27.6,2.6-11c2.2-9.6,1.4-14.9-4.7-15.8l.2-.7h17.8l-.2.7c-5,.3-8.8,6.4-11.1,15.9l-7.8,31.7h-2.6Z"/>
  <path class="st0" d="M921.7,41.4l-1.6,15.2h-.8l-1.4-3.8c-2.6-7.5-4.7-9.9-8.1-9.9h-1.4l-9.2,38.1c-1.4,5.8,1,6.9,3.7,7.1l-.2.7h-24.8l.2-.7c2.9-.3,5.8-1.4,7.2-7.1l9.3-38.1h-1.4c-4.3,0-8.5,2.6-14.2,10.8l-2,2.9h-1l4.7-15.2h41Z"/>
  <path class="st0" d="M935.7,88.9h-23.3l.2-.7c2.7-.3,5.4-1.8,6.8-7.5l7.6-31c1.4-5.7-1-7.3-3.4-7.5l.2-.7h24c10.6,0,16.1,5.7,16.1,12.2s-4.9,11.4-12.2,14l4.4,12.1c1.8,5.1,4.1,7.3,6.6,8.3l-.2.7h-17.4l-6.9-19.4h-2.4l-2.7,11.2c-1.4,5.7.7,7.2,2.8,7.5l-.2.7ZM936.3,67.7h2c9,0,12.2-9.3,12.2-16s-2.3-8.8-6.1-8.8h-2.2l-6,24.8Z"/>
  <path class="st0" d="M962.2,88.9l.2-.7c2.8-.3,5.5-1.6,6.9-7.4l2.9-12.1-5.3-19.3c-1.3-4.7-2.6-6.1-4.3-7.3l.2-.7h23.1l-.2.7c-3.5.3-4.7,3.8-3.8,7.6l3.7,16.2,8.3-12.4c4.5-6.9,2.6-11.1-.3-11.4l.2-.7h15.3l-.2.7c-2.4.2-8,3.6-13.4,11.9l-9.4,14.3-3.1,12.4c-1.4,5.7,1.2,7.1,3.9,7.4l-.2.7h-24.6Z"/>
  <polygon class="st0" points="993.6 84.5 991.9 84.5 991.9 83.7 996.2 83.7 996.2 84.5 994.5 84.5 994.5 88.9 993.6 88.9 993.6 84.5"/>
  <polygon class="st0" points="997.1 83.7 998.1 83.7 999.7 86.2 1001.2 83.7 1002.2 83.7 1002.2 88.9 1001.3 88.9 1001.3 85.2 999.7 87.6 999.6 87.6 998 85.2 998 88.9 997.1 88.9 997.1 83.7"/>
</svg>