<?xml version="1.0" encoding="UTF-8"?>
<svg id="a" xmlns="http://www.w3.org/2000/svg" version="1.1" viewBox="0 0 116.33 8.73">
  <!-- Generator: Adobe Illustrator 30.4.0, SVG Export Plug-In . SVG Version: 2.1.4 Build 226)  -->
  <defs>
    <style>
      .st0 {
        fill: #fff;
      }

      .st1 {
        fill: #fa4616;
      }
    </style>
  </defs>
  <path class="st0" d="M0,.86h3.5c1.47,0,2.42.91,2.42,2.04,0,.9-.53,1.4-.98,1.58.5.19,1.29.76,1.29,1.87,0,1.23-1,2.21-2.55,2.21H0V.86ZM3.17,3.89c.51,0,.86-.33.86-.78s-.35-.76-.86-.76h-1.3v1.54h1.3ZM4.33,6.18c0-.52-.41-.89-.99-.89h-1.47v1.79h1.47c.58,0,.99-.37.99-.9Z"/>
  <path class="st0" d="M9.28.86h1.86l2.84,7.7h-1.97l-.51-1.51h-2.65l-.51,1.51h-1.9L9.28.86ZM11.02,5.44l-.84-2.52-.85,2.52h1.68Z"/>
  <path class="st0" d="M14.6.86h1.87v5.91h3.49v1.79h-5.36V.86Z"/>
  <path class="st0" d="M21.52,2.66h-2.2V.86h6.26v1.79h-2.19v5.91h-1.87V2.66Z"/>
  <path class="st0" d="M26.44.86h1.87v7.7h-1.87V.86Z"/>
  <path class="st0" d="M29.74.86h1.85l2.33,5.14,2.32-5.14h1.77v7.7h-1.82v-4.15l-1.9,4.15h-.86l-1.88-4.1v4.1h-1.81V.86Z"/>
  <path class="st0" d="M39.09,4.71c0-2.21,1.73-4,3.87-4s3.87,1.79,3.87,4-1.74,4-3.87,4-3.87-1.79-3.87-4ZM44.97,4.71c0-1.32-.92-2.24-2-2.24s-2,.92-2,2.24.91,2.24,2,2.24,2-.92,2-2.24Z"/>
  <path class="st0" d="M47.92.86h3.32c1.6,0,2.72,1.08,2.72,2.55,0,.97-.57,1.77-1.51,2.2l1.76,2.95h-2.11l-1.47-2.62h-.84v2.62h-1.87V.86ZM51.07,4.37c.57,0,.99-.4.99-.94s-.42-.94-.99-.94h-1.32v1.87h1.32Z"/>
  <path class="st0" d="M55.14.86h5.46v1.68h-3.59v1.3h3.17v1.6h-3.17v1.44h3.7v1.68h-5.57V.86Z"/>
  <path class="st1" d="M64.53,4.37c0-2.41,1.9-4.37,4.32-4.37s4.32,1.97,4.32,4.37-1.9,4.37-4.32,4.37-4.32-1.97-4.32-4.37ZM70.79,4.37c0-1.31-.88-2.19-1.94-2.19s-1.94.89-1.94,2.19.89,2.19,1.94,2.19,1.94-.89,1.94-2.19Z"/>
  <path class="st1" d="M74.29.17h3.84c1.85,0,3.09,1.22,3.09,2.87,0,1.03-.58,1.88-1.55,2.37l1.87,3.15h-2.64l-1.54-2.67h-.71v2.67h-2.38V.17ZM77.8,3.99c.6,0,1-.38,1-.94s-.4-.94-1-.94h-1.22v1.87h1.22Z"/>
  <path class="st1" d="M82.43.17h2.38v8.4h-2.38V.17Z"/>
  <path class="st1" d="M85.93,4.37c0-2.41,1.9-4.37,4.32-4.37s4.32,1.97,4.32,4.37-1.9,4.37-4.32,4.37-4.32-1.97-4.32-4.37ZM92.19,4.37c0-1.31-.88-2.19-1.94-2.19s-1.94.89-1.94,2.19.89,2.19,1.94,2.19,1.94-.89,1.94-2.19Z"/>
  <path class="st1" d="M95.69.17h2.38v6.14h3.71v2.25h-6.08V.17Z"/>
  <path class="st1" d="M102.57.17h6.15v2.04h-3.78v1.14h3.32v1.91h-3.32v1.27h3.9v2.04h-6.27V.17Z"/>
  <path class="st1" d="M109.55,5.89l2.36-.18c.11.59.48,1.02,1.14,1.02.56,0,.83-.26.83-.55,0-1.24-4.16-.85-4.16-3.69,0-1.38,1.12-2.48,3.25-2.48,1.87,0,3.17,1.3,3.27,2.73l-2.35.18c-.1-.6-.47-.91-.95-.91s-.77.26-.77.56c0,1.22,4.16.71,4.16,3.63,0,1.38-1.16,2.53-3.26,2.53s-3.42-1.34-3.53-2.84Z"/>
</svg>