<svg xmlns="http://www.w3.org/2000/svg" width="260.343" height="13.531" viewBox="0 0 260.343 13.531">
  <defs>
    <style>
      .cls-1 {
        fill: #fff;
        fill-rule: evenodd;
      }
    </style>
  </defs>
  <path id="CHICAGO_WHITE_SOX" data-name="CHICAGO WHITE SOX" class="cls-1" d="M391.184,175.466a6.707,6.707,0,0,0,5.273-2.3l-1.467-1.485a5.08,5.08,0,0,1-3.732,1.671,4.38,4.38,0,0,1-4.29-4.606v-0.037a4.355,4.355,0,0,1,4.271-4.568,5.2,5.2,0,0,1,3.659,1.6l1.467-1.69a6.794,6.794,0,0,0-5.107-2.024,6.574,6.574,0,0,0-6.685,6.722v0.038A6.527,6.527,0,0,0,391.184,175.466Zm11.034-.223H404.5v-5.478h6.2v5.478h2.284v-13H410.7v5.4h-6.2v-5.4h-2.284v13Zm17.589,0h2.284v-13h-2.284v13Zm15.136,0.223a6.709,6.709,0,0,0,5.274-2.3l-1.467-1.485a5.082,5.082,0,0,1-3.733,1.671,4.379,4.379,0,0,1-4.289-4.606v-0.037A4.355,4.355,0,0,1,435,164.138a5.2,5.2,0,0,1,3.658,1.6l1.467-1.69a6.792,6.792,0,0,0-5.107-2.024,6.574,6.574,0,0,0-6.685,6.722v0.038A6.527,6.527,0,0,0,434.943,175.466Zm9.9-.223h2.34l1.337-3.138h6.147l1.318,3.138H458.4l-5.719-13.092h-2.117Zm4.513-5.162,2.228-5.2,2.247,5.2h-4.475Zm19.966,5.385a8.289,8.289,0,0,0,5.422-2.024v-5.46h-5.533v2.006h3.324V172.4a5.31,5.31,0,0,1-3.139.984,4.341,4.341,0,0,1-4.419-4.643v-0.037a4.38,4.38,0,0,1,4.215-4.568,5.165,5.165,0,0,1,3.64,1.374l1.448-1.727a7.023,7.023,0,0,0-5-1.764,6.623,6.623,0,0,0-6.7,6.722v0.038A6.45,6.45,0,0,0,469.323,175.466Zm17.942,0a6.66,6.66,0,0,0,6.815-6.723v-0.037a6.8,6.8,0,0,0-13.593.037v0.038A6.6,6.6,0,0,0,487.265,175.466Zm0.037-2.117a4.438,4.438,0,0,1-4.419-4.606v-0.037a4.376,4.376,0,0,1,4.382-4.568,4.438,4.438,0,0,1,4.42,4.6v0.038A4.376,4.376,0,0,1,487.3,173.349Zm24.759,1.987H515.2l2.618-7.484,2.6,7.484h3.138l4.346-13.092h-3.733l-2.265,7.521-2.507-7.558h-3.1l-2.507,7.558-2.265-7.521h-3.807Zm20.618-.093h3.6V170.3h4.624v4.94h3.6v-13h-3.6v4.865h-4.624v-4.865h-3.6v13Zm17.57,0h3.6v-13h-3.6v13Zm12.5,0h3.6V165.4h3.9v-3.157H558.868V165.4h3.881v9.842Zm12.426,0h10.548v-3.064H578.74v-2.061h6.24v-2.842h-6.24v-1.987h6.89v-3.045H575.175v13Zm29.345,0.223c3.157,0,5.256-1.579,5.256-4.234V171.2c0-2.433-1.857-3.4-4.829-4.049-1.819-.408-2.265-0.668-2.265-1.262v-0.037c0-.483.427-0.836,1.3-0.836a6.385,6.385,0,0,1,3.64,1.281l1.8-2.544a8.181,8.181,0,0,0-5.348-1.727c-3.12,0-5.033,1.746-5.033,4.16v0.037c0,2.655,2.136,3.435,4.9,4.067,1.782,0.427,2.21.705,2.21,1.263v0.037c0,0.557-.52.891-1.5,0.891a6.73,6.73,0,0,1-4.215-1.56l-2.006,2.4A9.116,9.116,0,0,0,604.52,175.466Zm16.9,0.037a6.809,6.809,0,0,0,7.019-6.76v-0.037a7.006,7.006,0,0,0-14,.037v0.038A6.747,6.747,0,0,0,621.422,175.5Zm0.037-3.25a3.378,3.378,0,0,1-3.342-3.51v-0.037a3.316,3.316,0,0,1,3.305-3.472,3.352,3.352,0,0,1,3.324,3.509v0.038A3.312,3.312,0,0,1,621.459,172.253Zm19.205-10.009-2.34,3.658-2.284-3.658H631.9l4.271,6.388-4.457,6.611h4.049l2.507-3.937,2.488,3.937H644.9l-4.457-6.667,4.271-6.332h-4.048Z" transform="translate(-384.563 -161.969)"/>
</svg>
