<svg xmlns="http://www.w3.org/2000/svg" xml:space="preserve" id="Layer_1" x="0" y="0" style="enable-background:new 0 0 760 145" version="1.1" viewBox="0 0 760 145"><style>.st0{fill:#0c2340}.st1{fill:#ceb47e}.st2{fill:#fff}</style><path d="M657.57 65.926c-3.183-3.026-7.647-4.327-14.833-4.327h-16.77v-7.216h35.737V35.937h-60.645v41.787l30.224-.032c3.677 0 5.58 1.756 5.58 5.107v4.776c0 3.286-1.938 5.108-5.546 5.139-3.381 0-5.35-1.821-5.35-5.139v-2.456h-24.908v7.094c0 6.247 1.117 9.629 4.069 12.426 3.315 3.123 7.744 4.426 14.833 4.426l22.776-.034c7.186 0 11.65-1.3 14.833-4.327 3.085-2.926 4.232-6.7 4.232-13.955V79.882c.001-7.254-1.147-11.061-4.232-13.956" class="st0"/><path d="M619.964 110.635c-7.543 0-12.302-1.451-15.913-4.853-3.284-3.112-4.563-6.916-4.563-13.57v-8.664h28.05v4.027c0 2.401 1.236 3.568 3.779 3.568 3.561-.031 3.975-2.051 3.975-3.568v-4.776c0-1.749-.476-3.536-4.009-3.536l-31.795.034V34.366h63.787v21.587h-35.737v4.074h15.199c7.644 0 12.403 1.422 15.912 4.756 3.4 3.193 4.724 7.427 4.724 15.098v10.867c0 7.738-1.28 11.829-4.722 15.095-3.507 3.335-8.267 4.758-15.914 4.758l-22.773.034zM602.63 86.69v5.522c0 5.755.97 8.814 3.579 11.286 2.971 2.799 7.085 3.995 13.752 3.995l22.774-.034c6.77 0 10.882-1.165 13.753-3.895 2.73-2.589 3.744-6.063 3.744-12.816V79.882c0-6.782-1.013-10.254-3.736-12.811l-.007-.007c-2.872-2.73-6.984-3.895-13.751-3.895h-18.341V52.812h35.737V37.508H602.63v38.643l28.651-.031c4.547 0 7.153 2.434 7.153 6.678v4.776c0 4.163-2.655 6.672-7.103 6.71-4.283 0-6.935-2.571-6.935-6.71v-.884H602.63z" class="st1"/><path d="m559.707 35.937-4.523 20.052h9.616v51.934h24.941V35.971z" class="st0"/><path d="M591.312 109.494h-28.083V57.56h-10.01l5.232-23.196 32.861.037v75.093zm-24.941-3.142h21.799V37.54l-27.207-.03-3.814 16.909h9.222v51.933z" class="st1"/><path d="M676.12 103.571c-3.574-3.542-4.886-8.027-4.886-16.674V58.102c0-8.646 1.312-13.13 4.886-16.674 3.836-3.768 9.409-5.491 17.64-5.491h15.836c8.23 0 13.803 1.723 17.64 5.491 3.574 3.544 4.886 8.027 4.886 16.674v28.795c0 8.646-1.312 13.132-4.886 16.674-3.837 3.771-9.41 5.494-17.64 5.494H693.76c-8.232-.001-13.805-1.724-17.64-5.494m31.082-18.752V60.182c0-3.574-1.935-5.559-5.507-5.559h-.034c-3.574 0-5.509 1.985-5.509 5.559v24.636c0 3.574 1.935 5.557 5.476 5.557h.098c3.541.001 5.476-1.982 5.476-5.556" class="st0"/><path d="M709.596 110.635H693.76c-8.661 0-14.616-1.889-18.741-5.944l-.004-.004c-3.901-3.865-5.351-8.687-5.351-17.79V58.102c0-9.1 1.45-13.922 5.351-17.789 4.131-4.059 10.086-5.947 18.746-5.947h15.836c8.659 0 14.614 1.888 18.741 5.941 3.906 3.873 5.356 8.694 5.356 17.795v28.795c0 9.103-1.45 13.924-5.351 17.79-4.132 4.059-10.087 5.948-18.747 5.948zm-32.373-8.183c3.499 3.439 8.754 5.041 16.537 5.041h15.836c7.783 0 13.038-1.603 16.539-5.043 3.259-3.23 4.416-7.301 4.416-15.553V58.102c0-8.25-1.157-12.321-4.421-15.558-3.496-3.434-8.751-5.036-16.534-5.036H693.76c-7.784 0-13.039 1.602-16.539 5.041-3.259 3.232-4.416 7.303-4.416 15.553v28.795c0 8.25 1.156 12.321 4.418 15.555zm24.504-10.505h-.098c-4.413 0-7.047-2.665-7.047-7.128V60.182c0-4.465 2.647-7.131 7.08-7.131h.034c4.432 0 7.078 2.666 7.078 7.131v24.637c-.001 4.463-2.635 7.128-7.047 7.128zm-.066-35.753c-2.686 0-3.938 1.268-3.938 3.989V84.82c0 2.72 1.241 3.986 3.905 3.986h.098c2.664 0 3.904-1.267 3.904-3.986V60.182c0-2.721-1.251-3.989-3.936-3.989h-.033z" class="st1"/><path d="M35.926 77.986c0 9.688 4.81 14.703 12.161 14.703 5.702 0 9.138-1.099 10.512-4.053.206-.412.481-.618.756-.618.343 0 .687.412.687.756.068 2.13 0 4.741 0 6.871 0 1.305 0 2.542-.07 3.779-.412.412-5.496 1.924-12.366 1.924-14.841 0-21.3-13.329-21.3-23.566 0-10.237 6.665-23.91 21.505-23.91 4.878 0 9.344 1.718 10.855 1.718.963 0 .825-.893 1.718-.893.481 0 .687.481.687 1.374 0 2.198-.069 6.527-.069 8.863 0 1.167-.137 2.267-.893 2.267-1.237 0-1.718-4.878-11.955-4.878-7.281-.002-12.228 6.044-12.228 15.663zM72.34 99.765c1.374-1.374 2.336-2.68 2.336-8.382V64.382c0-5.565-.893-7.145-2.336-8.382-.618-.55-.137-1.305.618-1.305h11.543c.756 0 1.237.756.618 1.305-1.443 1.237-2.336 2.817-2.336 8.382v9.276h16.145v-9.55c0-5.565-.893-7.146-2.336-8.382-.618-.55-.137-1.305.618-1.305h11.543c.756 0 1.237.756.618 1.305-1.443 1.236-2.336 2.817-2.336 8.382v27.001c0 5.702.963 7.008 2.336 8.382.618.55.138 1.305-.618 1.305H97.211c-.755 0-1.236-.756-.618-1.305 1.374-1.374 2.336-2.68 2.336-8.382v-9.482H82.783v9.756c0 5.702.962 7.008 2.336 8.382.618.55.137 1.306-.618 1.306H72.958c-.755 0-1.237-.756-.618-1.306zM122.219 100.796c-.756 0-1.236-.756-.618-1.305 1.374-1.374 2.336-2.68 2.336-8.382V64.107c0-5.565-.894-7.146-2.336-8.382-.618-.55-.137-1.305.618-1.305h11.542c.756 0 1.237.756.618 1.305-1.443 1.236-2.336 2.817-2.336 8.382v27.001c0 5.702.963 7.008 2.336 8.382.618.55.138 1.305-.618 1.305h-11.542zM154.579 77.986c0 9.688 4.81 14.703 12.161 14.703 5.702 0 9.138-1.099 10.512-4.053.206-.412.481-.618.756-.618.343 0 .687.412.687.756.068 2.13 0 4.741 0 6.871 0 1.305 0 2.542-.07 3.779-.412.412-5.496 1.924-12.366 1.924-14.841 0-21.3-13.329-21.3-23.566 0-10.237 6.665-23.91 21.505-23.91 4.878 0 9.344 1.718 10.855 1.718.962 0 .825-.893 1.718-.893.481 0 .687.481.687 1.374 0 2.198-.069 6.527-.069 8.863 0 1.167-.137 2.267-.893 2.267-1.237 0-1.718-4.878-11.955-4.878-7.281-.002-12.228 6.044-12.228 15.663zM190.993 99.491c1.305-1.305 2.68-.825 4.328-6.046l9-29.612-.069.069c1.58-5.153 1.993-6.871.55-8.176-.618-.55-.138-1.305.618-1.305h11.336c.206 0 .275.068.343.274l11.68 38.681c1.855 5.222 3.092 4.809 4.397 6.115.618.55.138 1.305-.618 1.305H220.26c-.756 0-1.374-.687-.618-1.305.825-.825 1.374-1.649.893-3.779l-1.237-4.329h-14.565l-1.168 4.329c-.481 2.129 0 2.954.893 3.779.618.618.138 1.305-.618 1.305h-12.23c-.754 0-1.236-.756-.617-1.305zm15.596-14.772h10.787l-5.496-18.825-5.291 18.825zM278.66 96.742c0 1.718-6.802 4.397-13.947 4.397-15.115 0-24.39-12.985-24.39-23.428 0-11.474 6.32-24.322 22.535-24.322 4.603 0 9.481 1.099 12.985 2.955.824.343 1.374.618 1.855.618.206 0 .138-.068.344-.068h.206c.549 0 .824.55.343 1.305l-5.015 8.382c-.206.343-.412.481-.756.481-.481 0-.755-.274-.755-.824 0-1.855-1.168-3.161-3.917-4.054-1.718-.481-3.504-.687-5.359-.687-8.245 0-12.847 7.077-12.847 15.802 0 10.1 8.519 15.39 15.871 15.39 1.58 0 3.16-.274 4.741-1.03v-7.97c-5.153 0-6.664.962-7.901 2.336-.206.206-.344.275-.55.275-.481 0-.756-.275-.756-.894V73.863c0-.618.274-.893.756-.893.206 0 .343.068.55.274 1.374 1.374 2.68 2.336 8.382 2.336h6.939c.481 0 .687.206.687.687v20.475zM308.89 53.802c10.65 0 18.619 9.55 18.619 23.841s-7.97 23.841-18.619 23.841c-10.649 0-18.619-9.55-18.619-23.841s7.97-23.841 18.619-23.841zm0 38.955c5.634 0 9.413-6.046 9.413-15.115 0-9.069-3.779-15.115-9.413-15.115s-9.413 6.046-9.413 15.115c0 9.07 3.779 15.115 9.413 15.115zM368.289 77.986c0 9.688 4.809 14.703 12.161 14.703 5.702 0 9.137-1.099 10.512-4.053.206-.412.481-.618.755-.618.344 0 .687.412.687.756.069 2.13 0 4.741 0 6.871 0 1.305 0 2.542-.069 3.779-.412.412-5.496 1.924-12.367 1.924-14.841 0-21.299-13.329-21.299-23.566 0-10.237 6.664-23.91 21.504-23.91 4.878 0 9.344 1.718 10.856 1.718.962 0 .825-.893 1.718-.893.481 0 .687.481.687 1.374 0 2.198-.068 6.527-.068 8.863 0 1.167-.138 2.267-.893 2.267-1.237 0-1.718-4.878-11.955-4.878-7.282-.002-12.229 6.044-12.229 15.663zM405.321 54.42h11.543c.755 0 1.236.756.618 1.305-1.443 1.236-2.336 2.817-2.336 8.382v21.711c0 3.779 3.091 7.283 6.871 7.283 3.779 0 6.871-3.504 6.871-7.283V64.107c0-5.565-.893-7.146-2.336-8.382-.618-.55-.138-1.305.618-1.305h11.543c.755 0 1.236.756.618 1.305-1.443 1.236-2.336 2.817-2.336 8.382v23.291c0 6.802-5.978 13.81-14.017 13.81h-1.924c-8.038 0-14.016-7.008-14.016-13.81V64.107c0-5.565-.893-7.146-2.336-8.382-.618-.549-.137-1.305.619-1.305zM450.872 99.491c1.374-1.374 2.336-2.68 2.336-8.382V64.107c0-5.565-.894-7.146-2.336-8.382-.618-.55-.138-1.305.618-1.305h16.626c10.993 0 13.811 6.321 13.811 11.268 0 4.672-1.787 7.695-4.329 9.687 5.496 1.443 8.932 4.741 8.932 11.13 0 6.389-4.878 14.291-14.772 14.291H451.49c-.756 0-1.237-.756-.618-1.305zm11.267-37.514v10.169h3.229c4.397 0 7.489-1.031 7.489-5.771 0-4.397-3.092-4.397-7.489-4.397h-3.229zm0 17.932v13.329h4.878c6.322 0 9.893-1.306 9.893-7.352 0-4.809-3.435-5.978-6.252-5.978h-8.519zM496.079 98.116c-.412 0-.618-.206-.618-.687l.55-9.207v-.342c0-.481.274-.756.755-.756.344 0 .756.274.962.893.961 3.71 9.343 4.947 12.366 4.947 4.054 0 8.039-2.13 8.039-5.359 0-8.107-22.467-3.023-22.467-21.642 0-7.008 5.634-12.573 13.673-12.573 3.023 0 5.634.343 7.764.825 1.099.206 2.473.687 3.504.687.206 0 .344-.069.55-.137a1.11 1.11 0 0 1 .619-.206c.481 0 .687.412.618 1.168l-.138.687c-.068.825-.412 3.023-.687 5.016-.138 1.168-.275 2.473-.481 3.779-.069.55-.343.825-.824.825-.344 0-.55-.137-.687-.481-.756-1.374-1.855-2.748-3.985-3.572-1.305-.481-2.817-.687-5.222-.687-3.435 0-6.733 1.992-6.733 5.084 0 8.725 22.81 3.641 22.81 21.573 0 8.588-9.138 12.985-16.352 12.985-4.122 0-7.97-1.03-11.611-2.748-.412-.206-.825-.344-1.236-.344-.275 0-.55.069-.825.206-.069.066-.206.066-.344.066z" class="st2"/></svg>