<?xml version="1.0" encoding="utf-8"?>
<!-- Generator: Adobe Illustrator 22.0.1, SVG Export Plug-In . SVG Version: 6.00 Build 0)  -->
<svg version="1.1" id="Layer_1" xmlns="http://www.w3.org/2000/svg" xmlns:xlink="http://www.w3.org/1999/xlink" x="0px" y="0px"
	 viewBox="0 0 569.8 64.8" style="enable-background:new 0 0 569.8 64.8;" xml:space="preserve">
<style type="text/css">
	.st0{fill:#FFFFFF;}
</style>
<g>
	<path class="st0" d="M81.5,24.8h-5.2c-0.4,0-0.7-0.3-0.7-0.7v-4c0-0.4,0.3-0.7,0.7-0.7h16.3c0.4,0,0.7,0.3,0.7,0.7v4
		c0,0.4-0.3,0.7-0.7,0.7h-5.2v19.6c0,0.4-0.3,0.7-0.7,0.7h-4.4c-0.4,0-0.7-0.3-0.7-0.7V24.8z"/>
	<path class="st0" d="M96,20.1c0-0.4,0.3-0.7,0.7-0.7h4.4c0.4,0,0.7,0.3,0.7,0.7v9.2h10.5v-9.2c0-0.4,0.3-0.7,0.7-0.7h4.4
		c0.4,0,0.7,0.3,0.7,0.7v24.2c0,0.4-0.3,0.7-0.7,0.7h-4.4c-0.4,0-0.7-0.3-0.7-0.7v-9.6h-10.5v9.6c0,0.4-0.3,0.7-0.7,0.7h-4.4
		c-0.4,0-0.7-0.3-0.7-0.7V20.1z"/>
	<path class="st0" d="M123.4,20.1c0-0.4,0.3-0.7,0.7-0.7h4.4c0.4,0,0.7,0.3,0.7,0.7v24.2c0,0.4-0.3,0.7-0.7,0.7h-4.4
		c-0.4,0-0.7-0.3-0.7-0.7V20.1z"/>
	<path class="st0" d="M133.1,41.6l1.7-3c0.3-0.5,1-0.4,1.2-0.2c0.1,0.1,2.8,2,5.2,2c1.5,0,2.5-0.9,2.5-2.2c0-1.5-1.3-2.7-3.8-3.7
		c-3.2-1.2-7.1-3.7-7.1-8.1c0-3.6,2.8-7.3,8.5-7.3c3.8,0,6.7,1.9,7.8,2.7c0.4,0.3,0.4,0.9,0.2,1.2l-1.9,2.8
		c-0.3,0.4-0.9,0.7-1.2,0.5c-0.3-0.2-3-2.2-5.2-2.2c-1.3,0-2.3,0.9-2.3,1.9c0,1.4,1.1,2.4,4,3.6c2.9,1.1,7.4,3.4,7.4,8.4
		c0,3.8-3.3,7.6-8.6,7.6c-4.8,0-7.4-2-8.2-2.8C132.9,42.3,132.8,42.1,133.1,41.6"/>
	<path class="st0" d="M160.9,20.1c0-0.4,0.3-0.7,0.7-0.7h4.4c0.4,0,0.7,0.3,0.7,0.7v24.2c0,0.4-0.3,0.7-0.7,0.7h-4.4
		c-0.4,0-0.7-0.3-0.7-0.7V20.1z"/>
	<path class="st0" d="M170.6,41.6l1.7-3c0.3-0.5,1-0.4,1.2-0.2c0.1,0.1,2.8,2,5.2,2c1.5,0,2.5-0.9,2.5-2.2c0-1.5-1.3-2.7-3.8-3.7
		c-3.2-1.2-7.1-3.7-7.1-8.1c0-3.6,2.8-7.3,8.5-7.3c3.8,0,6.7,1.9,7.8,2.7c0.4,0.3,0.4,0.9,0.2,1.2l-1.9,2.8
		c-0.3,0.4-0.9,0.7-1.2,0.5c-0.3-0.2-3-2.2-5.2-2.2c-1.3,0-2.3,0.9-2.3,1.9c0,1.4,1.1,2.4,4,3.6c2.9,1.1,7.4,3.4,7.4,8.4
		c0,3.8-3.3,7.6-8.6,7.6c-4.8,0-7.4-2-8.2-2.8C170.4,42.3,170.3,42.1,170.6,41.6"/>
	<path class="st0" d="M339.2,19.1c3.7,0,6.4,1.1,8.9,3.4c0.3,0.3,0.3,0.7,0,1l-2.9,3c-0.3,0.3-0.7,0.3-0.9,0
		c-1.4-1.2-3.1-1.9-4.9-1.9c-4.1,0-7.2,3.4-7.2,7.5c0,4.1,3.1,7.4,7.2,7.4c1.7,0,3.6-0.6,4.9-1.8c0.3-0.2,0.7-0.2,1,0l2.9,3
		c0.3,0.3,0.2,0.7,0,1c-2.5,2.4-5.6,3.6-8.9,3.6c-7.3,0-13.2-5.8-13.2-13.1C326,25,331.9,19.1,339.2,19.1"/>
	<path class="st0" d="M362.8,19.1c7.3,0,13.2,5.9,13.2,13.2c0,7.3-5.9,13.1-13.2,13.1c-7.3,0-13.1-5.8-13.1-13.1
		C349.6,25,355.5,19.1,362.8,19.1 M362.8,39.6c4,0,7.3-3.3,7.3-7.3c0-4-3.3-7.4-7.3-7.4c-4,0-7.3,3.3-7.3,7.4
		C355.5,36.3,358.8,39.6,362.8,39.6"/>
	<path class="st0" d="M379.1,20.1c0-0.4,0.3-0.7,0.7-0.7h4.5c0.4,0,0.7,0.3,0.7,0.7V35c0,2.6,1.9,4.6,4.5,4.6c2.6,0,4.6-2.1,4.6-4.6
		V20.1c0-0.4,0.3-0.7,0.7-0.7h4.5c0.4,0,0.7,0.3,0.7,0.7v15.1c0,5.6-4.7,10.2-10.5,10.2c-5.8,0-10.4-4.6-10.4-10.2V20.1z"/>
	<path class="st0" d="M405,19.7c0-0.4,0.3-0.7,0.7-0.7h0.9l14.6,14.1h0v-13c0-0.4,0.3-0.7,0.7-0.7h4.4c0.4,0,0.7,0.3,0.7,0.7v24.6
		c0,0.4-0.3,0.7-0.7,0.7h-0.6c-0.1,0-0.4-0.1-0.5-0.2l-14.5-14.5h0v13.7c0,0.4-0.3,0.7-0.7,0.7h-4.4c-0.4,0-0.7-0.3-0.7-0.7
		L405,19.7z"/>
	<path class="st0" d="M436.6,24.8h-5.2c-0.4,0-0.7-0.3-0.7-0.7v-4c0-0.4,0.3-0.7,0.7-0.7h16.3c0.4,0,0.7,0.3,0.7,0.7v4
		c0,0.4-0.3,0.7-0.7,0.7h-5.2v19.6c0,0.4-0.3,0.7-0.7,0.7h-4.4c-0.4,0-0.7-0.3-0.7-0.7V24.8z"/>
	<path class="st0" d="M452,20.1c0-0.4,0.3-0.7,0.7-0.7h11c4.4,0,8,3.6,8,7.9c0,3.4-2.2,6.1-5.4,7.4l5,9.3c0.3,0.5,0,1.1-0.6,1.1
		h-4.9c-0.3,0-0.5-0.2-0.6-0.3l-4.9-9.7h-2.5v9.3c0,0.4-0.3,0.7-0.7,0.7h-4.4c-0.4,0-0.7-0.3-0.7-0.7V20.1z M463.2,30.4
		c1.5,0,2.8-1.4,2.8-2.9s-1.3-2.8-2.8-2.8h-5.4v5.7H463.2z"/>
	<path class="st0" d="M480.2,32.7l-8.1-12.2c-0.3-0.5,0-1.1,0.6-1.1h4.8c0.3,0,0.5,0.2,0.6,0.3l5.1,7.5l5.1-7.5
		c0.1-0.1,0.3-0.3,0.6-0.3h4.8c0.6,0,0.9,0.6,0.6,1.1L486,32.7v11.7c0,0.4-0.3,0.7-0.7,0.7h-4.4c-0.4,0-0.7-0.3-0.7-0.7V32.7z"/>
	<path class="st0" d="M208,49.6c2.4-0.3,4.7-1.1,6.9-2.5c2.1-1.4,3.9-3.1,5.3-5.3c1.4-2.1,2.3-4.4,2.6-6.6c0.4-2.3,0.6-5.3,0.7-9.1
		c0-3.8,0.2-6.4,0.6-7.8c0.3-1.4,1.2-2.8,2.6-4.2c-0.7-0.6-1.2-0.8-1.6-0.8c-1.5,0.2-3.1,1-4.8,2.5c-1.7,1.5-2.9,3.4-3.6,5.6
		c-0.7,2.2-1.1,5.7-1.1,10.5c0,4.8-0.6,7.3-1.8,9.9c-1.2,2.6-2.7,4-4.6,4.2c-0.7,0.1-1.4-0.1-1.9-0.4c-0.1-0.1-0.3-0.2-0.4-0.3
		c-0.7-0.6-1.3-1.5-1.2-2.9c0.1-1.1,0.1-2.1,0.1-2.2c-0.1-0.7-0.4-1-1-0.9c-0.5,0.1-1.3,0.5-2.5,1.4c-1.2,0.9-2,1.6-2.3,2
		c-0.4,0.5-0.5,1-0.5,1.5c0.2,1.7,1,3,2.5,4.1C203.4,49.5,205.4,49.9,208,49.6"/>
	<path class="st0" d="M277.9,30.9c-1,2.9-2.4,4.5-4.2,4.9c-0.5,0.1-1,0.1-1.4,0c0,0,0,0-0.1,0c-0.2-0.1-0.4-0.2-0.6-0.3
		c-0.6-0.4-1-1.1-1.1-2c-0.4-2.4,0-5.2,1.2-8.3c1.2-3,2.6-4.6,4.3-4.7c0.8,0,1.4,0.2,1.9,0.7c0.1,0.1,0.2,0.3,0.4,0.5
		c0.3,0.5,0.5,1,0.6,1.6C279.2,25.6,278.9,28.1,277.9,30.9 M253.2,22.8c0.2,0,0.5,0.1,0.7,0.2c0.2,0.1,0.4,0.2,0.5,0.3
		c0,0,0.1,0.1,0.1,0.1c0.1,0.1,0.2,0.2,0.3,0.3c0,0,0,0,0,0.1c1.1,2-0.8,6.4-5,8.3c0,0,0,0,0,0c-0.4,0.2-0.7,0.3-1.1,0.5
		C247.7,29.6,249.9,22.4,253.2,22.8 M273.4,53.3c0.8,0,1.7,0,2.6,0c13.8,0,22.9-0.1,29.1-0.8c8.2-0.8,12.2-5.9,11.9-10.8
		c0-0.3-0.1-0.7-0.2-1c0-0.1,0-0.2-0.1-0.2c-0.1-0.3-0.1-0.5-0.2-0.7c0-0.1,0-0.1-0.1-0.2c-0.3-0.6-0.6-1.2-1-1.7
		c-1.5-1.9-4.1-3.2-7.2-3.6c-0.5-0.1-1.1-0.1-1.7-0.1c0,0,0,0,0,0c2.4-2.9,3.4-5.8,3.1-8.6c-0.2-1.4-0.9-2.9-2.2-4.4
		c-1.3-1.5-2-2.7-2.1-3.7c-0.1-0.8,0-1.6,0.2-2.5c0.1-0.3,0.1-0.6,0.1-0.9c0-0.1-0.1-0.2-0.3-0.2c-0.3,0-1,0.2-2.3,0.6
		c-1.3,0.4-2.5,0.8-3.7,1.3c-2,4.6-3.5,8.2-7.4,13.5c-2,2.8-3.6,4.4-4.7,4.5c-0.2,0-0.4,0-0.5,0c0,0,0,0,0,0c-0.1,0-0.2-0.1-0.3-0.1
		c0,0-0.1,0-0.1-0.1c-0.1-0.1-0.2-0.2-0.3-0.3c-0.3-0.4-0.6-0.9-0.6-1.6c-0.4-3,0.4-10.7,2.3-25.5c0.5-3.7,0.7-5.6,0.7-5.8
		c0-0.3-0.2-0.4-0.6-0.4c-1.1,0.1-3.2,0.7-6.3,1.8l-1.9,17c-0.5-0.5-1.1-1-1.9-1.2c-4.5-1.6-10.9,3.3-13.2,9.9c-0.5,1.3-0.8,2.7-1,4
		c-1.4,3.2-3.9,7.3-7.9,7.9c-0.4,0.1-0.8,0.1-1.2,0c-0.3,0-0.6,0-0.9-0.1c-0.1,0-0.1,0-0.2-0.1c-0.2-0.1-0.5-0.1-0.7-0.2
		c-0.1,0-0.2-0.1-0.3-0.1c-0.2-0.1-0.3-0.2-0.5-0.3c-0.1-0.1-0.2-0.1-0.3-0.2c-0.2-0.1-0.3-0.2-0.4-0.4c-0.1-0.1-0.2-0.2-0.3-0.3
		c-0.1-0.2-0.3-0.3-0.4-0.5c-0.1-0.1-0.2-0.2-0.2-0.3c-0.1-0.2-0.2-0.4-0.4-0.7c-0.1-0.1-0.1-0.2-0.2-0.3c-0.2-0.4-0.3-0.7-0.4-1.1
		c7.7-3.3,11.4-6.9,10.9-10.6c0-0.4-0.1-0.7-0.2-1.1c0-0.1-0.1-0.2-0.1-0.3c-0.1-0.2-0.2-0.4-0.3-0.6c-0.3-0.5-0.7-0.9-1.2-1.3
		c-1.1-0.8-2.5-1-4.2-0.8c-3.3,0.4-6.1,2.3-8.4,5.8c-2,2.9-2.9,6.2-2.8,9.6c-2.2,3.2-4.2,5-5.7,5.2c-0.2,0-0.4,0-0.6,0
		c0,0-0.1,0-0.1,0c-0.1,0-0.2-0.1-0.2-0.1c-0.1-0.1-0.3-0.1-0.4-0.2c-0.1-0.1-0.1-0.1-0.2-0.2c-0.1-0.1-0.2-0.3-0.3-0.4
		c0-0.1-0.1-0.1-0.1-0.2c-0.1-0.3-0.2-0.6-0.2-0.9c0-0.3,0-1,0-2.2c0-0.2,0-0.4,0-0.6c0-0.1,0-0.1,0-0.2c0-0.2,0-0.5,0-0.7v0
		c0-0.2-0.1-0.5-0.1-0.7c0-0.1,0-0.1,0-0.2c0-0.2-0.1-0.5-0.2-0.8c0,0,0,0,0,0c-0.1-0.2-0.2-0.5-0.3-0.7c0-0.1,0-0.1-0.1-0.2
		c-0.1-0.3-0.2-0.5-0.4-0.8c0,0,0,0,0,0c-0.1-0.2-0.3-0.5-0.5-0.7c0-0.1-0.1-0.1-0.1-0.2c-0.2-0.2-0.4-0.5-0.7-0.7
		c-0.4-0.4-1-0.8-1.6-1.1c-0.5-0.3-0.9-0.5-1.5-0.7c4.3-1.5,7.1-3.3,8.5-5.3c1.3-2,1.9-3.9,1.6-5.9c-0.1-0.4-0.1-0.8-0.2-1.2
		c0-0.1-0.1-0.2-0.1-0.4c-0.1-0.3-0.2-0.5-0.3-0.8c-0.1-0.1-0.1-0.2-0.2-0.4c-0.1-0.3-0.3-0.5-0.4-0.8c-0.1-0.1-0.1-0.2-0.2-0.3
		c-0.2-0.3-0.4-0.6-0.6-0.8c-0.8-1-1.8-1.8-3.1-2.6c-3-1.8-7-2.4-12-1.8c-5.9,0.7-10.8,2.7-14.5,6.1c-3.8,3.4-5.4,7.1-4.9,11.1
		c0.2,1.3,0.6,2.5,1.4,3.5c0.3,0.4,0.7,0.7,1.1,1c0.2,0.1,0.3,0.2,0.5,0.2c0.1,0,0.1,0.1,0.2,0.1c0.2,0.1,0.4,0.1,0.7,0
		c0.5-0.1,1.4-0.5,2.7-1.3c1.3-0.8,1.9-1.4,1.9-1.9c0-0.1,0-0.2-0.1-0.3c0,0,0,0,0-0.1c-0.2-0.3-0.6-0.6-1.1-0.8
		c-0.4-0.1-0.8-0.3-1.1-0.5c-0.3-0.2-0.5-0.4-0.7-0.6c-0.1-0.1-0.1-0.1-0.2-0.2c-0.1-0.2-0.3-0.4-0.4-0.6c0-0.1-0.1-0.2-0.1-0.3
		c-0.1-0.3-0.2-0.6-0.2-0.9c-0.3-2.7,0.9-4.6,3.8-7.1c2.9-2.5,6.3-4,10.3-4.5c0.5-0.1,0.9-0.1,1.4-0.1c0.1,0,0.3,0,0.4,0
		c0.3,0,0.7,0,1,0c0.1,0,0.2,0,0.3,0c0.4,0,0.8,0,1.2,0.1c0,0,0.1,0,0.1,0c0.3,0,0.6,0.1,0.9,0.2c0.1,0,0.2,0,0.3,0.1
		c0.3,0.1,0.5,0.2,0.8,0.3c0.1,0,0.1,0,0.2,0.1c0.3,0.1,0.6,0.3,0.9,0.4c0,0,0.1,0.1,0.1,0.1c0.2,0.1,0.4,0.3,0.6,0.5
		c0.1,0,0.1,0.1,0.2,0.2c0.2,0.2,0.4,0.4,0.6,0.6c0,0,0,0,0,0c0.8,1,1.3,2.4,1.5,4.2c0.3,2.4,0,4.4-0.8,6.2c-0.8,1.8-2.1,2.8-3.8,3
		l-1.8,0.1c-0.2,0-0.4,0.1-0.5,0.2c0,0,0,0,0,0c-0.1,0.1-0.2,0.2-0.3,0.3c0,0,0,0.1-0.1,0.1c0,0.1-0.1,0.2-0.1,0.4
		c0,0.1,0,0.1,0,0.2c0,0.2,0,0.4,0,0.7v0c0.1,0.4,0.3,0.7,0.7,0.8c0.1,0,0.3,0,0.4,0c0.2,0,0.4,0,0.6,0.1c0,0,0.1,0,0.1,0
		c0.2,0.1,0.3,0.1,0.4,0.3c0,0,0,0,0.1,0.1c0.1,0.1,0.2,0.3,0.3,0.5c0,0,0,0,0,0c0.1,0.2,0.2,0.4,0.3,0.7c0,0,0,0,0,0.1
		c0.1,0.2,0.1,0.5,0.2,0.8c0.1,1.1,0,2.6-0.2,4.7c-0.3,2-0.3,3.6-0.2,4.8c0.2,1.9,1,3.4,2.2,4.4c0.2,0.2,0.4,0.3,0.7,0.4
		c0.1,0.1,0.3,0.2,0.4,0.2c0.2,0.1,0.4,0.2,0.6,0.2c0.1,0.1,0.3,0.1,0.4,0.2c0.2,0.1,0.5,0.1,0.7,0.1c0.1,0,0.3,0.1,0.4,0.1
		c0.4,0,0.8,0,1.3,0c1.7-0.2,3.4-0.9,4.9-2.2c1.3-1.1,2.9-2.9,4.6-5c0.2,0.5,0.4,0.9,0.7,1.4c0.5,0.8,1.1,1.6,1.8,2.1
		c0.2,0.2,0.5,0.3,0.7,0.5c0.2,0.1,0.4,0.3,0.7,0.4c0.2,0.1,0.5,0.2,0.8,0.3c0.2,0.1,0.5,0.2,0.7,0.3c0.3,0.1,0.6,0.1,0.9,0.1
		c0.2,0,0.5,0.1,0.7,0.1c0.6,0,1.2,0,1.8-0.1c6-0.9,9.4-4.7,11.5-8.2c0.1,0.7,0.3,1.3,0.6,1.9c0.5,1.4,1.4,2.5,2.4,3.2
		c0.1,0.1,0.3,0.2,0.4,0.3c0.2,0.1,0.5,0.2,0.7,0.3c3.9,1.4,8.8-2.3,11.2-8.4c0.1,0.5,0.2,1,0.3,1.5c0,0.1,0.1,0.3,0.1,0.4
		c0.3,1.5,0.8,2.7,1.5,3.6c0.4,0.6,0.9,1,1.5,1.2c0,0,0,0,0.1,0c0.2,0.1,0.5,0.2,0.8,0.2c0.1,0,0.1,0,0.2,0c0.3,0,0.5,0,0.8,0
		c1.1-0.1,2.2-0.7,3.5-1.8c1.3-1.1,3.1-3.1,5.4-6.1c2.9-4,5.1-7.7,6.8-11.4c0.2,0.4,0.4,0.8,0.6,1.2c0,0.1,0.1,0.2,0.1,0.3
		c0.6,1.2,1.2,2.2,2,3.1c1.5,1.8,2.1,3,2.3,4.1c0.1,1.2,0.2,2.4-0.7,3.5c-0.8,1.2-1.8,1.8-2.9,1.9c-0.2,0-0.3,0-0.5,0c0,0,0,0,0,0
		c-0.2,0-0.4,0-0.6-0.1c0,0,0,0,0,0c-0.2-0.1-0.3-0.2-0.5-0.3c0,0,0,0-0.1-0.1c-0.1-0.1-0.3-0.3-0.4-0.5c0,0,0-0.1-0.1-0.1
		c-0.1-0.2-0.3-0.4-0.4-0.7c-0.1-0.3-0.3-0.6-0.4-0.9c0-0.1-0.1-0.1-0.1-0.2c-0.1-0.2-0.2-0.3-0.3-0.4c0,0-0.1-0.1-0.1-0.2
		c-0.1-0.1-0.3-0.3-0.4-0.3l0,0c-0.2-0.1-0.3-0.1-0.4-0.1c-0.4,0.1-1.1,0.8-2,2.1c-0.9,1.3-1.3,2.2-1.2,2.7c0.1,0.7,0.7,1.4,1.8,1.9
		c1.1,0.5,3.3,1.1,5.5,0c1.1-0.5,1.8-0.9,4.4-1c0.4,0,0.7,0,1,0c0.1,0,0.2,0,0.3,0c0.3,0,0.5,0.1,0.7,0.1c0.1,0,0.2,0,0.2,0.1
		c0.3,0.1,0.6,0.2,0.9,0.3c0.1,0,0.1,0.1,0.2,0.1c0.2,0.1,0.4,0.2,0.6,0.3c0.1,0,0.1,0.1,0.2,0.1c0.2,0.1,0.4,0.3,0.6,0.5
		c0,0,0.1,0,0.1,0.1c0.1,0.2,0.3,0.3,0.4,0.5c0.4,0.6,0.6,1.2,0.7,1.9c0.1,2.8-2.9,5.6-6.9,6c-6.8,0.9-17.4,0-31.5,0
		c-25.5,0-44.4,1.8-58.9,6.8c5.3,1.3,12.2,4.5,16.3,10.5c0.5-0.5,1-1,1.6-1.4C239.2,56.8,249,53.5,273.4,53.3"/>
	<polygon class="st0" points="310.6,55.7 311.8,55.7 311.8,59.1 312.9,59.1 312.9,55.7 314.1,55.7 314.1,54.9 310.6,54.9 	"/>
	<polygon class="st0" points="318,54.9 317.1,57.4 316.1,54.9 314.6,54.9 314.6,59.1 315.6,59.1 315.6,55.7 316.8,59.1 317.3,59.1 
		318.6,55.7 318.6,59.1 319.5,59.1 319.5,54.9 	"/>
</g>
</svg>
