<?xml version="1.0" encoding="UTF-8"?>
<svg id="Layer_2" data-name="Layer 2" xmlns="http://www.w3.org/2000/svg" viewBox="0 0 627.1 121.9">
  <defs>
    <style>
      .cls-1 {
        fill: #fff;
      }
    </style>
  </defs>
  <g id="Layer_1-2" data-name="Layer 1">
    <g>
      <g>
        <path class="cls-1" d="M26.16,26.12h15.72c8.45,0,10.64,2.69,10.64,11.94v45.76c0,9.25-2.19,11.94-10.64,11.94h-15.72V26.12ZM39.69,85.6c1.89,0,2.09-.8,2.09-3.08v-43.17c0-2.29-.2-3.08-2.09-3.08h-2.79v49.34h2.79Z"/>
        <path class="cls-1" d="M68.04,54.47h7.46v10.15h-7.46v20.99h9.45v10.15h-20.19V26.12h20.19v10.15h-9.45v18.2Z"/>
        <path class="cls-1" d="M85.35,95.75v-59.58h-5.77v-10.05h22.28v10.05h-5.77v59.58h-10.74Z"/>
        <path class="cls-1" d="M131.21,86.3c0,3.48.3,6.76,1.39,9.45h-11.14c-.9-1.69-.99-4.97-.99-8.36v-17.71c0-2.49-.6-3.88-2.78-3.88h-2.09v29.94h-10.74V26.12h15.62c8.55,0,10.74,2.69,10.74,11.94v11.64c0,6.76-1.19,9.95-5.17,11.14,3.98,1.19,5.17,4.48,5.17,11.24v14.22ZM120.46,39.35c0-2.29-.3-3.08-2.09-3.08h-2.79v19.4h2.79c1.79,0,2.09-.7,2.09-3.08v-13.23Z"/>
        <path class="cls-1" d="M135.58,37.56c0-9.25,2.19-11.94,10.74-11.94h4.97c8.46,0,10.64,2.69,10.64,11.94v46.75c0,9.25-2.19,11.94-10.64,11.94h-4.97c-8.55,0-10.74-2.69-10.74-11.94v-46.75ZM151.2,38.85c0-2.29-.2-3.08-1.99-3.08h-.8c-1.79,0-2.09.8-2.09,3.08v44.16c0,2.29.3,3.08,2.09,3.08h.8c1.79,0,1.99-.8,1.99-3.08v-44.16Z"/>
        <path class="cls-1" d="M166.72,26.12h10.74v69.63h-10.74V26.12Z"/>
        <path class="cls-1" d="M186.41,95.75v-59.58h-5.77v-10.05h22.28v10.05h-5.77v59.58h-10.74Z"/>
        <path class="cls-1" d="M228.59,66.21c-.8-5.07-1.29-10.05-1.89-15.02.1,4.97.2,10.15.2,15.02v29.54h-9.15V26.12h13.03l3.48,22.88c.8,4.97,1.19,9.95,1.79,15.02-.1-5.17-.3-10.15-.3-15.02v-22.88h9.25v69.63h-11.74l-4.68-29.54Z"/>
        <path class="cls-1" d="M249.58,37.56c0-9.25,2.19-11.94,10.74-11.94h4.97c8.46,0,10.64,2.69,10.64,11.94v46.75c0,9.25-2.19,11.94-10.64,11.94h-4.97c-8.55,0-10.74-2.69-10.74-11.94v-46.75ZM265.2,38.85c0-2.29-.2-3.08-1.99-3.08h-.8c-1.79,0-2.09.8-2.09,3.08v44.16c0,2.29.3,3.08,2.09,3.08h.8c1.79,0,1.99-.8,1.99-3.08v-44.16Z"/>
        <path class="cls-1" d="M314.43,95.75h-7.86l-3.48-31.83c-.5-4.38-.99-10.84-1.49-16.41.1,5.47.2,11.44.2,16.41v31.83h-9.35V26.12h15.02l2.79,27.25c.4,3.78.5,7.96.7,11.94.2-3.98.3-8.16.7-11.94l2.69-27.25h15.52v69.63h-10.64v-31.83c0-4.97.1-10.94.2-16.51-.5,5.67-.99,12.14-1.49,16.51l-3.48,31.83Z"/>
        <path class="cls-1" d="M349.65,86.5h-6.07l-.8,9.25h-9.65l6.66-69.63h14.82l6.66,69.63h-10.84l-.8-9.25ZM344.38,76.95h4.48c-.99-14.82-1.79-27.06-2.29-39.49-.5,12.43-1.29,24.67-2.19,39.49Z"/>
        <path class="cls-1" d="M365.96,95.75v-59.58h-5.77v-10.05h22.28v10.05h-5.77v59.58h-10.74Z"/>
        <path class="cls-1" d="M390.13,95.75v-59.58h-5.77v-10.05h22.28v10.05h-5.77v59.58h-10.74Z"/>
        <path class="cls-1" d="M420.47,54.47h7.46v10.15h-7.46v20.99h9.45v10.15h-20.19V26.12h20.19v10.15h-9.45v18.2Z"/>
        <path class="cls-1" d="M460.16,86.3c0,3.48.3,6.76,1.39,9.45h-11.14c-.9-1.69-.99-4.97-.99-8.36v-17.71c0-2.49-.6-3.88-2.78-3.88h-2.09v29.94h-10.74V26.12h15.62c8.55,0,10.74,2.69,10.74,11.94v11.64c0,6.76-1.19,9.95-5.17,11.14,3.98,1.19,5.17,4.48,5.17,11.24v14.22ZM449.42,39.35c0-2.29-.3-3.08-2.09-3.08h-2.79v19.4h2.79c1.79,0,2.09-.7,2.09-3.08v-13.23Z"/>
        <path class="cls-1" d="M494.48,95.75h-13.13l-6.27-69.63h10.74l2.09,24.87c.7,8.16.99,15.82,1.19,22.78.3-6.96.6-14.62,1.29-22.78l1.99-24.87h10.05l1.99,24.87c.7,8.16,1.09,15.82,1.29,22.78.2-6.96.5-14.62,1.19-22.78l2.09-24.87h9.75l-6.37,69.63h-12.73l-1.49-18.9c-.5-6.76-.9-14.12-1.09-20.99-.2,6.86-.6,14.22-1.09,20.99l-1.49,18.9Z"/>
        <path class="cls-1" d="M522.03,95.75V26.12h10.74v28.35h4.87v-28.35h10.74v69.63h-10.74v-31.13h-4.87v31.13h-10.74Z"/>
        <path class="cls-1" d="M568.39,86.5h-6.07l-.8,9.25h-9.65l6.66-69.63h14.82l6.66,69.63h-10.84l-.8-9.25ZM563.12,76.95h4.48c-.99-14.82-1.79-27.06-2.29-39.49-.5,12.43-1.29,24.67-2.19,39.49Z"/>
        <path class="cls-1" d="M584.7,95.75v-59.58h-5.77v-10.05h22.28v10.05h-5.77v59.58h-10.74Z"/>
      </g>
      <polygon class="cls-1" points="5.5 51.3 0 51.3 0 0 50.53 0 50.53 5.5 5.5 5.5 5.5 51.3"/>
      <polygon class="cls-1" points="621.6 70.6 627.1 70.6 627.1 121.9 576.57 121.9 576.57 116.39 621.6 116.39 621.6 70.6"/>
    </g>
  </g>
</svg>