<svg xmlns="http://www.w3.org/2000/svg" xml:space="preserve" style="enable-background:new 0 0 590.4 53.7" viewBox="0 0 590.4 53.7"><path d="m84.6 48-5.1-17.2-2.7 6.3v10.7H71v-42h5.8V22l6.7-16.2h6.3L83 22.5 90.6 48h-6zM114.5 5.8l3.5 42.1h-5.6l-.7-10.9h-7.8l-1.2 10.9h-5.4l4.4-42.2h12.9l-.1.1zm-10 25.7h6.4l-1.4-20.4h-3l-2 20.4zM145.3 5.8V48h-5.5l-7.2-23.5V48h-5.9V5.8h5.9l7.2 22.4V5.8h5.5zM154.5 9.3l3.5-3.5h12.4l3 3.1v4.3h-5.5v-1.9h-7.5v12.3h9.7l3.4 3.3v17.4l-3.5 3.5h-12.1l-3.3-3.4v-4.3h5.5v1.8h7.5V29h-10.1l-3.1-2.9V9.3h.1zM198.6 5.8l3.5 42.1h-5.6l-.7-10.8H188L186.8 48h-5.4l4.4-42.2h12.9-.1zm-10 25.7h6.4l-1.4-20.4h-3l-2 20.4zM210 9.3l3.5-3.5h12.4l3 3.1v4.3h-5.5v-1.9h-7.5v12.3h9.7l3.4 3.3v17.4l-3.5 3.5h-12.1l-3.3-3.4v-4.3h5.5v1.8h7.5V29H213l-3.1-2.9V9.3h.1zM275.4 8.7v4.8h-5.2v-2.2h-7.9v30.9h7.5v-4.1h5.7v6.7l-3 3.1h-12.7l-3.2-3.2V9.1l3.6-3.3h12.4l2.9 2.9h-.1zM283.5 5.8h5.9V48h-5.9V5.8zM315.9 11.5h-6.7v36.4h-5.7V11.5H297V5.7h18.9v5.8zM333.8 31.7v16.2h-5.7V31.7l-6.9-26h5.6l4.3 14.6 4.1-14.6h5.9l-7.3 26zM379.6 47.9l-2.8-18.5h-3.9v18.5h-5.7V5.8h15.7l3.2 3V26l-3.4 3.4 2.9 18.5h-6zM373 23.7h7.4V11.5H373v12.2zM413.8 9.3v35.4l-3.3 3.3h-12l-3.4-3.4V9.2l3.2-3.5h12.2l3.3 3.5v.1zM401 42.1h7.1V11.7H401v30.4zM433.9 31.7v16.2h-5.7V31.7l-6.9-26h5.6l4.3 14.6 4.1-14.6h5.9l-7.3 26zM462.5 5.8l3.5 42.1h-5.6l-.7-10.9h-7.8l-1.2 10.9h-5.4l4.4-42.2h12.9l-.1.1zm-10 25.7h6.4l-1.4-20.4h-3l-2 20.4zM474.6 5.8h6v36.5h13.1V48h-19V5.8h-.1zM500.4 9.3l3.5-3.5h12.4l3 3.1v4.3h-5.5v-1.9h-7.5v12.3h9.7l3.4 3.3v17.4l-3.5 3.5h-12.1l-3.3-3.4v-4.3h5.5v1.8h7.5V29h-10.1l-3.1-2.9V9.3h.1z" style="fill:#fff"/></svg>