<?xml version="1.0" encoding="UTF-8"?>
<svg id="Layer_1" xmlns="http://www.w3.org/2000/svg" xmlns:xlink="http://www.w3.org/1999/xlink" version="1.1" viewBox="-2 -2 204 54">
  <!-- Generator: Adobe Illustrator 29.3.1, SVG Export Plug-In . SVG Version: 2.1.0 Build 151)  -->
  <defs>
    <style>
      .st0 {
        fill: #005596;
        stroke:#fff;
        stroke-width:2;
        paint-order:stroke fill;
        stroke-linejoin:round;
      }
    </style>
  </defs>
  <path class="st0" d="M0,15.1h4.7v16.4h2.5v4.3H0V15.1Z"/>
  <path class="st0" d="M8.3,31.4v-11.9c0-2.8,2.1-4.7,5.1-4.7s5.1,1.9,5.1,4.7v11.9c0,2.8-2.1,4.7-5.1,4.7s-5.1-1.9-5.1-4.7ZM13.9,31.4v-11.9c0-.3-.2-.4-.4-.4s-.4.2-.4.4v11.9c0,.3.2.4.4.4s.4-.2.4-.4Z"/>
  <path class="st0" d="M19.8,31.4v-3h4.7v3c0,.3.2.4.4.4s.4-.2.4-.4v-2.3c0-1.9-5.5-2.4-5.5-7.1v-2.5c0-2.8,2-4.7,5.1-4.7s5.1,1.9,5.1,4.7v2.7h-4.7v-2.7c0-.2-.1-.4-.4-.4s-.4.1-.4.4v2c0,1.9,5.5,2.4,5.5,7.1v2.9c0,2.8-2.1,4.7-5.1,4.7s-5.1-1.9-5.1-4.7h0Z"/>
  <path class="st0" d="M37.6,15.1h7.1l2,20.7h-5l-.2-4.6h-1.1l-.2,4.6h-4.7l2-20.7h.1ZM40.6,27.3h.8l-.2-5.8v-1.8h-.4v1.8s-.2,5.8-.2,5.8Z"/>
  <path class="st0" d="M47.8,15.1h5l1.1,6.3.4,3.2h.4l-.4-3.2v-6.3h4.7v20.7h-5l-1.1-6.3-.4-3.2h-.4l.4,3.2v6.3h-4.7V15.1Z"/>
  <path class="st0" d="M60.4,32v-12.5c0-2.8,2.1-4.7,5.1-4.7s5.1,1.9,5.1,4.7v2.7h-4.7v-2.7c0-.3-.2-.4-.4-.4s-.4.2-.4.4v11.9c0,.3.2.4.5.4s.5-.2.5-.4v-4.2h-.6v-3.8h5.1v12.4h-3.2v-1.4c.1,0-.3,0-.3,0v.4c-.7.9-1.6,1.4-2.9,1.4-2.4,0-3.8-1.7-3.8-4.1h0Z"/>
  <path class="st0" d="M72,15.1h7.4v4.3h-2.6v3.8h2.4v4.1h-2.4v4.1h2.6v4.3h-7.4V15.1Z"/>
  <path class="st0" d="M80.5,15.1h4.7v16.4h2.5v4.3h-7.2V15.1Z"/>
  <path class="st0" d="M88.9,15.1h7.4v4.3h-2.6v3.8h2.4v4.1h-2.4v4.1h2.6v4.3h-7.4V15.1Z"/>
  <path class="st0" d="M97.4,31.4v-3h4.7v3c0,.3.2.4.4.4s.4-.2.4-.4v-2.3c0-1.9-5.5-2.4-5.5-7.1v-2.5c0-2.8,2-4.7,5.1-4.7s5.1,1.9,5.1,4.7v2.7h-4.7v-2.7c0-.2,0-.4-.4-.4s-.4.1-.4.4v2c0,1.9,5.5,2.4,5.5,7.1v2.9c0,2.8-2.1,4.7-5.1,4.7s-5.1-1.9-5.1-4.7h0Z"/>
  <path class="st0" d="M113.6,15.1h5.4c2.9,0,4.9,1.8,4.9,4.4v11.8c0,2.7-1.9,4.4-4.9,4.4h-5.4V15.1ZM118.3,19.3v12.1h.4c.3,0,.4-.2.4-.4v-11.2c0-.3-.2-.4-.4-.4h-.4Z"/>
  <path class="st0" d="M125.1,31.4v-11.9c0-2.8,2.1-4.7,5.1-4.7s5.1,1.9,5.1,4.7v11.9c0,2.8-2.1,4.7-5.1,4.7s-5.1-1.9-5.1-4.7ZM130.7,31.4v-11.9c0-.3-.2-.4-.4-.4s-.4.2-.4.4v11.9c0,.3.2.4.4.4s.4-.2.4-.4Z"/>
  <path class="st0" d="M136.7,15.1h5.4c2.9,0,4.9,1.8,4.9,4.4v11.8c0,2.7-1.9,4.4-4.9,4.4h-5.4V15.1ZM141.4,19.3v12.1h.4c.3,0,.4-.2.4-.4v-11.2c0-.3-.2-.4-.4-.4h-.4Z"/>
  <path class="st0" d="M148.2,32v-12.5c0-2.8,2.1-4.7,5.1-4.7s5.1,1.9,5.1,4.7v2.7h-4.7v-2.7c0-.3-.2-.4-.4-.4s-.4.2-.4.4v11.9c0,.3.2.4.5.4s.5-.2.5-.4v-4.2h-.6v-3.8h5.1v12.4h-3.2v-1.4h-.3v.4c-.6.9-1.6,1.4-2.9,1.4-2.4,0-3.8-1.7-3.8-4.1h0Z"/>
  <path class="st0" d="M159.8,15.1h7.4v4.3h-2.6v3.8h2.4v4.1h-2.4v4.1h2.6v4.3h-7.4V15.1Z"/>
  <path class="st0" d="M168.4,15.1h5.6c2.8,0,4.7,1.7,4.7,4.3v4.9c0,1.1-.4,2.1-1,2.8l1.4,8.7h-4.7l-.9-7.4h-.4v7.4h-4.7V15.1h0ZM173.1,19.3v5h.4c.3,0,.4-.2.4-.4v-4.1c0-.3-.2-.4-.4-.4h-.4Z"/>
  <path class="st0" d="M179.8,31.4v-3h4.7v3c0,.3.2.4.4.4s.4-.2.4-.4v-2.3c0-1.9-5.5-2.4-5.5-7.1v-2.5c0-2.8,2-4.7,5.1-4.7s5.1,1.9,5.1,4.7v2.7h-4.7v-2.7c0-.2-.1-.4-.4-.4s-.4.1-.4.4v2c0,1.9,5.5,2.4,5.5,7.1v2.9c0,2.8-2.1,4.7-5.1,4.7s-5.1-1.9-5.1-4.7h0Z"/>
</svg>