<?xml version="1.0" encoding="UTF-8"?>
<svg id="Layer_3" xmlns="http://www.w3.org/2000/svg" version="1.1" viewBox="0 0 1153.34 258.75">
  <!-- Generator: Adobe Illustrator 30.0.0, SVG Export Plug-In . SVG Version: 2.1.1 Build 123)  -->
  <defs>
    <style>
      .st0 {
        fill: #fff;
      }

      .st1 {
        fill: none;
        stroke: #404040;
        stroke-linecap: round;
        stroke-linejoin: round;
      }
    </style>
  </defs>
  <g id="Layer_1">
    <g>
      <polygon class="st0" points="828.82 103.47 854.72 129.37 828.82 155.27 828.82 245.77 864.23 245.77 864.23 145.73 891.04 145.73 891.04 113.07 864.23 113.07 864.23 49.13 900.67 49.13 900.67 16.81 828.82 16.81 828.82 103.47"/>
      <rect class="st0" x="913.5" y="16.81" width="35.41" height="228.96"/>
      <path class="st0" d="M997.5,57.72c0-7.91,4.81-11.69,10.66-11.69,5.5,0,9.62,4.12,9.62,11.69v28.53h30.6v-25.1c0-30.25-16.16-47.79-40.22-47.79-30.94,0-45.72,23.03-45.72,51.57,0,26.47,18.22,58.1,31.63,79.41,13.41,23.03,21.66,39.19,21.66,59.82,0,8.59-3.78,13.75-11.34,13.75s-11.69-5.5-11.69-13.75v-26.81h-30.94v24.06c0,30.6,16.85,47.79,44.35,47.79,22.35,0,44-14.78,44-50.54,0-26.82-15.13-53.97-30.25-79.76-14.44-25.44-22.35-34.72-22.35-61.19Z"/>
      <polygon class="st0" points="1118.27 16.81 1118.27 116.17 1098.33 116.17 1098.33 16.81 1062.92 16.81 1062.92 245.77 1098.33 245.77 1098.33 151.23 1118.27 151.23 1118.27 245.77 1153.34 245.77 1153.34 16.81 1118.27 16.81"/>
      <path class="st0" d="M711.12,256.98c-3.07-4.69-5.2-11.11-6.31-19.14-1.26-9.11-2.36-16.15-2.76-18.7-.07-.42-.11-.73-.14-.89-.29-1.92-.76-3.72-1.89-5.16-.98-1.25-2.45-2.23-4.75-2.8-.08-.02-.15-.04-.24-.06-2.09-.44-4.06-.92-5.83-1.39-.7-.19-1.37-.37-2-.55-.46-.13-.9-.26-1.32-.39-.6-.22-1.17-.44-1.72-.67,0,0,0,0,0,0-1.81-.63-3.63-1.33-5.41-2.07-2.57-1.06-5.05-2.22-7.32-3.42-.81-.43-1.6-.86-2.34-1.3,0,0,0,0,0,0-18.1-7.24-26.62-28.51-28.58-34.09-1.62-5.11-2.68-10.53-2.97-16.16v-.09s-.03-.15-.03-.15c-.29-7.34.58-14.64,2.56-21.57.27-.95.56-1.9.87-2.83-13.61.76-22.56,2.41-23.15,2.52,0,0,0,0,0,0-.01,0-.03,0-.03,0,0,0,0,0,0,0,0,0,0,0,0,0,8.76-4.44,17.65-7.73,26.25-10.14,1.78-3.72,3.72-7.14,5.94-10.33,3.99-5.74,8.87-10.73,15.31-15.35,1.21-.92,2.56-1.84,3.92-2.72,2.66-1.72,5.37-3.28,7.24-4.39.49-.33.97-.64,1.45-.93,2.34-1.59,4.35-3.12,6.08-4.66,1.95-1.75,3.54-3.51,4.83-5.41.29-.43.57-.86.83-1.3,3.5-6.15,4.13-13.59,4.06-18.13,0-.12,0-.25,0-.37,0-.28,0-.57,0-.85.05-4.34.31-8.68.95-12.27.21-1.16.45-2.25.74-3.22,0,0,.82-3,1.56-5,.14-.38.28-.72.41-1t0,0s0,0,0,0c1.98,1.61,2.8,2.33,5.1,4.64h0c13.86,15.06,22.64,30.68,27.5,40.75.09.02.19.04.28.06.16.04.31.07.47.11,2.8.55,5.53,1.39,8.16,2.48.48.2.97.4,1.45.62.14-.02.3-.03.45-.05,1.43-.16,3.67-.37,6.38-.45.72-.02,1.47-.04,2.25-.04.74,0,1.48.01,2.2.03l32.18-5.76L709.35,0l-114.16,114.16v30.43l114.16,114.16,1.77-1.77Z"/>
      <path class="st0" d="M838.72,129.37l-47.32-47.32c-4.77,1.76-10.09,3.72-15.26,5.62-10.21,3.77-19.8,7.31-23.28,8.63-1.14.43-2.11,1.11-2.89,1.9-.84.86-1.45,1.86-1.79,2.86l9.57-.58,1.99-.12c.68-.04,1.34-.08,2-.11.19,0,.38,0,.57-.01.37-.01.74-.03,1.1-.03.2,0,.39,0,.58,0,.87.02,1.7.06,2.52.13.35.03.67.08,1.01.11,11.51,1.23,17.46,7,18.74,8.4h0s-37.14,3.99-37.14,3.99l-10.52,10.28h-1.78s-.17-.01-.17-.01c-.53,0-1.07.01-1.61.03-.11,0-.21,0-.32,0-9.62.38-21.86,3.54-32.69,8.44-.26.12-.53.23-.79.35-6.99,3.24-15.87,8.4-22.82,15.74-.27,1.21-.78,3.69-1.09,6.98,1.44,22.28,8.41,32.59,16.83,38.96.04.03.09.07.13.1.11.08.23.15.34.23,1.35.95,2.86,1.68,4.33,2.17,1.55.52,3.05.78,4.22.78.68,0,1.38-.15,2.08-.4,3.01-1.07,5.95-4.01,7.35-5.29,0,0,5.38-5.02,9.61-8.87,1.61-1.47,3.06-2.78,3.97-3.56,10.43-9.04,18.03-10.79,22.67-10.79.48,0,.99.03,1.53.08.12.01.24.03.36.05.15.02.3.03.46.06.08.01.16.03.23.04,1.35.21,2.82.58,4.34,1.1.02,0,.09.03.19.07.48.17,1.78.64,2.82,1.04.22.08.44.17.63.24,0,0,0,0,0,0h0s-.02,0-.02,0h0s0,0,0,0l-4.94,2.13-2.08.9s-.25.12-.67.34c-.68.35-1.83.99-3.28,1.94-1.33.86-2.9,1.97-4.6,3.34-2,1.61-4.16,3.58-6.29,5.94-2.96,3.28-6.17,6.87-9.81,10.96-1.13,1.42-2.2,2.78-3.15,3.98-1.14,1.46-2.1,2.68-2.69,3.44-.31.4-.43.57-.49.74-.03.07-.05.14-.06.23v.05s0,.04,0,.04c-.11,1.82-.31,4.13-.93,5.82-.44,1.18-1.27,2.56-2.52,4.44l-.19.31s-.16.26-.23.51c0,.03.02.62.04,1.54.01.47.02,1.03.03,1.66v.11c0,.26.01.54.02.83.1,4.51.37,11.84.58,19.97.09,3.42.52,6.46,1.06,9.03l119.54-119.54Z"/>
      <line class="st1" x1="815.24" y1="68.74" x2="815.24" y2="68.74"/>
      <polygon class="st0" points="0 245.77 35.41 245.77 35.41 145.73 62.22 145.73 62.22 113.07 35.41 113.07 35.41 49.13 71.85 49.13 71.85 16.81 0 16.81 0 245.77"/>
      <rect class="st0" x="85.31" y="16.81" width="35.41" height="228.96"/>
      <path class="st0" d="M179.91,160.51h8.94v46.75c0,5.84-3.44,9.97-9.63,9.97-5.84,0-9.63-4.12-9.63-9.97V57.04c0-5.5,3.78-9.28,9.63-9.28,6.19,0,9.28,3.78,9.28,9.28v43.66h33v-42.29c0-24.75-17.53-45.04-42.97-45.04s-44.35,20.28-44.35,45.04v145.76c0,27.5,15.47,45.04,39.53,45.04,10.31,0,20.28-5.16,25.1-15.47l3.78,12.03h20.63v-112.76h-43.32v27.5Z"/>
      <polygon class="st0" points="292.03 116.17 272.09 116.17 272.09 16.81 236.68 16.81 236.68 245.77 272.09 245.77 272.09 151.23 292.03 151.23 292.03 245.77 327.1 245.77 327.1 16.81 292.03 16.81 292.03 116.17"/>
      <polygon class="st0" points="340.56 51.54 366.34 51.54 366.34 245.77 401.75 245.77 401.75 51.54 427.54 51.54 427.54 16.81 340.56 16.81 340.56 51.54"/>
      <rect class="st0" x="441" y="16.81" width="35.41" height="228.96"/>
      <polygon class="st0" points="583.03 93.17 583.03 16.81 553.13 16.81 553.13 151.58 546.25 119.6 523.56 16.81 489.87 16.81 489.87 245.77 520.12 245.77 520.12 111.01 528.03 142.29 553.81 245.77 583.03 245.77 583.03 205.51 583.03 93.17"/>
      <path class="st0" d="M620.12,73.24c3.54-5.28,5.54-11.97,5.54-19.29V16.81h-27.16v40.57h12.72c0,13.41-5.5,18.56-12.72,18.56v8.94c5.33,0,10.1-1.51,14.1-4.13,2.95-1.94,5.49-4.49,7.51-7.51Z"/>
    </g>
  </g>
</svg>