<svg xmlns="http://www.w3.org/2000/svg" viewBox="0 0 340.029 50.399"><g fill="#12284b"><path d="M26.112 7.2v6.96h-5.664v-1.824h-3.984v23.328h1.68V40.8H9.072v-5.136H10.8V12.336H6.864v1.824H1.2V7.2h24.912zM51.072 12.384v23.28h1.824V40.8h-7.44V26.592h-8.544V40.8h-7.488l.048-5.136h1.824v-23.28h-1.824V7.2h7.44v14.208h8.496V7.2h7.488v5.184h-1.824zM67.727 7.2v5.136h-1.824v23.328h1.824V40.8h-9.36l.048-5.136h1.824V12.336h-1.824V7.2h9.312zM89.423 40.8H74.879l-2.352-5.136v-3.696h5.664v1.968l.816 1.728h6.288l.864-1.728v-3.984l-13.632-9.024v-8.592L74.879 7.2h14.544l2.352 5.136v3.648H86.16V14.16l-.864-1.824h-6.288l-.816 1.824-.048 3.84 13.632 9.024v8.64L89.423 40.8zM115.535 7.2v5.136h-1.824v23.328h1.824V40.8h-9.36l.048-5.136h1.824V12.336h-1.824V7.2h9.312zM137.23 40.8h-14.544l-2.352-5.136v-3.696h5.664v1.968l.816 1.728h6.288l.864-1.728v-3.984l-13.632-9.024v-8.592l2.352-5.136h14.544l2.352 5.136v3.648h-5.616V14.16l-.864-1.824h-6.288l-.816 1.824-.047 3.84 13.632 9.024v8.64L137.23 40.8zM166.51 33.648l-5.04-10.656V40.8h-7.248v-5.184h1.824v-23.28h-1.824V7.2h7.248v2.784l7.056 15.264 7.008-15.264V7.2h7.296v5.136h-1.872v23.28h1.872V40.8h-7.296V22.992l-4.992 10.656h-4.032zM195.166 27.024l-6.96-14.688h-2.016V7.2h6.72v2.16l5.088 11.76 5.088-11.76V7.2h6.672v5.136h-1.824l-7.104 14.688v8.64h1.68V40.8h-9.072v-5.136h1.728v-8.64zM241.726 35.664l-2.304 5.136h-14.496l-2.448-5.136v-23.28l2.4-5.184h14.544l2.304 5.184v3.648h-5.616v-1.824l-.816-1.824h-6.288l-.864 1.824v19.584l.864 1.872h6.288l.816-1.872v-1.824h5.616v3.696zM265.87 35.664h1.824V40.8h-5.136l-5.856-12.72h-3.648V40.8h-7.488v-5.136h1.824V12.336h-1.824V7.2h17.904l3.216 6.96v7.248l-3.072 6.672h-1.248l3.504 7.584zm-12.816-12.768h7.296l.672-1.488V14.16l-.816-1.824h-7.152v10.56zM284.781 14.16v-1.776h-5.76v9.024h8.592v5.184h-8.592v9.024h5.76v-1.824h5.664v6.96l-18.912.048v-5.184h1.872V12.384h-1.872V7.2h18.912v6.96h-5.664zM326.494 7.2v5.088l-1.872.048-5.04 25.92V40.8h-5.664v-2.544l-3.984-16.896-4.032 16.896V40.8h-5.664v-2.544l-5.04-25.92-1.872-.048V7.2h6.912v2.544l3.264 16.8 4.176-16.8h4.512l4.128 16.8 3.265-16.8V7.2h6.911zM335.949 40.8h-4.896v-4.896h4.896V40.8z"/></g></svg>