<?xml version="1.0" encoding="utf-8"?>
<!-- Generator: Adobe Illustrator 27.0.0, SVG Export Plug-In . SVG Version: 6.00 Build 0)  -->
<svg version="1.1" id="Layer_1" xmlns="http://www.w3.org/2000/svg" xmlns:xlink="http://www.w3.org/1999/xlink" x="0px" y="0px"
	 viewBox="0 0 295 48" style="enable-background:new 0 0 295 48;" xml:space="preserve">
<g>
	<path style="fill:#FFFFFF;" d="M20,39.4c0.2-2.3,0.1-4.7-0.1-8.3l-0.6-10.9l-5.2,17.5h-1L7.9,20.3L7.3,31.2
		c-0.2,3.6-0.3,5.9-0.1,8.3H2c0.5-2.4,0.7-4.8,1-8.5l1-13.2c0.3-2.7,0.4-5.4,0.3-8.2h5.3c0.3,2.1,0.8,4.3,1.5,6.3l2.8,9.5l2.8-9.5
		c0.7-2.1,1.2-4.2,1.5-6.3h5.3c-0.1,2.3,0,4.4,0.3,8.2L24.9,31c0.3,3.7,0.5,6.1,1,8.5H20V39.4z"/>
	<path style="fill:#FFFFFF;" d="M34.8,31.9c0,2.5,0.1,5,0.4,7.5h-5.9c0.3-2.5,0.5-5,0.4-7.5V17c0-2.5-0.1-5-0.4-7.5h5.9
		c-0.3,2.5-0.5,5-0.4,7.5V31.9z"/>
	<path style="fill:#FFFFFF;" d="M56.9,31.8c0,2.5,0.1,5.1,0.4,7.6h-6.6c-0.5-1.8-0.9-3.3-1.8-5.9l-4.9-15v13.4
		c0,2.5,0.1,5.1,0.4,7.6h-5c0.3-2.5,0.5-5.1,0.4-7.6V17.1c0-2.5-0.1-5.1-0.4-7.6h7c0.5,2.3,1.1,4.5,1.9,6.8L52.7,30V17.1
		c0-2.5-0.1-5.1-0.4-7.6h5c-0.3,2.5-0.5,5-0.4,7.4V31.8z"/>
	<path style="fill:#FFFFFF;" d="M79,31.8c0,2.5,0.1,5.1,0.4,7.6h-6.6c-0.5-1.8-0.9-3.3-1.8-5.9l-4.9-15v13.4c0,2.5,0.1,5.1,0.4,7.6
		h-5c0.3-2.5,0.5-5.1,0.4-7.6V17.1c0-2.5-0.1-5.1-0.4-7.6h7c0.5,2.3,1.1,4.5,1.9,6.8L74.8,30V17.1c0-2.5-0.1-5.1-0.4-7.6h5
		C79.1,12,79,14.5,79,17V31.8z"/>
	<path style="fill:#FFFFFF;" d="M97.7,34l-0.6,5.4H83.7c0.3-2.5,0.5-5,0.4-7.5V17c0-2.5-0.1-5-0.4-7.5H97l0.6,5.2
		c-2.5-1-5.1-1.6-7.8-1.5h-0.6c-0.1,1.2-0.1,2.4-0.1,3.8v5.2h0.6c2,0,4-0.2,5.9-0.6v4.9c-1.9-0.4-3.9-0.6-5.9-0.6h-0.6v6
		c0,1.4,0,2.6,0.1,3.8h0.7C92.6,35.7,95.3,35.1,97.7,34z"/>
	<path style="fill:#FFFFFF;" d="M115.7,31c0,5.3-3.9,8.4-9,8.4h-5.6c0-2.7,0.1-5.9,0-8.4c2,0.3,4.1,2.1,4.8,4.8h0.6
		c2.4,0,4.2-1.3,4.2-3.8c0-1.5-0.6-2.6-1.9-3.9c-1.5-1.5-3.5-2.7-5.1-4.3c-1.8-1.8-3-3.7-3-6.5c0-4.6,3.2-7.7,8.1-7.7h5.5
		c-0.1,2.7-0.1,5.5,0,8.2c-2.1-0.3-4.1-2.1-4.8-4.7h-0.6c-2,0-3.4,1.2-3.4,3.2c0,1.1,0.4,2.1,1.7,3.4c1.4,1.4,3.9,3.1,5.6,4.8
		C114.6,26.3,115.7,28.2,115.7,31z"/>
	<path style="fill:#FFFFFF;" d="M136.9,24.7c0,9.3-3.1,14.9-9.2,14.9c-6.1,0-9.2-5.6-9.2-14.9c0-9.4,3.1-15,9.2-15
		C133.8,9.8,136.9,15.3,136.9,24.7z M131.6,24.7c0-6.9-1.3-11.4-3.9-11.4c-2.6,0-3.9,4.5-3.9,11.4c0,6.8,1.3,11.4,3.9,11.4
		S131.6,31.6,131.6,24.7z"/>
	<path style="fill:#FFFFFF;" d="M149,31.9c0,2.5,0.1,5,0.5,7.5h-6c0.3-2.5,0.5-5,0.4-7.5V13.3c-1.9,0.1-3.8,0.6-5.5,1.3l0.5-5.1
		h15.2l0.5,5.1c-1.8-0.8-3.8-1.2-5.7-1.3L149,31.9z"/>
	<path style="fill:#FFFFFF;" d="M172.4,39.4h-5.9c-0.1-1.9-0.3-3.8-0.7-5.7l-0.1-0.7h-6.4l-0.1,0.7c-0.4,1.9-0.6,3.7-0.6,5.6h-5.3
		c0.8-2.5,1.4-5.1,1.9-7.7l2.9-14.2c0.7-3.4,1.1-5.8,1.2-8h7.3c0.1,2.2,0.5,4.6,1.2,8l2.9,14.2C171,34.3,171.6,36.8,172.4,39.4z
		 M165,29.2l-2.5-14.5l-2.6,14.5H165z"/>
	<path style="fill:#FFFFFF;" d="M194.3,31.9c0,2.5,0.1,5,0.5,7.5h-6c0.3-2.5,0.5-5,0.4-7.5V13.3c-1.9,0.1-3.8,0.6-5.5,1.3l0.5-5.1
		h15.2l0.5,5.1c-1.8-0.8-3.8-1.2-5.7-1.3L194.3,31.9z"/>
	<path style="fill:#FFFFFF;" d="M226,9.5c-0.5,2.6-0.9,5.1-1.1,7.7L223.3,32c-0.3,2.4-0.4,4.9-0.5,7.3H217c-0.2-2.2-0.7-4.3-1.2-6.4
		l-2.2-8.4l-2.2,8.3c-0.6,2.1-1,4.2-1.2,6.4h-5.8c0-2.5-0.2-4.9-0.5-7.3l-1.5-14.8c-0.2-2.6-0.6-5.2-1.1-7.7h5.8
		c-0.1,2.4-0.1,4.8,0.2,7.2l1,13.4l5.1-19.4h1l5.1,19.4l1.1-13.4c0.2-2.4,0.3-4.8,0.2-7.2h5.2V9.5z"/>
	<path style="fill:#FFFFFF;" d="M234.6,31.9c0,2.5,0.1,5,0.4,7.5h-5.9c0.3-2.5,0.5-5,0.4-7.5V17c0-2.5-0.1-5-0.4-7.5h5.9
		c-0.3,2.5-0.5,5-0.4,7.5V31.9z"/>
	<path style="fill:#FFFFFF;" d="M256.8,31.8c0,2.5,0.1,5.1,0.4,7.6h-6.6c-0.5-1.8-0.9-3.3-1.8-5.9l-4.9-15v13.4
		c0,2.5,0.1,5.1,0.4,7.6h-5c0.3-2.5,0.5-5.1,0.4-7.6V17.1c0-2.5-0.1-5.1-0.4-7.6h7c0.5,2.3,1.1,4.5,1.9,6.8l4.4,13.7V17.1
		c0-2.5-0.1-5.1-0.4-7.6h5c-0.3,2.5-0.5,5-0.4,7.4V31.8z"/>
	<path style="fill:#FFFFFF;" d="M276,31c0,5.3-3.9,8.4-9,8.4h-5.6c0-2.7,0.1-5.9,0-8.4c2,0.3,4.1,2.1,4.8,4.8h0.6
		c2.4,0,4.2-1.3,4.2-3.8c0-1.5-0.6-2.6-1.9-3.9c-1.5-1.5-3.5-2.7-5.1-4.3c-1.8-1.8-3-3.7-3-6.5c0-4.6,3.2-7.7,8.1-7.7h5.5
		c-0.1,2.7-0.1,5.5,0,8.2c-2.1-0.3-4.1-2.1-4.8-4.7h-0.6c-2,0-3.4,1.2-3.4,3.2c0,1.1,0.4,2.1,1.7,3.4c1.4,1.4,3.9,3.1,5.6,4.8
		C274.9,26.3,276,28.2,276,31z"/>
</g>
</svg>
