<?xml version="1.0" encoding="UTF-8"?>
<svg id="Layer_2" data-name="Layer 2" xmlns="http://www.w3.org/2000/svg" viewBox="0 0 112.15 24.3">
  <defs>
    <style>
      .cls-1 {
        fill: #fff;
      }
    </style>
  </defs>
  <g id="Layer_1-2" data-name="Layer 1">
    <g>
      <g>
        <path class="cls-1" d="M4.13,13.73v10.23H0V.26h5.68c3.14,0,4.79,1.58,4.79,4.46v4.09c0,1.45-.69,2.64-2.05,3.14,1.42.56,2.01,1.82,2.01,3.27v5.61c0,1.22.07,2.38.36,3.14h-4.09c-.33-.73-.4-1.85-.4-3.04v-5.61c0-1.02-.36-1.58-1.35-1.58h-.82ZM5.21,3.83h-1.09v6.37h1.09c.73,0,1.12-.46,1.12-1.35v-3.66c0-.86-.4-1.35-1.12-1.35Z"/>
        <path class="cls-1" d="M16.77,23.96h-4.13V.26h4.13v23.7Z"/>
        <path class="cls-1" d="M22.81,9.51l.07,4.59v9.87h-3.73V.26h4.22l2.67,12.51h.07l-.07-4.98V.26h3.73v23.7h-3.53l-3.37-14.46h-.07Z"/>
        <path class="cls-1" d="M38.26,9.18v-4.19c0-.89-.33-1.45-1.06-1.45s-1.09.56-1.09,1.45v14.26c0,.89.36,1.45,1.09,1.45s1.06-.56,1.06-1.45v-4.55h-1.19v-3.56h5.21v12.84h-3.73v-1.06c-.4.76-1.19,1.32-2.44,1.32-2.34,0-4.13-1.72-4.13-4.62V4.72c0-2.87,2.11-4.72,5.21-4.72s5.08,1.85,5.08,4.72v4.46h-4.03Z"/>
      </g>
      <g>
        <path class="cls-1" d="M70.92.6h5.54c3.1,0,4.75,1.58,4.75,4.46v3.93c0,1.45-.69,2.64-2.05,3.14,1.42.56,2.18,1.82,2.18,3.27v4.46c0,2.87-1.62,4.46-4.75,4.46h-5.68V.6ZM76,4.1h-.99v6.24h.99c.73,0,1.12-.5,1.12-1.35v-3.53c0-.86-.4-1.35-1.12-1.35ZM75.9,13.77h-.89v7.03h1.12c.73,0,1.12-.5,1.12-1.35v-4.13c0-1.02-.4-1.55-1.35-1.55Z"/>
        <path class="cls-1" d="M91.65.6v3.7h-4.19v5.91h3.63v3.66h-3.63v6.73h4.19v3.7h-8.25V.6h8.25Z"/>
        <path class="cls-1" d="M97.85.6v20h4.19v3.7h-8.25V.6h4.06Z"/>
        <path class="cls-1" d="M107.96.6v20h4.19v3.7h-8.25V.6h4.06Z"/>
      </g>
      <g>
        <path class="cls-1" d="M48.99,19.72h17.78v2.39h-17.78v2.2h-2.17v-6.78h2.17v2.19Z"/>
        <path class="cls-1" d="M46.83,8.71h19.95v2.39h-9.28v2.36h9.28v2.39h-19.95v-2.39h8.5v-2.36h-8.5v-2.39Z"/>
        <path class="cls-1" d="M46.83.96h2.17v3.14h6.34V1.43h2.17v2.67h7.11V.96h2.17v5.53h-19.95V.96Z"/>
      </g>
    </g>
  </g>
</svg>