<svg id="Layer_1" data-name="Layer 1" xmlns="http://www.w3.org/2000/svg" viewBox="0 0 287.41 29.85"><defs><style>.cls-1{fill:#fff;}.cls-2{fill:#ffce34;}</style></defs><path class="cls-1" d="M36.83,34v6.91H16.53v-29h8.12V34Z" transform="translate(-16.53 -11.42)"/><path class="cls-1" d="M47.6,18.73v3.86H58.48V29.5H47.6V34H60.19v6.91H39.47v-29H60.19v6.9Z" transform="translate(-16.53 -11.42)"/><path class="cls-1" d="M86.37,18.73H78.45V40.87H70.33V18.73H62.41v-6.9h24Z" transform="translate(-16.53 -11.42)"/><path class="cls-1" d="M97.82,15.81v.65c0,5.85-2.39,9.75-7.83,12.83l-2.81-4.22a9.83,9.83,0,0,0,3.9-4.35c-2.56-.28-3.29-1.38-3.29-4.3v-.61c0-3.49,1-4.39,5-4.39h.12C96.81,11.42,97.82,12.32,97.82,15.81Z" transform="translate(-16.53 -11.42)"/><path class="cls-1" d="M99.46,34.13a1.87,1.87,0,0,1,0-.65l8.09-1v.29c0,1.17.4,1.58,1.62,1.58H114c1.22,0,1.63-.41,1.63-1.58V32c0-1-.41-1.21-2.56-1.54l-6.5-.93c-5-.73-7-2.56-7-6.66V18.57c0-4.67,2.52-7.15,7.28-7.15h9.5c4.75,0,7.27,2.48,7.27,7.15a2.19,2.19,0,0,1,0,.65l-8.08,1v-.29c0-1.18-.41-1.58-1.63-1.58h-4.47c-1.25,0-1.7.44-1.7,1.58v.69c0,1.06.28,1.22,2.6,1.55l6.5.93c5.07.73,6.94,2.56,6.94,6.74v4.31c0,4.67-2.52,7.14-7.27,7.14h-9.75C102,41.27,99.46,38.8,99.46,34.13Z" transform="translate(-16.53 -11.42)"/><path class="cls-2" d="M148.09,23.65h13.4V34.13c0,4.67-2.52,7.14-7.27,7.14H144.6c-4.75,0-7.27-2.47-7.27-7.14V18.57c0-4.67,2.52-7.15,7.27-7.15h9.62c4.75,0,7.27,2.48,7.27,7.15a2.54,2.54,0,0,1,0,.65l-8.08,1v-.29c0-1.18-.41-1.58-1.62-1.58h-4.67c-1.22,0-1.63.4-1.63,1.58V32.79c0,1.17.41,1.58,1.63,1.58h4.67c1.21,0,1.62-.41,1.62-1.58V30.55h-5.28Z" transform="translate(-16.53 -11.42)"/><path class="cls-2" d="M188.32,18.57V34.13c0,4.67-2.52,7.14-7.27,7.14h-9.63c-4.75,0-7.27-2.47-7.27-7.14V18.57c0-4.67,2.52-7.15,7.27-7.15h9.63C185.8,11.42,188.32,13.9,188.32,18.57Zm-9.75-.24H173.9c-1.22,0-1.63.4-1.63,1.58V32.79c0,1.17.41,1.58,1.63,1.58h4.67c1.22,0,1.62-.41,1.62-1.58V19.91C180.19,18.73,179.79,18.33,178.57,18.33Z" transform="translate(-16.53 -11.42)"/><path class="cls-2" d="M224.06,31.2v2.52c0,4.67-2.52,7.15-7.27,7.15H200.5v-29h15.72c4.75,0,7.27,2.48,7.27,7.15v1.87a5.18,5.18,0,0,1-2.72,4.79C223.16,26.69,224.06,28.4,224.06,31.2ZM213.74,18.49h-5.12v4.39h5.12c1.22,0,1.63-.41,1.63-1.59V20.07C215.37,18.9,215,18.49,213.74,18.49Zm2.19,12.63c0-1.18-.4-1.58-1.62-1.58h-5.69v4.67h5.69c1.22,0,1.62-.41,1.62-1.59Z" transform="translate(-16.53 -11.42)"/><path class="cls-2" d="M249.84,34.13c0,4.67-2.51,7.14-7.26,7.14h-9.23c-4.75,0-7.27-2.47-7.27-7.14V11.83h8.13v21c0,1.17.4,1.58,1.62,1.58h4.27c1.22,0,1.62-.41,1.62-1.58v-21h8.12Z" transform="translate(-16.53 -11.42)"/><path class="cls-2" d="M252.64,34.13V18.57c0-4.67,2.52-7.15,7.27-7.15h9.63c4.75,0,7.27,2.48,7.27,7.15a2.54,2.54,0,0,1,0,.65l-8.09,1v-.29c0-1.18-.4-1.58-1.62-1.58h-4.67c-1.22,0-1.63.4-1.63,1.58V32.79c0,1.17.41,1.58,1.63,1.58h4.67c1.22,0,1.62-.41,1.62-1.58V32.5l8.09,1a2.54,2.54,0,0,1,0,.65c0,4.67-2.52,7.14-7.27,7.14h-9.63C255.16,41.27,252.64,38.8,252.64,34.13Z" transform="translate(-16.53 -11.42)"/><path class="cls-2" d="M279.65,34.13a1.87,1.87,0,0,1,0-.65l8.08-1v.29c0,1.17.41,1.58,1.63,1.58h4.79c1.22,0,1.63-.41,1.63-1.58V32c0-1-.41-1.21-2.56-1.54l-6.5-.93c-5-.73-7-2.56-7-6.66V18.57c0-4.67,2.52-7.15,7.27-7.15h9.51c4.75,0,7.27,2.48,7.27,7.15a2.19,2.19,0,0,1,0,.65l-8.09,1v-.29c0-1.18-.4-1.58-1.62-1.58H289.6c-1.26,0-1.7.44-1.7,1.58v.69c0,1.06.28,1.22,2.6,1.55l6.49.93c5.08.73,6.95,2.56,6.95,6.74v4.31c0,4.67-2.52,7.14-7.27,7.14h-9.75C282.17,41.27,279.65,38.8,279.65,34.13Z" transform="translate(-16.53 -11.42)"/></svg>