<?xml version="1.0" encoding="utf-8"?>
<!-- Generator: Adobe Illustrator 28.0.0, SVG Export Plug-In . SVG Version: 6.00 Build 0)  -->
<svg version="1.1" id="Layer_1" xmlns="http://www.w3.org/2000/svg" xmlns:xlink="http://www.w3.org/1999/xlink" x="0px" y="0px"
	 viewBox="0 0 786.12 177.79" style="enable-background:new 0 0 786.12 177.79;" xml:space="preserve">
<style type="text/css">
	.st0{fill:#FFFFFF;}
</style>
<g>
	<path class="st0" d="M578.93,131.85L578.93,131.85L578.93,131.85z"/>
	<path class="st0" d="M587.61,32.28l-2.25,16.87l0.01,0.11l0,0c0,0.09,0.01,0.19,0.02,0.28l0.04,0.21l0.02,0.1
		c0.03,0.11,0.06,0.21,0.1,0.31l0.01,0.02l0.04,0.09l0.08,0.19l0.05,0.09l0.12,0.18l0.07,0.09l0.04,0.05l0.09,0.1l0.08,0.08
		l0.12,0.1l0.17,0.12c0.07,0.04,0.14,0.09,0.22,0.12l0.01,0.01l4.33,1.84l0.03,0.01l-2.85-1.21c-0.08-0.03-0.15-0.08-0.22-0.12
		l-0.17-0.12l-0.12-0.1l-0.08-0.08l-0.13-0.15l-0.07-0.09l-0.12-0.18l-0.05-0.09c-0.05-0.09-0.09-0.18-0.13-0.28l-0.01-0.02
		c-0.04-0.1-0.07-0.21-0.1-0.31l-0.02-0.1l-0.04-0.21c-0.01-0.1-0.02-0.19-0.02-0.29l-0.01-0.11l2.25-16.87l0.78-1.02l2.83-18.21
		l-1.53-0.65l-2.83,18.21L587.61,32.28z"/>
	<path class="st0" d="M604.73,25.56l-0.78,0.97l-3.72,26.12c-0.01,0.13-0.01,0.26-0.01,0.38c0,0.14,0.01,0.28,0.03,0.41l0.01,0.08
		l0.01,0.05c0.02,0.13,0.05,0.26,0.09,0.37l0,0.02l0.06,0.13l0.1,0.2l0.09,0.12l0.13,0.16l0.13,0.11l0.11,0.08
		c0.17,0.11,0.38,0.19,0.61,0.23c0.15,0.02,0.32,0.03,0.5,0.02l-0.02-0.02c-0.06-0.09-0.11-0.2-0.16-0.31l-0.03-0.08
		c-0.04-0.12-0.07-0.24-0.09-0.37l-0.02-0.1c-0.02-0.15-0.03-0.3-0.03-0.47c0-0.11,0-0.23,0.01-0.35l3.72-26.12l0.78-0.97l0.21-1.35
		L605.7,6.31l-1.53-0.65l0.76,18.55L604.73,25.56z"/>
	<path class="st0" d="M587.07,139.75l12.18-72.11c-0.07-0.3-2.43-9.51-2.41-9.91c-0.07,0.16-9.68,65.51-9.68,65.51
		c-0.05,0.12,0.27,0.79,0.21,0.91l-1.87,15.14C586.04,139.41,586.56,139.57,587.07,139.75z"/>
	<path class="st0" d="M617.84,34.59L617.84,34.59l-0.19,1.23l-0.79,1.02l-2.25,14.33l0.22,2.57l-0.79,5.06
		c-0.03,0.16-0.07,0.32-0.13,0.47l0,0l-0.03,0.08c-0.06,0.14-0.13,0.28-0.22,0.41l-0.03,0.05l0,0l-0.06,0.08l-0.19,0.21l0,0
		c-0.2,0.2-0.44,0.35-0.7,0.46l-0.21,0.08l0,0l-0.08,0.02l-0.01,0c-0.1,0.03-0.21,0.05-0.31,0.06l-11.89,1.14
		c-0.11,0.01-0.21,0.03-0.31,0.06l-0.07,0.02l-0.22,0.08l-0.08,0.03l-0.01,0.01l-0.05,0.03l-0.21,0.12l-0.06,0.04l-0.21,0.17
		l-0.03,0.02l-0.02,0.02l-0.08,0.09l-0.11,0.13l-0.05,0.06l-0.1,0.15l-0.1,0.18v0l-0.08,0.18l0,0l-0.05,0.13
		c-0.03,0.1-0.06,0.21-0.08,0.32l-1.19,7.06l0.12-0.02l0.22-0.04c0.45-0.09,0.85-0.1,1.21-0.1l0.11,0l1.05-6.24
		c0.02-0.11,0.05-0.22,0.08-0.32l0.05-0.13l0.08-0.19l0.1-0.18l0.1-0.15l0.05-0.06c0.06-0.08,0.12-0.15,0.19-0.22l0.02-0.02
		c0.07-0.07,0.15-0.14,0.24-0.2l0.06-0.04c0.08-0.06,0.17-0.11,0.26-0.15l0.01-0.01c0.09-0.04,0.19-0.08,0.29-0.11l0.08-0.02
		c0.1-0.03,0.21-0.05,0.31-0.06l11.89-1.14c0.11-0.01,0.22-0.03,0.33-0.06l0.08-0.02c0.1-0.03,0.21-0.07,0.3-0.11l0.01-0.01
		c0.09-0.04,0.18-0.1,0.27-0.16l0.06-0.04c0.09-0.06,0.17-0.13,0.25-0.2l0.01-0.02c0.07-0.07,0.14-0.15,0.2-0.23l0.05-0.06
		l0.04-0.06l0.06-0.1l0.1-0.19l0.03-0.06l0.05-0.13l0.05-0.14l0.02-0.05c0.03-0.09,0.05-0.19,0.06-0.28l0.79-5.06l-0.22-2.57
		l2.25-14.33l0.79-1.02l0.19-1.23l-3.59-17.95l-1.53-0.65L617.84,34.59L617.84,34.59z"/>
	<path class="st0" d="M592.29,99.58c-0.01,0.15-0.02,0.3-0.03,0.45c0.06-0.28,0.13-0.55,0.21-0.83c0.09-0.33,0.17-0.63,0.22-0.91
		c0.05-0.32,0.14-0.61,0.21-0.86c0.05-0.16,0.09-0.3,0.12-0.43c0.01-0.25,0.08-0.49,0.2-0.7c0.08-0.13,0.1-0.35,0.13-0.7
		c0.01-0.15,0.03-0.3,0.05-0.45c0.01-0.08,0.01-0.16,0.01-0.24c0-0.31,0.01-0.74,0.2-1.21c0.05-0.13,0.16-0.4,0.4-0.67
		c-0.1-0.02-0.2-0.03-0.29-0.05c-0.1-0.03-0.21-0.06-0.28-0.06l-0.09,0l-1,5.91C592.32,99.07,592.3,99.32,592.29,99.58z"/>
	<polygon class="st0" points="576.75,146.79 576.81,146.81 576.74,146.77 	"/>
	<polygon class="st0" points="578.48,147.46 578.3,147.34 576.77,146.68 576.96,146.8 	"/>
	<path class="st0" d="M576.07,152.77c0,0-1.51-0.45-2.28-0.75c0.5,0.19,1.35,0.51,2.29,0.85L576.07,152.77z"/>
	<path class="st0" d="M574.42,152.17c-0.35-0.13-0.69-0.26-1-0.37c-0.16-0.06-0.3-0.11-0.44-0.17c-0.28-0.1-0.52-0.2-0.71-0.27
		c-0.1-0.04-0.18-0.07-0.25-0.1l-0.14-0.06l-0.01-0.01l1.53,0.66c0.08,0.03,0.22,0.09,0.41,0.16c0.77,0.3,2.28,0.75,2.28,0.75
		C575.52,152.57,574.95,152.36,574.42,152.17z"/>
	<polygon class="st0" points="575.07,156.82 575.08,156.81 575.07,156.82 	"/>
	<path class="st0" d="M579.32,148.05c-0.08-0.06-0.17-0.12-0.25-0.18C579.15,147.93,579.24,147.99,579.32,148.05z"/>
	<path class="st0" d="M577.19,146.96l1.08,0.47l0.01,0.02l-1.03-0.45c0.09,0.07,0.19,0.14,0.3,0.21c0.22,0.16,0.46,0.33,0.7,0.5
		c0.24,0.17,0.48,0.34,0.68,0.49c0.12-0.06,0.25-0.11,0.38-0.15c-0.08-0.06-0.17-0.12-0.25-0.18c-0.23-0.17-0.44-0.31-0.59-0.41
		l-1.53-0.66C577.02,146.85,577.1,146.9,577.19,146.96z"/>
	<polygon class="st0" points="578.27,147.43 577.19,146.96 577.25,147 578.27,147.45 	"/>
	<polygon class="st0" points="578.27,149.25 578.27,149.25 578.14,149.14 	"/>
	<polygon class="st0" points="578.52,149.43 578.46,149.44 578.6,149.54 578.46,149.44 	"/>
	<path class="st0" d="M578.99,149.47l0.08,0.07L578.99,149.47z"/>
	<polygon class="st0" points="579.09,149.11 579.08,149.14 579.09,149.11 	"/>
	<polygon class="st0" points="582.87,142.07 582.83,141.07 582.48,142.01 582.87,142.18 	"/>
	<path class="st0" d="M582.2,143.96c0.09-0.23,0.15-0.38,0.18-0.45l0.55,0.24c-0.02-0.75-0.05-1.33-0.05-1.56l-0.39-0.17
		c-0.06,0.17-1.24,3.31-1.97,5.3l0.39,0.17C581.39,146.1,581.92,144.68,582.2,143.96z"/>
	<path class="st0" d="M580.89,147.48l-0.39-0.17L580.89,147.48z"/>
	<polygon class="st0" points="580.5,147.31 580.88,147.51 580.89,147.48 	"/>
	<path class="st0" d="M580.89,147.48l-0.39-0.17L580.89,147.48z"/>
	<path class="st0" d="M580.88,147.51l-0.38-0.2c-0.35,0.03-0.69,0.09-1.02,0.18l0.76,0.33c0.18-0.03,0.36-0.04,0.54-0.05
		C580.82,147.69,580.85,147.6,580.88,147.51z"/>
	<polygon class="st0" points="579.38,149.74 579.47,149.8 579.38,149.74 	"/>
	<polygon class="st0" points="577.43,155.12 577.43,155.12 577.43,155.12 	"/>
	<polygon class="st0" points="577.42,154.99 577.54,154.95 577.42,154.99 577.43,155.12 577.43,155.12 	"/>
	<polygon class="st0" points="577.46,155.27 577.38,155.32 577.71,155.55 577.38,155.32 	"/>
	<path class="st0" d="M577.46,156.24c-0.3,0.43-0.6,0.85-0.77,1.11l-0.1,0.14l-1.39-0.6l-0.36,0.1l1.53,0.66l2.36-0.67
		c-0.41-0.21-0.79-0.47-1.12-0.78L577.46,156.24z"/>
	<path class="st0" d="M575.45,156.81l1.24,0.54c0.18-0.25,0.47-0.67,0.77-1.11L575.45,156.81z"/>
	<polygon class="st0" points="576.69,157.35 575.45,156.81 575.2,156.88 576.59,157.48 	"/>
	<polygon class="st0" points="577.98,154.8 577.84,154.82 577.83,154.87 577.84,154.82 	"/>
	<path class="st0" d="M578.19,154.92c0.01-0.08,0.03-0.21,0.04-0.22C578.22,154.71,578.2,154.84,578.19,154.92z"/>
	<polygon class="st0" points="578.38,155.29 578.09,155.01 578.38,155.29 	"/>
	<polygon class="st0" points="578.74,155.2 578.88,155.18 578.92,155.17 578.88,155.18 	"/>
	<polygon class="st0" points="582.5,143.68 582.51,143.73 582.5,143.68 	"/>
	<polygon class="st0" points="582.43,143.55 582.38,143.51 582.43,143.55 	"/>
	<polygon class="st0" points="582.49,143.63 582.5,143.66 582.49,143.63 	"/>
	
		<rect x="582.5" y="143.68" transform="matrix(0.9701 -0.2425 0.2425 0.9701 -17.4547 145.5671)" class="st0" width="0" height="0"/>
	<polygon class="st0" points="582.93,143.76 582.93,143.75 582.38,143.51 582.43,143.55 	"/>
	<polygon class="st0" points="582.93,143.82 582.93,143.76 582.43,143.55 582.43,143.55 582.49,143.63 582.49,143.63 	"/>
	<polygon class="st0" points="582.93,143.82 582.49,143.63 582.5,143.66 582.5,143.67 582.5,143.68 582.93,143.86 	"/>
	<path class="st0" d="M582.97,148.23l-0.11-0.05l1.17,0.51l-0.09-0.45c-0.14-0.1-0.28-0.19-0.43-0.27c-0.15-0.08-0.3-0.16-0.46-0.23
		c-0.01-0.53-0.03-1.14-0.04-1.75c-0.01-0.19-0.01-0.38-0.02-0.57c-0.13,0.35-0.26,0.71-0.4,1.07l0,0.01
		c0.01,0.26,0.01,0.52,0.02,0.79c0,0.27,0.01,0.54,0.01,0.8C582.74,148.12,582.85,148.18,582.97,148.23z"/>
	<path class="st0" d="M582.95,144.36c-0.15-0.22-0.33-0.57-0.45-0.69l0,0.05c0.01,0.16,0.01,0.38,0.02,0.65
		c0,0.14,0.01,0.29,0.01,0.45c0.01,0.48,0.03,1.05,0.04,1.65c0.13-0.36,0.27-0.72,0.4-1.07c0-0.12-0.01-0.24-0.01-0.35
		C582.96,144.82,582.96,144.59,582.95,144.36z"/>
	<path class="st0" d="M582.93,143.86l-0.43-0.19l0,0c0.11,0.11,0.3,0.47,0.45,0.69l-0.01-0.19
		C582.94,144.07,582.94,143.96,582.93,143.86z"/>
	<rect x="582.62" y="148.33" class="st0" width="0" height="0"/>
	<polygon class="st0" points="584.12,148.98 584.09,148.96 584.08,148.95 584.08,148.95 584.12,148.98 	"/>
	<polygon class="st0" points="584.13,148.99 584.21,149.06 584.13,148.99 	"/>
	<path class="st0" d="M583.94,148.23L583.94,148.23l0.09,0.45l0.11,0.05c0-0.17-0.01-0.35-0.01-0.53l-0.17-0.07L583.94,148.23z"/>
	<path class="st0" d="M584.13,148.2c-0.01-0.32-0.01-0.63-0.02-0.94l-0.15,0.86L584.13,148.2z"/>
	<path class="st0" d="M584.13,148.99L584.13,148.99L584.13,148.99z"/>
	
		<rect x="584.12" y="148.98" transform="matrix(0.4027 -0.9153 0.9153 0.4027 212.5063 623.6398)" class="st0" width="0.01" height="0"/>
	<polygon class="st0" points="584.57,148.39 584.58,148.4 584.13,148.2 584.13,148.2 	"/>
	
		<rect x="584.04" y="148.07" transform="matrix(0.3979 -0.9174 0.9174 0.3979 215.7345 625.0406)" class="st0" width="0" height="0.19"/>
	<polygon class="st0" points="583.22,150.37 583.14,150.39 583.03,150.67 583.14,150.39 	"/>
	<polygon class="st0" points="583.34,148.42 583.29,148.4 583.37,148.44 583.4,148.46 	"/>
	<polygon class="st0" points="583.7,148.65 583.76,148.7 583.81,148.73 	"/>
	<polygon class="st0" points="584.09,148.96 584.12,148.98 584.12,148.98 	"/>
	<polygon class="st0" points="584.13,148.99 584.13,148.99 584.21,149.06 584.21,149.06 584.17,149.02 	"/>
	<path class="st0" d="M584.61,148.95c-0.07-0.04-0.15-0.08-0.22-0.11L584.61,148.95L584.61,148.95z"/>
	<polygon class="st0" points="584.13,148.99 584.13,148.99 584.13,148.99 	"/>
	
		<rect x="584.12" y="148.98" transform="matrix(0.6289 -0.7775 0.7775 0.6289 100.9229 509.4231)" class="st0" width="0" height="0.01"/>
	<polygon class="st0" points="583.34,148.42 584.04,148.72 584.03,148.69 583.08,148.28 583.13,148.31 583.29,148.4 	"/>
	<polygon class="st0" points="582.97,148.23 583.08,148.28 584.03,148.69 584.03,148.69 582.86,148.18 	"/>
	<polygon class="st0" points="584.03,148.69 584.04,148.72 584.58,148.96 584.61,148.95 584.39,148.84 584.14,148.73 584.14,148.74 
			"/>
	<polygon class="st0" points="584.03,148.69 584.14,148.74 584.14,148.73 584.03,148.69 	"/>
	<polygon class="st0" points="584.04,148.72 583.34,148.42 583.4,148.46 583.52,148.53 583.7,148.65 583.81,148.73 583.88,148.78 
		584.08,148.95 	"/>
	<polygon class="st0" points="584.09,148.96 584.12,148.98 584.27,149.05 584.58,148.96 584.04,148.72 584.08,148.95 	"/>
	<polygon class="st0" points="584.13,148.99 584.17,149.02 584.25,149.05 584.27,149.05 584.14,148.99 	"/>
	<polygon class="st0" points="584.13,148.99 584.13,148.99 584.14,148.99 	"/>
	<polygon class="st0" points="584.14,148.99 584.27,149.05 584.27,149.05 584.12,148.98 584.13,148.99 	"/>
	<polygon class="st0" points="584.17,149.02 584.21,149.06 584.25,149.05 	"/>
	<polygon class="st0" points="583.48,150.59 583.48,150.59 583.54,150.3 	"/>
	<polygon class="st0" points="583.54,150.3 583.61,150.27 583.31,150.03 583.61,150.27 	"/>
	<polygon class="st0" points="583.47,149.99 583.35,150.02 583.31,150.03 583.35,150.02 	"/>
	<polygon class="st0" points="583.88,150.47 583.88,150.47 583.91,150.18 	"/>
	<polygon class="st0" points="583.91,150.18 583.97,150.15 583.67,149.92 583.97,150.15 	"/>
	<path class="st0" d="M583.82,149.87l-0.12,0.04L583.82,149.87z"/>
	<path class="st0" d="M581.01,162.34l-0.01,0.02L581.01,162.34z"/>
	<path class="st0" d="M581.05,162.24l-0.02,0.04L581.05,162.24z"/>
	<path class="st0" d="M579.5,161.63l-0.02,0.05L579.5,161.63z"/>
	<polygon class="st0" points="579.45,161.75 579.45,161.75 580.98,162.41 579.45,161.75 	"/>
	<polygon class="st0" points="579.45,161.74 579.47,161.71 579.45,161.75 	"/>
	<path class="st0" d="M579.51,161.62l1.44,0.62c0-0.08-0.01-0.2-0.02-0.34c-0.03-0.79-0.06-2.35-0.09-3.85
		c-0.47,1.29-0.95,2.57-1.21,3.24C579.58,161.43,579.54,161.54,579.51,161.62z"/>
	<path class="st0" d="M580.84,158.05c0.03,1.5,0.07,3.06,0.09,3.85c0.01,0.14,0.01,0.25,0.02,0.34l-1.44-0.62l0,0.01l-0.02,0.05
		l-0.01,0.03l-0.02,0.04l1.53,0.66l0.02-0.04l0.01-0.02l0.03-0.06l0.02-0.04c0.03-0.08,0.07-0.17,0.11-0.28
		c0.3-0.77,0.88-2.34,1.41-3.8l-1.53-0.66C580.97,157.68,580.91,157.87,580.84,158.05z"/>
	
		<rect x="580.21" y="161.25" transform="matrix(0.3979 -0.9174 0.9174 0.3979 200.6356 629.8796)" class="st0" width="0" height="1.66"/>
	<path class="st0" d="M584.15,149.73l-0.11,0.05L584.15,149.73z"/>
	<polygon class="st0" points="584.31,150.33 584.31,150.33 584.27,150.03 	"/>
	<polygon class="st0" points="584.01,149.8 584.04,149.78 584.01,149.8 584.33,149.99 	"/>
	<polygon class="st0" points="582.07,155.7 582.07,155.7 582.04,155.69 	"/>
	<polygon class="st0" points="581.97,155.26 581.92,155.62 582.04,155.69 581.92,155.62 	"/>
	<polygon class="st0" points="582.4,155.91 582.4,155.91 582.38,155.89 	"/>
	<path class="st0" d="M582.86,155.8l0.39-0.07L582.86,155.8z"/>
	<polygon class="st0" points="582.78,155.74 582.78,155.74 582.64,156.06 582.74,156.15 582.64,156.06 	"/>
	<path class="st0" d="M582.87,155.86l0.08,0.06L582.87,155.86z"/>
	<path class="st0" d="M581.04,157.5l1.53,0.66c0.51-0.01,1.01-0.11,1.49-0.28c-0.38-0.27-0.8-0.57-1.14-0.82
		C582.33,157.33,581.7,157.48,581.04,157.5z"/>
	<polygon class="st0" points="586.78,148.43 586.78,148.43 586.76,148.44 586.77,148.44 	"/>
	<path class="st0" d="M588.14,149.5l-0.06,0.09L588.14,149.5z"/>
	<polygon class="st0" points="588.33,149.22 588.4,149.12 588.38,149.15 	"/>
	<polygon class="st0" points="586.73,148.67 586.74,148.65 586.61,148.84 	"/>
	<path class="st0" d="M586.55,148.93c-0.07,0.1-0.15,0.21-0.23,0.33C586.4,149.14,586.48,149.03,586.55,148.93z"/>
	<polygon class="st0" points="586.74,148.65 586.76,148.63 586.81,148.55 586.74,148.65 	"/>
	<polygon class="st0" points="588.3,149.09 588.28,149.1 588.27,149.11 588.38,149.15 588.4,149.12 586.87,148.46 586.87,148.47 	
		"/>
	<polygon class="st0" points="586.85,148.49 588.27,149.11 588.28,149.1 586.86,148.48 	"/>
	<polygon class="st0" points="588.28,149.1 588.3,149.09 586.87,148.47 586.86,148.48 	"/>
	<polygon class="st0" points="588.27,149.11 588.11,149.21 588.29,149.29 588.33,149.22 588.38,149.15 	"/>
	<polygon class="st0" points="586.81,148.55 586.76,148.63 588.11,149.21 588.27,149.11 586.85,148.49 	"/>
	<polygon class="st0" points="588.09,149.23 588.27,149.31 588.29,149.29 588.11,149.21 	"/>
	<polygon class="st0" points="586.74,148.65 588.09,149.23 588.11,149.21 586.76,148.63 	"/>
	<polygon class="st0" points="588.06,149.25 588.25,149.33 588.27,149.31 588.27,149.31 588.09,149.23 	"/>
	<polygon class="st0" points="586.74,148.65 586.73,148.67 588.06,149.25 588.09,149.23 586.74,148.65 	"/>
	<path class="st0" d="M586.36,150.42c0.18,0.24,0.33,0.51,0.46,0.78l-1.44-0.62l-0.04,0.06l1.53,0.66c0.29-0.41,0.67-0.93,0.97-1.37
		c0.08-0.12,0.16-0.22,0.23-0.32l0.06-0.09l0.12-0.17l-0.19-0.08L586.36,150.42z"/>
	<path class="st0" d="M585.38,150.57l1.44,0.62L585.38,150.57z"/>
	<path class="st0" d="M585.38,150.57l1.44,0.62c-0.13-0.27-0.29-0.53-0.46-0.78l-0.66-0.29
		C585.59,150.28,585.48,150.43,585.38,150.57z"/>
	<path class="st0" d="M586.61,148.84l-0.06,0.09c-0.07,0.1-0.15,0.21-0.23,0.33c-0.08,0.11-0.16,0.22-0.24,0.34
		c-0.12,0.18-0.25,0.36-0.38,0.53l0.66,0.29l1.7-1.17l-1.33-0.58L586.61,148.84z"/>
	<polygon class="st0" points="588.4,149.12 588.41,148.96 586.89,148.3 586.87,148.46 	"/>
	<polygon class="st0" points="586.89,148.3 586.89,148.3 586.89,148.3 	"/>
	<polygon class="st0" points="583.5,156.45 583.51,156.46 583.52,156.45 	"/>
	
		<rect x="583.23" y="156.11" transform="matrix(0.6367 -0.7711 0.7711 0.6367 91.4912 506.4966)" class="st0" width="0" height="0.09"/>
	<polygon class="st0" points="583.78,156.57 583.78,156.56 583.77,156.56 	"/>
	
		<rect x="583.77" y="156.56" transform="matrix(0.8321 -0.5547 0.5547 0.8321 11.1965 350.1164)" class="st0" width="0" height="0.02"/>
	<path class="st0" d="M585.58,151.28l0.06,0.21L585.58,151.28z"/>
	<path class="st0" d="M587.29,153.05c-0.01-0.14-0.02-0.28-0.03-0.41C587.27,152.77,587.28,152.91,587.29,153.05L587.29,153.05z"/>
	<path class="st0" d="M585.49,151.02l-0.02-0.05c-0.04-0.11-0.09-0.22-0.14-0.33C585.4,150.75,585.45,150.88,585.49,151.02z"/>
	<polygon class="st0" points="585.72,151.94 585.69,151.77 585.73,151.97 	"/>
	<path class="st0" d="M587.16,152.15c0.02,0.09,0.04,0.19,0.06,0.29C587.2,152.34,587.18,152.24,587.16,152.15z"/>
	<path class="st0" d="M587.02,151.68c0.03,0.09,0.06,0.18,0.08,0.27C587.08,151.85,587.05,151.76,587.02,151.68z"/>
	<path class="st0" d="M585.48,150.96l1.52,0.66c-0.04-0.11-0.08-0.22-0.13-0.33l-1.53-0.66
		C585.39,150.74,585.44,150.85,585.48,150.96z"/>
	<path class="st0" d="M585.34,150.63l1.53,0.66L585.34,150.63z"/>
	<path class="st0" d="M585.49,151.02l0.02,0.06l0.06,0.21l0.06,0.21c0.02,0.09,0.04,0.19,0.06,0.29l0.03,0.17l1.52,0.66l-0.03-0.17
		c-0.02-0.1-0.03-0.19-0.06-0.29l-0.06-0.21c-0.03-0.09-0.05-0.18-0.08-0.27l-0.02-0.06l-1.52-0.66L585.49,151.02z"/>
	<path class="st0" d="M585.73,151.97c0.02,0.17,0.04,0.35,0.04,0.52c0.51,0.18,1.02,0.37,1.52,0.55c-0.01-0.14-0.02-0.28-0.03-0.41
		l-0.01-0.03l-1.52-0.66L585.73,151.97z"/>
	<path class="st0" d="M586.82,155.38l-0.08,0.15L586.82,155.38z"/>
	<path class="st0" d="M586.61,155.78l-0.09,0.15L586.61,155.78z"/>
	<path class="st0" d="M586.4,156.1c-0.12,0.18-0.26,0.35-0.4,0.5C586.14,156.44,586.28,156.27,586.4,156.1z"/>
	<path class="st0" d="M585.3,154.72l0.03-0.06c0.05-0.11,0.1-0.23,0.14-0.34C585.42,154.46,585.36,154.59,585.3,154.72z"/>
	<path class="st0" d="M585.22,154.87c-0.04,0.08-0.09,0.17-0.14,0.25C585.13,155.03,585.18,154.95,585.22,154.87z"/>
	<polygon class="st0" points="584.93,155.37 584.99,155.26 584.87,155.43 	"/>
	<path class="st0" d="M585.33,154.66l1.52,0.66c0.05-0.11,0.1-0.22,0.14-0.34l-1.53-0.66C585.43,154.44,585.38,154.55,585.33,154.66
		z"/>
	<path class="st0" d="M585.3,154.72l-0.08,0.15c-0.04,0.08-0.09,0.17-0.14,0.25l-0.09,0.15l-0.07,0.11l1.52,0.66l0.07-0.11
		l0.09-0.15c0.05-0.08,0.09-0.17,0.14-0.25l0.08-0.15l0.02-0.06l-1.52-0.66L585.3,154.72z"/>
	<path class="st0" d="M584.87,155.43c-0.12,0.18-0.26,0.35-0.4,0.5l1.53,0.66c0.14-0.16,0.28-0.33,0.4-0.5l0.05-0.07l-1.52-0.66
		L584.87,155.43z"/>
	<path class="st0" d="M584.77,156.99l0.53,0.23c-0.12,0.09-0.24,0.17-0.37,0.25l-0.02,0.01l0.16,0.59c0.46,0.33,0.95,0.68,1.27,0.9
		c0.12,0.08,0.21,0.14,0.28,0.19l-1.41-0.61l0.02,0.06h0l1.53,0.66L586,156.6l-1.53-0.66L584.77,156.99z"/>
	<path class="st0" d="M585.04,157.12l-0.01,0l-0.26-0.11l0.13,0.48l0.02-0.01c0.13-0.08,0.25-0.16,0.37-0.25l-0.53-0.23l0,0.01
		L585.04,157.12z"/>
	<polygon class="st0" points="585.03,157.11 585.04,157.12 584.77,157 584.77,157 	"/>
	<path class="st0" d="M586.35,158.97c-0.32-0.23-0.81-0.57-1.27-0.9l0.11,0.4L586.35,158.97z"/>
	<polygon class="st0" points="585.21,158.54 586.62,159.16 585.21,158.54 	"/>
	<path class="st0" d="M585.21,158.54l1.41,0.61c-0.06-0.04-0.16-0.11-0.28-0.19l-1.16-0.5L585.21,158.54z"/>
	<polygon class="st0" points="585.07,158.59 586.59,159.25 586.75,159.27 585.22,158.61 	"/>
	<polygon class="st0" points="591.55,154.74 591.55,154.74 591.49,154.81 	"/>
	<path class="st0" d="M585.47,154.32l1.53,0.66L585.47,154.32z"/>
	<path class="st0" d="M589.8,154.2c-0.08,0-0.17,0.01-0.28,0.01c-0.11,0-0.23,0.01-0.37,0.01c-0.29,0.01-0.64,0.02-1.02,0.03
		c-0.34,0.01-0.7,0.02-1.08,0.03c-0.23,0.01-0.46,0.01-0.69,0.02c-0.3,0.01-0.59,0.01-0.88,0.02l1.53,0.66
		c0.52-0.01,1.06-0.02,1.58-0.03c0.8-0.02,1.55-0.04,2.1-0.06c0.28-0.01,0.5-0.02,0.65-0.03l0.16-0.06l0.06-0.07l-1.53-0.66
		l-0.06,0.07L589.8,154.2z"/>
	<path class="st0" d="M614.25,16.64l-2.9,18.2l0.43,1.21l-3.03,16.75c-0.26,0.87-1.03,1.69-1.91,1.77L602.13,55l-0.04,0
		c-0.18,0.01-0.35,0-0.5-0.02c-0.24-0.04-0.44-0.12-0.61-0.23l-0.11-0.08l-0.13-0.11l-0.13-0.16l-0.09-0.12l-0.1-0.2l-0.06-0.13
		c-0.05-0.13-0.09-0.28-0.11-0.44l-0.01-0.08c-0.02-0.13-0.03-0.27-0.03-0.41c0-0.12,0-0.25,0.01-0.38l3.72-26.12l0.78-0.97
		l0.21-1.35l-0.76-18.55l-6.42,17.43l-0.22,1.35l0.44,1.16l-4.48,26c-0.3,1.25-0.97,1.96-2,1.8c-0.15-0.02-0.32-0.07-0.49-0.13
		l-0.03-0.01l-4.35-1.85c-0.08-0.03-0.15-0.08-0.22-0.12l-0.17-0.12l-0.12-0.1l-0.08-0.08l0,0l-0.09-0.1
		c-0.15-0.18-0.27-0.38-0.37-0.61l-0.04-0.09l-0.01-0.02c-0.04-0.1-0.07-0.21-0.1-0.31l-0.02-0.1l-0.04-0.21v0v0
		c-0.01-0.1-0.02-0.19-0.02-0.28l-0.01-0.11l2.25-16.87l0.78-1.02l2.83-18.21l-8.93,15.99l-0.19,1.23l0.43,1.22l-2.26,14.33l-1,2.38
		l-0.8,5.06c-0.16,1.04,0.36,2.03,1.29,2.42l10.97,4.7c0.89,0.38,1.4,1.34,1.24,2.34l-1.09,7.45l0,0l-9.91,68.1l-1.48,9.22
		c0.33-0.09,0.67-0.15,1.02-0.18c0.73-1.99,1.91-5.13,1.97-5.3l0.35-0.94l0.04,1l0,0.11c0.01,0.23,0.03,0.82,0.05,1.56l0,0.02
		l0,0.06l0,0.04c0,0.1,0.01,0.21,0.01,0.31l0.01,0.19c0.01,0.23,0.01,0.46,0.02,0.69c0,0.12,0.01,0.24,0.01,0.36
		c0.01,0.19,0.01,0.38,0.02,0.57c0.02,0.62,0.03,1.22,0.04,1.75l0,0c0.16,0.07,0.31,0.14,0.46,0.23c0.15,0.08,0.29,0.17,0.43,0.27
		l0.02-0.1v0l0.15-0.86v0l1.74-9.72l-0.04,0l7.25-42.92l0.29-1.7l4.94-29.21c0.02-0.11,0.05-0.22,0.08-0.32l0.05-0.13l0.08-0.18
		l0.1-0.18l0.1-0.15l0.05-0.06l0.11-0.13l0.12-0.13l0.21-0.17l0.06-0.04l0.21-0.12l0.14-0.06l0.21-0.08l0,0l0.07-0.02h0
		c0.1-0.03,0.21-0.05,0.31-0.06l11.89-1.14c0.11-0.01,0.21-0.03,0.31-0.06l0.01,0l0.08-0.02l0.21-0.08l0.09-0.03l0.01-0.01
		c0.09-0.04,0.18-0.1,0.27-0.16l0.06-0.04c0.09-0.06,0.17-0.13,0.25-0.2l0.01-0.02l0.19-0.21l0.01-0.02l0.05-0.06l0.03-0.05
		l0.07-0.11l0.1-0.19l0.05-0.11l0.03-0.08l0.05-0.14c0.03-0.11,0.06-0.22,0.08-0.33l0.79-5.06l-0.22-2.57l2.25-14.33l0.79-1.02
		l0.19-1.23L614.25,16.64z M584.02,144.33l-0.01-0.03l0,0l0,0L584.02,144.33L584.02,144.33L584.02,144.33z M583.86,143.14
		c0.04-0.13,0.08-0.24,0.1-0.32C583.94,142.91,583.9,143.02,583.86,143.14z M582.83,141.07L582.83,141.07l1.53,0.66l-0.35,0.94
		l-0.01,0.05l0.01-0.05l0.36-0.94L582.83,141.07z"/>
	<polygon class="st0" points="578.73,149.27 578.91,148.96 578.82,148.87 578.8,148.84 578.79,148.87 578.66,149.15 578.59,149.09 
		578.19,149.14 578.14,149.14 578.27,149.25 578.66,149.2 	"/>
	<polygon class="st0" points="578.99,149.47 579.08,149.54 579.22,149.21 579.12,149.13 579.09,149.11 579.08,149.14 578.99,149.42 
		578.91,149.37 578.52,149.43 578.46,149.44 578.6,149.54 578.99,149.47 	"/>
	<polygon class="st0" points="579.38,149.74 579.47,149.8 579.59,149.47 579.48,149.38 579.45,149.37 579.45,149.39 579.37,149.69 
		579.29,149.63 578.9,149.72 578.85,149.73 579,149.83 579.38,149.74 	"/>
	<polygon class="st0" points="579.78,149.96 579.89,150.01 579.94,149.66 579.81,149.59 579.78,149.58 579.78,149.61 579.76,149.91 
		579.67,149.86 579.31,149.99 579.25,150.01 579.43,150.09 	"/>
	<polygon class="st0" points="577.58,155.25 577.58,155.19 577.57,155.18 577.54,154.95 577.42,154.99 577.43,155.12 577.43,155.12 
		577.46,155.27 577.38,155.32 577.71,155.55 577.81,155.5 577.84,155.48 577.52,155.29 	"/>
	<polygon class="st0" points="577.95,155.1 577.98,154.8 577.84,154.82 577.83,154.87 577.81,155.11 577.73,155.14 577.97,155.35 
		578.03,155.4 578.06,155.39 578.15,155.37 578.19,155.35 577.88,155.12 	"/>
	<path class="st0" d="M578.32,154.98l0.05-0.29l-0.14,0.01c-0.01,0.01-0.03,0.14-0.04,0.22l-0.01,0.06l-0.09,0.02l0.29,0.28
		l0.13-0.03l0.04-0.01l-0.3-0.25L578.32,154.98z"/>
	<path class="st0" d="M578.71,154.89l0.11-0.29l-0.15,0c-0.01,0.01-0.06,0.13-0.08,0.22l-0.02,0.06l-0.1,0.02l0.27,0.3l0.13-0.02
		l0.04-0.01l-0.28-0.26L578.71,154.89z"/>
	<path class="st0" d="M582.98,150.1l-0.04,0.01l0.28,0.26l-0.08,0.02l-0.11,0.29l0.15,0c0.01-0.01,0.06-0.13,0.08-0.21l0.02-0.06
		l0.1-0.02l-0.27-0.3L582.98,150.1z"/>
	<polygon class="st0" points="583.35,150.02 583.31,150.03 583.61,150.27 583.54,150.3 583.48,150.59 583.62,150.58 583.68,150.3 
		583.77,150.27 583.47,149.99 	"/>
	<polygon class="st0" points="583.82,149.87 583.82,149.87 583.7,149.91 583.67,149.92 583.97,150.15 583.91,150.18 583.88,150.47 
		584.02,150.45 584.03,150.33 584.05,150.17 584.13,150.14 	"/>
	<polygon class="st0" points="584.15,149.73 584.04,149.78 584.01,149.8 584.33,149.99 584.27,150.03 584.31,150.33 584.43,150.29 
		584.42,150.16 584.39,150 584.47,149.96 	"/>
	<polygon class="st0" points="582.55,155.29 582.6,155.27 582.43,155.19 582.07,155.32 581.97,155.26 581.92,155.61 582.04,155.69 
		582.07,155.7 582.07,155.7 582.09,155.37 582.19,155.42 	"/>
	<polygon class="st0" points="583.01,155.55 582.86,155.45 582.47,155.54 582.38,155.48 582.27,155.81 582.38,155.89 582.4,155.91 
		582.48,155.59 582.57,155.65 582.95,155.56 	"/>
	<polygon class="st0" points="583.39,155.83 583.25,155.73 583.25,155.73 582.86,155.8 582.78,155.74 582.64,156.06 582.74,156.15 
		582.76,156.17 582.87,155.86 582.94,155.91 583.34,155.85 	"/>
	<polygon class="st0" points="583.72,156.14 583.59,156.03 583.19,156.08 583.12,156 582.94,156.32 583.03,156.41 583.06,156.43 
		583.19,156.13 583.19,156.13 583.27,156.19 583.66,156.14 	"/>
	<path class="st0" d="M587.29,153.05L587.29,153.05c-0.49-0.18-1.01-0.37-1.52-0.55c0-0.1-0.02-0.19-0.02-0.29
		c-0.01-0.08-0.01-0.15-0.02-0.23l0-0.01l-0.03-0.19c-0.02-0.1-0.03-0.19-0.06-0.29l-0.06-0.21l-0.06-0.21l-0.02-0.06
		c-0.05-0.13-0.1-0.26-0.15-0.39l0.04-0.06c0.1-0.14,0.2-0.29,0.31-0.44c0.12-0.18,0.25-0.35,0.38-0.53
		c0.08-0.12,0.16-0.23,0.24-0.34c0.08-0.12,0.16-0.23,0.23-0.33l0.06-0.09l0.13-0.19l0.07-0.1l0.04-0.06l0.01-0.01l0.01-0.01l0-0.01
		l0.02-0.16l0,0l-1.39,0.39l-0.89,0.25l0,0l-0.02,0.01l-0.31,0.09l0,0l-0.02,0.01l-0.03,0.01l0,0l-0.09-0.07l-0.01,0l-0.04-0.03
		l-0.2-0.17l-0.07-0.05l-0.05-0.03c-0.08-0.06-0.16-0.12-0.25-0.17l-0.12-0.07l-0.03-0.01c-0.08-0.05-0.16-0.09-0.24-0.13
		l-0.05-0.03l-0.11-0.05c-0.12-0.05-0.24-0.11-0.36-0.15c0-0.26-0.01-0.53-0.01-0.8c-0.01-0.27-0.01-0.53-0.02-0.79l0-0.01
		c-0.02-0.6-0.03-1.18-0.04-1.65c0-0.16-0.01-0.31-0.01-0.45c-0.01-0.27-0.01-0.5-0.02-0.65l0-0.05l0,0l0-0.01l-0.01-0.04
		l-0.05-0.08l-0.06-0.05c-0.03,0.07-0.09,0.23-0.18,0.45c-0.28,0.72-0.8,2.14-1.3,3.52l-0.01,0.03c-0.03,0.09-0.07,0.18-0.1,0.27
		c-0.18,0.01-0.36,0.02-0.54,0.05c-0.32,0.05-0.63,0.12-0.93,0.23c-0.13,0.05-0.26,0.1-0.38,0.15c-0.1-0.07-0.21-0.15-0.33-0.24
		c-0.12-0.08-0.23-0.17-0.35-0.25c-0.24-0.17-0.48-0.34-0.7-0.5c-0.11-0.08-0.21-0.15-0.3-0.21l-0.06-0.04
		c-0.09-0.06-0.17-0.12-0.23-0.16l-0.19-0.12l-0.16-0.02l0.75,2.67c-0.43,0.46-0.76,1-0.99,1.6c-0.53,0.01-1.07,0.03-1.59,0.04
		c-0.8,0.02-1.55,0.04-2.1,0.06c-0.28,0.01-0.5,0.02-0.65,0.03c-0.08,0-0.14,0.01-0.22,0.12l0.05,0.02l0.14,0.06
		c0.07,0.03,0.15,0.06,0.25,0.1c0.19,0.07,0.44,0.17,0.71,0.27c0.14,0.05,0.29,0.11,0.44,0.17c0.31,0.12,0.65,0.24,1,0.37
		c0.53,0.2,1.09,0.4,1.64,0.6l0.01,0.11c0.03,0.62,0.17,1.21,0.42,1.76c-0.62,0.86-1.53,2.17-1.57,2.24l-0.08,0.11l0.36-0.1
		l0.25-0.07l2.01-0.57l0.14-0.04c0.33,0.31,0.71,0.57,1.12,0.78c0.16,0.08,0.32,0.16,0.49,0.22c0.01,0.52,0.02,1.06,0.03,1.57
		c0.02,0.81,0.04,1.56,0.06,2.11c0.01,0.27,0.01,0.5,0.02,0.65c0,0.08,0.01,0.14,0.13,0.22h0l0.02-0.04l0.01-0.02l0-0.01l0,0
		l0.02-0.05l0-0.01l0,0l0.01-0.01l0.01-0.02l0.02-0.06c0.03-0.06,0.05-0.14,0.09-0.22c0.26-0.67,0.74-1.96,1.21-3.24
		c0.07-0.19,0.14-0.37,0.2-0.55c0.66-0.02,1.29-0.17,1.87-0.44c0.34,0.24,0.76,0.54,1.14,0.82c0.08,0.06,0.16,0.11,0.24,0.17
		c0.23,0.16,0.44,0.31,0.59,0.41l0.19,0.13l0.16,0.02l-0.02-0.06l-0.02-0.08l-0.08-0.29l-0.03-0.11l-0.04-0.13l-0.13-0.46l-0.1-0.37
		l-0.03-0.1l0,0l0,0l0-0.01l-0.3-1.05l0.18-0.22c0.07-0.09,0.15-0.18,0.22-0.28l0.07-0.1l0.05-0.07l0,0l0.05-0.07l0.05-0.07
		c0.05-0.08,0.09-0.17,0.14-0.25l0.08-0.15c0.06-0.13,0.12-0.26,0.17-0.4c0.26-0.01,0.53-0.01,0.79-0.02l0.09,0
		c0.23-0.01,0.46-0.01,0.69-0.02c0.38-0.01,0.74-0.02,1.08-0.03c0.19-0.01,0.37-0.01,0.54-0.02c0.17-0.01,0.33-0.01,0.48-0.02
		c0.14,0,0.26-0.01,0.37-0.01c0.11,0,0.2-0.01,0.28-0.01l0.16-0.06l0.06-0.07c-0.07-0.03-0.23-0.09-0.45-0.18
		C589.06,153.7,588.22,153.39,587.29,153.05z M585.53,152.4c-0.67-0.24-1.3-0.47-1.81-0.65c-0.28-0.1-0.52-0.18-0.71-0.24
		c-0.16-0.05-0.29-0.09-0.37-0.12c0-0.1,0.01-0.28,0.01-0.51l0-0.12l0.02,0l0.1-0.27l0.12-0.01l-0.24-0.32
		c0-0.52-0.01-1.15-0.02-1.82v0l0,0l0,0c0.69,0.27,1.29,0.71,1.77,1.25l-0.01,0.01l-0.03,0.02l0.14,0.08l0.12,0.15l0.04,0.29
		l0.12-0.04l0-0.02C585.22,150.76,585.49,151.56,585.53,152.4z M582.64,150.46l0-0.08l0.07,0.07L582.64,150.46z M586.76,148.44
		l0.02,0h0l-0.01,0.01c-0.04,0.07-0.11,0.16-0.19,0.27c-0.24,0.35-0.62,0.89-0.97,1.38c-0.11,0.15-0.22,0.3-0.31,0.44
		c-0.07-0.14-0.14-0.27-0.21-0.4c-0.08-0.13-0.16-0.26-0.25-0.38l0.38-0.26l0.02-0.01l0.12-0.08L586.76,148.44z M576.75,146.79
		l-0.01-0.02l0.07,0.04c0.06,0.04,0.12,0.08,0.21,0.14c0.46,0.32,1.24,0.88,1.82,1.3c-0.27,0.13-0.52,0.28-0.76,0.45L576.75,146.79z
		 M578.47,148.72l-0.07,0.16l-0.05-0.05l-0.04,0L578.47,148.72z M578.11,148.98c0.1-0.01,0.26-0.03,0.29-0.04l0.05,0.06l0.18-0.3
		l-0.04-0.06c0.63-0.37,1.35-0.6,2.11-0.63c-0.24,0.66-0.47,1.3-0.64,1.81c-0.05,0.13-0.09,0.24-0.12,0.35l-0.12,0.06l-0.05,0.03
		l0.12,0.05c-0.03,0.08-0.05,0.16-0.08,0.24c-0.06,0.16-0.1,0.29-0.12,0.37c-0.1-0.01-0.28-0.01-0.51-0.01
		c-0.59,0-1.53,0.01-2.54,0.03C576.94,150.15,577.46,149.48,578.11,148.98z M575.23,156.71l-0.15,0.1l0,0l-0.01,0l0,0l0.1-0.14
		c0.07-0.11,0.17-0.24,0.27-0.39c0.16-0.23,0.35-0.5,0.54-0.77c0.13-0.18,0.26-0.36,0.38-0.54c0.06-0.09,0.12-0.17,0.18-0.25
		c0.13,0.27,0.28,0.53,0.46,0.77L575.23,156.71z M577.68,155.92c-0.07-0.07-0.15-0.15-0.22-0.22l0.02-0.01l0.03-0.02l-0.17-0.1
		l-0.1-0.12l0.01-0.01l-0.04-0.29l-0.12,0.03l0,0.05c-0.07-0.11-0.13-0.23-0.2-0.34c-0.34-0.61-0.55-1.3-0.58-2.03
		c0.67,0.24,1.3,0.47,1.81,0.65c0.28,0.1,0.52,0.18,0.71,0.24c0.16,0.05,0.29,0.09,0.37,0.12c0,0.1-0.01,0.28-0.01,0.51l0,0.16
		l-0.09,0.26l-0.12,0.01l0.22,0.3c0,0.53,0.01,1.17,0.02,1.84C578.63,156.71,578.11,156.36,577.68,155.92z M579.19,154.83l0,0.05
		l-0.04-0.05L579.19,154.83z M581.13,157.25c0.24-0.67,0.47-1.31,0.65-1.82c0.04-0.11,0.08-0.21,0.11-0.31
		c0.08-0.04,0.15-0.07,0.16-0.07l0.05-0.02l-0.15-0.06c0.03-0.09,0.06-0.18,0.08-0.25c0.06-0.16,0.09-0.29,0.12-0.37
		c0.1,0.01,0.28,0.01,0.52,0.01c0.59,0,1.53-0.01,2.55-0.03c-0.31,0.8-0.84,1.47-1.49,1.98c-0.1,0.01-0.24,0.03-0.27,0.03
		l-0.05-0.06l-0.18,0.3l0.03,0.05C582.62,156.99,581.89,157.22,581.13,157.25z M583.51,156.46l-0.12,0.07l0.06-0.13L583.51,156.46
		L583.51,156.46L583.51,156.46z M584.16,157.84c-0.28-0.2-0.57-0.41-0.85-0.6c-0.1-0.07-0.21-0.15-0.3-0.22
		c0.14-0.07,0.27-0.14,0.4-0.21c0.12-0.07,0.25-0.15,0.36-0.24l0,0l0.01,0l0.01,0.01l0,0l0.76,1.1l0.01,0.02l0.48,0.71l0.05,0.07
		l0,0.02c-0.06-0.04-0.16-0.11-0.28-0.19C584.64,158.18,584.41,158.02,584.16,157.84z M589.51,154.12c-0.83,0.03-2.53,0.08-4.1,0.11
		c-0.79,0.02-1.53,0.03-2.13,0.03c-0.3,0-0.55,0.01-0.75,0c-0.2,0-0.34-0.01-0.46-0.01l-1.16-1.62l-0.29,1.74l-0.07,0.44l-1.13,6.78
		l-0.01-0.15l-0.01-0.19c-0.01-0.42-0.03-1.05-0.05-1.78c-0.02-0.73-0.03-1.55-0.05-2.33c-0.01-0.39-0.01-0.78-0.02-1.14
		c0-0.36-0.01-0.7-0.01-0.99c0-0.3,0-0.55,0-0.76c0-0.2,0.01-0.35,0.02-0.46l1.62-1.16l-8.34-1.38l-0.59-0.1h0l0.15-0.01l0.19-0.01
		c0.83-0.03,2.53-0.08,4.1-0.11c0.79-0.01,1.53-0.02,2.13-0.03c0.3-0.01,0.55-0.01,0.75,0c0.2,0,0.35,0,0.46,0.01l0.47,0.65
		l0.69,0.96l0.16-0.96l0.11-0.66l0.53-3.17l0.69-4.16c0,0.08,0.01,0.2,0.02,0.34c0.02,0.59,0.05,1.61,0.07,2.71
		c0.01,0.46,0.02,0.94,0.03,1.4c0.01,0.78,0.03,1.54,0.03,2.13c0,0.3,0,0.55,0,0.76c0,0.2-0.01,0.35-0.02,0.46l-1.62,1.16l8.93,1.48
		C589.76,154.11,589.65,154.11,589.51,154.12z"/>
	<path class="st0" d="M586.54,137.51c-0.23,0.01,0.25-5.57,0.25-5.57l-2.68,15.33c0.01,0.31,0.01,0.62,0.02,0.94l0.45,0.2
		l-0.01-0.01l-0.44-0.19c0,0.18,0.01,0.35,0.01,0.53l0.25,0.11c0.08,0.03,0.15,0.07,0.22,0.11l0.89-0.25l1.57-8.95
		C587.07,139.75,586.87,137.49,586.54,137.51z"/>
</g>
<path class="st0" d="M26.94,68.13H9l4.89-28.31h67.3L76.3,68.13H58.66l-10.23,57.67c-1.33,7.86-2.37,13.49-3.26,19.27H13.15
	c1.19-5.63,2.22-11.56,3.56-19.27L26.94,68.13z"/>
<path class="st0" d="M83.56,57.9c1.19-7.26,2.22-12.9,2.96-18.08h35.13c26.68,0,37.8,9.78,33.5,34.24l-1.19,6.82
	c-2.52,14.38-7.26,22.98-17.05,27.42c1.04,3.7,1.93,7.86,2.67,12.3c1.63,8.75,3.41,17.79,4.74,24.46h-32.32
	c-0.59-4-1.48-10.08-2.22-16.16l-1.48-11.12h-3.56l-1.48,8c-1.33,7.86-2.37,13.64-3.26,19.27H67.99c1.19-5.49,2.22-11.56,3.56-19.27
	L83.56,57.9z M113.8,65.91L109.2,92h5.19c3.56,0,5.63-1.78,6.52-6.82l2.22-12.45c0.89-5.04-0.59-6.82-4.15-6.82H113.8z"/>
<path class="st0" d="M164.49,57.9c1.19-7.26,2.22-12.75,2.96-18.08h32.02c-1.04,5.34-2.08,10.82-3.26,18.08l-12.01,67.89
	c-1.33,7.86-2.37,13.49-3.26,19.27h-32.02c1.19-5.63,2.22-11.56,3.56-19.27L164.49,57.9z"/>
<path class="st0" d="M204.8,57.31c1.33-6.97,2.22-12.45,2.96-17.49h34.69c28.76,0,38.69,7.41,33.95,34.98l-6.23,35.28
	c-4.89,27.57-13.19,34.98-41.95,34.98h-38.99c1.48-7.26,2.82-14.97,4.89-26.68L204.8,57.31z M234.9,67.09l-9.04,50.7h5.04
	c3.56,0,5.78-1.78,6.67-6.82l6.52-37.06c0.89-5.04-0.59-6.82-4.15-6.82H234.9z"/>
<path class="st0" d="M286.03,57.9c1.19-7.26,2.22-12.9,2.96-18.08h56.03l-4.6,26.53c-8.89-0.15-14.08-0.15-21.49-0.15h-2.67
	L313.9,79.4h21.5l-4.3,24.76c-7.41-0.15-14.38-0.15-20.31-0.15h-1.19l-2.67,14.67h4.6c5.93,0,9.49,0,21.5-0.15l-4.74,26.53h-57.81
	c1.19-5.49,2.22-11.56,3.56-19.27L286.03,57.9z"/>
<path class="st0" d="M337.76,125.79l12.01-68.19c1.19-7.12,2.08-12.16,2.96-17.79h39.58l-0.15,25.65
	c-0.15,13.79-0.59,29.06-1.04,40.91c2.22-13.79,5.34-33.06,6.97-42.1c1.04-5.93,2.22-12.75,4.3-24.46h25.94
	c-1.19,5.63-1.93,10.38-3.26,17.79l-12.01,68.19c-1.04,5.93-2.08,12.01-3.26,19.27h-40.47l0.3-22.98
	c0.15-11.41,0.3-23.87,0.44-35.13c-2.22,13.64-4.45,27.28-5.63,33.65c-1.04,5.93-2.22,12.6-4.3,24.46H334.2
	C335.39,139.14,336.28,133.8,337.76,125.79z"/>
<path class="st0" d="M446.71,68.13h-17.94l4.89-28.31h67.3l-4.89,28.31h-17.64l-10.23,57.67c-1.33,7.86-2.37,13.49-3.26,19.27
	h-32.02c1.19-5.63,2.22-11.56,3.56-19.27L446.71,68.13z"/>
<path class="st0" d="M491.17,114.53l0.44-2.82l32.47-0.59l-0.74,4.45c-0.74,4,0.44,5.63,4.45,5.63c3.85,0,5.63-1.04,6.37-4.89
	c0.59-3.41-1.19-5.78-15.71-13.49c-18.38-9.78-21.94-16.16-18.68-33.65c4-22.98,13.19-30.83,38.54-30.83
	c30.83,0,37.06,7.71,32.91,31.13l-0.44,2.52l-32.46,0.59l0.89-4.89c0.59-3.26-0.45-4.45-2.82-4.45c-2.37,0-3.56,0.89-4.15,4.15
	c-0.89,4.74,0.74,5.63,14.68,12.9c18.83,9.93,22.23,17.2,19.42,34.84c-4.45,25.2-12.01,31.43-39.58,31.43
	C494.73,146.55,486.72,139.73,491.17,114.53z"/>
<path class="st0" d="M695.9,58.2l-1.78,10.67c-1.34,7.11-2.52,15.12-7.41,42.84c-4.89,27.57-12.3,35.13-39.88,35.13
	c-27.28,0-37.95-7.56-33.06-35.13c4.89-27.87,6.37-35.87,7.71-42.99l1.93-10.82c1.19-7.26,2.22-13.19,2.96-18.08h32.02
	c-0.89,4.3-1.93,10.52-3.26,17.94l-9.64,54.55c-0.89,5.04,0.59,6.82,3.41,6.82s4.89-1.78,5.78-6.82l9.64-54.55
	c1.34-7.41,2.37-13.64,2.96-17.94h32.02C698.28,44.86,697.24,50.79,695.9,58.2z"/>
<path class="st0" d="M720.5,145.07h-32.02c1.19-5.63,2.22-11.41,3.56-19.12l12.01-68.19c1.19-7.12,2.22-12.75,2.96-17.94h34.54
	c28.91,0,37.8,9.93,33.65,34.09l-2.52,13.79c-4,22.53-11.71,32.91-40.62,32.91c-2.22,0-4.74,0-7.41,0l-0.89,5.19
	C722.43,133.65,721.39,139.28,720.5,145.07z M734.29,65.91l-5.04,28.46h4.6c3.56,0,5.63-1.78,6.52-6.82l2.67-14.82
	c0.89-5.04-0.59-6.82-4.15-6.82H734.29z"/>
</svg>
