<svg id="Layer_1" data-name="Layer 1" xmlns="http://www.w3.org/2000/svg" viewBox="0 0 253.87 48.11"><defs><style>.cls-1{fill:#fff;}</style></defs><path class="cls-1" d="M14.76,44.87A14.91,14.91,0,0,0,29.59,29.72a10.89,10.89,0,0,0-6-8.78c-5.55-2.21-10.15-3.56-9.45-8.33.62-4.16,6.19-6.2,9.92-4.26a3.15,3.15,0,0,0,.8,4.9c1.62.73,3.88-.21,4.12-2,.55-4.12-4.29-7.57-8.33-7.61C14.61,3.59,8.74,8,7.8,14.13c-.66,4.21,1.91,7.23,5.63,9.2,4.75,1.5,9,3.55,9,8.31C22.34,36,19,40.2,14.61,39.8c-3.85-.35-8.32-2.53-5.87-8,4.52,5.31,7.94-.16,7.94-.16-4.6-1.11-4.92-4.51-4.92-4.51a7.11,7.11,0,0,0-7.61,7C4,37.2,6,44.87,14.76,44.87Z" transform="translate(-4.14 -2.85)"/><path class="cls-1" d="M33.54,36.06c0,1.17,1.32,1.71,2.49,1.68a4.23,4.23,0,0,0,4-5.43c-.86.7-1.64,1.31-2.65,1-.52-.13,1.2-6.79,1.43-9h3.32l.76-3.7H39.72l1.44-8.15-4,2.34L36.1,20.52H32.26L31.5,24.3H35C34.75,27.32,33.69,31.77,33.54,36.06Z" transform="translate(-4.14 -2.85)"/><path class="cls-1" d="M45.13,38.77a2.18,2.18,0,1,0-1.87-2.16A2,2,0,0,0,45.13,38.77Z" transform="translate(-4.14 -2.85)"/><path class="cls-1" d="M101.06,15.65a2,2,0,1,0-1.93-2A1.94,1.94,0,0,0,101.06,15.65Z" transform="translate(-4.14 -2.85)"/><path class="cls-1" d="M70.43,19.46c-3.62-.07-7,5.24-7.16,10.05-.24,5.81,1,8.34,4.9,8.52,3.09.14,5.39-2.08,6.88-5.06a15.3,15.3,0,0,0,1.41-7.16c.76-1,3.56-1.73,3.56-1.73,2.64-.46-1.06,11-1.06,11a1.87,1.87,0,0,0,1.66,2.19c1.13.53,5.21-.68,6.11-2.33a4.53,4.53,0,0,0,4.08,2.48A4.6,4.6,0,0,0,95.26,35a3.87,3.87,0,0,0,3.62,2.48c2.13-.16,3.78-2.11,4.91-3.7,2.12,2,3.18,4.05,6,4.16a7.35,7.35,0,0,0,4.36-1.37,6.31,6.31,0,0,1,3.56,1.37c.46-1.89,2.79-3.86,2.79-3.86a4.28,4.28,0,0,0-3.62-.68c.6-5.05-2.12-5.14-2.18-8.6A16.54,16.54,0,0,1,115,21a15.38,15.38,0,0,0-2.12-1.73c-6.33,3.47-11.39,14.16-12.52,14C97.53,33,101.9,20,101.9,20H98.43S96.69,33.81,92,33.35C88.86,33.05,93.37,20,93.37,20H89.83s-1.67,13.27-5.74,12.65c-2.1-.32.61-8,.68-9.5a2.58,2.58,0,0,0-2.42-2.94c-1.21-.09-5.13,2.94-6.26,2.49A6.6,6.6,0,0,0,70.43,19.46Zm2.65,8c-.23,2.41-1.07,6.8-3.93,7.84-3.48,1.28-3.4-9,.53-11.77a2.28,2.28,0,0,1,3.17.08s-1.67.68-1.36,1.65C72.62,26,73.17,26.49,73.08,27.48Zm38.64-3.55.52,4.68c.38,1.89.65,4.1-1.13,5.06a3.59,3.59,0,0,1-5-2.5C108.92,26,111.72,23.93,111.72,23.93Z" transform="translate(-4.14 -2.85)"/><path class="cls-1" d="M41.77,47.55c.54,4.24,10.2-3.09,10.2-3.09,15.47-1.41,18.79,5.59,18.79,5.59,4.08-2.25,8.9.91,8.9.91C76.49,39.23,54.75,41,54.75,41c1.08-1.64,3.78-11.82,5.54-19.55C63.06,11.35,67.36,8.32,69.7,8.36a1.91,1.91,0,0,1,1.67,1.9,2.72,2.72,0,0,0-2.13,3.42,2.44,2.44,0,0,0,2.28,1.84c2.33.08,4.47-4,3.61-7a5.45,5.45,0,0,0-5.74-4.09C62.61,5.11,57.55,12.1,55,20.26c-1.67,5.31-2.56,13.07-4.52,21.3C50.46,41.56,41.18,43.64,41.77,47.55Z" transform="translate(-4.14 -2.85)"/><path class="cls-1" d="M144.29,38.2a5.46,5.46,0,0,0,2.49-1.72,4.49,4.49,0,0,0,6.41-.69,6.24,6.24,0,0,0,4.43,1.76c5.49,0,7.14-9.66,8.68-14.18h4.37c-.64,1.75-1.89,4.44-2.73,7s-1.41,5.33.22,6.49c2.5,1.78,6,.16,8-1.61a4.4,4.4,0,0,0,4,2.33A5.92,5.92,0,0,0,184,36.22c2.13,2.94,5.37.7,7.16-1a2.64,2.64,0,0,0,2.56,2.29,7.66,7.66,0,0,0,5-2.33l-.64,2.33h4.29l1.88-6.89c2.07-8.35,4.64-6.14,4.84-5.8.48.73-.3,2.13-1.17,5.22-.6,2.13-2.19,7.16,1.63,7.47a8.7,8.7,0,0,0,6.53-2.89c2.17,3.51,4.8,3.41,8.25,1.43.75,1,1.31,1.66,2.7,1.46,1.61-.07,3.19-1.64,4.06-2.55a3.35,3.35,0,0,0,3.18,2.55c2.33,0,4.4-2.21,5.91-3.8,2,2.65,4.13,4.4,7.68,3.8,2.49-.42,3.47-1.49,5.88.55,0,0,.16-2,3.46-4.21a6.4,6.4,0,0,0-4.66-.36c1.15-2.1-.39-5.05-.94-7.12-.49-1.86-.82-3.19-.13-5.08.31-.84-2.16-1.9-2.58-2.09-2.1.81-11.14,13.15-12.08,14-.44.36-1.47,1-.84-1.75l4.5-20.61-4.79,1.87c-.54,4.55-2,17.37-6.32,20.06-.4.24-1.72,1.22-2.11.45-.22-.42,2.81-13.26,2.85-13.4h-3.85L226,21c-.64-1.18-2.24-1.18-3.26-1-7.3,1.37-7.42,12.21-7.67,12.59-2.11,2.6-4,1.94-4,.34.09-2.77,3.43-10.14,2-12-1.61-2.07-5-.59-6.63,1.2l.52-2.22h-4c-.58,2.81-2.69,10.82-4.43,12.86-.92,1.08-3.25,1.39-3.15.25.11-1.32,3.41-13.12,3.41-13.12h-4.09s-2.1,9.37-3.81,12.35c-1.46,2.55-3.33,1.43-3.22,0,.2-2.71,5-21.35,5-21.35l-4.74,1.87-1.92,8.38s0-.79-1.54-1c-3.37-.56-5.25,1.91-6.62,4.49a19.78,19.78,0,0,0-2.16,7.92s-1.66,2.18-3,2c-4.42-.57,3-14.1,3-14.1h-8.44l.26-1h-3.24c-.89,3.85-2.94,11-5,13.87-1.13,1.59-2.4,1.15-2.44.05s2.84-13.38,2.84-13.38h-4.07l-.39,1.47a5,5,0,0,0-6.77,1.05c-3.46,3.89-4,8-3,11.14.15.58-3.2,2.17-3.2,2.17A6.4,6.4,0,0,1,144.29,38.2Zm6.1-4.28c-1.07,0-2-1.43-1-5.35.7-2.83,2.22-6.12,5.27-4.95C154.66,23.62,153.78,33.92,150.39,33.92Zm33.24-1.56c-.3,1.38-3.11,2-3.75.56-1.07-2.47,1.39-10.5,5-9.62C186.12,23.6,184.59,27.92,183.63,32.36ZM220.87,34c-1.06,0-2-1.43-1-5.36.71-2.83,2.14-6.17,5.51-4.84C225.38,23.76,224.36,34,220.87,34ZM249,33.81a3.31,3.31,0,0,1-4.32-.09c-2.5-2.35-2.45-2.67-1.1-4.42,1.93-2.51,3.2-4.62,4.93-6.18C247.38,27.49,251.25,31,249,33.81Z" transform="translate(-4.14 -2.85)"/><path class="cls-1" d="M195.8,13.87a2.36,2.36,0,1,0,2.36-2.36A2.36,2.36,0,0,0,195.8,13.87Z" transform="translate(-4.14 -2.85)"/><path class="cls-1" d="M140.57,41.18c-3.58-1.73-6-6.07-6.13-10-.21-9.57,5.33-20.49,10.74-23.6a8.72,8.72,0,0,1,8.3.41c-1.07,1.23-2,2.91-.47,4.29a2.6,2.6,0,0,0,3.93-.67c1.23-2.06.22-4.37-1.24-5.84a12.3,12.3,0,0,0-8.21-2.88C143,2.85,139.74,5.1,136,9.59c-5.41,6.46-10.62,22.73-3.45,31A16.7,16.7,0,0,0,146.35,46c7.19-.54,9.14-3.19,14.73.49,2.63-2,6.64-1.26,8.94-.74C163.44,34.92,150.87,46.18,140.57,41.18Z" transform="translate(-4.14 -2.85)"/><path class="cls-1" d="M256.07,27.74h-.43v1.17h-.28V27.74h-.43v-.25h1.14ZM258,28.91h-.29V27.78h0l-.42,1.13H257l-.4-1.13h0v1.13h-.29V27.49h.51l.32.93h0l.35-.93H258Z" transform="translate(-4.14 -2.85)"/></svg>