<svg xmlns="http://www.w3.org/2000/svg" viewBox="0 0 560.5 117"><defs><style>.cls-1{fill:#fff;}.cls-2{fill:#f5d131;}.cls-3{fill:#ffce01;}</style></defs><title>Asset 1</title><g id="Layer_2" data-name="Layer 2"><g id="Layer_1-2" data-name="Layer 1"><g id="Layer_2-2" data-name="Layer 2"><path class="cls-1" d="M110.8,34.8l-5.5,17.9c-2.3,7.6-6.5,11.8-13,13l4.3,24.6H78.7l-4.5-23H66.4l-7,23H40.9l21-68.8h39.8c8.9-.1,11.9,4.3,9.1,13.3ZM85.2,52.7c1.3,0,1.8-.4,2.3-1.8l3.8-12.7c.5-1.4.2-1.8-1-1.8H76.1L71,52.7Zm60,23.4H125.7l-7.8,14.2H98.6l41.3-68.8H164l-.5,68.8H144.4l.8-14.2Zm.9-14.7,1.5-24.9L133.9,61.4ZM183,68.9l-6.9-47.5h19.4l1.8,29.2,19.6-29.2h20.4L201.4,68.9l-6.5,21.3H176.4Zm40.1,8,2.9-9.4h18.5l-1.9,6.3c-.5,1.4-.2,1.8,1.1,1.8h11.9c1.4,0,1.9-.4,2.4-1.8l1.8-6c.4-1.4,0-1.7-1.3-2.1l-16.3-5c-8.8-2.7-12.5-4.4-9.6-13.9l3.6-12c2.8-9,8.3-13.4,17.1-13.4h24.8c8.8,0,11.8,4.3,9,13.4l-2.6,8.7H266l1.7-5.6c.4-1.4.1-1.8-1.2-1.8H255.9c-1.3,0-1.8.4-2.2,1.8L252,43.2c-.5,1.4-.2,1.7,1.3,2.2l16.4,4.9c8.8,2.6,12.5,4.4,9.6,13.9l-3.9,12.7c-2.7,9-8.3,13.4-17.1,13.4H232.1c-8.9-.1-11.8-4.4-9-13.4Zm65.3-1L305,21.5h4.7L293,76.1c-2.1,6.8,0,9.8,6.6,9.8h17.5c6.7,0,10.4-3,12.5-9.8l16.7-54.6H351L334.3,75.9c-2.9,9.7-8.9,14.3-18.5,14.3H297.9C288.5,90.2,285.4,85.6,288.4,75.9Zm81.1-54.5h31.2c9.3,0,12.6,4.8,9.7,14.3L406.6,48c-2.9,9.5-9.1,14.3-18.5,14.3H361.6l-8.5,27.8h-4.7l21.1-68.7Zm19.8,36.7c6.4,0,10.5-3.2,12.5-9.8l3.9-12.7c2-6.6-.1-9.8-6.5-9.8H372.9L363,58.1Z"/><path class="cls-2" d="M480.4,36.2V36l-2.9-5.4-3.4-6.2,2.8,13.3.4,1.8-.6-.4L448.6,21.2l24.6,25.5-17.9,7.7,13.8-1.2,4.1-.4a22.16,22.16,0,0,1,7.2-16.6Zm35.2,9-25.5-4.1,7.6-21.6L482.3,35.7l-.5,4,6.3-4.2-2.9,7.6,20,4.4-20,2,5,8-7.7-5.6-3.9,23.6-2.7-21.7-2.4,2.6,4.7,42.3,6.4-41.8,10.7,8.4,4.2,3.4,4.6,3.7-3.2-4.5L498,63.7,489.6,52l23.2-2.1,6.3-.6,7.8-.8,6.3-.6-5.8-.9-6.6-1Z"/><path class="cls-1" d="M475.9,53.8l2.7,21.7L482.5,52l7.7,5.6-5-8,20-2.1-20-4.4,3-7.6-6.4,4.2.5-4a9,9,0,0,0-1.9.5,22.35,22.35,0,0,0-7.2,16.7,15,15,0,0,0,.3,3.4v.1l2.4-2.6Z"/><path class="cls-3" d="M480.9,97.9V96.2h-.6V96h1.5v.2h-.6v1.7Zm1.4,0V96h.4l.5,1.4c0,.1.1.2.1.3,0-.1.1-.2.1-.3l.5-1.3h.3V98H484V96.4l-.6,1.6h-.2l-.6-1.7V98h-.3Z"/><path class="cls-1" d="M529.2,117H0L31.3,0H560.5ZM6.5,112H525.4L554.1,5H35.2L6.5,112Z"/><path class="cls-1" d="M408.82,113.73l30-111.95,5.79,1.56-30,112Z"/></g></g></g></svg>