<?xml version="1.0" encoding="UTF-8"?>
<svg id="Layer_2" data-name="Layer 2" xmlns="http://www.w3.org/2000/svg" viewBox="0 0 651.31 91.34">
  <defs>
    <style>
      .cls-1 {
        fill: #fff;
      }

      .cls-2 {
        fill: #6aaae4;
      }

      .cls-3 {
        fill: #c32032;
        stroke:#fff;
        stroke-width:4;
        paint-order:stroke fill;
        stroke-linejoin:round;
      }
    </style>
  </defs>
  <g id="Layer_1-2" data-name="Layer 1">
    <g>
      <g>
        <polygon class="cls-3" points="487.85 63.02 487.85 74.63 518.95 74.63 518.95 63.02 512.05 63.02 491.35 44.77 509.94 28.22 517.9 28.22 517.9 16.61 487.49 16.61 487.49 28.22 496.02 28.22 484.19 40.23 471.53 28.22 480.58 28.22 480.58 16.61 450.18 16.61 450.18 28.22 457.73 28.22 476.63 44.41 455.17 63.02 448.27 63.02 448.27 74.63 477.81 74.63 477.81 63.02 469.15 63.02 482.67 49.57 497.21 63.02 487.85 63.02"/>
        <path class="cls-3" d="M524.41,74.63h26.33v-11.61h-6.54l4.18-9.66h19.81l4.06,9.66h-7.99v11.61h30.46v-11.61h-7.03l-20-45.46c-.02-.06-.05-.1-.08-.15l-.09-.18-.28-.62h-30.19v11.61h9.93l-14.89,34.8h-7.68v11.61ZM557.34,30.98h1.88l6.33,15.51h-14.53l6.33-15.51Z"/>
        <path class="cls-3" d="M628.12,40.37l-1.32-.08c-6.51-.4-13.89-.85-13.89-6.72,0-2.85,2.75-7.67,13.04-7.67,5.53,0,13.44,2.47,17.75,7.88l.22.3c.12.16.25.34.37.52.25.37.46.7.63,1l.13.23c.14.25.25.48.34.67h5.46v-13.68l-1.22-.89c-.12-.09-.25-.18-.37-.27l-.25-.17c-7.19-4.89-15.6-5.92-21.39-5.92-16.46,0-25.9,6.68-25.9,18.33,0,13.3,10.73,15.08,22.67,15.84.82.05,1.62.1,2.41.15,7.24.42,13.49.78,13.49,5.63,0,7.6-10.82,8.19-14.14,8.19-9.86,0-16.38-2.6-19.39-7.74l-.07-.12c-.23-.4-.42-.79-.6-1.18l-.04-.06s-.04-.08-.06-.12h-5.75v13.98c.43.34,1.25.91,2.06,1.44l.68.43c5.99,3.78,12.78,5.32,23.44,5.32,12.39,0,24.89-6.41,24.89-20.74,0-13.17-12.32-13.91-23.19-14.55Z"/>
        <polygon class="cls-3" points="369 40.02 376.66 40.02 376.66 16.61 317.99 16.61 317.99 40.02 325.67 40.02 325.67 28.22 340.8 28.22 340.8 63.02 332.55 63.02 332.55 74.63 362.03 74.63 362.03 63.02 353.85 63.02 353.85 28.22 369 28.22 369 40.02"/>
        <polygon class="cls-3" points="433.68 36.92 441.35 36.92 441.35 16.61 383.68 16.61 383.68 28.22 391.83 28.22 391.83 63.02 383.68 63.02 383.68 74.63 441.35 74.63 441.35 52.17 433.68 52.17 433.68 63.02 404.88 63.02 404.88 49.92 425.77 49.92 425.77 40.29 404.88 40.29 404.88 28.22 433.55 28.22 433.68 36.92"/>
      </g>
      <g>
        <path class="cls-1" d="M0,74.62h26.5v-11.68h-6.59l4.21-9.72h19.94l4.09,9.72h-8.04v11.68h30.65v-11.68h-7.07l-20.13-45.75c-.02-.06-.05-.1-.08-.15l-.1-.18-.28-.63H12.73v11.68h9.99L7.73,62.93H0v11.68ZM33.14,30.68h1.89l6.37,15.61h-14.62l6.37-15.61Z"/>
        <polygon class="cls-1" points="124.96 62.93 95.98 62.93 95.98 51.44 95.98 49.75 95.98 40.06 95.98 33.96 95.98 27.91 104.05 27.91 104.05 16.23 74.64 16.23 74.64 27.91 82.85 27.91 82.85 62.93 74.64 62.93 74.64 74.61 132.68 74.61 132.68 52.01 124.96 52.01 124.96 62.93"/>
        <polygon class="cls-1" points="186.4 62.93 157.41 62.93 157.41 51.44 157.41 49.75 157.41 40.06 157.41 33.96 157.41 27.91 165.48 27.91 165.48 16.23 136.08 16.23 136.08 27.91 144.28 27.91 144.28 62.93 136.08 62.93 136.08 74.61 194.11 74.61 194.11 52.01 186.4 52.01 186.4 62.93"/>
      </g>
      <g>
        <path class="cls-2" d="M217.26,27c2.81-7.05,2.72-12.05,10.21-20.31C229.72,4.18,236.38,0,242.28,0c8.06,0,10.96,3.42,10.96,6.75,0,2.32-2.06,4.64-4.78,4.64-3.93,0-5.34-1.94-5.9-4.91-.19-.93-.84-2.69-3-2.68-6.18,0-8.71,13.26-11.15,23.18h9.84c.56-.01.75.27.66.82l-.47,2.32c-.09.65-.28.93-1.03.93h-9.74c-2.06,7.61-5.72,23.46-9.09,33.2-4.59,13.26-13.21,27.08-24.73,27.09-5.62,0-8.71-2.49-8.71-6.01,0-2.6,1.68-4.91,4.59-4.92,3,0,4.59,2.22,4.87,5.18.09.93.75,1.57,2.06,1.57,4.59,0,8.34-7.79,12.27-24.48l7.5-31.61h-7.87c-.47,0-.75-.36-.66-.83l.56-2.5c.09-.46.28-.74,1.03-.74h7.78Z"/>
        <path class="cls-2" d="M235.54,50.52c0-7.51,2.16-15.3,7.4-20.95,3.84-3.99,8.34-5.38,13.4-5.39,5.06,0,13.21,2.3,13.21,13.61,0,5.47-1.97,15.3-7.87,21.51-3.65,3.9-7.78,5.38-13.77,5.39-5.43,0-12.37-3.69-12.37-14.17ZM256.24,50.13c2.9-5.38,5.71-13.26,5.71-16.69,0-2.22-.94-3.98-3.47-3.98-3.56,0-6.28,3.25-10.49,10.76-3.18,5.56-4.68,11.22-4.68,15.02,0,1.85,1.12,4.08,3.28,4.07,2.81,0,5.81-1.95,9.65-9.19Z"/>
        <path class="cls-2" d="M274.42,63.73c-.65,0-1.03-.37-.84-.83l4.5-15.02c1.59-5.19,4.5-14.37,4.5-16.13,0-.93-.66-1.76-1.59-1.76-1.5,0-4.87,3.06-6.18,5.1-.38.56-.75.65-1.12.37l-.94-.65c-.28-.19-.28-.46,0-1.11,1.5-2.69,6.84-9.55,14.99-9.56,3.65,0,4.87,1.94,4.87,3.7,0,1.67-1.78,6.21-4.03,12.24l1.03.56c2.34-5.1,7.96-16.51,14.8-16.51,2.72,0,5.34,2.03,5.34,5,0,3.24-2.53,6.03-4.22,6.03-1.22,0-2.25-.18-3.09-.74-.75-.46-1.4-1.11-2.62-1.11-2.91,0-7.96,7.33-10.02,12.06-.94,2.22-1.97,4.91-3.09,8.34l-3,9.36c-.19.46-.66.65-1.22.65h-8.06Z"/>
      </g>
      <polygon class="cls-2" points="291.75 76.86 225.8 76.86 227.26 71.92 293.2 71.92 291.75 76.86"/>
    </g>
  </g>
</svg>