<?xml version="1.0" encoding="utf-8"?>
<!-- Generator: Adobe Illustrator 24.0.0, SVG Export Plug-In . SVG Version: 6.00 Build 0)  -->
<svg version="1.1" id="Layer_1" xmlns="http://www.w3.org/2000/svg" xmlns:xlink="http://www.w3.org/1999/xlink" x="0px" y="0px"
	 viewBox="0 0 310.8 30" style="enable-background:new 0 0 310.8 30;" xml:space="preserve">
<style type="text/css">
	.st0{fill:#FFFFFF;}
	.st1{fill:#ED174F;}
</style>
<g id="Horz_KO_1_">
	<g>
		<g>
			<g>
				<g>
					<path class="st0" d="M156.9,24.6l1,1.9l1-1.9l7.9,0.6l-1.9-2.3l8.7-7.5l-2.1-0.7l0.4-4.6l-4.2,0.7l-0.9-2.3l-0.7,0.7
						c0,0-1.7,1.6-2.4,2.3l-0.5,0.5l0.7-7.2L160.8,6l-3-4.9l-3,4.9L152,4.9l0.1,1.1c0,0,0.1,1.1,0.2,2.2l0.4,3.8l-0.5-0.5
						c-0.7-0.7-2.4-2.3-2.4-2.3l-0.7-0.7l-0.9,2.3l-4.2-0.7l0.4,4.6l-2.1,0.7l8.7,7.5l-1.9,2.3L156.9,24.6z"/>
				</g>
				<g>
					<path class="st1" d="M165.2,24.5l-1.4-1.6l8.3-7.2l-1.5-0.5l0.3-4.3l-3.9,0.7l-0.7-1.9c0,0-2.5,2.5-2.8,2.8
						c-0.2,0.2-0.5,0.3-0.7,0.3c-0.3,0-0.6-0.3-0.5-1c0.1-0.7,0.6-5.8,0.6-5.8l-2.3,0.9l-2.7-4.5l-2.8,4.5l-2.3-0.9
						c0,0,0.5,5.2,0.6,5.8c0.1,0.7-0.2,1-0.5,1c-0.2,0-0.5-0.1-0.7-0.3c-0.3-0.3-2.9-2.8-2.9-2.8l-0.7,1.9l-3.9-0.7l0.4,4.3
						l-1.5,0.5l8.3,7.2l-1.4,1.6l6.8-0.6l0.6,1.2l0.6-1.2L165.2,24.5z"/>
				</g>
			</g>
			<g>
				<g>
					<path class="st0" d="M96.4,15.5L84.5,5v17.5c0,0.7-0.1,1.5-0.6,2.2h5c-0.4-0.6-0.4-1.2-0.4-2.2v-0.1l0-8.4l11.9,10.5V6.9
						c0-0.6,0.1-1.3,0.4-2h-4.8c0.3,0.5,0.4,1.1,0.4,1.9V15.5z"/>
				</g>
				<g>
					<path class="st0" d="M6.6,4.9L5.9,9.1c0.9-0.5,1.6-0.6,2.6-0.7h3.1v14c0,1-0.2,1.7-0.7,2.2h5.5c-0.5-0.6-0.8-1.4-0.8-2.2v-14
						h3.4c0.9,0,1.8,0.3,2.6,0.7l-0.8-4.3H6.6z"/>
				</g>
				<g>
					<path class="st0" d="M103.8,4.9L103,9.1c0.9-0.5,1.6-0.6,2.6-0.7h3.1v14c0,0.9-0.2,1.6-0.7,2.2h5.6c-0.5-0.6-0.8-1.4-0.8-2.2
						v-14h3.4c0.9,0,1.8,0.3,2.6,0.7L118,4.9H103.8z"/>
				</g>
				<g>
					<path class="st0" d="M59.8,22.9l-4.3-6.2l0.4-0.3c1.9-1.2,2.5-2.7,2.6-3c0.2-0.7,0.4-1.4,0.3-2.2c0-1-0.2-2-0.6-2.8l-0.1-0.1
						c-0.4-0.7-0.7-1.1-1.2-1.6c-0.7-0.7-1.8-1.2-3-1.5c-0.3-0.1-1.4-0.3-2.5-0.3h-6.5c0.5,0.7,0.8,1.3,0.8,2l0,15.6
						c0,0,0,0.5-0.1,0.9c-0.1,0.4-0.4,0.9-0.7,1.2h5.4c-0.6-0.6-0.6-1.4-0.7-2.2v-7.4l6.6,9.6h5.2C60.9,24.2,60.4,23.6,59.8,22.9z
						 M54.6,12.4c-0.1,0.2-0.8,1.5-3,1.5h-1.9l0-5.1l1.8,0c1.8,0,2.7,0.5,3.2,1.6C55,11.2,54.7,12.1,54.6,12.4z"/>
				</g>
			</g>
			<g>
				<g>
					<g>
						<polygon class="st0" points="303.7,7.4 303.7,7.4 303.7,7.4 						"/>
					</g>
				</g>
				<g>
					<g>
						<path class="st0" d="M208.8,21c0.8,0.9,2.1,1.3,3.5,1.3c2.6,0,4.5-1.6,4.5-3.7V4.9h-0.1v0h-2.5c0.7,0.5,0.9,1.2,0.9,2.2
							c0,0,0,7.4,0,11.3c0,1.3-1.3,2.3-2.8,2.3c-1.5,0-2.8-1-2.8-2.3V7.1c0-1,0.3-1.7,1-2.2h-2.7v13.7
							C207.8,19.5,208.1,20.3,208.8,21z"/>
					</g>
				</g>
				<g>
					<g>
						<path class="st0" d="M220.5,4.9H218l-0.1,0v14c0,2.4-2.5,4.4-5.5,4.4c-1,0-2-0.2-2.9-0.6c0,0,0,0,0,0c0,0,0,0-0.1,0
							c-1.6-0.8-2.6-2.3-2.6-3.7c0,0,0-0.1,0-0.5V4.9h-2.6c0.7,0.5,0.9,1.1,0.9,2.2c0,0,0,11.6,0,11.6c0,3.9,2.7,6.2,7.1,6.2h0
							c4.4,0,7.3-2.5,7.3-6.2V7.1C219.6,6.1,219.9,5.4,220.5,4.9z"/>
					</g>
				</g>
				<g>
					<g>
						<path class="st0" d="M290.6,4.9h-2.7l-5.8,12.2v7.6h2.8c-0.7-0.5-1.1-1.1-1.2-2.1v0l0-5l5.1-10.8c0,0,0-0.1,0.1-0.1
							C289.1,6.2,289.4,5.7,290.6,4.9z"/>
					</g>
				</g>
				<g>
					<g>
						<path class="st0" d="M286.7,4.9h-3.3c0.3,0.2,0.5,0.5,0.6,0.6l0,0.1c0.1,0.3,0.1,0.6-0.3,1.6l-2.2,5l-2.2-5
							c-0.3-0.7-0.2-1.3-0.2-1.4v0l0,0c0.1-0.4,0.3-0.6,0.6-0.8h-3.4l5.2,10.9L286.7,4.9z"/>
					</g>
				</g>
				<g>
					<g>
						<path class="st0" d="M275.2,4.9h-2.6c0.8,0.5,1.1,0.9,1.6,1.7l0,0l5.2,10.9l0,4.7c0,1.3-0.6,2-1.2,2.4h2.9l0-7.6L275.2,4.9z"
							/>
					</g>
				</g>
				<g>
					<g>
						<path class="st0" d="M253.7,4.9v13.5c0,0.1,0.2,2.1-1.2,3.4c-1,1-2.4,1.5-3.9,1.5l0,0c-1.6,0-3.3-0.7-4.3-1.8
							c-0.4-0.5-0.6-0.7-1-1.4l-1.4,1.4c2,3.2,5.3,3.4,6.3,3.4l0,0c0.2,0,0.3,0,0.3,0h0c1.6,0,3-0.4,4.2-1.1c1.5-1,2.4-2.5,2.6-4.3
							c0-0.1,0-0.6,0-0.7V7.1c0-1,0.7-1.8,1.1-2.2H253.7z"/>
					</g>
				</g>
				<g>
					<g>
						<path class="st0" d="M248.6,22.4c2,0,4.1-1.2,4.1-3.5V4.9H250c0.5,0.5,1,1.3,1,2.2v11.6c0,1.2-1.2,2-2.3,2c0,0-0.1,0-0.1,0
							c-0.9,0-1.6-0.4-1.8-0.5c-0.8-0.5-1.1-1.7-1.2-2.3l-1.6,1.6c0.4,0.7,1.2,1.6,1.2,1.6C245.8,21.6,246.8,22.4,248.6,22.4z"/>
					</g>
				</g>
				<g>
					<g>
						<path class="st0" d="M182.1,7.6L182.1,7.6h-3.3v6.1h3.3c2.3,0,3.9-1.2,3.9-2.9C186,9,184.3,7.6,182.1,7.6z M182.1,12.4h-1.6
							V9.2h1.6c1.2,0,2.1,0.6,2.1,1.6C184.2,12.1,182.9,12.4,182.1,12.4z"/>
					</g>
				</g>
				<g>
					<g>
						<path class="st0" d="M186.8,18.5c0-3.2-3-3.7-4.8-3.7h-3.2V22h3.2C183.8,22,186.8,21.5,186.8,18.5z M180.5,20.3v-4.2h1.5
							c2,0,2.7,0.8,2.9,1.4c0.1,0.3,0.1,0.8,0,1.1c-0.3,0.9-0.7,1.6-2.8,1.6c0,0-0.1,0-0.1,0H180.5z"/>
					</g>
				</g>
				<g>
					<g>
						<path class="st0" d="M187.7,14.3l-0.2-0.1l0.2-0.1c0,0,1.2-1,1.2-3.2c0-3.3-2.9-5.9-6.7-5.9h0h-7c0.6,0.5,1,1.3,1,2.2v15.1
							c0,1.2-0.4,2-1.1,2.5h7c6.1,0,7.7-4,7.7-6.1C189.7,16.8,189,15.3,187.7,14.3z M182,23h-4.2V6.5h4.3c2.8,0,4.9,1.9,4.9,4.3
							c0,1.4-0.8,2.5-2.3,3.3c1.9,0.6,3.1,2.3,3.1,4.4C187.9,21.3,185.7,23,182,23z"/>
					</g>
				</g>
				<g>
					<g>
						<path class="st0" d="M193.5,4.9h-2.6c0.6,0.5,0.9,1.2,0.9,2.2v15.1c0,1.1-0.4,1.8-1.2,2.4h12l0.3-1.6h-9.4V4.9z"/>
					</g>
				</g>
				<g>
					<g>
						<path class="st0" d="M200.1,20.4c-0.6,0-2.5,0-3.7,0h-0.2v-0.2c0-1.7,0-11.4,0-12.9v0c0,0,0-0.1,0-0.1l0,0
							c0-0.1,0.1-1.5,0.9-2.2h-2.6V22h8.5l0.5-2.7c-0.5,0.4-1.6,1-3.1,1H200.1z"/>
					</g>
				</g>
				<g>
					<g>
						<path class="st0" d="M232.7,20.3c0,0-0.2,0-1.3,0c-1.5,0-3.7,0-3.7,0h-0.2v-4.1h3.7c1.1,0,1.8,0.5,2.1,0.8v-2.2h-7.5V22h9.3
							l0.5-2.6C235,19.8,234.3,20.3,232.7,20.3L232.7,20.3z"/>
					</g>
				</g>
				<g>
					<g>
						<path class="st0" d="M225.8,13.8h7.6v-2.2c-0.4,0.4-1,0.8-2.1,0.8h-3.8V9.2h4.6c1.6,0,2.5,0.5,3,0.8l-0.4-2.4h-8.8V13.8z"/>
					</g>
				</g>
				<g>
					<g>
						<path class="st0" d="M224.7,6.5h9.7l-0.3-1.6H222c0.7,0.6,1.1,1.4,1.1,2.2c0,7.6,0,11.4,0,13.3c0,1.9,0,1.9,0,1.9
							c0,0.5-0.2,1.6-1.2,2.3h12.8l0.3-1.6l-10.2,0V6.5z"/>
					</g>
				</g>
				<g>
					<g>
						<path class="st0" d="M262.6,17.6h7L266,9.8L262.6,17.6z M264.7,16.3l1.3-3.1l1.3,3.1H264.7z"/>
					</g>
				</g>
				<g>
					<g>
						<path class="st0" d="M274.5,22L274.5,22L266,3.7L257.6,22c-0.7,1.3-1.4,2.2-2.1,2.7h2.7L266,7.2l7.7,17.4h2.6
							C275.6,24,275,23.1,274.5,22z"/>
					</g>
				</g>
				<g>
					<g>
						<path class="st0" d="M262.1,18.7l-2.7,6h3.2c-0.5-0.6-0.6-1.4-0.3-2.3l0,0l1-2.3h5.4l1.1,2.4c0.4,1,0.3,1.7-0.3,2.2h3.1
							l-2.7-6H262.1z"/>
					</g>
				</g>
				<g>
					<g>
						<path class="st0" d="M303.5,19c0-4.7-3.8-5.9-5.6-6.4l-0.1,0c-1.9-0.6-2.5-1-2.6-1.8c0-0.2,0-0.3,0-0.4v0
							c0.1-1,0.9-1.5,2.2-1.5c0.3,0,2.3,0.2,2.6,2.5l1.4-1.6c-0.4-0.8-1.6-2.4-4.2-2.5c-2.3-0.1-3.8,1.3-3.8,3.5
							c0,2.1,1.7,2.7,3.2,3.2l0.1,0l0.7,0.3c0.1,0.1,0.3,0.1,0.4,0.1c1.4,0.5,2.7,1,3.5,2.4c0,0,0.5,1,0.5,2.2
							c0,1.2-0.4,2.2-1.2,2.9c-1,1-2.4,1.5-3.9,1.5l0,0c-1.6,0-3.1-0.6-4.2-1.8c-0.4-0.5-0.6-0.7-1-1.4l-1.3,1.4
							c2,3.1,5.3,3.4,6.2,3.4c0.1,0,0.1,0,0.1,0l0,0h0.2c1.5,0,3-0.4,4.1-1.1C302.5,22.8,303.5,21,303.5,19z"/>
					</g>
				</g>
				<g>
					<g>
						<path class="st0" d="M296.6,22.4h0.2c2.2,0,3.9-1.4,3.9-3.3c0-1.5-0.5-2.5-1.7-3.1c-1-0.5-2.4-1-2.4-1
							c-2.4-0.8-4.2-1.7-4.3-4.3c0-1.2,0.4-2.3,1.2-3.1c0.9-0.9,2.3-1.4,3.8-1.4c0.8,0,3.4,0.3,4.8,2.7l1.1-1.3l-0.1-0.1l0,0
							l-0.2-0.2c-1.2-1.5-3.5-2.7-5.7-2.7c-1.6,0-3,0.4-4.1,1.1c-1.5,1-2.4,2.4-2.6,4.2c0,0.3,0,0.5-0.1,0.8c0,4,2.8,4.9,5.1,5.7
							l0.2,0.1c2,0.7,3.1,1.3,3.1,2.5c0,0.8-0.9,1.7-2.2,1.7c-0.9,0-1.6-0.3-1.8-0.5c-0.8-0.5-1.1-1.7-1.2-2.3l-1.6,1.6
							c0.3,0.6,1,1.3,1,1.4C294.1,21.9,295.2,22.4,296.6,22.4z"/>
					</g>
				</g>
				<g>
					<g>
						<polygon class="st0" points="303.6,5.4 304,5.4 304,6.6 304.3,6.6 304.3,5.4 304.8,5.4 304.8,5.1 303.6,5.1 						"/>
					</g>
				</g>
				<g>
					<g>
						<polygon class="st0" points="306.3,5.1 306,6.1 306,6.1 305.6,5.1 305.1,5.1 305.1,6.6 305.4,6.6 305.4,5.4 305.4,5.4 
							305.8,6.6 306.1,6.6 306.6,5.4 306.6,5.4 306.6,6.6 306.9,6.6 306.9,5.1 						"/>
					</g>
				</g>
			</g>
		</g>
		<g>
			<path class="st0" d="M32.8,4.6c-5.5,0-10,4.3-10.3,9.7h0c0,0.2,0,0.3,0,0.5c0,0.1,0,0.1,0,0.2c0,0,0,0,0,0c0,0.7,0.1,1.5,0.3,2.2
				c0,0,0,0,0,0.1c0,0.2,0.1,0.3,0.1,0.5c0,0,0,0.1,0,0.1c0,0.1,0.1,0.3,0.1,0.4c0,0,0,0.1,0,0.1c0,0.1,0.1,0.2,0.1,0.4
				c0.1,0.2,0.2,0.4,0.3,0.7h0c1.7,3.3,5.2,5.6,9.2,5.6C38.4,25,43,20.4,43,14.8C43,9.1,38.4,4.6,32.8,4.6z M32.8,21
				c-3.4,0-6.3-2.9-6.3-6.3c0-3.4,2.9-6.3,6.3-6.3c3.4,0,6.3,2.9,6.3,6.3C39,18.2,36.1,21,32.8,21z"/>
		</g>
		<path class="st0" d="M71.6,4.6c-5.5,0-10,4.3-10.3,9.7l0,0c0,0.2,0,0.3,0,0.5c0,0.1,0,0.1,0,0.2c0,0,0,0,0,0
			c0,0.7,0.1,1.5,0.3,2.2c0,0,0,0,0,0.1c0,0.2,0.1,0.3,0.1,0.5c0,0,0,0.1,0,0.1c0,0.1,0.1,0.3,0.1,0.4c0,0,0,0.1,0,0.1
			c0.1,0.1,0.1,0.2,0.2,0.4c0.1,0.2,0.2,0.4,0.3,0.7h0c1.7,3.3,5.2,5.6,9.2,5.6c5.7,0,10.3-4.6,10.3-10.2
			C81.9,9.1,77.3,4.6,71.6,4.6z M71.6,21c-3.4,0-6.3-2.9-6.3-6.3c0-3.4,2.9-6.3,6.3-6.3c3.4,0,6.3,2.9,6.3,6.3
			C77.9,18.2,75,21,71.6,21z"/>
		<path class="st0" d="M129.8,4.6c-5.5,0-10,4.3-10.3,9.7l0,0c0,0.2,0,0.3,0,0.5c0,0.1,0,0.1,0,0.2c0,0,0,0,0,0
			c0,0.7,0.1,1.5,0.3,2.2c0,0,0,0,0,0.1c0,0.2,0.1,0.3,0.1,0.5c0,0,0,0.1,0,0.1c0,0.1,0.1,0.3,0.1,0.4c0,0,0,0.1,0.1,0.1
			c0,0.1,0.1,0.2,0.1,0.4c0.1,0.2,0.2,0.4,0.3,0.7h0c1.7,3.3,5.2,5.6,9.2,5.6c5.7,0,10.3-4.6,10.3-10.2
			C140.1,9.1,135.5,4.6,129.8,4.6z M129.8,21c-3.4,0-6.3-2.9-6.3-6.3c0-3.4,2.9-6.3,6.3-6.3c3.4,0,6.3,2.9,6.3,6.3
			C136,18.2,133.2,21,129.8,21z"/>
	</g>
</g>
</svg>
