<?xml version="1.0" encoding="utf-8"?>
<!-- Generator: Adobe Illustrator 26.1.0, SVG Export Plug-In . SVG Version: 6.00 Build 0)  -->
<svg version="1.1" id="Layer_1" xmlns="http://www.w3.org/2000/svg" xmlns:xlink="http://www.w3.org/1999/xlink" x="0px" y="0px"
	 viewBox="0 0 550 198" style="enable-background:new 0 0 550 198;" xml:space="preserve">
<style type="text/css">
	.st0{fill:#FFFFFF;}
</style>
<g>
	<g>
		<path class="st0" d="M62.3,81.2l-0.6-67.7h23.6v136.3H58.8l-17.1-74l0.6,74H18.7V13.5h27.8L62.3,81.2z"/>
		<path class="st0" d="M146.2,13.5l17.9,136.3H137l-2.1-19.9h-17.1l-1.9,19.9H91.1L109,13.5H146.2z M126.3,46.6l-6,59.6h12.3
			L126.3,46.6z"/>
		<path class="st0" d="M203,149.8h-27.3V37.8h-16.5V13.5h60.3v24.3H203V149.8z"/>
		<path class="st0" d="M253.8,13.5v136.3h-27.3V13.5H253.8z"/>
		<path class="st0" d="M304.6,149.8h-27.3V37.8h-16.5V13.5h60.3v24.3h-16.5V149.8z"/>
		<path class="st0" d="M394.9,13.5v112.1c0,16.9-8.4,25.3-25.3,25.3h-16.5c-16.9,0-25.3-8.4-25.3-25.3V13.5H355v109.2
			c0,3.2,1.6,4.9,4.9,4.9h2.9c3.2,0,4.9-1.6,4.9-4.9V13.5H394.9z"/>
		<path class="st0" d="M404.5,149.8V13.5h38.3c19.5,0,29.2,9.7,29.2,29.2v77.9c0,19.5-9.7,29.2-29.2,29.2H404.5z M431.7,36.9v89.5
			h5.5c5.1,0,7.6-2.5,7.6-7.6V44.4c0-5.1-2.5-7.6-7.6-7.6H431.7z"/>
		<path class="st0" d="M481.4,13.5H532v24.3h-23.4v30.6H531v24.3h-22.4v32.7h23.7v24.3h-51V13.5z"/>
	</g>
	<path class="st0" d="M524,175l-1.3,0c-0.3-0.2-0.5-0.3-0.6-0.4c-0.8-0.5-3.8-2-7.7-2c-14.5-0.2-29.1-0.4-44-0.5
		c-0.3-3-7.3-4.7-9.8-4.7c-23.1-0.3-46.4-0.4-69.7-0.5c0,0,0,0,0,0c-0.1-3-6.5-4.7-9.4-4.7c0,0,0,0-0.1,0
		c-46.1,0.5-93.8,1.3-141.9,2.5c-46.7,1.1-94.1,2.6-140.7,4.4c-27.9,1.1-53.1,2.1-78.7,3.4c-2.9,0.2-3,1.9-3,2.5
		c0.1,2.8,6.1,4.1,8.1,4l14.4-0.6c0.2,0,0.3,0,0.4,0l2.5-0.1c1.6,1.5,5.7,2.8,8.5,2.7c23.9-1,48-1.9,72.1-2.7c0.4,3,7.2,4.4,9.5,4.4
		c42-0.8,86.7-1.6,132.1-2.3c1.8,1.1,5.3,2.2,7.9,2.2c63.1-0.7,129.3-0.9,196.8-0.7c0,0,0,0,0,0c0.9,1.4,4.1,2.5,6.2,2.5
		c0.1,0,0.2,0,0.3,0c3-0.2,6.1-0.2,9.2-0.3c1.5,0,3.1-0.1,4.6-0.1c2.1-0.1,4.2-0.1,6.3-0.2c2.5-0.1,5-0.2,7.5-0.3
		c8.1-0.3,16.7-0.6,27.2-1.2c2.9-0.2,3.5-1.5,3.5-2.6C534.1,176.5,526.1,175,524,175z"/>
</g>
</svg>
